<?xml version="1.0" encoding="UTF-8" standalone="no"?>
<svg
   width="740"
   height="740"
   version="1.1"
   id="svg485"
   sodipodi:docname="whatsappar.svg"
   inkscape:version="1.1.2 (0a00cf5339, 2022-02-04)"
   viewBox="0 0 74 74"
   xmlns:inkscape="http://www.inkscape.org/namespaces/inkscape"
   xmlns:sodipodi="http://sodipodi.sourceforge.net/DTD/sodipodi-0.dtd"
   xmlns="http://www.w3.org/2000/svg"
   xmlns:svg="http://www.w3.org/2000/svg">
  <defs
     id="defs489">
    <linearGradient
       id="b"
       x1="85.915001"
       x2="86.535004"
       y1="32.567001"
       y2="137.092"
       gradientUnits="userSpaceOnUse"
       gradientTransform="matrix(0.09713347,0,0,0.09713347,28.490379,28.506212)">
      <stop
         offset="0"
         stop-color="#57d163"
         id="stop2" />
      <stop
         offset="1"
         stop-color="#23b33a"
         id="stop4" />
    </linearGradient>
    <filter
       id="a"
       width="1.1146948"
       height="1.1141825"
       x="-0.057347414"
       y="-0.05709127"
       color-interpolation-filters="sRGB">
      <feGaussianBlur
         stdDeviation="3.531"
         id="feGaussianBlur7" />
    </filter>
  </defs>
  <sodipodi:namedview
     id="namedview487"
     pagecolor="#ffffff"
     bordercolor="#666666"
     borderopacity="1.0"
     inkscape:pageshadow="2"
     inkscape:pageopacity="0.0"
     inkscape:pagecheckerboard="0"
     showgrid="false"
     inkscape:zoom="10.486486"
     inkscape:cx="37.047682"
     inkscape:cy="37.000002"
     inkscape:window-width="1920"
     inkscape:window-height="1011"
     inkscape:window-x="0"
     inkscape:window-y="0"
     inkscape:window-maximized="1"
     inkscape:current-layer="svg485"
     fit-margin-top="0"
     fit-margin-left="0"
     fit-margin-right="0"
     fit-margin-bottom="0" />
  <desc
     id="desc2">Zint Generated Symbol
   </desc>
  <g
     id="barcode"
     fill="#000000">
    <rect
       x="0"
       y="0"
       width="74"
       height="74"
       fill="#ffffff"
       id="rect4" />
    <rect
       x="4"
       y="4"
       width="14"
       height="2"
       id="rect6" />
    <rect
       x="20"
       y="4"
       width="4"
       height="6"
       id="rect8" />
    <rect
       x="26"
       y="4"
       width="6"
       height="2"
       id="rect10" />
    <rect
       x="34"
       y="4"
       width="2"
       height="2"
       id="rect12" />
    <rect
       x="38"
       y="4"
       width="4"
       height="2"
       id="rect14" />
    <rect
       x="44"
       y="4"
       width="4"
       height="2"
       id="rect16" />
    <rect
       x="56"
       y="4"
       width="14"
       height="2"
       id="rect18" />
    <rect
       x="4"
       y="6"
       width="2"
       height="10"
       id="rect20" />
    <rect
       x="16"
       y="6"
       width="2"
       height="10"
       id="rect22" />
    <rect
       x="26"
       y="6"
       width="8"
       height="2"
       id="rect24" />
    <rect
       x="40"
       y="6"
       width="6"
       height="2"
       id="rect26" />
    <rect
       x="48"
       y="6"
       width="2"
       height="2"
       id="rect28" />
    <rect
       x="52"
       y="6"
       width="2"
       height="2"
       id="rect30" />
    <rect
       x="56"
       y="6"
       width="2"
       height="10"
       id="rect32" />
    <rect
       x="68"
       y="6"
       width="2"
       height="10"
       id="rect34" />
    <rect
       x="8"
       y="8"
       width="6"
       height="6"
       id="rect36" />
    <rect
       x="26"
       y="8"
       width="12"
       height="2"
       id="rect38" />
    <rect
       x="42"
       y="8"
       width="2"
       height="2"
       id="rect40" />
    <rect
       x="48"
       y="8"
       width="4"
       height="2"
       id="rect42" />
    <rect
       x="60"
       y="8"
       width="6"
       height="6"
       id="rect44" />
    <rect
       x="22"
       y="10"
       width="4"
       height="2"
       id="rect46" />
    <rect
       x="28"
       y="10"
       width="2"
       height="2"
       id="rect48" />
    <rect
       x="32"
       y="10"
       width="6"
       height="2"
       id="rect50" />
    <rect
       x="40"
       y="10"
       width="2"
       height="2"
       id="rect52" />
    <rect
       x="44"
       y="10"
       width="2"
       height="2"
       id="rect54" />
    <rect
       x="50"
       y="10"
       width="4"
       height="2"
       id="rect56" />
    <rect
       x="20"
       y="12"
       width="2"
       height="2"
       id="rect58" />
    <rect
       x="26"
       y="12"
       width="4"
       height="4"
       id="rect60" />
    <rect
       x="34"
       y="12"
       width="4"
       height="2"
       id="rect62" />
    <rect
       x="46"
       y="12"
       width="2"
       height="4"
       id="rect64" />
    <rect
       x="50"
       y="12"
       width="2"
       height="2"
       id="rect66" />
    <rect
       x="22"
       y="14"
       width="2"
       height="2"
       id="rect68" />
    <rect
       x="32"
       y="14"
       width="6"
       height="2"
       id="rect70" />
    <rect
       x="42"
       y="14"
       width="2"
       height="2"
       id="rect72" />
    <rect
       x="4"
       y="16"
       width="14"
       height="2"
       id="rect74" />
    <rect
       x="20"
       y="16"
       width="2"
       height="2"
       id="rect76" />
    <rect
       x="24"
       y="16"
       width="2"
       height="2"
       id="rect78" />
    <rect
       x="28"
       y="16"
       width="2"
       height="2"
       id="rect80" />
    <rect
       x="32"
       y="16"
       width="2"
       height="2"
       id="rect82" />
    <rect
       x="36"
       y="16"
       width="2"
       height="2"
       id="rect84" />
    <rect
       x="40"
       y="16"
       width="2"
       height="4"
       id="rect86" />
    <rect
       x="44"
       y="16"
       width="2"
       height="2"
       id="rect88" />
    <rect
       x="48"
       y="16"
       width="2"
       height="4"
       id="rect90" />
    <rect
       x="52"
       y="16"
       width="2"
       height="2"
       id="rect92" />
    <rect
       x="56"
       y="16"
       width="14"
       height="2"
       id="rect94" />
    <rect
       x="30"
       y="18"
       width="8"
       height="2"
       id="rect96" />
    <rect
       x="4"
       y="20"
       width="2"
       height="4"
       id="rect98" />
    <rect
       x="10"
       y="20"
       width="12"
       height="2"
       id="rect100" />
    <rect
       x="26"
       y="20"
       width="2"
       height="2"
       id="rect102" />
    <rect
       x="32"
       y="20"
       width="2"
       height="2"
       id="rect104" />
    <rect
       x="36"
       y="20"
       width="4"
       height="2"
       id="rect106" />
    <rect
       x="44"
       y="20"
       width="2"
       height="2"
       id="rect108" />
    <rect
       x="50"
       y="20"
       width="6"
       height="2"
       id="rect110" />
    <rect
       x="60"
       y="20"
       width="2"
       height="2"
       id="rect112" />
    <rect
       x="64"
       y="20"
       width="6"
       height="2"
       id="rect114" />
    <rect
       x="14"
       y="22"
       width="2"
       height="2"
       id="rect116" />
    <rect
       x="20"
       y="22"
       width="2"
       height="2"
       id="rect118" />
    <rect
       x="28"
       y="22"
       width="8"
       height="2"
       id="rect120" />
    <rect
       x="38"
       y="22"
       width="6"
       height="2"
       id="rect122" />
    <rect
       x="48"
       y="22"
       width="6"
       height="2"
       id="rect124" />
    <rect
       x="60"
       y="22"
       width="6"
       height="2"
       id="rect126" />
    <rect
       x="6"
       y="24"
       width="8"
       height="2"
       id="rect128" />
    <rect
       x="16"
       y="24"
       width="16"
       height="2"
       id="rect130" />
    <rect
       x="34"
       y="24"
       width="2"
       height="2"
       id="rect132" />
    <rect
       x="44"
       y="24"
       width="10"
       height="2"
       id="rect134" />
    <rect
       x="60"
       y="24"
       width="10"
       height="2"
       id="rect136" />
    <rect
       x="4"
       y="26"
       width="2"
       height="2"
       id="rect138" />
    <rect
       x="8"
       y="26"
       width="2"
       height="2"
       id="rect140" />
    <rect
       x="12"
       y="26"
       width="2"
       height="2"
       id="rect142" />
    <rect
       x="18"
       y="26"
       width="8"
       height="2"
       id="rect144" />
    <rect
       x="30"
       y="26"
       width="2"
       height="4"
       id="rect146" />
    <rect
       x="34"
       y="26"
       width="4"
       height="2"
       id="rect148" />
    <rect
       x="40"
       y="26"
       width="2"
       height="2"
       id="rect150" />
    <rect
       x="50"
       y="26"
       width="2"
       height="2"
       id="rect152" />
    <rect
       x="56"
       y="26"
       width="4"
       height="2"
       id="rect154" />
    <rect
       x="64"
       y="26"
       width="4"
       height="2"
       id="rect156" />
    <rect
       x="16"
       y="28"
       width="6"
       height="2"
       id="rect158" />
    <rect
       x="24"
       y="28"
       width="4"
       height="2"
       id="rect160" />
    <rect
       x="38"
       y="28"
       width="2"
       height="2"
       id="rect162" />
    <rect
       x="42"
       y="28"
       width="2"
       height="2"
       id="rect164" />
    <rect
       x="48"
       y="28"
       width="6"
       height="2"
       id="rect166" />
    <rect
       x="60"
       y="28"
       width="2"
       height="2"
       id="rect168" />
    <rect
       x="68"
       y="28"
       width="2"
       height="2"
       id="rect170" />
    <rect
       x="4"
       y="30"
       width="2"
       height="2"
       id="rect172" />
    <rect
       x="12"
       y="30"
       width="2"
       height="2"
       id="rect174" />
    <rect
       x="18"
       y="30"
       width="10"
       height="2"
       id="rect176" />
    <rect
       x="30"
       y="30"
       width="4"
       height="2"
       id="rect178" />
    <rect
       x="40"
       y="30"
       width="8"
       height="2"
       id="rect180" />
    <rect
       x="52"
       y="30"
       width="4"
       height="2"
       id="rect182" />
    <rect
       x="60"
       y="30"
       width="6"
       height="2"
       id="rect184" />
    <rect
       x="4"
       y="32"
       width="4"
       height="2"
       id="rect186" />
    <rect
       x="10"
       y="32"
       width="2"
       height="2"
       id="rect188" />
    <rect
       x="16"
       y="32"
       width="4"
       height="2"
       id="rect190" />
    <rect
       x="22"
       y="32"
       width="2"
       height="2"
       id="rect192" />
    <rect
       x="26"
       y="32"
       width="4"
       height="2"
       id="rect194" />
    <rect
       x="34"
       y="32"
       width="2"
       height="2"
       id="rect196" />
    <rect
       x="38"
       y="32"
       width="12"
       height="2"
       id="rect198" />
    <rect
       x="52"
       y="32"
       width="2"
       height="2"
       id="rect200" />
    <rect
       x="56"
       y="32"
       width="4"
       height="2"
       id="rect202" />
    <rect
       x="62"
       y="32"
       width="2"
       height="4"
       id="rect204" />
    <rect
       x="6"
       y="34"
       width="2"
       height="2"
       id="rect206" />
    <rect
       x="10"
       y="34"
       width="6"
       height="2"
       id="rect208" />
    <rect
       x="20"
       y="34"
       width="4"
       height="2"
       id="rect210" />
    <rect
       x="26"
       y="34"
       width="2"
       height="2"
       id="rect212" />
    <rect
       x="30"
       y="34"
       width="4"
       height="2"
       id="rect214" />
    <rect
       x="36"
       y="34"
       width="2"
       height="2"
       id="rect216" />
    <rect
       x="44"
       y="34"
       width="2"
       height="2"
       id="rect218" />
    <rect
       x="48"
       y="34"
       width="2"
       height="2"
       id="rect220" />
    <rect
       x="52"
       y="34"
       width="4"
       height="2"
       id="rect222" />
    <rect
       x="58"
       y="34"
       width="2"
       height="2"
       id="rect224" />
    <rect
       x="68"
       y="34"
       width="2"
       height="2"
       id="rect226" />
    <rect
       x="10"
       y="36"
       width="2"
       height="2"
       id="rect228" />
    <rect
       x="14"
       y="36"
       width="4"
       height="2"
       id="rect230" />
    <rect
       x="24"
       y="36"
       width="2"
       height="2"
       id="rect232" />
    <rect
       x="32"
       y="36"
       width="4"
       height="2"
       id="rect234" />
    <rect
       x="48"
       y="36"
       width="4"
       height="2"
       id="rect236" />
    <rect
       x="54"
       y="36"
       width="12"
       height="2"
       id="rect238" />
    <rect
       x="4"
       y="38"
       width="2"
       height="6"
       id="rect240" />
    <rect
       x="8"
       y="38"
       width="2"
       height="2"
       id="rect242" />
    <rect
       x="12"
       y="38"
       width="4"
       height="2"
       id="rect244" />
    <rect
       x="18"
       y="38"
       width="2"
       height="2"
       id="rect246" />
    <rect
       x="26"
       y="38"
       width="4"
       height="2"
       id="rect248" />
    <rect
       x="32"
       y="38"
       width="2"
       height="2"
       id="rect250" />
    <rect
       x="38"
       y="38"
       width="8"
       height="2"
       id="rect252" />
    <rect
       x="48"
       y="38"
       width="2"
       height="2"
       id="rect254" />
    <rect
       x="56"
       y="38"
       width="2"
       height="2"
       id="rect256" />
    <rect
       x="60"
       y="38"
       width="2"
       height="2"
       id="rect258" />
    <rect
       x="64"
       y="38"
       width="6"
       height="2"
       id="rect260" />
    <rect
       x="16"
       y="40"
       width="2"
       height="2"
       id="rect262" />
    <rect
       x="20"
       y="40"
       width="2"
       height="2"
       id="rect264" />
    <rect
       x="24"
       y="40"
       width="8"
       height="2"
       id="rect266" />
    <rect
       x="34"
       y="40"
       width="2"
       height="2"
       id="rect268" />
    <rect
       x="38"
       y="40"
       width="6"
       height="2"
       id="rect270" />
    <rect
       x="46"
       y="40"
       width="6"
       height="2"
       id="rect272" />
    <rect
       x="54"
       y="40"
       width="2"
       height="2"
       id="rect274" />
    <rect
       x="58"
       y="40"
       width="2"
       height="2"
       id="rect276" />
    <rect
       x="62"
       y="40"
       width="4"
       height="2"
       id="rect278" />
    <rect
       x="68"
       y="40"
       width="2"
       height="2"
       id="rect280" />
    <rect
       x="8"
       y="42"
       width="4"
       height="2"
       id="rect282" />
    <rect
       x="22"
       y="42"
       width="2"
       height="2"
       id="rect284" />
    <rect
       x="28"
       y="42"
       width="6"
       height="2"
       id="rect286" />
    <rect
       x="36"
       y="42"
       width="2"
       height="2"
       id="rect288" />
    <rect
       x="42"
       y="42"
       width="4"
       height="2"
       id="rect290" />
    <rect
       x="52"
       y="42"
       width="4"
       height="2"
       id="rect292" />
    <rect
       x="60"
       y="42"
       width="10"
       height="2"
       id="rect294" />
    <rect
       x="6"
       y="44"
       width="4"
       height="2"
       id="rect296" />
    <rect
       x="12"
       y="44"
       width="2"
       height="2"
       id="rect298" />
    <rect
       x="16"
       y="44"
       width="2"
       height="2"
       id="rect300" />
    <rect
       x="20"
       y="44"
       width="2"
       height="2"
       id="rect302" />
    <rect
       x="24"
       y="44"
       width="4"
       height="2"
       id="rect304" />
    <rect
       x="30"
       y="44"
       width="8"
       height="2"
       id="rect306" />
    <rect
       x="40"
       y="44"
       width="4"
       height="2"
       id="rect308" />
    <rect
       x="46"
       y="44"
       width="4"
       height="2"
       id="rect310" />
    <rect
       x="62"
       y="44"
       width="2"
       height="2"
       id="rect312" />
    <rect
       x="66"
       y="44"
       width="2"
       height="2"
       id="rect314" />
    <rect
       x="4"
       y="46"
       width="4"
       height="2"
       id="rect316" />
    <rect
       x="10"
       y="46"
       width="2"
       height="2"
       id="rect318" />
    <rect
       x="14"
       y="46"
       width="2"
       height="2"
       id="rect320" />
    <rect
       x="18"
       y="46"
       width="4"
       height="2"
       id="rect322" />
    <rect
       x="32"
       y="46"
       width="2"
       height="2"
       id="rect324" />
    <rect
       x="38"
       y="46"
       width="2"
       height="2"
       id="rect326" />
    <rect
       x="48"
       y="46"
       width="2"
       height="2"
       id="rect328" />
    <rect
       x="52"
       y="46"
       width="10"
       height="2"
       id="rect330" />
    <rect
       x="64"
       y="46"
       width="2"
       height="2"
       id="rect332" />
    <rect
       x="4"
       y="48"
       width="2"
       height="4"
       id="rect334" />
    <rect
       x="8"
       y="48"
       width="10"
       height="2"
       id="rect336" />
    <rect
       x="20"
       y="48"
       width="2"
       height="2"
       id="rect338" />
    <rect
       x="42"
       y="48"
       width="6"
       height="2"
       id="rect340" />
    <rect
       x="50"
       y="48"
       width="2"
       height="2"
       id="rect342" />
    <rect
       x="56"
       y="48"
       width="2"
       height="2"
       id="rect344" />
    <rect
       x="62"
       y="48"
       width="8"
       height="4"
       id="rect346" />
    <rect
       x="12"
       y="50"
       width="2"
       height="2"
       id="rect348" />
    <rect
       x="18"
       y="50"
       width="2"
       height="2"
       id="rect350" />
    <rect
       x="22"
       y="50"
       width="2"
       height="2"
       id="rect352" />
    <rect
       x="26"
       y="50"
       width="2"
       height="2"
       id="rect354" />
    <rect
       x="32"
       y="50"
       width="4"
       height="2"
       id="rect356" />
    <rect
       x="38"
       y="50"
       width="2"
       height="2"
       id="rect358" />
    <rect
       x="42"
       y="50"
       width="4"
       height="2"
       id="rect360" />
    <rect
       x="52"
       y="50"
       width="6"
       height="2"
       id="rect362" />
    <rect
       x="4"
       y="52"
       width="4"
       height="2"
       id="rect364" />
    <rect
       x="14"
       y="52"
       width="4"
       height="2"
       id="rect366" />
    <rect
       x="20"
       y="52"
       width="2"
       height="2"
       id="rect368" />
    <rect
       x="24"
       y="52"
       width="2"
       height="2"
       id="rect370" />
    <rect
       x="30"
       y="52"
       width="2"
       height="2"
       id="rect372" />
    <rect
       x="36"
       y="52"
       width="2"
       height="2"
       id="rect374" />
    <rect
       x="44"
       y="52"
       width="2"
       height="2"
       id="rect376" />
    <rect
       x="50"
       y="52"
       width="16"
       height="2"
       id="rect378" />
    <rect
       x="20"
       y="54"
       width="14"
       height="2"
       id="rect380" />
    <rect
       x="36"
       y="54"
       width="6"
       height="2"
       id="rect382" />
    <rect
       x="46"
       y="54"
       width="4"
       height="2"
       id="rect384" />
    <rect
       x="52"
       y="54"
       width="2"
       height="2"
       id="rect386" />
    <rect
       x="60"
       y="54"
       width="2"
       height="4"
       id="rect388" />
    <rect
       x="64"
       y="54"
       width="4"
       height="4"
       id="rect390" />
    <rect
       x="4"
       y="56"
       width="14"
       height="2"
       id="rect392" />
    <rect
       x="20"
       y="56"
       width="2"
       height="4"
       id="rect394" />
    <rect
       x="24"
       y="56"
       width="2"
       height="2"
       id="rect396" />
    <rect
       x="28"
       y="56"
       width="2"
       height="2"
       id="rect398" />
    <rect
       x="34"
       y="56"
       width="2"
       height="2"
       id="rect400" />
    <rect
       x="38"
       y="56"
       width="2"
       height="2"
       id="rect402" />
    <rect
       x="42"
       y="56"
       width="4"
       height="2"
       id="rect404" />
    <rect
       x="50"
       y="56"
       width="4"
       height="2"
       id="rect406" />
    <rect
       x="56"
       y="56"
       width="2"
       height="2"
       id="rect408" />
    <rect
       x="4"
       y="58"
       width="2"
       height="10"
       id="rect410" />
    <rect
       x="16"
       y="58"
       width="2"
       height="10"
       id="rect412" />
    <rect
       x="26"
       y="58"
       width="10"
       height="2"
       id="rect414" />
    <rect
       x="38"
       y="58"
       width="16"
       height="2"
       id="rect416" />
    <rect
       x="60"
       y="58"
       width="6"
       height="2"
       id="rect418" />
    <rect
       x="8"
       y="60"
       width="6"
       height="6"
       id="rect420" />
    <rect
       x="20"
       y="60"
       width="8"
       height="2"
       id="rect422" />
    <rect
       x="36"
       y="60"
       width="4"
       height="2"
       id="rect424" />
    <rect
       x="46"
       y="60"
       width="16"
       height="2"
       id="rect426" />
    <rect
       x="66"
       y="60"
       width="4"
       height="2"
       id="rect428" />
    <rect
       x="20"
       y="62"
       width="6"
       height="2"
       id="rect430" />
    <rect
       x="28"
       y="62"
       width="6"
       height="2"
       id="rect432" />
    <rect
       x="36"
       y="62"
       width="2"
       height="2"
       id="rect434" />
    <rect
       x="40"
       y="62"
       width="2"
       height="2"
       id="rect436" />
    <rect
       x="48"
       y="62"
       width="8"
       height="2"
       id="rect438" />
    <rect
       x="58"
       y="62"
       width="2"
       height="2"
       id="rect440" />
    <rect
       x="62"
       y="62"
       width="6"
       height="2"
       id="rect442" />
    <rect
       x="26"
       y="64"
       width="2"
       height="2"
       id="rect444" />
    <rect
       x="30"
       y="64"
       width="6"
       height="2"
       id="rect446" />
    <rect
       x="38"
       y="64"
       width="2"
       height="2"
       id="rect448" />
    <rect
       x="42"
       y="64"
       width="2"
       height="2"
       id="rect450" />
    <rect
       x="46"
       y="64"
       width="2"
       height="2"
       id="rect452" />
    <rect
       x="50"
       y="64"
       width="2"
       height="2"
       id="rect454" />
    <rect
       x="54"
       y="64"
       width="2"
       height="2"
       id="rect456" />
    <rect
       x="58"
       y="64"
       width="4"
       height="2"
       id="rect458" />
    <rect
       x="66"
       y="64"
       width="4"
       height="4"
       id="rect460" />
    <rect
       x="22"
       y="66"
       width="2"
       height="2"
       id="rect462" />
    <rect
       x="28"
       y="66"
       width="2"
       height="2"
       id="rect464" />
    <rect
       x="32"
       y="66"
       width="2"
       height="2"
       id="rect466" />
    <rect
       x="42"
       y="66"
       width="4"
       height="2"
       id="rect468" />
    <rect
       x="52"
       y="66"
       width="2"
       height="2"
       id="rect470" />
    <rect
       x="56"
       y="66"
       width="6"
       height="2"
       id="rect472" />
    <rect
       x="4"
       y="68"
       width="14"
       height="2"
       id="rect474" />
    <rect
       x="20"
       y="68"
       width="2"
       height="2"
       id="rect476" />
    <rect
       x="24"
       y="68"
       width="8"
       height="2"
       id="rect478" />
    <rect
       x="34"
       y="68"
       width="12"
       height="2"
       id="rect480" />
    <rect
       x="54"
       y="68"
       width="8"
       height="2"
       id="rect482" />
  </g>
  <path
     fill="#b3b3b3"
     d="m 54.532,138.45 2.235,1.324 c 9.387,5.571 20.15,8.518 31.126,8.523 h 0.023 c 33.707,0 61.139,-27.426 61.153,-61.135 0.006,-16.335 -6.349,-31.696 -17.895,-43.251 A 60.75,60.75 0 0 0 87.94,25.983 c -33.733,0 -61.166,27.423 -61.178,61.13 a 60.98,60.98 0 0 0 9.349,32.535 l 1.455,2.312 -6.179,22.558 z M 13.721,161.994 24.16,123.88 c -6.438,-11.154 -9.825,-23.808 -9.821,-36.772 0.017,-40.556 33.021,-73.55 73.578,-73.55 19.681,0.01 38.154,7.669 52.047,21.572 13.893,13.903 21.537,32.383 21.53,52.037 -0.018,40.553 -33.027,73.553 -73.578,73.553 h -0.032 c -12.313,-0.005 -24.412,-3.094 -35.159,-8.954 z m 0,0"
     filter="url(#a)"
     id="path12"
     transform="matrix(0.09713347,0,0,0.09713347,28.490379,28.506212)" />
  <path
     fill="#ffffff"
     d="m 29.749811,44.167818 1.013976,-3.702145 A 7.131539,7.131539 0 0 1 29.80984,36.893881 c 0.0017,-3.939344 3.207444,-7.144166 7.146886,-7.144166 1.911683,9.7e-4 3.70603,0.744917 5.055505,2.095363 1.349475,1.350447 2.091964,3.145473 2.091284,5.054534 -0.0018,3.939054 -3.208027,7.144458 -7.146886,7.144458 h -0.0031 c -1.196005,-5e-4 -2.371223,-0.300531 -3.415116,-0.869733 z"
     id="path14"
     style="stroke-width:0.0971334" />
  <path
     fill="url(#linearGradient1780)"
     d="m 36.958863,30.956598 c -3.276604,0 -5.941266,2.663691 -5.942432,5.937769 a 5.9231987,5.9231987 0 0 0 0.908101,3.160237 l 0.141329,0.224573 -0.600187,2.191234 2.248251,-0.589503 0.217093,0.128604 c 0.911792,0.541131 1.957239,0.827383 3.023376,0.827966 h 0.0022 c 3.274078,0 5.93874,-2.663982 5.940003,-5.938254 a 5.9008581,5.9008581 0 0 0 -1.738203,-4.20112 5.9008581,5.9008581 0 0 0 -4.199565,-1.741506 z"
     id="path16"
     style="stroke-width:0.0971334" />
  <path
     fill="url(#b)"
     d="m 36.958863,30.956598 c -3.276604,0 -5.941266,2.663691 -5.942432,5.937769 a 5.9231987,5.9231987 0 0 0 0.908101,3.160237 l 0.141329,0.22467 -0.600187,2.191137 2.248251,-0.589503 0.217093,0.128604 c 0.911792,0.541131 1.957239,0.827286 3.023376,0.827869 h 0.0022 c 3.274078,0 5.93874,-2.663982 5.940003,-5.938254 a 5.9008581,5.9008581 0 0 0 -1.738203,-4.20112 5.9008581,5.9008581 0 0 0 -4.199565,-1.741409 z"
     id="path18"
     style="fill:url(#b);stroke-width:0.0971334" />
  <path
     fill="#ffffff"
     fill-rule="evenodd"
     d="M 35.170441,33.907124 C 35.036591,33.609799 34.895748,33.603777 34.7686,33.598628 l -0.342298,-0.0042 c -0.119086,0 -0.312576,0.04468 -0.476149,0.223407 -0.163572,0.178726 -0.625053,0.610678 -0.625053,1.489251 0,0.878572 0.639915,1.727518 0.729083,1.846798 0.08917,0.11928 1.235344,1.979677 3.050477,2.695454 1.508386,0.594845 1.815327,0.476537 2.142861,0.446814 0.327534,-0.02972 1.056521,-0.431953 1.205232,-0.848947 0.148712,-0.416994 0.148809,-0.77425 0.104225,-0.848946 -0.04458,-0.0747 -0.16367,-0.119086 -0.342396,-0.208449 -0.178725,-0.08936 -1.056521,-0.521315 -1.220191,-0.580955 -0.163669,-0.05964 -0.282658,-0.08927 -0.401841,0.08946 -0.119182,0.178726 -0.460995,0.580761 -0.565219,0.699944 -0.104225,0.119183 -0.208254,0.134141 -0.38698,0.04488 -0.178726,-0.08927 -0.753756,-0.277899 -1.436021,-0.886246 -0.530835,-0.473332 -0.88916,-1.057881 -0.993481,-1.236509 -0.104322,-0.178629 -0.01107,-0.275374 0.07848,-0.364348 0.08013,-0.08004 0.178531,-0.208545 0.267991,-0.31277 0.08946,-0.104224 0.118891,-0.178725 0.178337,-0.297714 0.05945,-0.118988 0.02982,-0.223504 -0.01486,-0.31277 -0.04468,-0.08927 -0.391642,-0.972403 -0.550358,-1.32558"
     id="path20"
     style="stroke-width:0.0971334" />
</svg>
