<svg xmlns="http://www.w3.org/2000/svg" viewBox="0 0 328 328"><defs><style>.a{fill:#170b0c;}.b{fill:#f4ae1d;}</style></defs><title>black-eyed-susan</title><path class="a" d="M160.66,141.12c13.49-.81,26.27,7.84,27.59,22,1.26,13.43-9,26.08-21.94,27.29-14.06,1.32-26.86-8.63-27.48-22.72C138.22,154,145.88,143.38,160.66,141.12Z" transform="translate(0 0)"/><path class="b" d="M192.79,41.65c2.21,32.55-5.87,60.4-23.63,85.5a31,31,0,0,1-2.88,3.44c-1.55,1.63-2.6,1.51-4.4-.3-6.94-7-11.37-15.57-15.3-24.31-13.21-29.35-15.19-59.6-6.27-90.53,2.59-9,9.26-13.67,18.91-15.07a28.82,28.82,0,0,1,20,4c5.26,3.18,7.66,8.13,9.34,13.61C191.11,26.25,192,34.87,192.79,41.65Z" transform="translate(0 0)"/><path class="b" d="M135.21,286.35c-2.21-32.55,5.87-60.4,23.63-85.5a31,31,0,0,1,2.88-3.44c1.55-1.63,2.6-1.51,4.4.3,6.94,7,11.37,15.57,15.3,24.31,13.21,29.35,15.19,59.6,6.27,90.53-2.59,9-9.26,13.67-18.91,15.07a28.82,28.82,0,0,1-20-4c-5.26-3.18-7.66-8.13-9.34-13.61C136.89,301.75,136,293.13,135.21,286.35Z" transform="translate(0 0)"/><path class="b" d="M41.65,135.21c32.55-2.21,60.4,5.87,85.5,23.63a31,31,0,0,1,3.44,2.88c1.63,1.55,1.51,2.6-.3,4.4-7,6.94-15.57,11.37-24.31,15.3-29.35,13.21-59.6,15.19-90.53,6.27-9-2.59-13.67-9.26-15.07-18.91a28.82,28.82,0,0,1,4-20c3.18-5.26,8.13-7.66,13.61-9.34C26.25,136.89,34.87,136,41.65,135.21Z" transform="translate(0 0)"/><path class="b" d="M286.35,192.79c-32.55,2.21-60.4-5.87-85.5-23.63a31,31,0,0,1-3.44-2.88c-1.63-1.55-1.51-2.6.3-4.4,7-6.94,15.57-11.37,24.31-15.3,29.35-13.21,59.6-15.19,90.53-6.27,9,2.59,13.67,9.26,15.07,18.91a28.82,28.82,0,0,1-4,20c-3.18,5.26-8.13,7.66-13.61,9.34C301.75,191.11,293.13,192,286.35,192.79Z" transform="translate(0 0)"/><path class="b" d="M97.84,57.13C122.42,78.58,136.4,104,141.59,134.3a31,31,0,0,1,.4,4.46c.05,2.25-.77,2.91-3.33,2.9-9.85,0-19-3-28-6.37C80.56,123.88,57.77,103.89,42.2,75.71c-4.53-8.2-3.12-16.22,2.71-24A28.82,28.82,0,0,1,61.84,40.33c6-1.48,11.16.34,16.23,3C85.77,47.43,92.49,52.9,97.84,57.13Z" transform="translate(0 0)"/><path class="b" d="M230.16,270.87C205.58,249.42,191.6,224,186.41,193.7a31,31,0,0,1-.4-4.46c-.05-2.25.77-2.91,3.33-2.9,9.85,0,19,3,28,6.37,30.09,11.41,52.88,31.41,68.45,59.58,4.53,8.2,3.12,16.22-2.71,24a28.82,28.82,0,0,1-16.94,11.35c-6,1.48-11.16-.34-16.23-3C242.23,280.57,235.51,275.1,230.16,270.87Z" transform="translate(0 0)"/><path class="b" d="M57.13,230.16C78.58,205.58,104,191.6,134.3,186.41a31,31,0,0,1,4.46-.4c2.25-.05,2.91.77,2.9,3.33,0,9.85-3,19-6.37,28-11.41,30.09-31.41,52.88-59.58,68.45-8.2,4.53-16.22,3.12-24-2.71a28.82,28.82,0,0,1-11.35-16.94c-1.48-6,.34-11.16,3-16.23C47.43,242.23,52.9,235.51,57.13,230.16Z" transform="translate(0 0)"/><path class="b" d="M270.87,97.84C249.42,122.42,224,136.4,193.7,141.59a31,31,0,0,1-4.46.4c-2.25.05-2.91-.77-2.9-3.33,0-9.85,3-19,6.37-28,11.41-30.09,31.41-52.88,59.58-68.45,8.2-4.53,16.22-3.12,24,2.71a28.82,28.82,0,0,1,11.35,16.94c1.48,6-.34,11.16-3,16.23C280.57,85.77,275.1,92.49,270.87,97.84Z" transform="translate(0 0)"/></svg>