<?xml version="1.0" encoding="UTF-8"?>
<!DOCTYPE svg PUBLIC "-//W3C//DTD SVG 1.1//EN" "http://www.w3.org/Graphics/SVG/1.1/DTD/svg11.dtd">
<svg version="1.1" xmlns="http://www.w3.org/2000/svg" xmlns:xlink="http://www.w3.org/1999/xlink" x="0" y="0" width="546" height="456" viewBox="0, 0, 546, 456">
  <defs>
    <radialGradient id="Gradient_1" gradientUnits="userSpaceOnUse" cx="275.488" cy="139.232" r="121.802">
      <stop offset="0" stop-color="#BBD236"/>
      <stop offset="1" stop-color="#99C754"/>
    </radialGradient>
    <radialGradient id="Gradient_2" gradientUnits="userSpaceOnUse" cx="226.882" cy="227.156" r="167.819">
      <stop offset="0" stop-color="#7DB64B"/>
      <stop offset="1" stop-color="#99C754"/>
    </radialGradient>
    <radialGradient id="Gradient_3" gradientUnits="userSpaceOnUse" cx="226.882" cy="227.156" r="167.819">
      <stop offset="0" stop-color="#B2CC3F"/>
      <stop offset="1" stop-color="#C4D646"/>
    </radialGradient>
    <radialGradient id="Gradient_4" gradientUnits="userSpaceOnUse" cx="356.421" cy="222.272" r="149.023">
      <stop offset="0" stop-color="#7DB64B"/>
      <stop offset="1" stop-color="#99C754"/>
    </radialGradient>
    <radialGradient id="Gradient_5" gradientUnits="userSpaceOnUse" cx="356.421" cy="222.272" r="149.023">
      <stop offset="0" stop-color="#B2CC3F"/>
      <stop offset="1" stop-color="#C4D646"/>
    </radialGradient>
    <radialGradient id="Gradient_6" gradientUnits="userSpaceOnUse" cx="265.277" cy="284.335" r="190.025">
      <stop offset="0" stop-color="#72A343"/>
      <stop offset="0.005" stop-color="#72A343"/>
      <stop offset="1" stop-color="#7DB64B"/>
    </radialGradient>
    <radialGradient id="Gradient_7" gradientUnits="userSpaceOnUse" cx="265.277" cy="284.335" r="190.025">
      <stop offset="0" stop-color="#A9BE3B"/>
      <stop offset="0.005" stop-color="#A9BE3B"/>
      <stop offset="1" stop-color="#B2CC3F"/>
    </radialGradient>
    <radialGradient id="Gradient_8" gradientUnits="userSpaceOnUse" cx="265.277" cy="284.335" r="190.025">
      <stop offset="0" stop-color="#A9BE3B"/>
      <stop offset="0.005" stop-color="#A9BE3B"/>
      <stop offset="1" stop-color="#B2CC3F"/>
    </radialGradient>
  </defs>
  <g id="Layer_1">
    <path d="M63.505,201.464 C63.505,201.464 24.511,110.195 75.117,130.937 C75.117,130.937 81.747,100.243 98.349,102.724 C98.349,102.724 104.15,81.991 121.581,86.132 C121.581,86.132 134.852,58.759 154.765,65.39 C154.765,65.39 169.706,38.007 201.23,46.308 C201.23,46.308 212.851,13.114 239.394,35.517 C239.394,35.517 246.874,27.226 259.316,33.866 C259.316,33.866 279.238,-25.05 317.402,18.925 C317.402,18.925 332.333,-12.589 344.775,13.954 C344.775,13.954 355.566,-2.647 368.007,26.396 C368.007,26.396 395.38,-1.817 412.811,46.308 C412.811,46.308 439.354,33.036 448.476,68.71 C448.476,68.71 470.058,57.919 476.699,94.433 C476.699,94.433 497.441,92.773 491.63,125.126 C491.63,125.126 523.984,131.767 509.041,162.46 C509.041,162.46 528.964,165.78 509.882,198.974 L480.859,236.308 C480.859,236.308 131.541,256.22 63.505,201.464" fill="#72A343"/>
    <path d="M280.263,385.234 C280.263,385.234 231.533,466.269 224.257,428.73 C224.257,428.73 199.179,446.933 193.691,437.616 C193.691,437.616 176.171,449.306 171.494,438.447 C171.494,438.447 145.908,451.327 141.953,437.616 C141.953,437.616 115.624,449.726 107.763,429.521 C107.763,429.521 78.691,447.187 83.193,419.511 C83.193,419.511 73.935,421.825 73.251,411.532 C73.251,411.532 21.992,443.183 36.943,395.253 C36.943,395.253 7.626,410.234 21.318,386.171 C21.318,386.171 4.609,392.704 20.107,366.894 C20.107,366.894 -12.296,373.886 14.775,332.577 C14.775,332.577 -6.485,329.609 15.263,300.722 C15.263,300.722 -2.003,298.32 21.435,269.999 C21.435,269.999 11.122,261.64 37.011,241.913 C37.011,241.913 27.597,222.489 56.318,208.066 C56.318,208.066 49.951,196.659 82.285,182.431 L122.001,169.882 C122.001,169.882 289.882,316.152 280.263,385.234" fill="#72A343"/>
    <path d="M239.755,376.894 C239.755,376.894 300.947,471.093 305.331,430.292 C305.331,430.292 334.589,452.812 339.736,443.027 C339.736,443.027 360.068,457.616 364.16,446.064 C364.16,446.064 393.466,462.734 396.494,447.948 C396.494,447.948 426.541,463.837 433.242,442.275 C433.242,442.275 466.816,464.55 459.238,433.544 C459.238,433.544 469.628,436.991 469.394,425.673 C469.394,425.673 528.642,465.536 507.665,411.152 C507.665,411.152 541.259,430.497 523.945,402.577 C523.945,402.577 542.91,411.405 523.456,381.405 C523.456,381.405 559.666,392.226 526.025,344.003 C526.025,344.003 549.061,342.734 522.46,308.749 C522.46,308.749 541.171,307.724 512.773,274.198 C512.773,274.198 523.289,265.956 492.988,241.659 C492.988,241.659 501.484,221.103 468.593,202.441 C468.593,202.441 474.492,190.429 437.645,171.62 L392.88,153.984 C392.88,153.984 222.617,299.628 239.755,376.894" fill="#72A343"/>
    <path d="M323.066,342.402 L324.099,341.713 L324.06,341.654 L322.563,339.411 L321.832,342.006 C321.742,342.326 321.691,342.518 321.689,342.523 L324.059,343.257 C324.065,343.241 324.115,343.105 324.207,342.891 L324.471,342.271 L324.099,341.713 L323.066,342.402 L321.925,341.913 C321.795,342.214 321.728,342.404 321.72,342.425 L322.89,342.841 L324.089,343.159 L324.123,343.036 C324.145,342.953 324.179,342.832 324.222,342.68 L323.027,342.343 L321.994,343.032 L322.033,343.09 L323.066,342.402 L321.925,341.913 L323.066,342.402" fill="#FFF101"/>
    <path d="M292.732,122.622 C286.918,120.398 281.854,118.798 281.854,118.798 C281.854,118.798 292.607,107.05 287.714,100.214 C285.703,97.4 281.537,96.571 277.332,96.571 C271.323,96.571 265.234,98.261 265.234,98.261 C265.234,98.261 283.808,79.677 265.234,67.948 C256.656,62.53 250.369,61.071 246.085,61.071 C241.088,61.071 238.818,63.056 238.818,63.056 C238.818,63.056 232.748,53.944 217.915,50.432 C235.517,45.113 254.998,42.157 275.488,42.157 C294.033,42.157 311.753,44.578 327.999,48.981 C323.358,53.641 321.787,58.671 321.787,58.671 C321.787,58.671 320.358,57.351 317.655,57.351 C314.607,57.351 309.938,59.029 303.867,66.171 C292.402,79.648 308.115,96.171 308.115,96.171 C308.115,96.171 305.371,95.529 302.158,95.529 C298.351,95.529 293.883,96.43 292.538,100.37 C290.058,107.636 299.277,118.183 299.277,118.183 C299.277,118.183 296.271,120.058 292.732,122.622 z" fill="url(#Gradient_1)"/>
    <path d="M247.467,263.885 C246.053,262.34 244.64,260.852 243.232,259.433 C234.945,251.1 227.588,248.322 221.464,248.322 C209.215,248.322 201.893,259.433 201.893,259.433 C201.893,259.433 197.394,252.837 191.725,245.85 C213.448,224.24 241.436,216.74 261.928,214.329 C263.698,220.606 265.156,224.745 265.156,224.745 C265.156,224.745 263.664,224.355 261.571,224.355 C259.029,224.355 255.6,224.93 252.88,227.48 C247.919,232.128 258.242,255.361 258.242,255.361 C258.242,255.361 254.585,249.035 251.334,249.035 C250.772,249.035 250.222,249.224 249.706,249.667 C247.833,251.262 247.212,256.428 247.467,263.885 z M182.166,235.285 C179.433,232.703 176.827,230.733 174.666,229.97 C171.011,228.678 166.069,228.047 161.393,227.759 C161.607,226.121 161.829,224.498 162.06,222.89 L162.148,222.851 C188.593,148.427 246.63,144.013 246.63,144.013 C244.988,143.918 243.368,143.871 241.775,143.871 C206.094,143.871 182.624,167.281 168.359,189.54 C187.382,109.335 225.263,75.693 225.263,75.693 C190.477,98.456 170.585,138.72 159.316,180.087 C136.826,123.29 169.199,74.189 169.199,74.189 C128.964,123.847 145.604,175.253 155.351,196.239 C153.008,206.853 151.18,217.396 149.759,227.599 C148.265,227.643 147.372,227.695 147.372,227.695 C147.372,227.695 142.177,206.562 132.021,199.648 C130.135,198.364 128.383,197.841 126.784,197.841 C124.4,197.841 122.351,199.001 120.683,200.532 C109.729,162.367 119.384,128.808 119.384,128.808 C109.697,153.426 108.295,175.534 111.196,194.524 C106.725,184.129 98.452,170.815 84.492,166.777 C82.344,166.156 80.404,165.696 78.654,165.374 C87.151,141.612 100.328,120.916 111.699,104.12 C131.509,74.866 187.753,49.253 209.249,49.253 C210.026,49.253 210.762,49.287 211.445,49.355 C213.765,49.589 215.919,49.96 217.915,50.432 C232.748,53.944 238.818,63.056 238.818,63.056 C238.818,63.056 241.088,61.071 246.085,61.071 C250.369,61.071 256.656,62.53 265.234,67.948 C283.808,79.677 265.234,98.261 265.234,98.261 C265.234,98.261 271.323,96.571 277.332,96.571 C281.537,96.571 285.703,97.4 287.714,100.214 C292.607,107.05 281.854,118.798 281.854,118.798 C281.854,118.798 286.918,120.398 292.732,122.622 C289.119,125.239 284.952,128.574 282.861,131.366 C278.729,136.894 282.704,155.097 282.704,155.097 C282.704,155.097 281.875,155.023 280.506,155.023 C274.266,155.023 256.835,156.568 255.809,173.73 C255.124,185.2 258.001,199.431 260.739,209.946 C258.557,209.851 256.41,209.805 254.308,209.805 C221.461,209.805 198.307,221.078 182.166,235.285 z" fill="url(#Gradient_2)"/>
    <path d="M191.725,245.85 C188.703,242.126 185.348,238.291 182.166,235.285 C198.307,221.078 221.461,209.805 254.308,209.805 C256.41,209.805 258.557,209.851 260.739,209.946 C261.142,211.494 261.543,212.962 261.928,214.329 C241.436,216.74 213.448,224.24 191.725,245.85 z M161.393,227.759 C158.696,227.592 156.086,227.539 153.866,227.539 C152.255,227.539 150.847,227.567 149.759,227.599 C151.18,217.396 153.008,206.853 155.351,196.239 C145.604,175.253 128.964,123.847 169.199,74.189 C169.199,74.189 136.826,123.29 159.316,180.087 C170.585,138.72 190.477,98.456 225.263,75.693 C225.263,75.693 187.382,109.335 168.359,189.54 C182.624,167.281 206.094,143.871 241.775,143.871 C243.368,143.871 244.988,143.918 246.63,144.013 C246.63,144.013 188.593,148.427 162.148,222.851 L162.06,222.89 C161.829,224.498 161.607,226.121 161.393,227.759 z M115.644,207.89 C115.644,207.89 114.39,201.952 111.196,194.524 C108.295,175.534 109.697,153.426 119.384,128.808 C119.384,128.808 109.729,162.367 120.683,200.532 C117.441,203.509 115.644,207.89 115.644,207.89 z" fill="url(#Gradient_3)"/>
    <path d="M322.89,342.841 C322.89,342.841 322.939,342.655 323.027,342.343 C321.201,339.394 319.287,336.484 317.402,333.866 C313.495,328.505 309.686,324.433 306.854,323.954 C306.133,323.833 305.449,323.778 304.801,323.778 C297.336,323.778 294.609,331.152 294.609,331.152 C294.609,331.152 270.99,289.598 247.467,263.885 C247.212,256.428 247.833,251.262 249.706,249.667 C250.222,249.224 250.772,249.035 251.334,249.035 C254.585,249.035 258.242,255.361 258.242,255.361 C258.242,255.361 247.919,232.128 252.88,227.48 C255.6,224.93 259.029,224.355 261.571,224.355 C263.664,224.355 265.156,224.745 265.156,224.745 C265.156,224.745 263.698,220.606 261.928,214.329 C261.543,212.962 261.142,211.494 260.739,209.946 C258.001,199.431 255.124,185.2 255.809,173.73 C256.835,156.568 274.266,155.023 280.506,155.023 C281.875,155.023 282.704,155.097 282.704,155.097 C282.704,155.097 278.729,136.894 282.861,131.366 C284.952,128.574 289.119,125.239 292.732,122.622 C296.271,120.058 299.277,118.183 299.277,118.183 C299.277,118.183 290.058,107.636 292.538,100.37 C293.883,96.43 298.351,95.529 302.158,95.529 C305.371,95.529 308.115,96.171 308.115,96.171 C308.115,96.171 292.402,79.648 303.867,66.171 C309.938,59.029 314.607,57.351 317.655,57.351 C320.358,57.351 321.787,58.671 321.787,58.671 C321.787,58.671 323.358,53.641 327.999,48.981 C330.639,46.33 334.274,43.799 339.179,42.382 C340.301,42.059 341.649,41.902 343.183,41.902 C360.113,41.902 400.013,60.993 417.205,86.63 C433.691,111.224 454.763,145.106 461.637,187.569 C462.577,193.379 463.252,199.348 463.613,205.478 C463.987,211.839 464.482,218.952 464.861,226.602 C458.353,232.184 456.132,247.284 456.132,247.284 C456.132,247.284 449.777,246.308 443.534,246.308 C440.6,246.308 437.691,246.524 435.477,247.157 C428.535,249.159 416.796,268.866 416.796,268.866 C416.796,268.866 414.09,264.858 409.621,261.822 C421.871,244.247 448.498,195.838 428.447,128.808 C428.447,128.808 443.173,196.181 407.216,248.573 C406.044,232.226 404.15,214.335 401.113,196.239 C408.525,175.253 421.162,123.847 390.585,74.189 C390.585,74.189 415.185,123.29 398.095,180.087 C389.531,138.72 374.423,98.456 347.978,75.693 C347.978,75.693 376.767,109.335 391.22,189.54 C380.385,167.281 362.546,143.871 335.428,143.871 C334.217,143.871 332.985,143.918 331.738,144.013 C331.738,144.013 375.849,148.427 395.956,222.851 L396.005,222.89 C397.223,234.05 398.15,245.918 398.703,258.517 C397.816,258.577 396.906,258.72 395.977,258.959 C384.958,236.085 364.021,209.805 325.91,209.805 C317.764,209.805 308.826,211.007 299.042,213.7 C299.042,213.7 301.913,213.28 306.687,213.28 C323.528,213.28 364.009,218.518 385.281,265.908 C385.278,265.912 385.276,265.914 385.273,265.917 C368.104,284.228 351.201,319.843 351.201,319.843 C351.201,319.843 348.347,313.16 342.101,313.16 C341.851,313.16 341.597,313.171 341.337,313.193 C335.058,313.72 324.531,338.808 323.066,342.402 C322.949,342.675 322.89,342.841 322.89,342.841 z" fill="url(#Gradient_4)"/>
    <path d="M385.281,265.908 C364.009,218.518 323.528,213.28 306.687,213.28 C301.913,213.28 299.042,213.7 299.042,213.7 C308.826,211.007 317.764,209.805 325.91,209.805 C364.021,209.805 384.958,236.085 395.977,258.959 C392.625,259.819 389.021,261.927 385.281,265.908 z M409.621,261.822 C406.898,259.972 403.519,258.483 399.7,258.483 C399.371,258.483 399.039,258.494 398.703,258.517 C398.15,245.918 397.223,234.05 396.005,222.89 L395.956,222.851 C375.849,148.427 331.738,144.013 331.738,144.013 C332.985,143.918 334.217,143.871 335.428,143.871 C362.546,143.871 380.385,167.281 391.22,189.54 C376.767,109.335 347.978,75.693 347.978,75.693 C374.423,98.456 389.531,138.72 398.095,180.087 C415.185,123.29 390.585,74.189 390.585,74.189 C421.162,123.847 408.525,175.253 401.113,196.239 C404.15,214.335 406.044,232.226 407.216,248.573 C443.173,196.181 428.447,128.808 428.447,128.808 C448.498,195.838 421.871,244.247 409.621,261.822 z" fill="url(#Gradient_5)"/>
    <path d="M267.724,418.046 C264.96,418.046 262.236,417.997 259.501,417.909 C258.875,417.89 258.252,417.869 257.627,417.846 C145.91,413.686 50.813,337.419 34.602,243.799 C32.998,234.54 32.166,225.111 32.166,215.566 C32.166,196.581 34.579,168.007 40.41,150.624 C43.427,151.17 46.858,153.767 50.105,157.008 C56.735,163.626 62.597,172.929 62.597,172.929 C62.597,172.929 61.325,164.758 72.627,164.758 C74.333,164.758 76.327,164.945 78.654,165.374 C80.404,165.696 82.344,166.156 84.492,166.777 C98.452,170.815 106.725,184.129 111.196,194.524 C114.39,201.952 115.644,207.89 115.644,207.89 C115.644,207.89 117.441,203.509 120.683,200.532 C122.351,199.001 124.4,197.841 126.784,197.841 C128.383,197.841 130.135,198.364 132.021,199.648 C142.177,206.562 147.372,227.695 147.372,227.695 C147.372,227.695 148.265,227.643 149.759,227.599 C150.847,227.567 152.255,227.539 153.866,227.539 C156.086,227.539 158.696,227.592 161.393,227.759 C166.069,228.047 171.011,228.678 174.666,229.97 C176.827,230.733 179.433,232.703 182.166,235.285 C185.348,238.291 188.703,242.126 191.725,245.85 C197.394,252.837 201.893,259.433 201.893,259.433 C201.893,259.433 209.215,248.322 221.464,248.322 C227.588,248.322 234.945,251.1 243.232,259.433 C244.64,260.852 246.053,262.34 247.467,263.885 C270.99,289.598 294.609,331.152 294.609,331.152 C294.609,331.152 297.336,323.778 304.801,323.778 C305.449,323.778 306.133,323.833 306.854,323.954 C309.686,324.433 313.495,328.505 317.402,333.866 C319.287,336.484 321.201,339.394 323.027,342.343 C322.939,342.655 322.89,342.841 322.89,342.841 C322.89,342.841 322.949,342.675 323.066,342.402 C324.531,338.808 335.058,313.72 341.337,313.193 C341.597,313.171 341.851,313.16 342.101,313.16 C348.347,313.16 351.201,319.843 351.201,319.843 C351.201,319.843 368.104,284.228 385.273,265.917 C385.276,265.914 385.278,265.912 385.281,265.908 C389.021,261.927 392.625,259.819 395.977,258.959 C396.906,258.72 397.816,258.577 398.703,258.517 C399.039,258.494 399.371,258.483 399.7,258.483 C403.519,258.483 406.898,259.972 409.621,261.822 C414.09,264.858 416.796,268.866 416.796,268.866 C416.796,268.866 428.535,249.159 435.477,247.157 C437.691,246.524 440.6,246.308 443.534,246.308 C449.777,246.308 456.132,247.284 456.132,247.284 C456.132,247.284 458.353,232.184 464.861,226.602 C465.177,226.331 465.503,226.082 465.839,225.859 C467.002,225.084 468.129,224.759 469.201,224.759 C474.809,224.759 478.925,233.652 478.925,233.652 C478.925,233.652 480.065,223.645 484.977,214.961 C487.768,210.025 491.778,205.518 497.49,203.515 C497.839,206.965 498.095,210.443 498.243,213.946 C498.338,216.214 498.388,218.493 498.388,220.78 C498.388,228.887 497.816,236.88 496.704,244.731 C487.499,309.756 441.292,365.036 376.62,394.706 C344.86,409.301 308.641,417.694 270.165,418.035 C269.352,418.042 268.539,418.046 267.724,418.046 z M369.57,300.995 C369.57,300.995 392.734,331.64 338.261,385.077 L318.984,409.218 C318.984,409.218 335.683,397.968 358.378,380.566 C371.718,378.388 412.89,368.241 457.109,322.655 C457.109,322.655 413.3,363.905 368.867,372.392 C380.029,363.573 392.099,353.613 404.062,343.007 C420.331,336.132 458.984,316.542 486.962,276.308 C486.962,276.308 458.066,313.28 414.677,333.378 C441.679,308.28 466.484,280.497 476.601,255.878 C476.601,255.878 459.404,287.138 406.581,334.706 C420.331,317.372 433.3,295.585 425.37,282.187 C425.37,282.187 431.923,306.357 384.374,353.837 L384.354,353.886 C375.429,361.269 365.722,368.945 355.175,376.884 C372.607,356.445 394.257,322.587 369.57,300.995 z M242.06,409.023 L242.06,409.023 L223.281,378.378 C164.393,311.825 210.37,267.548 210.37,267.548 C165.742,299.687 184.169,343.3 201.718,369.13 C189.384,359.53 178.163,350.175 167.977,341.132 L167.968,341.073 C116.904,281.855 135.995,248.241 135.995,248.241 C119.111,267.363 129.56,295.527 142.929,317.568 C84.189,258.808 71.249,218.222 71.249,218.222 C76.415,250.566 101.855,285.575 131.581,316.659 C75.898,294.218 48.056,247.187 48.056,247.187 C73.29,298.749 122.206,321.034 143.349,328.564 C156.718,341.659 170.507,353.847 183.398,364.57 C121.64,358.027 73.613,306.855 73.613,306.855 C120.537,363.886 176.874,373.056 195.576,374.511 C221.972,395.644 242.06,409.023 242.06,409.023 z" fill="url(#Gradient_6)"/>
    <path d="M242.06,409.023 C242.06,409.023 221.972,395.644 195.576,374.511 C176.874,373.056 120.537,363.886 73.613,306.855 C73.613,306.855 121.64,358.027 183.398,364.57 C170.507,353.847 156.718,341.659 143.349,328.564 C122.206,321.034 73.29,298.749 48.056,247.187 C48.056,247.187 75.898,294.218 131.581,316.659 C101.855,285.575 76.415,250.566 71.249,218.222 C71.249,218.222 84.189,258.808 142.929,317.568 C129.56,295.527 119.111,267.363 135.995,248.241 C135.995,248.241 116.904,281.855 167.968,341.073 L167.977,341.132 C178.163,350.175 189.384,359.53 201.718,369.13 C184.169,343.3 165.742,299.687 210.37,267.548 C210.37,267.548 164.393,311.825 223.281,378.378 L242.06,409.023 z" fill="url(#Gradient_7)"/>
    <path d="M318.984,409.218 L338.261,385.077 C392.734,331.64 369.57,300.995 369.57,300.995 C394.257,322.587 372.607,356.445 355.175,376.884 C365.722,368.945 375.429,361.269 384.354,353.886 L384.374,353.837 C431.923,306.357 425.37,282.187 425.37,282.187 C433.3,295.585 420.331,317.372 406.581,334.706 C459.404,287.138 476.601,255.878 476.601,255.878 C466.484,280.497 441.679,308.28 414.677,333.378 C458.066,313.28 486.962,276.308 486.962,276.308 C458.984,316.542 420.331,336.132 404.062,343.007 C392.099,353.613 380.029,363.573 368.867,372.392 C413.3,363.905 457.109,322.655 457.109,322.655 C412.89,368.241 371.718,378.388 358.378,380.566 C335.683,397.968 318.984,409.218 318.984,409.218 z" fill="url(#Gradient_8)"/>
  </g>
</svg>