<svg id="Layer_1" data-name="Layer 1" xmlns="http://www.w3.org/2000/svg" viewBox="0 0 200 200"><defs><style>.cls-1{fill:#337a4f;}.cls-2{fill:#61a60e;}</style></defs><path class="cls-1" d="M60.61,144.27h0Z"/><path class="cls-2" d="M82.77,128.89c.59-.44,1.15-.89,1.77-1.29.32-.22.66-.41,1-.62l.06,0,1.14-1c.82-.71,1.61-1.46,2.4-2.19s1.42-1.31,2.15-1.94,1.55-1.26,2.31-1.92,1.62-1.48,2.42-2.24,1.48-1.35,2.24-2,1.35-1.17,2-1.77L102,112l1.06-1.16c.34-.38.68-.76,1-1.12.71-.71,1.47-1.38,2.22-2.05l2.32-2.07c.13-.11.26-.22.38-.34.44-.42.87-.86,1.3-1.29s1-.9,1.44-1.34,1.15-1.13,1.73-1.68a24.48,24.48,0,0,1,2-1.71c1.38-1.11,2.79-2.19,4.17-3.3.8-.65,1.58-1.32,2.38-2s1.49-1.27,2.25-1.9,1.57-1.25,2.35-1.88a31.11,31.11,0,0,1,2.55-1.89l2.25-1.46-.12.07.81-.52,0,0,.61-.44a3.91,3.91,0,0,1,.41-.3c.13-.12.28-.21.41-.31.52-.38,1-.77,1.56-1.14l-.08,0,.64-.45-.07.06c.93-.65,1.88-1.25,2.86-1.81s2-1.11,3-1.67,2-1,2.92-1.56,1.91-1,2.88-1.53,1.89-.93,2.87-1.34,2-.82,3-1.19c2.09-.77,4.18-1.51,6.32-2.14,1.79-.52,3.6-.94,5.43-1.33-.39,0-.78,0-1.17,0l-.94,0H163l-.5,0h-.09c-.75,0-1.5.17-2.25.29s-1.53.3-2.3.47-1.62.38-2.42.58l-.08,0h0c-.57.17-1.14.35-1.7.54-1.11.38-2.2.8-3.28,1.23s-2.17.92-3.25,1.4q-2.27,1-4.55,2l-1.69.73c-.79.36-1.59.73-2.36,1.13s-1.63.9-2.44,1.36-1.61.94-2.42,1.42-1.67,1-2.51,1.45l-3.22,1.84,0,0h0c-1.1.66-2.17,1.37-3.23,2.11s-2.09,1.5-3.15,2.24l-1.59,1.12-1.55,1.19c-1,.78-1.91,1.62-2.85,2.43s-2,1.63-3,2.44-2,1.67-2.94,2.53l-1.43,1.22c-.5.42-1,.82-1.54,1.23-1,.78-2,1.62-2.91,2.47-.74.65-1.47,1.32-2.22,2s-1.62,1.34-2.43,2h0c-1,.83-1.94,1.68-2.93,2.49-.49.39-1,.79-1.48,1.16s-1,.76-1.57,1.12c-1,.69-2,1.36-3.06,2l-1.77,1.18a1.15,1.15,0,0,1-.29.2l-.09,0-1.07.69-.67.42-.06,0c-.27.17-.53.33-.8.48-.56.33-1.13.65-1.7,1-1.05.6-2.13,1.17-3.19,1.77s-2.21,1.27-3.31,1.92-2,1.16-3,1.7-2.16,1.16-3.27,1.7c-.87.43-1.77.82-2.66,1.21-1.07.45-2.14.88-3.2,1.35l-2.7,1.19a.94.94,0,0,1-.1.1,1.79,1.79,0,0,1-.44.27l-1.06.56c-.8.43-1.63.82-2.46,1.22-1.35.65-2.67,1.36-4.09,1.88-.61.22-1.2.45-1.79.73s-1.21.57-1.81.87l-.06,0,0,0-.19.1h0l-.11.06.07,0h0l-.18.1a25.61,25.61,0,0,1-2.52,1.1c-.9.34-1.81.62-2.72.9s-1.72.47-2.59.66c-1.7.37-3.43.64-5.15.86s-3.56.4-5.34.59h0l-.24,0h-.14l-.21,0h0l-.12,0H31l-.17,0h-.17c-1.78.2-3.55.41-5.33.57l-2.76.27c-.47,0-1,.09-1.43.16l-1.45.23a12.65,12.65,0,0,0-1.51.32c-.46.13-.91.28-1.36.43a9.25,9.25,0,0,0-1.42.59l-.3.18a2.06,2.06,0,0,0-.41.32,1.66,1.66,0,0,0-.39.65,1.52,1.52,0,0,0,0,.82,5.51,5.51,0,0,0,.72,1.46c.25.38.51.75.72,1.15a5.73,5.73,0,0,1,.26.64,7,7,0,0,1,.29,1c0,.18.06.35.08.53s0,.24,0,.35,0,.22,0,.33a5.5,5.5,0,0,1-.16.58,13.19,13.19,0,0,0-.77,2.53,4,4,0,0,0-.06.69,2.24,2.24,0,0,0,.13.73,2,2,0,0,0,.35.62,3.14,3.14,0,0,0,1.27,1c.15,0,.29.11.44.15,1.45,0,2.89-.12,4.33-.29,1.78-.22,3.55-.53,5.31-.89s3.58-.8,5.35-1.3c2.15-.6,4.31-1.22,6.45-1.87h0q2.43-.73,4.85-1.52c1.73-.56,3.43-1.17,5.12-1.83l-.12.05c1.74-.68,3.48-1.35,5.2-2.07L59,144.94l1.52-.64h0l2-.86.52-.23,1.53-1c.76-.46,1.54-.91,2.3-1.38l1.13-.69c.36-.21.7-.44,1-.67.73-.48,1.45-1,2.18-1.47l.24-.15c.87-.6,1.7-1.24,2.56-1.85s1.72-1.23,2.56-1.87l.07-.05c.9-.71,1.77-1.46,2.62-2.22l.77-.72c.27-.26.53-.53.81-.78s.64-.53,1-.78Z"/><path class="cls-1" d="M60.55,144.3h0l0,0Z"/><path class="cls-1" d="M140.79,78.62l.05,0h0Z"/><path class="cls-1" d="M119.65,96l0,0-.08.07Z"/><path class="cls-1" d="M163.83,108.69v0h0Z"/><polygon class="cls-1" points="82.7 132.33 82.7 132.33 82.71 132.32 82.7 132.33"/><path class="cls-1" d="M69.73,123.57l-.06,0-.06,0Z"/><polygon class="cls-1" points="125.06 118.23 125.06 118.23 125.06 118.23 125.06 118.23"/><polygon class="cls-1" points="154.09 69.18 154.09 69.18 154.09 69.18 154.09 69.18"/><path class="cls-1" d="M194,78.5c-.06-.31-.13-.61-.21-.92s-.16-.54-.25-.81a10.39,10.39,0,0,0-.68-1.48c-.14-.25-.3-.5-.45-.74l-.45-.73c-.17-.25-.34-.5-.53-.73a4.22,4.22,0,0,0-.53-.59,4.48,4.48,0,0,0-.64-.51c-.2-.12-.41-.23-.62-.34-.49-.25-1-.5-1.45-.79l-.54-.41c-.16-.15-.3-.3-.45-.46l-.27-.36c-.09-.14-.18-.28-.26-.43a4.25,4.25,0,0,1-.21-.49c0-.13-.08-.26-.11-.4l0-.27a1,1,0,0,1,0-.25,1.64,1.64,0,0,1,0-.22l.06-.19.06-.16a1.18,1.18,0,0,1,.11-.19l.09-.13.18-.16a3.79,3.79,0,0,1,.4-.3c.26-.17.53-.33.77-.51s.43-.34.65-.49a1.55,1.55,0,0,0,.49-.43.41.41,0,0,0,.29-.16,2.1,2.1,0,0,0,.33-.26,2.2,2.2,0,0,0,.49-.93,3.82,3.82,0,0,0,.08-1.58,2.08,2.08,0,0,0-.36-.82,3.88,3.88,0,0,0-.26-.31,1.84,1.84,0,0,0-.22-.17,1.05,1.05,0,0,0-.21-.12,1.94,1.94,0,0,0-.58-.12,2.83,2.83,0,0,0-.5,0l-.73.11h-.21l-.14,0h0l0,0,0,0,0,0,0,0,0-.08a.37.37,0,0,1,0-.11c0-.11-.06-.21-.09-.32a10.77,10.77,0,0,1-.17-1.39c0-.41-.06-.82-.1-1.23a6.43,6.43,0,0,0-.27-1.23,4.07,4.07,0,0,0-.24-.61,4.31,4.31,0,0,0-.26-.47,3.72,3.72,0,0,0-.78-.9,3.38,3.38,0,0,0-.62-.42,2.46,2.46,0,0,0-.38-.14,1.49,1.49,0,0,0-.42,0,2.41,2.41,0,0,0-1.37.74c-.29.24-.57.5-.87.72l-.23.14-.32.14-.25.06-.22,0h-.08l-.2,0-.07,0-.09,0-.16-.13-.09-.1-.2-.27c-.15-.24-.29-.48-.42-.73-.24-.49-.47-1-.75-1.45s-.64-1-.95-1.58-.58-1-.87-1.55a7.35,7.35,0,0,0-.51-.85,3.54,3.54,0,0,0-1.25-1.12l-.42-.19a3.59,3.59,0,0,0-.43-.14,7,7,0,0,0-.8-.13,3.36,3.36,0,0,0-.84,0,3.19,3.19,0,0,0-.81.19,4.17,4.17,0,0,0-.44.19,3.42,3.42,0,0,0-.4.26,3.25,3.25,0,0,0-.5.48,5.4,5.4,0,0,0-.77,1.25c-.12.23-.24.45-.37.67l-.16.2q-.15.16-.33.33l-.28.22-.4.23-.31.13c-.12,0-.23.07-.35.09a7.35,7.35,0,0,1-.82.11c-.24,0-.48,0-.72,0l-.26,0-.12,0-.11,0-.1-.06-.1-.08-.1-.09-.08-.11-.08-.13-.06-.15a2.37,2.37,0,0,1-.09-.36,4.26,4.26,0,0,1-.06-.5v-.21a.77.77,0,0,1,0-.15l0-.13.15-.32.42-.85a6.58,6.58,0,0,1,.42-.73l.22-.34a6.1,6.1,0,0,0,.34-.54,4.13,4.13,0,0,0,.3-.68,4.78,4.78,0,0,0,.22-1,7.77,7.77,0,0,0,0-.83l0-.37a5.07,5.07,0,0,0-.18-1c-.09-.3-.19-.61-.31-.91a6.24,6.24,0,0,0-.44-.9,6.12,6.12,0,0,0-.6-.84,3.12,3.12,0,0,0-.45-.44l-.34-.25a1.7,1.7,0,0,0-.35-.19l-.25-.11c-.28-.1-.56-.2-.84-.28l-1-.23-.41-.11c-.15,0-.31-.08-.46-.1a3.11,3.11,0,0,0-.61,0,1.59,1.59,0,0,0-.3.06c-.08,0-.16.08-.24.12a1.77,1.77,0,0,0-.35.26,1.29,1.29,0,0,0-.17.16c-.1.1-.2.2-.29.31a2.88,2.88,0,0,0-.45.78,4.48,4.48,0,0,0-.2.62,5.18,5.18,0,0,0-.09.78,6.77,6.77,0,0,0,0,.78c0,.25,0,.51,0,.77s0,.47.06.7a10.1,10.1,0,0,1,0,1.1c0,.11,0,.22,0,.33l-.06.23-.15.34-.16.29c-.05.06-.09.12-.14.17l-.09.09-.1.09-.08,0-.16.06-.15,0-.14,0h-.25l0,0-.13-.07-.09-.07-.12-.13-.21-.28a10.19,10.19,0,0,1-.52-.91l-.36-.71a3.17,3.17,0,0,0-.87-1.12,2.7,2.7,0,0,0-.71-.38.84.84,0,0,0-.87.23,1.07,1.07,0,0,0-.25.55,2.61,2.61,0,0,0,0,.56c.06.31.14.61.2.91s.06.34.08.51v.16s0,0,0,.08,0,0,0,.07l0,.06v0h-.06l0,0h-.06l-.21,0-.69,0a2.91,2.91,0,0,0-.66.08,1.64,1.64,0,0,0-.76.37,2.18,2.18,0,0,0-.3.38l-.09.18-.06.2a2.9,2.9,0,0,0-.06.41,2.17,2.17,0,0,0,0,.26,2.28,2.28,0,0,0,0,.27c0,.24.09.47.14.7.11.43.28.85.42,1.27h0v0c.11.33.21.66.32,1s.2.62.28.94a6.82,6.82,0,0,1,.1.79c0,.43,0,.86,0,1.3,0,.26-.06.52-.1.78s-.08.3-.12.45l-.08.18-.09.15-.11.14-.19.19-.22.16-.15.09-.17.08-.16,0-.08,0h-.19l-.12,0-.16-.08-.09,0-.18-.14-.33-.34c-.14-.18-.29-.37-.42-.56s-.24-.36-.34-.54-.19-.35-.28-.52c-.24-.49-.43-1-.63-1.52l-.54-1.45c-.09-.27-.17-.55-.26-.82s-.14-.53-.2-.79c-.13-.54-.23-1.08-.36-1.62-.25-1.12-.56-2.24-.9-3.34a18.63,18.63,0,0,0-.67-1.9,19.66,19.66,0,0,0-1-2,8.37,8.37,0,0,0-1.21-1.64,8.28,8.28,0,0,0-1.62-1.32c-.33-.22-.67-.43-1-.62s-.56-.3-.85-.42a7.47,7.47,0,0,0-1-.35,4.25,4.25,0,0,0-.88-.14,4.85,4.85,0,0,0-.93.06,2.92,2.92,0,0,0-.4.1,2.07,2.07,0,0,0-.46.2,2,2,0,0,0-.61.52,3.51,3.51,0,0,0-.27.4c-.14.25-.27.52-.41.78a8.62,8.62,0,0,1-.6,1.07l-.18.24-.31.31a3.55,3.55,0,0,1-.31.23l-.21.13-.21.08-.2.06h-.15l-.06,0,0,0-.09-.07-.11-.12-.06-.09a5.82,5.82,0,0,1-.34-.6c-.16-.34-.32-.68-.46-1s-.23-.63-.35-1a4.31,4.31,0,0,0-.4-.84,3,3,0,0,0-.3-.4,3,3,0,0,0-.6-.47,3.6,3.6,0,0,0-1-.45,5.8,5.8,0,0,0-.6-.13,1.46,1.46,0,0,0-.55,0l-.11,0-.16.09a1.12,1.12,0,0,0-.18.2,1.91,1.91,0,0,0-.15.28,1.28,1.28,0,0,0-.09.32,2.56,2.56,0,0,0,0,.61c0,.08,0,.16,0,.24l0,.37c0,.13,0,.25,0,.38v.14h0l0,0,0,0h-.25l-.08,0-.08,0-.06,0a2.48,2.48,0,0,1-.26-.19c-.27-.26-.51-.53-.76-.8a10.58,10.58,0,0,0-.81-.83,4.89,4.89,0,0,0-.81-.63,4.34,4.34,0,0,0-.88-.46,5.3,5.3,0,0,0-1-.27l-.47-.05a1.29,1.29,0,0,0-.34,0l-.26,0-.18.06a1.91,1.91,0,0,0-.28.15l-.09.07-.19.18a2.68,2.68,0,0,0-.18.28,1.89,1.89,0,0,0-.11.25l-.06.22a1.34,1.34,0,0,0,0,.35,5.42,5.42,0,0,0,.08.8c0,.13,0,.26.08.38.06.31.1.62.13.93,0,.15,0,.3,0,.45s0,.22,0,.34l0,.13a1.59,1.59,0,0,1-.07.2l0,0-.08.07-.23.17-.17.11-.14.07-.12,0-.11,0h-.13l-.14,0-.17-.06-.12,0-.34-.2-.56-.44-.82-.75a10.15,10.15,0,0,0-.86-.74,22.3,22.3,0,0,0-1.88-1.29,4.91,4.91,0,0,0-.5-.28,5,5,0,0,0-.47-.22,5.82,5.82,0,0,0-1-.35,5.91,5.91,0,0,0-1.45-.21,4.89,4.89,0,0,0-1.9.34,3.65,3.65,0,0,0-2.23,2.29,10.33,10.33,0,0,0-.24,2.48,5.79,5.79,0,0,0,.37,2,10,10,0,0,0,.41,1l.24.45a4.79,4.79,0,0,0,.49.69,2.82,2.82,0,0,0,.33.36c.11.11.22.22.34.32a10.46,10.46,0,0,0,.84.65c.53.38,1.08.72,1.63,1.08h0c.38.26.77.51,1.14.8s.57.46.85.7a13.38,13.38,0,0,1,1,1c.3.37.59.75.86,1.14a4.85,4.85,0,0,1,.29.49,1.11,1.11,0,0,1,.07.16l0,.05v.1l0,.06-.07.06-.12.08-.38.16-.23.06c-.18,0-.36.07-.55.09l-.52,0c-.41,0-.82,0-1.23,0-.63-.05-1.26-.14-1.89-.21a8.92,8.92,0,0,0-2.42-.06,3,3,0,0,0-2.27,2.28,4,4,0,0,0-.12,1.87,3.74,3.74,0,0,0,.12.45c.08.2.16.4.25.6a4.91,4.91,0,0,0,.33.59,6.15,6.15,0,0,0,.58.83c.1.13.22.25.33.37l.34.35.31.28.42.35c.29.21.57.42.87.62.57.36,1.15.7,1.74,1s1.09.65,1.61,1c.89.61,1.77,1.23,2.59,1.92.18.16.35.31.52.48s.3.32.44.49.51.6.74.92c.09.15.18.3.26.46l.18.42c.06.2.12.39.17.6,0,0,0,.06,0,.09v.08a.28.28,0,0,1,0,.09,2,2,0,0,1-.1.35,4.22,4.22,0,0,1-.18.45,2.25,2.25,0,0,1-.12.21,1.09,1.09,0,0,1-.13.17,2.28,2.28,0,0,1-.22.22l-.26.2-.33.19-.38.16-.44.13a5.83,5.83,0,0,1-.73.1,3.53,3.53,0,0,1-.46,0l-.24,0-.48-.13-.27-.11-.27-.13a3.3,3.3,0,0,1-.32-.18l-.33-.2a25.1,25.1,0,0,1-2.16-1.69c-.61-.55-1.18-1.13-1.74-1.74-.18-.21-.36-.43-.53-.66s-.34-.47-.5-.71h0l0,0,0,0-.68-1c-.24-.36-.49-.7-.74-1-.45-.6-1-1.15-1.47-1.71l-.42-.49c-.47-.57-.92-1.15-1.36-1.73s-.89-1.11-1.34-1.66c-.26-.32-.51-.65-.76-1s-.39-.55-.58-.82-.51-.69-.78-1c-.1-.13-.21-.25-.31-.37l-.35-.35a5.69,5.69,0,0,0-1-.78,8.29,8.29,0,0,0-.84-.43,10,10,0,0,0-1-.36,7.07,7.07,0,0,0-1-.2,8.11,8.11,0,0,0-1.1-.06,2.73,2.73,0,0,0-.4.05,1.58,1.58,0,0,0-.31.09l-.22.1a1.72,1.72,0,0,0-.55.49,2.25,2.25,0,0,0-.43,1.44,3,3,0,0,0,.59,1.55c.17.26.36.51.54.77a4,4,0,0,1,.24.38l.14.32.09.32a2.51,2.51,0,0,1,0,.27,1,1,0,0,1,0,.17.13.13,0,0,1,0,.06v0l0,0,0,0-.06,0-.1,0-.14,0h-.35l-.18,0a3,3,0,0,1-.43-.12l-.19-.08-.42-.23c-.28-.21-.56-.42-.82-.65s-.67-.59-1-.87a4.69,4.69,0,0,0-2-.93c-.23,0-.45-.08-.68-.1s-.23,0-.35,0a3.88,3.88,0,0,0-.59,0,1.71,1.71,0,0,0-.92.33,1.11,1.11,0,0,0-.26.27,1,1,0,0,0-.14.22c0,.07,0,.13-.07.19a2.16,2.16,0,0,0,0,1c0,.2.06.4.08.6.05.36.08.72.1,1.08s0,.64,0,1a3.11,3.11,0,0,1-.06.44.88.88,0,0,0,0,.15,1.09,1.09,0,0,0-.08.15l-.1.13-.11.12-.14.11-.14.08a1.56,1.56,0,0,1-.33.14l-.15,0a1.65,1.65,0,0,1-.38,0H80.9l-.18,0a1.66,1.66,0,0,1-.45-.12L80,60.77a5.42,5.42,0,0,1-.48-.26L79,60.17c-.27-.18-.53-.37-.81-.53A5.68,5.68,0,0,0,77,59.1a10,10,0,0,0-2.23-.34,7.79,7.79,0,0,0-1.08,0A2.93,2.93,0,0,0,72.4,59a1,1,0,0,0-.43.45,1.15,1.15,0,0,0-.09.63,3.84,3.84,0,0,0,.56,1.32l.18.39c.06.14.11.28.16.42l.09.33c0,.09,0,.18,0,.27s.06.42.09.63,0,.36,0,.54,0,.3,0,.45-.07.27-.11.41l-.07.16a3.3,3.3,0,0,1-.18.32l-.22.29-.13.12A1.78,1.78,0,0,1,72,66a1.35,1.35,0,0,1-.26.15l-.16.07-.42.11q-.42.08-.84.12a7.58,7.58,0,0,0-.94.13,2.64,2.64,0,0,0-1.27.66,3.43,3.43,0,0,0-.62.8,4.08,4.08,0,0,0-.33.74A5.9,5.9,0,0,0,66.89,71c0,.31,0,.63.09.94,0,.16.06.32.08.48s.07.29.1.43a7.67,7.67,0,0,0,.23.78c.11.29.23.59.37.87a16.11,16.11,0,0,0,.94,1.61,9,9,0,0,0,1.11,1.43,2.73,2.73,0,0,0,.25.23,3.41,3.41,0,0,0,.44.3,3.22,3.22,0,0,0,.61.24c.14,0,.27.07.41.09l.44.07.11,0,.06,0,.2.15a.94.94,0,0,0,.1.1c.1.12.2.25.29.38a4,4,0,0,1,.26.45,5,5,0,0,1,.23.53c.06.21.12.42.17.63s.08.49.11.74.05.48.07.73a11.45,11.45,0,0,1,0,1.31c0,.13,0,.25,0,.38s0,.21-.08.31-.19.47-.3.7l-.36.7c-.1.19-.19.38-.28.57a4.5,4.5,0,0,0-.27.78,5,5,0,0,0-.17.77,4.87,4.87,0,0,0,0,1.57,8,8,0,0,0,.46,1.53,6.88,6.88,0,0,0,.6,1.14A5.12,5.12,0,0,0,74,93a5.25,5.25,0,0,0,1.36.87,7,7,0,0,0,1.42.41c.25,0,.49.07.75.09s.44,0,.66,0l.74,0c.46,0,.91-.07,1.37-.11l1.29-.11c.64,0,1.28-.06,1.92,0s1.17,0,1.75.06l.6.06.47.08c.16,0,.32.07.48.12l.42.13.45.19.19.11L88,95l.17.16.15.19a2,2,0,0,1,.14.25,2.88,2.88,0,0,1,.19.45,4.6,4.6,0,0,1,.13.5c0,.22.07.43.09.64s0,.26,0,.39,0,.22,0,.33l-.06.2a1.19,1.19,0,0,1-.08.16l0,0a.86.86,0,0,1-.13.14l-.07,0-.09,0-.21.1-.39.1a5,5,0,0,1-.56.06H86.9l-.28,0a2.27,2.27,0,0,1-.35,0L86,98.66l-.39-.1-.41-.13c-.57-.21-1.14-.45-1.71-.67a17.48,17.48,0,0,0-1.9-.6,8.06,8.06,0,0,0-.88-.17,2.82,2.82,0,0,0-2.33.51l-.77.56q-.25.18-.51.33c-.16.1-.32.18-.49.27s-.29.14-.44.19l-.4.16c-.3.1-.6.2-.91.28l-1,.23c-.35.06-.69.13-1,.17s-.66.07-1,.09h-.7l-.61-.08-.38-.11a5.31,5.31,0,0,1-.55-.23l-.32-.2A2.43,2.43,0,0,1,69,99a5.8,5.8,0,0,1-.56-.55c-.1-.12-.2-.23-.29-.36-.26-.34-.51-.68-.75-1s-.34-.5-.52-.74-.23-.33-.35-.48l-.38-.46a4.89,4.89,0,0,0-.37-.41,3.85,3.85,0,0,0-.35-.35c-.53-.51-1.08-1-1.63-1.48A6.76,6.76,0,0,0,61,91.45a4.35,4.35,0,0,0-.52-.1l-.33,0-.48,0-.5,0c-.17,0-.34,0-.51,0l-.4,0-.5.08a2.83,2.83,0,0,0-.5.13c-.16.06-.33.11-.49.18a3.78,3.78,0,0,0-.83.47,3.56,3.56,0,0,0-.64.59,3.4,3.4,0,0,0-.52.81,3.78,3.78,0,0,0-.24.81,3.4,3.4,0,0,0-.06.46c0,.2,0,.4,0,.61a4.43,4.43,0,0,0,.11.73c.12.63.32,1.25.45,1.88,0,.08,0,.16,0,.24a3.09,3.09,0,0,1,0,.43l0,.16L55,99l-.09.16-.12.16-.08.07-.14.12-.18.1-.21.09-.37.1-.44,0a11.42,11.42,0,0,1-1.17,0l-1-.08a5,5,0,0,0-.67,0c-.12,0-.25,0-.36.06l-.36.13a2.1,2.1,0,0,0-.41.24,4.12,4.12,0,0,0-.31.28,3.43,3.43,0,0,0-.52.67,4.75,4.75,0,0,0-.34.76,4,4,0,0,0-.19.83,2.46,2.46,0,0,0,0,.81,2.8,2.8,0,0,0,.27.71,4,4,0,0,0,.75,1,7.29,7.29,0,0,0,.81.66c.31.21.62.43.91.66l.3.29a3.55,3.55,0,0,1,.23.31,1.13,1.13,0,0,1,.12.21,1.87,1.87,0,0,1,.15.32,3.17,3.17,0,0,1,.12.41c0,.17,0,.33.06.5a5.09,5.09,0,0,1,0,.55l-.09.57-.15.53c-.08.22-.17.43-.27.64a3.79,3.79,0,0,1-.2.34,1.44,1.44,0,0,1-.18.25l-.16.17-.18.13-.2.12c-.22.09-.44.17-.66.27l-.3.14c-.12.08-.26.15-.37.24a2.51,2.51,0,0,0-.74.88A3.14,3.14,0,0,0,48,114a4.54,4.54,0,0,0-.09.51,3.85,3.85,0,0,0,0,.83c0,.2.06.39.11.59a12.45,12.45,0,0,0,.36,1.23c.08.23.15.47.25.69a2.27,2.27,0,0,0,.42.68,2.65,2.65,0,0,0,.42.33,2.62,2.62,0,0,0,.48.22l.42.11.19,0a8.44,8.44,0,0,1,1-.12c.33,0,.65-.06,1-.11.67-.08,1.33-.18,2-.25a7.67,7.67,0,0,1,2,0,4.06,4.06,0,0,1,1.64.66A4.11,4.11,0,0,1,59.55,121a3.16,3.16,0,0,1,.27.94,5.26,5.26,0,0,1,0,1c-.06.58-.2,1.15-.23,1.73v.33l.08.07.18.14.06,0a.75.75,0,0,0,.18.07l.51.12.65.15a12.16,12.16,0,0,0,1.33.19h.29a8.33,8.33,0,0,0,1-.16h0l1-.22c.38-.08.76-.19,1.13-.3a37.6,37.6,0,0,0,3.65-1.54c.92-.43,1.85-.85,2.76-1.3L75.12,121c.5-.25,1-.5,1.49-.77s.94-.54,1.42-.8c.9-.5,1.81-1,2.73-1.47.52-.26,1-.53,1.54-.8-.6-.06-1.2-.14-1.8-.23l-.5,0a15.16,15.16,0,0,1-2.21-.44l-.77-.17h0l-.08,0h0c-.59-.14-1.19-.3-1.78-.47L74,115.52a12.93,12.93,0,0,1-1.4-.32,12.08,12.08,0,0,1-1.4-.57L69.86,114a10.93,10.93,0,0,0-1.14-.39c-.47-.13-.92-.26-1.38-.43a14.37,14.37,0,0,1-2.18-1l-.47-.29-.19-.13-.08-.05h0l0,0-.26-.17c-.33-.21-.66-.38-1-.56s-.58-.3-.86-.46l-.34-.19c-.11-.07-.24-.13-.35-.21a3.07,3.07,0,0,1-.42-.28c-.25-.17-.5-.36-.74-.54s-.61-.5-.92-.75l-.31-.22-.17-.1-.18-.11-.06,0a1,1,0,1,1,.94-1.83,2.77,2.77,0,0,1,.37.22,3.57,3.57,0,0,1,.56.36c.26.2.51.42.76.63s.82.62,1.25.9,1.06.61,1.61.88c.24.13.48.25.71.4l.35.22.28.19h0l.4.26c.24.14.48.28.72.4.5.24,1,.45,1.54.65.36.12.72.22,1.09.32s.72.23,1.08.37c.72.28,1.42.62,2.14.93.3.12.6.23.9.32.45.11.9.19,1.34.27l1.42.29c.86.18,1.7.45,2.56.67a13.8,13.8,0,0,0,1.54.27c.36,0,.72.06,1.08.08l1.15.09c.82.08,1.65.11,2.47.11l.79,0,.87-.56c1-.64,2-1.27,2.94-2,.69-.52,1.37-1.06,2.07-1.58,1.36-1,2.7-2.09,4.07-3.11.76-.58,1.48-1.21,2.23-1.81s1.44-1.09,2.14-1.65,1.37-1.14,2-1.74,1.22-1.15,1.82-1.73c.35-.35.69-.71,1-1.07a14.55,14.55,0,0,1,1.14-1.08l1.17-1c.44-.36.86-.74,1.29-1.12s.77-.66,1.16-1,.79-.69,1.18-1c.65-.56,1.32-1.11,2-1.67l-.31-.56c-.38-.67-.77-1.34-1.17-2l.07.12c-.05-.08-.09-.16-.14-.23l.07.12a17,17,0,0,0-1.14-1.63c-.26-.31-.54-.6-.81-.89l-.9-1h0c-.3-.34-.58-.68-.89-1a7.83,7.83,0,0,0-.73-.68c-.51-.41-1-.81-1.5-1.24l-1.63-1.39c-.22-.17-.46-.32-.7-.47l.11.07c-.51-.31-1-.63-1.52-1a15.57,15.57,0,0,0-1.42-.84l-.12-.07-.12-.06,0,0c-.72-.37-1.45-.71-2.17-1.06s-1.32-.7-2-1L95.73,78a12.84,12.84,0,0,0-1.48-.62c-.83-.25-1.67-.48-2.49-.79l-1.29-.52a11,11,0,0,0-1.3-.44c-.79-.19-1.59-.32-2.36-.57s-1.51-.55-2.26-.81c-.5-.15-1-.28-1.49-.4a1.21,1.21,0,0,1-.52-.22,1,1,0,0,1-.43-.82,1.06,1.06,0,0,1,.77-1,1,1,0,0,1,.78.09c.46.12.93.23,1.39.37s1.09.39,1.63.59.93.32,1.4.45l1.24.26a11.61,11.61,0,0,1,1.39.41c.45.15.89.35,1.32.53s.82.31,1.24.45l1.55.47a13.94,13.94,0,0,1,1.75.71h0l.11.06c.59.29,1.16.6,1.74.91s.9.44,1.35.65.89.44,1.33.67l.11.06h0c.57.3,1.12.62,1.65,1s1.06.67,1.59,1a14.06,14.06,0,0,1,1.66,1.31c.47.4.93.82,1.41,1.22s.84.64,1.22,1a17.9,17.9,0,0,1,1.31,1.44h0l1,1.06c.32.34.63.68.93,1s.51.69.76,1,.49.75.72,1.14c.36.59.7,1.18,1,1.78.36-.32.75-.63,1.13-.93L117,89.51c.44-.34.89-.68,1.35-1,1-.68,1.93-1.34,2.94-1.93s1.77-1,2.65-1.55,1.76-1.08,2.67-1.57c.49-.27,1-.52,1.49-.78s.85-.51,1.27-.77c.88-.57,1.78-1.1,2.7-1.61s2-1.05,2.94-1.57c.49-.26,1-.54,1.44-.8s1-.52,1.49-.77l.21-.1v0a9,9,0,0,0,.35-.91,15.67,15.67,0,0,0,.4-1.64,12.85,12.85,0,0,0,.17-1.52,8.56,8.56,0,0,0,0-1.24,15.88,15.88,0,0,0-.31-1.83,12.26,12.26,0,0,0-.36-1.22,18.3,18.3,0,0,0-1.08-2.28c-.36-.64-.75-1.25-1.17-1.85l-.5-.63c-.26-.35-.53-.68-.82-1S134,62,133.6,61.56s-.8-1-1.19-1.56-.71-.78-1.06-1.18c-.5-.56-1-1.1-1.53-1.64s-1-1.1-1.44-1.65L127.9,55l-.25-.29h0l0-.05,0,0-.05,0,0,0c-.49-.56-1-1.13-1.43-1.7l-.44-.52,0,0a13.84,13.84,0,0,1-1.08-1c-.34-.33-.65-.7-1-1.06s-.6-.69-.92-1l-.37-.35a3,3,0,0,1-.48-.54,1.1,1.1,0,0,1-.14-1,1,1,0,0,1,.56-.6h0l0,0,.06,0h0a1,1,0,0,1,1.29.5.6.6,0,0,1,.08.08c.4.39.8.78,1.17,1.2s.73.85,1.12,1.25.6.56.92.82.73.59,1.07.91.66.67,1,1l.84.92c.6.67,1.16,1.38,1.74,2.07.29.34.59.66.88,1s.58.73.85,1.1.74,1,1.1,1.47l-.08-.11c.48.64,1,1.27,1.51,1.86.3.33.61.64.89,1s.57.72.85,1.09.55.71.82,1.07.5.62.75.94A10.35,10.35,0,0,1,140.27,67l.32.66c.09.2.2.41.27.62A6.41,6.41,0,0,1,141,69h0c.08.53.23,1,.33,1.56a9.12,9.12,0,0,1,.09,1c0,.4.08.8.08,1.2s0,.62,0,.93a6,6,0,0,1-.2,1c-.08.29-.15.58-.24.86a.56.56,0,0,0,0,.12c.86-.4,1.72-.79,2.59-1.17.5-.22,1-.46,1.51-.66s1.06-.39,1.6-.57l.35-.12h0l.28-.1a.89.89,0,0,1,.19-.51,16.72,16.72,0,0,1,1-1.31c.42-.46.84-.91,1.29-1.35a17.09,17.09,0,0,1,1.48-1.33c.54-.43,1.12-.82,1.69-1.21l.56-.37c.77-.5,1.53-1,2.31-1.49L158.27,64c.39-.25.8-.47,1.2-.7s.79-.47,1.19-.69c.77-.43,1.54-.88,2.3-1.33l2.39-1.43c.41-.25.81-.51,1.2-.77s.79-.49,1.18-.75c.59-.4,1.14-.84,1.71-1.27.3-.22.59-.43.9-.63a6.28,6.28,0,0,1,.57-.31h0a.88.88,0,0,1,.39-.08l.06,0a.71.71,0,0,1,.93.79,1,1,0,0,1,0,.67,1.06,1.06,0,0,1-.56.56h0l-.07,0a3.87,3.87,0,0,0-.34.21c-.75.52-1.46,1.12-2.21,1.63-.42.29-.85.55-1.27.82l-1.16.74c-.77.48-1.55.92-2.32,1.39s-1.5.91-2.27,1.34c-.62.34-1.22.7-1.84,1s-1.2.71-1.79,1.09-1.18.74-1.76,1.11l-1.92,1.25.11-.07-.16.11,0,0-.14.1-.05,0-.11.07,0,0-.07,0h0l0,0h-.06l-.06,0,0,0-.05,0h-.09l0,0-.13.09h0l-.06,0-.21.15,0,0-.64.46c-.23.16-.44.34-.66.52s-.29.32-.43.49l-.67.77c.72-.25,1.45-.48,2.19-.67,1.08-.29,2.18-.56,3.27-.82l1.45-.32q.76-.16,1.53-.3l1.48-.22a14.18,14.18,0,0,1,1.59-.12h0c.42,0,.83-.05,1.24-.05l1.21,0,2.42.05c.38,0,.77,0,1.15.07a11.25,11.25,0,0,1,1.29.12,7.73,7.73,0,0,1,1.25.35,3.69,3.69,0,0,1,.42.17,1.38,1.38,0,0,1,.44.21.74.74,0,0,1,.29.6.66.66,0,0,1,0,.25v.07a1,1,0,0,1,0,.55,1,1,0,0,1-1.06.85l-.25,0-.64.07c-.39.06-.77.13-1.16.22s-.87.16-1.31.22l.13,0a24,24,0,0,0-2.78.56c-1,.28-1.92.58-2.89.85l.13,0c-.46.13-.91.28-1.37.42h0l-.05,0h0l-1.31.38c.76.17,1.51.35,2.26.55l1.51.44c.67.2,1.34.39,2,.61s1.39.47,2.08.73c.36.13.71.28,1,.43l.48.22.28.14.08,0,.29.15h0a6.26,6.26,0,0,1,1,.38c.5.24,1,.53,1.47.81s.87.47,1.31.7,1.11.5,1.67.73a4,4,0,0,1,.66.32,1.59,1.59,0,0,1,.44.38,1.32,1.32,0,0,1,.18.33,1.05,1.05,0,0,1-.58,1.32,1.07,1.07,0,0,1-.39.07,1.14,1.14,0,0,1-.4-.08,1.11,1.11,0,0,1-.39-.29l0,0c-.36-.17-.73-.3-1.1-.46s-.84-.38-1.25-.59-.81-.43-1.21-.65-.78-.46-1.18-.66a3.75,3.75,0,0,0-.5-.21c-1-.31-2-.54-2.92-.92s-1.79-.79-2.73-1.1c-.74-.22-1.51-.38-2.26-.57h0c-.58-.16-1.15-.33-1.72-.52a16,16,0,0,0-1.66-.52,3.43,3.43,0,0,0-.56-.08c-.52,0-1.05,0-1.57,0s-.91,0-1.36.07l-.34.07a1,1,0,0,1-.52,0l-.57.18h0l-1.14.41h0l-.16.06,0,0-.41.15h-.06l-.19.07.07,0h0l-.07,0-.12,0,.13,0c-1,.38-2,.79-3,1.24-.54.24-1.06.51-1.59.78s-1,.48-1.42.75l.11-.07c-2.2,1.27-4.43,2.48-6.58,3.83l-1.78,1.11.57.21c1,.37,2,.81,3.08,1.18l.11,0h0l.18.06h0l.14,0a12.5,12.5,0,0,1,1.41.61h0c.39.21.77.44,1.15.66,1,.55,2,1,3,1.61a11.75,11.75,0,0,1,1.35,1.07c.32.28.61.57.92.85l.74.59c.33.26.65.54,1,.82l.86.82.72.67h0c.36.34.75.65,1.11,1l0,0,.05,0h0l0,0A12.67,12.67,0,0,1,154.62,97c.31.38.57.79.86,1.19.2.25.41.5.6.75s.28.36.42.55l.27.33h0l0-.05.06.08.22.2a1,1,0,0,1,.31.51.72.72,0,0,1-.11.78.66.66,0,0,1-.12.17,1,1,0,0,1-.73.34h0a1.09,1.09,0,0,1-.69-.26,3.47,3.47,0,0,1-.56-.59l.06.08-.16-.2-.23-.31q-.28-.37-.6-.75c-.37-.44-.68-.94-1-1.4a8.74,8.74,0,0,0-.83-.89l0,0-.43-.42.1.1c-.21-.2-.43-.37-.64-.56s-.45-.42-.68-.63l-.7-.65c-.25-.24-.5-.48-.76-.71-.43-.37-.87-.71-1.31-1.07-.23-.19-.45-.4-.68-.61s-.5-.46-.76-.68a9.29,9.29,0,0,0-.88-.67c-.62-.37-1.26-.69-1.91-1s-1.35-.76-2-1.13l.12.06-.15-.08,0,0a9,9,0,0,0-1.11-.47l.06,0-.1,0-.08,0-1.08-.4-.24-.07a25.42,25.42,0,0,0-3.24-.64,20.24,20.24,0,0,0-2.2-.1l-1.93,1.28c-.64.42-1.29.82-1.92,1.26l-.13.09-.15.11,0,0c-.81.58-1.58,1.21-2.36,1.83s-1.54,1.22-2.29,1.86-1.5,1.26-2.26,1.89-1.64,1.39-2.48,2.05-1.62,1.26-2.42,1.9-1.48,1.16-2.18,1.79c-.55.48-1,1-1.58,1.51s-1.26,1.19-1.89,1.78l-1.69,1.66c-.54.52-1.12,1-1.68,1.49l-1.56,1.41h.57l1.33-.08a13.47,13.47,0,0,1,1.42,0l.42,0a1.21,1.21,0,0,1,.43.07h.75a16.62,16.62,0,0,1,2.72.28,23.26,23.26,0,0,1,2.61.68,19.23,19.23,0,0,1,4.17,1.92,20.74,20.74,0,0,1,3.42,2.63c.37.34.73.71,1.07,1.08l.47.47c.12.13.25.26.36.4a1.08,1.08,0,0,1,.24.77,1,1,0,0,1-.37.69,1,1,0,0,1-.67.24,1,1,0,0,1-.78-.37,4.12,4.12,0,0,0-.28-.31c-.27-.27-.54-.54-.83-.78a11.38,11.38,0,0,0-1-.7c-.68-.41-1.39-.77-2.07-1.18a21.09,21.09,0,0,0-2.08-1.15,7.2,7.2,0,0,0-.88-.33c-.89-.26-1.8-.43-2.68-.72s-1.68-.56-2.54-.77c-.22,0-.44-.08-.67-.1-.47,0-.94,0-1.41,0h-.3c-.76,0-1.51,0-2.27,0a13,13,0,0,0-2,.18,18,18,0,0,0-2,.5h0a1.25,1.25,0,0,0-.25.09.88.88,0,0,1-.23.07l-.25.15h0c-.7.75-1.39,1.51-2.1,2.26s-1.39,1.38-2.09,2.07L97.09,120c-.46.44-.9.89-1.33,1.35a.46.46,0,0,1,.07-.07c-.59.64-1.18,1.28-1.79,1.9a23.86,23.86,0,0,1,3.27.35h0c.75.14,1.5.32,2.24.52.53.15,1.07.3,1.59.48a7.1,7.1,0,0,1,.79.22,12.69,12.69,0,0,1,1.21.48,13.22,13.22,0,0,1,2.32,1.37c.28.2.55.44.82.66a5,5,0,0,1,.78.75,5.94,5.94,0,0,1,.49.61l.4.57c0,.08.11.15.17.23.22.25.44.49.64.76s.27.4.42.59l0-.07a1,1,0,0,1-.06,1.44,1.07,1.07,0,0,1-.73.28.92.92,0,0,1-.73-.32c-.25-.31-.46-.65-.71-1s-.51-.58-.74-.89c-.11-.16-.21-.33-.33-.49l-.35-.43-.3-.3a15.07,15.07,0,0,0-1.27-1h0l0,0h0l0,0-.47-.31a11.5,11.5,0,0,0-1.36-.68,10.55,10.55,0,0,0-1.2-.4c-1-.24-1.93-.42-2.91-.58s-2.07-.33-3.12-.4c-.42,0-.83,0-1.25,0a15.38,15.38,0,0,0-1.91.26l-.27.06-.26.06c-.57.49-1.16,1-1.75,1.42s-1.39,1.09-2.11,1.61-1.5,1.08-2.26,1.6a22.22,22.22,0,0,0-2.24,1.76h0c-.33.32-.66.64-1,1a2,2,0,0,0-.1.26v0c0,.17-.1.34-.14.51a2.4,2.4,0,0,0,0,.28.57.57,0,0,0,0,.13,1.13,1.13,0,0,1,.1.13,1.06,1.06,0,0,1,.12.2.84.84,0,0,1,.06.14,2.13,2.13,0,0,0,.21.49,1.35,1.35,0,0,0,.58.53,1.74,1.74,0,0,0,1.71-.37,5.13,5.13,0,0,0,.72-.68,6.32,6.32,0,0,0,.65-1c.38-.65.68-1.34,1.09-2l.21-.29.05,0,0,0H87l.09,0,.21.06.15.06.12.07.09.07.11.11.13.17c0,.08.1.16.14.24.13.27.26.54.4.81s.21.38.32.57a5.67,5.67,0,0,0,.45.64,2.79,2.79,0,0,0,.46.45,3.84,3.84,0,0,0,.54.35,3.6,3.6,0,0,0,1.18.45,3.45,3.45,0,0,0,1.32-.07,2.25,2.25,0,0,0,.94-.56,12.25,12.25,0,0,0,.91-1c.29-.35.53-.73.82-1.07l.2-.19a4.08,4.08,0,0,1,.33-.25c.13-.09.27-.16.41-.24l.26-.11.22-.06h.33l.55.16c.22.08.44.18.65.28s.41.22.6.34l.18.13.09.08.08.12a1.32,1.32,0,0,1,.12.2l.12.27c.08.25.13.51.23.74s.18.32.26.48.11.26.18.38l.17.31a.52.52,0,0,1,.06.16,4.19,4.19,0,0,1,.14.47c.1.38.22.76.34,1.13s.31,1,.44,1.46a7.74,7.74,0,0,0,.59,1.63,7.66,7.66,0,0,0,.41.68c.12.19.25.37.38.55l.51.69q.21.3.45.6a3.21,3.21,0,0,0,1.24.87,1.79,1.79,0,0,0,.68.13,2.38,2.38,0,0,0,.7-.11,2.6,2.6,0,0,0,.57-.25,7.67,7.67,0,0,0,1.18-.95,9.74,9.74,0,0,0,1.06-1.17,5.43,5.43,0,0,0,.5-.75c.13-.23.24-.46.35-.7a15.31,15.31,0,0,0,.56-1.56c.18-.55.37-1.09.54-1.63s.32-1,.44-1.58a16,16,0,0,0,.28-1.66c.07-.57.14-1.14.22-1.7s.15-1.12.25-1.68a5,5,0,0,1,.14-.52l0-.09a.95.95,0,0,1,.14-.24l.07-.08.07-.06.07,0,.09,0,.12,0,.27,0h.36l.46.07.52.13.23.08.25.11.24.13.22.14a1.66,1.66,0,0,1,.21.16l.18.15.34.35c.24.3.46.6.68.91a8,8,0,0,0,.64.78l.7.7c.22.22.43.44.64.67s.32.38.47.58a7.31,7.31,0,0,0,.52.59,2.66,2.66,0,0,0,.5.4,1.58,1.58,0,0,0,.44.2,1.67,1.67,0,0,0,.59.06,3,3,0,0,0,.43-.1,1.84,1.84,0,0,0,.25-.09,3.55,3.55,0,0,0,.88-.61c.16-.15.31-.31.45-.47a9.35,9.35,0,0,0,.86-1.13c.25-.36.48-.74.7-1.12a6.6,6.6,0,0,0,.55-1.21c.07-.25.15-.49.2-.75s.07-.45.1-.67c0-.44,0-.87.07-1.31,0-.28.06-.55.11-.83a2.17,2.17,0,0,1,.07-.24,1.19,1.19,0,0,1,.08-.2l.09-.15,0,0,0,0,0,0,.1-.06.07,0,.08,0h.12l0,0,0,0,0,0,.09.1c.29.34.53.72.79,1.07a5.69,5.69,0,0,0,.49.61,3.87,3.87,0,0,0,.52.47,2.46,2.46,0,0,0,.5.28,1.89,1.89,0,0,0,1.1.09,2,2,0,0,0,.54-.17,3.35,3.35,0,0,0,.52-.3A4,4,0,0,0,132,128a7,7,0,0,0,.5-.61,6.31,6.31,0,0,0,.4-.65c.1-.2.2-.41.28-.62s.1-.31.16-.46.09-.3.13-.45.13-.47.18-.7c.14-.59.26-1.18.36-1.78a9,9,0,0,0,.14-1.73c0-.59,0-1.18-.07-1.77s-.11-1.15-.18-1.72-.15-1.14-.25-1.71-.2-1.16-.32-1.73-.25-1.11-.37-1.66c-.07-.39-.13-.77-.17-1.16s-.06-.65-.08-1,0-.67-.07-1-.05-.62-.1-.92-.1-.63-.18-.93-.17-.65-.27-1a15.45,15.45,0,0,0-.68-1.75l-.42-.9c-.13-.3-.27-.61-.39-.92l0,.06-.12-.35a4.1,4.1,0,0,1-.14-.5,6.29,6.29,0,0,1-.11-.74V101a2.91,2.91,0,0,1,0-.31,2.3,2.3,0,0,1,.06-.28l.08-.21.06-.09,0-.05.11-.12,0,0,0,0,.12,0,.1,0h.24l.28.08.12,0,.29.17.11.09.13.12a1.77,1.77,0,0,1,.16.22c.06.09.11.18.16.27.25.53.46,1.08.72,1.6a11,11,0,0,0,.89,1.52,13.68,13.68,0,0,0,1.14,1.4c.39.41.83.77,1.26,1.14.24.21.46.43.68.66s.46.56.67.85a8.85,8.85,0,0,1,.5.84,5.79,5.79,0,0,1,.25.57,2.46,2.46,0,0,1,.09.29,2.4,2.4,0,0,1,0,.28,1.31,1.31,0,0,1,0,.28c0,.14,0,.27-.05.41a7.59,7.59,0,0,1-.22.78,7.71,7.71,0,0,0-.24.82,3,3,0,0,0-.09.79,3.74,3.74,0,0,0,.08.82q.08.33.18.66a4.82,4.82,0,0,0,.36.76,4.94,4.94,0,0,0,.44.65,7.16,7.16,0,0,0,.57.65l.26.25.29.25a8.09,8.09,0,0,0,.68.46,4.69,4.69,0,0,0,.94.43,2.49,2.49,0,0,0,.71.14,2.68,2.68,0,0,0,.49,0l.44-.1a2.83,2.83,0,0,0,.4-.17,1.24,1.24,0,0,0,.27-.17,3.71,3.71,0,0,0,.56-.49,4.35,4.35,0,0,0,.6-.93,5.93,5.93,0,0,0,.31-.68c.12-.3.24-.6.34-.9s.18-.49.29-.73l.12-.21.07-.07.06-.06.08,0,.09,0,.14,0h0l.26,0h.2a6.76,6.76,0,0,1,.77.1c.26.06.53.13.79.21l.52.22.56.33.46.27a4.26,4.26,0,0,0,.82.36,2.35,2.35,0,0,0,.54.1,1.71,1.71,0,0,0,.45,0,2.12,2.12,0,0,0,1.31-1,7.65,7.65,0,0,0,.57-1,10.55,10.55,0,0,0,.4-1.2l.3-1.15c.1-.42.21-.84.31-1.26a11.43,11.43,0,0,1,.3-1.15l.09-.22.09-.16.09-.12.09-.09.09-.07.06,0H156v0h0l.06.15a5.39,5.39,0,0,1,.18.66c.09.49.16,1,.25,1.47s.18,1,.29,1.47c.07.27.15.53.23.79a3.59,3.59,0,0,0,.12.35,4.48,4.48,0,0,0,.21.55,3.16,3.16,0,0,0,.42.71,2.16,2.16,0,0,0,.4.4,1.68,1.68,0,0,0,.52.3,1.34,1.34,0,0,0,.49.1,2.35,2.35,0,0,0,.58-.1,3.47,3.47,0,0,0,.41-.16,5.07,5.07,0,0,0,1.93-1.51,6.73,6.73,0,0,0,.63-1.06,15,15,0,0,0,.57-1.45l.51-1.48a15,15,0,0,0,.71-2.48,3.85,3.85,0,0,0,.08-.49l.06-.56c0-.28,0-.55.05-.83s0-.31,0-.46,0-.21,0-.32c0-.29,0-.58-.05-.87a12.11,12.11,0,0,0-.22-1.71c-.06-.31-.12-.62-.2-.93,0-.14-.07-.29-.11-.44l-.15-.46a14,14,0,0,0-.68-1.65c-.25-.55-.51-1.08-.78-1.62s-.59-1.09-.89-1.62c-.15-.27-.31-.52-.46-.79s-.28-.49-.41-.73-.18-.35-.25-.53l-.22-.55a5.62,5.62,0,0,1-.19-.58c-.08-.27-.16-.55-.22-.82s-.1-.62-.13-.93,0-.45,0-.67.07-.59.12-.88a4.13,4.13,0,0,1,.15-.5,2.52,2.52,0,0,1,.12-.29c0-.09.11-.18.17-.27l.07-.09a1.21,1.21,0,0,1,.16-.16l.12-.1.17-.09.06,0,.11,0,.17,0h.08l.21,0,.31.08.3.13.18.11.16.12.13.13.12.16a1.35,1.35,0,0,1,.15.26,5.55,5.55,0,0,1,.24.56,10.23,10.23,0,0,0,.53,1.56A4.83,4.83,0,0,0,164,90a5,5,0,0,0,.47.55,2.89,2.89,0,0,0,1,.66,2.7,2.7,0,0,0,.57.18,2.94,2.94,0,0,0,.51.05,3.41,3.41,0,0,0,1.09-.22l.62-.23.31-.08.13,0h.12l.28,0,.3.09.36.16c.14.07.27.15.4.23a3.38,3.38,0,0,1,.36.27l.2.19.16.2.09.17a1.57,1.57,0,0,1,.12.3l.06.2,0,.18q.06.42.09.84c0,.26,0,.51.07.76a5.43,5.43,0,0,0,.18.91,5.32,5.32,0,0,0,.32.78,3.86,3.86,0,0,0,1,1.22,6.36,6.36,0,0,0,.66.5,5.15,5.15,0,0,0,.61.36,4.19,4.19,0,0,0,.7.26,2.65,2.65,0,0,0,1.45-.07,2.56,2.56,0,0,0,1.16-.69,3.55,3.55,0,0,0,.51-.71c.08-.16.15-.32.22-.48a2.67,2.67,0,0,0,.14-.36c.05-.14.09-.28.13-.42.14-.52.26-1,.35-1.58s.18-1.08.28-1.63a8.15,8.15,0,0,1,.22-.85c.06-.16.13-.32.2-.48a1.74,1.74,0,0,1,.11-.18l.08-.1.11-.11.07-.05.09,0h.27l.12,0,.35.09a4.4,4.4,0,0,0,1.64.57,2.1,2.1,0,0,0,1.33-.56,2.39,2.39,0,0,0,.35-.36,3,3,0,0,0,.39-.65,2.79,2.79,0,0,0,.22-1.18,5.93,5.93,0,0,0-.12-.83,11.38,11.38,0,0,0-.48-1.5c-.09-.27-.18-.54-.26-.81s-.13-.54-.19-.81,0-.27,0-.41v-.19c0-.11,0-.22,0-.33a2.75,2.75,0,0,1,.13-.47c0-.09.07-.17.11-.26l.11-.19.1-.12.12-.13a1,1,0,0,1,.17-.12l.1,0,.1,0,.12,0,.26,0a3.69,3.69,0,0,1,.47,0,5.62,5.62,0,0,1,.57.09l.34.09.26.12c.53.29,1,.64,1.56.91.29.14.58.28.87.39l.46.15.41.1a4,4,0,0,0,1,.08,3.72,3.72,0,0,0,.57-.08A2.68,2.68,0,0,0,192,84a2.52,2.52,0,0,0,.59-.36,3.83,3.83,0,0,0,.75-.86,6.59,6.59,0,0,0,.44-.83,6.86,6.86,0,0,0,.27-.76,3,3,0,0,0,.12-.54,3.69,3.69,0,0,0,0-.58A9.27,9.27,0,0,0,194,78.5ZM88.69,98.26h0Zm23.39-5.05,0,0h0l-.32.36Zm64.56-11h0Z"/><polygon class="cls-1" points="154.33 69.02 154.33 69.02 154.33 69.02 154.33 69.02"/><path class="cls-1" d="M135.81,88h0Z"/><path class="cls-1" d="M152.23,77.68Z"/><path class="cls-1" d="M153.76,69.41l.09-.07h0Z"/></svg>