<?xml version="1.0" encoding="UTF-8"?>
<!-- Generator: Adobe Illustrator 25.1.0, SVG Export Plug-In . SVG Version: 6.00 Build 0)  -->
<svg version="1.1" id="Layer_1" xmlns="http://www.w3.org/2000/svg" xmlns:xlink="http://www.w3.org/1999/xlink" x="0px" y="0px" viewBox="0 0 27.7 28.9" style="enable-background:new 0 0 27.7 28.9;" xml:space="preserve">
<style type="text/css">
	.st0{fill:#8DC640;}
</style>
<path class="st0" d="M4.8,13.7l-0.1-0.4c-0.1-0.6-0.3-2-0.2-3c0.1,0,0.2,0.1,0.3,0.1l0.5,0.1V10c0.1-1.9,0.5-3.9,0.8-4.5L7,6  l0.1-0.4C8,3.3,9,0.7,9.4,0.1c0.7,0.4,2.9,2.2,4.9,3.9l0.3,0.3l0.3-0.4c0.2-0.2,0.4-0.5,0.5-0.6c0.9,0.7,2.3,2.5,2.9,3.3l0.3,0.3  L19,6.4c0.8,1.2,1.9,3.7,1.9,3.8l0.1,0.4l0.8-0.3c0.8,1.6,1.1,5.2,1.1,5.3v0.5l0.8-0.3c0,1.2-0.7,3.3-1.4,4.5l-0.1,0.1l0.1,0.2  c0,0.1,0.1,0.2,0.9,0.6c-0.8,1.7-3,3.6-3,3.6L19.7,25l0.9,0.7c-0.4,0.6-1.7,1.8-2.7,2.6c-0.2-0.9-0.3-1.8-0.4-2.5  c0.5-0.2,3.4-1.9,3.4-5.7c-1.1,4.2-3.1,4.8-3.5,4.9c-0.1-1.1-0.1-2-0.3-3.2c1.1-0.5,4.2-3.6,3.5-7.2c-0.1,3.9-2.8,5.6-3.8,6.1  c-0.2-1.2-0.5-2.4-0.8-3.7c0.4-0.2,3.8-2.6,2.4-6.4c0.5,4.1-2,5.3-2.6,5.5c-0.3-1.1-0.7-2.2-1.1-3.4l0,0c0.1,0.1,2.5-1.6,1-6.8  c0.7,5-0.9,5.9-1.3,6c-0.8-3.2-3.1-5.8-4-8.1c0.3,3.2,2.6,5.6,3.3,8.9c-0.6-0.2-3.6-1-6.1-3.9c1.6,3,5,4.3,6.3,4.7  c0.3,1.1,0.7,2.2,1,3.4c-1-0.1-4.1-0.5-6.6-3.4c1.6,3,5.4,4.2,6.8,4.5c0.3,1.3,0.6,2.5,0.8,3.9c-1.2-0.1-4.5-0.7-7-3.6  c1.5,2.9,5.5,4.2,7.2,4.6c0.2,1,0.3,1.8,0.3,2.7c-0.7,0.1-2.7,0.4-5.3-2.5c1.5,2.9,4.2,3.4,5.4,3.5c0,0.7,0.2,1.6,0.3,2.5  c-2.1-0.5-4.5-1.1-5.2-1.5c0-0.1,0.1-0.3,0.1-0.4l0.1-0.4l-0.4-0.1c-1.4-0.3-2.6-0.7-2.9-1.1c0.1-0.1,0.2-0.3,0.3-0.4l0.3-0.3  l-0.4-0.2c-0.5-0.3-1.9-1.2-2.5-1.9c0.1-0.1,0.3-0.2,0.4-0.2l0.5-0.2L7,21.7c-0.8-0.9-2-2.4-2.4-3.2c0.1,0,0.3-0.1,0.4-0.1l0.5-0.1  l-0.3-0.5c0,0-1-1.9-1.1-4.1c0.1,0,0.1,0,0.2,0L4.8,13.7z"/>
</svg>