<?xml version="1.0" encoding="UTF-8"?>
<svg xmlns="http://www.w3.org/2000/svg" viewBox="0 0 200 200"><defs><style>.cls-1{fill:#6a8c10;}.cls-2,.cls-3{fill:#fff;}.cls-2,.cls-3,.cls-4{stroke:#231f20;stroke-linecap:round;stroke-linejoin:round;}.cls-2,.cls-4{stroke-width:3px;}.cls-3{stroke-width:3.55px;}.cls-4{fill:none;}</style></defs><g id="Layer_2" data-name="Layer 2"><g id="Layer_1-2" data-name="Layer 1"><circle class="cls-1" cx="100" cy="100" r="100"/><path class="cls-2" d="M88.38,40.31c12.19,17.6,12.9,23.32-5,33.63-15.39-13.59-17.25-16-5.06-33.63A6.15,6.15,0,0,1,88.38,40.31Z"/><path class="cls-2" d="M51.64,44.12c20.94.15,25.93,3,24.09,23.42-18.58,8.72-23,5-30.25-14.63A6.52,6.52,0,0,1,51.64,44.12Z"/><path class="cls-2" d="M121.85,59.51c5.85,22.91,5.22,28.84-16,32.21C92.17,75.05,95.64,70.21,115.25,57A4.32,4.32,0,0,1,121.85,59.51Z"/><path class="cls-3" d="M141.71,96.11c6.07,24.61,4.45,31.24-19.75,35.07-15.51-19-12.31-25,8.6-39.32A7.26,7.26,0,0,1,141.71,96.11Z"/><path class="cls-2" d="M55.84,80.8c19.75-6.89,25.4-5.9,30.55,14C71.83,109.21,66.46,107.19,53,91.18A6.54,6.54,0,0,1,55.84,80.8Z"/><path class="cls-2" d="M68.75,136.88c5.66-20.27,9.68-24.37,29-17.22,3.54,20.26-1.22,23.47-22.18,25.37A6.45,6.45,0,0,1,68.75,136.88Z"/><path class="cls-2" d="M110.3,78.53c-2,7.6-6.6,22.38-7.79,28.77"/><path class="cls-2" d="M127.48,116.89c-2,7.59-7.19,22.18-8.39,28"/><path class="cls-2" d="M103.9,116.69c-5.59,1.8-18.18,9-22.37,15.79"/><path class="cls-2" d="M68.34,88.32s13,7.2,27.57,8.59"/><path class="cls-4" d="M60.55,56.16c45.45,25,40.88,72.79,71,107.9"/><line class="cls-2" x1="82.93" y1="52.56" x2="83.43" y2="72.24"/></g></g></svg>