<?xml version="1.0" encoding="windows-1252"?>
<!-- Generator: Adobe Illustrator 20.0.0, SVG Export Plug-In . SVG Version: 6.00 Build 0)  -->
<svg version="1.1" id="Layer_1" xmlns="http://www.w3.org/2000/svg" xmlns:xlink="http://www.w3.org/1999/xlink" x="0px" y="0px" viewBox="0 0 40 40" style="enable-background:new 0 0 40 40;" xml:space="preserve">
<line style="fill:none;stroke:#7A4F34;stroke-linecap:round;stroke-miterlimit:10;" x1="1.5" y1="38.501" x2="34.208" y2="5.793"/>
<g>
	<path style="fill:#F5CE85;" d="M34.228,8.683c-0.777,0-1.508-0.303-2.057-0.853s-0.852-1.279-0.852-2.057s0.303-1.507,0.852-2.057   c1.831-1.831,5.083-2.15,6.302-2.205c-0.094,1.284-0.497,4.628-2.188,6.318C35.735,8.38,35.004,8.683,34.228,8.683z"/>
	<path style="fill:#967A44;" d="M37.927,2.047c-0.176,1.619-0.705,4.138-1.996,5.43c-0.455,0.455-1.06,0.706-1.703,0.706   s-1.248-0.251-1.703-0.706c-0.455-0.455-0.706-1.06-0.706-1.703s0.251-1.248,0.706-1.703C34.004,2.59,36.523,2.167,37.927,2.047    M38.909,1c-0.666,0-4.822,0.093-7.092,2.363c-1.331,1.331-1.331,3.49,0,4.821c0.666,0.666,1.538,0.999,2.411,0.999   s1.745-0.333,2.411-0.999C38.919,5.903,39,1.001,39,1.001S38.968,1,38.909,1L38.909,1z"/>
</g>
<g>
	<path style="fill:#F5CE85;" d="M31.5,15.501c-1.604,0-2.909-1.305-2.909-2.909s1.305-2.909,2.909-2.909   c2.583,0,5.091,2.052,6.015,2.897C36.541,13.422,33.891,15.501,31.5,15.501z"/>
	<path style="fill:#967A44;" d="M31.5,10.183c2.09,0,4.162,1.472,5.248,2.387c-1.143,0.922-3.309,2.431-5.248,2.431   c-1.328,0-2.409-1.081-2.409-2.409S30.172,10.183,31.5,10.183 M31.5,9.183c-1.883,0-3.409,1.526-3.409,3.409   s1.526,3.409,3.409,3.409c3.226,0,6.75-3.409,6.75-3.409S34.997,9.183,31.5,9.183L31.5,9.183z"/>
</g>
<g>
	<path style="fill:#F5CE85;" d="M26.045,20.955c-1.604,0-2.909-1.305-2.909-2.909s1.305-2.909,2.909-2.909   c2.583,0,5.091,2.052,6.015,2.897C31.086,18.876,28.437,20.955,26.045,20.955z"/>
	<path style="fill:#967A44;" d="M26.045,15.637c2.09,0,4.162,1.472,5.248,2.387c-1.143,0.922-3.309,2.431-5.248,2.431   c-1.328,0-2.409-1.081-2.409-2.409S24.717,15.637,26.045,15.637 M26.045,14.637c-1.883,0-3.409,1.526-3.409,3.409   c0,1.883,1.526,3.409,3.409,3.409c3.226,0,6.75-3.409,6.75-3.409S29.542,14.637,26.045,14.637L26.045,14.637z"/>
</g>
<g>
	<path style="fill:#F5CE85;" d="M20.591,26.41c-1.604,0-2.909-1.305-2.909-2.909s1.305-2.909,2.909-2.909   c2.583,0,5.091,2.052,6.016,2.897C25.631,24.331,22.982,26.41,20.591,26.41z"/>
	<path style="fill:#967A44;" d="M20.591,21.092c2.09,0,4.162,1.472,5.248,2.387c-1.143,0.922-3.309,2.431-5.248,2.431   c-1.328,0-2.409-1.081-2.409-2.409S19.263,21.092,20.591,21.092 M20.591,20.092c-1.883,0-3.409,1.526-3.409,3.409   s1.526,3.409,3.409,3.409c3.226,0,6.75-3.409,6.75-3.409S24.087,20.092,20.591,20.092L20.591,20.092z"/>
</g>
<g>
	<path style="fill:#F5CE85;" d="M15.136,31.864c-1.604,0-2.909-1.305-2.909-2.909s1.305-2.909,2.909-2.909   c2.583,0,5.092,2.052,6.016,2.897C20.177,29.785,17.527,31.864,15.136,31.864z"/>
	<path style="fill:#967A44;" d="M15.136,26.546c2.09,0,4.162,1.472,5.248,2.387c-1.143,0.922-3.309,2.431-5.248,2.431   c-1.328,0-2.409-1.081-2.409-2.409S13.808,26.546,15.136,26.546 M15.136,25.546c-1.883,0-3.409,1.526-3.409,3.409   s1.526,3.409,3.409,3.409c3.226,0,6.75-3.409,6.75-3.409S18.633,25.546,15.136,25.546L15.136,25.546z"/>
</g>
<g>
	<path style="fill:#F5CE85;" d="M27.409,11.41c-1.604,0-2.909-1.305-2.909-2.909c0-2.396,2.079-5.043,2.921-6.017   c0.846,0.924,2.897,3.433,2.897,6.017C30.318,10.105,29.013,11.41,27.409,11.41z"/>
	<path style="fill:#967A44;" d="M27.434,3.249c1.009,1.202,2.384,3.279,2.384,5.252c0,1.328-1.081,2.409-2.409,2.409   S25,9.829,25,8.501C25,6.56,26.512,4.391,27.434,3.249 M27.409,1.751c0,0-3.409,3.524-3.409,6.75c0,1.883,1.526,3.409,3.409,3.409   s3.409-1.526,3.409-3.409C30.818,5.004,27.409,1.751,27.409,1.751L27.409,1.751z"/>
</g>
<g>
	<path style="fill:#F5CE85;" d="M21.955,16.864c-1.604,0-2.909-1.305-2.909-2.909c0-2.396,2.079-5.042,2.921-6.016   c0.845,0.924,2.897,3.433,2.897,6.016C24.864,15.56,23.559,16.864,21.955,16.864z"/>
	<path style="fill:#967A44;" d="M21.98,8.703c1.009,1.202,2.384,3.279,2.384,5.252c0,1.328-1.081,2.409-2.409,2.409   s-2.409-1.081-2.409-2.409C19.545,12.015,21.058,9.845,21.98,8.703 M21.955,7.206c0,0-3.409,3.524-3.409,6.75   c0,1.883,1.526,3.409,3.409,3.409s3.409-1.526,3.409-3.409C25.364,10.459,21.955,7.206,21.955,7.206L21.955,7.206z"/>
</g>
<g>
	<path style="fill:#F5CE85;" d="M16.5,22.319c-1.604,0-2.909-1.305-2.909-2.909c0-2.392,2.079-5.041,2.921-6.016   c0.845,0.924,2.897,3.433,2.897,6.016C19.409,21.015,18.104,22.319,16.5,22.319z"/>
	<path style="fill:#967A44;" d="M16.525,14.158c1.009,1.202,2.384,3.279,2.384,5.252c0,1.328-1.081,2.409-2.409,2.409   s-2.409-1.081-2.409-2.409C14.091,17.469,15.603,15.3,16.525,14.158 M16.5,12.66c0,0-3.409,3.524-3.409,6.75   c0,1.883,1.526,3.409,3.409,3.409s3.409-1.526,3.409-3.409C19.909,15.913,16.5,12.66,16.5,12.66L16.5,12.66z"/>
</g>
<g>
	<path style="fill:#F5CE85;" d="M11.045,27.773c-1.604,0-2.909-1.305-2.909-2.909c0-2.396,2.079-5.042,2.921-6.016   c0.845,0.924,2.897,3.433,2.897,6.016C13.955,26.469,12.649,27.773,11.045,27.773z"/>
	<path style="fill:#967A44;" d="M11.071,19.612c1.009,1.202,2.384,3.279,2.384,5.252c0,1.328-1.081,2.409-2.409,2.409   s-2.409-1.081-2.409-2.409C8.636,22.924,10.149,20.754,11.071,19.612 M11.045,18.115c0,0-3.409,3.524-3.409,6.75   c0,1.883,1.526,3.409,3.409,3.409s3.409-1.526,3.409-3.409C14.455,21.368,11.045,18.115,11.045,18.115L11.045,18.115z"/>
</g>
<g>
	<path style="fill:#F5CE85;" d="M9.682,37.319c-1.604,0-2.909-1.305-2.909-2.909s1.305-2.909,2.909-2.909   c2.583,0,5.092,2.052,6.016,2.897C14.723,35.24,12.073,37.319,9.682,37.319z"/>
	<path style="fill:#967A44;" d="M9.682,32.001c2.09,0,4.162,1.472,5.248,2.387c-1.143,0.922-3.309,2.431-5.248,2.431   c-1.328,0-2.409-1.081-2.409-2.409S8.353,32.001,9.682,32.001 M9.682,31.001c-1.883,0-3.409,1.526-3.409,3.409   c0,1.883,1.526,3.409,3.409,3.409c3.226,0,6.75-3.409,6.75-3.409S13.178,31.001,9.682,31.001L9.682,31.001z"/>
</g>
<g>
	<path style="fill:#F5CE85;" d="M5.591,33.228c-1.604,0-2.909-1.305-2.909-2.908c0-2.392,2.079-5.041,2.921-6.016   C6.448,25.228,8.5,27.736,8.5,30.319C8.5,31.923,7.195,33.228,5.591,33.228z"/>
	<path style="fill:#967A44;" d="M5.616,25.067C6.625,26.269,8,28.346,8,30.319c0,1.328-1.081,2.409-2.409,2.409   s-2.409-1.081-2.409-2.409C3.182,28.378,4.694,26.209,5.616,25.067 M5.591,23.569c0,0-3.409,3.524-3.409,6.75   c0,1.883,1.526,3.409,3.409,3.409S9,32.202,9,30.319C9,26.822,5.591,23.569,5.591,23.569L5.591,23.569z"/>
</g>
</svg>