<?xml version="1.0" encoding="UTF-8" standalone="no"?>
<!-- Created with Inkscape (http://www.inkscape.org/) -->

<svg
   width="20"
   height="20"
   viewBox="0 0 5.2916666 5.2916668"
   version="1.1"
   id="svg434"
   inkscape:version="1.2.1 (9c6d41e410, 2022-07-14)"
   sodipodi:docname="General-Mills2.svg"
   xmlns:inkscape="http://www.inkscape.org/namespaces/inkscape"
   xmlns:sodipodi="http://sodipodi.sourceforge.net/DTD/sodipodi-0.dtd"
   xmlns="http://www.w3.org/2000/svg"
   xmlns:svg="http://www.w3.org/2000/svg">
  <sodipodi:namedview
     id="namedview436"
     pagecolor="#ffffff"
     bordercolor="#666666"
     borderopacity="1.0"
     inkscape:showpageshadow="2"
     inkscape:pageopacity="0.0"
     inkscape:pagecheckerboard="0"
     inkscape:deskcolor="#d1d1d1"
     inkscape:document-units="mm"
     showgrid="false"
     inkscape:zoom="22.292705"
     inkscape:cx="17.898232"
     inkscape:cy="13.053598"
     inkscape:window-width="1920"
     inkscape:window-height="1011"
     inkscape:window-x="0"
     inkscape:window-y="0"
     inkscape:window-maximized="1"
     inkscape:current-layer="layer1" />
  <defs
     id="defs431" />
  <g
     inkscape:label="Layer 1"
     inkscape:groupmode="layer"
     id="layer1"
     transform="translate(-61.52147,-43.331878)">
    <path
       style="fill:#234291;fill-opacity:1;fill-rule:nonzero;stroke:none;stroke-width:0.0192274"
       d="m 63.902117,43.839239 h 0.14781 c 0.14691,0.01224 0.29397,0.05318 0.41692,0.13692 0.147586,0.09704 0.252585,0.25266 0.296523,0.423304 0.0549,0.212478 0.03185,0.440954 -0.04566,0.644719 -0.02524,0.07203 -0.05145,0.14383 -0.07706,0.215708 0.11927,-0.03124 0.235912,-0.08615 0.320933,-0.177628 0.09201,-0.09388 0.138798,-0.220815 0.168841,-0.34647 0.216684,-0.0011 0.433293,-2.23e-4 0.649902,-5.3e-4 -0.111985,0.297575 -0.194528,0.611898 -0.18882,0.932155 0.002,0.369602 0.136846,0.720427 0.173573,1.085823 0.02719,0.247178 0.01938,0.501416 -0.05152,0.741158 -0.06497,0.224044 -0.183636,0.432917 -0.345868,0.600481 -0.162607,0.170118 -0.365772,0.298626 -0.584333,0.383422 -0.2803,0.109356 -0.583733,0.150815 -0.88326,0.144656 -0.35721,-0.0074 -0.719451,-0.0887 -1.026339,-0.277069 -0.265053,-0.160579 -0.483765,-0.405128 -0.592595,-0.69767 -0.109582,-0.290439 -0.101996,-0.625567 0.02997,-0.907369 0.102296,-0.22044 0.286008,-0.398669 0.503669,-0.503894 0.268733,-0.129635 0.575846,-0.162307 0.870116,-0.131963 0.04108,-0.106802 0.08142,-0.213981 0.123326,-0.320482 -0.247704,-0.106052 -0.4731,-0.281802 -0.602735,-0.52222 -0.198433,-0.360965 -0.153519,-0.849612 0.131137,-1.152369 0.144581,-0.159377 0.352253,-0.254688 0.565482,-0.270686 m -0.162457,0.757005 c -0.04927,0.109281 -0.05475,0.240268 -0.0015,0.349097 0.05768,0.120322 0.149163,0.232157 0.272939,0.286985 0.02516,-0.05746 0.04597,-0.116867 0.0688,-0.175225 0.03478,-0.09313 0.07729,-0.185139 0.08893,-0.284881 0.01202,-0.08277 -6.7e-4,-0.174099 -0.05483,-0.240493 -0.05633,-0.06715 -0.154946,-0.09358 -0.237564,-0.06587 -0.06256,0.0199 -0.110032,0.07195 -0.13677,0.130386 m 0.677241,1.266231 c -0.04867,0.134667 -0.10147,0.267907 -0.148712,0.40325 0.149313,0.07023 0.303883,0.142779 0.421201,0.262575 -0.07368,0.187542 -0.14721,0.375084 -0.223744,0.5615 -0.115816,-0.114538 -0.250783,-0.211877 -0.4031,-0.271061 -0.08262,0.219087 -0.163509,0.438625 -0.244775,0.658239 -0.212177,5.3e-4 -0.424355,2.93e-4 -0.636533,1.53e-4 0.09479,-0.253712 0.189045,-0.507724 0.28338,-0.761736 -0.208347,-0.0063 -0.417521,0.09937 -0.530181,0.276244 -0.04792,0.0739 -0.07699,0.163207 -0.06489,0.251909 0.01157,0.187467 0.108455,0.363894 0.252886,0.482037 0.197306,0.163358 0.456125,0.230054 0.706908,0.24883 0.207296,0.0142 0.419699,0.0019 0.617756,-0.06512 0.178379,-0.05768 0.34339,-0.164034 0.459355,-0.312972 0.151792,-0.191898 0.211126,-0.445611 0.193777,-0.687005 -0.0169,-0.185064 -0.06144,-0.366147 -0.09509,-0.548582 -0.03913,-0.205418 -0.07165,-0.413615 -0.07165,-0.62339 -0.165837,0.06414 -0.339785,0.106427 -0.516587,0.125129"
       id="path39842" />
    <path
       style="fill:#e32123;fill-opacity:1;fill-rule:nonzero;stroke:none;stroke-width:0.0192274"
       d="m 65.455783,44.49943 c 0.327317,-0.248755 0.493378,-0.387553 0.599279,-0.57149 0.149013,-0.258669 0.05873,-0.478132 -0.130085,-0.563829 -0.177028,-0.08051 -0.387178,-0.005 -0.469194,0.168615 -0.08209,-0.173572 -0.292242,-0.24913 -0.46927,-0.168615 -0.188819,0.0857 -0.279098,0.30516 -0.13001,0.563829 0.105901,0.183937 0.271888,0.322735 0.59928,0.57149"
       id="path39846" />
  </g>
</svg>
