<svg id="svg" version="1.1" xmlns="http://www.w3.org/2000/svg" xmlns:xlink="http://www.w3.org/1999/xlink" width="400" height="326.39842983316976" viewBox="0, 0, 400,326.39842983316976"><g id="svgg"><path id="path0" d="M322.277 98.466 C 306.660 99.184,290.949 104.709,276.447 114.581 C 272.343 117.375,266.136 122.075,264.864 123.351 C 264.538 123.678,262.727 125.236,260.840 126.814 C 253.757 132.737,253.692 132.811,247.489 142.100 C 245.074 145.716,243.033 148.722,242.952 148.779 C 242.391 149.178,238.261 157.036,237.804 158.576 C 237.255 160.425,237.335 160.746,238.344 160.746 L 239.201 160.746 246.441 153.532 C 258.411 141.604,261.986 138.709,273.215 131.852 C 285.820 124.154,293.859 120.577,304.435 117.963 C 332.746 110.962,360.048 123.234,380.407 152.110 C 384.610 158.071,388.716 164.496,390.177 167.398 L 390.809 168.652 385.136 174.365 C 382.015 177.508,375.896 183.788,371.536 188.322 C 346.949 213.892,337.433 222.395,326.519 228.550 C 308.613 238.648,289.801 240.316,268.118 233.730 C 250.135 228.267,233.331 212.948,228.248 197.382 C 226.041 190.624,223.297 186.524,221.016 186.576 C 218.060 186.642,210.918 190.375,205.563 194.652 C 203.194 196.545,202.228 197.414,197.331 202.061 C 193.885 205.331,187.615 211.117,182.760 215.506 C 180.820 217.260,180.746 217.307,181.060 216.570 C 185.018 207.293,189.091 195.182,192.312 183.121 C 194.283 175.739,194.909 172.906,196.479 164.279 C 197.802 157.009,200.975 141.253,201.153 141.069 C 201.232 140.988,202.389 142.666,203.724 144.798 C 210.666 155.887,220.044 164.420,227.389 166.334 C 233.218 167.852,232.649 165.160,225.340 156.648 C 220.576 151.100,216.393 145.629,214.367 142.296 C 212.544 139.298,211.237 134.402,208.236 119.333 C 205.030 103.231,203.276 99.509,198.897 99.509 C 195.127 99.509,193.370 101.310,192.164 106.408 C 189.833 116.259,188.105 129.697,186.755 148.479 C 185.346 168.065,184.555 176.553,183.431 184.102 C 183.070 186.531,182.670 189.313,182.544 190.285 C 182.312 192.060,181.708 195.084,180.605 200.000 C 180.278 201.457,179.859 203.400,179.674 204.318 C 179.215 206.595,178.066 210.926,177.724 211.663 C 177.570 211.995,177.096 213.253,176.670 214.457 C 174.242 221.318,169.880 229.876,167.642 232.170 C 167.228 232.593,162.243 238.823,161.187 240.236 C 158.891 243.307,157.985 247.726,158.970 251.053 C 159.703 253.533,162.080 253.403,165.456 250.696 C 168.827 247.995,181.583 234.057,186.749 227.432 C 191.554 221.270,193.737 218.567,194.796 217.468 C 195.472 216.766,197.382 214.691,199.039 212.856 C 204.865 206.404,212.620 198.885,217.746 194.718 L 219.496 193.295 220.317 195.617 C 227.356 215.539,245.472 238.756,261.287 248.123 C 287.609 263.714,317.801 261.414,341.315 242.025 C 357.234 228.900,366.425 217.644,389.737 182.728 C 393.304 177.385,397.073 171.848,398.112 170.425 L 400.000 167.838 400.000 166.333 C 400.000 164.600,399.904 164.377,394.235 152.869 C 388.976 142.193,386.259 137.997,378.812 129.048 C 365.993 113.644,356.058 106.171,342.198 101.510 C 336.526 99.602,327.564 98.062,323.945 98.374 C 323.729 98.392,322.978 98.434,322.277 98.466 M340.568 147.183 C 338.813 147.789,337.467 149.454,336.859 151.772 C 336.058 154.826,337.750 156.162,344.131 157.513 C 350.444 158.850,351.483 157.606,348.417 152.379 C 345.068 146.669,344.036 145.985,340.568 147.183 " stroke="none" fill="#5c84c3" fill-rule="evenodd"/><path id="path1" d="M22.375 90.104 C 14.946 90.841,10.026 92.440,7.387 94.976 C -0.085 102.159,-1.796 114.241,1.978 133.170 C 5.373 150.200,15.216 167.150,33.263 187.044 C 56.256 212.391,74.925 231.033,96.369 250.060 C 126.073 276.416,143.610 288.805,179.686 308.922 C 208.446 324.959,232.715 330.240,246.392 323.437 C 253.445 319.929,257.019 310.923,255.655 300.098 C 251.912 270.398,233.542 239.457,210.795 224.538 C 206.830 221.937,196.937 217.664,194.881 217.664 C 194.642 217.664,188.027 225.682,188.027 225.972 C 188.027 226.022,188.359 225.986,188.763 225.892 C 191.386 225.283,197.029 225.809,199.323 226.877 C 209.586 231.654,223.521 244.056,230.501 254.625 C 238.956 267.430,245.387 286.586,244.548 296.467 C 244.205 300.505,242.390 305.463,240.133 308.525 C 233.776 317.149,225.014 317.081,208.342 308.281 C 186.955 296.992,162.060 280.473,127.674 254.757 C 83.221 221.512,48.843 188.436,28.220 159.072 C 13.016 137.424,9.214 122.954,16.061 112.807 C 24.468 100.349,39.855 101.364,76.251 116.779 C 94.929 124.689,95.722 124.906,96.915 122.426 C 99.230 117.612,61.180 96.242,41.444 91.272 C 36.700 90.078,28.013 89.546,22.375 90.104 M80.569 128.086 C 57.308 131.456,42.240 141.991,42.137 154.956 C 42.091 160.790,44.171 163.501,50.245 165.524 C 55.652 167.325,56.504 167.247,64.039 164.257 C 81.820 157.202,95.154 154.402,111.089 154.379 C 123.716 154.360,129.651 155.566,138.549 159.961 C 150.019 165.627,154.085 168.886,155.049 173.188 C 155.801 176.544,151.982 178.012,146.811 176.355 C 127.663 170.222,108.232 171.270,96.663 179.060 C 86.983 185.577,88.927 198.823,99.902 201.122 C 105.003 202.191,116.609 201.337,124.730 199.295 C 126.241 198.915,130.393 197.865,133.955 196.961 C 148.197 193.347,154.257 192.306,161.138 192.293 C 168.026 192.281,175.206 193.915,179.656 196.509 C 181.317 197.477,181.180 197.663,181.924 193.425 C 182.265 191.482,182.589 189.663,182.645 189.384 C 182.765 188.779,181.325 188.039,177.387 186.681 C 165.550 182.600,153.879 183.801,131.011 191.457 C 118.090 195.782,113.171 196.651,109.012 195.343 C 102.046 193.152,104.075 183.610,112.365 179.577 C 118.150 176.763,120.430 176.831,138.763 180.371 C 149.311 182.408,150.363 182.568,153.876 182.676 C 162.288 182.933,165.595 180.638,165.535 174.583 C 165.479 168.919,160.875 163.205,150.492 155.912 C 142.393 150.224,136.142 147.558,128.263 146.432 C 122.907 145.666,121.050 145.545,114.524 145.540 C 100.782 145.529,90.486 147.502,71.933 153.703 C 60.341 157.577,57.535 157.848,55.821 155.257 C 53.193 151.286,57.644 144.940,65.812 141.014 C 76.597 135.830,88.085 134.094,99.411 135.939 C 105.219 136.885,105.397 136.850,105.397 134.738 C 105.397 132.360,104.634 131.795,99.313 130.240 C 93.378 128.504,84.626 127.499,80.569 128.086 M169.638 205.493 C 157.398 207.234,148.331 218.856,152.615 227.311 C 154.440 230.911,157.919 232.382,164.612 232.384 L 167.399 232.385 167.882 231.747 C 169.392 229.754,174.402 221.001,174.034 221.001 C 173.983 221.001,172.850 221.523,171.515 222.162 C 168.792 223.465,166.646 224.222,164.731 224.555 C 160.648 225.266,157.663 222.181,158.662 218.283 C 160.528 211.000,168.713 208.174,177.264 211.860 C 177.528 211.975,177.652 211.788,177.926 210.858 C 178.658 208.376,179.377 205.612,179.309 205.544 C 179.144 205.379,170.751 205.334,169.638 205.493 " stroke="none" fill="#eb941c" fill-rule="evenodd"/><path id="path2" d="M132.721 0.359 C 126.872 2.448,120.507 13.871,120.181 22.866 C 119.630 38.039,131.382 47.894,148.176 46.340 C 156.389 45.580,159.410 41.690,157.608 34.196 C 156.413 29.232,154.676 28.067,148.466 28.067 C 142.329 28.067,138.976 27.383,136.522 25.632 C 132.258 22.589,130.561 17.084,132.640 13.033 L 132.999 12.331 133.564 13.084 C 137.622 18.499,144.158 22.550,152.502 24.823 C 155.461 25.629,165.670 28.666,167.002 29.137 C 167.474 29.304,167.894 29.441,167.934 29.441 C 168.618 29.441,167.841 28.061,166.737 27.317 C 162.852 24.698,148.444 10.823,143.570 5.005 C 140.812 1.713,140.360 1.284,138.961 0.629 C 137.482 -0.064,134.291 -0.202,132.721 0.359 " stroke="none" fill="#048c5c" fill-rule="evenodd"/><path id="path3" d="M179.286 15.353 C 175.803 17.925,173.381 22.457,171.235 30.422 C 169.349 37.422,169.013 38.810,168.716 40.825 C 168.318 43.521,167.068 55.985,166.903 58.904 C 166.287 69.754,172.398 80.936,179.097 81.217 C 184.375 81.439,186.814 80.137,192.182 74.236 C 202.211 63.213,208.262 58.300,214.877 55.810 C 231.806 49.438,248.109 63.285,251.031 86.517 C 253.797 108.504,251.472 129.608,244.565 145.234 C 244.021 146.464,243.606 147.499,243.642 147.535 C 243.678 147.571,245.519 144.884,247.733 141.563 C 253.567 132.810,253.832 132.515,262.106 125.580 L 265.228 122.964 265.699 121.590 C 270.045 108.894,270.913 90.006,267.718 77.625 C 263.845 62.614,260.521 56.174,252.516 48.171 C 243.736 39.394,234.421 36.004,221.487 36.882 C 208.735 37.747,197.348 43.743,185.575 55.793 L 180.545 60.942 180.055 60.353 C 178.081 57.979,177.643 54.739,178.317 47.485 C 179.057 39.526,180.365 34.653,184.679 23.779 C 186.012 20.419,186.850 18.038,186.850 17.608 C 186.850 16.017,184.843 14.723,182.141 14.572 L 180.471 14.479 179.286 15.353 M132.679 56.143 C 121.255 57.519,113.078 63.911,106.989 76.224 C 100.567 89.210,101.825 110.872,109.681 122.580 C 116.386 132.575,125.143 140.860,129.588 141.415 C 132.282 141.752,132.759 141.185,132.628 137.802 C 132.507 134.688,132.240 133.904,129.899 129.804 C 117.364 107.840,116.370 85.941,127.412 75.024 C 131.842 70.643,136.168 69.183,144.652 69.204 C 153.376 69.226,158.337 70.693,163.097 74.658 C 165.457 76.623,165.948 76.859,167.227 76.643 C 168.161 76.485,168.146 76.602,167.398 75.328 C 159.531 61.934,146.121 54.523,132.679 56.143 " stroke="none" fill="#eb3c44" fill-rule="evenodd"/><path id="path4" d="M257.004 129.980 L 256.428 130.618 257.066 130.042 C 257.660 129.504,257.794 129.342,257.642 129.342 C 257.608 129.342,257.321 129.630,257.004 129.980 M254.558 132.237 L 253.288 133.562 254.612 132.292 C 255.843 131.113,256.027 130.913,255.882 130.913 C 255.852 130.913,255.256 131.509,254.558 132.237 " stroke="none" fill="#958397" fill-rule="evenodd"/></g></svg>