<?xml version="1.0" encoding="UTF-8" standalone="no"?>
<svg
   width="2500"
   height="1500"
   viewBox="0 0 192.756 115.6536"
   version="1.1"
   id="svg8"
   sodipodi:docname="Abingdon-PTA-logo.svg"
   inkscape:version="1.2.2 (b0a8486541, 2022-12-01)"
   inkscape:export-filename="/home/dan/Downloads/Abingdon PTA Logo2.png"
   inkscape:export-xdpi="61.439999"
   inkscape:export-ydpi="61.439999"
   xmlns:inkscape="http://www.inkscape.org/namespaces/inkscape"
   xmlns:sodipodi="http://sodipodi.sourceforge.net/DTD/sodipodi-0.dtd"
   xmlns="http://www.w3.org/2000/svg"
   xmlns:svg="http://www.w3.org/2000/svg">
  <defs
     id="defs12" />
  <sodipodi:namedview
     id="namedview10"
     pagecolor="#ffffff"
     bordercolor="#666666"
     borderopacity="1.0"
     inkscape:pageshadow="2"
     inkscape:pageopacity="1"
     inkscape:pagecheckerboard="false"
     showgrid="false"
     inkscape:zoom="0.32"
     inkscape:cx="1217.1875"
     inkscape:cy="806.25"
     inkscape:window-width="1920"
     inkscape:window-height="1011"
     inkscape:window-x="0"
     inkscape:window-y="0"
     inkscape:window-maximized="1"
     inkscape:current-layer="g6"
     fit-margin-top="625"
     fit-margin-bottom="625"
     inkscape:showpageshadow="2"
     inkscape:deskcolor="#d1d1d1" />
  <g
     fill-rule="evenodd"
     clip-rule="evenodd"
     id="g6">
    <path
       style="stroke-width:0.956257"
       d="M 67.648215,29.097958 H 43.52279 l -2.57807,22.283673 h -6.446134 l -0.736318,7.367966 h 6.445177 L 38.733852,72.560826 H 51.80972 l 3.683504,-34.438665 h 4.787982 c 2.947187,0 5.157099,0.36816 4.972541,4.787982 0,8.103329 -2.578071,8.471488 -6.077018,8.471488 h -3.130788 l -0.736317,7.550611 h 7.918769 C 71.515323,58.749597 77.408738,56.355126 78.329614,42.173825 79.066889,31.123312 70.779003,29.097958 67.648215,29.097958 Z"
       id="path527" />
    <path
       style="stroke-width:0.956257"
       d="m 153.83669,51.19803 h -6.07798 l 2.02727,-22.28463 -27.44077,0.184558 -17.31114,43.647426 h 13.44308 l 12.34051,-34.439621 h 5.5243 l -1.4736,13.075868 h -7.18341 l -0.92087,7.367966 h 7.36797 l -1.4736,13.811229 h 13.07587 l 1.28903,-13.811229 h 6.07702 z"
       id="path525" />
    <path
       style="stroke-width:0.956257"
       d="m 80.355924,29.097958 -0.920876,9.207805 H 92.694517 C 87.906535,51.197073 79.435048,72.745384 79.435048,72.745384 H 92.879075 L 106.69031,38.305763 h 9.57788 l 3.6835,-9.207805 z"
       id="path523" />
    <path
       style="stroke-width:0.956257"
       d="m 153.65308,33.51778 h 0.55081 l 0.92088,1.473594 h 0.55271 l -0.92087,-1.473594 c 0.36816,0 0.92087,-0.368158 0.92087,-0.920876 0,-0.736317 -0.55271,-0.920875 -1.28903,-0.920875 h -1.28904 v 3.315345 h 0.55271 V 33.51778 Z m 0,-0.368158 v -1.105435 h 0.73632 c 0.36816,0 0.73632,0 0.73632,0.552717 0,0.36816 -0.36816,0.552718 -0.92087,0.552718 z"
       id="path521" />
    <path
       style="stroke-width:0.956257"
       d="m 151.81229,33.334179 c 0,-1.473592 1.10352,-2.393512 2.39256,-2.393512 1.29094,0 2.39446,0.920876 2.39446,2.393512 0,1.289035 -1.10352,2.393513 -2.39446,2.393513 -1.28904,0 -2.39256,-1.104478 -2.39256,-2.393513 z m 2.39256,2.94623 c 1.65815,0 2.94718,-1.289035 2.94718,-2.947187 0,-1.65815 -1.28903,-2.947185 -2.94718,-2.947185 -1.65624,0 -2.94528,1.289035 -2.94528,2.947185 0,1.658152 1.28808,2.947187 2.94528,2.947187 z"
       id="path519" />
    <path
       style="stroke-width:0.956257"
       d="m 183.11825,97.053455 c 0,0.920878 -0.5508,1.658145 -1.47168,1.658145 -0.55271,0 -0.92087,-0.552714 -0.92087,-1.290949 0,-0.920875 0.5508,-1.656231 1.28903,-1.656231 0.55272,9.55e-4 1.10352,0.553669 1.10352,1.289035 z"
       id="path517" />
    <path
       style="stroke-width:0.956257"
       d="m 173.54229,92.634584 c 0.18456,-1.841749 0.92088,-2.762625 2.02631,-2.762625 1.10352,0 1.84175,0.920876 2.02439,2.762625 z m 6.07797,3.130791 c -0.92087,1.105428 -1.84175,1.656232 -2.76262,1.656232 -2.02631,0 -3.31535,-1.656232 -3.31535,-4.050705 h 6.63069 v -0.736318 c -0.92088,-0.36816 -0.36816,-1.289031 -1.47359,-2.394466 -0.55272,-0.552717 -1.47359,-0.920876 -2.76263,-0.920876 -2.57903,0 -4.42078,2.026311 -4.42078,4.97158 0,2.026312 0.92087,4.420778 4.05262,4.420778 1.84175,0 3.31535,-0.920874 4.41887,-2.579029 z"
       id="path515" />
    <path
       style="stroke-width:0.956257"
       d="m 169.85974,96.318089 c -1.10543,1.473592 -2.57902,2.394476 -4.23622,2.394476 -2.39446,0 -4.0507,-1.841762 -4.0507,-4.420787 0,-2.945269 2.20991,-4.971579 5.5243,-4.971579 1.65624,0 2.76262,0.552716 2.76262,1.473593 0,0.552717 -0.36815,0.920876 -0.92087,0.920876 -1.10543,0 -1.65815,-1.658151 -2.76263,-1.658151 -1.47359,0 -2.39447,1.658151 -2.39447,3.6835 0,2.210867 1.10544,3.868066 2.76263,3.868066 0.92088,0 1.84175,-0.552718 2.94719,-1.656244 z"
       id="path513" />
    <path
       style="stroke-width:0.956257"
       d="m 157.70475,84.163101 c 0.73632,0 1.28903,0.552717 1.28903,1.105434 0,0.736318 -0.55271,1.289035 -1.28903,1.289035 -0.71913,0.01769 -1.30674,-0.569911 -1.28904,-1.289035 0,-0.552717 0.55081,-1.105434 1.28904,-1.105434 z"
       id="path511" />
    <path
       style="stroke-width:0.956257"
       d="m 155.12477,90.055561 3.31533,-0.920876 h 0.55273 v 6.815243 c 0,1.471679 0.18455,1.841753 1.4736,1.841753 v 0.552723 h -5.34166 v -0.552723 c 1.29094,0 1.65815,-0.370074 1.65815,-1.473592 v -4.97158 c 0,-0.370072 0,-0.552717 -1.65815,-0.920877 z"
       id="path509" />
    <path
       style="stroke-width:0.956257"
       d="m 146.28512,93.187301 c 0,-1.841748 0.92087,-3.13174 2.39447,-3.13174 1.65815,0 3.13174,2.026306 3.13174,4.603422 0,2.026311 -0.92087,3.31535 -2.39447,3.31535 -1.84079,0 -3.13174,-2.024405 -3.13174,-4.787032 z m -2.39255,0.736319 c 0,2.947183 2.02439,4.788945 5.15709,4.788945 2.94527,0 4.97158,-2.026315 4.97158,-4.788945 0,-1.841753 -1.28903,-4.603421 -4.97158,-4.603421 -3.13174,-9.57e-4 -5.15709,1.840796 -5.15709,4.603421 z"
       id="path507" />
    <path
       style="stroke-width:0.956257"
       d="m 134.50021,91.346509 c -0.36816,-0.920877 -0.73728,-1.105435 -1.65815,-1.290948 v -0.550805 h 5.15709 v 0.550805 c -1.10352,0.184557 -1.47359,0.184557 -1.47359,0.737274 0,0.182646 0.18456,0.36816 0.37007,0.920877 l 2.0244,4.603422 1.84175,-4.236223 c 0.18456,-0.552714 0.18456,-0.736314 0.18456,-1.10543 0,-0.550805 -0.36816,-0.73632 -1.4736,-0.920877 v -0.550805 h 4.05071 v 0.550805 c -0.92088,0.184557 -1.28903,0.370072 -2.0244,2.026307 l -2.76262,6.630689 h -1.10544 z"
       id="path505" />
    <path
       style="stroke-width:0.956257"
       d="m 129.15855,90.792835 c 0,0.736319 -0.36816,1.289032 -0.73632,1.841749 -0.36816,0.368159 -1.47359,0.920875 -2.9472,1.289036 0.55273,-2.577111 1.47361,-4.050705 2.76265,-4.050705 0.55271,0 0.92087,0.367203 0.92087,0.91992 z m 0.18551,5.893415 c -0.92087,0.736312 -1.84175,1.105431 -2.39446,1.105431 -1.65625,0 -2.02632,-1.473592 -1.65625,-3.315341 2.57712,-0.920881 5.15519,-2.026314 5.15519,-3.683505 0,-0.920876 -0.73632,-1.289036 -1.84175,-1.289036 -2.76264,0 -4.78703,3.31343 -4.78703,6.076058 0,1.84175 0.92087,3.131743 2.20991,3.131743 0.92088,0 2.20992,-0.737267 3.498,-1.658145 z"
       id="path503" />
    <path
       style="stroke-width:0.956257"
       d="m 115.90003,94.10818 h 0.18264 c 1.84176,-2.579026 3.86806,-4.603424 4.9735,-4.603424 0.5508,0 0.73632,0.550805 0.73632,1.289036 0,0.368159 0,0.736318 -0.18456,1.103521 l -1.28904,5.157097 c 0,0.368152 -0.18264,0.737271 0.18457,0.737271 0.18264,0 1.10351,-1.105431 1.84175,-1.841753 l 0.18455,0.182643 c -0.73727,0.920884 -2.21087,2.579029 -2.94718,2.579029 -0.55272,0 -0.92088,-0.737267 -0.55272,-1.658145 l 1.4736,-5.707902 c 0,-0.737275 -0.18457,-0.920877 -0.36816,-0.920877 -0.18457,0 -0.55272,0.182646 -1.29095,0.920877 -0.5508,0.550804 -1.84176,2.024393 -3.12984,3.497983 l -0.55271,3.499913 c 0,0.182642 -0.18264,0.368151 -0.36816,0.368151 h -0.73631 c -0.18457,0 -0.37007,-0.184553 -0.37007,-0.552714 l 1.47358,-6.630689 c 0,-0.368158 0,-0.552716 -0.18264,-0.552716 0,0 -0.55272,0.552716 -1.10544,1.290943 l -0.18455,-0.184557 c 0.73727,-1.10543 2.21087,-2.577111 2.76262,-2.577111 0.18457,0 0.37008,0.182645 0.37008,0.736318 z"
       id="path501" />
    <path
       style="stroke-width:0.956257"
       d="m 110.00566,89.504756 c 0.55271,0 2.02631,0.736318 2.02631,3.129828 0,4.236219 -4.23622,6.077016 -5.15709,6.077016 -1.10544,0 -2.02631,-1.658145 -2.02631,-3.499903 0,-3.497985 3.86806,-5.706941 5.15709,-5.706941 z m -1.10352,0.735362 c -1.47359,0 -2.57903,2.577111 -2.57903,4.788936 0,1.841749 0.73728,2.762627 1.4736,2.762627 1.84174,0 2.76262,-2.762627 2.76262,-4.788938 -9.6e-4,-1.656234 -0.73631,-2.762625 -1.65719,-2.762625 z"
       id="path499" />
    <path
       style="stroke-width:0.956257"
       d="m 100.98242,97.053455 c 0,0.920878 -0.73728,1.658145 -1.473605,1.658145 -0.552723,0 -0.920884,-0.552714 -0.920884,-1.290949 0,-0.920875 0.552724,-1.656231 1.289045,-1.656231 0.552724,9.55e-4 1.105444,0.553669 1.105444,1.289035 z"
       id="path497" />
    <path
       style="stroke-width:0.956257"
       d="m 93.984508,96.500731 c -1.105433,0.737278 -1.657193,0.920876 -2.394468,0.920876 -1.473594,0 -2.578071,-1.471679 -2.578071,-3.866148 0,-2.026305 0.920876,-3.315341 2.39447,-3.315341 0.920876,0 1.657194,0.36816 2.578069,1.656239 z m 0,2.211834 h 0.552718 l 2.946232,-1.473601 V 96.68625 c -0.36816,0.184553 -0.73632,0.184553 -0.920878,0.184553 -0.368159,0 -0.552717,-0.184553 -0.552717,-0.737277 V 83.610383 h -0.552717 l -2.947186,0.920878 v 0.552716 c 1.105433,0 1.473592,0.552717 1.473592,1.289035 v 3.131744 c -0.552717,0 -1.289035,-0.184557 -2.026309,-0.184557 -2.947186,0 -5.156142,2.209911 -5.156142,4.971579 0,2.394472 1.473594,4.420787 3.498947,4.420787 1.289036,0 2.209912,-0.552724 3.683504,-1.473601 v 1.473601 z"
       id="path495" />
    <path
       style="stroke-width:0.956257"
       d="m 80.724083,84.531261 3.129831,-0.920878 h 0.737276 v 12.523143 c 0,1.289036 0.36816,1.658155 1.657194,1.658155 v 0.552723 h -5.524301 v -0.552723 c 1.473594,0 1.841753,-0.370074 1.841753,-1.658155 V 86.55757 c 0,-1.105434 -0.184558,-1.289035 -1.841753,-1.473593 z"
       id="path493" />
    <path
       style="stroke-width:0.956257"
       d="m 77.040578,84.163101 c 0.737275,0 1.289036,0.552717 1.289036,1.105434 0,0.736318 -0.552717,1.289035 -1.473593,1.289035 -0.719122,0.01769 -1.306745,-0.569911 -1.289035,-1.289035 9.57e-4,-0.552717 0.552717,-1.105434 1.473592,-1.105434 z"
       id="path491" />
    <path
       style="stroke-width:0.956257"
       d="m 74.462507,90.055561 3.129833,-0.920876 h 0.552717 v 6.815243 c 0,1.471679 0.368159,1.841753 1.657194,1.841753 v 0.552723 h -5.339744 v -0.552723 c 1.104479,0 1.657196,-0.370074 1.657196,-1.473592 v -4.97158 c 0,-0.370072 0,-0.552717 -1.657196,-0.920877 z"
       id="path489" />
    <path
       style="stroke-width:0.956257"
       d="m 68.200933,97.791681 c 1.473593,0 1.657194,-0.370074 1.657194,-4.236222 0,-2.209906 -0.552716,-3.129827 -1.473593,-3.129827 -0.736319,0 -1.473593,0.36816 -2.762628,0.920877 v 4.97158 c 0,1.103518 0.552716,1.473592 1.473593,1.473592 v 0.552723 h -4.97254 v -0.552723 c 1.104478,0 1.473592,-0.370074 1.473592,-1.658155 v -9.943159 c 0,-0.552717 0,-0.920876 -1.473592,-1.105434 v -0.552716 l 2.94623,-0.920877 h 0.552717 v 7.183408 c 1.657194,-0.920876 2.947186,-1.473593 4.051663,-1.473593 1.473593,0 2.39447,0.920875 2.39447,3.6835 0,1.289033 -0.183601,2.577113 -0.183601,3.497987 0,0.920885 0.55176,1.290959 1.657194,1.290959 v 0.552714 h -5.340699 z"
       id="path487" />
    <path
       style="stroke-width:0.956257"
       d="m 60.650322,96.318089 c -1.289991,1.473592 -2.762628,2.394476 -4.236222,2.394476 -2.393513,0 -4.051663,-1.841762 -4.051663,-4.420787 0,-2.945269 2.209912,-4.971579 5.340698,-4.971579 1.841753,0 2.947187,0.552716 2.947187,1.473593 0,0.552717 -0.36816,0.920876 -0.920876,0.920876 -1.289991,0 -1.657195,-1.658151 -2.947187,-1.658151 -1.289991,0 -2.20991,1.658151 -2.20991,3.6835 0,2.210867 0.920875,3.868066 2.57807,3.868066 1.104478,0 2.025354,-0.552718 2.946229,-1.656244 z"
       id="path485" />
    <path
       style="stroke-width:0.956257"
       d="m 41.681995,91.713712 c 1.104477,-1.473594 2.025353,-2.209913 2.57807,-2.209913 0.552718,0 1.657194,3.683502 1.657194,8.102373 1.289992,-2.026315 2.947187,-5.524305 2.947187,-6.445177 0,-0.552717 -0.368159,-0.36816 -0.368159,-0.920877 0,-0.368159 0.368159,-0.736319 0.920876,-0.736319 0.552716,0 0.920876,0.36816 0.920876,0.920877 0,2.209908 -3.130788,5.339744 -4.236222,7.918773 L 45.180941,100.736 c -0.368158,0.73728 -0.736318,1.65815 -0.736318,1.84175 0,0.37007 0.36816,0.37007 1.289036,0.37007 v 0.36816 h -4.604382 l 0.184558,-0.36816 c 0.737275,0 1.104478,0 1.289035,-0.18455 0.36816,-0.36816 2.209913,-3.68351 2.209913,-5.892467 0,-2.210865 -0.920878,-6.445171 -1.289036,-6.445171 -0.36816,0 -0.737275,0.36816 -1.473593,1.471681 z"
       id="path483" />
    <path
       style="stroke-width:0.956257"
       d="m 34.867703,91.713712 c 1.289035,-1.289036 2.025353,-2.209913 2.57807,-2.209913 0.368158,0 0.552717,0.182646 0.552717,0.550805 0,0.920877 -0.736319,3.683501 -1.289036,5.524298 0,0.184553 0,0.370071 0.183602,0 l 1.104478,-2.945274 c 0.552716,-1.289031 1.473593,-3.129829 2.394469,-3.129829 0.368159,0 0.552717,0.182646 0.552717,0.550805 0,0.552718 -0.183602,1.105435 -0.737275,1.105435 h -0.36816 c -0.552716,0 -1.105433,1.105429 -1.657193,2.026305 -0.368161,1.103523 -1.105434,2.945271 -1.289036,3.497995 l -0.36816,1.658155 c 0,0.182642 -0.1836,0.36815 -0.368158,0.36815 h -0.737275 c -0.183602,0 -0.183602,-0.184553 -0.183602,-0.36815 l 1.289035,-6.630695 c 0,-0.368159 0,-0.737275 -0.1836,-0.737275 -0.36816,0 -0.552718,0.370073 -1.105435,1.105431 z"
       id="path481" />
    <path
       style="stroke-width:0.956257"
       d="m 32.105074,90.792835 c 0,0.736319 -0.184558,1.289032 -0.736318,1.841749 -0.369117,0.368159 -1.289992,0.920875 -2.947187,1.289036 0.737275,-2.577111 1.657195,-4.050705 2.947187,-4.050705 0.55176,0 0.736318,0.367203 0.736318,0.91992 z m 0.368159,5.893415 c -1.104477,0.736312 -2.026311,1.105431 -2.578071,1.105431 -1.473593,0 -2.026311,-1.473592 -1.473593,-3.315341 2.57807,-0.920881 4.97254,-2.026314 4.97254,-3.683505 0,-0.920876 -0.552717,-1.289036 -1.841752,-1.289036 -2.578071,0 -4.787983,3.31343 -4.787983,6.076058 0,1.84175 0.920876,3.131743 2.209912,3.131743 0.920876,0 2.39447,-0.737267 3.683505,-1.658145 z"
       id="path479" />
    <path
       style="stroke-width:0.956257"
       d="m 17.372011,91.897313 c 0.920877,-1.289035 2.209911,-2.392557 2.762629,-2.392557 0.368159,0 0.552717,0.182645 0.552717,0.550805 0,0.370071 -0.184558,0.920876 -0.184558,1.473593 l -0.920877,4.971577 c 0,0.552724 0,1.105441 0.184558,1.105441 0.552717,0 4.419824,-3.31535 4.419824,-6.260619 0,-0.370072 -0.552718,-0.370072 -0.552718,-0.920877 0,-0.370072 0.552718,-0.920877 1.104479,-0.920877 0.55176,0 0.920875,0.550805 0.920875,1.289036 0,2.577111 -5.340699,7.918765 -6.814292,7.918765 -0.368159,0 -0.55176,-0.368151 -0.55176,-1.105428 0,-0.552717 0.183601,-1.473601 0.183601,-2.026315 l 0.737275,-4.050703 c 0,-0.368159 -0.183602,-0.552717 -0.183602,-0.552717 -0.369115,0 -0.737274,0.370072 -1.289992,1.10543 z"
       id="path477" />
    <path
       style="stroke-width:0.956257"
       d="m 14.977542,90.792835 c 0,0.736319 -0.368159,1.289032 -0.920876,1.841749 -0.36816,0.368159 -1.289035,0.920875 -2.762628,1.289036 0.552718,-2.577111 1.473593,-4.050705 2.762628,-4.050705 0.552717,0 0.920876,0.367203 0.920876,0.91992 z M 15.1621,96.68625 c -1.104479,0.736312 -1.841752,1.105431 -2.57807,1.105431 -1.473593,0 -1.841753,-1.473592 -1.473593,-3.315341 2.578069,-0.920881 4.972539,-2.026314 4.972539,-3.683505 0,-0.920876 -0.552717,-1.289036 -1.657195,-1.289036 -2.762627,0 -4.787981,3.31343 -4.787981,6.076058 0,1.84175 0.920876,3.131743 2.025354,3.131743 0.920876,0 2.394467,-0.737267 3.683504,-1.658145 z"
       id="path4" />
    <path
       d="M 17.155073,54.551016 H 13.425234 L 12.91202,56.300282 H 9.5652847 l 3.9828313,-10.59679 h 3.570815 l 3.982831,10.59679 h -3.426247 z m -0.686696,-2.291393 -1.170995,-3.809351 -1.163768,3.809351 z"
       style="font-size:14.8037px;line-height:1.25;stroke-width:0.0771024;font-weight:bold;font-family:Arial;-inkscape-font-specification:'Arial Bold'"
       id="path32469"
       transform="matrix(0.99916653,0,0,0.99916653,0.08048785,-36.027598)" />
    <path
       d="m 21.969167,45.703492 h 2.970859 v 3.672012 q 0.440931,-0.462616 0.997515,-0.693924 0.563813,-0.231308 1.24328,-0.231308 1.402304,0 2.320306,1.011972 0.918003,1.004743 0.918003,2.891348 0,1.257736 -0.419245,2.219109 -0.419245,0.954145 -1.163768,1.431217 -0.737293,0.469844 -1.640839,0.469844 -0.773436,0 -1.416761,-0.332505 -0.484301,-0.260221 -1.055342,-0.975829 v 1.134854 h -2.754008 z m 2.949174,6.73684 q 0,0.990287 0.368647,1.438446 0.375875,0.44093 0.946917,0.44093 0.52767,0 0.881861,-0.433702 0.361418,-0.44093 0.361418,-1.474587 0,-0.910775 -0.35419,-1.337249 -0.346962,-0.426473 -0.845719,-0.426473 -0.599955,0 -0.983059,0.448159 -0.375875,0.44093 -0.375875,1.344476 z"
       style="font-size:14.8037px;line-height:1.25;stroke-width:0.0771024;font-weight:bold;font-family:Arial;-inkscape-font-specification:'Arial Bold'"
       id="path32471"
       transform="matrix(0.99916653,0,0,0.99916653,0.08048785,-36.027598)" />
    <path
       d="m 31.937087,45.703492 h 2.941947 v 2.002258 h -2.941947 z m 0,2.920261 h 2.941947 v 7.676529 h -2.941947 z"
       style="font-size:14.8037px;line-height:1.25;stroke-width:0.0771024;font-weight:bold;font-family:Arial;-inkscape-font-specification:'Arial Bold'"
       id="path32473"
       transform="matrix(0.99916653,0,0,0.99916653,0.08048785,-36.027598)" />
    <path
       d="m 36.75841,48.623753 h 2.739552 v 1.250508 q 0.614412,-0.766207 1.24328,-1.091484 0.628868,-0.332505 1.532414,-0.332505 1.221595,0 1.90829,0.730066 0.693923,0.722837 0.693923,2.240794 v 4.87915 h -2.956403 v -4.221368 q 0,-0.722837 -0.26745,-1.0192 -0.267449,-0.303592 -0.75175,-0.303592 -0.534899,0 -0.867404,0.404789 -0.332505,0.404789 -0.332505,1.452902 v 3.686469 H 36.75841 Z"
       style="font-size:14.8037px;line-height:1.25;stroke-width:0.0771024;font-weight:bold;font-family:Arial;-inkscape-font-specification:'Arial Bold'"
       id="path32475"
       transform="matrix(0.99916653,0,0,0.99916653,0.08048785,-36.027598)" />
    <path
       d="m 51.97413,48.623753 h 2.754009 v 7.250055 l 0.0072,0.339733 q 0,0.722837 -0.31082,1.37339 -0.303591,0.657782 -0.816805,1.062571 -0.505986,0.404788 -1.293879,0.585497 -0.780664,0.18071 -1.792635,0.18071 -2.313078,0 -3.180483,-0.693924 -0.860176,-0.693923 -0.860176,-1.857691 0,-0.144567 0.01446,-0.390332 l 2.855206,0.325277 q 0.108425,0.39756 0.332505,0.549356 0.325277,0.22408 0.816806,0.22408 0.636096,0 0.946916,-0.339734 0.318048,-0.339733 0.318048,-1.185452 v -1.163768 q -0.433702,0.513214 -0.867404,0.744522 -0.679467,0.361419 -1.467359,0.361419 -1.539643,0 -2.486559,-1.344477 -0.672238,-0.954145 -0.672238,-2.522701 0,-1.792636 0.867404,-2.732324 0.867404,-0.939688 2.269708,-0.939688 0.896318,0 1.474587,0.303592 0.585498,0.303591 1.091484,1.004743 z m -2.768465,3.72261 q 0,0.831263 0.35419,1.236052 0.35419,0.39756 0.932459,0.39756 0.549356,0 0.918003,-0.412017 0.375875,-0.419246 0.375875,-1.257736 0,-0.838491 -0.390332,-1.279422 -0.390331,-0.448159 -0.954144,-0.448159 -0.563813,0 -0.903546,0.412017 -0.332505,0.404789 -0.332505,1.351705 z"
       style="font-size:14.8037px;line-height:1.25;stroke-width:0.0771024;font-weight:bold;font-family:Arial;-inkscape-font-specification:'Arial Bold'"
       id="path32477"
       transform="matrix(0.99916653,0,0,0.99916653,0.08048785,-36.027598)" />
    <path
       d="m 64.587633,45.703492 v 10.59679 h -2.754009 v -1.134854 q -0.578269,0.722836 -1.055342,0.975829 -0.636096,0.332505 -1.41676,0.332505 -1.568556,0 -2.399819,-1.192681 -0.824034,-1.19268 -0.824034,-2.898576 0,-1.908289 0.910775,-2.920261 0.918003,-1.011972 2.327535,-1.011972 0.686695,0 1.243279,0.231308 0.563813,0.231308 0.997515,0.693924 v -3.672012 z m -2.949175,6.73684 q 0,-0.903546 -0.383103,-1.344476 -0.383104,-0.448159 -0.968602,-0.448159 -0.513214,0 -0.860176,0.426473 -0.346961,0.426474 -0.346961,1.431218 0,0.939688 0.35419,1.380618 0.361418,0.433702 0.889089,0.433702 0.563813,0 0.939688,-0.44093 0.375875,-0.440931 0.375875,-1.438446 z"
       style="font-size:14.8037px;line-height:1.25;stroke-width:0.0771024;font-weight:bold;font-family:Arial;-inkscape-font-specification:'Arial Bold'"
       id="path32479"
       transform="matrix(0.99916653,0,0,0.99916653,0.08048785,-36.027598)" />
    <path
       d="m 66.018852,52.483703 q 0,-1.756494 1.185453,-2.891348 1.185452,-1.142083 3.202168,-1.142083 2.305849,0 3.484074,1.337249 0.946916,1.077027 0.946916,2.652811 0,1.770951 -1.178224,2.905805 -1.170996,1.127625 -3.245538,1.127625 -1.850463,0 -2.992545,-0.939688 -1.402304,-1.163767 -1.402304,-3.050371 z m 2.949175,-0.0072 q 0,1.026429 0.412017,1.517958 0.419246,0.491529 1.048114,0.491529 0.636096,0 1.040885,-0.484301 0.412017,-0.484301 0.412017,-1.554099 0,-0.997515 -0.412017,-1.481816 -0.412017,-0.491529 -1.0192,-0.491529 -0.643325,0 -1.062571,0.498757 -0.419245,0.491529 -0.419245,1.503501 z"
       style="font-size:14.8037px;line-height:1.25;stroke-width:0.0771024;font-weight:bold;font-family:Arial;-inkscape-font-specification:'Arial Bold'"
       id="path32481"
       transform="matrix(0.99916653,0,0,0.99916653,0.08048785,-36.027598)" />
    <path
       d="m 76.254226,48.623753 h 2.739552 v 1.250508 q 0.614411,-0.766207 1.243279,-1.091484 0.628868,-0.332505 1.532414,-0.332505 1.221595,0 1.90829,0.730066 0.693923,0.722837 0.693923,2.240794 v 4.87915 h -2.956403 v -4.221368 q 0,-0.722837 -0.267449,-1.0192 -0.26745,-0.303592 -0.751751,-0.303592 -0.534899,0 -0.867404,0.404789 -0.332505,0.404789 -0.332505,1.452902 v 3.686469 h -2.941946 z"
       style="font-size:14.8037px;line-height:1.25;stroke-width:0.0771024;font-weight:bold;font-family:Arial;-inkscape-font-specification:'Arial Bold'"
       id="path32483"
       transform="matrix(0.99916653,0,0,0.99916653,0.08048785,-36.027598)" />
    <path
       d="m 91.253092,45.703492 h 8.775238 v 2.26248 h -5.493559 v 1.68421 h 5.096001 v 2.161282 h -5.096001 v 2.088999 h 5.652589 v 2.399819 h -8.934268 z"
       style="font-size:14.8037px;line-height:1.25;stroke-width:0.0771024;font-weight:bold;font-family:Arial;-inkscape-font-specification:'Arial Bold'"
       id="path32485"
       transform="matrix(0.99916653,0,0,0.99916653,0.08048785,-36.027598)" />
    <path
       d="m 101.85711,45.703492 h 2.94917 v 10.59679 h -2.94917 z"
       style="font-size:14.8037px;line-height:1.25;stroke-width:0.0771024;font-weight:bold;font-family:Arial;-inkscape-font-specification:'Arial Bold'"
       id="path32487"
       transform="matrix(0.99916653,0,0,0.99916653,0.08048785,-36.027598)" />
    <path
       d="m 115.20791,53.192083 h -5.89835 q 0.0795,0.70838 0.3831,1.055342 0.42648,0.498757 1.11317,0.498757 0.4337,0 0.82403,-0.216851 0.23854,-0.137339 0.51322,-0.484301 l 2.89858,0.26745 q -0.66501,1.156539 -1.6047,1.662525 -0.93969,0.498757 -2.69618,0.498757 -1.52519,0 -2.39982,-0.426473 -0.87464,-0.433703 -1.45291,-1.366162 -0.57104,-0.939688 -0.57104,-2.204653 0,-1.799864 1.14931,-2.913033 1.15654,-1.113169 3.18771,-1.113169 1.64807,0 2.60222,0.498758 0.95414,0.498757 1.4529,1.445674 0.49876,0.946916 0.49876,2.464874 z m -2.99255,-1.409532 q -0.0867,-0.852948 -0.46261,-1.221595 -0.36865,-0.368647 -0.97583,-0.368647 -0.70115,0 -1.1204,0.556585 -0.26745,0.346962 -0.33973,1.033657 z"
       style="font-size:14.8037px;line-height:1.25;stroke-width:0.0771024;font-weight:bold;font-family:Arial;-inkscape-font-specification:'Arial Bold'"
       id="path32489"
       transform="matrix(0.99916653,0,0,0.99916653,0.08048785,-36.027598)" />
    <path
       d="m 116.58129,48.623753 h 2.74678 v 1.120398 q 0.59273,-0.701152 1.19268,-0.997515 0.60719,-0.296364 1.46013,-0.296364 0.91801,0 1.45291,0.325277 0.5349,0.325277 0.87463,0.968602 0.69392,-0.751751 1.26496,-1.019201 0.57105,-0.274678 1.40954,-0.274678 1.23605,0 1.92997,0.737294 0.69392,0.730065 0.69392,2.291393 v 4.821323 h -2.94917 v -4.373164 q 0,-0.520443 -0.20239,-0.773435 -0.29637,-0.397561 -0.7373,-0.397561 -0.52044,0 -0.83849,0.375875 -0.31805,0.375876 -0.31805,1.207138 v 3.961147 h -2.94917 v -4.228597 q 0,-0.505985 -0.0578,-0.686695 -0.094,-0.289134 -0.32528,-0.462615 -0.2313,-0.18071 -0.54212,-0.18071 -0.50599,0 -0.83127,0.383104 -0.32527,0.383104 -0.32527,1.257736 v 3.917777 h -2.94918 z"
       style="font-size:14.8037px;line-height:1.25;stroke-width:0.0771024;font-weight:bold;font-family:Arial;-inkscape-font-specification:'Arial Bold'"
       id="path32491"
       transform="matrix(0.99916653,0,0,0.99916653,0.08048785,-36.027598)" />
    <path
       d="m 139.88556,53.192083 h -5.89835 q 0.0795,0.70838 0.3831,1.055342 0.42648,0.498757 1.11317,0.498757 0.4337,0 0.82404,-0.216851 0.23853,-0.137339 0.51321,-0.484301 l 2.89858,0.26745 q -0.66501,1.156539 -1.6047,1.662525 -0.93969,0.498757 -2.69618,0.498757 -1.52519,0 -2.39982,-0.426473 -0.87464,-0.433703 -1.4529,-1.366162 -0.57105,-0.939688 -0.57105,-2.204653 0,-1.799864 1.14931,-2.913033 1.15654,-1.113169 3.18772,-1.113169 1.64806,0 2.60221,0.498758 0.95414,0.498757 1.4529,1.445674 0.49876,0.946916 0.49876,2.464874 z m -2.99255,-1.409532 q -0.0867,-0.852948 -0.46261,-1.221595 -0.36865,-0.368647 -0.97583,-0.368647 -0.70115,0 -1.1204,0.556585 -0.26745,0.346962 -0.33973,1.033657 z"
       style="font-size:14.8037px;line-height:1.25;stroke-width:0.0771024;font-weight:bold;font-family:Arial;-inkscape-font-specification:'Arial Bold'"
       id="path32493"
       transform="matrix(0.99916653,0,0,0.99916653,0.08048785,-36.027598)" />
    <path
       d="m 141.23727,48.623753 h 2.73955 v 1.250508 q 0.61441,-0.766207 1.24328,-1.091484 0.62887,-0.332505 1.53241,-0.332505 1.2216,0 1.90829,0.730066 0.69392,0.722837 0.69392,2.240794 v 4.87915 h -2.9564 v -4.221368 q 0,-0.722837 -0.26745,-1.0192 -0.26745,-0.303592 -0.75175,-0.303592 -0.5349,0 -0.8674,0.404789 -0.33251,0.404789 -0.33251,1.452902 v 3.686469 h -2.94194 z"
       style="font-size:14.8037px;line-height:1.25;stroke-width:0.0771024;font-weight:bold;font-family:Arial;-inkscape-font-specification:'Arial Bold'"
       id="path32495"
       transform="matrix(0.99916653,0,0,0.99916653,0.08048785,-36.027598)" />
    <path
       d="m 154.66034,45.703492 v 2.920261 h 1.61916 v 2.146826 h -1.61916 v 2.725095 q 0,0.491529 0.094,0.650553 0.14457,0.245765 0.50599,0.245765 0.32527,0 0.91077,-0.187938 l 0.21685,2.031172 q -1.09148,0.238536 -2.0384,0.238536 -1.09871,0 -1.61915,-0.281906 -0.52045,-0.281906 -0.77344,-0.852948 -0.24576,-0.578269 -0.24576,-1.864919 v -2.70341 h -1.08426 v -2.146826 h 1.08426 v -1.409532 z"
       style="font-size:14.8037px;line-height:1.25;stroke-width:0.0771024;font-weight:bold;font-family:Arial;-inkscape-font-specification:'Arial Bold'"
       id="path32497"
       transform="matrix(0.99916653,0,0,0.99916653,0.08048785,-36.027598)" />
    <path
       d="m 160.36352,51.110312 -2.81183,-0.296363 q 0.15902,-0.737293 0.45539,-1.156539 0.30359,-0.426474 0.8674,-0.737294 0.40479,-0.224079 1.11317,-0.346961 0.70838,-0.122883 1.53241,-0.122883 1.3228,0 2.12514,0.151796 0.80235,0.144568 1.33725,0.614412 0.37588,0.325276 0.59273,0.925231 0.21685,0.592726 0.21685,1.134854 v 3.390105 q 0,0.542128 0.0651,0.852948 0.0723,0.303591 0.30359,0.780664 h -2.76124 q -0.16625,-0.296364 -0.21685,-0.448159 -0.0506,-0.159025 -0.1012,-0.491529 -0.57827,0.556584 -1.14931,0.79512 -0.78066,0.318048 -1.81432,0.318048 -1.37339,0 -2.089,-0.636096 -0.70838,-0.636097 -0.70838,-1.568556 0,-0.874633 0.51322,-1.438446 0.51321,-0.563813 1.89383,-0.838491 1.65529,-0.332505 2.14682,-0.462615 0.49153,-0.137339 1.04089,-0.35419 0,-0.542128 -0.22408,-0.758979 -0.22408,-0.216851 -0.78789,-0.216851 -0.72284,0 -1.08426,0.231308 -0.2819,0.180709 -0.45539,0.679466 z m 2.55162,1.546871 q -0.60718,0.216851 -1.26497,0.383104 -0.89631,0.238536 -1.13485,0.469844 -0.24576,0.238536 -0.24576,0.542128 0,0.346961 0.23853,0.571041 0.24577,0.216851 0.71561,0.216851 0.49153,0 0.91078,-0.238536 0.42647,-0.238536 0.59995,-0.57827 0.18071,-0.346962 0.18071,-0.896318 z"
       style="font-size:14.8037px;line-height:1.25;stroke-width:0.0771024;font-weight:bold;font-family:Arial;-inkscape-font-specification:'Arial Bold'"
       id="path32499"
       transform="matrix(0.99916653,0,0,0.99916653,0.08048785,-36.027598)" />
    <path
       d="m 167.58468,48.623753 h 2.754 v 1.257737 q 0.39756,-0.816806 0.81681,-1.120398 0.42647,-0.31082 1.04811,-0.31082 0.65056,0 1.42399,0.404789 l -0.91077,2.096227 q -0.52044,-0.216851 -0.82404,-0.216851 -0.57827,0 -0.89631,0.477072 -0.45539,0.672239 -0.45539,2.515473 v 2.5733 h -2.9564 z"
       style="font-size:14.8037px;line-height:1.25;stroke-width:0.0771024;font-weight:bold;font-family:Arial;-inkscape-font-specification:'Arial Bold'"
       id="path32501"
       transform="matrix(0.99916653,0,0,0.99916653,0.08048785,-36.027598)" />
    <path
       d="m 174.13357,48.623753 h 3.1082 l 1.58301,5.110457 1.46736,-5.110457 h 2.89858 l -3.04315,8.204199 q -0.52044,1.402304 -1.06257,1.893833 -0.7662,0.693924 -2.33476,0.693924 -0.6361,0 -1.96612,-0.173481 l -0.2313,-2.052857 q 0.63609,0.202394 1.41676,0.202394 0.52044,0 0.83849,-0.238536 0.32527,-0.238536 0.54935,-0.852947 z"
       style="font-size:14.8037px;line-height:1.25;stroke-width:0.0771024;font-weight:bold;font-family:Arial;-inkscape-font-specification:'Arial Bold'"
       id="path32503"
       transform="matrix(0.99916653,0,0,0.99916653,0.08048785,-36.027598)" />
  </g>
</svg>
