<?xml version="1.0" encoding="UTF-8" standalone="no"?>
<svg
   width="2500"
   height="1500"
   viewBox="0 0 2500 1500"
   version="1.1"
   id="svg8"
   sodipodi:docname="Abingdon-PTA-logo.svg"
   inkscape:version="1.2.2 (b0a8486541, 2022-12-01)"
   inkscape:export-filename="/home/dan/Downloads/Abingdon PTA Logo2.png"
   inkscape:export-xdpi="61.439999"
   inkscape:export-ydpi="61.439999"
   xmlns:inkscape="http://www.inkscape.org/namespaces/inkscape"
   xmlns:sodipodi="http://sodipodi.sourceforge.net/DTD/sodipodi-0.dtd"
   xmlns="http://www.w3.org/2000/svg"
   xmlns:svg="http://www.w3.org/2000/svg">
  <defs
     id="defs12" />
  <sodipodi:namedview
     id="namedview10"
     pagecolor="#ffffff"
     bordercolor="#666666"
     borderopacity="1.0"
     inkscape:pageshadow="2"
     inkscape:pageopacity="1"
     inkscape:pagecheckerboard="false"
     showgrid="false"
     inkscape:zoom="0.35355339"
     inkscape:cx="1168.1404"
     inkscape:cy="429.92092"
     inkscape:window-width="1920"
     inkscape:window-height="1011"
     inkscape:window-x="0"
     inkscape:window-y="0"
     inkscape:window-maximized="1"
     inkscape:current-layer="g6"
     fit-margin-top="625"
     fit-margin-bottom="625"
     inkscape:showpageshadow="2"
     inkscape:deskcolor="#d1d1d1" />
  <g
     fill-rule="evenodd"
     clip-rule="evenodd"
     id="g6">
    <path
       style="stroke-width:12.4024"
       d="M 877.38023,377.39325 H 564.47965 l -33.43691,289.01354 h -83.60471 l -9.54985,95.56063 h 83.59229 l -19.11212,179.1281 h 169.59066 l 47.7741,-446.66067 h 62.0989 c 38.22426,0 66.88626,4.77495 64.49259,62.09891 0,105.0981 -33.43692,109.87303 -78.81737,109.87303 h -40.60552 l -9.54984,97.92949 h 102.7044 C 927.53564,761.96742 1003.9717,730.91174 1015.9152,546.9839 1025.4775,403.66157 917.98575,377.39325 877.38023,377.39325 Z"
       id="path527" />
    <path
       style="stroke-width:12.4024"
       d="m 1995.2227,664.02553 h -78.8299 l 26.2932,-289.02595 -355.8997,2.39367 -224.5211,566.09594 h 174.3533 l 160.0533,-446.67306 h 71.6487 l -19.1122,169.59066 h -93.167 l -11.9434,95.56063 h 95.5607 l -19.1123,179.1281 h 169.5907 l 16.7184,-179.1281 h 78.8174 z"
       id="path525" />
    <path
       style="stroke-width:12.4024"
       d="m 1042.196,377.39325 -11.9436,119.42288 h 171.972 c -62.0989,167.19699 -171.972,446.67306 -171.972,446.67306 h 174.3656 l 179.1282,-446.67306 h 124.2227 l 47.774,-119.42288 z"
       id="path523" />
    <path
       style="stroke-width:12.4024"
       d="m 1992.8413,434.71721 h 7.1439 l 11.9436,19.11214 h 7.1685 l -11.9435,-19.11214 c 4.775,0 11.9435,-4.77491 11.9435,-11.94352 0,-9.54985 -7.1685,-11.94352 -16.7184,-11.94352 h -16.7185 v 42.99918 h 7.1685 v -19.11214 z m 0,-4.77491 v -14.33721 h 9.5499 c 4.7749,0 9.5499,0 9.5499,7.1686 0,4.77494 -4.775,7.16861 -11.9435,7.16861 z"
       id="path521" />
    <path
       style="stroke-width:12.4024"
       d="m 1968.9667,432.33595 c 0,-19.11211 14.3124,-31.04323 31.0309,-31.04323 16.7432,0 31.0556,11.94352 31.0556,31.04323 0,16.71846 -14.3124,31.04325 -31.0556,31.04325 -16.7185,0 -31.0309,-14.32479 -31.0309,-31.04325 z m 31.0309,38.21185 c 21.5058,0 38.2242,-16.71845 38.2242,-38.22426 0,-21.50578 -16.7184,-38.22423 -38.2242,-38.22423 -21.481,0 -38.1995,16.71845 -38.1995,38.22423 0,21.50581 16.7061,38.22426 38.1995,38.22426 z"
       id="path519" />
    <path
       style="stroke-width:12.4024"
       d="m 2374.997,1258.7587 c 0,11.9435 -7.1437,21.5057 -19.0873,21.5057 -7.1685,0 -11.9434,-7.1686 -11.9434,-16.7433 0,-11.9435 7.1437,-21.4809 16.7184,-21.4809 7.1686,0.012 14.3123,7.1809 14.3123,16.7185 z"
       id="path517" />
    <path
       style="stroke-width:12.4024"
       d="m 2250.7993,1201.447 c 2.3937,-23.887 11.9436,-35.8305 26.2807,-35.8305 14.3124,0 23.887,11.9435 26.2558,35.8305 z m 78.8297,40.6056 c -11.9435,14.3371 -23.887,21.4809 -35.8305,21.4809 -26.2807,0 -42.9992,-21.4809 -42.9992,-52.5366 h 85.9983 v -9.5499 c -11.9435,-4.7749 -4.7749,-16.7184 -19.1121,-31.0556 -7.1686,-7.1686 -19.112,-11.9435 -35.8306,-11.9435 -33.4493,0 -57.3363,26.2807 -57.3363,64.4801 0,26.2808 11.9434,57.3364 52.5614,57.3364 23.887,0 42.9992,-11.9435 57.3116,-33.4494 z"
       id="path515" />
    <path
       style="stroke-width:12.4024"
       d="m 2203.0375,1249.2211 c -14.3371,19.1122 -33.4492,31.0558 -54.9426,31.0558 -31.0556,0 -52.5366,-23.8872 -52.5366,-57.3365 0,-38.1994 28.662,-64.4801 71.6488,-64.4801 21.481,0 35.8304,7.1686 35.8304,19.1121 0,7.1686 -4.7748,11.9436 -11.9434,11.9436 -14.3371,0 -21.5058,-21.5058 -35.8306,-21.5058 -19.1121,0 -31.0557,21.5058 -31.0557,47.774 0,28.6744 14.3373,50.1678 35.8306,50.1678 11.9436,0 23.8871,-7.1686 38.2243,-21.481 z"
       id="path513" />
    <path
       style="stroke-width:12.4024"
       d="m 2045.3904,1091.5741 c 9.5499,0 16.7184,7.1686 16.7184,14.3372 0,9.5498 -7.1685,16.7184 -16.7184,16.7184 -9.3269,0.2294 -16.948,-7.3916 -16.7185,-16.7184 0,-7.1686 7.1439,-14.3372 16.7185,-14.3372 z"
       id="path511" />
    <path
       style="stroke-width:12.4024"
       d="m 2011.9288,1167.9978 42.9989,-11.9436 h 7.1688 v 88.392 c 0,19.0873 2.3936,23.8871 19.1122,23.8871 v 7.1686 h -69.2799 v -7.1686 c 16.7431,0 21.5057,-4.7998 21.5057,-19.1122 v -64.4801 c 0,-4.7997 0,-7.1686 -21.5057,-11.9435 z"
       id="path509" />
    <path
       style="stroke-width:12.4024"
       d="m 1897.2808,1208.6156 c 0,-23.887 11.9434,-40.6178 31.0556,-40.6178 21.5058,0 40.6179,26.2806 40.6179,59.7052 0,26.2807 -11.9435,42.9992 -31.0557,42.9992 -23.8745,0 -40.6178,-26.256 -40.6178,-62.0866 z m -31.0308,9.5499 c 0,38.2242 26.2558,62.1114 66.8861,62.1114 38.1994,0 64.4802,-26.2808 64.4802,-62.1114 0,-23.8871 -16.7184,-59.7052 -64.4802,-59.7052 -40.6178,-0.012 -66.8861,23.8747 -66.8861,59.7052 z"
       id="path507" />
    <path
       style="stroke-width:12.4024"
       d="m 1744.4335,1184.741 c -4.7749,-11.9435 -9.5623,-14.3372 -21.5058,-16.7432 v -7.1438 h 66.8862 v 7.1438 c -14.3124,2.3936 -19.1121,2.3936 -19.1121,9.5622 0,2.3689 2.3937,4.775 4.7997,11.9436 l 26.2559,59.7052 23.8871,-54.9428 c 2.3937,-7.1685 2.3937,-9.5498 2.3937,-14.3371 0,-7.1438 -4.775,-9.5499 -19.1123,-11.9436 v -7.1438 h 52.5367 v 7.1438 c -11.9436,2.3937 -16.7184,4.7998 -26.2559,26.2807 l -35.8305,85.9984 h -14.3373 z"
       id="path505" />
    <path
       style="stroke-width:12.4024"
       d="m 1675.1535,1177.56 c 0,9.5499 -4.7749,16.7184 -9.5498,23.887 -4.775,4.775 -19.1121,11.9435 -38.2245,16.7185 7.1688,-33.4245 19.1124,-52.5366 35.8309,-52.5366 7.1685,0 11.9434,4.7625 11.9434,11.9311 z m 2.406,76.4361 c -11.9434,9.5498 -23.887,14.3372 -31.0555,14.3372 -21.4811,0 -26.2808,-19.1122 -21.4811,-42.9992 33.4246,-11.9436 66.8615,-26.2807 66.8615,-47.7741 0,-11.9435 -9.5499,-16.7185 -23.8871,-16.7185 -35.8307,0 -62.0865,42.9744 -62.0865,78.805 0,23.887 11.9434,40.6179 28.662,40.6179 11.9435,0 28.6621,-9.5622 45.3681,-21.5057 z"
       id="path503" />
    <path
       style="stroke-width:12.4024"
       d="m 1503.1939,1220.5592 h 2.3688 c 23.8872,-33.4493 50.1678,-59.7052 64.505,-59.7052 7.1438,0 9.5499,7.1438 9.5499,16.7184 0,4.775 0,9.5499 -2.3937,14.3124 l -16.7185,66.8862 c 0,4.7749 -2.3688,9.5623 2.3938,9.5623 2.3688,0 14.3123,-14.3372 23.8871,-23.8871 l 2.3935,2.3688 c -9.5622,11.9437 -28.6744,33.4494 -38.2241,33.4494 -7.1687,0 -11.9436,-9.5622 -7.1687,-21.5057 l 19.1122,-74.0301 c 0,-9.5622 -2.3938,-11.9435 -4.7749,-11.9435 -2.3938,0 -7.1686,2.3689 -16.7433,11.9435 -7.1437,7.1438 -23.8872,26.2559 -40.5932,45.368 l -7.1685,45.3929 c 0,2.3689 -2.3688,4.7749 -4.775,4.7749 h -9.5497 c -2.3939,0 -4.7997,-2.3936 -4.7997,-7.1686 l 19.1119,-85.9983 c 0,-4.7749 0,-7.1686 -2.3688,-7.1686 0,0 -7.1686,7.1686 -14.3373,16.7432 l -2.3935,-2.3937 c 9.5622,-14.3371 28.6744,-33.4244 35.8305,-33.4244 2.3938,0 4.7998,2.3688 4.7998,9.5498 z"
       id="path501" />
    <path
       style="stroke-width:12.4024"
       d="m 1426.7455,1160.854 c 7.1685,0 26.2807,9.5498 26.2807,40.593 0,54.9427 -54.9427,78.8174 -66.8862,78.8174 -14.3372,0 -26.2807,-21.5057 -26.2807,-45.3929 0,-45.3679 50.1678,-74.0175 66.8862,-74.0175 z m -14.3124,9.5374 c -19.1121,0 -33.4494,33.4245 -33.4494,62.1113 0,23.887 9.5624,35.8306 19.1122,35.8306 23.8869,0 35.8305,-35.8306 35.8305,-62.1113 -0.012,-21.481 -9.5497,-35.8306 -21.4933,-35.8306 z"
       id="path499" />
    <path
       style="stroke-width:12.4024"
       d="m 1309.7163,1258.7587 c 0,11.9435 -9.5623,21.5057 -19.1122,21.5057 -7.1687,0 -11.9437,-7.1686 -11.9437,-16.7433 0,-11.9435 7.1687,-21.4809 16.7186,-21.4809 7.1687,0.012 14.3373,7.1809 14.3373,16.7185 z"
       id="path497" />
    <path
       style="stroke-width:12.4024"
       d="m 1218.9552,1251.59 c -14.3372,9.5623 -21.4934,11.9435 -31.0556,11.9435 -19.1122,0 -33.4369,-19.0873 -33.4369,-50.143 0,-26.2806 11.9435,-42.9991 31.0556,-42.9991 11.9435,0 21.4934,4.775 33.4369,21.481 z m 0,28.6869 h 7.1686 l 38.2119,-19.1122 v -7.1686 c -4.7749,2.3936 -9.5499,2.3936 -11.9436,2.3936 -4.7749,0 -7.1686,-2.3936 -7.1686,-9.5623 v -162.422 h -7.1685 l -38.2243,11.9436 v 7.1686 c 14.3372,0 19.1121,7.1686 19.1121,16.7184 v 40.618 c -7.1686,0 -16.7184,-2.3937 -26.2807,-2.3937 -38.2242,0 -66.8738,28.662 -66.8738,64.4801 0,31.0557 19.1121,57.3365 45.3804,57.3365 16.7185,0 28.662,-7.1687 47.7741,-19.1122 v 19.1122 z"
       id="path495" />
    <path
       style="stroke-width:12.4024"
       d="m 1046.9709,1096.349 40.5931,-11.9436 h 9.5623 v 162.422 c 0,16.7185 4.7749,21.5059 21.4934,21.5059 v 7.1686 h -71.6488 v -7.1686 c 19.1121,0 23.8871,-4.7998 23.8871,-21.5059 v -124.1977 c 0,-14.3372 -2.3937,-16.7184 -23.8871,-19.1121 z"
       id="path493" />
    <path
       style="stroke-width:12.4024"
       d="m 999.19678,1091.5741 c 9.56222,0 16.71842,7.1686 16.71842,14.3372 0,9.5498 -7.1686,16.7184 -19.11208,16.7184 -9.32683,0.2294 -16.94815,-7.3916 -16.71845,-16.7184 0.0124,-7.1686 7.1686,-14.3372 19.11211,-14.3372 z"
       id="path491" />
    <path
       style="stroke-width:12.4024"
       d="m 965.75986,1167.9978 40.59314,-11.9436 h 7.1686 v 88.392 c 0,19.0873 4.7749,23.8871 21.4934,23.8871 v 7.1686 h -69.25514 v -7.1686 c 14.32481,0 21.49341,-4.7998 21.49341,-19.1122 v -64.4801 c 0,-4.7997 0,-7.1686 -21.49341,-11.9435 z"
       id="path489" />
    <path
       style="stroke-width:12.4024"
       d="m 884.54885,1268.3333 c 19.11212,0 21.49338,-4.7998 21.49338,-54.9428 0,-28.6619 -7.16859,-40.593 -19.11213,-40.593 -9.54987,0 -19.11212,4.7749 -35.83057,11.9435 v 64.4801 c 0,14.3124 7.16858,19.1122 19.11212,19.1122 v 7.1686 h -64.49257 v -7.1686 c 14.3248,0 19.11211,-4.7998 19.11211,-21.5059 v -128.9602 c 0,-7.1686 0,-11.9435 -19.11211,-14.3372 v -7.1686 l 38.21185,-11.9435 h 7.1686 v 93.1669 c 21.49338,-11.9435 38.22424,-19.1121 52.54903,-19.1121 19.11212,0 31.05566,11.9435 31.05566,47.7741 0,16.7184 -2.38126,33.4244 -2.38126,45.3679 0,11.9437 7.15619,16.7435 21.49338,16.7435 v 7.1685 h -69.26749 z"
       id="path487" />
    <path
       style="stroke-width:12.4024"
       d="m 786.61935,1249.2211 c -16.73085,19.1122 -35.83057,31.0558 -54.94271,31.0558 -31.04325,0 -52.54903,-23.8872 -52.54903,-57.3365 0,-38.1994 28.66199,-64.4801 69.26748,-64.4801 23.88707,0 38.22426,7.1686 38.22426,19.1121 0,7.1686 -4.77494,11.9436 -11.94352,11.9436 -16.73086,0 -21.4934,-21.5058 -38.22426,-21.5058 -16.73086,0 -28.66197,21.5058 -28.66197,47.774 0,28.6744 11.94351,50.1678 33.43691,50.1678 14.32479,0 26.26832,-7.1686 38.21183,-21.481 z"
       id="path485" />
    <path
       style="stroke-width:12.4024"
       d="m 540.60501,1189.5036 c 14.32478,-19.1122 26.26831,-28.6621 33.43691,-28.6621 7.16861,0 21.49338,47.7741 21.49338,105.0857 16.73086,-26.2807 38.22426,-71.6488 38.22426,-83.5922 0,-7.1686 -4.77493,-4.775 -4.77493,-11.9436 0,-4.7749 4.77493,-9.5499 11.94353,-9.5499 7.16858,0 11.94352,4.775 11.94352,11.9436 0,28.6619 -40.60552,69.2551 -54.94271,102.7044 l -11.94353,31.0308 c -4.77491,9.5624 -9.54985,21.5058 -9.54985,23.887 0,4.7998 4.77494,4.7998 16.71846,4.7998 v 4.7749 H 533.4364 l 2.39367,-4.7749 c 9.56227,0 14.32479,0 16.71845,-2.3936 4.77494,-4.775 28.66201,-47.7742 28.66201,-76.4238 0,-28.6744 -11.94355,-83.5922 -16.71847,-83.5922 -4.77494,0 -9.56227,4.7749 -19.11212,19.0873 z"
       id="path483" />
    <path
       style="stroke-width:12.4024"
       d="m 452.22539,1189.5036 c 16.71845,-16.7185 26.26831,-28.6621 33.4369,-28.6621 4.77492,0 7.1686,2.3689 7.1686,7.1438 0,11.9436 -9.54987,47.7741 -16.71847,71.6488 0,2.3936 0,4.7997 2.38128,0 l 14.32479,-38.1995 c 7.16859,-16.7184 19.11213,-40.5931 31.05565,-40.5931 4.77493,0 7.1686,2.3689 7.1686,7.1438 0,7.1687 -2.38127,14.3373 -9.56227,14.3373 h -4.77494 c -7.16858,0 -14.33718,14.3371 -21.49337,26.2806 -4.77495,14.3124 -14.33719,38.1994 -16.71846,45.3681 l -4.77495,21.5059 c 0,2.3688 -2.38124,4.7748 -4.77491,4.7748 h -9.56227 c -2.38127,0 -2.38127,-2.3936 -2.38127,-4.7748 l 16.71845,-85.9985 c 0,-4.7749 0,-9.5622 -2.38124,-9.5622 -4.77494,0 -7.16861,4.7997 -14.33721,14.3371 z"
       id="path481" />
    <path
       style="stroke-width:12.4024"
       d="m 416.39479,1177.56 c 0,9.5499 -2.39367,16.7184 -9.54985,23.887 -4.78735,4.775 -16.73087,11.9435 -38.22426,16.7185 9.56227,-33.4245 21.49339,-52.5366 38.22426,-52.5366 7.15618,0 9.54985,4.7625 9.54985,11.9311 z m 4.77493,76.4361 c -14.32478,9.5498 -26.28073,14.3372 -33.43692,14.3372 -19.11212,0 -26.28073,-19.1122 -19.11212,-42.9992 33.43691,-11.9436 64.49257,-26.2807 64.49257,-47.7741 0,-11.9435 -7.1686,-16.7185 -23.88705,-16.7185 -33.43692,0 -62.09892,42.9744 -62.09892,78.805 0,23.887 11.94353,40.6179 28.662,40.6179 11.94352,0 31.05566,-9.5622 47.77411,-21.5057 z"
       id="path479" />
    <path
       style="stroke-width:12.4024"
       d="m 225.31074,1191.8848 c 11.94354,-16.7184 28.66198,-31.0308 35.83059,-31.0308 4.77493,0 7.1686,2.3688 7.1686,7.1438 0,4.7997 -2.39367,11.9435 -2.39367,19.1121 l -11.94354,64.4801 c 0,7.1687 0,14.3372 2.39367,14.3372 7.1686,0 57.32398,-42.9992 57.32398,-81.1986 0,-4.7997 -7.16861,-4.7997 -7.16861,-11.9435 0,-4.7998 7.16861,-11.9436 14.32481,-11.9436 7.15619,0 11.94352,7.1438 11.94352,16.7185 0,33.4245 -69.2675,102.7044 -88.37963,102.7044 -4.77492,0 -7.15618,-4.7749 -7.15618,-14.3372 0,-7.1685 2.38126,-19.1122 2.38126,-26.2807 l 9.56226,-52.5366 c 0,-4.7749 -2.38127,-7.1686 -2.38127,-7.1686 -4.78732,0 -9.56225,4.7997 -16.73086,14.3371 z"
       id="path477" />
    <path
       style="stroke-width:12.4024"
       d="m 194.25509,1177.56 c 0,9.5499 -4.77493,16.7184 -11.94353,23.887 -4.77494,4.775 -16.71845,11.9435 -35.83057,16.7185 7.16861,-33.4245 19.11212,-52.5366 35.83057,-52.5366 7.1686,0 11.94353,4.7625 11.94353,11.9311 z m 2.39367,76.4361 c -14.32481,9.5498 -23.88705,14.3372 -33.43691,14.3372 -19.11212,0 -23.88706,-19.1122 -19.11212,-42.9992 33.43689,-11.9436 64.49256,-26.2807 64.49256,-47.7741 0,-11.9435 -7.1686,-16.7185 -21.4934,-16.7185 -35.83056,0 -62.09889,42.9744 -62.09889,78.805 0,23.887 11.94353,40.6179 26.26833,40.6179 11.94352,0 31.05562,-9.5622 47.7741,-21.5057 z"
       id="path4" />
    <path
       d="m 223.35557,239.65448 h -48.33474 l -6.6507,22.66862 H 125 L 176.61325,125 h 46.27396 l 51.61324,137.3231 h -44.40051 z m -8.89885,-29.69401 -15.17485,-49.36513 -15.08119,49.36513 z"
       style="font-weight:bold;font-size:14.8037px;line-height:1.25;font-family:Arial;-inkscape-font-specification:'Arial Bold';stroke-width:0.999165"
       id="path32469" />
    <path
       d="m 285.7411,125 h 38.49916 v 47.58536 q 5.714,-5.99501 12.92673,-8.99252 7.30642,-2.9975 16.11159,-2.9975 18.17236,0 30.06869,13.11408 11.89634,13.02039 11.89634,37.46878 0,16.29892 -5.43297,28.75729 -5.43297,12.3647 -15.08119,18.54705 -9.55453,6.08867 -21.26353,6.08867 -10.0229,0 -18.35971,-4.30891 -6.27602,-3.37218 -13.67611,-12.6457 v 14.7065 h -35.689 z m 38.21815,87.30226 q 0,12.83307 4.77727,18.64073 4.87094,5.71398 12.27103,5.71398 6.83804,0 11.42798,-5.62031 4.68359,-5.71399 4.68359,-19.10908 0,-11.80267 -4.58992,-17.32932 -4.49626,-5.52664 -10.95962,-5.52664 -7.77477,0 -12.73939,5.80767 -4.87094,5.71398 -4.87094,17.42297 z"
       style="font-weight:bold;font-size:14.8037px;line-height:1.25;font-family:Arial;-inkscape-font-specification:'Arial Bold';stroke-width:0.999165"
       id="path32471" />
    <path
       d="m 414.91471,125 h 38.1245 v 25.94713 h -38.1245 z m 0,37.84347 h 38.1245 v 99.47963 h -38.1245 z"
       style="font-weight:bold;font-size:14.8037px;line-height:1.25;font-family:Arial;-inkscape-font-specification:'Arial Bold';stroke-width:0.999165"
       id="path32473" />
    <path
       d="m 477.39392,162.84347 h 35.50167 v 16.20525 q 7.96213,-9.92923 16.11159,-14.14447 8.14946,-4.30891 19.85845,-4.30891 15.83057,0 24.7294,9.46087 8.99251,9.3672 8.99251,29.03831 V 262.3231 H 544.2757 v -54.70443 q 0,-9.3672 -3.46586,-13.20775 -3.46586,-3.93422 -9.74188,-3.93422 -6.93172,0 -11.24063,5.24563 -4.30891,5.24563 -4.30891,18.82806 v 47.77271 h -38.1245 z"
       style="font-weight:bold;font-size:14.8037px;line-height:1.25;font-family:Arial;-inkscape-font-specification:'Arial Bold';stroke-width:0.999165"
       id="path32475" />
    <path
       d="m 674.57343,162.84347 h 35.68902 v 93.95298 l 0.0933,4.40258 q 0,9.36719 -4.0279,17.79767 -3.93422,8.52415 -10.58492,13.76979 -6.55704,5.24562 -16.76729,7.58741 -10.11658,2.34181 -23.23064,2.34181 -29.97503,0 -41.21567,-8.99251 -11.14697,-8.99251 -11.14697,-24.0737 0,-1.87343 0.18739,-5.05829 l 37.00043,4.21525 q 1.40507,5.15195 4.30891,7.11907 4.21524,2.90383 10.58493,2.90383 8.24313,0 12.27102,-4.40259 4.12157,-4.40257 4.12157,-15.36219 v -15.08119 q -5.62032,6.6507 -11.24063,9.64821 -8.80517,4.6836 -19.01541,4.6836 -19.95214,0 -32.22316,-17.42299 -8.71149,-12.3647 -8.71149,-32.69151 0,-23.23065 11.24064,-35.40801 11.24063,-12.17735 29.41299,-12.17735 11.61533,0 19.10908,3.93423 7.58743,3.93421 14.14447,13.02039 z m -35.87635,48.24105 q 0,10.77229 4.58992,16.01792 4.58993,5.15195 12.08368,5.15195 7.11906,0 11.89634,-5.3393 4.87093,-5.43298 4.87093,-16.29892 0,-10.86595 -5.05828,-16.57994 -5.05828,-5.80766 -12.36469,-5.80766 -7.30642,0 -11.70899,5.3393 -4.30891,5.24563 -4.30891,17.51665 z"
       style="font-weight:bold;font-size:14.8037px;line-height:1.25;font-family:Arial;-inkscape-font-specification:'Arial Bold';stroke-width:0.999165"
       id="path32477" />
    <path
       d="m 838.03098,125 v 137.3231 h -35.68902 v -14.7065 q -7.49375,9.36718 -13.6761,12.6457 -8.24313,4.30891 -18.3597,4.30891 -20.32682,0 -31.0991,-15.45587 -10.6786,-15.45586 -10.6786,-37.56245 0,-24.7294 11.80267,-37.84347 11.89634,-13.11408 30.16237,-13.11408 8.89884,0 16.11157,2.9975 7.30642,2.99751 12.92674,8.99252 V 125 Z m -38.21816,87.30226 q 0,-11.70899 -4.96461,-17.42297 -4.96462,-5.80767 -12.55205,-5.80767 -6.6507,0 -11.14696,5.52664 -4.49624,5.52665 -4.49624,18.54706 0,12.17735 4.58992,17.89134 4.68359,5.62031 11.52165,5.62031 7.30641,0 12.17735,-5.71398 4.87094,-5.714 4.87094,-18.64073 z"
       style="font-weight:bold;font-size:14.8037px;line-height:1.25;font-family:Arial;-inkscape-font-specification:'Arial Bold';stroke-width:0.999165"
       id="path32479" />
    <path
       d="m 856.57806,212.8643 q 0,-22.76229 15.3622,-37.46878 15.3622,-14.80018 41.49669,-14.80018 29.88134,0 45.14988,17.32932 12.27102,13.95712 12.27102,34.3776 0,22.94964 -15.26852,37.65614 -15.17486,14.61281 -42.05872,14.61281 -23.98002,0 -38.78019,-12.17735 -18.17236,-15.08118 -18.17236,-39.52956 z m 38.21816,-0.0933 q 0,13.30142 5.3393,19.67112 5.43298,6.36969 13.58244,6.36969 8.24313,0 13.48876,-6.27603 5.3393,-6.27602 5.3393,-20.13946 0,-12.92673 -5.3393,-19.20276 -5.3393,-6.36969 -13.20774,-6.36969 -8.33681,0 -13.76979,6.46336 -5.43297,6.36969 -5.43297,19.48377 z"
       style="font-weight:bold;font-size:14.8037px;line-height:1.25;font-family:Arial;-inkscape-font-specification:'Arial Bold';stroke-width:0.999165"
       id="path32481" />
    <path
       d="m 989.21759,162.84347 h 35.50171 v 16.20525 q 7.9621,-9.92923 16.1115,-14.14447 8.1495,-4.30891 19.8585,-4.30891 15.8306,0 24.7294,9.46087 8.9925,9.3672 8.9925,29.03831 v 63.22858 h -38.3118 v -54.70443 q 0,-9.3672 -3.4659,-13.20775 -3.4659,-3.93422 -9.7419,-3.93422 -6.9317,0 -11.2406,5.24563 -4.3089,5.24563 -4.3089,18.82806 v 47.77271 h -38.12451 z"
       style="font-weight:bold;font-size:14.8037px;line-height:1.25;font-family:Arial;-inkscape-font-specification:'Arial Bold';stroke-width:0.999165"
       id="path32483" />
    <path
       d="m 1183.5869,125 h 113.7177 v 29.31933 h -71.1906 v 21.82556 h 66.0387 v 28.00791 h -66.0387 v 27.0712 h 73.2515 v 31.0991 h -115.7786 z"
       style="font-weight:bold;font-size:14.8037px;line-height:1.25;font-family:Arial;-inkscape-font-specification:'Arial Bold';stroke-width:0.999165"
       id="path32485" />
    <path
       d="m 1321.0037,125 h 38.2181 v 137.3231 h -38.2181 z"
       style="font-weight:bold;font-size:14.8037px;line-height:1.25;font-family:Arial;-inkscape-font-specification:'Arial Bold';stroke-width:0.999165"
       id="path32487" />
    <path
       d="m 1494.0158,222.04415 h -76.4363 q 1.0302,9.17985 4.9646,13.67611 5.5267,6.46336 14.4254,6.46336 5.6203,0 10.6786,-2.81016 3.0912,-1.77977 6.6508,-6.27602 l 37.5625,3.46586 q -8.6178,14.98752 -20.7952,21.54456 -12.1774,6.46335 -34.9396,6.46335 -19.7649,0 -31.0991,-5.52663 -11.3344,-5.62033 -18.8282,-17.704 -7.4001,-12.17736 -7.4001,-28.56996 0,-23.32432 14.8939,-37.7498 14.9875,-14.42548 41.3093,-14.42548 21.3572,0 33.722,6.46337 12.3646,6.46336 18.828,18.73439 6.4634,12.27103 6.4634,31.94214 z m -38.7802,-18.26603 q -1.1236,-11.0533 -5.995,-15.83057 -4.7773,-4.77727 -12.6457,-4.77727 -9.0862,0 -14.5192,7.21275 -3.4659,4.49626 -4.4025,13.39509 z"
       style="font-weight:bold;font-size:14.8037px;line-height:1.25;font-family:Arial;-inkscape-font-specification:'Arial Bold';stroke-width:0.999165"
       id="path32489" />
    <path
       d="m 1511.8134,162.84347 h 35.5953 v 14.51916 q 7.6811,-9.08618 15.4559,-12.92673 7.8685,-3.84056 18.9217,-3.84056 11.8964,0 18.8281,4.21524 6.9318,4.21524 11.3343,12.55205 8.9925,-9.74189 16.3926,-13.20776 7.4002,-3.55953 18.2661,-3.55953 16.0179,0 25.0103,9.55454 8.9925,9.46087 8.9925,29.69401 v 62.47921 h -38.2181 v -56.67155 q 0,-6.74438 -2.6228,-10.02289 -3.8406,-5.15196 -9.5546,-5.15196 -6.7443,0 -10.8659,4.87093 -4.1216,4.87096 -4.1216,15.64323 v 51.33224 h -38.2181 v -54.79811 q 0,-6.55703 -0.749,-8.89884 -1.2182,-3.74686 -4.2153,-5.99499 -2.9974,-2.34181 -7.0253,-2.34181 -6.5571,0 -10.7724,4.96462 -4.2151,4.96462 -4.2151,16.29892 v 50.77021 h -38.2183 z"
       style="font-weight:bold;font-size:14.8037px;line-height:1.25;font-family:Arial;-inkscape-font-specification:'Arial Bold';stroke-width:0.999165"
       id="path32491" />
    <path
       d="m 1813.8119,222.04415 h -76.4364 q 1.0303,9.17985 4.9646,13.67611 5.5267,6.46336 14.4255,6.46336 5.6203,0 10.6787,-2.81016 3.0911,-1.77977 6.6506,-6.27602 l 37.5625,3.46586 q -8.6178,14.98752 -20.7952,21.54456 -12.1774,6.46335 -34.9396,6.46335 -19.7648,0 -31.0991,-5.52663 -11.3344,-5.62033 -18.828,-17.704 -7.4002,-12.17736 -7.4002,-28.56996 0,-23.32432 14.8938,-37.7498 14.9875,-14.42548 41.3094,-14.42548 21.3572,0 33.7219,6.46337 12.3647,6.46336 18.8281,18.73439 6.4634,12.27103 6.4634,31.94214 z m -38.7803,-18.26603 q -1.1235,-11.0533 -5.9949,-15.83057 -4.7774,-4.77727 -12.6458,-4.77727 -9.0861,0 -14.5191,7.21275 -3.4659,4.49626 -4.4026,13.39509 z"
       style="font-weight:bold;font-size:14.8037px;line-height:1.25;font-family:Arial;-inkscape-font-specification:'Arial Bold';stroke-width:0.999165"
       id="path32493" />
    <path
       d="m 1831.3286,162.84347 h 35.5016 v 16.20525 q 7.9621,-9.92923 16.1116,-14.14447 8.1495,-4.30891 19.8584,-4.30891 15.8306,0 24.7294,9.46087 8.9925,9.3672 8.9925,29.03831 v 63.22858 h -38.3118 v -54.70443 q 0,-9.3672 -3.4659,-13.20775 -3.4659,-3.93422 -9.7419,-3.93422 -6.9317,0 -11.2405,5.24563 -4.309,5.24563 -4.309,18.82806 v 47.77271 h -38.1244 z"
       style="font-weight:bold;font-size:14.8037px;line-height:1.25;font-family:Arial;-inkscape-font-specification:'Arial Bold';stroke-width:0.999165"
       id="path32495" />
    <path
       d="m 2005.2772,125 v 37.84347 h 20.9826 v 27.82057 h -20.9826 v 35.31433 q 0,6.36969 1.2182,8.43047 1.8735,3.18485 6.5571,3.18485 4.2151,0 11.8026,-2.43547 l 2.8101,26.32182 q -14.1444,3.09117 -26.4155,3.09117 -14.2381,0 -20.9824,-3.6532 -6.7445,-3.6532 -10.023,-11.05329 -3.1848,-7.49375 -3.1848,-24.16737 v -35.03331 h -14.0508 v -27.82057 h 14.0508 v -18.26604 z"
       style="font-weight:bold;font-size:14.8037px;line-height:1.25;font-family:Arial;-inkscape-font-specification:'Arial Bold';stroke-width:0.999165"
       id="path32497" />
    <path
       d="m 2079.1844,195.06662 -36.4383,-3.84055 q 2.0607,-9.55453 5.9013,-14.98751 3.9342,-5.52665 11.2406,-9.55455 5.2457,-2.90382 14.4255,-4.49624 9.1799,-1.59243 19.8584,-1.59243 17.1421,0 27.5396,1.96711 10.3976,1.87345 17.3293,7.96213 4.871,4.21523 7.6811,11.99 2.8102,7.6811 2.8102,14.7065 v 43.93215 q 0,7.0254 0.8436,11.0533 0.9369,3.93421 3.9342,10.11657 h -35.7827 q -2.1544,-3.84056 -2.8102,-5.80766 -0.6557,-2.0608 -1.3114,-6.3697 -7.4938,7.21274 -14.8938,10.30391 -10.1166,4.12156 -23.5117,4.12156 -17.7977,0 -27.0712,-8.24312 -9.1798,-8.24314 -9.1798,-20.32682 0,-11.33431 6.6507,-18.64072 6.6507,-7.30642 24.5421,-10.86595 21.4507,-4.30891 27.8205,-5.995 6.3697,-1.77977 13.4888,-4.58992 0,-7.0254 -2.9039,-9.83556 -2.9038,-2.81016 -10.2102,-2.81016 -9.3672,0 -14.0508,2.9975 -3.6532,2.3418 -5.9014,8.80516 z m 33.0663,20.0458 q -7.8684,2.81016 -16.3927,4.96462 -11.6152,3.09117 -14.7065,6.08868 -3.1847,3.09117 -3.1847,7.0254 0,4.49624 3.0911,7.40008 3.1849,2.81016 9.2735,2.81016 6.3697,0 11.8027,-3.09117 5.5266,-3.09118 7.7747,-7.49377 2.3419,-4.49626 2.3419,-11.61532 z"
       style="font-weight:bold;font-size:14.8037px;line-height:1.25;font-family:Arial;-inkscape-font-specification:'Arial Bold';stroke-width:0.999165"
       id="path32499" />
    <path
       d="m 2172.7629,162.84347 h 35.6889 v 16.29893 q 5.152,-10.58494 10.585,-14.51917 5.5266,-4.02789 13.5824,-4.02789 8.4306,0 18.4534,5.24563 l -11.8026,27.16487 q -6.7444,-2.81016 -10.6787,-2.81016 -7.4938,0 -11.6152,6.18235 -5.9014,8.7115 -5.9014,32.59784 v 33.34723 h -38.3118 z"
       style="font-weight:bold;font-size:14.8037px;line-height:1.25;font-family:Arial;-inkscape-font-specification:'Arial Bold';stroke-width:0.999165"
       id="path32501" />
    <path
       d="m 2257.6296,162.84347 h 40.2789 l 20.5141,66.22607 19.0155,-66.22607 h 37.5625 l -39.436,106.31767 q -6.7444,18.17236 -13.7698,24.54206 -9.9291,8.99251 -30.256,8.99251 -8.2432,0 -25.4788,-2.24813 l -2.9974,-26.60284 q 8.243,2.62281 18.3597,2.62281 6.7443,0 10.8659,-3.09117 4.2152,-3.09117 7.119,-11.05328 z"
       style="font-weight:bold;font-size:14.8037px;line-height:1.25;font-family:Arial;-inkscape-font-specification:'Arial Bold';stroke-width:0.999165"
       id="path32503" />
  </g>
</svg>
