<?xml version="1.0" encoding="UTF-8" standalone="no"?>
<!-- Created with Inkscape (http://www.inkscape.org/) -->

<svg
   version="1.1"
   id="svg2"
   width="724.28534"
   height="724.284"
   viewBox="0 0 724.28534 724.284"
   sodipodi:docname="Abingdon-Graduate-Logo.svg"
   inkscape:version="1.2.2 (b0a8486541, 2022-12-01)"
   inkscape:export-filename="Abingdon-Graduate-Logo.png"
   inkscape:export-xdpi="212.07112"
   inkscape:export-ydpi="212.07112"
   xmlns:inkscape="http://www.inkscape.org/namespaces/inkscape"
   xmlns:sodipodi="http://sodipodi.sourceforge.net/DTD/sodipodi-0.dtd"
   xmlns="http://www.w3.org/2000/svg"
   xmlns:svg="http://www.w3.org/2000/svg">
  <defs
     id="defs6">
    <clipPath
       clipPathUnits="userSpaceOnUse"
       id="clipPath18">
      <path
         d="M 0,612 H 792 V 0 H 0 Z"
         id="path16" />
    </clipPath>
    <clipPath
       clipPathUnits="userSpaceOnUse"
       id="clipPath202">
      <path
         d="M 0,612 H 792 V 0 H 0 Z"
         id="path200" />
    </clipPath>
    <clipPath
       clipPathUnits="userSpaceOnUse"
       id="clipPath218">
      <path
         d="M 0,612 H 792 V 0 H 0 Z"
         id="path216" />
    </clipPath>
    <clipPath
       clipPathUnits="userSpaceOnUse"
       id="clipPath234">
      <path
         d="M 0,612 H 792 V 0 H 0 Z"
         id="path232" />
    </clipPath>
    <clipPath
       clipPathUnits="userSpaceOnUse"
       id="clipPath250">
      <path
         d="M 0,612 H 792 V 0 H 0 Z"
         id="path248" />
    </clipPath>
    <clipPath
       clipPathUnits="userSpaceOnUse"
       id="clipPath266">
      <path
         d="M 0,612 H 792 V 0 H 0 Z"
         id="path264" />
    </clipPath>
    <clipPath
       clipPathUnits="userSpaceOnUse"
       id="clipPath282">
      <path
         d="M 0,612 H 792 V 0 H 0 Z"
         id="path280" />
    </clipPath>
    <clipPath
       clipPathUnits="userSpaceOnUse"
       id="clipPath298">
      <path
         d="M 0,612 H 792 V 0 H 0 Z"
         id="path296" />
    </clipPath>
    <clipPath
       clipPathUnits="userSpaceOnUse"
       id="clipPath314">
      <path
         d="M 0,612 H 792 V 0 H 0 Z"
         id="path312" />
    </clipPath>
  </defs>
  <sodipodi:namedview
     id="namedview4"
     pagecolor="#ffffff"
     bordercolor="#666666"
     borderopacity="1.0"
     inkscape:showpageshadow="2"
     inkscape:pageopacity="0.0"
     inkscape:pagecheckerboard="0"
     inkscape:deskcolor="#d1d1d1"
     showgrid="false"
     inkscape:zoom="0.7377451"
     inkscape:cx="332.09302"
     inkscape:cy="360.55814"
     inkscape:window-width="1600"
     inkscape:window-height="831"
     inkscape:window-x="0"
     inkscape:window-y="0"
     inkscape:window-maximized="1"
     inkscape:current-layer="g10">
    <inkscape:page
       x="0"
       y="0"
       id="page8"
       width="724.28534"
       height="724.284" />
  </sodipodi:namedview>
  <g
     id="g10"
     inkscape:groupmode="layer"
     inkscape:label="Page 1"
     transform="matrix(1.3333333,0,0,-1.3333333,-163.40333,767.88411)">
    <g
       id="g12">
      <g
         id="g14"
         clip-path="url(#clipPath18)">
        <g
           id="g20"
           transform="translate(659.793,304.3066)">
          <path
             d="m 0,0 c 0,-146.704 -118.928,-265.633 -265.633,-265.633 -146.705,0 -265.634,118.929 -265.634,265.633 0,146.705 118.929,265.633 265.634,265.633 C -118.928,265.633 0,146.705 0,0"
             style="fill:#fa2c2e;fill-opacity:1;fill-rule:nonzero;stroke:none"
             id="path22" />
        </g>
        <g
           id="g24"
           transform="translate(659.793,304.3066)">
          <path
             d="m 0,0 c 0,-146.704 -118.928,-265.633 -265.633,-265.633 -146.705,0 -265.634,118.929 -265.634,265.633 0,146.705 118.929,265.633 265.634,265.633 C -118.928,265.633 0,146.705 0,0 Z"
             style="fill:none;stroke:#231f20;stroke-width:11.947;stroke-linecap:butt;stroke-linejoin:miter;stroke-miterlimit:10;stroke-dasharray:none;stroke-opacity:1"
             id="path26" />
        </g>
        <g
           id="g28"
           transform="translate(577.8965,304.3076)">
          <path
             d="m 0,0 c 0,-101.477 -82.262,-183.74 -183.738,-183.74 -101.473,0 -183.736,82.263 -183.736,183.74 0,101.476 82.263,183.738 183.736,183.738 C -82.262,183.738 0,101.476 0,0"
             style="fill:#ffffff;fill-opacity:1;fill-rule:nonzero;stroke:none"
             id="path30" />
        </g>
        <g
           id="g32"
           transform="translate(577.8965,304.3076)">
          <path
             d="m 0,0 c 0,-101.477 -82.262,-183.74 -183.738,-183.74 -101.473,0 -183.736,82.263 -183.736,183.74 0,101.476 82.263,183.738 183.736,183.738 C -82.262,183.738 0,101.476 0,0 Z"
             style="fill:none;stroke:#231f20;stroke-width:6.226;stroke-linecap:butt;stroke-linejoin:miter;stroke-miterlimit:10;stroke-dasharray:none;stroke-opacity:1"
             id="path34" />
        </g>
        <g
           id="g36"
           transform="translate(218.4614,434.2461)">
          <path
             d="M 0,0 -15.257,6.968 -15.339,6.851 -3.61,-5.104 Z M 17.673,-18.944 5.57,-36.052 l -8.05,5.697 c 0.13,2.432 -2.077,4.254 -3.498,5.955 L -33.542,4.938 -17.952,26.974 20.067,10.95 c 1.635,-0.722 4.586,-1.941 6.294,-0.539 l 8.051,-5.696 -13.826,-19.543 -8.05,5.697 c 0.438,1.517 0,2.697 -1.218,3.559 -0.476,0.337 -0.983,0.521 -1.488,0.705 l -5.292,-7.481 c 0.34,-0.415 0.736,-0.869 1.159,-1.169 1.272,-0.9 2.664,-0.84 3.926,0.269 z"
             style="fill:#ffffff;fill-opacity:1;fill-rule:nonzero;stroke:none"
             id="path38" />
        </g>
        <g
           id="g40"
           transform="translate(218.4614,434.2461)">
          <path
             d="M 0,0 -15.257,6.968 -15.339,6.851 -3.61,-5.104 Z M 17.673,-18.944 5.57,-36.052 l -8.05,5.697 c 0.13,2.432 -2.077,4.254 -3.498,5.955 L -33.542,4.938 -17.952,26.974 20.067,10.95 c 1.635,-0.722 4.586,-1.941 6.294,-0.539 l 8.051,-5.696 -13.826,-19.543 -8.05,5.697 c 0.438,1.517 0,2.697 -1.218,3.559 -0.476,0.337 -0.983,0.521 -1.488,0.705 l -5.292,-7.481 c 0.34,-0.415 0.736,-0.869 1.159,-1.169 1.272,-0.9 2.664,-0.84 3.926,0.269 z"
             style="fill:none;stroke:#231f20;stroke-width:3.082;stroke-linecap:butt;stroke-linejoin:miter;stroke-miterlimit:10;stroke-dasharray:none;stroke-opacity:1"
             id="path42" />
        </g>
        <g
           id="g44"
           transform="translate(266.5664,464.2295)">
          <path
             d="m 0,0 1.291,1 c 3.65,2.829 3.909,5.162 1.206,8.649 -2.623,3.386 -4.949,3.718 -8.599,0.891 L -7.393,9.539 Z m -13.792,17.796 1.011,0.783 c 3.312,2.567 4.48,4.539 1.936,7.821 -2.504,3.23 -4.912,2.513 -8.058,0.077 l -1.011,-0.783 z m 3.965,-40.02 -6.042,7.796 c 1.168,1.972 0.303,3.436 -0.794,4.967 l -16.573,21.385 c -1.21,1.444 -2.411,2.647 -4.613,2.009 l -6.042,7.796 21.787,16.878 c 3.763,2.915 7.935,6.229 12.622,6.907 5.144,0.783 9.186,-1.996 12.007,-5.637 3.896,-5.026 4.369,-10.159 0.052,-15.72 l 0.079,-0.103 c 6.734,4.068 12.365,1.208 16.34,-3.92 2.782,-3.591 4.983,-8.287 3.627,-13.031 -1.437,-5.218 -5.778,-8.662 -9.99,-11.925 z"
             style="fill:#ffffff;fill-opacity:1;fill-rule:nonzero;stroke:none"
             id="path46" />
        </g>
        <g
           id="g48"
           transform="translate(266.5664,464.2295)">
          <path
             d="m 0,0 1.291,1 c 3.65,2.829 3.909,5.162 1.206,8.649 -2.623,3.386 -4.949,3.718 -8.599,0.891 L -7.393,9.539 Z m -13.792,17.796 1.011,0.783 c 3.312,2.567 4.48,4.539 1.936,7.821 -2.504,3.23 -4.912,2.513 -8.058,0.077 l -1.011,-0.783 z m 3.965,-40.02 -6.042,7.796 c 1.168,1.972 0.303,3.436 -0.794,4.967 l -16.573,21.385 c -1.21,1.444 -2.411,2.647 -4.613,2.009 l -6.042,7.796 21.787,16.878 c 3.763,2.915 7.935,6.229 12.622,6.907 5.144,0.783 9.186,-1.996 12.007,-5.637 3.896,-5.026 4.369,-10.159 0.052,-15.72 l 0.079,-0.103 c 6.734,4.068 12.365,1.208 16.34,-3.92 2.782,-3.591 4.983,-8.287 3.627,-13.031 -1.437,-5.218 -5.778,-8.662 -9.99,-11.925 z"
             style="fill:none;stroke:#231f20;stroke-width:3.082;stroke-linecap:butt;stroke-linejoin:miter;stroke-miterlimit:10;stroke-dasharray:none;stroke-opacity:1"
             id="path50" />
        </g>
        <g
           id="g52"
           transform="translate(287.5645,512.1128)">
          <path
             d="m 0,0 c -0.874,1.883 -1.558,3.855 -4.166,4.074 l -4.156,8.944 20.934,9.731 4.159,-8.944 C 15.257,11.67 16.324,9.877 17.2,7.995 l 10.53,-22.654 c 0.875,-1.883 1.557,-3.856 4.166,-4.074 l 4.158,-8.944 -20.936,-9.732 -4.158,8.944 c 1.515,2.135 0.446,3.928 -0.429,5.811 z"
             style="fill:#ffffff;fill-opacity:1;fill-rule:nonzero;stroke:none"
             id="path54" />
        </g>
        <g
           id="g56"
           transform="translate(287.5645,512.1128)">
          <path
             d="m 0,0 c -0.874,1.883 -1.558,3.855 -4.166,4.074 l -4.156,8.944 20.934,9.731 4.159,-8.944 C 15.257,11.67 16.324,9.877 17.2,7.995 l 10.53,-22.654 c 0.875,-1.883 1.557,-3.856 4.166,-4.074 l 4.158,-8.944 -20.936,-9.732 -4.158,8.944 c 1.515,2.135 0.446,3.928 -0.429,5.811 z"
             style="fill:none;stroke:#231f20;stroke-width:3.082;stroke-linecap:butt;stroke-linejoin:miter;stroke-miterlimit:10;stroke-dasharray:none;stroke-opacity:1"
             id="path58" />
        </g>
        <g
           id="g60"
           transform="translate(355.397,524.688)">
          <path
             d="M 0,0 0.139,0.029 -1.86,9.621 c -0.424,2.032 -0.64,4.108 -3.129,4.914 l -2.013,9.655 19.053,3.974 2.012,-9.655 c -1.96,-1.735 -1.327,-3.724 -0.903,-5.756 l 8.224,-39.445 -18.009,-3.756 -16.155,22.149 -0.14,-0.03 1.973,-9.463 c 0.424,-2.034 0.639,-4.109 3.13,-4.916 l 2.012,-9.655 -18.496,-3.857 -2.013,9.655 c 1.96,1.734 1.329,3.724 0.904,5.756 l -5.098,24.455 c -0.425,2.032 -0.64,4.108 -3.131,4.915 l -2.012,9.654 20.165,4.205 z"
             style="fill:#ffffff;fill-opacity:1;fill-rule:nonzero;stroke:none"
             id="path62" />
        </g>
        <g
           id="g64"
           transform="translate(355.397,524.688)">
          <path
             d="M 0,0 0.139,0.029 -1.86,9.621 c -0.424,2.032 -0.64,4.108 -3.129,4.914 l -2.013,9.655 19.053,3.974 2.012,-9.655 c -1.96,-1.735 -1.327,-3.724 -0.903,-5.756 l 8.224,-39.445 -18.009,-3.756 -16.155,22.149 -0.14,-0.03 1.973,-9.463 c 0.424,-2.034 0.639,-4.109 3.13,-4.916 l 2.012,-9.655 -18.496,-3.857 -2.013,9.655 c 1.96,1.734 1.329,3.724 0.904,5.756 l -5.098,24.455 c -0.425,2.032 -0.64,4.108 -3.131,4.915 l -2.012,9.654 20.165,4.205 z"
             style="fill:none;stroke:#231f20;stroke-width:3.082;stroke-linecap:butt;stroke-linejoin:miter;stroke-miterlimit:10;stroke-dasharray:none;stroke-opacity:1"
             id="path66" />
        </g>
        <g
           id="g68"
           transform="translate(433.9248,531.4648)">
          <path
             d="m 0,0 -18.207,1.349 0.091,1.23 c 0.182,2.458 1.098,7.139 -3.081,7.448 -3.543,0.263 -4.052,-2.756 -4.229,-5.151 l -1.826,-24.648 c -0.043,-0.582 0.016,-3.645 3.558,-3.907 4.18,-0.31 3.963,4.455 4.15,6.978 l 0.182,2.458 -3.259,0.243 0.801,10.803 21.465,-1.591 -1.959,-26.46 c -6.315,-4.476 -15.395,-4.909 -23.117,-4.336 -5.455,0.404 -11.66,1.254 -15.737,4.874 -5.275,4.749 -5.185,9.817 -4.735,15.898 l 1.562,21.091 c 0.364,4.917 1.356,9.657 5.998,12.695 4.647,3.104 10.736,3.563 16.33,3.148 8.291,-0.614 16.734,-2.996 23.047,-8.148 z"
             style="fill:#ffffff;fill-opacity:1;fill-rule:nonzero;stroke:none"
             id="path70" />
        </g>
        <g
           id="g72"
           transform="translate(433.9248,531.4648)">
          <path
             d="m 0,0 -18.207,1.349 0.091,1.23 c 0.182,2.458 1.098,7.139 -3.081,7.448 -3.543,0.263 -4.052,-2.756 -4.229,-5.151 l -1.826,-24.648 c -0.043,-0.582 0.016,-3.645 3.558,-3.907 4.18,-0.31 3.963,4.455 4.15,6.978 l 0.182,2.458 -3.259,0.243 0.801,10.803 21.465,-1.591 -1.959,-26.46 c -6.315,-4.476 -15.395,-4.909 -23.117,-4.336 -5.455,0.404 -11.66,1.254 -15.737,4.874 -5.275,4.749 -5.185,9.817 -4.735,15.898 l 1.562,21.091 c 0.364,4.917 1.356,9.657 5.998,12.695 4.647,3.104 10.736,3.563 16.33,3.148 8.291,-0.614 16.734,-2.996 23.047,-8.148 z"
             style="fill:none;stroke:#231f20;stroke-width:3.082;stroke-linecap:butt;stroke-linejoin:miter;stroke-miterlimit:10;stroke-dasharray:none;stroke-opacity:1"
             id="path74" />
        </g>
        <g
           id="g76"
           transform="translate(462.4248,497.7402)">
          <path
             d="m 0,0 1.403,-0.508 c 3.872,-1.403 5.539,-0.558 6.91,3.224 l 7.141,19.704 c 1.37,3.782 0.632,5.499 -3.241,6.902 l -1.402,0.509 z m 19.553,39.569 c 4.875,-1.767 10.463,-3.861 13.498,-8.204 3.459,-5.049 2.202,-9.977 0.389,-14.979 L 26.345,-3.196 c -1.858,-5.125 -3.563,-8.993 -9.252,-11.141 -5.356,-2.062 -10.542,-0.528 -15.951,1.432 l -25.246,9.147 3.36,9.273 c 2.292,0.067 3.067,1.58 3.774,3.325 l 9.219,25.439 c 0.597,1.854 1.017,3.428 -0.768,4.971 l 3.362,9.272 z"
             style="fill:#ffffff;fill-opacity:1;fill-rule:nonzero;stroke:none"
             id="path78" />
        </g>
        <g
           id="g80"
           transform="translate(462.4248,497.7402)">
          <path
             d="m 0,0 1.403,-0.508 c 3.872,-1.403 5.539,-0.558 6.91,3.224 l 7.141,19.704 c 1.37,3.782 0.632,5.499 -3.241,6.902 l -1.402,0.509 z m 19.553,39.569 c 4.875,-1.767 10.463,-3.861 13.498,-8.204 3.459,-5.049 2.202,-9.977 0.389,-14.979 L 26.345,-3.196 c -1.858,-5.125 -3.563,-8.993 -9.252,-11.141 -5.356,-2.062 -10.542,-0.528 -15.951,1.432 l -25.246,9.147 3.36,9.273 c 2.292,0.067 3.067,1.58 3.774,3.325 l 9.219,25.439 c 0.597,1.854 1.017,3.428 -0.768,4.971 l 3.362,9.272 z"
             style="fill:none;stroke:#231f20;stroke-width:3.082;stroke-linecap:butt;stroke-linejoin:miter;stroke-miterlimit:10;stroke-dasharray:none;stroke-opacity:1"
             id="path82" />
        </g>
        <g
           id="g84"
           transform="translate(513.6201,475.4888)">
          <path
             d="m 0,0 c -0.228,-0.316 -2.718,-3.399 0.451,-5.687 3.167,-2.287 5.312,1.046 5.539,1.361 l 14.735,20.409 c 0.228,0.315 2.679,3.346 -0.489,5.634 -3.167,2.287 -5.272,-0.993 -5.5,-1.309 z m 21.86,-14.746 c -8.051,-11.151 -17.551,-8.532 -28.435,-0.671 -10.885,7.86 -16.36,16.055 -8.308,27.206 l 13.71,18.987 C 6.879,41.927 16.378,39.308 27.263,31.448 38.147,23.587 43.621,15.392 35.57,4.242 Z"
             style="fill:#ffffff;fill-opacity:1;fill-rule:nonzero;stroke:none"
             id="path86" />
        </g>
        <g
           id="g88"
           transform="translate(513.6201,475.4888)">
          <path
             d="m 0,0 c -0.228,-0.316 -2.718,-3.399 0.451,-5.687 3.167,-2.287 5.312,1.046 5.539,1.361 l 14.735,20.409 c 0.228,0.315 2.679,3.346 -0.489,5.634 -3.167,2.287 -5.272,-0.993 -5.5,-1.309 z m 21.86,-14.746 c -8.051,-11.151 -17.551,-8.532 -28.435,-0.671 -10.885,7.86 -16.36,16.055 -8.308,27.206 l 13.71,18.987 C 6.879,41.927 16.378,39.308 27.263,31.448 38.147,23.587 43.621,15.392 35.57,4.242 Z"
             style="fill:none;stroke:#231f20;stroke-width:3.082;stroke-linecap:butt;stroke-linejoin:miter;stroke-miterlimit:10;stroke-dasharray:none;stroke-opacity:1"
             id="path90" />
        </g>
        <g
           id="g92"
           transform="translate(575.3555,436.4243)">
          <path
             d="m 0,0 0.088,-0.112 7.714,6.038 c 1.634,1.28 3.4,2.392 3.021,4.981 L 18.587,16.985 30.585,1.658 22.82,-4.42 c -2.422,0.99 -3.925,-0.457 -5.561,-1.736 L -14.463,-30.987 -25.804,-16.5 -13.1,7.789 -13.188,7.9 -20.799,1.943 c -1.635,-1.279 -3.4,-2.391 -3.02,-4.981 l -7.765,-6.078 -11.648,14.88 7.765,6.077 c 2.422,-0.99 3.926,0.457 5.56,1.737 l 19.668,15.394 c 1.634,1.28 3.4,2.392 3.021,4.981 L 0.546,40.031 13.245,23.81 Z"
             style="fill:#ffffff;fill-opacity:1;fill-rule:nonzero;stroke:none"
             id="path94" />
        </g>
        <g
           id="g96"
           transform="translate(575.3555,436.4243)">
          <path
             d="m 0,0 0.088,-0.112 7.714,6.038 c 1.634,1.28 3.4,2.392 3.021,4.981 L 18.587,16.985 30.585,1.658 22.82,-4.42 c -2.422,0.99 -3.925,-0.457 -5.561,-1.736 L -14.463,-30.987 -25.804,-16.5 -13.1,7.789 -13.188,7.9 -20.799,1.943 c -1.635,-1.279 -3.4,-2.391 -3.02,-4.981 l -7.765,-6.078 -11.648,14.88 7.765,6.077 c 2.422,-0.99 3.926,0.457 5.56,1.737 l 19.668,15.394 c 1.634,1.28 3.4,2.392 3.021,4.981 L 0.546,40.031 13.245,23.81 Z"
             style="fill:none;stroke:#231f20;stroke-width:3.082;stroke-linecap:butt;stroke-linejoin:miter;stroke-miterlimit:10;stroke-dasharray:none;stroke-opacity:1"
             id="path98" />
        </g>
        <g
           id="g100"
           transform="translate(482.0479,160.3965)">
          <path
             d="m 0,0 c 10.444,3.635 34.527,16.196 32.887,34.195 4.566,4.872 6.624,7.507 9.935,12.598 0.385,0.584 0.757,1.158 1.124,1.717 3.633,0.094 7.288,0.408 11.121,0.95 10.588,1.189 13.744,15.5 15.429,29.351 0.96,7.856 0.406,19.357 -1.44,30.088 0.665,4.986 0.492,9.387 0.324,13.655 -0.057,1.604 -0.031,3.119 -0.135,4.65 -1.651,24.361 -17.895,45.689 -40.673,63.797 -2.051,1.828 -4.1,3.627 -6.125,5.403 -0.167,0.144 -0.331,0.287 -0.498,0.432 1.475,6.278 -0.514,12.093 -2.695,12.3 -2.028,-0.401 -2.684,-5.632 -4.987,-7.711 -0.097,0.064 -0.19,0.128 -0.285,0.192 2.449,9.609 1.078,25.047 -9.953,26.841 -2.122,-0.028 1.839,-8.598 0.658,-12.398 -1.958,8.18 -5.026,15.807 -10.323,22.421 -1.396,1.744 -8.986,11.35 -12.107,9.27 -2.788,-1.854 2.824,-12.446 3.565,-14.52 0.135,-0.364 0.257,-0.727 0.384,-1.092 -11.323,15.612 -26.572,28.565 -45.546,38.641 -26.638,14.144 -52.254,18.101 -65.153,19.203 -18.444,1.57 -27.811,0.776 -31.306,-2.657 -1.051,-1.03 -1.64,-2.338 -1.701,-3.731 -0.436,-2.313 0.854,-4.469 3.85,-6.41 1.926,-1.252 4.571,-2.493 7.376,-3.804 1.724,-0.812 3.652,-1.714 5.527,-2.692 -18.917,4.678 -43.437,7.532 -56.315,0.671 -4.682,-2.492 -5.051,-5.728 -4.861,-7.436 0.123,-1.084 0.528,-2.117 1.183,-3.094 -9.907,-1.834 -16.107,-4.821 -20.414,-7.284 -12.074,-6.907 -19.262,-19.274 -15.696,-27.007 0.95,-2.059 3.471,-5.548 9.679,-5.819 3.127,-0.134 6.895,0.578 11.185,2.122 7.929,2.85 13.855,4.091 19.642,4.095 5.809,-1.776 7.842,-3.728 9.27,-8.837 5.816,-31.661 -9.045,-46.176 -30.351,-70.279 l -1.301,-1.472 c -9.827,-11.123 -14.16,-24.209 -12.875,-38.893 2.39,-27.38 22.569,-52.744 44.715,-70.357 0,0 40.761,-36.606 107.343,-18.046 C -58.19,-1.028 -46.336,-16.125 0,0"
             style="fill:#231f20;fill-opacity:1;fill-rule:nonzero;stroke:none"
             id="path102" />
        </g>
        <g
           id="g104"
           transform="translate(463.5439,285.5752)">
          <path
             d="m 0,0 c 4.135,8.822 5.709,12.283 -0.715,11.824 1.234,2.364 3.39,6.102 5.985,7.202 C 16.695,23.885 12.317,7.221 0,0 M 11.323,30.275 C 9.456,30.38 7.638,30.48 5.858,30.589 5.087,29.821 4.29,29.035 3.49,28.228 -4.37,20.383 -13.749,11.022 -23.058,6.275 c -3.757,-2.286 -15.321,-8.126 -24.963,-7.797 0,0 6.185,2.478 16.943,6.689 -14.186,-3.366 -28.909,-3.515 -43.235,-0.354 -14.991,3.313 -24.342,-4.908 -27.666,-8.596 -4.518,-5.005 -6.02,-10.221 -5.168,-12.78 1.493,-4.492 5.418,-7.413 10.855,-11.45 3.854,-2.871 8.316,-6.194 12.948,-10.873 -2.003,4.326 -3.456,7.208 -3.492,7.275 l -1.064,2.099 1.992,-1.255 c 8.348,-5.259 12.258,-15.591 16.4,-26.528 0.311,-0.816 0.623,-1.636 0.933,-2.457 1.758,-4.599 3.569,-9.338 5.535,-14.018 6.746,-16.042 15.142,-36.012 32.881,-44.454 5.226,-2.493 11.079,-3.894 17.388,-4.168 11.436,-0.495 24.424,2.803 35.644,9.045 13.605,7.573 19.53,15.499 17.613,23.558 -1.354,5.655 -6.427,11.36 -10.907,16.395 -1.654,1.866 -3.204,3.608 -4.579,5.334 -0.401,0.514 -0.816,1.029 -1.22,1.54 -0.492,0.135 -0.99,0.27 -1.475,0.412 -1.641,-2.76 2.149,-13.631 2.389,-15.725 -17.16,6.653 -12.55,-6.917 -33.868,-6.828 2.618,-1.126 5.496,-2.058 8.68,-2.762 28.969,-6.401 27.052,8.822 27.052,8.822 5.328,-3.451 5.561,-9.598 4.749,-10.707 -2.745,-3.761 -11.235,-6.697 -19.416,-6.339 -5.097,0.218 -10.107,0.963 -13.615,1.868 -4.493,1.165 -12.584,3.795 -19.879,9.571 h -0.003 v 0.004 c -9.451,7.486 -15.221,19.835 -21.977,31.859 l -0.633,1.131 c -0.829,1.469 -1.666,2.99 -2.518,4.55 -7.57,13.794 -16.12,29.367 -30.881,32.54 -5.047,0.724 -8.755,-0.557 -14.28,-3.631 0.573,2.742 1.74,5.747 3.726,7.769 8.12,8.281 26.652,4.96 36.836,0.637 -1.723,-0.058 -3.411,-0.182 -5.066,-0.358 4.933,-2.438 9.558,-5.627 13.798,-8.552 1.028,-0.705 2.043,-1.41 3.053,-2.091 2.904,-1.968 5.774,-3.944 8.614,-5.904 18.225,-12.558 35.426,-24.42 57.131,-30.181 16.111,-4.277 27.897,-6.905 44.359,-4.541 l 0.134,0.018 c 1.92,0.195 5.485,3.269 7.725,21.688 C 80.668,-24.775 76.103,1.261 63.017,15.244 51.002,28.09 29.925,29.25 11.323,30.275"
             style="fill:#ffffff;fill-opacity:1;fill-rule:nonzero;stroke:none"
             id="path106" />
        </g>
        <g
           id="g108"
           transform="translate(526.5605,300.8193)">
          <path
             d="m 0,0 c -12.015,12.846 -33.092,14.005 -51.693,15.031 -1.868,0.105 -3.686,0.205 -5.465,0.314 -0.772,-0.768 -1.569,-1.554 -2.368,-2.361 -1.717,-1.714 -3.506,-3.501 -5.357,-5.293 10.159,4.324 24.198,4.621 24.72,-8.341 0.104,-1.067 0.026,-2.09 -0.15,-3.082 21.241,6.761 45.572,-16.649 45.288,-37.291 -0.31,-7.062 -0.625,-14.119 -3.037,-20.785 -34.652,-8.631 -72.681,12.243 -100.846,27.883 2.549,1.142 5.287,0.407 7.972,0.196 -15.132,9.512 -37.118,17.519 -52.931,8.574 9.153,2.562 21.758,-0.145 29.517,-3.438 -1.722,-0.058 -3.411,-0.182 -5.066,-0.358 4.934,-2.438 9.559,-5.627 13.799,-8.552 1.027,-0.705 2.043,-1.41 3.053,-2.091 2.904,-1.969 5.773,-3.944 8.614,-5.904 18.224,-12.558 35.426,-24.42 57.131,-30.181 16.11,-4.277 27.896,-6.905 44.358,-4.541 l 0.135,0.018 c 1.92,0.195 5.484,3.268 7.724,21.688 C 17.651,-40.02 13.086,-13.983 0,0"
             style="fill:#ffffff;fill-opacity:1;fill-rule:nonzero;stroke:none"
             id="path110" />
        </g>
        <g
           id="g112"
           transform="translate(416.3359,185.9854)">
          <path
             d="m 0,0 c -1.968,1.095 -3.819,2.477 -5.533,4.065 5.455,-9.396 12.514,-17.905 22.582,-22.699 5.226,-2.493 11.079,-3.894 17.389,-4.168 11.435,-0.495 24.423,2.803 35.643,9.045 2.232,1.245 4.261,2.499 6.075,3.761 C 52.561,-20.155 29.423,-18.32 0,0"
             style="fill:#ffffff;fill-opacity:1;fill-rule:nonzero;stroke:none"
             id="path114" />
        </g>
        <g
           id="g116"
           transform="translate(488.5439,217.5156)">
          <path
             d="m 0,0 c -0.401,0.514 -0.816,1.028 -1.22,1.54 -0.492,0.135 -0.99,0.27 -1.475,0.411 -1.641,-2.76 2.149,-13.631 2.389,-15.724 -17.16,6.653 -12.55,-6.917 -33.868,-6.829 2.618,-1.126 5.496,-2.057 8.68,-2.761 1.007,-0.224 1.973,-0.416 2.906,-0.586 5.699,5.003 15.256,8.066 21.473,2.586 3.154,3.007 2.673,6.822 2.673,6.822 1.972,-1.278 3.24,-2.92 4.019,-4.545 2.428,2.055 5.292,3.07 7.85,2.354 -2.239,3.964 -5.685,7.85 -8.848,11.398 C 2.925,-3.469 1.375,-1.727 0,0"
             style="fill:#ffffff;fill-opacity:1;fill-rule:nonzero;stroke:none"
             id="path118" />
        </g>
        <g
           id="g120"
           transform="translate(394.0801,258.584)">
          <path
             d="m 0,0 c 0.277,1.788 1.278,3.055 2.629,3.796 -3.201,2.416 -6.759,4.209 -10.78,5.071 -5.047,0.724 -8.755,-0.556 -14.28,-3.631 0.486,2.324 1.404,4.833 2.883,6.778 -1.039,-0.16 -2.215,-0.265 -3.402,-0.605 -5.746,-0.192 -11.346,2.904 -12.617,7.68 -2.106,-3.557 -2.731,-6.807 -2.117,-8.661 1.494,-4.491 5.419,-7.412 10.856,-11.449 3.853,-2.872 8.316,-6.195 12.948,-10.874 -2.003,4.327 -3.456,7.208 -3.492,7.275 l -1.065,2.099 1.993,-1.254 c 8.348,-5.26 12.257,-15.592 16.4,-26.529 0.311,-0.816 0.623,-1.635 0.933,-2.457 0.051,-0.126 0.096,-0.253 0.147,-0.377 C -1.47,-22.426 -2.107,-11.235 0,0"
             style="fill:#ffffff;fill-opacity:1;fill-rule:nonzero;stroke:none"
             id="path122" />
        </g>
        <g
           id="g124"
           transform="translate(420.7988,237.1025)">
          <path
             d="m 0,0 c 0.849,-1.544 1.677,-3.055 2.494,-4.51 l 0.64,-1.13 c 6.2,-11.042 11.638,-18.332 19.924,-25.38 l 0.013,0.044 c 7.241,-2.988 13.61,-5.338 19.159,-1.87 4.252,2.662 6.481,5.205 6.624,7.573 0.233,3.856 -4.925,8.024 -9.916,12.051 -1.195,0.966 -2.439,1.967 -3.588,2.96 -2.495,2.14 -4.589,4.269 -6.433,6.149 -4.736,4.82 -7.906,8.039 -13.732,7.913 7.864,-4.576 13.794,-12.173 16.887,-19.86 0,0 -18.58,18.823 -33.912,19.402 C -1.215,2.214 -0.604,1.097 0,0"
             style="fill:#fa2c2e;fill-opacity:1;fill-rule:nonzero;stroke:none"
             id="path126" />
        </g>
        <g
           id="g128"
           transform="translate(416.4111,244.9922)">
          <path
             d="m 0,0 c -0.029,0.031 -0.062,0.063 -0.093,0.098 0.022,-0.035 0.039,-0.069 0.064,-0.102 0.008,0 0.016,0 0.029,0.004"
             style="fill:#ed1c24;fill-opacity:1;fill-rule:nonzero;stroke:none"
             id="path130" />
        </g>
        <g
           id="g132"
           transform="translate(415.499,355.4141)">
          <path
             d="m 0,0 c -7.938,1.902 -15.279,-0.82 -20.131,-7.463 -7.185,-9.828 -9.334,-27.402 5.959,-52.717 l -0.264,-0.159 c 24.6,-5.692 42.18,4.027 42.18,4.027 C 32.106,-32.627 25.219,-6.032 0,0"
             style="fill:#ffffff;fill-opacity:1;fill-rule:nonzero;stroke:none"
             id="path134" />
        </g>
        <g
           id="g136"
           transform="translate(505.3223,318.9717)">
          <path
             d="m 0,0 c 1.558,6.426 0.951,12.723 -1.852,19.582 -2.709,6.622 -14.073,23.085 -21.198,23.394 h -0.056 c -0.709,0.021 -2.857,0.09 -4.841,-4 -5.1,-10.542 5.29,-27.184 11.225,-36.491 C -11.079,1.989 -5.423,1.253 0,0"
             style="fill:#ffffff;fill-opacity:1;fill-rule:nonzero;stroke:none"
             id="path138" />
        </g>
        <g
           id="g140"
           transform="translate(316.98,391.4419)">
          <path
             d="m 0,0 c 0,0 -15.326,-0.988 -18.656,-3.435 16.61,-15.158 11.677,-42.761 11.677,-42.761 -0.656,4.679 -3.742,13.824 -4.877,17.692 -0.516,-25.04 -14.248,-40.57 -31.973,-60.622 l -1.296,-1.469 c -8.171,-9.249 -11.774,-20.122 -10.711,-32.318 2.153,-24.634 22.62,-49.083 39.491,-62.532 19.552,-15.579 42.277,-21.312 65.178,-23.861 -3.956,4.227 -7.733,8.701 -11.38,13.389 9.151,-5.764 27.159,-13.725 37.511,-6.591 20.778,14.316 -26.326,56.238 -39.806,62.105 -8.373,3.649 -17.847,6.147 -13.921,17.068 1.804,5.015 5.811,9.608 10.234,13.786 -7.07,-0.782 -13.014,1.632 -15.856,11.306 4.333,1.192 6.259,4.899 7.739,8.851 5.442,14.509 0.785,28.806 13.107,40.912 -4.415,-3.069 -9.854,-8.563 -15.037,-10.098 -11.689,-3.461 -5.009,8.094 -0.603,13.758 6.053,7.781 14.423,14.359 23.627,17.925 -5.038,0.15 -15.363,-0.676 -12.021,5.98 6.482,12.924 39.134,11.78 54.99,6.367 5.974,-2.039 11.056,-4.655 15.552,-7.457 0.004,0.007 0.012,0.019 0.012,0.028 0.066,-0.051 0.139,-0.108 0.202,-0.163 9.241,-5.793 16.01,-12.357 22.982,-16.289 4.79,-2.368 9.672,-3.842 14.179,-3.44 0.23,0.021 0.465,0.054 0.698,0.078 3.429,0.461 6.625,2.054 9.381,5.231 3.024,3.485 4.191,9.089 4.808,14.581 0.019,1.426 -0.01,2.855 -0.097,4.288 C 131.523,28.821 78.492,49.173 40.021,52.452 21.467,54.035 15.958,52.726 14.371,51.982 38.802,42.742 42.619,26.825 42.619,26.825 28.626,33.381 -19.878,42.706 -30.35,33.525 -30.312,29.668 0.994,22.469 0.994,22.469 -16.864,22.173 -35.295,24.27 -51.729,14.874 -60.559,9.824 -65.289,1.34 -63.808,-0.825 -61.192,-4.637 -28.967,9.473 0,0"
             style="fill:#fa2c2e;fill-opacity:1;fill-rule:nonzero;stroke:none"
             id="path142" />
        </g>
        <g
           id="g144"
           transform="translate(497.4736,216.1035)">
          <path
             d="m 0,0 c 3.594,-4.04 7.512,-8.455 10.042,-13.274 2.735,2.943 5.287,6.811 7.769,10.631 -6.061,0.486 -11.92,1.594 -18.212,3.1 C -0.27,0.304 -0.136,0.155 0,0"
             style="fill:#fa2c2e;fill-opacity:1;fill-rule:nonzero;stroke:none"
             id="path146" />
        </g>
        <g
           id="g148"
           transform="translate(424.8789,311.3408)">
          <path
             d="m 0,0 c 2.826,-9.75 -1.179,-19.48 -8.945,-21.729 -7.764,-2.249 -16.351,3.836 -19.169,13.588 -2.827,9.75 1.174,19.481 8.94,21.73 C -11.402,15.837 -2.824,9.751 0,0"
             style="fill:#231f20;fill-opacity:1;fill-rule:nonzero;stroke:none"
             id="path150" />
        </g>
        <g
           id="g152"
           transform="translate(498.4531,331.5752)">
          <path
             d="m 0,0 c 1.907,-6.355 -0.649,-12.734 -5.71,-14.254 -5.059,-1.519 -10.706,2.405 -12.618,8.76 -1.899,6.356 0.655,12.74 5.72,14.256 C -7.555,10.28 -1.904,6.357 0,0"
             style="fill:#231f20;fill-opacity:1;fill-rule:nonzero;stroke:none"
             id="path154" />
        </g>
        <g
           id="g156"
           transform="translate(368.2397,282.8086)">
          <path
             d="m 0,0 c 0.535,-1.849 4.397,-2.357 8.637,-1.135 4.235,1.217 7.238,3.701 6.707,5.547 C 14.81,6.261 10.948,6.77 6.711,5.55 2.472,4.333 -0.53,1.846 0,0"
             style="fill:#ffffff;fill-opacity:1;fill-rule:nonzero;stroke:none"
             id="path158" />
        </g>
        <g
           id="g160"
           transform="translate(412.249,233.8867)">
          <path
             d="M 0,0 C -5.198,-19.315 7.224,-30.377 22.252,-37.556 11.893,-27.779 8.521,-11.925 0,0"
             style="fill:#ffffff;fill-opacity:1;fill-rule:nonzero;stroke:none"
             id="path162" />
        </g>
        <g
           id="g164"
           transform="translate(421.9229,306.2529)">
          <path
             d="M 0,0 C -1.907,-4.922 -9.129,-9.462 -13.788,-9.977 -9.007,-12.749 1.921,-12.568 0,0"
             style="fill:#231f20;fill-opacity:1;fill-rule:nonzero;stroke:none"
             id="path166" />
        </g>
        <g
           id="g168"
           transform="translate(496.502,331.7129)">
          <path
             d="M 0,0 C -1.853,-5.485 -5.108,-6.229 -9.826,-7.675 -1.824,-11.778 2.347,-6.875 0,0"
             style="fill:#231f20;fill-opacity:1;fill-rule:nonzero;stroke:none"
             id="path170" />
        </g>
        <g
           id="g172"
           transform="translate(406.627,315.1787)">
          <path
             d="M 0,0 C -0.09,-2.066 -1.329,-3.687 -2.765,-3.627 -4.2,-3.564 -5.294,-1.841 -5.201,0.228 -5.113,2.29 -3.877,3.911 -2.44,3.851 -1.005,3.786 0.089,2.063 0,0"
             style="fill:#ffffff;fill-opacity:1;fill-rule:nonzero;stroke:none"
             id="path174" />
        </g>
        <g
           id="g176"
           transform="translate(487.5205,333.7783)">
          <path
             d="m 0,0 c -0.062,-1.549 -0.992,-2.765 -2.064,-2.72 -1.083,0.05 -1.898,1.339 -1.831,2.889 0.068,1.545 0.988,2.764 2.073,2.716 C -0.749,2.837 0.073,1.545 0,0"
             style="fill:#ffffff;fill-opacity:1;fill-rule:nonzero;stroke:none"
             id="path178" />
        </g>
        <g
           id="g180"
           transform="translate(481.8857,293.1631)">
          <path
             d="M 0,0 C -1.551,-6.772 -3.484,-9.988 -10.093,-12.712 9.641,-18.346 23.895,-28.254 41.937,-47.617 36.909,-25.221 16.423,-4.729 0,0"
             style="fill:#ffffff;fill-opacity:1;fill-rule:nonzero;stroke:none"
             id="path182" />
        </g>
        <g
           id="g184"
           transform="translate(180.5874,319.1831)">
          <path
             d="m 0,0 c 0,-5.219 -4.23,-9.45 -9.45,-9.45 -5.219,0 -9.449,4.231 -9.449,9.45 0,5.219 4.23,9.45 9.449,9.45 C -4.23,9.45 0,5.219 0,0"
             style="fill:#231f20;fill-opacity:1;fill-rule:nonzero;stroke:none"
             id="path186" />
        </g>
        <g
           id="g188"
           transform="translate(625.8418,319.1831)">
          <path
             d="m 0,0 c 0,-5.219 -4.23,-9.45 -9.449,-9.45 -5.219,0 -9.449,4.231 -9.449,9.45 0,5.219 4.23,9.45 9.449,9.45 C -4.23,9.45 0,5.219 0,0"
             style="fill:#231f20;fill-opacity:1;fill-rule:nonzero;stroke:none"
             id="path190" />
        </g>
      </g>
    </g>
    <text
       xml:space="preserve"
       transform="matrix(0.42647878,-0.90449757,-0.90449757,-0.42647878,155.2383,228.4482)"
       style="font-variant:normal;font-weight:800;font-stretch:normal;font-size:80px;font-family:'Rockwell Extra Bold';-inkscape-font-specification:Rockwell-ExtraBold;writing-mode:lr-tb;fill:#ffffff;fill-opacity:1;fill-rule:nonzero;stroke:none"
       id="text194"><tspan
         x="0"
         y="0"
         id="tspan192">G</tspan></text>
    <g
       id="g196">
      <g
         id="g198"
         clip-path="url(#clipPath202)">
        <g
           id="g204"
           transform="translate(181.4463,199.5186)">
          <path
             d="m 0,0 c -1.377,2.921 -1.45,5.607 -0.216,8.061 1.22,2.418 4.528,4.899 9.922,7.442 5.417,2.555 9.478,3.591 12.181,3.109 2.714,-0.506 4.804,-2.312 6.27,-5.422 1.044,-2.213 1.416,-4.407 1.115,-6.578 -0.3,-2.172 -1.266,-4.275 -2.897,-6.311 l 5.581,-11.836 17.171,8.096 -5.581,11.836 -3.427,-1.616 c 1.322,4.827 0.557,10.268 -2.297,16.322 C 34.401,30.357 29.169,35.376 22.128,38.16 15.063,40.99 7.704,40.601 0.049,36.991 -5.016,34.604 -8.996,31.2 -11.894,26.782 c -2.98,-4.428 -4.293,-9.337 -3.939,-14.726 0.295,-5.389 1.747,-10.851 4.357,-16.387 1.755,-3.722 3.988,-6.93 6.699,-9.625 2.71,-2.695 5.887,-4.58 9.532,-5.654 3.69,-1.111 6.968,-1.437 9.833,-0.979 2.97,0.48 7.14,1.985 12.511,4.518 L 16.736,5.905 7.408,1.507 9.774,-3.51 C 5.346,-5.599 2.088,-4.428 0,0 Z"
             style="fill:none;stroke:#231f20;stroke-width:3.6;stroke-linecap:butt;stroke-linejoin:miter;stroke-miterlimit:10;stroke-dasharray:none;stroke-opacity:1"
             id="path206" />
        </g>
      </g>
    </g>
    <text
       xml:space="preserve"
       transform="matrix(0.68135013,-0.73195764,-0.73195764,-0.68135013,193.3066,152.5615)"
       style="font-variant:normal;font-weight:800;font-stretch:normal;font-size:80px;font-family:'Rockwell Extra Bold';-inkscape-font-specification:Rockwell-ExtraBold;writing-mode:lr-tb;fill:#ffffff;fill-opacity:1;fill-rule:nonzero;stroke:none"
       id="text210"><tspan
         x="0"
         y="0"
         id="tspan208">R</tspan></text>
    <g
       id="g212">
      <g
         id="g214"
         clip-path="url(#clipPath218)">
        <g
           id="g220"
           transform="translate(245.3838,158.8779)">
          <path
             d="M 0,0 C 2.164,-2.325 3.588,-3.989 4.271,-4.99 4.989,-6.029 5.309,-7.137 5.23,-8.313 5.17,-9.472 4.626,-10.53 3.597,-11.488 c -1.031,-0.958 -2.116,-1.417 -3.256,-1.376 -1.18,0.006 -2.236,0.374 -3.166,1.108 -0.879,0.676 -2.365,2.14 -4.459,4.389 l -1.597,1.715 7.576,7.053 z m -20.039,-21.643 -2.795,3.002 6.719,6.255 4.552,-4.889 -8.176,-23.781 13.334,-14.325 9.521,8.863 -2.662,2.86 3.983,13.953 c 2.395,-1.007 4.919,-1.273 7.572,-0.796 2.671,0.493 5.036,1.699 7.095,3.615 2.744,2.555 4.31,5.65 4.699,9.284 0.367,3.581 -0.449,7.037 -2.449,10.37 -0.712,1.186 -1.557,2.428 -2.533,3.725 -0.976,1.297 -2.203,2.806 -3.679,4.527 -1.478,1.72 -3.121,3.552 -4.931,5.497 l -20.121,21.615 -9.522,-8.862 3.008,-3.232 -20.729,-19.296 -3.007,3.232 -9.522,-8.864 20.121,-21.615 z"
             style="fill:none;stroke:#231f20;stroke-width:3.6;stroke-linecap:butt;stroke-linejoin:miter;stroke-miterlimit:10;stroke-dasharray:none;stroke-opacity:1"
             id="path222" />
        </g>
      </g>
    </g>
    <text
       xml:space="preserve"
       transform="matrix(0.9017173,-0.43232616,-0.43232616,-0.9017173,256.1309,91.1201)"
       style="font-variant:normal;font-weight:800;font-stretch:normal;font-size:80px;font-family:'Rockwell Extra Bold';-inkscape-font-specification:Rockwell-ExtraBold;writing-mode:lr-tb;fill:#ffffff;fill-opacity:1;fill-rule:nonzero;stroke:none"
       id="text226"><tspan
         x="0"
         y="0"
         id="tspan224">A</tspan></text>
    <g
       id="g228">
      <g
         id="g230"
         clip-path="url(#clipPath234)">
        <g
           id="g236"
           transform="translate(296.1475,100.2227)">
          <path
             d="M 0,0 -8.771,4.205 2.346,15.554 Z m -14.647,-8.053 -4.016,1.925 5.103,5.134 12.54,-6.012 -1.088,-7.059 -4.297,2.06 -5.151,-10.743 25.572,-12.261 5.624,11.73 -3.593,1.722 2.874,30.03 3.945,-1.892 5.623,11.73 -35.222,16.887 -5.624,-11.729 3.945,-1.892 -21.438,-21.129 -3.733,1.79 -5.623,-11.729 19.407,-9.305 z"
             style="fill:none;stroke:#231f20;stroke-width:3.6;stroke-linecap:butt;stroke-linejoin:miter;stroke-miterlimit:10;stroke-dasharray:none;stroke-opacity:1"
             id="path238" />
        </g>
      </g>
    </g>
    <text
       xml:space="preserve"
       transform="matrix(0.99537144,-0.09610252,-0.09610252,-0.99537144,329.1777,59.5137)"
       style="font-variant:normal;font-weight:800;font-stretch:normal;font-size:80px;font-family:'Rockwell Extra Bold';-inkscape-font-specification:Rockwell-ExtraBold;writing-mode:lr-tb;fill:#ffffff;fill-opacity:1;fill-rule:nonzero;stroke:none"
       id="text242"><tspan
         x="0"
         y="0"
         id="tspan240">D</tspan></text>
    <g
       id="g244">
      <g
         id="g246"
         clip-path="url(#clipPath250)">
        <g
           id="g252"
           transform="translate(363.166,97.752)">
          <path
             d="m 0,0 c 4.147,-0.4 6.963,-1.313 8.448,-2.738 1.51,-1.428 2.477,-3.339 2.9,-5.735 0.396,-2.393 0.48,-4.782 0.25,-7.167 -0.383,-3.965 -1.427,-7.187 -3.131,-9.666 -1.731,-2.475 -5.059,-3.474 -9.984,-2.999 l -1.982,0.192 2.722,28.188 z m 11.594,-41.697 c 3.585,0.282 6.954,1.303 10.106,3.066 3.231,1.755 6.016,4.455 8.357,8.102 2.369,3.669 3.78,7.849 4.232,12.542 0.226,2.333 0.194,4.586 -0.093,6.758 -0.287,2.173 -0.807,4.239 -1.56,6.195 -1.517,4.071 -3.812,7.405 -6.883,10.005 -3.101,2.575 -6.495,4.407 -10.183,5.496 -3.663,1.086 -8.449,1.914 -14.359,2.485 l -25.895,2.5 -1.25,-12.948 4.238,-0.409 -2.722,-28.189 -4.237,0.409 -1.25,-12.948 25.156,-2.429 c 7.335,-0.708 12.783,-0.919 16.343,-0.635 z"
             style="fill:none;stroke:#231f20;stroke-width:3.6;stroke-linecap:butt;stroke-linejoin:miter;stroke-miterlimit:10;stroke-dasharray:none;stroke-opacity:1"
             id="path254" />
        </g>
      </g>
    </g>
    <text
       xml:space="preserve"
       transform="matrix(0.98364695,0.1801074,0.1801074,-0.98364695,414.877,54.0742)"
       style="font-variant:normal;font-weight:800;font-stretch:normal;font-size:80px;font-family:'Rockwell Extra Bold';-inkscape-font-specification:Rockwell-ExtraBold;writing-mode:lr-tb;fill:#ffffff;fill-opacity:1;fill-rule:nonzero;stroke:none"
       id="text258"><tspan
         x="0"
         y="0"
         id="tspan256">U</tspan></text>
    <g
       id="g260">
      <g
         id="g262"
         clip-path="url(#clipPath266)">
        <g
           id="g268"
           transform="translate(416.9883,78.7646)">
          <path
             d="m 0,0 c 0.98,-5.354 2.143,-9.245 3.487,-11.672 1.333,-2.51 3.068,-4.535 5.203,-6.077 2.14,-1.567 4.831,-2.53 8.075,-2.89 3.195,-0.393 6.754,-0.232 10.672,0.486 4.867,0.89 8.804,2.525 11.811,4.902 3.006,2.377 4.94,5.259 5.803,8.647 0.857,3.414 0.834,7.592 -0.072,12.537 l -3.545,19.365 4.226,0.774 -2.343,12.795 -20.095,-3.679 2.342,-12.795 2.69,0.492 3.532,-19.289 c 0.727,-3.971 0.811,-6.669 0.251,-8.095 -0.555,-1.452 -1.716,-2.34 -3.483,-2.663 -2.127,-0.39 -3.741,0.109 -4.841,1.496 -1.107,1.412 -2.053,4.27 -2.841,8.574 l -3.3,18.021 2.536,0.465 -2.342,12.794 -27.358,-5.009 2.343,-12.795 4.111,0.753 z"
             style="fill:none;stroke:#231f20;stroke-width:3.6;stroke-linecap:butt;stroke-linejoin:miter;stroke-miterlimit:10;stroke-dasharray:none;stroke-opacity:1"
             id="path270" />
        </g>
      </g>
    </g>
    <text
       xml:space="preserve"
       transform="matrix(0.87810735,0.47846367,0.47846367,-0.87810735,487.2451,69.376)"
       style="font-variant:normal;font-weight:800;font-stretch:normal;font-size:80px;font-family:'Rockwell Extra Bold';-inkscape-font-specification:Rockwell-ExtraBold;writing-mode:lr-tb;fill:#ffffff;fill-opacity:1;fill-rule:nonzero;stroke:none"
       id="text274"><tspan
         x="0"
         y="0"
         id="tspan272">A</tspan></text>
    <g
       id="g276">
      <g
         id="g278"
         clip-path="url(#clipPath282)">
        <g
           id="g284"
           transform="translate(503.2705,107.1563)">
          <path
             d="m 0,0 -8.541,-4.653 -2.702,15.654 z m -2.037,-16.591 -3.91,-2.13 -1.179,7.143 12.212,6.653 5.088,-5.012 -4.185,-2.28 5.7,-10.462 24.904,13.57 L 30.369,2.313 26.87,0.406 4.195,20.303 l 3.842,2.093 -6.224,11.422 -34.3,-18.69 6.223,-11.422 3.842,2.094 4.598,-29.747 -3.636,-1.981 6.224,-11.423 18.899,10.299 z"
             style="fill:none;stroke:#231f20;stroke-width:3.6;stroke-linecap:butt;stroke-linejoin:miter;stroke-miterlimit:10;stroke-dasharray:none;stroke-opacity:1"
             id="path286" />
        </g>
      </g>
    </g>
    <text
       xml:space="preserve"
       transform="matrix(0.68442152,0.72908654,0.72908654,-0.68442152,551.3633,107.1035)"
       style="font-variant:normal;font-weight:800;font-stretch:normal;font-size:80px;font-family:'Rockwell Extra Bold';-inkscape-font-specification:Rockwell-ExtraBold;writing-mode:lr-tb;fill:#ffffff;fill-opacity:1;fill-rule:nonzero;stroke:none"
       id="text290"><tspan
         x="0"
         y="0"
         id="tspan288">T</tspan></text>
    <g
       id="g292">
      <g
         id="g294"
         clip-path="url(#clipPath298)">
        <g
           id="g300"
           transform="translate(572.8926,149.043)">
          <path
             d="m 0,0 -3.289,-3.503 -20.648,19.383 4.251,4.528 7.206,-6.763 6.977,7.433 -16.688,15.666 -36.869,-39.273 16.69,-15.667 6.977,7.433 -7.205,6.764 4.278,4.557 20.648,-19.383 -3.209,-3.418 9.485,-8.903 20.879,22.244 z"
             style="fill:none;stroke:#231f20;stroke-width:3.6;stroke-linecap:butt;stroke-linejoin:miter;stroke-miterlimit:10;stroke-dasharray:none;stroke-opacity:1"
             id="path302" />
        </g>
      </g>
    </g>
    <text
       xml:space="preserve"
       transform="matrix(0.46137261,0.88720647,0.88720647,-0.46137261,601.4404,164.1943)"
       style="font-variant:normal;font-weight:800;font-stretch:normal;font-size:80px;font-family:'Rockwell Extra Bold';-inkscape-font-specification:Rockwell-ExtraBold;writing-mode:lr-tb;fill:#ffffff;fill-opacity:1;fill-rule:nonzero;stroke:none"
       id="text306"><tspan
         x="0"
         y="0"
         id="tspan304">E</tspan></text>
    <g
       id="g308">
      <g
         id="g310"
         clip-path="url(#clipPath314)">
        <g
           id="g316"
           transform="translate(611.6104,221.4268)">
          <path
             d="m 0,0 -6.578,-12.649 3.881,-2.019 -5.695,-10.952 -7.902,4.109 4.956,9.531 -9.808,5.1 -4.956,-9.53 -7.416,3.856 5.695,10.951 3.882,-2.018 6.578,12.65 -15.422,8.02 -23.952,-46.059 11.541,-6.001 1.982,3.812 25.126,-13.066 -1.946,-3.743 11.54,-6.002 23.916,45.989 z"
             style="fill:none;stroke:#231f20;stroke-width:3.6;stroke-linecap:butt;stroke-linejoin:miter;stroke-miterlimit:10;stroke-dasharray:none;stroke-opacity:1"
             id="path318" />
        </g>
      </g>
    </g>
  </g>
</svg>
