<?xml version="1.0" encoding="UTF-8" standalone="no"?>
<!-- Created with Inkscape (http://www.inkscape.org/) -->

<svg
   version="1.1"
   id="svg554"
   width="2500"
   height="1500"
   viewBox="0 0 2500 1500"
   sodipodi:docname="Abingdon-PTA-logo-es.svg"
   inkscape:export-filename="Abingdon-PTA-logo-es.png"
   inkscape:export-xdpi="96"
   inkscape:export-ydpi="96"
   inkscape:version="1.2.2 (b0a8486541, 2022-12-01)"
   xmlns:inkscape="http://www.inkscape.org/namespaces/inkscape"
   xmlns:sodipodi="http://sodipodi.sourceforge.net/DTD/sodipodi-0.dtd"
   xmlns="http://www.w3.org/2000/svg"
   xmlns:svg="http://www.w3.org/2000/svg">
  <defs
     id="defs558" />
  <sodipodi:namedview
     id="namedview556"
     pagecolor="#ffffff"
     bordercolor="#666666"
     borderopacity="1.0"
     inkscape:showpageshadow="2"
     inkscape:pageopacity="0.0"
     inkscape:pagecheckerboard="0"
     inkscape:deskcolor="#d1d1d1"
     showgrid="false"
     inkscape:zoom="0.35355339"
     inkscape:cx="579.82756"
     inkscape:cy="455.37677"
     inkscape:window-width="1920"
     inkscape:window-height="1011"
     inkscape:window-x="0"
     inkscape:window-y="0"
     inkscape:window-maximized="1"
     inkscape:current-layer="g560" />
  <g
     inkscape:groupmode="layer"
     inkscape:label="Image"
     id="g560">
    <path
       style="fill:#000000;stroke-width:1.47058"
       d="m 840.72757,1162.2619 c -5.21706,-2.8253 -7.02226,-6.4069 -7.02226,-13.9267 0,-4.9152 0.87528,-6.9421 4.43268,-10.2652 6.67227,-6.2327 21.3439,-7.517 27.98768,-2.4497 3.82345,2.9162 7.28544,8.8221 7.28544,12.4284 0,5.2889 -4.01156,11.8172 -8.77537,14.2807 -5.45465,2.8207 -18.65964,2.7866 -23.90817,-0.062 z"
       id="path2242" />
    <path
       style="fill:#000000;stroke-width:1.47058"
       d="m 923.64645,1154.6582 c 0.47082,-14.1692 0.73691,-15.2796 4.58116,-19.1176 3.76993,-3.7636 4.94802,-4.0695 15.44115,-4.0094 8.14365,0.047 17.51529,1.6347 33.10153,5.6093 31.68221,8.0789 45.64861,7.5625 57.83961,-2.139 l 5.7126,-4.546 0.4275,11.9217 c 0.487,13.5837 -1.9206,20.7101 -7.9204,23.4438 -7.018,3.1976 -22.1952,1.9212 -43.85685,-3.6887 -15.94148,-4.1285 -23.7558,-5.3898 -33.94417,-5.4789 -14.30814,-0.125 -19.5633,1.6144 -27.70567,9.1717 l -4.17633,3.8762 z"
       id="path2240" />
    <path
       style="fill:#000000;stroke-width:1.47058"
       d="m 2319.9767,1201.809 c -0.5392,-0.5391 -0.9804,-11.1273 -0.9804,-23.5294 v -22.5489 h 13.0369 c 10.9624,0 13.6536,0.485 16.9117,3.048 5.2607,4.138 5.5091,14.0217 0.4712,18.7545 -1.8719,1.7586 -4.1881,3.1975 -5.1471,3.1975 -2.8644,0 -2.025,2.6389 3.4037,10.7001 6.1039,9.0638 6.2381,9.888 1.6097,9.888 -2.7999,0 -4.7034,-1.993 -9.1291,-9.5588 -4.766,-8.1473 -6.1979,-9.5588 -9.6979,-9.5588 -4.0663,0 -4.1062,0.091 -4.1062,9.4015 0,7.2163 -0.5407,9.6089 -2.3262,10.2941 -2.8803,1.1053 -2.8528,1.1059 -4.0463,-0.088 z m 22.2217,-27.7794 c 3.5558,-2.4905 4.3115,-7.844 1.5037,-10.6518 -0.9706,-0.9706 -5.272,-1.7647 -9.5588,-1.7647 h -7.7941 v 7.3529 7.3529 h 6.2904 c 3.4597,0 7.7612,-1.0301 9.5588,-2.2893 z"
       id="path2238" />
    <path
       style="fill:#000000;stroke-width:1.47058"
       d="m 2322.4738,1217.3642 c -7.9409,-2.3013 -18.6423,-10.5885 -23.1663,-17.9399 -3.5565,-5.779 -4.4522,-9.0916 -4.9954,-18.4753 -0.5862,-10.1271 -0.2134,-12.3814 3.2623,-19.7286 4.1899,-8.8567 9.32,-14.0007 19.0447,-19.0964 4.6919,-2.4585 8.7003,-3.1853 17.8183,-3.2307 10.491,-0.053 12.6404,0.4344 19.8529,4.4957 9.0893,5.1179 16.777,14.1194 19.0506,22.3054 2.9307,10.5527 1.9261,22.7801 -2.5803,31.4065 -4.5968,8.7993 -14.8806,17.5414 -23.7667,20.2038 -6.4702,1.9384 -17.9412,1.9663 -24.5201,0.06 z m 25.0043,-7.7811 c 7.2372,-3.0238 15.1876,-12.0385 17.9487,-20.3511 6.8714,-20.6881 -6.7418,-41.722 -28.1516,-43.4974 -10.9981,-0.9121 -19.6141,2.5732 -26.9421,10.8983 -19.0832,21.6797 -4.6924,54.9406 23.7839,54.9709 4.6767,0 10.6892,-0.9042 13.3611,-2.0207 z"
       id="path2236" />
    <path
       style="fill:#000000;stroke-width:1.47058"
       d="m 2124.879,1326.5601 c 0,-4.8278 1.3784,-7.3002 9.2331,-16.5612 5.0782,-5.9873 22.7727,-27.4302 39.3211,-47.6507 16.5484,-20.2205 30.596,-36.9865 31.2172,-37.2578 0.621,-0.2714 0.7551,-1.0986 0.2979,-1.8383 -1.3232,-2.1411 -52.1792,-1.6464 -56.5399,0.55 -4.334,2.183 -7.9487,8.8468 -11.1368,20.5314 -2.1404,7.8444 -2.6186,8.4559 -6.6147,8.4559 -4.7758,0 -5.2217,-1.5513 -2.9585,-10.2941 0.733,-2.8309 2.7846,-13.2536 4.5594,-23.1618 3.1058,-17.3376 3.3644,-18.0147 6.8796,-18.0147 2.0139,0 4.8538,1.4845 6.3304,3.3089 2.6694,3.2983 2.8357,3.3101 52.8092,3.732 l 50.1312,0.4234 -0.016,4.7237 c -0.015,3.8708 -3.2252,8.5742 -17.7906,26.0473 -9.7762,11.728 -23.5007,28.2389 -30.4989,36.691 -6.9983,8.4522 -16.7003,20.033 -21.5602,25.7352 -4.86,5.7023 -9.7693,11.5625 -10.9096,13.0227 -1.9872,2.545 -0.7258,2.6365 30.4123,2.2059 32.3384,-0.447 32.5031,-0.4657 36.4225,-4.1256 2.1656,-2.022 5.5374,-6.8198 7.4929,-10.6617 3.0428,-5.9776 4.1886,-6.9853 7.9427,-6.9853 2.4129,0 4.3376,0.4963 4.277,1.103 -0.06,0.6066 -3.2061,8.7132 -6.9904,18.0146 l -6.8804,16.9117 -57.7153,0.3848 -57.7154,0.3847 v -5.675 z"
       id="path2234" />
    <path
       style="fill:#000000;stroke-width:1.47058"
       d="m 906.13163,1331.227 c -1.01103,-0.408 -1.83823,-1.9315 -1.83823,-3.3858 0,-1.8944 1.82017,-3.1023 6.41913,-4.2604 8.66521,-2.1819 12.57978,-5.6823 14.20656,-12.7033 1.89808,-8.1921 1.80752,-69.8104 -0.11074,-75.3129 -1.64158,-4.7091 -5.28333,-6.9915 -13.6645,-8.5638 -5.26208,-0.9872 -7.37458,-3.4874 -5.99165,-7.0913 1.05346,-2.7453 45.14435,-16.1827 49.04077,-14.946 2.73815,0.869 3.04146,2.1286 3.04146,12.6309 0,6.4161 0.25881,11.6657 0.57513,11.6657 0.31632,0 6.69805,-3.6181 14.18159,-8.0404 15.08909,-8.9165 29.55075,-14.8341 39.75955,-16.2695 15.8378,-2.2269 28.7281,6.3986 33.8257,22.6349 2.8417,9.051 3.0301,12.5674 2.5822,48.2017 -0.5592,44.492 -0.977,43.0689 13.8527,47.1918 7.2542,2.0169 8.5266,2.865 8.1588,5.4382 -0.4264,2.9827 -1.2572,3.0574 -38.3034,3.4413 l -37.86764,0.3925 v -3.6347 c 0,-2.9654 0.91575,-3.8064 4.97359,-4.5677 16.05155,-3.0112 18.85625,-10.771 19.11225,-52.8765 0.1669,-27.4523 -0.038,-29.8808 -3.0726,-36.4543 -2.6681,-5.779 -4.4921,-7.5913 -10.1656,-10.101 -6.69919,-2.9635 -7.19262,-2.9825 -15.8662,-0.6084 -4.9236,1.3475 -14.08066,5.5284 -20.34903,9.2907 l -11.39704,6.8406 v 35.8098 c 0,43.9083 0.18506,44.4483 16.54409,48.2724 3.02092,0.7062 4.0441,1.8352 4.0441,4.4624 v 3.517 l -34.92639,-0.1161 c -19.20952,-0.063 -35.75361,-0.45 -36.76463,-0.858 z"
       id="path2232" />
    <path
       style="fill:#000000;stroke-width:1.47058"
       d="m 817.03869,1331.227 c -3.03017,-3.0302 -0.55502,-5.7756 6.74017,-7.4765 5.26247,-1.2267 9.00814,-3.2178 11.76468,-6.2535 l 4.04412,-4.4537 v -42.5719 -42.5719 l -3.30883,-1.8212 c -1.81985,-1.0016 -6.94851,-2.5662 -11.39703,-3.4768 -7.08857,-1.4511 -8.08821,-2.0906 -8.08821,-5.1739 0,-3.2914 1.46909,-3.9194 22.79407,-9.7432 12.53673,-3.4238 24.58414,-6.2553 26.772,-6.2922 l 3.97793,-0.066 0.43382,55.7768 c 0.41944,53.9281 0.53572,55.9143 3.5086,59.9263 2.23386,3.0147 5.35082,4.6987 11.39703,6.1572 7.22824,1.7438 8.32226,2.4687 8.32226,5.5147 v 3.507 h -37.99011 c -20.89458,0 -38.4313,-0.4411 -38.9705,-0.9804 z"
       id="path2230" />
    <path
       style="fill:#000000;stroke-width:1.47058"
       d="m 639.12341,1331.252 c -2.97957,-2.9796 -0.67747,-6.1316 5.64,-7.7224 14.34632,-3.6125 15.70292,-8.4592 15.12028,-54.0207 l -0.44272,-34.6202 -3.90831,-3.3594 c -2.15446,-1.8517 -6.9783,-3.8197 -10.74947,-4.3851 -6.33503,-0.95 -6.80746,-1.3158 -6.38578,-4.9439 0.42822,-3.6844 1.77017,-4.3315 22.51414,-10.8577 30.36078,-9.5515 28.67641,-9.8701 28.67641,5.4233 0,6.875 0.39699,12.5 0.88218,12.5 0.48519,0 7.287,-3.6264 15.11513,-8.0589 22.09751,-12.5117 31.49868,-15.9655 43.5614,-16.004 11.0116,-0.035 16.74222,2.0544 22.25441,8.1143 9.69221,10.6556 11.44803,21.8241 10.15231,64.5775 l -1.05038,34.6582 3.85917,4.5865 c 2.88805,3.4322 5.88141,5.0062 11.89531,6.2547 7.08944,1.4718 8.03612,2.0919 8.03612,5.2653 v 3.597 l -37.86758,-0.3925 c -37.8344,-0.3922 -37.86797,-0.3953 -38.33067,-3.6494 -0.36143,-2.5416 0.4458,-3.4558 3.67646,-4.1635 9.37696,-2.0541 12.14302,-3.9748 15.48056,-10.7494 3.21903,-6.5341 3.36487,-8.3391 3.36487,-41.6472 0,-32.8709 -0.16948,-35.0442 -3.03204,-38.8796 -5.45308,-7.3065 -10.3297,-9.9622 -18.07806,-9.8453 -7.72431,0.1162 -20.41239,5.4218 -33.0648,13.8251 l -7.11617,4.7265 0.49853,35.4364 c 0.60285,42.8503 0.80957,43.3954 17.87339,47.1335 3.23066,0.7077 4.03789,1.6219 3.67646,4.1635 -0.46163,3.2465 -0.57666,3.2583 -35.85417,3.6502 -19.46509,0.2161 -35.84373,-0.06 -36.39698,-0.6128 z"
       id="path2228" />
    <path
       style="fill:#000000;stroke-width:1.47058"
       d="m 2269.5214,1333.6898 c -4.9134,-1.9828 -7.8779,-7.4227 -7.8779,-14.4556 0,-17.8289 17.1991,-28.878 28.0542,-18.0227 3.6094,3.6092 4.2986,5.4823 4.2986,11.6805 0,15.1741 -12.3677,25.6836 -24.4749,20.7978 z"
       id="path2226" />
    <path
       style="fill:#000000;stroke-width:1.47058"
       d="m 1999.8793,1332.8442 c -36.0178,-7.7999 -56.8482,-37.8083 -51.3892,-74.0316 2.1333,-14.1563 7.2976,-24.7406 16.6193,-34.0624 21.1973,-21.1974 63.3828,-26.384 94.4168,-11.6084 10.9844,5.2298 24.3282,18.7705 29.3873,29.821 11.3481,24.7872 6.5552,52.0275 -12.4973,71.0285 -9.4613,9.4357 -18.7591,14.5338 -33.2802,18.2477 -13.2626,3.3919 -29.3486,3.6169 -43.2567,0.6052 z m 41.077,-10.8807 c 7.7964,-3.9775 15.9136,-13.9206 18.5148,-22.6798 2.7215,-9.1639 2.7991,-31.5055 0.1441,-41.4753 -8.5433,-32.083 -33.8365,-50.2891 -56.1516,-40.418 -15.4363,6.8282 -21.3775,17.2261 -22.3844,39.1752 -0.3847,8.3882 0.051,18.2018 1.0055,22.6532 3.895,18.1616 17.2049,36.9756 30.2792,42.8 8.1554,3.6332 21.4124,3.6075 28.5922,-0.056 z"
       id="path2224" />
    <path
       style="fill:#000000;stroke-width:1.47058"
       d="m 1847.9958,1329.7036 c -1.2427,-3.0718 -5.3747,-12.2026 -9.1822,-20.2908 -13.9275,-29.586 -35.9927,-77.6322 -35.9927,-78.3728 0,-0.4186 -1.6887,-2.9751 -3.7525,-5.681 -4.3166,-5.6595 -10.6204,-9.3284 -16.0273,-9.3284 -3.0191,0 -3.7495,-0.7162 -3.7495,-3.6765 v -3.6764 h 37.4999 37.4999 v 3.6764 c 0,3.2671 -0.6143,3.6771 -5.5147,3.6819 -6.7028,0 -15.0735,4.7897 -15.0735,8.613 0,1.5286 2.3692,7.9905 5.2651,14.3599 2.8957,6.3692 6.1669,13.5658 7.2691,15.9923 1.1022,2.4264 5.9809,13.3351 10.8415,24.2412 4.8604,10.9063 9.4304,20.0273 10.1552,20.2689 0.7249,0.2416 3.1758,-3.7184 5.4463,-8.8001 2.2706,-5.0817 9.01,-19.703 14.9766,-32.4917 6.2865,-13.4742 10.9295,-25.4143 11.0416,-28.394 0.2584,-6.8747 -3.8507,-10.7539 -13.7426,-12.9732 -6.2831,-1.4097 -7.9654,-2.4122 -8.3406,-4.9702 -0.4697,-3.2036 -0.4616,-3.2044 29.7794,-3.2044 h 30.2493 v 3.3714 c 0,2.7669 -1.2201,3.6978 -6.8042,5.1913 -12.181,3.258 -12.5128,3.816 -47.3549,79.6724 l -17.2244,37.4999 -7.5026,0.4379 c -7.4469,0.4347 -7.5196,0.3965 -9.7622,-5.147 z"
       id="path2222" />
    <path
       style="fill:#000000;stroke-width:1.47058"
       d="m 1638.672,1329.9126 c -10.2683,-10.8877 -11.8974,-31.1151 -4.1674,-51.7413 9.35,-24.9484 34.1318,-50.3502 60.9635,-62.4887 14.0616,-6.3613 41.2946,-11.8536 43.2319,-8.7189 0.939,1.5192 -2.0419,17.0767 -13.2898,69.3609 -5.7806,26.871 -7.0006,39.7284 -3.8698,40.7887 0.9941,0.3368 5.3595,-2.747 9.7008,-6.8529 4.3415,-4.1059 8.3259,-7.4653 8.8543,-7.4653 0.5285,0 0.9609,1.3358 0.9609,2.9684 0,1.6887 -4.0677,7.036 -9.435,12.4034 -15.6482,15.6482 -25.4738,20.2765 -30.5861,14.4076 -4.1613,-4.7769 -4.2433,-12.8797 -0.3386,-33.4558 l 1.1164,-5.8823 -12.0086,11.2939 c -23.7611,22.3476 -35.2161,30.6177 -42.4085,30.6177 -2.4344,0 -5.5494,-1.8693 -8.724,-5.2354 z m 29.6099,-14.5115 c 4.0334,-2.7726 13.8298,-11.2101 21.7701,-18.7499 l 14.4368,-13.7089 4.3826,-21.3235 c 6.5024,-31.636 7.6212,-38.2893 6.6088,-39.3015 -1.4908,-1.491 -22.6171,3.6357 -29.9584,7.27 -15.5971,7.721 -28.7211,27.0397 -34.1311,50.2419 -3.5964,15.4236 -3.7019,20.3273 -0.6311,29.3393 1.996,5.8579 6.5086,11.2736 9.3938,11.2736 0.4373,0 4.0953,-2.2685 8.1285,-5.041 z"
       id="path2220" />
    <path
       style="fill:#000000;stroke-width:1.47058"
       d="m 1482.2334,1331.5459 c 0,-1.9811 4.3538,-23.6539 9.6749,-48.1616 10.3312,-47.5819 11.1422,-52.7291 8.4568,-53.6775 -0.9466,-0.3344 -4.9172,3.3544 -8.8235,8.1973 -7.5635,9.3769 -8.9138,10.2771 -10.2384,6.8256 -0.9664,-2.5188 14.2379,-21.2665 23.5816,-29.0769 12.0678,-10.0875 19.1116,-11.7444 20.8295,-4.8996 0.4447,1.7719 -1.465,13.7763 -4.2438,26.6761 -5.9594,27.6639 -6.9818,33.013 -6.31,33.013 0.2753,0 4.7257,-5.1226 9.8897,-11.3836 28.6164,-34.6961 54.1648,-55.2431 65.2355,-52.4644 10.7177,2.69 12.534,17.5372 5.3058,43.3725 -12.6887,45.3525 -17.7701,64.8582 -17.7701,68.212 0,6.6476 4.6817,4.2467 17.0902,-8.7644 9.9443,-10.4271 12.2369,-12.1695 13.6972,-10.4101 1.4322,1.7257 -0.1868,4.156 -8.8297,13.2548 -19.1404,20.1498 -34.6062,27.6876 -40.2567,19.6205 -4.4127,-6.3003 -3.3582,-11.8135 15.6904,-82.0255 5.6987,-21.0051 5.9384,-27.1529 1.1183,-28.6827 -6.4234,-2.0388 -18.2359,8.2659 -45.4903,39.683 -12.154,14.0104 -19.4337,23.6461 -19.9978,26.4705 -4.2495,21.2761 -8.5363,40.4328 -9.7964,43.779 -1.4237,3.7804 -2.0867,4.0441 -10.1681,4.0441 -8.1935,0 -8.6451,-0.1882 -8.6451,-3.6021 z"
       id="path2218" />
    <path
       style="fill:#000000;stroke-width:1.47058"
       d="m 1338.7116,1332.0483 c -3.9063,-4.3221 -3.6913,-22.6432 0.4813,-41.0178 12.8056,-56.3912 13.9046,-63.2352 10.1537,-63.2352 -1.1025,0 -5.1507,3.3636 -8.996,7.4744 -4.8413,5.1759 -7.4619,7.0041 -8.5213,5.9447 -1.6724,-1.6723 -1.5344,-1.8953 8.9129,-14.4017 6.9853,-8.362 19.7179,-18.6806 25.0527,-20.303 4.2821,-1.3023 9.0857,2.6769 9.0857,7.5266 0,1.8877 -4.3225,24.1198 -9.6054,49.4044 -5.2829,25.2846 -9.241,47.461 -8.7956,49.2809 0.4989,2.0375 1.9231,3.3088 3.7071,3.3088 4.0925,0 19.0633,-13.1389 34.2339,-30.0448 23.0196,-25.6527 30.2508,-38.3609 34.785,-61.1314 3.4419,-17.2843 4.7996,-19.1177 14.1582,-19.1177 3.386,0 6.8407,0.8272 7.6771,1.8382 1.0697,1.2932 0.2488,7.7248 -2.7687,21.6912 -2.3591,10.9191 -5.5916,26.1397 -7.1835,33.8235 -1.5919,7.6838 -4.5665,21.7487 -6.6102,31.2553 -2.0436,9.5066 -3.7157,17.9441 -3.7157,18.75 0,3.673 5.379,0.7332 13.4792,-7.3671 8.2099,-8.2098 11.5208,-9.7579 11.5208,-5.3867 0,2.3114 -22.3441,24.2854 -30.7353,30.2261 -7.0676,5.0036 -12.5646,5.8916 -13.9602,2.2548 -1.9933,-5.1942 -0.6525,-20.6488 3.5191,-40.5634 4.7176,-22.5217 5.0229,-24.799 3.3088,-24.6818 -0.6066,0.041 -4.7426,4.703 -9.1912,10.3591 -10.3458,13.1538 -39.1479,41.4363 -51.2645,50.3397 -10.3162,7.5804 -14.5211,8.4274 -18.7279,3.7729 z"
       id="path2216" />
    <path
       style="fill:#000000;stroke-width:1.47058"
       d="m 1244.2195,1331.4318 c -8.4063,-7.0735 -7.7754,-19.6115 1.4511,-28.8381 4.6738,-4.6737 6.7093,-5.6809 11.4813,-5.6809 8.6234,0 13.5237,4.8094 14.3228,14.057 0.7718,8.9322 -2.5454,16.0745 -9.6789,20.8401 -6.5052,4.3457 -12.1054,4.2253 -17.5763,-0.3781 z"
       id="path2214" />
    <path
       style="fill:#000000;stroke-width:1.47058"
       d="m 1138.8517,1332.3579 c -32.9842,-8.2466 -50.6658,-30.3798 -50.7177,-63.4869 -0.036,-23.0726 10.5944,-42.9111 28.6589,-53.4826 17.7244,-10.3725 49.8371,-13.5766 70.7646,-7.061 39.7875,12.3876 58.1418,52.8574 40.7249,89.7949 -4.7233,10.0171 -16.8991,22.3834 -27.1558,27.5809 -17.9058,9.0736 -42.2113,11.6708 -62.2749,6.6547 z m 40.9465,-9.7086 c 6.5295,-2.7282 14.3232,-10.3671 17.5804,-17.2312 3.8711,-8.1577 5.7381,-25.1605 4.0751,-37.1115 -5.0827,-36.526 -28.6523,-59.2542 -54.2794,-52.3421 -8.4444,2.2777 -18.1699,11.4276 -22.3803,21.0558 -4.5386,10.3787 -5.5468,29.258 -2.259,42.3011 5.0438,20.0092 15.964,35.7046 29.5591,42.4852 7.1535,3.5676 20.2303,3.9654 27.7041,0.8427 z"
       id="path2212" />
    <path
       style="fill:#000000;stroke-width:1.47058"
       d="m 495.83765,1330.6476 c -7.36937,-7.205 -9.65376,-15.1944 -8.89348,-31.1041 0.84742,-17.733 6.28562,-31.1035 19.39243,-47.6789 17.90759,-22.6468 42.53122,-37.8883 70.4383,-43.5997 8.30851,-1.7005 16.14474,-2.6933 17.41384,-2.2064 2.44878,0.9397 1.97549,3.8083 -9.65261,58.5015 -9.09619,42.7841 -10.29576,49.9461 -8.64238,51.5995 2.11394,2.1138 6.24996,-0.1 14.64191,-7.8347 6.11047,-5.6323 6.40544,-5.7413 6.40544,-2.3657 0,3.886 -14.0506,18.6802 -24.10222,25.3777 -15.58496,10.3844 -22.28355,-1.0747 -16.4695,-28.174 1.08455,-5.0552 1.70997,-9.1911 1.38977,-9.1911 -0.32017,0 -7.6074,6.6228 -16.19386,14.7175 -17.80408,16.7843 -31.39121,26.4588 -37.15945,26.4588 -2.43977,0 -5.73574,-1.7312 -8.56819,-4.5004 z m 27.65392,-14.4019 c 6.13694,-3.9391 27.71182,-23.2874 34.37373,-30.8262 3.44455,-3.898 16.10522,-60.3738 14.03085,-62.588 -1.78835,-1.9089 -21.52308,2.9315 -30.60396,7.506 -15.48092,7.7987 -28.10544,26.2726 -33.13199,48.4833 -4.00395,17.6921 -2.71617,31.6831 3.53367,38.3915 3.80446,4.0837 3.94799,4.0719 11.7977,-0.9666 z"
       id="path2210" />
    <path
       style="fill:#000000;stroke-width:1.47058"
       d="m 359.79475,1331.1039 c -14.60593,-15.2489 -12.38854,-52.0371 4.91081,-81.474 11.05088,-18.8044 31.01131,-36.8436 45.97611,-41.5506 9.09956,-2.8622 15.28311,-1.8452 23.3982,3.848 3.12771,2.1945 4.21234,2.3992 4.76219,0.8989 1.2426,-3.3903 13.96089,-65.0644 13.97152,-67.7513 0.0147,-3.6015 -2.0293,-3.2538 -12.6828,2.1581 -7.30304,3.7096 -9.69986,4.346 -11.09931,2.9466 -1.39944,-1.3994 -1.2103,-2.205 0.87587,-3.7305 4.48671,-3.2807 38.10415,-19.8684 42.40167,-20.9221 3.5516,-0.8708 4.04191,-0.5691 4.02604,2.4767 -0.0103,1.9075 -2.00943,12.7329 -4.44331,24.0564 -2.43386,11.3235 -5.74666,27.1263 -7.36174,35.1173 -1.6151,7.9912 -3.58572,17.2558 -4.37914,20.5882 -0.79344,3.3325 -4.76946,21.9415 -8.83562,41.3532 -4.06617,19.4117 -8.69899,41.001 -10.29518,47.9761 -5.34331,23.3495 -3.44587,25.6093 9.49509,11.3092 6.17157,-6.8198 8.65276,-8.6766 9.91203,-7.4173 1.25926,1.2592 0.32488,3.3332 -3.73275,8.2849 -18.59464,22.6923 -36.00858,31.9101 -39.79957,21.0673 -1.45417,-4.1591 -0.0931,-14.6673 4.1728,-32.2167 2.41854,-9.9495 1.03917,-10.012 -6.47912,-0.2933 -7.81926,10.1077 -29.55348,30.2846 -36.63528,34.0102 -8.43529,4.4376 -13.39616,4.2367 -18.15851,-0.7353 z m 26.61135,-12.7428 c 5.44731,-2.8169 24.42542,-22.9271 32.73111,-34.6835 6.13389,-8.6824 7.1677,-11.441 11.27482,-30.0873 5.06094,-22.9767 4.942,-23.9005 -4.23186,-32.8697 -4.07043,-3.9796 -5.88635,-4.69 -11.98845,-4.69 -6.80081,0 -7.64747,0.4592 -15.58828,8.4559 -15.26367,15.3709 -26.40039,41.5374 -27.78219,65.2762 -0.87997,15.1174 0.15085,21.6974 4.20687,26.8539 3.42582,4.3551 5.66548,4.6985 11.37798,1.7445 z"
       id="path2208" />
    <path
       style="fill:#000000;stroke-width:1.47058"
       d="m 227.41377,1333.5356 c -4.42346,-2.5747 -9.60253,-12.2908 -11.53263,-21.6353 -6.48717,-31.4077 21.45229,-74.6403 60.74776,-93.999 5.60784,-2.7628 13.29955,-5.9203 17.09269,-7.0169 10.14946,-2.9342 29.45814,-5.8707 30.66534,-4.6635 0.57531,0.5754 -3.77624,24.0409 -9.67012,52.1455 -5.89387,28.1045 -10.48456,52.6899 -10.2015,54.6341 0.84725,5.8194 3.69993,5.1315 12.2486,-2.9535 l 8.11893,-7.6785 v 4.2182 c 0,3.2553 -2.07153,6.1894 -9.0746,12.8534 -16.15834,15.3757 -25.41648,19.2424 -29.68704,12.3991 -3.54779,-5.6852 -3.89797,-10.5434 -1.67237,-23.202 1.18537,-6.7419 1.81604,-12.5973 1.4015,-13.0119 -0.6004,-0.6004 -7.93073,5.954 -21.21281,18.9673 -0.43118,0.4225 -4.42365,3.7784 -8.87218,7.4578 -14.58058,12.0592 -22.11901,15.113 -28.35157,11.4852 z m 27.82215,-19.4815 c 4.73971,-3.5134 14.46007,-11.9509 21.6008,-18.75 l 12.98319,-12.3618 5.76678,-27.7845 c 3.17174,-15.2815 5.76679,-29.0713 5.76679,-30.6439 0,-2.5398 -0.69888,-2.7483 -6.24998,-1.8646 -24.15835,3.8452 -38.10487,13.0797 -48.86033,32.3519 -13.31746,23.8628 -15.4252,57.2392 -4.034,63.8787 3.66103,2.1339 3.61477,2.1511 13.02675,-4.8258 z"
       id="path2206" />
    <path
       style="fill:#000000;stroke-width:1.47058"
       d="m 140.29708,1333.1795 c -6.31913,-2.8686 -13.62658,-11.7599 -14.79836,-18.006 -0.55012,-2.9324 -0.66259,-11.384 -0.24994,-18.7814 0.8594,-15.4063 4.23586,-26.4636 13.78065,-45.1289 12.41877,-24.2853 27.81055,-38.7245 46.48351,-43.6064 8.92714,-2.334 10.50722,-2.3746 16.16134,-0.4155 7.96673,2.7606 11.10306,8.2282 8.20508,14.304 -2.72511,5.7134 -10.31082,6.16 -20.12846,1.1851 -9.70574,-4.9184 -13.64426,-4.7431 -20.06371,0.8935 -9.15209,8.0356 -18.32994,30.4224 -23.37466,57.016 -3.89921,20.5549 -2.84615,30.7358 3.92709,37.9662 8.1082,8.6556 22.79127,5.8738 36.85896,-6.9832 5.19247,-4.7457 8.45797,-6.7428 9.73479,-5.9537 2.78581,1.7217 0.52185,4.9824 -8.81416,12.6946 -16.66588,13.767 -36.4805,19.9186 -47.72213,14.8157 z"
       id="path1118" />
    <g
       id="g1979">
      <path
         d="m 223.35557,239.65448 h -48.33474 l -6.6507,22.66862 H 125 L 176.61325,125 h 46.27396 l 51.61324,137.3231 h -44.40051 z m -8.89885,-29.69401 -15.17485,-49.36513 -15.08119,49.36513 z"
         style="font-weight:bold;font-size:14.8037px;line-height:1.25;font-family:Arial;-inkscape-font-specification:'Arial Bold';stroke-width:0.999165"
         id="path32469" />
      <path
         d="m 285.7411,125 h 38.49916 v 47.58536 q 5.714,-5.99501 12.92673,-8.99252 7.30642,-2.9975 16.11159,-2.9975 18.17236,0 30.06869,13.11408 11.89634,13.02039 11.89634,37.46878 0,16.29892 -5.43297,28.75729 -5.43297,12.3647 -15.08119,18.54705 -9.55453,6.08867 -21.26353,6.08867 -10.0229,0 -18.35971,-4.30891 -6.27602,-3.37218 -13.67611,-12.6457 v 14.7065 h -35.689 z m 38.21815,87.30226 q 0,12.83307 4.77727,18.64073 4.87094,5.71398 12.27103,5.71398 6.83804,0 11.42798,-5.62031 4.68359,-5.71399 4.68359,-19.10908 0,-11.80267 -4.58992,-17.32932 -4.49626,-5.52664 -10.95962,-5.52664 -7.77477,0 -12.73939,5.80767 -4.87094,5.71398 -4.87094,17.42297 z"
         style="font-weight:bold;font-size:14.8037px;line-height:1.25;font-family:Arial;-inkscape-font-specification:'Arial Bold';stroke-width:0.999165"
         id="path32471" />
      <path
         d="m 414.91471,125 h 38.1245 v 25.94713 h -38.1245 z m 0,37.84347 h 38.1245 v 99.47963 h -38.1245 z"
         style="font-weight:bold;font-size:14.8037px;line-height:1.25;font-family:Arial;-inkscape-font-specification:'Arial Bold';stroke-width:0.999165"
         id="path32473" />
      <path
         d="m 477.39392,162.84347 h 35.50167 v 16.20525 q 7.96213,-9.92923 16.11159,-14.14447 8.14946,-4.30891 19.85845,-4.30891 15.83057,0 24.7294,9.46087 8.99251,9.3672 8.99251,29.03831 V 262.3231 H 544.2757 v -54.70443 q 0,-9.3672 -3.46586,-13.20775 -3.46586,-3.93422 -9.74188,-3.93422 -6.93172,0 -11.24063,5.24563 -4.30891,5.24563 -4.30891,18.82806 v 47.77271 h -38.1245 z"
         style="font-weight:bold;font-size:14.8037px;line-height:1.25;font-family:Arial;-inkscape-font-specification:'Arial Bold';stroke-width:0.999165"
         id="path32475" />
      <path
         d="m 674.57343,162.84347 h 35.68902 v 93.95298 l 0.0933,4.40258 q 0,9.36719 -4.0279,17.79767 -3.93422,8.52415 -10.58492,13.76979 -6.55704,5.24562 -16.76729,7.58741 -10.11658,2.34181 -23.23064,2.34181 -29.97503,0 -41.21567,-8.99251 -11.14697,-8.99251 -11.14697,-24.0737 0,-1.87343 0.18739,-5.05829 l 37.00043,4.21525 q 1.40507,5.15195 4.30891,7.11907 4.21524,2.90383 10.58493,2.90383 8.24313,0 12.27102,-4.40259 4.12157,-4.40257 4.12157,-15.36219 v -15.08119 q -5.62032,6.6507 -11.24063,9.64821 -8.80517,4.6836 -19.01541,4.6836 -19.95214,0 -32.22316,-17.42299 -8.71149,-12.3647 -8.71149,-32.69151 0,-23.23065 11.24064,-35.40801 11.24063,-12.17735 29.41299,-12.17735 11.61533,0 19.10908,3.93423 7.58743,3.93421 14.14447,13.02039 z m -35.87635,48.24105 q 0,10.77229 4.58992,16.01792 4.58993,5.15195 12.08368,5.15195 7.11906,0 11.89634,-5.3393 4.87093,-5.43298 4.87093,-16.29892 0,-10.86595 -5.05828,-16.57994 -5.05828,-5.80766 -12.36469,-5.80766 -7.30642,0 -11.70899,5.3393 -4.30891,5.24563 -4.30891,17.51665 z"
         style="font-weight:bold;font-size:14.8037px;line-height:1.25;font-family:Arial;-inkscape-font-specification:'Arial Bold';stroke-width:0.999165"
         id="path32477" />
      <path
         d="m 838.03098,125 v 137.3231 h -35.68902 v -14.7065 q -7.49375,9.36718 -13.6761,12.6457 -8.24313,4.30891 -18.3597,4.30891 -20.32682,0 -31.0991,-15.45587 -10.6786,-15.45586 -10.6786,-37.56245 0,-24.7294 11.80267,-37.84347 11.89634,-13.11408 30.16237,-13.11408 8.89884,0 16.11157,2.9975 7.30642,2.99751 12.92674,8.99252 V 125 Z m -38.21816,87.30226 q 0,-11.70899 -4.96461,-17.42297 -4.96462,-5.80767 -12.55205,-5.80767 -6.6507,0 -11.14696,5.52664 -4.49624,5.52665 -4.49624,18.54706 0,12.17735 4.58992,17.89134 4.68359,5.62031 11.52165,5.62031 7.30641,0 12.17735,-5.71398 4.87094,-5.714 4.87094,-18.64073 z"
         style="font-weight:bold;font-size:14.8037px;line-height:1.25;font-family:Arial;-inkscape-font-specification:'Arial Bold';stroke-width:0.999165"
         id="path32479" />
      <path
         d="m 856.57806,212.8643 q 0,-22.76229 15.3622,-37.46878 15.3622,-14.80018 41.49669,-14.80018 29.88134,0 45.14988,17.32932 12.27102,13.95712 12.27102,34.3776 0,22.94964 -15.26852,37.65614 -15.17486,14.61281 -42.05872,14.61281 -23.98002,0 -38.78019,-12.17735 -18.17236,-15.08118 -18.17236,-39.52956 z m 38.21816,-0.0933 q 0,13.30142 5.3393,19.67112 5.43298,6.36969 13.58244,6.36969 8.24313,0 13.48876,-6.27603 5.3393,-6.27602 5.3393,-20.13946 0,-12.92673 -5.3393,-19.20276 -5.3393,-6.36969 -13.20774,-6.36969 -8.33681,0 -13.76979,6.46336 -5.43297,6.36969 -5.43297,19.48377 z"
         style="font-weight:bold;font-size:14.8037px;line-height:1.25;font-family:Arial;-inkscape-font-specification:'Arial Bold';stroke-width:0.999165"
         id="path32481" />
      <path
         d="m 989.21759,162.84347 h 35.50171 v 16.20525 q 7.9621,-9.92923 16.1115,-14.14447 8.1495,-4.30891 19.8585,-4.30891 15.8306,0 24.7294,9.46087 8.9925,9.3672 8.9925,29.03831 v 63.22858 h -38.3118 v -54.70443 q 0,-9.3672 -3.4659,-13.20775 -3.4659,-3.93422 -9.7419,-3.93422 -6.9317,0 -11.2406,5.24563 -4.3089,5.24563 -4.3089,18.82806 v 47.77271 h -38.12451 z"
         style="font-weight:bold;font-size:14.8037px;line-height:1.25;font-family:Arial;-inkscape-font-specification:'Arial Bold';stroke-width:0.999165"
         id="path32483" />
      <path
         d="m 1183.5869,125 h 113.7177 v 29.31933 h -71.1906 v 21.82556 h 66.0387 v 28.00791 h -66.0387 v 27.0712 h 73.2515 v 31.0991 h -115.7786 z"
         style="font-weight:bold;font-size:14.8037px;line-height:1.25;font-family:Arial;-inkscape-font-specification:'Arial Bold';stroke-width:0.999165"
         id="path32485" />
      <path
         d="m 1321.0037,125 h 38.2181 v 137.3231 h -38.2181 z"
         style="font-weight:bold;font-size:14.8037px;line-height:1.25;font-family:Arial;-inkscape-font-specification:'Arial Bold';stroke-width:0.999165"
         id="path32487" />
      <path
         d="m 1494.0158,222.04415 h -76.4363 q 1.0302,9.17985 4.9646,13.67611 5.5267,6.46336 14.4254,6.46336 5.6203,0 10.6786,-2.81016 3.0912,-1.77977 6.6508,-6.27602 l 37.5625,3.46586 q -8.6178,14.98752 -20.7952,21.54456 -12.1774,6.46335 -34.9396,6.46335 -19.7649,0 -31.0991,-5.52663 -11.3344,-5.62033 -18.8282,-17.704 -7.4001,-12.17736 -7.4001,-28.56996 0,-23.32432 14.8939,-37.7498 14.9875,-14.42548 41.3093,-14.42548 21.3572,0 33.722,6.46337 12.3646,6.46336 18.828,18.73439 6.4634,12.27103 6.4634,31.94214 z m -38.7802,-18.26603 q -1.1236,-11.0533 -5.995,-15.83057 -4.7773,-4.77727 -12.6457,-4.77727 -9.0862,0 -14.5192,7.21275 -3.4659,4.49626 -4.4025,13.39509 z"
         style="font-weight:bold;font-size:14.8037px;line-height:1.25;font-family:Arial;-inkscape-font-specification:'Arial Bold';stroke-width:0.999165"
         id="path32489" />
      <path
         d="m 1511.8134,162.84347 h 35.5953 v 14.51916 q 7.6811,-9.08618 15.4559,-12.92673 7.8685,-3.84056 18.9217,-3.84056 11.8964,0 18.8281,4.21524 6.9318,4.21524 11.3343,12.55205 8.9925,-9.74189 16.3926,-13.20776 7.4002,-3.55953 18.2661,-3.55953 16.0179,0 25.0103,9.55454 8.9925,9.46087 8.9925,29.69401 v 62.47921 h -38.2181 v -56.67155 q 0,-6.74438 -2.6228,-10.02289 -3.8406,-5.15196 -9.5546,-5.15196 -6.7443,0 -10.8659,4.87093 -4.1216,4.87096 -4.1216,15.64323 v 51.33224 h -38.2181 v -54.79811 q 0,-6.55703 -0.749,-8.89884 -1.2182,-3.74686 -4.2153,-5.99499 -2.9974,-2.34181 -7.0253,-2.34181 -6.5571,0 -10.7724,4.96462 -4.2151,4.96462 -4.2151,16.29892 v 50.77021 h -38.2183 z"
         style="font-weight:bold;font-size:14.8037px;line-height:1.25;font-family:Arial;-inkscape-font-specification:'Arial Bold';stroke-width:0.999165"
         id="path32491" />
      <path
         d="m 1813.8119,222.04415 h -76.4364 q 1.0303,9.17985 4.9646,13.67611 5.5267,6.46336 14.4255,6.46336 5.6203,0 10.6787,-2.81016 3.0911,-1.77977 6.6506,-6.27602 l 37.5625,3.46586 q -8.6178,14.98752 -20.7952,21.54456 -12.1774,6.46335 -34.9396,6.46335 -19.7648,0 -31.0991,-5.52663 -11.3344,-5.62033 -18.828,-17.704 -7.4002,-12.17736 -7.4002,-28.56996 0,-23.32432 14.8938,-37.7498 14.9875,-14.42548 41.3094,-14.42548 21.3572,0 33.7219,6.46337 12.3647,6.46336 18.8281,18.73439 6.4634,12.27103 6.4634,31.94214 z m -38.7803,-18.26603 q -1.1235,-11.0533 -5.9949,-15.83057 -4.7774,-4.77727 -12.6458,-4.77727 -9.0861,0 -14.5191,7.21275 -3.4659,4.49626 -4.4026,13.39509 z"
         style="font-weight:bold;font-size:14.8037px;line-height:1.25;font-family:Arial;-inkscape-font-specification:'Arial Bold';stroke-width:0.999165"
         id="path32493" />
      <path
         d="m 1831.3286,162.84347 h 35.5016 v 16.20525 q 7.9621,-9.92923 16.1116,-14.14447 8.1495,-4.30891 19.8584,-4.30891 15.8306,0 24.7294,9.46087 8.9925,9.3672 8.9925,29.03831 v 63.22858 h -38.3118 v -54.70443 q 0,-9.3672 -3.4659,-13.20775 -3.4659,-3.93422 -9.7419,-3.93422 -6.9317,0 -11.2405,5.24563 -4.309,5.24563 -4.309,18.82806 v 47.77271 h -38.1244 z"
         style="font-weight:bold;font-size:14.8037px;line-height:1.25;font-family:Arial;-inkscape-font-specification:'Arial Bold';stroke-width:0.999165"
         id="path32495" />
      <path
         d="m 2005.2772,125 v 37.84347 h 20.9826 v 27.82057 h -20.9826 v 35.31433 q 0,6.36969 1.2182,8.43047 1.8735,3.18485 6.5571,3.18485 4.2151,0 11.8026,-2.43547 l 2.8101,26.32182 q -14.1444,3.09117 -26.4155,3.09117 -14.2381,0 -20.9824,-3.6532 -6.7445,-3.6532 -10.023,-11.05329 -3.1848,-7.49375 -3.1848,-24.16737 v -35.03331 h -14.0508 v -27.82057 h 14.0508 v -18.26604 z"
         style="font-weight:bold;font-size:14.8037px;line-height:1.25;font-family:Arial;-inkscape-font-specification:'Arial Bold';stroke-width:0.999165"
         id="path32497" />
      <path
         d="m 2079.1844,195.06662 -36.4383,-3.84055 q 2.0607,-9.55453 5.9013,-14.98751 3.9342,-5.52665 11.2406,-9.55455 5.2457,-2.90382 14.4255,-4.49624 9.1799,-1.59243 19.8584,-1.59243 17.1421,0 27.5396,1.96711 10.3976,1.87345 17.3293,7.96213 4.871,4.21523 7.6811,11.99 2.8102,7.6811 2.8102,14.7065 v 43.93215 q 0,7.0254 0.8436,11.0533 0.9369,3.93421 3.9342,10.11657 h -35.7827 q -2.1544,-3.84056 -2.8102,-5.80766 -0.6557,-2.0608 -1.3114,-6.3697 -7.4938,7.21274 -14.8938,10.30391 -10.1166,4.12156 -23.5117,4.12156 -17.7977,0 -27.0712,-8.24312 -9.1798,-8.24314 -9.1798,-20.32682 0,-11.33431 6.6507,-18.64072 6.6507,-7.30642 24.5421,-10.86595 21.4507,-4.30891 27.8205,-5.995 6.3697,-1.77977 13.4888,-4.58992 0,-7.0254 -2.9039,-9.83556 -2.9038,-2.81016 -10.2102,-2.81016 -9.3672,0 -14.0508,2.9975 -3.6532,2.3418 -5.9014,8.80516 z m 33.0663,20.0458 q -7.8684,2.81016 -16.3927,4.96462 -11.6152,3.09117 -14.7065,6.08868 -3.1847,3.09117 -3.1847,7.0254 0,4.49624 3.0911,7.40008 3.1849,2.81016 9.2735,2.81016 6.3697,0 11.8027,-3.09117 5.5266,-3.09118 7.7747,-7.49377 2.3419,-4.49626 2.3419,-11.61532 z"
         style="font-weight:bold;font-size:14.8037px;line-height:1.25;font-family:Arial;-inkscape-font-specification:'Arial Bold';stroke-width:0.999165"
         id="path32499" />
      <path
         d="m 2172.7629,162.84347 h 35.6889 v 16.29893 q 5.152,-10.58494 10.585,-14.51917 5.5266,-4.02789 13.5824,-4.02789 8.4306,0 18.4534,5.24563 l -11.8026,27.16487 q -6.7444,-2.81016 -10.6787,-2.81016 -7.4938,0 -11.6152,6.18235 -5.9014,8.7115 -5.9014,32.59784 v 33.34723 h -38.3118 z"
         style="font-weight:bold;font-size:14.8037px;line-height:1.25;font-family:Arial;-inkscape-font-specification:'Arial Bold';stroke-width:0.999165"
         id="path32501" />
      <path
         d="m 2257.6296,162.84347 h 40.2789 l 20.5141,66.22607 19.0155,-66.22607 h 37.5625 l -39.436,106.31767 q -6.7444,18.17236 -13.7698,24.54206 -9.9291,8.99251 -30.256,8.99251 -8.2432,0 -25.4788,-2.24813 l -2.9974,-26.60284 q 8.243,2.62281 18.3597,2.62281 6.7443,0 10.8659,-3.09117 4.2152,-3.09117 7.119,-11.05328 z"
         style="font-weight:bold;font-size:14.8037px;line-height:1.25;font-family:Arial;-inkscape-font-specification:'Arial Bold';stroke-width:0.999165"
         id="path32503" />
    </g>
    <g
       id="g2707"
       transform="matrix(1.0677524,0,0,1.0677524,-71.936155,-25.406687)">
      <path
         style="stroke-width:12.4024"
         d="M 877.38023,377.39325 H 564.47965 l -33.43691,289.01354 h -83.60471 l -9.54985,95.56063 h 83.59229 l -19.11212,179.1281 h 169.59066 l 47.7741,-446.66067 h 62.0989 c 38.22426,0 66.88626,4.77495 64.49259,62.09891 0,105.0981 -33.43692,109.87303 -78.81737,109.87303 h -40.60552 l -9.54984,97.92949 h 102.7044 C 927.53564,761.96742 1003.9717,730.91174 1015.9152,546.9839 1025.4775,403.66157 917.98575,377.39325 877.38023,377.39325 Z"
         id="path527" />
      <path
         style="stroke-width:12.4024"
         d="m 1995.2227,664.02553 h -78.8299 l 26.2932,-289.02595 -355.8997,2.39367 -224.5211,566.09594 h 174.3533 l 160.0533,-446.67306 h 71.6487 l -19.1122,169.59066 h -93.167 l -11.9434,95.56063 h 95.5607 l -19.1123,179.1281 h 169.5907 l 16.7184,-179.1281 h 78.8174 z"
         id="path525" />
      <path
         style="stroke-width:12.4024"
         d="m 1042.196,377.39325 -11.9436,119.42288 h 171.972 c -62.0989,167.19699 -171.972,446.67306 -171.972,446.67306 h 174.3656 l 179.1282,-446.67306 h 124.2227 l 47.774,-119.42288 z"
         id="path523" />
      <path
         style="stroke-width:12.4024"
         d="m 1992.8413,434.71721 h 7.1439 l 11.9436,19.11214 h 7.1685 l -11.9435,-19.11214 c 4.775,0 11.9435,-4.77491 11.9435,-11.94352 0,-9.54985 -7.1685,-11.94352 -16.7184,-11.94352 h -16.7185 v 42.99918 h 7.1685 v -19.11214 z m 0,-4.77491 v -14.33721 h 9.5499 c 4.7749,0 9.5499,0 9.5499,7.1686 0,4.77494 -4.775,7.16861 -11.9435,7.16861 z"
         id="path521" />
      <path
         style="stroke-width:12.4024"
         d="m 1968.9667,432.33595 c 0,-19.11211 14.3124,-31.04323 31.0309,-31.04323 16.7432,0 31.0556,11.94352 31.0556,31.04323 0,16.71846 -14.3124,31.04325 -31.0556,31.04325 -16.7185,0 -31.0309,-14.32479 -31.0309,-31.04325 z m 31.0309,38.21185 c 21.5058,0 38.2242,-16.71845 38.2242,-38.22426 0,-21.50578 -16.7184,-38.22423 -38.2242,-38.22423 -21.481,0 -38.1995,16.71845 -38.1995,38.22423 0,21.50581 16.7061,38.22426 38.1995,38.22426 z"
         id="path519" />
    </g>
  </g>
</svg>
