<?xml version="1.0" encoding="UTF-8" standalone="no"?>
<!-- Created with Inkscape (http://www.inkscape.org/) -->

<svg
   width="121.50266mm"
   height="101.9266mm"
   viewBox="0 0 121.50266 101.9266"
   version="1.1"
   id="svg1"
   inkscape:version="1.4 (e7c3feb100, 2024-10-09)"
   sodipodi:docname="project-gift-logo.svg"
   xmlns:inkscape="http://www.inkscape.org/namespaces/inkscape"
   xmlns:sodipodi="http://sodipodi.sourceforge.net/DTD/sodipodi-0.dtd"
   xmlns="http://www.w3.org/2000/svg"
   xmlns:svg="http://www.w3.org/2000/svg">
  <sodipodi:namedview
     id="namedview1"
     pagecolor="#ffffff"
     bordercolor="#666666"
     borderopacity="1.0"
     inkscape:showpageshadow="2"
     inkscape:pageopacity="0.0"
     inkscape:pagecheckerboard="0"
     inkscape:deskcolor="#d1d1d1"
     inkscape:document-units="mm"
     inkscape:zoom="1.0078851"
     inkscape:cx="301.1256"
     inkscape:cy="249.03633"
     inkscape:window-width="1920"
     inkscape:window-height="1011"
     inkscape:window-x="0"
     inkscape:window-y="0"
     inkscape:window-maximized="1"
     inkscape:current-layer="layer1" />
  <defs
     id="defs1" />
  <g
     inkscape:label="Layer 1"
     inkscape:groupmode="layer"
     id="layer1"
     transform="translate(16.139583,-22.225)">
    <path
       id="path2"
       d="m 34.696071,35.701191 c -0.0041,-0.265102 -0.114897,-0.322291 -0.320051,-0.448554 -0.152446,-0.0937 -0.419957,-0.205669 -0.488685,-0.380163 -0.04048,-0.102839 -0.01774,-0.214803 -0.01983,-0.323498 -0.0021,-0.09939 -0.02085,-0.224962 0.0021,-0.320738 0.04272,-0.177423 0.161922,-0.363802 0.04823,-0.545356 0.08975,0.0036 0.188793,0.09595 0.273368,0.131258 0.09199,0.03841 0.170705,0.0503 0.27027,0.07631 0.182587,0.04772 0.410308,0.01327 0.602717,0.01549 0.194303,0.0021 0.386369,-0.04513 0.53382,0.09095 0.07338,0.0677 0.160884,0.09595 0.237366,0.154686 0.03721,0.02861 0.06305,0.05167 0.100425,0.07768 0.04565,0.03154 0.08096,0.02187 0.09491,0.09095"
       style="fill:#ed1c24;fill-opacity:1;fill-rule:nonzero;stroke:none;stroke-width:0.352778" />
    <path
       id="path3"
       d="m 34.281797,35.425065 1.703084,-1.196827 1.611097,1.150662 0.966696,1.611101 0.920527,0.9207 0.966696,0.460266 0.506254,0.414271 1.979379,-0.368279 v -2.669777 l 0.322291,0.782553 0.506257,0.18414 0.460435,0.414274 0.36811,0.874536 0.368282,0.828548 0.18414,0.736561 0.184139,0.690569 0.322118,0.460262 -0.966523,0.368283 -0.552422,0.460265 -0.598413,0.414271 -0.828545,0.322291 H 41.922847 L 40.818176,42.007436 39.989631,41.869288 39.25307,41.409022 38.1484,41.178891 h -0.828545 l -0.920704,0.184139 -0.966692,-0.138147 -0.920531,-0.368279 -1.611097,-0.506257 -0.920701,-0.230135 -0.368282,-0.828544 0.874709,0.137978 1.196826,0.09216 1.058679,0.18414 1.657089,0.41427 1.104671,-0.138148 -0.598241,-0.552418 -0.966692,-0.552249 -0.874712,-0.874712 -0.506254,-0.644405 0.644405,-0.460262 -0.276126,-0.644405 z"
       style="fill:#ed1c24;fill-opacity:1;fill-rule:nonzero;stroke:none;stroke-width:0.352778" />
    <g
       id="g3"
       transform="matrix(0.26458333,0,0,0.26458333,-63.126895,-51.983389)">
      <g
         id="g4">
        <path
           id="path4"
           d="M 14.36719,-7.6162103 H 5.2265653 L 9.6210966,-22.323242 h 0.3515625 z m 2.355469,7.6171874875 h 2.496094 L 11.472659,-24.713867 H 8.1210966 L 0.37500281,9.771875e-4 H 2.8710966 L 4.4765653,-5.2255853 H 15.11719 Z M 23.727542,-11.600585 h 6.820312 c 3.691407,0 4.171875,1.089843 4.171875,4.6054684 0,3.515625 -0.480468,4.6054688 -4.171875,4.6054688 h -6.820312 z m 0,-10.722657 h 7.40625 c 3.035156,0 3.105469,1.675782 3.105469,4.160157 0,2.53125 -0.515625,4.171875 -3.246094,4.171875 H 23.727542 Z M 21.336917,9.771875e-4 h 9.726562 c 4.710938,0 6.035157,-2.0507812875 6.035157,-6.4804687875 0,-4.0312504 -0.339844,-5.8828124 -3.035157,-6.5273434 v -0.07031 c 2.285157,-0.949219 2.566407,-2.660156 2.566407,-5.765625 0,-3.996094 -0.960938,-5.871094 -5.566407,-5.871094 h -9.726562 z m 19.754883,0 h 2.390625 V -24.713867 H 41.0918 Z m 6.735351,0 h 2.390625 V -22.124023 h 0.05859 L 61.374026,9.771875e-4 h 3.785156 V -24.713867 h -2.378906 v 22.1250004 h -0.07031 L 51.612307,-24.713867 H 47.827151 Z M 76.769534,-9.7607416 h 6.410156 v 2.4609375 c 0,5.1445313 -1.089843,5.1796875 -5.835937,5.1796875 -5.589844,0 -6.316406,-0.75 -6.316406,-6.2109375 v -8.0507809 c 0,-5.460938 0.726562,-6.210938 6.316406,-6.210938 5.027344,0 5.835937,0.503906 5.835937,4.300781 v 0.878907 h 2.390625 v -2.484375 c 0,-4.675782 -3.375,-5.085938 -8.226562,-5.085938 -6.480469,0 -8.695313,1.230469 -8.695313,8.460938 v 8.3320309 c 0,7.23046879 2.214844,8.46093754 8.695313,8.46093754 5.332031,0 8.226562,-0.2695312525 8.226562,-6.89062504 V -12.151367 H 76.769534 Z M 88.889651,9.771875e-4 h 9.105469 c 7.51172,0 7.92187,-4.3007812875 7.92187,-13.3476561875 0,-7.207031 -0.33984,-11.367188 -7.570308,-11.367188 H 88.889651 Z M 91.280276,-22.323242 h 7.476563 c 4.019531,0 4.769531,1.839844 4.769531,9.960938 0,7.8515624 -0.82031,9.9726562 -4.769531,9.9726562 H 91.280276 Z M 124.0752,-8.3310541 c 0,5.4609375 -0.71485,6.2109375 -6.31641,6.2109375 -5.58984,0 -6.3164,-0.75 -6.3164,-6.2109375 v -8.0507809 c 0,-5.460938 0.72656,-6.210938 6.3164,-6.210938 5.60156,0 6.31641,0.75 6.31641,6.210938 z m -15.01172,0.140625 c 0,7.23046879 2.21484,8.46093754 8.69531,8.46093754 6.49219,0 8.70703,-1.23046875 8.70703,-8.46093754 V -16.52246 c 0,-7.230469 -2.21484,-8.460938 -8.70703,-8.460938 -6.48047,0 -8.69531,1.230469 -8.69531,8.460938 z m 20.88867,8.1914062875 h 2.39063 V -22.124023 h 0.0586 L 143.49903,9.771875e-4 h 3.78515 V -24.713867 h -2.3789 v 22.1250004 h -0.0703 L 133.73731,-24.713867 h -3.78516 z m 30.31055,0 h 13.17187 V -2.3896478 h -10.78125 v -9.2109372 h 10.30078 v -2.390625 h -10.30078 v -8.332032 h 10.85157 v -2.390625 H 160.2627 Z m 16.72558,0 h 12.79688 V -2.5888666 H 179.37891 V -24.713867 h -2.39063 z m 15.46289,0 h 13.17188 V -2.3896478 H 194.8418 v -9.2109372 h 10.30078 V -13.99121 H 194.8418 v -8.332032 h 10.85156 v -2.390625 h -13.24219 z m 16.72559,0 h 2.39063 V -22.124023 h 0.0586 L 219.3838,9.771875e-4 h 2.58985 L 229.71973,-22.124023 h 0.0703 V 9.771875e-4 h 2.39063 V -24.713867 h -3.9961 L 220.708,-2.9052728 h -0.0703 l -7.46485,-21.8085942 h -3.99609 z m 26.83008,0 h 13.17187 V -2.3896478 h -10.78125 v -9.2109372 h 10.30078 v -2.390625 h -10.30078 v -8.332032 h 10.85157 v -2.390625 h -13.24219 z m 16.72558,0 h 2.39063 V -22.124023 h 0.0586 L 266.2793,9.771875e-4 h 3.78516 V -24.713867 h -2.37891 v 22.1250004 h -0.0703 L 256.51758,-24.713867 h -3.78516 z m 26.07422,0 h 2.39063 V -22.323242 h 6.76172 v -2.390625 h -15.91407 v 2.390625 h 6.76172 z M 302.22071,-7.6162103 h -9.14063 l 4.39453,-14.7070317 h 0.35156 z m 2.35546,7.6171874875 h 2.4961 L 299.32617,-24.713867 h -3.35156 L 288.22852,9.771875e-4 h 2.49609 L 292.33008,-5.2255853 h 10.64063 z m 4.61426,0 h 2.39063 V -9.9365228 h 6.21093 c 3.75,0 4.67579,1.03125 4.67579,4.3007812 V 9.771875e-4 h 2.39062 V -6.7607416 c 0,-2.3203125 -0.78516,-3.7851564 -2.73047,-4.3359374 v -0.07031 c 2.25,-0.574218 3.14063,-2.285156 3.14063,-6.550781 0,-5.496094 -1.64063,-6.996094 -5.97657,-6.996094 H 309.19043 Z M 311.58106,-22.323242 h 6.99609 c 3.67969,0 4.30078,0.375 4.30078,5.015625 0,3.410157 -1.05469,4.980469 -3.55078,4.980469 h -7.74609 z M 334.67871,9.771875e-4 h 2.39063 V -10.276367 l 7.72265,-14.4375 h -2.49609 l -6.42187,12.011719 -6.41016,-12.011719 h -2.49609 l 7.71093,14.4375 z m 0,0"
           style="fill:#231f20;fill-opacity:1;fill-rule:nonzero;stroke:none"
           aria-label="ABINGDON ELEMENTARY"
           transform="matrix(1.3333333,0,0,1.3333333,177.08984,313.78385)" />
      </g>
    </g>
    <g
       id="g5"
       transform="matrix(0.26458333,0,0,0.26458333,-63.126895,-51.983389)">
      <g
         id="g6">
        <path
           id="path6"
           d="m 2.9306663,-14.648434 h 4.8046875 c 1.7226562,0 2.2382812,0.398438 2.2382812,3.375 0,2.7539065 -0.609375,3.386719 -2.484375,3.386719 H 2.9306663 Z M 1.3720725,3.75e-6 H 2.9306663 V -6.3164025 H 7.30176 c 2.53125,0 4.242188,-0.6328125 4.242188,-4.9570315 0,-2.953125 -0.585938,-4.945312 -3.3632817,-4.945312 H 1.3720725 Z m 11.8066405,0 h 1.558594 V -6.5156212 h 4.078125 c 2.472656,0 3.070312,0.6679687 3.070312,2.8242187 V 3.75e-6 h 1.570313 V -4.4414025 c 0,-1.5234375 -0.515625,-2.484375 -1.792969,-2.8359375 v -0.046875 c 1.476563,-0.3867187 2.0625,-1.5 2.0625,-4.300781 0,-3.609375 -1.078125,-4.59375 -3.914062,-4.59375 H 13.178713 Z M 14.737307,-14.648434 h 4.59375 c 2.425781,0 2.824219,0.246094 2.824219,3.292969 0,2.2382813 -0.691407,3.2695313 -2.332032,3.2695313 h -5.085937 z m 21.134766,9.1757815 c 0,3.5859375 -0.46875,4.078125 -4.148438,4.078125 -3.667969,0 -4.148437,-0.4921875 -4.148437,-4.078125 v -5.2851565 c 0,-3.585937 0.480468,-4.078125 4.148437,-4.078125 3.679688,0 4.148438,0.492188 4.148438,4.078125 z m -9.855469,0.09375 c 0,4.74609375 1.453125,5.5546875 5.707031,5.5546875 4.253906,0 5.71875,-0.80859375 5.71875,-5.5546875 V -10.83984 c 0,-4.757812 -1.464844,-5.566406 -5.71875,-5.566406 -4.253906,0 -5.707031,0.808594 -5.707031,5.566406 z m 19.78125,1.8867188 c 0,1.6992187 -0.632813,2.0976562 -2.671875,2.0976562 -2.039063,0 -2.660156,-0.3984375 -2.660156,-2.0976562 V -5.824215 H 38.89551 v 2.3789063 c 0,2.95312495 1.523438,3.6210937 4.230469,3.6210937 2.71875,0 4.242187,-0.66796875 4.242187,-3.6210937 V -16.218746 H 45.797854 Z M 49.875979,3.75e-6 h 8.648437 V -1.5703087 h -7.089843 v -6.046875 h 6.773437 v -1.5703125 h -6.773437 v -5.4609378 h 7.125 v -1.570312 H 49.875979 Z M 71.376955,-5.40234 h -1.429687 v 1.078125 c 0,2.2148438 -0.316406,2.9296875 -3.585938,2.9296875 -3.691406,0 -4.171875,-0.4921875 -4.171875,-4.078125 v -5.2851565 c 0,-3.585937 0.480469,-4.078125 4.171875,-4.078125 2.753907,0 3.585938,0.246094 3.585938,2.777344 v 1.054688 h 1.429687 v -1.160157 c 0,-3.761718 -1.429687,-4.242187 -5.015625,-4.242187 -4.277343,0 -5.730468,0.808594 -5.730468,5.566406 v 5.4609375 c 0,4.74609375 1.453125,5.5546875 5.730468,5.5546875 3.925782,0 5.015625,-0.8203125 5.015625,-4.3476562 z M 76.714846,3.75e-6 h 1.570312 V -14.648434 h 4.429688 v -1.570312 H 72.27344 v 1.570312 h 4.441406 z m 0,0"
           style="fill:#231f20;fill-opacity:1;fill-rule:nonzero;stroke:none"
           aria-label="PROJECT"
           transform="matrix(1.3333333,0,0,1.3333333,195.51432,354.32812)" />
      </g>
    </g>
    <g
       id="g7"
       transform="matrix(0.26458333,0,0,0.26458333,-63.126895,-51.983389)">
      <g
         id="g8">
        <path
           id="path8"
           d="m 6.6093719,-6.5507844 h 4.3125001 v 1.6523438 c 0,3.4570312 -0.738281,3.4804687 -3.9140626,3.4804687 -3.7617188,0 -4.2421875,-0.5039062 -4.2421875,-4.171875 v -5.3906251 c 0,-3.667969 0.4804687,-4.171875 4.2421875,-4.171875 3.3632816,0 3.9140626,0.339844 3.9140626,2.882813 v 0.597656 h 1.59375 v -1.675781 c 0,-3.128907 -2.261719,-3.410157 -5.5078126,-3.410157 -4.3476563,0 -5.8359375,0.832032 -5.8359375,5.683594 v 5.5781251 c 0,4.85156252 1.4882812,5.68359377 5.8359375,5.68359377 3.5624996,0 5.5078126,-0.187499995 5.5078126,-4.62890627 v -3.703125 H 6.6093719 Z M 20.958981,-3.125e-6 h 1.335938 V -8.5312531 c 0,-2.2734379 -0.738281,-3.3281249 -3.984375,-3.3281249 -3.644531,0 -3.984375,1.382812 -3.984375,2.8007811 v 0.609375 h 1.464844 c 0,-1.4882812 0.04687,-2.0742191 2.449218,-2.0742191 2.425782,0 2.589844,0.5859379 2.589844,2.3085941 v 2.1328125 H 20.7832 c -0.527344,-0.8085937 -1.007812,-1.0546875 -3.234375,-1.0546875 -3.105469,0 -3.632812,1.3710938 -3.632812,3.65625 0,2.25 0.667968,3.66796877 3.632812,3.66796877 1.722656,0 2.566406,-0.28125 3.410156,-1.19531247 z M 15.380856,-3.5507844 c 0,-1.78125 0.84375,-2.2617187 2.789063,-2.2617187 1.945312,0 2.789062,0.4804687 2.789062,2.2617187 0,1.7929688 -0.84375,2.2734375 -2.789062,2.2734375 -1.945313,0 -2.789063,-0.4804687 -2.789063,-2.2734375 z M 24.445309,-3.125e-6 h 1.464844 V -11.671878 h -1.464844 z m 0,-14.624999875 h 1.464844 v -1.945313 H 24.445309 Z M 28.063473,-3.125e-6 h 1.464844 V -7.3710969 c 0,-2.4726562 1.230469,-3.1523441 3.011719,-3.1523441 1.921875,0 2.226562,1.2773441 2.226562,2.6250004 V -3.125e-6 h 1.464844 V -8.2382844 c 0,-2.2617186 -0.738281,-3.6210936 -3.433594,-3.6210936 -1.699218,0 -2.496093,0.433594 -3.234375,1.699219 h -0.03516 v -1.511719 h -1.464844 z m 10.32129,0 h 1.464843 V -11.671878 h -1.464843 z m 0,-14.624999875 h 1.464843 v -1.945313 H 38.384763 Z M 42.002927,-3.125e-6 H 43.46777 V -7.3710969 c 0,-2.4726562 1.230469,-3.1523441 3.011719,-3.1523441 1.921875,0 2.226563,1.2773441 2.226563,2.6250004 V -3.125e-6 h 1.464843 V -8.2382844 c 0,-2.2617186 -0.738281,-3.6210936 -3.433593,-3.6210936 -1.699219,0 -2.496094,0.433594 -3.234375,1.699219 h -0.03516 v -1.511719 h -1.46484 z M 53.528317,-6.1289094 c 0,-3.09375 0.210938,-4.2656246 2.566406,-4.2656246 2.378907,0 2.953125,0.9374996 2.953125,4.2656246 0,3.3164063 -0.574218,4.2539063 -2.953125,4.2539063 -2.355468,0 -2.566406,-1.171875 -2.566406,-4.2539063 z m 5.519531,5.74218752 c 0,2.71874998 -0.480468,3.22265628 -2.859375,3.22265628 -1.875,0 -2.472656,-0.4101563 -2.472656,-1.78125 h -1.464844 c -0.04687,2.4492187 1.347657,3.2460937 3.609375,3.2460937 3.574219,0 4.652344,-0.9609375 4.652344,-4.41796873 V -11.671878 h -1.464844 v 1.582031 h -0.04687 c -0.644531,-1.394531 -1.558593,-1.769531 -3.046875,-1.769531 -3.773437,0 -4.019531,2.4960936 -4.019531,5.7304686 0,3.2226563 0.246094,5.71875002 4.019531,5.71875002 1.417969,0 2.449219,-0.38671875 3.046875,-1.69921872 h 0.04687 z M 68.493161,-3.125e-6 H 70.09863 V -16.570316 h -1.605469 z m 3.902344,0 h 1.464843 V -7.3710969 c 0,-2.4726562 1.230469,-3.1523441 3.011719,-3.1523441 1.921875,0 2.226563,1.2773441 2.226563,2.6250004 V -3.125e-6 h 1.464843 V -8.2382844 c 0,-2.2617186 -0.738281,-3.6210936 -3.433593,-3.6210936 -1.699219,0 -2.496094,0.433594 -3.234375,1.699219 h -0.03516 v -1.511719 h -1.46484 z M 82.303708,-3.6210969 c 0,3.48046877 1.230469,3.80859377 3.914062,3.80859377 3.773438,0 4.300782,-0.984375 4.300782,-3.73828127 0,-2.5546875 -0.527344,-2.8359375 -3.984375,-3.0351562 -2.472657,-0.140625 -2.683594,-0.28125 -2.683594,-1.9335938 0,-1.8046876 0.375,-2.0039066 2.402344,-2.0039066 2.203125,0 2.683593,0.105469 2.683593,1.8984379 h 1.464844 c 0,-2.4492189 -0.667969,-3.2343749 -4.078125,-3.2343749 -3.480469,0 -3.9375,0.960937 -3.9375,3.4101561 0,2.5898438 0.808594,3.0234375 3.738281,3.1875 2.765625,0.1523438 2.929688,0.2695313 2.929688,1.8046875 0,1.96875 -0.433594,2.3085938 -2.800781,2.3085938 -2.167969,0 -2.53125,-0.4570313 -2.484375,-2.4726563 z m 10.341797,1.40625 c 0,1.73437502 0.585937,2.40234377 2.742187,2.40234377 1.699219,0 2.882813,-0.3984375 2.882813,-4.12499997 h -1.324219 c 0,2.5898437 -0.480469,2.7890625 -1.582031,2.7890625 -0.960938,0 -1.253907,-0.4335938 -1.253907,-1.3945313 v -7.8046871 h 3.773438 v -1.324219 h -3.773438 v -2.695313 h -1.464843 v 2.695313 h -1.21875 v 1.324219 h 1.21875 z M 99.216794,-3.125e-6 h 1.464846 V -8.1210969 c 0,-1.6054687 0.75,-2.4257811 2.21484,-2.4023441 1.67578,0 1.92188,0.5859379 1.89844,2.7421879 h 1.32422 v -0.9375 c 0,-2.3320309 -0.84375,-3.1406249 -2.69531,-3.1406249 -1.46485,0 -2.15625,0.480469 -2.70704,1.605469 h -0.0352 v -1.417969 H 99.216794 Z M 115.18945,-11.671878 h -1.46484 v 7.3710936 c 0,2.4726563 -1.24219,3.1523438 -3.02344,3.1523438 -1.92188,0 -2.21484,-1.2773438 -2.21484,-2.625 v -7.8984374 h -1.46485 v 8.2382811 c 0,2.2617188 0.72656,3.62109377 3.42188,3.62109377 1.69922,0 2.49609,-0.43359375 3.23437,-1.69921877 h 0.0469 V -3.125e-6 h 1.46484 z m 9.67383,3.8906249 c 0,-3.0937499 -0.65625,-4.0781249 -3.82031,-4.0781249 -3.52735,0 -4.30079,1.195312 -4.30079,6.0234374 0,4.734375 0.45704,6.02343747 4.30079,6.02343747 2.61328,0 4.03125,-0.64453125 4.03125,-3.66796877 v -0.75 h -1.46485 c 0,2.5195313 -0.45703,3.0820313 -2.5664,3.0820313 -2.33204,0 -2.69532,-0.3398438 -2.69532,-4.6875 0,-4.3476564 0.36328,-4.6875004 2.69532,-4.6875004 1.94531,0 2.35546,0.6093754 2.35546,2.7421879 z m 1.97461,5.5664062 c 0,1.73437502 0.58594,2.40234377 2.74219,2.40234377 1.69921,0 2.88281,-0.3984375 2.88281,-4.12499997 h -1.32422 c 0,2.5898437 -0.48047,2.7890625 -1.58203,2.7890625 -0.96094,0 -1.25391,-0.4335938 -1.25391,-1.3945313 v -7.8046871 h 3.77344 v -1.324219 h -3.77344 v -2.695313 h -1.46484 v 2.695313 h -1.21875 v 1.324219 h 1.21875 z M 133.7959,-3.125e-6 h 1.46484 V -11.671878 h -1.46484 z m 0,-14.624999875 h 1.46484 v -1.945313 h -1.46484 z m 5.01269,8.7890624 c 0,-4.3476564 0.36328,-4.6875004 2.69531,-4.6875004 2.33203,0 2.70703,0.339844 2.70703,4.6875004 0,4.3476562 -0.375,4.6875 -2.70703,4.6875 -2.33203,0 -2.69531,-0.3398438 -2.69531,-4.6875 z m -1.60547,0 c 0,4.828125 0.50391,6.02343747 4.30078,6.02343747 3.79688,0 4.30078,-1.19531247 4.30078,-6.02343747 0,-4.6406254 -0.45703,-6.0234374 -4.30078,-6.0234374 -3.84375,0 -4.30078,1.382812 -4.30078,6.0234374 z M 147.36914,-3.125e-6 h 1.46484 V -7.3710969 c 0,-2.4726562 1.23047,-3.1523441 3.01172,-3.1523441 1.92188,0 2.22656,1.2773441 2.22656,2.6250004 V -3.125e-6 h 1.46485 V -8.2382844 c 0,-2.2617186 -0.73828,-3.6210936 -3.4336,-3.6210936 -1.69922,0 -2.49609,0.433594 -3.23437,1.699219 h -0.0352 v -1.511719 h -1.46484 z m 11.09179,0 h 0.69141 c 0,1.394531225 -0.21094,1.558593725 -0.83203,1.558593725 v 0.9140625 c 1.17187,0 1.74609,-0.140625 1.74609,-2.08593748 V -2.1093781 h -1.60547 z m 10.41504,0 h 1.60547 V -7.5468781 h 6.70313 v -1.6054688 h -6.70313 v -5.8125001 h 6.98438 v -1.605469 h -8.58985 z M 180.02636,-5.8359406 c 0,-4.3476564 0.36329,-4.6875004 2.69532,-4.6875004 2.33203,0 2.70703,0.339844 2.70703,4.6875004 0,4.3476562 -0.375,4.6875 -2.70703,4.6875 -2.33203,0 -2.69532,-0.3398438 -2.69532,-4.6875 z m -1.60546,0 c 0,4.828125 0.5039,6.02343747 4.30078,6.02343747 3.79687,0 4.30078,-1.19531247 4.30078,-6.02343747 0,-4.6406254 -0.45703,-6.0234374 -4.30078,-6.0234374 -3.84375,0 -4.30078,1.382812 -4.30078,6.0234374 z m 10.14257,2.2148437 c 0,3.48046877 1.23047,3.80859377 3.91407,3.80859377 3.77343,0 4.30078,-0.984375 4.30078,-3.73828127 0,-2.5546875 -0.52735,-2.8359375 -3.98438,-3.0351562 -2.47265,-0.140625 -2.68359,-0.28125 -2.68359,-1.9335938 0,-1.8046876 0.375,-2.0039066 2.40234,-2.0039066 2.20313,0 2.6836,0.105469 2.6836,1.8984379 h 1.46484 c 0,-2.4492189 -0.66797,-3.2343749 -4.07813,-3.2343749 -3.48046,0 -3.9375,0.960937 -3.9375,3.4101561 0,2.5898438 0.8086,3.0234375 3.73829,3.1875 2.76562,0.1523438 2.92968,0.2695313 2.92968,1.8046875 0,1.96875 -0.43359,2.3085938 -2.80078,2.3085938 -2.16797,0 -2.53125,-0.4570313 -2.48437,-2.4726563 z m 10.34473,1.40625 c 0,1.73437502 0.58594,2.40234377 2.74219,2.40234377 1.69922,0 2.88281,-0.3984375 2.88281,-4.12499997 h -1.32422 c 0,2.5898437 -0.48047,2.7890625 -1.58203,2.7890625 -0.96094,0 -1.25391,-0.4335938 -1.25391,-1.3945313 v -7.8046871 h 3.77344 v -1.324219 h -3.77344 v -2.695313 h -1.46484 v 2.695313 h -1.21875 v 1.324219 h 1.21875 z m 7.96289,-4.7460937 c 0,-2.4726563 0.0469,-3.5625004 2.64844,-3.5625004 2.61328,0 2.66015,1.0898441 2.66015,3.5625004 z m 6.77344,1.4648437 v -1.7578125 c 0,-3.1874996 -0.57422,-4.6054686 -4.07813,-4.6054686 -3.52734,0 -4.30078,1.195312 -4.30078,6.0234374 0,4.734375 0.45703,6.02343747 4.30078,6.02343747 3.50391,0 4.07813,-0.90234375 4.07813,-3.23437497 v -0.4335938 h -1.46485 c 0,2.2851563 -0.5039,2.3320313 -2.85937,2.3320313 -2.01563,0 -2.44922,-0.7265625 -2.44922,-3.2695313 v -1.078125 z m 1.7666,5.496093775 h 1.46484 V -8.1210969 c 0,-1.6054687 0.75,-2.4257811 2.21485,-2.4023441 1.67578,0 1.92187,0.5859379 1.89843,2.7421879 h 1.32422 v -0.9375 c 0,-2.3320309 -0.84375,-3.1406249 -2.69531,-3.1406249 -1.46484,0 -2.15625,0.480469 -2.70703,1.605469 h -0.0352 v -1.417969 h -1.46484 z m 8.18848,0 h 1.46484 V -11.671878 h -1.46484 z m 0,-14.624999875 h 1.46484 v -1.945313 h -1.46484 z M 227.2207,-3.125e-6 h 1.46484 V -7.3710969 c 0,-2.4726562 1.23047,-3.1523441 3.01172,-3.1523441 1.92188,0 2.22657,1.2773441 2.22657,2.6250004 V -3.125e-6 h 1.46484 V -8.2382844 c 0,-2.2617186 -0.73828,-3.6210936 -3.43359,-3.6210936 -1.69922,0 -2.4961,0.433594 -3.23438,1.699219 h -0.0352 v -1.511719 h -1.4648 z M 238.74609,-6.1289094 c 0,-3.09375 0.21094,-4.2656246 2.56641,-4.2656246 2.3789,0 2.95312,0.9374996 2.95312,4.2656246 0,3.3164063 -0.57422,4.2539063 -2.95312,4.2539063 -2.35547,0 -2.56641,-1.171875 -2.56641,-4.2539063 z m 5.51953,5.74218752 c 0,2.71874998 -0.48047,3.22265628 -2.85937,3.22265628 -1.875,0 -2.47266,-0.4101563 -2.47266,-1.78125 h -1.46484 c -0.0469,2.4492187 1.34765,3.2460937 3.60937,3.2460937 3.57422,0 4.65235,-0.9609375 4.65235,-4.41796873 V -11.671878 h -1.46485 v 1.582031 h -0.0469 c -0.64453,-1.394531 -1.5586,-1.769531 -3.04688,-1.769531 -3.77344,0 -4.01953,2.4960936 -4.01953,5.7304686 0,3.2226563 0.24609,5.71875002 4.01953,5.71875002 1.41797,0 2.44922,-0.38671875 3.04688,-1.69921872 h 0.0469 z M 256.66406,-3.125e-6 h 1.60547 V -14.964847 h 4.53515 v -1.605469 h -10.66406 v 1.605469 h 4.52344 z m 13.68457,0 h 1.33594 V -8.5312531 c 0,-2.2734379 -0.73828,-3.3281249 -3.98438,-3.3281249 -3.64453,0 -3.98437,1.382812 -3.98437,2.8007811 v 0.609375 h 1.46484 c 0,-1.4882812 0.0469,-2.0742191 2.44922,-2.0742191 2.42578,0 2.58984,0.5859379 2.58984,2.3085941 v 2.1328125 h -0.0469 c -0.52735,-0.8085937 -1.00781,-1.0546875 -3.23438,-1.0546875 -3.10547,0 -3.63281,1.3710938 -3.63281,3.65625 0,2.25 0.66797,3.66796877 3.63281,3.66796877 1.72266,0 2.56641,-0.28125 3.41016,-1.19531247 z M 264.7705,-3.5507844 c 0,-1.78125 0.84375,-2.2617187 2.78907,-2.2617187 1.94531,0 2.78906,0.4804687 2.78906,2.2617187 0,1.7929688 -0.84375,2.2734375 -2.78906,2.2734375 -1.94532,0 -2.78907,-0.4804687 -2.78907,-2.2734375 z m 9.06446,3.550781275 h 1.46484 V -16.570316 h -1.46484 z m 5.01269,-6.960937475 c 0,-2.4726563 0.0469,-3.5625004 2.64844,-3.5625004 2.61328,0 2.66016,1.0898441 2.66016,3.5625004 z m 6.77344,1.4648437 v -1.7578125 c 0,-3.1874996 -0.57422,-4.6054686 -4.07812,-4.6054686 -3.52735,0 -4.30079,1.195312 -4.30079,6.0234374 0,4.734375 0.45704,6.02343747 4.30079,6.02343747 3.5039,0 4.07812,-0.90234375 4.07812,-3.23437497 v -0.4335938 h -1.46484 c 0,2.2851563 -0.50391,2.3320313 -2.85938,2.3320313 -2.01562,0 -2.44922,-0.7265625 -2.44922,-3.2695313 v -1.078125 z m 1.7666,5.496093775 h 1.46485 V -7.3710969 c 0,-2.4726562 1.23046,-3.1523441 3.01171,-3.1523441 1.92188,0 2.22657,1.2773441 2.22657,2.6250004 V -3.125e-6 h 1.46484 V -8.2382844 c 0,-2.2617186 -0.73828,-3.6210936 -3.43359,-3.6210936 -1.69922,0 -2.4961,0.433594 -3.23438,1.699219 h -0.0352 v -1.511719 h -1.46485 z M 297.70605,-2.2148469 c 0,1.73437502 0.58594,2.40234377 2.74219,2.40234377 1.69922,0 2.88281,-0.3984375 2.88281,-4.12499997 h -1.32422 c 0,2.5898437 -0.48047,2.7890625 -1.58203,2.7890625 -0.96094,0 -1.2539,-0.4335938 -1.2539,-1.3945313 v -7.8046871 h 3.77343 v -1.324219 h -3.77343 v -2.695313 h -1.46485 v 2.695313 h -1.21875 v 1.324219 h 1.21875 z m 6.54785,-1.40625 c 0,3.48046877 1.23047,3.80859377 3.91407,3.80859377 3.77343,0 4.30078,-0.984375 4.30078,-3.73828127 0,-2.5546875 -0.52735,-2.8359375 -3.98438,-3.0351562 -2.47265,-0.140625 -2.68359,-0.28125 -2.68359,-1.9335938 0,-1.8046876 0.375,-2.0039066 2.40234,-2.0039066 2.20313,0 2.6836,0.105469 2.6836,1.8984379 h 1.46484 c 0,-2.4492189 -0.66797,-3.2343749 -4.07813,-3.2343749 -3.48046,0 -3.9375,0.960937 -3.9375,3.4101561 0,2.5898438 0.8086,3.0234375 3.73829,3.1875 2.76562,0.1523438 2.92968,0.2695313 2.92968,1.8046875 0,1.96875 -0.43359,2.3085938 -2.80078,2.3085938 -2.16797,0 -2.53125,-0.4570313 -2.48437,-2.4726563 z m 0,0"
           style="fill:#231f20;fill-opacity:1;fill-rule:nonzero;stroke:none"
           aria-label="Gaining Instruction, Fostering Talents"
           transform="matrix(1.3333333,0,0,1.3333333,198.03907,629.16407)" />
      </g>
    </g>
    <g
       id="g9"
       transform="matrix(0.26458333,0,0,0.26458333,-63.126895,-51.983389)">
      <g
         id="g10">
        <path
           id="path10"
           d="m 1.2665997,-9.753125e-4 h 1.453125 V -11.520507 h -1.453125 z m 3.5712891,0 H 6.2207013 V -5.0751941 c 0,-1.5117187 0.6914062,-2.2734375 1.78125,-2.2734375 0.9023437,0 1.3945312,0.5742188 1.3945312,1.9101563 V -9.753125e-4 H 10.779295 V -5.8486316 c 0,-1.8515625 -0.984375,-2.6835937 -2.4609375,-2.6835937 -0.9726562,0 -1.6757812,0.4101562 -2.1328125,1.359375 H 6.1621075 L 6.1035138,-8.4267566 H 4.7675763 c 0.023437,0.5976563 0.070312,1.2070313 0.070312,1.8164063 z M 16.342772,-1.2197253 c -0.269532,0.1171875 -0.515625,0.2109375 -0.855469,0.2109375 -0.632813,0 -0.878906,-0.3632813 -0.878906,-1.3242188 v -4.96875 h 1.734375 v -1.125 H 14.608397 V -10.54785 l -1.382813,0.410156 v 1.7109374 h -1.335937 v 1.125 h 1.335937 v 5.4140625 c 0,1.48828129 0.667969,2.00390629 1.945313,2.00390629 0.375,0 0.84375,-0.10546875 1.171875,-0.2109375 z m 6.808593,-2.578125 v -0.7382813 c 0,-2.484375 -1.066406,-3.9960937 -2.964843,-3.9960937 -2.097657,0 -3.246094,1.6757812 -3.246094,4.3242187 0,2.6367188 1.148437,4.32421879 3.386719,4.32421879 0.832031,0 1.699218,-0.1875 2.355468,-0.4921875 l -0.07031,-1.25390629 c -0.46875,0.3398438 -1.230469,0.69140629 -1.921875,0.69140629 -1.535156,0 -2.296875,-0.91406249 -2.296875,-2.85937499 z m -4.757812,-1.0546875 c 0.03516,-1.96875 0.820312,-2.625 1.710937,-2.625 1.113282,0 1.652344,0.8671875 1.652344,2.625 z m 7.092773,0.6445312 c 0,-2.1210937 0.574219,-3.2109375 1.851563,-3.2109375 1.265625,0 1.851562,1.0898438 1.851562,3.2109375 0,2.109375 -0.585937,3.1992188 -1.851562,3.1992188 -1.277344,0 -1.851563,-1.0898438 -1.851563,-3.1992188 z m 5.085938,-2.6835937 c 0,-0.5039063 0.04687,-1.03125 0.07031,-1.5351563 h -1.335937 l -0.05859,1.2304688 h -0.02344 c -0.46875,-0.8085938 -1.230469,-1.3359375 -2.074219,-1.3359375 -1.875,0 -3.046875,1.4179687 -3.046875,4.3242187 0,2.90625 1.171875,4.32421879 2.90625,4.32421879 0.925781,0 1.664062,-0.46875 2.214844,-1.41796879 h 0.02344 v 1.31250004 c 0,1.45312496 -0.65625,2.46093746 -2.355469,2.46093746 -0.761718,0 -1.722656,-0.328125 -2.308593,-0.7265625 l -0.07031,1.40625 c 0.609375,0.2460938 1.746094,0.515625 2.460938,0.515625 1.851562,0 3.597656,-0.9726562 3.597656,-3.30468746 z m 1.716797,6.8906249875 h 1.382812 V -4.4541003 c 0,-1.8398438 0.761719,-2.765625 1.839844,-2.765625 0.175781,0 0.363281,0.023437 0.527344,0.046875 v -1.359375 c -1.242188,0 -1.945313,0.4101562 -2.402344,1.4296875 h -0.02344 l -0.05859,-1.3242188 h -1.335938 c 0.02344,0.5976563 0.07031,1.2070313 0.07031,1.8164063 z M 37.489256,-6.5400378 c 0.480469,-0.5273438 1.300781,-0.8789063 2.15625,-0.8789063 0.585937,0 1.125,0.1523438 1.40625,0.5273438 0.269531,0.3632812 0.316406,0.7265625 0.316406,1.359375 v 0.375 h -0.808594 c -2.894531,0 -3.960937,1.2070312 -3.960937,2.8476562 0,1.61718754 1.03125,2.42578129 2.425781,2.42578129 1.289063,0 1.980469,-0.609375 2.355469,-1.25390629 h 0.03516 l 0.08203,1.1367187875 h 1.253907 C 42.715818,-0.29394406 42.692381,-0.79785031 42.692381,-1.2900378 v -4.3945313 c 0,-1.1835937 -0.363281,-1.6992187 -0.726563,-2.0625 -0.269531,-0.2578125 -1.007812,-0.7851562 -2.25,-0.7851562 -0.820312,0 -1.6875,0.2460937 -2.378906,0.6914062 z m 3.878906,3.46875 c 0,1.1601562 -0.761719,2.13281249 -1.96875,2.13281249 -0.949219,0 -1.417969,-0.58593749 -1.417969,-1.47656249 0,-0.9726563 0.773438,-1.7460938 2.414063,-1.7460938 0.375,0 0.726562,0 0.972656,0.035156 z m 6.832031,1.8515625 c -0.269531,0.1171875 -0.515625,0.2109375 -0.855468,0.2109375 -0.632813,0 -0.878907,-0.3632813 -0.878907,-1.3242188 v -4.96875 h 1.734375 v -1.125 H 46.465818 V -10.54785 l -1.382812,0.410156 v 1.7109374 h -1.335938 v 1.125 h 1.335938 v 5.4140625 c 0,1.48828129 0.667969,2.00390629 1.945312,2.00390629 0.375,0 0.84375,-0.10546875 1.171875,-0.2109375 z m 1.136719,1.2187499875 h 1.394531 V -8.4267566 H 49.336912 Z M 49.278318,-11.883788 v 1.640625 h 1.511719 v -1.640625 z m 3.427735,11.8828126875 h 1.382812 V -5.0751941 c 0,-1.5117187 0.691407,-2.2734375 1.78125,-2.2734375 0.902344,0 1.394532,0.5742188 1.394532,1.9101563 v 5.4374999875 h 1.382812 V -5.8486316 c 0,-1.8515625 -0.984375,-2.6835937 -2.460937,-2.6835937 -0.972657,0 -1.675782,0.4101562 -2.132813,1.359375 h -0.02344 l -0.05859,-1.2539063 H 52.63574 c 0.02344,0.5976563 0.07031,1.2070313 0.07031,1.8164063 z M 61.468748,-4.2080066 c 0,-2.1210937 0.574219,-3.2109375 1.851563,-3.2109375 1.265625,0 1.851562,1.0898438 1.851562,3.2109375 0,2.109375 -0.585937,3.1992188 -1.851562,3.1992188 -1.277344,0 -1.851563,-1.0898438 -1.851563,-3.1992188 z m 5.085938,-2.6835937 c 0,-0.5039063 0.04687,-1.03125 0.07031,-1.5351563 h -1.335937 l -0.05859,1.2304688 h -0.02344 c -0.46875,-0.8085938 -1.230468,-1.3359375 -2.074218,-1.3359375 -1.875,0 -3.046875,1.4179687 -3.046875,4.3242187 0,2.90625 1.171875,4.32421879 2.90625,4.32421879 0.925781,0 1.664062,-0.46875 2.214843,-1.41796879 h 0.02344 v 1.31250004 c 0,1.45312496 -0.65625,2.46093746 -2.355469,2.46093746 -0.761719,0 -1.722656,-0.328125 -2.308594,-0.7265625 l -0.07031,1.40625 c 0.609375,0.2460938 1.746094,0.515625 2.460937,0.515625 1.851563,0 3.597657,-0.9726562 3.597657,-3.30468746 z m 8.501953,-4.6289067 -3.867188,11.5195316875 h 1.453125 L 73.568358,-3.0009753 h 4.394531 l 0.925781,2.9999999875 h 1.511719 L 76.63867,-11.520507 Z m -1.089844,7.2539067 1.816406,-5.7421877 h 0.03516 l 1.769531,5.7421877 z m 7.412109,4.2656249875 h 1.382813 V -4.4541003 c 0,-1.8398438 0.761719,-2.765625 1.839844,-2.765625 0.175781,0 0.363281,0.023437 0.527343,0.046875 v -1.359375 c -1.242187,0 -1.945312,0.4101562 -2.402343,1.4296875 h -0.02344 l -0.05859,-1.3242188 h -1.335937 c 0.02344,0.5976563 0.07031,1.2070313 0.07031,1.8164063 z M 89.813475,-1.2197253 c -0.269532,0.1171875 -0.515625,0.2109375 -0.855469,0.2109375 -0.632813,0 -0.878906,-0.3632813 -0.878906,-1.3242188 v -4.96875 h 1.734375 v -1.125 H 88.0791 V -10.54785 l -1.382813,0.410156 v 1.7109374 H 85.36035 v 1.125 h 1.335937 v 5.4140625 c 0,1.48828129 0.667969,2.00390629 1.945313,2.00390629 0.375,0 0.84375,-0.10546875 1.171875,-0.2109375 z m 0.5625,0.84374999 c 0.609375,0.3046875 1.40625,0.4921875 2.273437,0.4921875 1.933594,0 2.707031,-1.16015629 2.707031,-2.61328129 0,-1.0429687 -0.644531,-1.734375 -1.664062,-2.1445312 l -0.492188,-0.1992188 c -0.925781,-0.3632812 -1.417968,-0.7382812 -1.417968,-1.4179687 0,-0.65625 0.480468,-1.1601563 1.382812,-1.1601563 0.632813,0 1.21875,0.1640625 1.652344,0.3632813 l 0.07031,-1.1835938 c -0.480468,-0.1875 -1.089843,-0.2929687 -1.792968,-0.2929687 -1.628907,0 -2.707032,1.0546875 -2.707032,2.4375 0,1.078125 0.445313,1.6171875 1.652344,2.1679687 l 0.925781,0.4101563 c 0.773438,0.3398437 1.078125,0.7382812 1.078125,1.3242187 0,0.6445313 -0.550781,1.1835938 -1.605468,1.1835938 -0.691407,0 -1.359375,-0.2460938 -1.980469,-0.6210938 z M 110.70801,-8.4267566 h -1.38282 l -1.58203,7.0429688 h -0.0352 l -1.66407,-7.0429688 h -1.65234 l -1.60547,7.0429688 h -0.0352 l -1.59375,-7.0429688 H 99.7041 l 2.22656,8.4257812875 h 1.58203 L 105.12988,-7.1142566 h 0.0352 l 1.76953,7.1132812875 h 1.58203 z m 1.12207,8.4257812875 h 1.39453 V -8.4267566 h -1.39453 z M 111.77148,-11.883788 v 1.640625 h 1.51172 v -1.640625 z m 7.14258,10.6640627 c -0.26953,0.1171875 -0.51562,0.2109375 -0.85547,0.2109375 -0.63281,0 -0.8789,-0.3632813 -0.8789,-1.3242188 v -4.96875 h 1.73437 v -1.125 h -1.73437 V -10.54785 l -1.38282,0.410156 v 1.7109374 h -1.33593 v 1.125 h 1.33593 v 5.4140625 c 0,1.48828129 0.66797,2.00390629 1.94532,2.00390629 0.375,0 0.84375,-0.10546875 1.17187,-0.2109375 z m 1.00781,1.2187499875 h 1.38282 V -5.0751941 c 0,-1.5117187 0.6914,-2.2734375 1.78125,-2.2734375 0.90234,0 1.39453,0.5742188 1.39453,1.9101563 v 5.4374999875 h 1.38281 V -5.8486316 c 0,-1.8515625 -0.98438,-2.6835937 -2.46094,-2.6835937 -0.97265,0 -1.69922,0.5507812 -2.0625,1.265625 h -0.0352 v -5.1210937 h -1.38282 z m 11.84473,0 h 1.39453 V -9.9384753 h 0.0352 l 3.1289,9.9374999875 h 1.06641 L 140.66113,-9.9384753 h 0.0234 v 9.9374999875 h 1.39453 V -11.520507 h -2.17969 l -2.95312,9.1640629 h -0.0352 l -2.89453,-9.1640629 h -2.25 z M 150.12695,-8.4267566 h -1.38281 v 5.0742188 c 0,1.5234375 -0.69141,2.2734375 -1.78125,2.2734375 -0.89063,0 -1.39453,-0.5742188 -1.39453,-1.9101563 v -5.4375 h -1.38281 v 5.8476563 c 0,1.85156249 0.98437,2.69531249 2.46093,2.69531249 0.97266,0 1.6875,-0.41015625 2.13282,-1.37109379 h 0.0234 l 0.0586,1.2539062875 h 1.33593 C 150.17383,-0.59863156 150.12695,-1.2080066 150.12695,-1.8173816 Z m 1.97754,8.4257812875 h 1.39453 V -12.387694 h -1.39453 z M 159.1914,-1.2197253 c -0.26953,0.1171875 -0.51562,0.2109375 -0.85546,0.2109375 -0.63282,0 -0.87891,-0.3632813 -0.87891,-1.3242188 v -4.96875 h 1.73437 v -1.125 h -1.73437 V -10.54785 l -1.38281,0.410156 v 1.7109374 h -1.33594 v 1.125 h 1.33594 v 5.4140625 c 0,1.48828129 0.66797,2.00390629 1.94531,2.00390629 0.375,0 0.84375,-0.10546875 1.17187,-0.2109375 z m 1.13379,1.2187499875 h 1.39453 V -8.4267566 h -1.39453 z M 160.2666,-11.883788 v 1.640625 h 1.51172 v -1.640625 z m 4.68457,7.6757814 c 0,-2.1210937 0.57422,-3.2109375 1.85156,-3.2109375 1.26563,0 1.85157,1.0898438 1.85157,3.2109375 0,2.109375 -0.58594,3.1992188 -1.85157,3.1992188 -1.27734,0 -1.85156,-1.0898438 -1.85156,-3.1992188 z m -1.38281,7.7695313 h 1.38281 v -4.7226563 h 0.0352 c 0.5625,0.89062504 1.18359,1.27734379 2.14453,1.27734379 1.73437,0 2.90625,-1.41796879 2.90625,-4.32421879 0,-2.90625 -1.17188,-4.3242187 -2.90625,-4.3242187 -1.21875,0 -1.85156,0.6914062 -2.21485,1.3476562 h -0.0351 l -0.0469,-1.2421875 h -1.33593 c 0.0117,0.515625 0.0703,1.0429688 0.0703,1.5585938 z m 8.03027,-3.5625000125 h 1.39453 V -12.387694 h -1.39453 z M 180.77148,-3.7978503 v -0.7382813 c 0,-2.484375 -1.0664,-3.9960937 -2.96484,-3.9960937 -2.09766,0 -3.24609,1.6757812 -3.24609,4.3242187 0,2.6367188 1.14843,4.32421879 3.38671,4.32421879 0.83204,0 1.69922,-0.1875 2.35547,-0.4921875 l -0.0703,-1.25390629 c -0.46875,0.3398438 -1.23047,0.69140629 -1.92187,0.69140629 -1.53516,0 -2.29688,-0.91406249 -2.29688,-2.85937499 z m -4.75781,-1.0546875 c 0.0352,-1.96875 0.82031,-2.625 1.71094,-2.625 1.11328,0 1.65234,0.8671875 1.65234,2.625 z m 14.93262,-6.4101562 c -0.50391,-0.210938 -1.3125,-0.375 -2.07422,-0.375 -1.75781,0 -3.21094,0.984375 -3.21094,2.8828124 0,1.4882813 0.46875,2.203125 2.54297,3.4570313 1.55859,0.9375 1.79297,1.453125 1.79297,2.34375 0,0.9375 -0.75,1.8164062 -2.05078,1.8164062 -0.67969,0 -1.53516,-0.3515625 -2.20313,-0.75 v 1.51171879 c 0.6211,0.29296875 1.48828,0.4921875 2.41406,0.4921875 2.21485,0 3.35157,-1.44140629 3.35157,-3.26953129 0,-1.3242187 -0.59766,-2.3320312 -2.37891,-3.3515625 -1.65234,-0.9609375 -1.94531,-1.4179687 -1.94531,-2.1679687 0,-0.9726563 0.71484,-1.7109377 1.80469,-1.7109377 0.70312,0 1.41796,0.199219 1.95703,0.5273439 z m 2.14746,11.2617186875 h 1.38281 V -5.2041003 c 0,-1.5117188 0.5625,-2.1445313 1.59375,-2.1445313 0.82031,0 1.27734,0.4921875 1.27734,1.5703125 v 5.7773437875 h 1.39454 V -5.2041003 c 0,-1.5117188 0.5625,-2.1445313 1.58203,-2.1445313 0.83203,0 1.28906,0.4921875 1.28906,1.5703125 v 5.7773437875 h 1.38281 V -5.8486316 c 0,-1.8515625 -0.98437,-2.6835937 -2.4375,-2.6835937 -0.96094,0 -1.60547,0.4921875 -2.05078,1.3125 -0.43359,-0.8554688 -1.08984,-1.3125 -1.98047,-1.3125 -0.92578,0 -1.6289,0.4101562 -2.08594,1.359375 h -0.0234 l -0.0586,-1.2539063 h -1.33593 c 0.0234,0.5976563 0.0703,1.2070313 0.0703,1.8164063 z M 205.32812,-6.5400378 c 0.48047,-0.5273438 1.30078,-0.8789063 2.15625,-0.8789063 0.58594,0 1.125,0.1523438 1.40625,0.5273438 0.26953,0.3632812 0.31641,0.7265625 0.31641,1.359375 v 0.375 h -0.80859 c -2.89454,0 -3.96094,1.2070312 -3.96094,2.8476562 0,1.61718754 1.03125,2.42578129 2.42578,2.42578129 1.28906,0 1.98047,-0.609375 2.35547,-1.25390629 h 0.0351 l 0.082,1.1367187875 h 1.2539 C 210.55469,-0.29394406 210.53125,-0.79785031 210.53125,-1.2900378 v -4.3945313 c 0,-1.1835937 -0.36328,-1.6992187 -0.72656,-2.0625 -0.26954,-0.2578125 -1.00782,-0.7851562 -2.25,-0.7851562 -0.82032,0 -1.6875,0.2460937 -2.37891,0.6914062 z m 3.87891,3.46875 c 0,1.1601562 -0.76172,2.13281249 -1.96875,2.13281249 -0.94922,0 -1.41797,-0.58593749 -1.41797,-1.47656249 0,-0.9726563 0.77344,-1.7460938 2.41406,-1.7460938 0.375,0 0.72657,0 0.97266,0.035156 z m 3.11719,3.0703124875 h 1.38281 V -4.4541003 c 0,-1.8398438 0.76172,-2.765625 1.83984,-2.765625 0.17578,0 0.36328,0.023437 0.52735,0.046875 v -1.359375 c -1.24219,0 -1.94532,0.4101562 -2.40235,1.4296875 h -0.0234 l -0.0586,-1.3242188 h -1.33594 c 0.0234,0.5976563 0.0703,1.2070313 0.0703,1.8164063 z M 220.75879,-1.2197253 c -0.26953,0.1171875 -0.51563,0.2109375 -0.85547,0.2109375 -0.63281,0 -0.87891,-0.3632813 -0.87891,-1.3242188 v -4.96875 h 1.73438 v -1.125 h -1.73438 V -10.54785 l -1.38281,0.410156 v 1.7109374 h -1.33594 v 1.125 h 1.33594 v 5.4140625 c 0,1.48828129 0.66797,2.00390629 1.94531,2.00390629 0.375,0 0.84375,-0.10546875 1.17188,-0.2109375 z m 0.5625,0.84374999 c 0.60937,0.3046875 1.40625,0.4921875 2.27343,0.4921875 1.9336,0 2.70704,-1.16015629 2.70704,-2.61328129 0,-1.0429687 -0.64454,-1.734375 -1.66407,-2.1445312 l -0.49218,-0.1992188 c -0.92579,-0.3632812 -1.41797,-0.7382812 -1.41797,-1.4179687 0,-0.65625 0.48047,-1.1601563 1.38281,-1.1601563 0.63281,0 1.21875,0.1640625 1.65234,0.3632813 l 0.0703,-1.1835938 c -0.48047,-0.1875 -1.08985,-0.2929687 -1.79297,-0.2929687 -1.62891,0 -2.70703,1.0546875 -2.70703,2.4375 0,1.078125 0.44531,1.6171875 1.65234,2.1679687 l 0.92578,0.4101563 c 0.77344,0.3398437 1.07813,0.7382812 1.07813,1.3242187 0,0.6445313 -0.55079,1.1835938 -1.60547,1.1835938 -0.69141,0 -1.35938,-0.2460938 -1.98047,-0.6210938 z m 0,0"
           style="fill:#231f20;fill-opacity:1;fill-rule:nonzero;stroke:none"
           aria-label="Integrating Arts with Multiple Smarts"
           transform="matrix(1.3333333,0,0,1.3333333,255.56511,660.81771)" />
      </g>
    </g>
    <path
       id="path16"
       d="m -15.913758,109.82448 h 0.470256 v -0.23495 h -0.470256 z"
       style="fill:#ffffff;fill-opacity:1;fill-rule:nonzero;stroke:none;stroke-width:0.352778" />
    <path
       id="path17"
       d="m 40.951501,38.697043 2.1177,-0.319532 -0.219452,-2.702849 0.292146,0.620981 0.03686,-0.47491 0.146071,0.657497 0.18259,-0.146071 0.146072,0.328661 0.219106,-0.255626 c 0,0 0.986332,1.716691 0.949816,2.154908 0,0 0.584288,0.657496 0.438213,1.278473 -0.146071,0.620808 -0.109551,0 -0.109551,0"
       style="fill:none;stroke:#231f20;stroke-width:0.507996;stroke-linecap:round;stroke-linejoin:round;stroke-miterlimit:4;stroke-dasharray:none;stroke-opacity:1" />
    <path
       id="path18"
       d="m 45.224109,40.057686 0.474733,0.840087 -1.137571,0.122128"
       style="fill:none;stroke:#231f20;stroke-width:0.507996;stroke-linecap:round;stroke-linejoin:round;stroke-miterlimit:4;stroke-dasharray:none;stroke-opacity:1" />
    <path
       id="path19"
       d="M 40.877605,38.669657 C 40.76805,38.523755 39.708856,37.939298 39.708856,37.939298 38.503418,37.245281 38.430551,36.514922 38.430551,36.514922 37.88261,35.309653 36.019848,34.359842 36.019848,34.359842"
       style="fill:none;stroke:#231f20;stroke-width:0.507996;stroke-linecap:round;stroke-linejoin:round;stroke-miterlimit:4;stroke-dasharray:none;stroke-opacity:1" />
    <path
       id="path20"
       d="m 34.230122,35.419209 c 0,0 0.474906,0.438217 0.620977,0.657323 0,0 0.584461,0.584288 -0.182764,1.168749 0,0 -0.547768,-0.03635 0.292319,0.694017 0,0 2.154908,1.789726 2.556605,2.154904"
       style="fill:none;stroke:#231f20;stroke-width:0.507996;stroke-linecap:round;stroke-linejoin:round;stroke-miterlimit:4;stroke-dasharray:none;stroke-opacity:1" />
    <path
       id="path21"
       d="m 31.565168,39.405357 c 0.229443,0.06494 0.465088,0.09905 0.700902,0.135908 0.27957,0.04358 0.556042,0.07476 0.834405,0.125056 0.26441,0.04806 0.536229,0.05547 0.799606,0.113002 0.10766,0.0236 0.215145,0.0441 0.323151,0.06597 0.112825,0.0229 0.210665,0.06821 0.328316,0.06873 0.233924,0.0014 0.470944,-0.02134 0.702455,0.02103 0.13746,0.02515 0.277329,0.0484 0.413413,0.08027 0.139009,0.03274 0.265444,0.02723 0.404107,0.04548 0.133844,0.01739 0.249597,0.02861 0.384644,0.03066 0.125575,0.0021 0.926042,0.03464 1.042487,0.08096"
       style="fill:none;stroke:#231f20;stroke-width:0.507996;stroke-linecap:round;stroke-linejoin:round;stroke-miterlimit:4;stroke-dasharray:none;stroke-opacity:1" />
    <path
       id="path22"
       d="m 32.036112,40.234763 c 0.491959,0.111276 0.970827,0.270785 1.463993,0.379306 0.527099,0.115926 1.004933,0.312124 1.50344,0.513835 0.528994,0.213942 1.041795,0.293695 1.610928,0.264583 0.607539,-0.03119 1.222145,-0.113516 1.829516,-0.03583 0.558278,0.07148 1.054371,0.335206 1.574408,0.532268 0.537951,0.204121 1.103983,0.362941 1.676901,0.427189 0.606509,0.06804 1.228174,-0.0091 1.797307,-0.231337 0.507118,-0.197919 0.600823,-0.535884 0.964625,-0.93138 -0.01101,-0.0025 0.266305,0.0028 0.255627,0"
       style="fill:none;stroke:#231f20;stroke-width:0.507996;stroke-linecap:round;stroke-linejoin:round;stroke-miterlimit:4;stroke-dasharray:none;stroke-opacity:1" />
    <path
       id="path23"
       d="m 43.141895,39.76554 c 0.06408,-0.04651 0.143658,0.01189 0.192235,0.05512 0.04961,0.04358 0.08406,0.07218 0.137115,0.107834 0.04168,0.02791 0.104041,0.07062 0.141248,0.103868 0.04341,0.03979 0.06201,0.09819 0.101974,0.142456 0.04376,0.04858 0.06132,0.06236 0.08441,0.120921 0.0217,0.05443 0.05202,0.113344 0.06546,0.171912 0.01549,0.06821 0.0018,0.134701 0.01619,0.202572 0.01757,0.08147 0.457507,0.516075 0.460954,0.600823"
       style="fill:none;stroke:#231f20;stroke-width:0.507996;stroke-linecap:round;stroke-linejoin:round;stroke-miterlimit:4;stroke-dasharray:none;stroke-opacity:1" />
    <path
       id="path24"
       d="m 44.347675,41.08036 c -0.12609,-0.213078 -0.309368,-0.644574 -0.110931,-0.870401 0.09474,-0.107142 0.279397,-0.126263 0.40652,-0.178802 0.160542,-0.06632 0.29628,-0.09198 0.47129,-0.08303"
       style="fill:none;stroke:#231f20;stroke-width:0.507996;stroke-linecap:round;stroke-linejoin:round;stroke-miterlimit:4;stroke-dasharray:none;stroke-opacity:1" />
    <path
       id="path25"
       d="m 44.420368,39.948131 c -0.04548,0.0069 -0.156753,-0.03824 -0.192927,-0.06253 -0.0472,-0.03154 -0.0565,-0.08286 -0.121267,-0.08992 -0.01517,-0.158817 -0.01757,-0.351917 -0.161572,-0.453203 -0.121268,-0.08578 -0.396187,-0.09629 -0.408591,0.105078 -0.01171,0.185519 0.226688,0.209289 0.349677,0.265959 0.149863,0.06925 0.265963,0.177081 0.425471,0.234612"
       style="fill:none;stroke:#231f20;stroke-width:0.507996;stroke-linecap:round;stroke-linejoin:round;stroke-miterlimit:4;stroke-dasharray:none;stroke-opacity:1" />
    <path
       id="path30"
       d="m 19.808952,73.273744 c 0.05822,0.815798 0.874021,1.514979 1.806606,1.514979 2.738854,0 3.846107,-4.720124 9.614919,-4.720124 0.699354,0 0.990808,0.17484 0.990808,0.58274 0,0.407899 -0.233232,0.582736 -0.815798,0.641131 -4.312225,0.291281 -5.943822,8.391218 -7.633988,16.549376 -1.981274,9.440421 -5.4777,17.540534 -17.0738928,17.540534 -9.4984706,0 -16.8410032,-7.225746 -16.8410032,-17.831643 0,-7.692209 4.0207702,-13.111518 11.01362616,-15.908763 -1.8648291,-2.156111 -3.32141676,-5.128024 -3.32141676,-8.799117 0,-8.566231 7.0507328,-15.267629 15.7919726,-15.267629 4.661902,0 7.925096,1.806434 11.013627,4.836569 1.806261,-1.864656 4.137212,-3.904325 6.293499,-3.904325 1.864829,0 2.913517,1.63177 2.913517,3.846103 0,6.410116 -8.099763,18.181319 -13.752476,20.920169 m 1.748384,2.214336 c -1.340485,0 -2.156284,-0.582739 -2.855637,-1.573378 0,0 -1.165476,0.58274 -2.214164,0.990639 1.981274,2.214337 2.855295,4.428843 2.855295,7.633814 0,7.050906 -4.312225,13.635859 -11.8294252,13.635859 -5.0115785,0 -9.0323489,-3.90398 -9.0323489,-9.323634 0,-1.107253 0.233232,-1.981274 0.5825666,-2.797072 l 0.58290881,0.174667 c -0.2914544,0.990808 -0.40789929,1.573375 -0.40789929,2.622405 0,4.486719 3.32141668,8.507836 7.80865458,8.507836 6.2934984,0 11.4215224,-6.177054 11.4215224,-12.878283 0,-2.855468 -0.874021,-5.186419 -2.855295,-7.400752 -1.340485,0.407899 -3.030305,0.757576 -5.011579,0.757576 -3.671439,0 -6.0023898,-0.932416 -9.1491392,-3.379985 -6.3517248,2.447569 -10.6639496,8.333169 -10.6639496,15.092965 0,9.382199 6.1770574,17.015843 14.9179519,17.015843 8.8576849,0 11.9462119,-9.148796 14.7432849,-17.656977 2.272732,-6.934461 4.02077,-12.878456 9.382029,-16.025205 -4.195783,0.291454 -5.011582,4.603682 -8.274776,4.603682 M 13.340785,48.391027 c -7.9250955,0 -14.8597291,6.75962 -14.8597291,15.034397 0,3.321586 1.28192029,5.885599 3.1467494,7.983491 1.8648291,-0.58274 3.0303045,-0.874021 5.011582,-0.874021 3.9043257,0 7.2257427,1.456757 9.2652387,3.729489 1.049031,-0.349681 2.389173,-0.932417 2.389173,-0.932417 -0.874021,-1.631597 -1.106911,-3.088527 -1.106911,-4.836742 0,-6.060439 3.14675,-11.363303 6.642834,-15.617132 -2.913518,-2.73885 -6.060267,-4.487065 -10.488937,-4.487065 M 6.6393873,71.29247 c -1.6901653,0 -2.7970761,0.349504 -4.3122283,0.815798 2.6806312,2.156115 5.0112363,3.030132 8.274776,3.030132 1.748042,0 3.263195,-0.233059 4.545115,-0.640958 C 12.874664,72.341328 10.019023,71.29247 6.6393873,71.29247 M 30.647911,49.206825 c -2.214506,0 -3.554649,2.505791 -5.069801,4.894965 0.990462,1.223697 1.631597,2.564009 2.214506,4.079165 0.174667,0.640959 -0.582909,0.291282 -0.582909,0.291282 -0.582567,-1.456761 -1.165479,-2.447396 -1.981278,-3.612871 -2.330951,3.904325 -5.594145,13.169737 -5.594145,16.782608 v 0.932416 c 6.643179,-4.545287 12.994901,-14.626497 12.994901,-21.036614 0,-1.282093 -0.815799,-2.330951 -1.981274,-2.330951 z"
       style="fill:#231f20;fill-opacity:1;fill-rule:nonzero;stroke:none;stroke-width:0.352778" />
    <path
       id="path31"
       d="M 40.821277,96.50919 V 60.001687 H 38.516163 V 96.50919 Z"
       style="fill:#7b7979;fill-opacity:1;fill-rule:nonzero;stroke:none;stroke-width:0.352778" />
    <path
       id="path32"
       d="m 41.006277,58.808134 v -0.843876 h -2.71611 v 0.843876 z"
       style="fill:#7b7979;fill-opacity:1;fill-rule:nonzero;stroke:none;stroke-width:0.352778" />
    <path
       id="path33"
       d="m 40.862273,59.137311 v -0.329177 h -2.428102 v 0.329177 z"
       style="fill:#7b7979;fill-opacity:1;fill-rule:nonzero;stroke:none;stroke-width:0.352778" />
    <path
       id="path34"
       d="m 41.006277,59.981014 v -0.843703 h -2.71611 v 0.843703 z"
       style="fill:#7b7979;fill-opacity:1;fill-rule:nonzero;stroke:none;stroke-width:0.352778" />
    <path
       id="path35"
       d="M 40.388916,96.282502 V 59.775345 h -2.304768 v 36.507157 z"
       style="fill:#000000;fill-opacity:1;fill-rule:nonzero;stroke:#000000;stroke-width:0.705555;stroke-linecap:butt;stroke-linejoin:miter;stroke-miterlimit:4;stroke-dasharray:none;stroke-opacity:1" />
    <path
       id="path36"
       d="M 40.388916,96.282502 V 59.775345 h -2.304768 v 36.507157 z"
       style="fill:#ffffff;fill-opacity:1;fill-rule:nonzero;stroke:none;stroke-width:0.352778" />
    <path
       id="path37"
       d="m 41.232965,48.024812 c 0,-0.144177 0,-0.432358 0,-0.432358 -0.103008,-0.391019 -1.317403,-0.905372 -1.626083,0.638031 -0.102666,0.617361 0.391361,1.090718 0.144004,1.605071 -0.678685,1.378899 -2.963125,2.449118 -2.798452,4.404036 0.185003,1.728575 1.667083,1.954921 1.275718,3.539662 0.206019,0.185004 1.564076,0.473185 2.037429,0.041 -0.08233,-0.288008 0.08234,-0.926042 0.350023,-1.070046 1.399399,-1.461064 1.522733,-2.757625 1.564075,-3.683666 0.06132,-1.666911 -1.708079,-2.778125 -1.955436,-3.683671 -0.06132,-0.329177 -0.329008,-1.543402 0.700041,-1.543402 0.144008,0.02067 0.226,0.06167 0.308681,0.185346 z"
       style="fill:#000000;fill-opacity:1;fill-rule:nonzero;stroke:none;stroke-width:0.352778" />
    <path
       id="path38"
       d="m 40.718269,47.582291 c -0.473357,-0.339514 -1.214053,0.195509 -0.843703,1.409559 -0.02032,-0.288008 0.123677,-1.399396 0.843703,-1.409559 z"
       style="fill:#ffffff;fill-opacity:1;fill-rule:nonzero;stroke:none;stroke-width:0.352778" />
    <path
       id="path39"
       d="m 40.265581,49.938564 c 1.028707,1.564072 1.440741,2.325437 1.296737,3.889512 0.123335,1.728576 -1.276064,1.584399 -1.543748,3.848171 -0.164331,0.123507 -0.535023,0.185346 -0.637688,0.06167 0.267338,-2.160764 -1.132057,-2.01676 -1.173399,-3.374817 -0.08199,-2.181433 1.770091,-2.510786 1.831756,-4.36287 -0.02067,-0.205672 0.08234,-0.247011 0.226342,-0.06166 z"
       style="fill:#ffffff;fill-opacity:1;fill-rule:nonzero;stroke:none;stroke-width:0.352778" />
    <path
       id="path40"
       d="m 41.376972,51.337959 c 0.51435,0.596692 0.946711,1.769749 0.32935,3.354321 0.144004,-0.37035 0.267339,-2.531287 -0.32935,-3.354321 z"
       style="fill:#ffffff;fill-opacity:1;fill-rule:nonzero;stroke:none;stroke-width:0.352778" />
    <path
       id="path41"
       d="m 39.01019,51.66714 c -0.63803,0.679199 -1.152384,1.502233 -1.131715,2.592952 0.02032,0.782034 0.6997,1.522902 0.535023,2.325436 -0.617361,-0.720195 -1.296733,-1.687406 -1.276061,-2.654617 -0.02067,-0.329177 0.452685,-1.769918 1.626084,-2.325437 0.123334,0.04117 0.246669,0.06167 0.246669,0.06167 z"
       style="fill:#ffffff;fill-opacity:1;fill-rule:nonzero;stroke:none;stroke-width:0.352778" />
    <path
       id="path42"
       d="m 38.68084,55.865333 c 0.514696,0.32918 0.473354,0.65853 0.391361,1.893252 -0.123677,0.103008 -0.288353,0.08234 -0.452684,-0.08234 0.102662,-0.761365 0.246669,-1.481734 0.06132,-1.810914 z"
       style="fill:#ffffff;fill-opacity:1;fill-rule:nonzero;stroke:none;stroke-width:0.352778" />
    <path
       id="path43"
       d="m 38.907528,51.337959 c -0.144007,0.411519 -0.782038,0.967211 -1.049722,1.358057 0.32935,-0.411342 1.214395,-0.967038 1.379072,-1.255219 z"
       style="fill:#000000;fill-opacity:1;fill-rule:nonzero;stroke:none;stroke-width:0.352778" />
    <path
       id="path44"
       d="m 39.977574,49.876895 c 0.144003,0.370349 1.420068,1.831414 0.494026,4.362697 0.534677,-1.111215 0.267339,-3.230983 -0.535368,-3.992348 0.02067,-0.123507 0.04134,-0.370349 0.04134,-0.370349 z"
       style="fill:#000000;fill-opacity:1;fill-rule:nonzero;stroke:none;stroke-width:0.352778" />
    <path
       id="path45"
       d="m 40.574262,58.581792 v -0.843876 h -2.716456 v 0.843876 z"
       style="fill:#000000;fill-opacity:1;fill-rule:nonzero;stroke:#000000;stroke-width:0.705555;stroke-linecap:butt;stroke-linejoin:miter;stroke-miterlimit:4;stroke-dasharray:none;stroke-opacity:1" />
    <path
       id="path46"
       d="m 40.430258,58.910969 v -0.329177 h -2.428102 v 0.329177 z"
       style="fill:#000000;fill-opacity:1;fill-rule:nonzero;stroke:#000000;stroke-width:0.705555;stroke-linecap:butt;stroke-linejoin:miter;stroke-miterlimit:4;stroke-dasharray:none;stroke-opacity:1" />
    <path
       id="path47"
       d="m 40.574262,59.754672 v -0.843703 h -2.716456 v 0.843703 z"
       style="fill:#000000;fill-opacity:1;fill-rule:nonzero;stroke:#000000;stroke-width:0.705555;stroke-linecap:butt;stroke-linejoin:miter;stroke-miterlimit:4;stroke-dasharray:none;stroke-opacity:1" />
    <path
       id="path48"
       d="m 40.574262,58.581792 v -0.843876 h -2.716456 v 0.843876 z"
       style="fill:#ffffff;fill-opacity:1;fill-rule:nonzero;stroke:none;stroke-width:0.352778" />
    <path
       id="path49"
       d="m 37.857806,58.581792 h 2.716456"
       style="fill:none;stroke:#000000;stroke-width:0.705555;stroke-linecap:butt;stroke-linejoin:miter;stroke-miterlimit:4;stroke-dasharray:none;stroke-opacity:1" />
    <path
       id="path50"
       d="m 40.430258,58.910969 v -0.329177 h -2.428102 v 0.329177 z"
       style="fill:#ffffff;fill-opacity:1;fill-rule:nonzero;stroke:none;stroke-width:0.352778" />
    <path
       id="path51"
       d="m 40.574262,59.754672 v -0.843703 h -2.716456 v 0.843703 z"
       style="fill:#ffffff;fill-opacity:1;fill-rule:nonzero;stroke:none;stroke-width:0.352778" />
    <path
       id="path52"
       d="M 40.574262,58.910969 H 37.857806"
       style="fill:none;stroke:#000000;stroke-width:0.352778;stroke-linecap:butt;stroke-linejoin:miter;stroke-miterlimit:4;stroke-dasharray:none;stroke-opacity:1" />
    <path
       id="path53"
       d="M 40.183247,59.816514 V 96.117825"
       style="fill:none;stroke:#000000;stroke-width:0.176389;stroke-linecap:butt;stroke-linejoin:miter;stroke-miterlimit:4;stroke-dasharray:none;stroke-opacity:1" />
    <path
       id="path54"
       d="M 39.812897,66.031294 V 96.117825"
       style="fill:none;stroke:#000000;stroke-width:0.176389;stroke-linecap:butt;stroke-linejoin:miter;stroke-miterlimit:4;stroke-dasharray:none;stroke-opacity:1" />
    <path
       id="path55"
       d="m 39.483547,59.816514 v 5.720923"
       style="fill:none;stroke:#000000;stroke-width:0.176389;stroke-linecap:butt;stroke-linejoin:miter;stroke-miterlimit:4;stroke-dasharray:none;stroke-opacity:1" />
    <path
       id="path56"
       d="M 80.83985,52.291909 V 97.249886"
       style="fill:none;stroke:#000000;stroke-width:1.02041;stroke-linecap:butt;stroke-linejoin:miter;stroke-miterlimit:4;stroke-dasharray:none;stroke-opacity:1" />
    <path
       id="path57"
       d="M 62.945678,52.58784 H 97.255382"
       style="fill:none;stroke:#000000;stroke-width:0.900356;stroke-linecap:butt;stroke-linejoin:miter;stroke-miterlimit:4;stroke-dasharray:none;stroke-opacity:1" />
    <path
       id="path58"
       d="m 65.518821,48.707631 v 7.682734 l -4.21852,-4.21852 z"
       style="fill:#000000;fill-opacity:1;fill-rule:nonzero;stroke:#000000;stroke-width:1.02041;stroke-linecap:butt;stroke-linejoin:miter;stroke-miterlimit:4;stroke-dasharray:none;stroke-opacity:1" />
    <path
       id="path59"
       d="m 94.878267,56.437736 v -7.683253 l 4.21852,4.218866 z"
       style="fill:#000000;fill-opacity:1;fill-rule:nonzero;stroke:#000000;stroke-width:1.02041;stroke-linecap:butt;stroke-linejoin:miter;stroke-miterlimit:4;stroke-dasharray:none;stroke-opacity:1" />
    <path
       id="path60"
       d="m 76.878678,94.853477 h 7.682907 l -4.218175,4.218862 z"
       style="fill:#000000;fill-opacity:1;fill-rule:nonzero;stroke:#000000;stroke-width:1.02041;stroke-linecap:butt;stroke-linejoin:miter;stroke-miterlimit:4;stroke-dasharray:none;stroke-opacity:1" />
    <path
       id="path61"
       d="m 88.16033,52.58784 c 0,8.281493 -7.394207,7.394554 -7.394207,7.394554 l 0.03066,-7.410573 h 7.259503"
       style="fill:#000000;fill-opacity:1;fill-rule:nonzero;stroke:#000000;stroke-width:0.352778;stroke-linecap:butt;stroke-linejoin:miter;stroke-miterlimit:4;stroke-dasharray:none;stroke-opacity:1" />
    <path
       id="path62"
       d="m 46.825389,54.361205 c -0.09302,0.280603 -2.804309,4.112753 0.467501,5.047579 0,0 -0.834059,3.95635 -1.215087,5.421376 -0.479213,1.842953 -1.402154,5.60827 1.028016,9.627492 0,0 1.638487,4.729769 0.562239,7.70909 0,0 -0.386538,1.089681 -0.482311,4.4831 l 0.972895,2.662544 1.854492,4.220242 0.738286,1.395264 0.747586,1.589567 0.0937,1.028016 c 0,0 -0.145383,3.159155 1.509987,4.042475"
       style="fill:none;stroke:#231f20;stroke-width:0.715042;stroke-linecap:round;stroke-linejoin:round;stroke-miterlimit:4;stroke-dasharray:none;stroke-opacity:1" />
    <path
       id="path63"
       d="m 48.882111,53.146118 c 0,0 4.393184,0.28043 0.840948,6.356029 l 0.08647,1.188215 c 0,0 0.503326,-0.07803 1.969904,-0.253389 l 2.149739,-0.09353 c 0,0 2.056723,-0.187071 2.804309,-0.09336 0.747931,0.09336 2.523877,-0.09371 2.523877,-0.09371 l 8.319216,-1.401982"
       style="fill:none;stroke:#231f20;stroke-width:0.66209;stroke-linecap:round;stroke-linejoin:miter;stroke-miterlimit:4;stroke-dasharray:none;stroke-opacity:1" />
    <path
       id="path64"
       d="m 52.027827,64.015395 c 0,0 17.361213,-4.661732 19.02244,-5.036728"
       style="fill:none;stroke:#231f20;stroke-width:0.715042;stroke-linecap:round;stroke-linejoin:miter;stroke-miterlimit:4;stroke-dasharray:none;stroke-opacity:1" />
    <path
       id="path65"
       d="m 52.27553,63.895334 c 0,0 -3.643531,3.322278 -0.696599,9.591488 0,0 4.117234,4.541671 -1.429713,12.493984 -0.950849,1.362879 0.696253,2.885785 1.413866,4.426429 0.589111,1.26504 0.305234,2.74023 0.450618,3.030308 0,0 0.85163,0.946711 1.333598,1.590256 0,0 0.969448,1.373903 -0.02378,2.256535"
       style="fill:none;stroke:#231f20;stroke-width:0.715042;stroke-linecap:round;stroke-linejoin:round;stroke-miterlimit:4;stroke-dasharray:none;stroke-opacity:1" />
    <path
       id="path66"
       d="m 52.890824,79.819599 c 0,0 -0.990121,-1.885502 10.58402,-1.188904 0,0 8.197952,-4.876189 9.859176,-5.19727 1.661223,-0.321772 2.572109,-0.48266 3.429246,-0.911228 0,0 2.51871,-2.143196 -1.768023,-0.750172 -1.709109,0.555523 -2.357822,-0.482137 -2.357822,-0.482137 l -1.347378,1.196308 c -1.553736,1.232482 -4.493091,1.214913 -4.493091,1.214913 -0.857486,0.214285 -1.857251,0.431324 -2.444986,0.842843 -0.587731,0.411515 -1.675694,1.470021 -1.675694,1.470021 0,0 -3.704167,-0.735012 -4.439006,-0.764466 -1.050064,-0.04203 -6.176021,-0.905199 -6.176021,-0.905199"
       style="fill:none;stroke:#231f20;stroke-width:0.715042;stroke-linecap:round;stroke-linejoin:round;stroke-miterlimit:4;stroke-dasharray:none;stroke-opacity:1" />
    <path
       id="path67"
       d="M 6.8350661,65.439425 C 6.3930602,65.130571 5.6478878,64.932652 4.8052181,64.942124 3.457152,64.956941 2.3702226,65.497301 2.377458,66.148596 c 0.00723,0.651298 1.1058772,1.167028 2.4539433,1.152042 1.3480626,-0.01499 2.434992,-0.555004 2.4277566,-1.206472 l -0.062699,-5.64341 c 1.1079409,-0.01224 1.5447785,0.875054 1.5599374,2.232592 0.00282,0.271474 0.1963702,0.230477 0.193615,-0.0021 -0.016545,-1.512567 0.3348637,-4.775073 -2.186259,-4.746995 l 0.071314,7.505311 z"
       style="fill:#231f20;fill-opacity:1;fill-rule:nonzero;stroke:none;stroke-width:0.352778" />
    <path
       id="path68"
       d="m 13.714578,64.028314 c -0.442006,-0.308854 -1.187524,-0.506773 -2.029851,-0.497301 -1.348066,0.01482 -2.4349924,0.555177 -2.4277569,1.206472 0.00723,0.651298 1.1058739,1.167028 2.4539399,1.152042 1.348066,-0.01499 2.434995,-0.555004 2.42776,-1.206472 l -0.0627,-5.64341 c 1.107945,-0.01224 1.544437,0.875054 1.559595,2.232592 0.0032,0.271473 0.196716,0.230477 0.193961,-0.0021 -0.0169,-1.512567 0.334864,-4.775073 -2.186259,-4.746995 l 0.07131,7.505311 z"
       style="fill:#231f20;fill-opacity:1;fill-rule:nonzero;stroke:none;stroke-width:0.352778" />
    <path
       id="path69"
       d="M -9.7069018,56.838918 V 67.456012"
       style="fill:none;stroke:#000000;stroke-width:0.156845;stroke-linecap:butt;stroke-linejoin:miter;stroke-miterlimit:4;stroke-dasharray:none;stroke-opacity:1" />
    <path
       id="path70"
       d="M -9.7789037,56.858381 H 34.136068"
       style="fill:none;stroke:#231f20;stroke-width:0.198469;stroke-linecap:butt;stroke-linejoin:miter;stroke-miterlimit:4;stroke-dasharray:none;stroke-opacity:1" />
    <path
       id="path71"
       d="M -9.7789037,59.485439 H 34.114019"
       style="fill:none;stroke:#231f20;stroke-width:0.198469;stroke-linecap:butt;stroke-linejoin:miter;stroke-miterlimit:4;stroke-dasharray:none;stroke-opacity:1" />
    <path
       id="path72"
       d="M -9.7789037,62.112667 H 34.114019"
       style="fill:none;stroke:#231f20;stroke-width:0.198469;stroke-linecap:butt;stroke-linejoin:miter;stroke-miterlimit:4;stroke-dasharray:none;stroke-opacity:1" />
    <path
       id="path73"
       d="M -9.7789037,64.739725 H 34.114019"
       style="fill:none;stroke:#231f20;stroke-width:0.198469;stroke-linecap:butt;stroke-linejoin:miter;stroke-miterlimit:4;stroke-dasharray:none;stroke-opacity:1" />
    <path
       id="path74"
       d="M -9.7789037,67.366957 H 34.092316"
       style="fill:none;stroke:#231f20;stroke-width:0.198469;stroke-linecap:butt;stroke-linejoin:miter;stroke-miterlimit:4;stroke-dasharray:none;stroke-opacity:1" />
    <path
       id="path75"
       d="M -8.9730958,56.901963 V 67.456185"
       style="fill:none;stroke:#000000;stroke-width:0.155924;stroke-linecap:butt;stroke-linejoin:miter;stroke-miterlimit:4;stroke-dasharray:none;stroke-opacity:1" />
    <path
       id="path76"
       d="M 34.031684,56.81997 V 67.457045"
       style="fill:none;stroke:#000000;stroke-width:0.176389;stroke-linecap:butt;stroke-linejoin:miter;stroke-miterlimit:4;stroke-dasharray:none;stroke-opacity:1" />
    <path
       id="path77"
       d="M 33.392275,56.866131 V 67.420526"
       style="fill:none;stroke:#000000;stroke-width:0.175715;stroke-linecap:butt;stroke-linejoin:miter;stroke-miterlimit:4;stroke-dasharray:none;stroke-opacity:1" />
    <path
       id="path78"
       d="M 4.523063,86.320838 C 4.0810571,86.011811 3.3355389,85.81372 2.493215,85.823365 c -1.3480661,0.01482 -2.43499557,0.555349 -2.4277601,1.206471 0.0072319,0.651468 1.1058771,1.167028 2.4539397,1.151869 1.3480662,-0.01446 2.4349956,-0.554831 2.4277601,-1.206299 l -0.062699,-5.64341 c 1.1079409,-0.01224 1.5444364,0.875051 1.5595917,2.23242 0.00317,0.271473 0.196716,0.230822 0.1939608,-0.0021 -0.016898,-1.512397 0.3348637,-4.775073 -2.1862591,-4.746995 l 0.071314,7.505484 z"
       style="fill:#231f20;fill-opacity:1;fill-rule:nonzero;stroke:none;stroke-width:0.352778" />
    <path
       id="path79"
       d="m 11.732271,84.802585 c -0.442006,-0.308681 -1.187525,-0.506431 -2.029852,-0.497128 -1.3480661,0.01482 -2.434992,0.555004 -2.4277565,1.206472 0.00723,0.651468 1.1058736,1.166855 2.4539397,1.152038 1.3480658,-0.01482 2.4349958,-0.555004 2.4277598,-1.206472 l -0.0627,-5.64341 c 1.107944,-0.01224 1.544436,0.875054 1.559595,2.232423 0.0032,0.271473 0.196716,0.230819 0.193961,-0.0021 -0.0169,-1.51257 0.33486,-4.775077 -2.18626,-4.746999 l 0.07132,7.505142 z"
       style="fill:#231f20;fill-opacity:1;fill-rule:nonzero;stroke:none;stroke-width:0.352778" />
    <path
       id="path80"
       d="m 29.353932,86.252967 c -0.442005,-0.309023 -1.187178,-0.506772 -2.029851,-0.497128 -1.348063,0.01446 -2.434992,0.555008 -2.427757,1.206476 0.0072,0.651122 1.105874,1.167024 2.45394,1.151865 1.348066,-0.01517 2.434996,-0.555177 2.42776,-1.206299 l -0.0627,-5.643583 c 1.107945,-0.01224 1.544782,0.874881 1.559941,2.232593 0.0028,0.271476 0.196371,0.230476 0.193615,-0.0025 -0.01655,-1.512397 0.334864,-4.774903 -2.186259,-4.746826 l 0.07131,7.505312 z"
       style="fill:#231f20;fill-opacity:1;fill-rule:nonzero;stroke:none;stroke-width:0.352778" />
    <path
       id="path81"
       d="M -9.7069018,77.770454 V 88.38772"
       style="fill:none;stroke:#000000;stroke-width:0.156845;stroke-linecap:butt;stroke-linejoin:miter;stroke-miterlimit:4;stroke-dasharray:none;stroke-opacity:1" />
    <path
       id="path82"
       d="M -9.7789037,77.78992 H 34.136068"
       style="fill:none;stroke:#231f20;stroke-width:0.198469;stroke-linecap:butt;stroke-linejoin:miter;stroke-miterlimit:4;stroke-dasharray:none;stroke-opacity:1" />
    <path
       id="path83"
       d="M -9.7789037,80.416978 H 34.114019"
       style="fill:none;stroke:#231f20;stroke-width:0.198469;stroke-linecap:butt;stroke-linejoin:miter;stroke-miterlimit:4;stroke-dasharray:none;stroke-opacity:1" />
    <path
       id="path84"
       d="M -9.7789037,83.044206 H 34.114019"
       style="fill:none;stroke:#231f20;stroke-width:0.198469;stroke-linecap:butt;stroke-linejoin:miter;stroke-miterlimit:4;stroke-dasharray:none;stroke-opacity:1" />
    <path
       id="path85"
       d="M -9.7789037,85.671437 H 34.114019"
       style="fill:none;stroke:#231f20;stroke-width:0.198469;stroke-linecap:butt;stroke-linejoin:miter;stroke-miterlimit:4;stroke-dasharray:none;stroke-opacity:1" />
    <path
       id="path86"
       d="M -9.7789037,88.298838 H 34.092316"
       style="fill:none;stroke:#231f20;stroke-width:0.198469;stroke-linecap:butt;stroke-linejoin:miter;stroke-miterlimit:4;stroke-dasharray:none;stroke-opacity:1" />
    <path
       id="path87"
       d="M -8.9730958,77.833499 V 88.38772"
       style="fill:none;stroke:#000000;stroke-width:0.155924;stroke-linecap:butt;stroke-linejoin:miter;stroke-miterlimit:4;stroke-dasharray:none;stroke-opacity:1" />
    <path
       id="path88"
       d="M 34.031684,77.751506 V 88.388412"
       style="fill:none;stroke:#000000;stroke-width:0.176389;stroke-linecap:butt;stroke-linejoin:miter;stroke-miterlimit:4;stroke-dasharray:none;stroke-opacity:1" />
    <path
       id="path89"
       d="M 33.392275,77.797671 V 88.351892"
       style="fill:none;stroke:#000000;stroke-width:0.175715;stroke-linecap:butt;stroke-linejoin:miter;stroke-miterlimit:4;stroke-dasharray:none;stroke-opacity:1" />
    <path
       id="path90"
       d="m -9.2804005,88.342935 h -0.701421 V 77.697764 h 0.701421 z"
       style="fill:#231f20;fill-opacity:1;fill-rule:nonzero;stroke:none;stroke-width:0.352778" />
    <path
       id="path91"
       d="m -9.2369912,67.478406 h -0.701421 V 56.757441 h 0.701421 z"
       style="fill:#231f20;fill-opacity:1;fill-rule:nonzero;stroke:none;stroke-width:0.352778" />
    <path
       id="path92"
       d="m -5.4525537,55.109651 -0.3300412,0.109897 -0.2204861,0.275439 -0.2749198,0.770494 -0.1098973,0.495233 -0.110243,0.440281 v 0.825274 l 0.2756076,1.376144 0.2749197,-0.220313 -0.2749197,-1.155831 0.1098973,-0.549836 0.2197982,-0.66077 0.2201404,-0.329868 0.1653646,-0.165538 0.1650223,-0.05478 0.1650189,-0.05529 0.055122,0.05529 0.2201439,0.220314 0.1095516,0.439938 v 0.385505 l -0.1095516,0.329869 -0.825447,1.15583 -0.8254435,0.990635 -0.9356901,1.155658 -0.3851593,0.550354 -0.2752654,0.49506 -0.1098973,0.495233 V 62.9245 l 0.054776,0.440284 0.110243,0.49506 0.2201439,0.495406 0.2749162,0.385163 0.5505274,0.550351 0.6604246,0.275092 0.3848171,0.165019 0.3303834,0.05512 0.44063,-0.05512 0.3300412,-0.11007 0.4399386,-0.219625 0.4954023,-0.385851 0.2201439,-0.329696 0.1650188,-0.275434 0.1102431,-0.439939 0.055122,-0.440626 -0.055122,-0.440285 -0.1102431,-0.385335 -0.3851627,-0.49506 -0.3300377,-0.275089 -0.3851628,-0.165019 -0.385505,-0.05512 h -0.3300412 l -0.3300412,0.05512 -0.3303834,0.165019 -0.3300413,0.440284 -0.1650188,0.275089 -0.1102431,0.385163 -0.054779,0.274916 v 0.33056 l 0.2197982,0.44028 0.110243,0.275093 0.2201404,0.22014 0.4402843,0.165023 0.1098973,0.05529 0.055122,-0.05529 -0.2742282,-0.110074 -0.3858507,-0.495402 -0.1105888,-0.330042 0.055122,-0.219798 0.055467,-0.220313 0.054776,-0.110416 0.1099009,-0.219967 0.2752619,-0.165192 0.3300412,-0.165195 0.6053031,0.05529 0.3851628,0.165192 0.331417,0.329868 0.2191068,0.385509 v 0.330383 l -0.055122,0.439939 -0.2201404,0.330214 -0.1650189,0.219967 -0.2201439,0.165192 -0.4954023,0.220144 -0.6053066,0.110243 -0.3303834,-0.05478 -0.3300413,-0.165365 -0.5501816,-0.330383 -0.4399386,-0.495233 -0.2204861,-0.385163 -0.1098973,-0.330384 0.054776,-0.715031 0.1653646,-0.44028 0.1650224,-0.385163 0.2759498,-0.440454 0.4395964,-0.550181 0.6053031,-0.605649 0.8802228,-0.990812 0.4954023,-1.045069 0.055122,-0.38585 v -0.49506 l -0.055122,-0.605476 -0.1098973,-0.439939 -0.1653646,-0.440281 -0.1098973,-0.605476 -0.1650224,-0.330387 z"
       style="fill:#231f20;fill-opacity:1;fill-rule:nonzero;stroke:none;stroke-width:0.352778" />
    <path
       id="path93"
       d="m -7.1034443,67.602256 0.055122,-0.330384 0.1650188,-0.220144 0.2749197,-0.164846 0.2752619,-0.05547 0.2752655,0.05547 0.221174,0.164846 0.1092094,0.220144 0.054776,0.330384 -0.054776,0.274919 -0.1092094,0.220141 -0.221174,0.22014 -0.2752655,0.05529 -0.2752619,-0.05529 -0.2749197,-0.22014 -0.1650188,-0.220141 z"
       style="fill:#231f20;fill-opacity:1;fill-rule:nonzero;stroke:none;stroke-width:0.352778" />
    <path
       id="path94"
       d="m -5.7274734,60.117786 1.0455874,5.00779 0.3300412,1.320676 0.055122,0.935691 v 0.385332 0.275265 l -0.1653646,0.219795 -0.330387,0.330387 -0.3296955,0.164846 -0.4402843,0.110243 h -0.2201403 l -0.2752619,-0.05478 -0.220144,-0.05547 -0.2201403,-0.109725 -0.2197982,-0.220144 -0.1653646,-0.110243 -0.1650188,-0.22014 -0.055122,-0.275089 v -0.385336 l 0.1653646,-0.275092 -0.110243,0.495405 0.3303834,0.49506 0.4399385,0.0553 -0.055122,0.05478 0.1105888,0.165364 0.2749197,0.165023 h 0.1650189 0.2752619 l 0.3300412,-0.165023 0.2201439,-0.165364 0.1646731,-0.110071 0.2204861,-0.330037 V 67.436891 67.161799 L -4.681886,66.391477 -5.4525537,62.759312 -5.9476138,60.613019 Z"
       style="fill:#231f20;fill-opacity:1;fill-rule:nonzero;stroke:none;stroke-width:0.352778" />
    <path
       id="path95"
       d="m -5.4525537,76.276144 -0.3300412,0.1099 -0.2204861,0.275435 -0.2749198,0.770495 -0.1098973,0.495233 -0.110243,0.440284 v 0.825271 l 0.2756076,1.376144 0.2749197,-0.220314 -0.2749197,-1.15583 0.1098973,-0.549836 0.2197982,-0.66077 0.2201404,-0.329869 0.1653646,-0.165537 0.1650223,-0.05478 0.1650189,-0.05529 0.055122,0.05529 0.2201439,0.220313 0.1095516,0.439939 v 0.385508 l -0.1095516,0.329865 -0.825447,1.155831 -0.8254435,0.990638 -0.9356901,1.155827 -0.3851593,0.550182 -0.2752654,0.49506 -0.1098973,0.495406 v 0.440284 l 0.054776,0.440281 0.110243,0.495406 0.2201439,0.495406 0.2749162,0.385162 0.5505274,0.550182 0.6604246,0.275262 0.3848171,0.164676 0.3303834,0.05512 0.44063,-0.05512 0.3300412,-0.1099 0.4399386,-0.219453 0.4954023,-0.38585 0.2201439,-0.330038 0.1650188,-0.275266 0.1102431,-0.439938 0.055122,-0.440627 -0.055122,-0.440284 -0.1102431,-0.385505 -0.3851627,-0.494718 -0.3300377,-0.275262 -0.3851628,-0.165019 -0.385505,-0.05512 h -0.3300412 l -0.3300412,0.05512 -0.3303834,0.165019 -0.3300413,0.440285 -0.1650188,0.275261 -0.1102431,0.385163 -0.054779,0.274916 v 0.330387 l 0.2197982,0.440285 0.110243,0.275262 0.2201404,0.219798 0.4402843,0.165364 0.1098973,0.05512 0.055122,-0.05512 -0.2742282,-0.110243 -0.3858507,-0.495406 -0.1105888,-0.330041 0.055122,-0.219798 0.055467,-0.220486 0.054776,-0.110243 0.1099009,-0.219795 0.2752619,-0.165364 0.3300412,-0.165365 0.6053031,0.05546 0.3851628,0.165022 0.331417,0.330038 0.2191068,0.385508 v 0.330384 l -0.055122,0.439938 -0.2201404,0.330387 -0.1650189,0.219795 -0.2201439,0.165365 -0.4954023,0.219798 -0.6053066,0.110243 -0.3303834,-0.05443 -0.3300413,-0.165364 -0.5501816,-0.33073 -0.4399386,-0.49506 -0.2204861,-0.385159 -0.1098973,-0.330387 0.054776,-0.7152 0.1653646,-0.440285 0.1650224,-0.385162 0.2759498,-0.440281 0.4395964,-0.550182 0.6053031,-0.605649 0.8802228,-0.990808 0.4954023,-1.045072 0.055122,-0.385851 v -0.49506 L -4.5719871,78.202123 -4.6818844,77.762181 -4.847249,77.3219 -4.9571463,76.716424 -5.1221687,76.38604 Z"
       style="fill:#231f20;fill-opacity:1;fill-rule:nonzero;stroke:none;stroke-width:0.352778" />
    <path
       id="path96"
       d="m -7.1034443,88.768748 0.055122,-0.330041 0.1650188,-0.220486 0.2749197,-0.164846 0.2752619,-0.05547 0.2752655,0.05547 0.221174,0.164846 0.1092094,0.220486 0.054776,0.330041 -0.054776,0.27492 -0.1092094,0.220486 -0.221174,0.219798 -0.2752655,0.05512 -0.2752619,-0.05512 -0.2749197,-0.219798 -0.1650188,-0.220486 z"
       style="fill:#231f20;fill-opacity:1;fill-rule:nonzero;stroke:none;stroke-width:0.352778" />
    <path
       id="path97"
       d="m -5.7274734,81.284279 1.0455874,5.007963 0.3300412,1.320507 0.055122,0.935513 v 0.385851 0.27492 l -0.1653646,0.219798 -0.330387,0.330729 -0.3296955,0.164673 -0.4402843,0.110243 h -0.2201403 l -0.2752619,-0.05512 -0.220144,-0.05512 -0.2201403,-0.109551 -0.2197982,-0.220486 -0.1653646,-0.110244 -0.1650188,-0.219798 -0.055122,-0.275607 v -0.385163 l 0.1653646,-0.27492 -0.110243,0.495406 0.3303834,0.494718 0.4399385,0.05581 -0.055122,0.05443 0.1105888,0.165365 0.2749197,0.165364 h 0.1650189 0.2752619 l 0.3300412,-0.165364 0.2201439,-0.165365 0.1646731,-0.110243 0.2204861,-0.330041 v -0.385163 -0.27492 L -4.681886,87.557969 -5.4525537,83.925805 -5.9476138,81.779512 Z"
       style="fill:#231f20;fill-opacity:1;fill-rule:nonzero;stroke:none;stroke-width:0.352778" />
    <path
       id="path98"
       d="m 40.790617,60.011851 h -2.979663 v -2.278416 h 2.979663 z"
       style="fill:#231f20;fill-opacity:1;fill-rule:nonzero;stroke:none;stroke-width:0.352778" />
    <path
       id="path99"
       d="M 40.527409,96.46716 H 37.723447 V 60.011851 h 2.803962 z"
       style="fill:#231f20;fill-opacity:1;fill-rule:nonzero;stroke:none;stroke-width:0.352778" />
    <path
       id="path100"
       d="m 38.48998,57.267832 -0.192581,-0.716237 -0.385851,-0.385505 -0.275262,-0.55087 -0.440626,-0.716237 -0.165365,-0.743624 0.137802,-0.853867 0.385505,-0.688502 0.44063,-0.633554 0.716234,-0.523307 0.853694,-0.633381 0.248049,-0.688675 0.192581,-0.578432 0.358289,0.385678 0.578432,0.633554 0.357946,0.605818 0.468189,0.495751 0.165364,0.771356 0.192581,0.881257 -0.357945,1.267103 -0.468189,0.798745 -0.743797,1.211813 -0.468189,0.96411 -1.569928,0.02738 -0.02755,-0.330384 z"
       style="fill:#231f20;fill-opacity:1;fill-rule:nonzero;stroke:none;stroke-width:0.352778" />
    <path
       id="path101"
       d="m 39.878355,49.144468 -0.193615,-0.40738 v -0.560346 l 0.254592,-0.631659 0.397221,-0.213769 0.489204,0.152792 -0.193615,0.254592 -0.397221,0.356567 -0.213938,0.499195 z"
       style="fill:#231f20;fill-opacity:1;fill-rule:nonzero;stroke:none;stroke-width:0.352778" />
    <path
       id="path102"
       d="m 48.962036,53.002629 c 0,0 -1.907547,-0.54708 -2.771235,2.150773 -0.863684,2.697858 -1.005621,3.352596 1.044554,4.107935 l -0.323839,2.913514 -0.5395,2.050351 -0.431673,1.295009 -0.323839,3.56085 0.323839,2.266185 0.647679,1.942345 0.755163,1.618678 0.755513,2.697681 0.10783,1.942345 -0.216006,2.374018 -0.431328,2.589847 v 1.834515 l 0.862997,2.913345 3.021693,6.690374 c 0,0 -0.299723,5.135256 1.426958,5.566586 0.234612,0.0586 0.417202,-0.11334 0.333485,-0.13711 0,0 -0.633208,-3.173629 0.539503,-4.286738 0,0 0.182245,-1.682238 -1.436607,-3.408577 0,0 -0.755851,-2.374015 -0.539845,-3.129181 0,0 -3.237357,-2.91386 -1.402842,-5.287874 0,0 1.549947,-2.067059 2.408467,-5.271343 0,0 0.415822,-1.22766 5.703354,-1.011823 0,0 3.747918,0.474564 5.413622,-0.318326 0.482314,-0.229616 9.502951,-5.790346 12.157399,-6.018409 0.07855,-0.0067 0.150548,-0.0066 0.21566,-0.0055 2.276175,0.03635 2.204861,-2.154389 -0.486791,-1.297421 0,0 -1.23989,1.297594 -3.074402,-0.105248 l -1.535825,1.628842 -1.745974,0.268545 -2.602424,0.402904 -2.266527,0.738798 -2.100477,1.600937 -2.374015,-0.539503 -4.100696,-0.323836 -3.45302,-0.647336 c 0,0 -4.316359,-4.532193 -0.43167,-10.467231 l 19.019682,-5.10632 c 0,0 -3.285243,-0.351402 -3.972885,-0.129882 -0.386538,0.124541 -11.37777,2.538518 -17.420811,1.675179 l 0.10783,-1.295012 c 0,0 3.453708,-4.748032 -0.862997,-6.042871 z"
       style="fill:#231f20;fill-opacity:1;fill-rule:nonzero;stroke:#231f20;stroke-width:0.352778;stroke-linecap:round;stroke-linejoin:round;stroke-miterlimit:4;stroke-dasharray:none;stroke-opacity:1" />
  </g>
</svg>
