<svg xmlns:svg="http://www.w3.org/2000/svg" xmlns="http://www.w3.org/2000/svg" version="1.1" width="256" height="256" viewBox="0 0 256 256" xml:space="preserve">	
<g transform="translate(128 128) scale(0.72 0.72)">
<g style="stroke: none; stroke-width: 0; stroke-dasharray: none; stroke-linecap: butt; stroke-linejoin: miter; stroke-miterlimit: 10; fill: none; fill-rule: nonzero; opacity: 1;" transform="translate(-175.05 -175.05000000000004) scale(3.89 3.89)">
<path d="M 81.253 90 H 8.747 c -1.697 0 -3.072 -1.375 -3.072 -3.072 V 34.121 h 78.65 v 52.807 C 84.325 88.625 82.95 90 81.253 90 z" style="stroke:none;stroke-width:1;stroke-dasharray:none;stroke-linecap:butt;stroke-linejoin:miter;stroke-miterlimit:10;fill:#4a148c;fill-rule:nonzero;opacity:1;fill-opacity:0.99789917" transform=" matrix(1 0 0 1 0 0) " stroke-linecap="round"/>
<polygon points="45,0 5.67,34.12 5.67,34.12 5.67,34.12 45,68.24 84.33,34.12 " style="stroke: none; stroke-width: 1; stroke-dasharray: none; stroke-linecap: butt; stroke-linejoin: miter; stroke-miterlimit: 10; fill: rgb(69,96,116); fill-rule: nonzero; opacity: 1;" transform="  matrix(1 0 0 1 0 0) "/>
<path d="M 45 55.879 L 6.645 89.158 C 7.195 89.677 7.931 90 8.747 90 h 72.507 c 0.815 0 1.552 -0.323 2.102 -0.842 C 81.509 87.557 45 55.879 45 55.879 z" style="stroke:none;stroke-width:1;stroke-dasharray:none;stroke-linecap:butt;stroke-linejoin:miter;stroke-miterlimit:10;fill:#1f0454;fill-rule:nonzero;opacity:1;fill-opacity:1" transform=" matrix(1 0 0 1 0 0) " stroke-linecap="round"/>
<path d="M 16.173 7.816 v 21.89 v 9.524 l 21.702 18.831 L 45 51.879 c 0 0 2.909 2.524 7.125 6.182 L 73.827 39.23 v -9.524 V 7.816 H 16.173 z" style="stroke: none; stroke-width: 1; stroke-dasharray: none; stroke-linecap: butt; stroke-linejoin: miter; stroke-miterlimit: 10; fill: rgb(240,240,240); fill-rule: nonzero; opacity: 1;" transform=" matrix(1 0 0 1 0 0) " stroke-linecap="round"/>
<path d="M 40.15 42.299 l -2.44 0.726 c -0.352 0.105 -0.722 -0.096 -0.827 -0.448 l -2.595 -8.722 c -0.105 -0.352 0.096 -0.722 0.448 -0.827 l 2.44 -0.726 c 0.352 -0.105 0.722 0.096 0.827 0.448 l 2.595 8.722 C 40.702 41.825 40.502 42.195 40.15 42.299 z" style="stroke: none; stroke-width: 1; stroke-dasharray: none; stroke-linecap: butt; stroke-linejoin: miter; stroke-miterlimit: 10; fill: rgb(220,103,84); fill-rule: nonzero; opacity: 1;" transform=" matrix(1 0 0 1 0 0) " stroke-linecap="round"/>
<path d="M 36.37 23.411 l -7.076 1.078 c -0.929 0.142 -1.567 1.009 -1.426 1.938 l 0.913 5.991 c 0.142 0.929 1.009 1.567 1.938 1.426 l 7.076 -1.078 l 15.235 2.809 c 0.734 0.135 1.383 -0.493 1.27 -1.231 l -1.068 -7.01 L 52.725 24 l -1.068 -7.01 c -0.112 -0.738 -0.919 -1.145 -1.579 -0.797 L 36.37 23.411 z" style="stroke: none; stroke-width: 1; stroke-dasharray: none; stroke-linecap: butt; stroke-linejoin: miter; stroke-miterlimit: 10; fill: rgb(220,103,84); fill-rule: nonzero; opacity: 1;" transform=" matrix(1 0 0 1 0 0) " stroke-linecap="round"/>
<path d="M 39.164 34.367 l -5.005 0.763 c -0.548 0.084 -1.061 -0.293 -1.144 -0.842 l -1.662 -10.907 c -0.084 -0.548 0.293 -1.061 0.842 -1.144 l 5.005 -0.763 c 0.548 -0.084 1.061 0.293 1.144 0.842 l 1.662 10.907 C 40.089 33.772 39.712 34.284 39.164 34.367 z" style="stroke: none; stroke-width: 1; stroke-dasharray: none; stroke-linecap: butt; stroke-linejoin: miter; stroke-miterlimit: 10; fill: rgb(195,87,70); fill-rule: nonzero; opacity: 1;" transform=" matrix(1 0 0 1 0 0) " stroke-linecap="round"/>
<path d="M 56.785 25.587 c -0.242 0 -0.456 -0.177 -0.493 -0.425 c -0.042 -0.273 0.146 -0.528 0.419 -0.569 l 4.819 -0.734 c 0.27 -0.04 0.528 0.146 0.569 0.419 c 0.042 0.273 -0.146 0.528 -0.419 0.569 l -4.819 0.734 C 56.836 25.585 56.811 25.587 56.785 25.587 z" style="stroke: none; stroke-width: 1; stroke-dasharray: none; stroke-linecap: butt; stroke-linejoin: miter; stroke-miterlimit: 10; fill: rgb(220,103,84); fill-rule: nonzero; opacity: 1;" transform=" matrix(1 0 0 1 0 0) " stroke-linecap="round"/>
<path d="M 56.141 21.351 c -0.194 0 -0.38 -0.114 -0.46 -0.305 c -0.108 -0.254 0.011 -0.548 0.265 -0.656 l 4.632 -1.966 c 0.253 -0.107 0.548 0.011 0.655 0.265 c 0.108 0.254 -0.011 0.548 -0.265 0.656 l -4.632 1.966 C 56.272 21.338 56.206 21.351 56.141 21.351 z" style="stroke: none; stroke-width: 1; stroke-dasharray: none; stroke-linecap: butt; stroke-linejoin: miter; stroke-miterlimit: 10; fill: rgb(220,103,84); fill-rule: nonzero; opacity: 1;" transform=" matrix(1 0 0 1 0 0) " stroke-linecap="round"/>
<path d="M 62.439 30.32 c -0.017 0 -0.033 -0.001 -0.051 -0.002 l -5.008 -0.498 c -0.274 -0.027 -0.475 -0.272 -0.447 -0.547 c 0.027 -0.275 0.263 -0.472 0.547 -0.448 l 5.008 0.498 c 0.274 0.027 0.475 0.272 0.447 0.547 C 62.91 30.128 62.693 30.32 62.439 30.32 z" style="stroke: none; stroke-width: 1; stroke-dasharray: none; stroke-linecap: butt; stroke-linejoin: miter; stroke-miterlimit: 10; fill: rgb(220,103,84); fill-rule: nonzero; opacity: 1;" transform=" matrix(1 0 0 1 0 0) " stroke-linecap="round"/>
</g>
</g>
</svg>