<?xml version="1.0" encoding="UTF-8" standalone="no"?>
<svg
   id="Layer_2"
   data-name="Layer 2"
   viewBox="0 0 35.13706 35.044243"
   version="1.1"
   sodipodi:docname="parentsquare.svg"
   width="35.137062"
   height="35.044243"
   inkscape:version="1.3.2 (091e20ef0f, 2023-11-25)"
   xmlns:inkscape="http://www.inkscape.org/namespaces/inkscape"
   xmlns:sodipodi="http://sodipodi.sourceforge.net/DTD/sodipodi-0.dtd"
   xmlns="http://www.w3.org/2000/svg"
   xmlns:svg="http://www.w3.org/2000/svg">
  <sodipodi:namedview
     id="namedview78"
     pagecolor="#ffffff"
     bordercolor="#666666"
     borderopacity="1.0"
     inkscape:showpageshadow="2"
     inkscape:pageopacity="0.0"
     inkscape:pagecheckerboard="0"
     inkscape:deskcolor="#d1d1d1"
     inkscape:zoom="2.8462342"
     inkscape:cx="145.10401"
     inkscape:cy="11.769938"
     inkscape:window-width="1920"
     inkscape:window-height="1011"
     inkscape:window-x="0"
     inkscape:window-y="0"
     inkscape:window-maximized="1"
     inkscape:current-layer="Layer_2" />
  <defs
     id="defs1">
    <style
       id="style1">
      .cls-1 {
        fill: #87a05c;
      }

      .cls-2 {
        fill: #f4be55;
      }

      .cls-3 {
        fill: #e7e7e7;
      }

      .cls-4 {
        fill: #bcbabb;
      }

      .cls-5 {
        fill: #a05687;
      }

      .cls-6 {
        fill: #98c8eb;
      }

      .cls-7 {
        fill: #9dbd64;
      }

      .cls-8 {
        fill: #c89f50;
      }

      .cls-9 {
        fill: #bc609f;
      }

      .cls-10 {
        fill: #84a8c2;
      }
    </style>
  </defs>
  <g
     id="icons"
     transform="translate(-0.0011103,0.00138834)">
    <g
       id="g78">
      <path
         class="cls-3"
         d="m 0.03,17.6 c 0,-2.65 0.01,-5.29 0,-7.94 C 0,5.65 1.66,2.59 5.29,0.78 6.25,0.3 7.42,0.06 8.5,0.04 14.59,-0.02 20.69,0 26.79,0.01 c 3.88,0 8.05,3.76 8.16,7.64 0.18,6.1 0.24,12.21 0.14,18.31 -0.06,3.74 -1.73,6.76 -5.36,8.23 -1.33,0.54 -2.87,0.78 -4.32,0.8 -5.23,0.09 -10.46,0.04 -15.69,0.03 -3.83,0 -6.94,-1.39 -8.68,-4.93 C 0.43,28.85 0.15,27.36 0.08,25.97 -0.07,23.18 0.04,20.38 0.04,17.59 Z m 27.9,3.25 c 0,-2.21 0.02,-4.41 0.03,-6.62 0.01,-0.04 -0.02,0.04 0,0 2.26,-0.76 3.84,-2.96 3.9,-5.31 0.07,-2.94 -1.99,-5.19 -4.94,-5.69 -2.73,-0.46 -5.31,1.9 -5.74,3.73 l -0.03,0.17 c -2.2,0 -4.67,0.02 -6.87,0.02 C 14.19,7.01 14.08,6.87 14.02,6.71 13.28,4.64 10.94,3.05 8.79,3.15 6.24,3.27 4.01,4.96 3.48,7.24 c -0.61,2.64 0.27,5.44 3.81,6.94 0.01,2.22 -0.11,4.39 -0.1,6.62 -0.22,0.11 -0.44,0.22 -0.66,0.33 -1.92,0.95 -3.09,2.42 -3.21,4.6 -0.13,2.38 0.8,4.19 2.91,5.39 2.49,1.42 6.64,0.6 7.94,-3.21 2.28,0 4.55,-0.01 6.83,-0.02 0.04,0.02 0.09,0.04 0.13,0.06 0.07,0.23 0.11,0.48 0.21,0.7 0.98,2.12 3.51,3.48 5.72,3.07 2.86,-0.53 4.64,-2.46 4.75,-5.4 C 31.9,23.91 30.55,21.75 28,20.94 27.98,20.9 27.96,20.87 27.93,20.83 Z"
         id="path1" />
      <path
         class="cls-9"
         d="m 14.17,27.92 c -1.3,3.81 -5.44,4.63 -7.94,3.21 -2.11,-1.2 -3.04,-3.01 -2.91,-5.39 0.12,-2.18 1.29,-3.65 3.21,-4.6 0.22,-0.11 0.44,-0.22 0.66,-0.33 1.13,0 2.25,0 3.38,0 1.72,0.72 2.96,1.88 3.58,3.67 0,1.14 0.02,2.29 0.02,3.43 z"
         id="path49" />
      <path
         class="cls-7"
         d="M 7.28,14.19 C 3.75,12.69 2.87,9.89 3.47,7.25 4,4.96 6.23,3.27 8.78,3.16 c 2.16,-0.1 4.59,1.47 5.34,3.54 0.06,0.16 0.11,0.26 0.15,0.46 0,1.08 0,2.16 0.01,3.23 -0.74,1.77 -1.97,3.06 -3.74,3.83 -1.14,-0.03 -2.14,0 -3.27,-0.03 z"
         id="path50" />
      <path
         class="cls-6"
         d="m 21.15,7.14 c 0.27,-1.96 3.05,-4.36 5.77,-3.9 2.95,0.5 5.01,2.76 4.94,5.69 -0.06,2.35 -1.64,4.54 -3.9,5.31 0,-1.09 0.04,-2.3 0.03,-3.39 0,-1.76 -1.2,-3.4 -2.93,-3.69 C 22.99,7.14 22.6,7.11 21.14,7.14 Z"
         id="path51" />
      <path
         class="cls-2"
         d="m 27.93,20.85 c 2.54,0.81 3.96,3.08 3.87,5.49 -0.1,2.93 -1.89,4.87 -4.75,5.4 -2.21,0.41 -4.75,-0.95 -5.72,-3.07 -0.1,-0.22 -0.14,-0.47 -0.21,-0.7 1.09,-0.02 2.18,-0.03 3.27,-0.05 1.48,-0.03 3.01,-0.98 3.29,-2.41 0.29,-1.48 0.16,-3.14 0.25,-4.65 z"
         id="path52" />
      <path
         class="cls-10"
         d="m 21.15,7.14 c 0,0 2.67,-0.08 3.92,0.02 1.73,0.29 2.93,1.93 2.93,3.69 0,1.09 0,2.18 0,3.26 -0.02,0.04 -0.03,0.08 -0.04,0.13 -1.12,0 -2.24,0 -3.36,0 -0.05,-0.05 0.05,0.05 0,0 0,-0.97 -0.04,-2.07 0,-3.04 0.02,-0.55 -0.38,-0.68 -0.86,-0.66 -0.91,0.03 -1.82,0.01 -2.72,0.01"
         id="path53" />
      <path
         class="cls-8"
         d="m 27.93,20.96 c -0.09,1.52 0.04,3.07 -0.25,4.54 -0.28,1.42 -1.81,2.38 -3.29,2.41 -1.09,0.02 -2.18,0.04 -3.27,0.05 -0.04,-0.02 -0.09,-0.04 -0.13,-0.06 0,-1.14 0,-2.27 0,-3.41 0.03,-0.02 0.07,-0.03 0.1,-0.03 0.91,0.01 1.82,0.04 2.74,0.02 0.19,0 0.69,-0.31 0.69,-0.43 0.04,-1.04 0.02,-1.76 0.01,-2.8 0.07,-0.07 0,-0.36 0.06,-0.43 1.11,0.01 2.22,0.02 3.33,0.03 0.02,0.04 -0.03,0.07 0,0.11 z"
         id="path54" />
      <path
         class="cls-4"
         d="m 7.28,14.19 c 1.14,0.03 2.14,-0.16 3.27,-0.14 0,2.25 0,4.5 0,6.76 -1.13,0 -2.25,0 -3.38,0 -0.01,-2.28 0.11,-4.34 0.1,-6.62 z"
         id="path55" />
      <path
         class="cls-4"
         d="m 21.15,7.14 c 0,0.3 -0.03,2.2 -0.07,3.33 -2.19,-0.03 -4.59,-0.04 -6.78,-0.07 0,-1.08 0,-2.16 -0.01,-3.23 2.2,0 4.67,-0.02 6.87,-0.02 z"
         id="path56" />
      <path
         class="cls-4"
         d="m 27.93,20.85 c -1.11,-0.01 -2.22,-0.02 -3.33,-0.03 0,-2.19 0,-4.38 0,-6.58 1.12,0 2.24,0 3.36,0 0,2.21 -0.02,4.41 -0.03,6.62 z"
         id="path57" />
      <path
         class="cls-4"
         d="m 20.99,24.5 c 0,1.14 0,2.27 0,3.41 -2.29,0 -4.55,0.01 -6.83,0.02 0,-1.14 -0.02,-2.29 -0.02,-3.43 2.28,0 4.56,0 6.84,0.01 z"
         id="path58" />
      <path
         class="cls-3"
         d="m 20.99,24.5 c -2.27,0 -4.57,0 -6.84,-0.01 -0.62,-1.79 -1.86,-2.96 -3.58,-3.67 0,-2.2 0,-4.39 0,-6.59 1.77,-0.77 3,-2.06 3.74,-3.83 2.19,0.03 4.38,0.04 6.57,0.07 0.05,0.02 0.17,-0.02 0.21,0 0.53,1.77 1.74,2.82 3.36,3.54 0.05,0.05 0.11,0.1 0.16,0.16 0,2.19 0,4.47 0,6.66 -0.07,0.07 -0.14,0.14 -0.21,0.2 -1.69,0.59 -2.85,1.67 -3.29,3.44 -0.04,0 -0.07,0.02 -0.1,0.03 z"
         id="path74" />
      <path
         class="cls-6"
         d="m 24.6,14.24 c -1.62,-0.72 -2.99,-2.01 -3.52,-3.78 0.95,0.03 1.52,0.09 2.66,0.07 0.48,0 0.88,0.12 0.86,0.66 -0.04,0.97 0,2.07 0,3.04 z"
         id="path75" />
      <path
         class="cls-2"
         d="m 20.99,24.5 c 0.44,-1.77 1.92,-3.09 3.61,-3.68 0,1.04 0.09,2.02 -0.06,3.17 -0.04,0.33 -0.52,0.48 -0.71,0.49 -0.91,0.02 -1.93,0.03 -2.84,0.02 z"
         id="path76" />
      <path
         class="cls-1"
         d="m 11.24,10.4 c -0.66,-0.06 -0.68,0.37 -0.69,0.49 -0.04,1.04 0,2.29 0,3.34 -0.07,0.07 0.03,-0.07 -0.04,0 -1.1,-0.01 -2.13,-0.02 -3.24,-0.03 -0.09,-0.03 0.09,0.04 0,0 C 7.36,12.68 7.16,11.02 7.45,9.54 7.73,8.12 9.24,7.16 10.71,7.13 11.79,7.11 12.87,7.09 13.96,7.08 14,7.1 14.23,7.14 14.27,7.16 c 0,1.14 0.01,2.1 0.01,3.23"
         id="path77" />
      <path
         class="cls-5"
         d="M 13.75,27.92 C 12.35,27.88 11,27.96 9.55,27.66 8.16,27.37 7.22,25.81 7.19,24.3 7.17,23.18 7.16,22.07 7.14,20.95 7.16,20.91 7.18,20.86 7.2,20.82 c 1.11,0 2.25,0 3.36,0 0.02,0.03 0,0.07 0,0.11 -0.01,0.93 -0.04,1.87 -0.02,2.8 0,0.23 -0.07,0.76 0.38,0.76 1.02,0 2.19,0 3.22,0 v 0 c 0,1.14 0.03,2.3 0.02,3.43 z"
         id="path78" />
    </g>
  </g>
</svg>
