<?xml version="1.0" encoding="UTF-8" standalone="no"?>
<svg
   width="672.05798pt"
   height="597.17175pt"
   viewBox="0 0 672.05798 597.17175"
   version="1.2"
   id="svg191"
   sodipodi:docname="temp.svg"
   inkscape:version="1.2.2 (b0a8486541, 2022-12-01)"
   inkscape:export-filename="temp.png"
   inkscape:export-xdpi="96"
   inkscape:export-ydpi="96"
   xmlns:inkscape="http://www.inkscape.org/namespaces/inkscape"
   xmlns:sodipodi="http://sodipodi.sourceforge.net/DTD/sodipodi-0.dtd"
   xmlns="http://www.w3.org/2000/svg"
   xmlns:svg="http://www.w3.org/2000/svg">
  <sodipodi:namedview
     id="namedview99"
     pagecolor="#ffffff"
     bordercolor="#666666"
     borderopacity="1.0"
     inkscape:showpageshadow="2"
     inkscape:pageopacity="0.0"
     inkscape:pagecheckerboard="0"
     inkscape:deskcolor="#d1d1d1"
     inkscape:document-units="pt"
     showgrid="false"
     inkscape:zoom="0.48875"
     inkscape:cx="71.611253"
     inkscape:cy="525.8312"
     inkscape:window-width="1920"
     inkscape:window-height="1011"
     inkscape:window-x="0"
     inkscape:window-y="0"
     inkscape:window-maximized="1"
     inkscape:current-layer="svg191" />
  <defs
     id="defs195" />
  <g
     id="surface3438"
     transform="translate(-266.69384,-305.99621)">
    <path
       style="fill:#000000;fill-opacity:1;fill-rule:nonzero;stroke:none"
       d="m 414.96094,903.16797 c -11.0586,-3.42188 -19.41407,-11.52344 -27.77735,-18.53516 -18.00781,-15.09765 -38.52343,-26.77344 -55.875,-42.60156 -5.45703,-4.97656 -12.09765,-7.47266 -18.5,-10.62109 -16.76953,-8.25 -32.05468,-18.01563 -39.15625,-36.8086 -4.375,-11.5625 -4.13281,-12.57031 10.14063,-16.95703 -11.28906,-16.18359 -12.36328,-35.17969 -16.19141,-53.43359 -1.70703,-6.53125 -1.47265,-12.4961 4.82422,-16.6875 5.5625,0.82812 7.17188,4.59375 7.59375,9.36718 1.49609,-1.79296 -0.25,-4.07421 -0.19531,-6.24218 0.34765,-13.36328 4.96094,-16.6875 17.17187,-11.73828 6.96094,2.82421 13.25782,8.08984 21.52735,4.70312 6.32812,-1.63672 8.51562,7.12891 14.69922,5.78906 6.89062,-3.87109 13.45312,-8.72265 22.07421,-7.08593 3.04688,0.96093 5.80469,2.17968 5.44141,6.15625 -8.92187,8.33593 -20.30078,13.51171 -28.35547,23.1914 -4.77734,5.7461 -11.28906,2.8086 -16.78906,-0.57812 -5.07813,-3.1211 -9.10156,-7.92969 -15.78125,-11.00782 3.74219,12.94922 16.30469,20.73438 14.05469,34.38282 -9.55078,4.94531 -16.73828,-4.92578 -26.33594,-2.76953 4.56641,15.07031 16.33203,26.10937 20.78125,39.39062 -0.9375,7.99609 -9.14844,5.21094 -11.77734,11.03516 12.41015,11.23047 28.44531,15.28906 43.4375,21.36718 7.01171,2.84375 14.30078,4.44532 14.98828,14.83594 0.45312,6.83985 8.48437,8.3125 13.90625,10.67969 21.99218,9.61328 45.54687,11.62891 69.08593,12.67187 41.78516,1.84766 82.42579,-7.53125 123.4375,-13.38671 19.1875,-2.73829 38.63672,-4.91797 57.66407,1.93359 9.74609,4.30859 58.93359,8.19141 67.85156,15.48828 -1.39063,7.26563 -40.70313,0.44922 -48.83594,0 -54.625,-6.53906 -108.48047,5.23828 -161.79297,14.5625 -21.99609,3.84766 -54.82812,0.92188 -76.67578,-1.89844 -0.76172,4.58594 2.33594,1.64453 3.37891,4.21875 0.72656,5.42188 21.50781,15.1836 11.98047,20.57813"
       id="path8" />
    <path
       style="fill:#000000;fill-opacity:1;fill-rule:nonzero;stroke:none"
       d="m 935.50781,712.40234 c 3.82031,13.59375 5.17969,30.51953 -1.05469,42.26563 -3.07421,5.78906 -1.90234,11.77734 -0.375,17.91797 4.25,17.08203 2.48047,32.64453 -13.12109,43.7539 -4.69531,3.34375 -5.44141,8.15235 -6.71875,13.17578 -6.75781,26.60157 -19.22266,36.85547 -46.90234,36.2461 -13.94532,-0.3086 -24.4336,3.69531 -32.58985,14.78515 3.38282,5.8125 10.41407,1.41797 13.95313,6.57813 1.14453,11.34375 -7.04688,10.0625 -13.95313,8.73828 -8.54297,-1.64062 -24.04687,-10.96875 -32.36328,-5.96094 -5.45703,-4.48437 -4.875,-1.5039 -6.5,-9.33984 4.55469,-11.07813 18.11719,-12.78516 24.20313,-23.55859 -14.42969,-18.10547 -12.08985,-39.27735 -8.73438,-60.28907 1.53125,-9.58203 -0.62109,-16.85547 -9.01562,-22.04687 5.21484,-9.88281 10.35156,-18.50781 19.3125,-24.13672 3.1914,-0.64844 6.01562,0.53516 8.84765,1.71875 20.9961,9.79297 42.0586,17.64844 66,10.48828 23.00782,-6.87891 28.04688,-13.67578 24.76953,-37.47656 -0.41406,-3.02735 -1.04296,-6.02735 -0.67578,-9.10938 0.62891,-3.89062 2.48438,-6.90625 6.17188,-8.57812 4.80469,-0.98438 -7.66016,-1.76953 -2.92969,-2.17969 4.15625,1.07031 10.625,2.59375 11.67578,7.00781"
       id="path10" />
    <path
       style="fill:#ffffff;fill-opacity:1;fill-rule:nonzero;stroke:none"
       d="m 615.77344,852.91016 c -23.41016,-4.89844 -46.71485,-2.42579 -69.85938,1.64843 -46.94531,8.26953 -93.8789,15.39453 -141.71875,8.14844 -20.96875,-3.17578 -40.83203,-8.85156 -57.71484,-21.98437 0.37109,-4.17579 5.69922,-2.9961 5.73828,-8.00391 -21.71094,-10.83984 -49.23047,-13.29297 -66.61328,-36.19141 7.40625,-3.64062 13.6875,-0.0859 20.48047,-2.18359 -7.26563,-17.42969 -21.58985,-30.93359 -26.41797,-50.86719 12.21875,0.69922 21.30859,7.8086 32.78515,11.08203 -3.73437,-15.91015 -17.13281,-26.01172 -20.96093,-42.83984 15.69922,3.14844 22.28515,17.14062 35.95703,21.33203 7.92578,-11.77344 17.41406,-22.32422 32.70312,-24.73047 23.66016,-8.55469 45.25782,-1.38281 66.46094,8.71094 3.17578,3.92969 2.40234,6.92187 -2.19141,9.03125 -0.0703,0.0352 0.0664,0.95312 0.33985,1.21484 0.30859,0.29297 0.88281,0.30469 1.47656,0.46485 28.84766,3.80468 57.66016,6.6875 86.35938,10.54687 7.47656,0.82813 14.36718,3.44922 20.99609,6.86719 27.63281,12.53125 54.3125,26.67187 76.70703,47.64453 15.09766,14.13672 27.71875,30.20703 36.18359,49.27344 1.88672,4.25 3.96094,8.91406 1.02344,13.22265 -3.62109,5.30469 -8.54687,1.64063 -12.51172,0.32422 -6.32812,-2.09765 -13.37109,1.8711 -19.22265,-2.71093"
       id="path12" />
    <path
       style="fill:#fafafa;fill-opacity:1;fill-rule:nonzero;stroke:none"
       d="m 353.51172,704.97266 c -8.4961,0.0234 -14.9961,4.41796 -21.08985,9.69531 -9.13671,-3.50391 -4.73046,-9.85547 -2.20703,-14.51953 7.78907,-14.40235 19.75782,-22.73047 36.60547,-23.70703 20.01172,-1.16016 39.55078,0.91796 58.6836,6.8164 15.82421,5.50781 31.12109,12.10938 44.52343,22.5 5.32032,4.01953 10.84766,7.84375 14.90625,13.24219 3.57032,4.75391 5.97657,9.76172 1.20703,15.25781 -16.9375,1.25391 -32.82031,-2.23437 -47.61328,-10.64844 -26.07422,-16.59765 -55.25,-18.96875 -85.01562,-18.63671"
       id="path14" />
    <path
       style="fill:#000000;fill-opacity:1;fill-rule:nonzero;stroke:none"
       d="m 426.85937,687.28516 c -20.45312,-4.83985 -41.02343,-8.48438 -62.19921,-6.4375 -16.52735,1.59765 -30.08594,12.33593 -34.91016,27.96484 -0.79688,2.57812 -0.82031,5.10156 2.67578,5.85547 -2.62891,3.25781 -5.06641,3.14453 -5.96484,-1.04297 -0.92188,-4.27734 -2.91407,-7.20703 -6.98047,-8.71484 5.6289,-12.88672 13.18359,-24.28125 26.49609,-30.1211 5.57422,-2.44531 6.38672,-7.08984 8.53516,-11.63672 11.27734,-23.90234 25.28125,-45.67187 48.78125,-59.55468 3.375,1.28515 4.82031,3.73437 4.40234,7.30859 -12.09375,14.48047 -25.88672,27.65234 -34.58984,44.78125 -1.82422,3.59375 -4.9336,6.64453 -4.5586,12.24219 6.94922,4.67187 15.32813,1.48828 23.04688,2.5625 14.32031,1.99609 29.94141,0.34375 40.24609,14.01172 -0.67968,2.70703 -2.10156,4.05859 -4.98047,2.78125"
       id="path16" />
    <path
       style="fill:#000000;fill-opacity:1;fill-rule:nonzero;stroke:none"
       d="m 353.51172,704.97266 c 9.08203,-4.8086 18.80859,-3.52344 28.21875,-2.19141 20.52344,2.90625 40.85156,6.84375 59.0625,17.67969 -1.60547,2.10156 -3.83203,2.89453 -6.36719,3.05468 -2.55078,-0.0898 -4.71094,-1.0664 -6.47266,-2.92578 -21.55468,-9.88672 -44.43359,-12.44531 -67.80078,-12.26953 -1.29687,-2.9414 -4.19922,-2.6914 -6.64062,-3.34765"
       id="path18" />
    <path
       style="fill:#ffffff;fill-opacity:1;fill-rule:nonzero;stroke:none"
       d="m 797.19141,880.60156 c -5.78125,-2.32422 -11.83594,-2.72656 -17.96875,-2.61719 -10.46094,1.05079 -20.8086,0.51563 -31,-2.2539 -4.1211,-0.96875 -7.41407,-3.07813 -9.3711,-6.97266 -9.15234,-23.35156 -24.92187,-42.28906 -40.74609,-61.17969 -16.71875,-19.95312 -13.79297,-29.89453 11.50781,-38.80859 11.99219,3.71094 16.60938,14.35547 22.16797,24.02734 15.53516,0.66407 25.16406,-13.96875 40.69141,-14.96484 -1.04688,-7.16406 -4.30469,-13.67187 -5.4961,-20.66797 -3.14062,-18.47265 -0.99609,-35.77344 9.98047,-51.5625 5.27734,-7.58984 10.54297,-15.17969 16.00391,-22.64062 8.6875,-11.86719 10.91406,-25.39453 8.69922,-39.59375 -1.92969,-12.38672 -5.32813,-25.10938 8.92578,-32.55469 11.07812,-5.78125 31.14062,-0.46484 41.09765,10.04297 19.38282,20.44531 16.25782,64.83594 -6.47265,81.42187 -4.96094,3.6211 -3.39453,8 -5.17969,11.86328 -4.36719,13.2461 -4.75,28.37891 -17.60938,37.61719 -5.71875,7.21485 -11.43359,14.4336 -18.21875,23 10.125,-1.96875 12.56641,3.3086 11.44532,11.17578 -2.03125,14.22266 -1.08985,28.64844 -2.70313,42.82032 -1.51562,13.3125 6.1875,20.78515 16.24219,28.64453 -11.52344,8.35547 -21.76172,15.78125 -31.99609,23.20312"
       id="path20" />
    <path
       style="fill:#000000;fill-opacity:1;fill-rule:nonzero;stroke:none"
       d="m 837.17969,714.15625 v -17.97266 c 5.75781,-3.09375 5.35937,4.01953 10.28906,3.96875 11.22266,-21.41406 19.75,-43.3125 7.45312,-67.82812 -7.1289,-14.21875 -22.63671,-21.98438 -38.19531,-19.89063 -8.40234,1.12891 -12.99609,5.4336 -13.125,14.07032 -0.0703,4.60937 0.13672,9.14062 1.14063,13.74218 3.94922,18.0586 0.3164,34.2461 -11.38672,48.97266 -13.10547,16.48828 -25.97266,33.32422 -24.24219,56.4375 1.01563,13.53906 5.18359,26.03516 14.07031,41.86719 -14.97656,-10.8125 -22.73437,-1.14063 -31.85547,3.73828 -6.30859,3.375 -12.9414,6.09375 -20.82421,6.71484 -4.1875,-11.61719 -12.8125,-19.83203 -21.9375,-27.63281 -2.69922,1.60937 -3.98047,0.004 -5.00391,-2.19922 3.20312,-9.08594 0.375,-17.89062 -1.32031,-26.76562 0.80859,-2.95313 1.48437,-6.0586 5.71484,-5.26563 4.07422,7.70703 10.31641,13.59375 10.92578,23.92969 0.60547,10.28125 11.58594,16.08203 19.13672,22.72265 2.36719,2.08594 5.67578,-0.83203 8.33594,-2.28906 5.32812,-2.91797 10.69531,-5.76953 16.63672,-8.96875 -9.62891,-31.94922 -0.21094,-59.1289 20.5664,-82.65625 11.9336,-13.51172 15.26563,-28.52344 13.1836,-45.58984 -0.3086,-2.54297 -1.04297,-5.04297 -1.26172,-7.58985 -2.25,-25.89843 14.99219,-39.375 39.83203,-31.17968 22.87109,7.54297 37.20703,29.29687 34.85937,53.60937 -0.92968,9.625 -2.40234,19.22266 -5.94921,29.42188 24.67187,0.60547 50.33984,-5.66407 64.87109,20.89062 -2.75781,1.41016 -4.74219,3.50781 -5.71484,6.5 -17.65235,-10.6289 -35.83204,-18.45312 -57.61329,-10.63672 0.2461,7.90625 11.59766,6.96875 11.26563,16.82032 -11.64453,4.77343 -26.53516,-0.54688 -38.67969,6.51171 -4.01953,-4.17578 -2.83594,-8.79687 -1.17187,-13.45312"
       id="path22" />
    <path
       style="fill:#ffffff;fill-opacity:1;fill-rule:nonzero;stroke:none"
       d="m 840.90234,727.16406 c 3.80469,-8.26562 10.46094,-10.70703 18.80469,-8.64453 5.00781,1.24219 9.91797,2.01172 16.02734,1.60938 -2.67968,-8.03125 -11.14843,-4.10157 -15.54687,-9.71875 -1.30859,-2.64454 4.28125,-6.4336 -0.22266,-9.77344 18.73438,-9.25 50.6875,-1.625 63.41407,14.27734 0.0156,0.51172 -0.0742,1.0586 0.0586,1.53516 11.12891,39.60156 -6.21094,48.8164 -41.80078,52.92578 -19.1836,2.21875 -37.12891,-4.57422 -53.54688,-14.75391 -0.28906,-11.29297 5.80078,-19.58984 12.8125,-27.45703"
       id="path24" />
    <path
       style="fill:#ffffff;fill-opacity:1;fill-rule:nonzero;stroke:none"
       d="m 823.73437,770.58984 c 59.19141,11.66797 59.19141,11.66797 95.96485,-1.92187 9.08984,10.95703 9.16015,23.59375 0.30469,34.15625 -5.48438,6.53515 -12.76172,10.28125 -20.5586,12.8789 -17.1914,5.72266 -34.41015,3.92969 -51.08203,-1.89062 -18.75391,-6.54688 -26.9375,-21.20703 -24.62891,-43.22266"
       id="path26" />
    <path
       style="fill:#ffffff;fill-opacity:1;fill-rule:nonzero;stroke:none"
       d="m 826.32422,810.96484 c 23.85937,15.02735 48.21484,22.35157 75.26562,14.42969 -0.34765,14.74219 -8.33203,24.08203 -22.75781,28.08984 -12.33594,3.42579 -24.50781,1.71094 -36.08594,-2.1875 -19.66015,-6.62109 -22.60937,-14.25 -16.42187,-40.33203"
       id="path28" />
    <path
       style="fill:#000000;fill-opacity:1;fill-rule:nonzero;stroke:none"
       d="m 840.90234,727.16406 c -1.67578,10.3711 -8.26562,18.4375 -12.8125,27.45703 -1.89062,-0.95312 -3.78125,-1.91015 -5.66797,-2.86328 6.39063,-11.95312 9.8711,-25.05469 14.75782,-37.60156 0.98828,4.41016 -1.71485,9.87891 3.72265,13.00781"
       id="path30" />
    <path
       style="fill:#000000;fill-opacity:1;fill-rule:nonzero;stroke:none"
       d="m 741.61328,865.80859 c 0.5,3.83985 2.84375,5.78516 6.51172,6.36328 8.39453,5.75 42.10547,3.67579 51.04687,6.9961 1.85157,4.51953 0.76563,6.23437 3.21094,10.73437 -3.8164,0.25 -23.66015,-5.60547 -27.14062,-5.375 -34.97266,-3.49218 -69.78516,-8.03906 -104.1211,-15.77734 3.42969,-4.87109 8.84375,-2.03906 13.17188,-3.41016 14.98047,-5.35156 30.19922,1.46485 45.23437,-0.93359 4.11328,-0.29297 8.36328,-1.6875 12.08594,1.40234"
       id="path32" />
    <path
       style="fill:#1e1919;fill-opacity:1;fill-rule:nonzero;stroke:none"
       d="m 775.77734,878.37109 c -9.40625,-1.21875 -19.94922,2.65625 -27.65234,-6.19922 10.33984,2.07032 21.09766,1.90625 31.09766,5.8125 -1.14844,0.12891 -2.29688,0.25782 -3.44532,0.38672"
       id="path34" />
    <path
       style="fill:#000000;fill-opacity:1;fill-rule:nonzero;stroke:none"
       d="m 707.95703,736.11328 c -2.94531,1.46875 -3.03516,4.30859 -3.36328,7.03125 -6.87891,-0.33594 -10.41016,-6.46094 -15.89844,-9.21484 -9.5625,-15.04297 -20.84765,-28.72657 -32.99609,-42.16797 2.73437,5.53906 6.5039,10.42969 5.03906,16.87109 -0.91016,2.23047 -2.41406,3.63281 -4.95703,3.60938 -11.69141,-10.76953 -16.82422,-25.42578 -23.21484,-39.34375 1.91406,-8.08594 -4.09766,-14.14063 -5.51954,-21.39063 2.36329,-5.80859 8.32032,-7.05469 12.8711,-9.97265 15.64453,-10.03125 17.14453,-15.09375 8.15234,-30.65625 -1.73437,-3.00391 -2.89844,-6.35938 -5.28906,-9.04297 -2.85938,1.83203 -2.25,5.59765 -4.42969,7.73828 -10.41406,3.15625 -21.76562,4.03515 -30.11328,12.32812 -1.82031,1.38672 -3.84375,2.30469 -6.08984,2.73047 -11.6836,0.25781 -18.90625,-6.73828 -24.77735,-15.625 -8.23828,-12.46875 -14.99609,-25.76953 -21.16015,-39.36328 -8.04297,-17.74609 -14.26953,-36.94922 -36.77735,-42.10937 -2.87109,-0.65625 -5.78906,-3.17188 -5.42187,-6.69141 0.40234,-3.85156 3.33203,-6.45703 6.80078,-7.75781 14.03125,-5.26953 26.24609,-0.15235 37.44141,7.75 15.96093,11.26953 29.2539,25.80468 44.75781,37.67578 21.4414,16.41797 44.42578,29.61719 71.25781,34.88281 18.48438,3.62891 26.16406,-0.94531 31.02734,-18.12891 9.76563,-34.52734 -2.90234,-67.125 -33.33203,-85.6875 -2.23437,-1.36328 -4.26172,-2.83984 -5.29297,-5.33984 -0.28125,-1.48047 -0.18359,-2.95703 0.26563,-4.39844 9.64844,-13.07031 5.46484,-35.77734 -8.16406,-44.57422 -4.96094,-3.19921 -8.6836,-2.78515 -10.63282,3.29297 -1.41015,4.38672 -0.83593,9.25391 -3.15625,13.44922 -3.63281,4.52735 -7.48437,4.9375 -10.92187,0.0195 -2.88281,-4.12109 -5.99219,-8.0039 -9.4375,-11.64843 -0.39844,-0.98829 -0.79688,-2.34375 -0.1875,-2.87891 17.20703,-15.13281 14.96484,-31.34766 2.97656,-48.30859 -1.76562,-2.5 -2.14844,-5.66407 -1.23437,-8.79297 1.10156,-2.14844 2.46093,-3.80078 5.22656,-2.67188 7.39453,5.20703 4.36719,-6.37109 9.76562,-5.48437 6.64844,3.67968 9.24219,10.84375 12.4336,17.89062 1.79687,3.97266 1.0039,12.85938 10.32031,8.25391 0.57422,-0.28516 3.23438,1.66015 3.32031,2.70312 0.97266,11.85938 11.89844,20.11328 11.85157,31.95313 -0.0274,5.98437 4.01171,7.88672 7.0039,11.02344 23.04688,24.1289 40.69141,51.04687 37.46485,86.125 -1.64063,17.82031 -0.82032,35.92578 -5.07813,53.49218 -3.8125,15.72266 -10.76562,27.64453 -29.69531,27.45313 -8.67969,-0.0898 -14.94141,7.90625 -16.87891,13.90625 -5.17969,16.05859 -16.99219,24.83594 -31.64062,33.79687 25.57031,24.30469 43.85547,53.14844 67.68359,77.27344"
       id="path36" />
    <path
       style="fill:#000000;fill-opacity:1;fill-rule:nonzero;stroke:none"
       d="m 406.4375,609.87891 c -1.04688,-2.09375 -2.09375,-4.1875 -3.14453,-6.28125 2.59765,-3.08594 7.57031,-3.37891 9.48437,-8.59375 C 400.89062,581.01172 387.58984,567.5 379.05859,550.50781 369.5,531.45703 362.3125,512.10156 369.51953,490.20703 374.21484,475.94531 383,465.05469 394.71875,456.26562 c 9.89453,-7.42187 18.81641,-15.79687 26.17578,-25.77343 9.41797,-12.76563 14.63281,-26.76953 13.42578,-43.00391 -0.94531,-12.65234 -7.26562,-18.46094 -19.84765,-16.71875 -6.57813,0.91016 -13.02735,2.8125 -19.61329,3.55469 -7.36718,0.83203 -15.02734,0.0156 -18.42187,-7.6836 -3.16406,-7.18359 1.69922,-12.57812 6.50391,-17.5 8.1289,-8.32421 18.12109,-13.03906 29.26171,-15.73046 2.91016,-0.69922 7.26172,0.3125 8.47266,-2.59375 7.69141,-18.41407 22.63672,-11.66407 35.61328,-10.33594 8.05469,0.82031 15.91406,3.54297 23.85938,5.41015 -0.20313,5.6836 -4.80078,5.41016 -8.50391,6.35547 -9.78906,1.30078 -19.16016,-3.1289 -30.73437,-2.26172 4.14843,5.11719 11.99218,6.01954 11.70312,14.59375 -17.45312,8.30079 -40.65625,-2.77343 -58.90234,15.4961 12.80859,0.0195 22.84765,-2.38672 32.89843,-1.19531 12.19922,1.4414 21.91016,5.01171 22.37891,20.03125 0.20703,6.58203 3.91797,12.77734 4.0625,19.54687 0.18359,8.62891 1.83594,17.79688 -8.79687,22.32813 -2.30469,0.98437 -3.16797,3.93359 -4.29688,6.23437 -7.86328,16.03906 -19.85156,28.35156 -33.64062,39.48047 -23.75782,19.17187 -29.375,42.11328 -16.73829,69.91406 15.22266,33.48438 38.63282,59.27735 73.84766,72.24219 6.86328,2.52734 14.27734,9.48047 22.60156,0.15625 2.8086,-3.14453 8.55469,0.63672 10.6211,5.61719 -0.28907,7.32812 -5.76953,9.875 -11.25,12.41015 -7.98828,8.70313 6.32031,9.75 5.46875,15.96485 -0.008,2.28906 -1.00782,3.97265 -3.0625,5 -2.71875,0.79687 -5.23047,-0.17578 -7.76563,-0.89844 -3.57031,-1.30078 -7.67187,2.30469 -11.04687,-1.11719 -6.38282,-8.47265 -10.24219,-18.25781 -18.88672,-25.73828 -13.41797,-11.60937 -27.9961,-11.72266 -43.66797,-10.17187"
       id="path38" />
    <path
       style="fill:#000000;fill-opacity:1;fill-rule:nonzero;stroke:none"
       d="m 479.76562,317.17187 c -5.22265,-5.49218 -3.5,-8.34375 3.41016,-9.75781 14.49609,-2.95703 28.90625,-0.96875 42.57813,3.01563 28.26953,8.23828 56.17968,17.82812 77.66015,39.70312 0.67969,3.0586 -1.17187,4.15235 -3.65625,4.76172 -8.21875,-0.19531 -13.6875,-6.13672 -20.28125,-9.76172 -27.30859,-15.01953 -55.23047,-28.1289 -87.4375,-27.38672 -4.14453,1.14844 -8.125,-1.46093 -12.27344,-0.57422"
       id="path40" />
    <path
       style="fill:#000000;fill-opacity:1;fill-rule:nonzero;stroke:none"
       d="m 479.76562,317.17187 c 2.77735,-6.55078 6.875,-1.41796 10.42188,-1.1875 11.28906,0.89063 18.26172,7.94922 23.64844,16.9961 1.8164,3.05078 3.09375,6.65625 0.73437,10.0664 -2.51953,3.64454 -6.5664,3.27735 -9.59375,1.66016 -11.15234,-5.95312 -25.76562,-4.49219 -34.25781,-16.05469 3.29297,-0.41406 7.05469,0.79297 9.43359,-2.76172 6.86328,-3.21484 0.20703,-5.83203 -0.38672,-8.71875"
       id="path42" />
    <path
       style="fill:#000000;fill-opacity:1;fill-rule:nonzero;stroke:none"
       d="m 599.87891,353.4375 3.53515,-3.30469 c 12.14453,6.32813 19.66016,17.37891 27.99219,27.59375 -1.22266,1.20703 -2.44922,2.41797 -3.67188,3.625 -13.95703,-4.61328 -23.21093,-13.94922 -27.85546,-27.91406"
       id="path44" />
    <path
       style="fill:#fdfdfd;fill-opacity:1;fill-rule:nonzero;stroke:none"
       d="m 480.21094,643.33594 c 1.73047,1.25 3.46093,2.5039 5.1914,3.75781 13.54688,5.55469 24.83985,14.93359 37.40625,22.15625 21.45313,11.96094 43.40625,22.01953 68.52344,23.875 10.11328,0.74609 19.10938,-0.17969 27.45703,-5.91016 4.46485,-4.01562 4.60938,-9.9414 6.73438,-14.99609 2.04687,-4.875 5,-6.46875 8.38672,-0.84766 8.69921,12.57032 15.33203,26.30078 22.22656,39.88282 8.19531,4.83984 7.58984,14.45703 11.67969,21.53125 1.08203,2.33593 2.10546,4.71093 2.69921,7.20312 8.11329,34.04688 15.92969,67.625 44.35938,92.64844 9.30078,8.18359 19.19922,20.30859 17.10547,35.97656 -16.01563,0.70313 -31.8711,-1.00391 -47.6875,-3.27344 -16.28906,-1.34765 -24.26563,-11.07422 -31.78906,-25.36328 -22.64063,-43.01562 -58.87891,-71.4375 -103.66407,-89.33984 -5.40234,-2.15625 -10.59375,-3.76563 -16.34375,-2.02344 -5.57422,-3.49219 -11.61328,-5.70312 -18.125,-6.60547 -7.15625,-3.55469 -16.77343,-1.5 -21.92578,-9.66015 -7.46484,-10.57813 -11.15234,-22.3125 -12.0039,-35.28516 -0.92188,-14.10938 -2.39454,-28.19922 -5.09375,-42.13281 -0.88282,-4.55078 -3.125,-10.44922 4.86328,-11.59375"
       id="path46" />
    <path
       style="fill:#000000;fill-opacity:1;fill-rule:nonzero;stroke:none"
       d="m 680.97656,860.875 c -14.10156,-1.36719 -18.45312,-12.51953 -24.42578,-22.85156 -23.96484,-41.44922 -58.63672,-70.85157 -102.56641,-89.33203 -5.84375,-2.45704 -54.5,-12.3711 -57.80078,-15.86329 -3.39453,-2.34765 -6.76562,-2.43359 -10.11328,0.10547 -15.98437,-0.90625 -30.96875,-5.46093 -45.27734,-12.47265 -2.33594,0.10547 -4.67188,0.21093 -7.01172,0.3164 0.008,6.62891 -5.59375,2.8125 -8.32031,4.38672 -2.37891,1.37891 -7.82813,-1.86719 -6.65235,4.67188 22.17578,7.20312 45.70313,4.59765 68.25,9.42968 6.82032,1.46485 35.28516,10.41016 52.41797,13.50782 34.00781,14.41015 64.15235,34.25 87.09766,63.92187 8.78515,11.35547 17,23.13281 20.45703,39.41797 -12.05469,-2.45312 -21.625,-3.23437 -31.25781,-3.20312 9.15625,6.86718 21.24609,3.22265 32.24218,9.05078 -4.78906,0.42578 -8.1914,0.72656 -11.59765,1.02734 11.22265,4.00391 23.08594,4.13672 34.70703,5.76172 3.69141,-3.46484 9.4375,1.64844 12.82812,-3.08984 0.008,-2.23829 -0.83593,-4.57813 -2.97656,-4.78516"
       id="path48" />
    <path
       style="fill:#ffffff;fill-opacity:1;fill-rule:nonzero;stroke:none"
       d="m 433.78125,720.77734 c 1.54687,3.31641 6.53906,2.74219 7.77734,7.63672 -7.62109,1.11328 -15.9414,-5.94531 -22.75,1.42188 -2.03906,-0.47657 -3.57422,-1.58203 -4.60156,-4.05469 3.16016,-5.125 10.98438,0.91406 13.74609,-5.19141 1.94532,0.0625 3.88672,0.125 5.82813,0.1875"
       id="path50" />
    <path
       style="fill:#000000;fill-opacity:1;fill-rule:nonzero;stroke:none"
       d="m 496.18359,732.82812 c -3.37109,0.0352 -6.74218,0.0703 -10.11328,0.10547 0.74219,-13.23828 -11.38672,-17.0039 -18.10547,-24.7539 -1.01172,-2.16016 -0.48828,-4.24219 0.29688,-6.3125 2.42578,-15.8086 6.33203,-31.54297 0.48047,-47.51172 -0.99219,-2.71094 -0.23828,-6.0586 2.91797,-7.86719 2.91406,-0.88672 2.95703,-9.58203 8.55078,-3.15234 -4.08203,1.6289 -2.87891,5.02343 -2.11328,7.72265 5.63671,19.78907 7.04687,40.24219 7.76562,60.53516 0.33594,9.61328 8.80078,13.32812 10.32031,21.23437"
       id="path52" />
    <path
       style="fill:#000000;fill-opacity:1;fill-rule:nonzero;stroke:none"
       d="m 471.61328,704.84766 c -1.21875,1.11328 -2.43359,2.22265 -3.64844,3.33203 -13.21093,-7.9375 -26.97656,-14.77344 -41.10547,-20.89453 1.36329,-1.20704 2.72657,-2.41407 4.08985,-3.6211 15.21875,-2.3125 31.59375,6.21875 40.66406,21.1836"
       id="path54" />
    <path
       style="fill:#fdfdfd;fill-opacity:1;fill-rule:nonzero;stroke:none"
       d="m 471.61328,704.84766 c -12.48437,-9.125 -24.93359,-18.32813 -40.66406,-21.1836 -22.02344,-10.35937 -45.5625,-10.79687 -71.32422,-10.05859 12.87109,-24.59375 25.31641,-47.38281 46.8125,-63.72656 3.74219,0.10937 6.80469,-1.75782 9.89844,-3.47266 7.47265,-4.13672 13.71093,-2.42188 21.26172,1.56641 16.48046,8.70703 29.32812,19.76562 34.0625,38.51562 -0.90235,6.72266 2.10156,12.84375 3.08593,19.27734 1.26172,8.28125 5.34375,16.37891 -2.3125,23.98047 -4.39843,4.3711 5.12891,10.3125 -0.82031,15.10157"
       id="path56" />
    <path
       style="fill:#000000;fill-opacity:1;fill-rule:nonzero;stroke:none"
       d="m 731.98047,868.61328 c -16.98438,-37.08203 -34.12891,-58.06641 -46.19531,-55.76953 -6.95704,-26.54297 -13.92579,-53.12891 -20.89454,-79.71484 -2.05859,-3.08985 -1.73437,-5.54688 1.86329,-7.13282 4.70312,0.72657 7.14843,4.40625 7.63281,8.26172 0.76953,6.10938 5.44531,6.0586 9.33203,7.61719 0.20703,10.14844 -5.01172,21.08984 4.17578,29.85547 6.75391,1.46484 10.25391,-7.27735 17.00391,-4.96094 1.22265,1.19141 2.44531,2.38281 3.66797,3.57813 -7.4336,6.05859 -15.19141,11.78125 -20.92188,20.17578 20.90625,23.14453 41.875,46.04687 53.96875,75.28515 -3.21094,0.9336 -6.42187,1.8711 -9.63281,2.80469"
       id="path58" />
    <path
       style="fill:#fafafa;fill-opacity:1;fill-rule:nonzero;stroke:none"
       d="m 704.89844,766.76953 c -6.96094,3.5625 -10.82422,12.01953 -20.55469,12.85547 -3.86328,-12.48828 -11.67578,-24.51953 -0.89453,-37.42578 -1.73047,-5.60547 1.79687,-7.69141 6.14062,-9.23047 8.87891,-2.35938 9.4336,7.625 15.00391,10.17578 3.80078,7.82422 10.5,15.61328 0.30469,23.625"
       id="path60" />
    <path
       style="fill:#ffffff;fill-opacity:1;fill-rule:nonzero;stroke:none"
       d="m 599.87891,353.4375 c 9.28515,9.30469 18.57031,18.60937 27.85546,27.91406 2.61719,4.92969 5.1836,9.89453 7.86329,14.79297 11.16796,20.41406 8.49218,30.83984 -11.16016,43.33203 -15.5,6.50781 -24.03125,-5.32812 -32.36719,-13.9414 -16.96875,-17.53125 -37.1289,-26.76954 -60.97656,-29.46094 -17.35156,-1.96094 -19.58594,-0.89063 -26.5,15.52734 -1.69922,4.03906 -5.78125,5.63281 -9.23047,7.8125 -6.45312,4.07031 -13.27344,7.78516 -16.10937,15.66406 13.08984,5.69532 11.83203,5.47657 9.32031,20.03125 -2.53125,14.67188 -12.47266,26.54297 -13.53516,41.41016 4.92969,5.21094 8.08203,10.58203 2.75391,17.50781 -6.60938,8.58203 -3.21094,14.97266 4.64844,20.48828 15.57421,10.92969 29.24218,23.82813 40.05859,39.63672 2.89062,4.22657 5.53516,8.56641 7.72656,13.20313 5.16797,10.95312 7.55469,22.11328 -3.64453,30.42969 -10.20312,7.57421 -20.92578,6.32812 -30.44922,-2.44141 -3.02344,-2.73438 -6.29687,-4.88281 -10.54687,-4.72656 -1.61328,3.0039 2.69531,4.28515 1.125,8.1914 -26.48438,-3.01953 -49.14844,-15.14453 -68.03907,-33.33593 -14.71875,-14.17188 -26.68359,-30.94532 -34.20703,-50.58204 -10.8164,-28.25 -5.15625,-52.84765 18.89844,-71.25781 17.59766,-13.46484 31.03125,-29.5625 37.91797,-50.09375 3.55859,-1.83984 4.71875,2.73438 6.69922,1.92188 6.92969,-15.86719 -6.08203,-29.81641 -2.94922,-45.26563 0.52344,-2.57031 -3.58984,-4.36328 -6.80859,-5.1875 -11.625,-2.98437 -23.28907,-3.08203 -35.02344,-1.02344 -4.96094,0.86719 -9.89063,2.76172 -14.83985,0.0117 3.9961,-15.14453 3.9961,-15.14453 63.17188,-21.55859 -5.69922,-6.28125 -14.98438,-5.99219 -19.25781,-13.67578 12.90234,-7.75391 25.78515,1.10937 38.44531,-0.10938 13.51562,5.14063 27.80469,7.94532 42.95312,16.625 -2.84765,-16.86328 -14.58203,-21.91015 -23.48437,-29.29297 8.46094,-6.53906 17.17187,-2.46484 25.72266,-0.4414 30.41406,7.1914 58.55078,19.53515 83.96875,37.89453"
       id="path62" />
    <path
       style="fill:#fdfdfd;fill-opacity:1;fill-rule:nonzero;stroke:none"
       d="m 636.89844,609.39062 c 0.63281,-4.48828 1.26562,-8.98046 2.16797,-15.35546 9.96093,7.91406 15.16796,17.67187 18.96875,27.46875 3.14062,8.08984 -3.01954,14.78125 -9.54688,19.17968 -6.67187,4.5 -14.12109,7.83203 -21.23437,11.67578 -13.96094,12.42579 -46.30469,9.87891 -65.44532,-6.79687 -12.28906,-10.70313 -21.42578,-23.49219 -25.66797,-39.45703 -2.63671,-9.91406 -5.61328,-19.75781 -7.97656,-29.72656 -3.6875,-15.54297 -10.32812,-27.52735 -24.85937,-36.75782 -20.76953,-13.19531 -20.16797,-25.26562 -1.51563,-40.95312 14.86719,-7.19141 29.87891,-5.27735 44.9336,-0.76172 18.92968,3.53125 38.09375,9.78906 55.41796,-4.92578 17.23438,-13.19922 35.17579,-23.39844 57.90625,-14.14453 2.86719,1.16797 5.82813,1.93359 7.82422,4.52343 38.45313,18.1875 54.55078,59.63282 38.89063,100.11719 -5.33203,13.78125 -11.36719,17.57813 -26.03125,15.23438 -30.03516,-4.80078 -56.5625,-17.57813 -80,-36.8086 -15.45703,-12.68359 -30.29297,-26.13672 -45.96875,-38.52734 -13.55469,-10.71484 -27.6211,-10.87109 -40.59766,-1.875 0.4336,0.78125 0.875,2.25781 1.30078,2.25391 18.41407,-0.19141 28.42188,10.4414 36.03907,25.99218 8.78515,17.9375 16.28906,36.4961 26.52734,53.77344 5.91406,9.98438 13.27344,16.62109 24.61719,18.72656 8.11718,0.3711 15.80468,3.80469 23.74218,4.12891 6.50782,0.26172 17.49219,2.63281 12.58985,-11.20703 -1.10156,-1.78125 -1.97266,-3.64453 -2.08203,-5.77735"
       id="path64" />
    <path
       style="fill:#000000;fill-opacity:1;fill-rule:nonzero;stroke:none"
       d="m 667.87109,483.35547 c -23.34765,-6.78125 -44.86718,-4.27735 -63.5625,12.57812 -1.46093,0.80469 -2.92187,0.80078 -4.3789,0.004 -4.3125,-5.72656 -1.27735,-11.85938 -0.82813,-17.79688 1.1875,-15.625 -2.43359,-29.40234 -14.26172,-40.41015 -7.11718,-6.6211 -14.89453,-11.03125 -24.89843,-7.88672 -10.01954,3.14844 -13.95313,11.24219 -15.85157,20.78125 -0.69922,3.51562 -1.32812,7.01953 -0.75,12.08203 12.26172,-4.94922 24.77344,-8.79297 33.00782,5.33203 6.88671,11.80469 6.33984,23.40235 -3.45704,33.79688 -8.44531,1.67968 -16.87109,1.95703 -25.27734,-0.17578 -15.09766,-2.875 -30.19531,-7.78125 -45.29297,-0.008 -10.96094,5.125 -20.8164,0.45703 -30.7539,-3.48828 -4.13282,-2.67969 -5.9961,-7.69531 -2.27735,-10.10547 11.12891,-7.21484 10.48438,-19.1875 13.87891,-29.57812 1.73437,-5.3086 3.57031,-10.58594 5.60156,-16.58985 -5.29297,-3.09375 -11.78516,4.4375 -17.21094,-2.19531 4.87891,-15.12109 18.11719,-21.73828 30.96875,-28.41015 1.45313,-5.55079 -6.58203,-4.79297 -5.48047,-11.04297 8.11329,-8.51172 19.54297,-9.48047 31.26563,-8.65625 27.16016,1.91015 50.05469,12.97265 68.48047,33.16797 7.47265,8.1914 16.21094,14.0039 27.64453,14.72265 6.65625,-0.89453 9.65234,2.59375 11.00391,8.70313 1.03906,4.69922 3.89453,6.53906 8.48437,3.68359 23.10156,-2.875 30.94141,6.29297 24.05078,28.11328 -0.0351,1.12891 -0.0703,2.25391 -0.10547,3.37891"
       id="path66" />
    <path
       style="fill:#000000;fill-opacity:1;fill-rule:nonzero;stroke:none"
       d="m 471.56641,498.16406 c 10.47656,-0.84765 20.57031,1.72266 30.7539,3.48828 -16.32422,14.77735 -13.29297,30.49219 9.85547,39.62891 9.375,3.70312 12.38672,9.73047 14.69922,17.11719 5.33203,17.01953 9.16406,34.51562 14.70703,51.45312 7.07813,21.625 21.33594,36.97266 43.33984,44.00391 14.17188,4.53125 28.26954,0.45312 42.33594,-1.4961 6.45313,4.84375 13.6836,9.41797 6.65235,19.00782 -2.3125,0 -5.82422,-3.72657 -6.13672,2.29297 -0.3086,5.91796 -0.14844,12.16015 -5.90625,16.13671 -2.91797,1.19922 -3.96875,-0.69531 -4.82813,-2.91015 -0.59765,-2.46094 0.13672,-5.1211 -1.36328,-8.08203 -39.60156,12.25 -70.42578,-8.03516 -100.26562,-29.35157 -10.91797,-7.80078 -22.25,-15.43359 -32.10547,-24.78906 4.36718,-2.98047 9.44922,-4.97265 12.82812,-9.3164 4.98047,1.07031 9.91406,2.53125 14.95313,3.13671 15.26953,1.84766 23.48047,-8.08593 18.3125,-22.61718 -7.26953,-20.44141 -21.11719,-36.11719 -37.59766,-49.64453 -3.55859,-2.92188 -7.375,-5.53516 -11.11328,-8.23438 -15.98438,-11.53906 -16.24219,-13.46484 -3.90234,-28.61719 0.90234,-1.10547 1.54296,-2.42187 2.1289,-3.35547 -0.9375,-4.48437 -6.40234,-3.93359 -7.34765,-7.85156"
       id="path68" />
    <path
       style="fill:#ffffff;fill-opacity:1;fill-rule:nonzero;stroke:none"
       d="m 595.54297,580.09766 c 3.03125,-4.00782 -3.59375,-5.85547 -1.44922,-9.95313 10.48047,5.38672 15.15234,16.12891 22.50391,24.21875 4,4.39453 1.65234,8.60156 -2.8711,11.46875 -9.25,5.86719 -17.65234,3.43359 -25.23047,-3.19922 -11.50781,-10.07031 -17.26562,-23.83984 -24.21093,-38.41797 14.4375,-1.09375 21.30859,10.65625 31.25781,15.88282"
       id="path70" />
    <path
       style="fill:#f8f8f8;fill-opacity:1;fill-rule:nonzero;stroke:none"
       d="m 667.97656,479.97656 c -2.28906,-2.60937 -1.50781,-5.22656 -0.99609,-8.44531 2.04687,-12.94531 -3.3125,-17.83203 -16.51563,-15 -4.78125,1.02734 -4.05859,-3.61328 -6.53906,-4.66797 0.15234,-6.10547 -1.64062,-12.32422 0.76953,-18.29687 2.99219,-7.42188 8.64063,-9.36329 14.25391,-4.09766 12.0625,11.32031 19.10937,25.0625 18.71875,42.21484 -0.15625,7.0586 -3.63281,8.85547 -9.69141,8.29297"
       id="path72" />
    <path
       style="fill:#f5f5f5;fill-opacity:1;fill-rule:nonzero;stroke:none"
       d="m 689.58984,732.96875 c -2.04687,3.07422 -4.09375,6.15234 -6.14062,9.23047 -2.40625,0.76172 -4.8125,1.52344 -8.10156,2.5625 -2.60547,-5.98438 -5.17188,-11.87891 -7.73829,-17.77735 -6.94921,-4.80078 -6.59765,-12.66015 -8.1914,-19.69921 -2.07422,-6.89844 -5.24219,-13.26563 -9.20703,-19.20704 10.10937,0.97657 33.2539,27.32422 39.3789,44.89063"
       id="path74" />
    <path
       style="fill:#ffffff;fill-opacity:1;fill-rule:nonzero;stroke:none"
       d="m 636.89844,609.39062 c 1.17578,1.19922 2.35547,2.39844 3.53125,3.59766 3.3789,10.20703 -4.5,13.51172 -11.01172,13.83984 -8.03906,0.41016 -17.35547,0.27344 -22.91016,-8.17578 9.11328,-6.4414 18.03906,-13.51172 30.39063,-9.26172"
       id="path76" />
    <path
       style="fill:#ffffff;fill-opacity:1;fill-rule:nonzero;stroke:none"
       d="m 713.80859,516.49609 c -9.93359,-13.6289 -17.38672,-25.78906 -16.80468,-41.21484 10.96484,4.14062 17.59765,19.33984 16.80468,41.21484"
       id="path78" />
    <path
       style="fill:#000000;fill-opacity:1;fill-rule:nonzero;stroke:none"
       d="m 606.50781,618.65234 c 5.80469,3.38672 12.30078,4.77344 18.79297,4.95703 7.22656,0.19922 14.59766,-0.65625 15.12891,-10.625 8.05078,8.32032 7.88672,12.05469 -1.78125,15.75391 -13.05078,4.99219 -24.86328,0.53125 -36,-6.49219 1.28906,-1.19922 2.57031,-2.39843 3.85937,-3.59375"
       id="path80" />
    <path
       style="fill:#ffffff;fill-opacity:1;fill-rule:nonzero;stroke:none"
       d="m 651.98047,599.14062 c 9.5,-0.3789 13.98437,2.70313 18.48828,5.69922 -0.28125,5.02344 -3.37891,7.39453 -7.52344,9.52735 -4.4375,-3.52344 -6.17187,-8.75391 -10.96484,-15.22657"
       id="path82" />
    <path
       style="fill:#000000;fill-opacity:1;fill-rule:nonzero;stroke:none"
       d="m 659.41797,707.28125 c 5.10547,5.57422 6.53125,12.69141 8.1875,19.70312 -2.59766,1.29297 -2.24219,3.90235 -2.71875,6.14454 -5.01172,-6.44922 -6.38281,-14.36329 -8.75,-21.875 1.09375,-1.32422 2.1875,-2.64844 3.28125,-3.97266"
       id="path84" />
    <path
       style="fill:#fafafa;fill-opacity:1;fill-rule:nonzero;stroke:none"
       d="m 483.30469,624.66406 c 10.5664,2.57422 19.03515,7.91797 26.83984,15.92578 18.37891,18.86328 42.26953,28.60938 66.88281,36.12891 14.53907,4.44141 29.30469,5.625 40.3711,-8.70313 6.0039,6.35157 4.86718,12.48047 1.39843,18.75391 -15.61718,15.21484 -33.13281,6.92969 -49.71484,3.21094 -15.82031,-3.55078 -30.24219,-11.41016 -44.57812,-18.97656 -11.78907,-9.04297 -27.15625,-13.54688 -35.00782,-27.625 -4.98437,-5.77735 -12.7539,-9.17579 -15.50781,-16.92188 3.32422,-2.62891 6.49609,-0.99609 9.31641,-1.79297"
       id="path86" />
    <path
       style="fill:#000000;fill-opacity:1;fill-rule:nonzero;stroke:none"
       d="m 489.49609,643.37891 c 11.54688,8.12109 23.09375,16.23828 34.64063,24.35937 -0.52344,2.01563 -1.84375,3.12891 -3.8711,3.44922 -12.625,-6.56641 -25.27343,-13.10938 -34.86328,-24.09375 1.36328,-1.23828 2.73047,-2.47656 4.09375,-3.71484"
       id="path88" />
    <path
       style="fill:#000000;fill-opacity:1;fill-rule:nonzero;stroke:none"
       d="m 520.26562,671.1875 c 1.29297,-1.14844 2.58204,-2.30078 3.8711,-3.44922 20.10156,9.44922 39.78125,19.76953 62.25,23.1875 11.49219,1.75 22.08203,0.99609 32.41015,-4.15625 1.02344,1.00781 2.04688,2.01953 3.07032,3.02734 -14.57422,13.2461 -31.92578,8.46094 -47.64063,5.17188 -19.26172,-4.03125 -37.7539,-11.78906 -53.96094,-23.78125"
       id="path90" />
    <path
       style="fill:#000000;fill-opacity:1;fill-rule:nonzero;stroke:none"
       d="m 547.61328,501.66016 c 8.27344,-2.96875 18.10156,3.8164 25.57813,-4.11329 8.53515,-3.83203 17.33593,-4.71484 26.42578,-2.39843 1.5625,0.26172 3.125,0.52343 4.6914,0.78515 -17.42968,16.53516 -37.20703,9.70703 -56.69531,5.72657"
       id="path92" />
    <path
       style="fill:#000000;fill-opacity:1;fill-rule:nonzero;stroke:none"
       d="m 626.82031,509.85937 c -0.71484,-8.92968 -7.25781,-18.57031 8.55078,-17.64062 2.63282,7.57812 -2.80859,11.3125 -8.55078,17.64062"
       id="path94" />
    <path
       style="fill:#fafafa;fill-opacity:1;fill-rule:nonzero;stroke:none"
       d="m 599.61719,495.14844 c -8.52344,3.96484 -17.21875,5.98828 -26.42188,2.39843 4,-6.99218 4.98828,-14.14453 2.89844,-22.17578 -1.88672,-7.26953 -5.79297,-11.98828 -12.84375,-13.67578 -7.28906,-1.74219 -13.09766,0.4961 -16.21094,7.90625 -0.82031,1.94922 -2.18359,3.41406 -4.44531,3.71485 -6.77344,-13.05469 -3.82422,-34.01563 6.31641,-42.9375 8.1289,-7.15235 17.43359,-7.9961 27.21093,-3.8711 18.16407,7.67188 25.8086,22.36719 26.90235,41.2461 0.53906,9.32031 -1.125,18.40625 -3.40625,27.39453"
       id="path96" />
  </g>
</svg>
