<svg xmlns="http://www.w3.org/2000/svg" viewBox="0 -0.5 392 392" shape-rendering="crispEdges">
<metadata>Made with Pixels to Svg https://codepen.io/shshaw/pen/XbxvNj</metadata>
<path stroke="#ffffff" d="M0 0h392M0 1h392M0 2h392M0 3h392M0 4h392M0 5h392M0 6h392M0 7h392M0 8h392M0 9h392M0 10h392M0 11h392M0 12h392M0 13h392M0 14h392M0 15h392M0 16h392M0 17h392M0 18h392M0 19h392M0 20h392M0 21h392M0 22h392M0 23h392M0 24h392M0 25h392M0 26h392M0 27h392M0 28h392M0 29h392M0 30h392M0 31h392M0 32h32M88 32h16M112 32h8M128 32h16M160 32h8M184 32h24M216 32h8M232 32h24M264 32h8M296 32h8M360 32h32M0 33h32M88 33h16M112 33h8M128 33h16M160 33h8M184 33h24M216 33h8M232 33h24M264 33h8M296 33h8M360 33h32M0 34h32M88 34h16M112 34h8M128 34h16M160 34h8M184 34h24M216 34h8M232 34h24M264 34h8M296 34h8M360 34h32M0 35h32M88 35h16M112 35h8M128 35h16M160 35h8M184 35h24M216 35h8M232 35h24M264 35h8M296 35h8M360 35h32M0 36h32M88 36h16M112 36h8M128 36h16M160 36h8M184 36h24M216 36h8M232 36h24M264 36h8M296 36h8M360 36h32M0 37h32M88 37h16M112 37h8M128 37h16M160 37h8M184 37h24M216 37h8M232 37h24M264 37h8M296 37h8M360 37h32M0 38h32M88 38h16M112 38h8M128 38h16M160 38h8M184 38h24M216 38h8M232 38h24M264 38h8M296 38h8M360 38h32M0 39h32M88 39h16M112 39h8M128 39h16M160 39h8M184 39h24M216 39h8M232 39h24M264 39h8M296 39h8M360 39h32M0 40h32M40 40h40M88 40h8M104 40h8M144 40h8M160 40h8M176 40h8M192 40h16M232 40h72M312 40h40M360 40h32M0 41h32M40 41h40M88 41h8M104 41h8M144 41h8M160 41h8M176 41h8M192 41h16M232 41h72M312 41h40M360 41h32M0 42h32M40 42h40M88 42h8M104 42h8M144 42h8M160 42h8M176 42h8M192 42h16M232 42h72M312 42h40M360 42h32M0 43h32M40 43h40M88 43h8M104 43h8M144 43h8M160 43h8M176 43h8M192 43h16M232 43h72M312 43h40M360 43h32M0 44h32M40 44h40M88 44h8M104 44h8M144 44h8M160 44h8M176 44h8M192 44h16M232 44h72M312 44h40M360 44h32M0 45h32M40 45h40M88 45h8M104 45h8M144 45h8M160 45h8M176 45h8M192 45h16M232 45h72M312 45h40M360 45h32M0 46h32M40 46h40M88 46h8M104 46h8M144 46h8M160 46h8M176 46h8M192 46h16M232 46h72M312 46h40M360 46h32M0 47h32M40 47h40M88 47h8M104 47h8M144 47h8M160 47h8M176 47h8M192 47h16M232 47h72M312 47h40M360 47h32M0 48h32M40 48h8M72 48h8M88 48h24M128 48h32M176 48h40M288 48h16M312 48h8M344 48h8M360 48h32M0 49h32M40 49h8M72 49h8M88 49h24M128 49h32M176 49h40M288 49h16M312 49h8M344 49h8M360 49h32M0 50h32M40 50h8M72 50h8M88 50h24M128 50h32M176 50h40M288 50h16M312 50h8M344 50h8M360 50h32M0 51h32M40 51h8M72 51h8M88 51h24M128 51h32M176 51h40M288 51h16M312 51h8M344 51h8M360 51h32M0 52h32M40 52h8M72 52h8M88 52h24M128 52h32M176 52h40M288 52h16M312 52h8M344 52h8M360 52h32M0 53h32M40 53h8M72 53h8M88 53h24M128 53h32M176 53h40M288 53h16M312 53h8M344 53h8M360 53h32M0 54h32M40 54h8M72 54h8M88 54h24M128 54h32M176 54h40M288 54h16M312 54h8M344 54h8M360 54h32M0 55h32M40 55h8M72 55h8M88 55h24M128 55h32M176 55h40M288 55h16M312 55h8M344 55h8M360 55h32M0 56h32M40 56h8M72 56h8M88 56h8M104 56h24M208 56h8M232 56h8M248 56h16M272 56h32M312 56h8M344 56h8M360 56h32M0 57h32M40 57h8M72 57h8M88 57h8M104 57h24M208 57h8M232 57h8M248 57h16M272 57h32M312 57h8M344 57h8M360 57h32M0 58h32M40 58h8M72 58h8M88 58h8M104 58h24M208 58h8M232 58h8M248 58h16M272 58h32M312 58h8M344 58h8M360 58h32M0 59h32M40 59h8M72 59h8M88 59h8M104 59h24M208 59h8M232 59h8M248 59h16M272 59h32M312 59h8M344 59h8M360 59h32M0 60h32M40 60h8M72 60h8M88 60h8M104 60h24M208 60h8M232 60h8M248 60h16M272 60h32M312 60h8M344 60h8M360 60h32M0 61h32M40 61h8M72 61h8M88 61h8M104 61h24M208 61h8M232 61h8M248 61h16M272 61h32M312 61h8M344 61h8M360 61h32M0 62h32M40 62h8M72 62h8M88 62h8M104 62h24M208 62h8M232 62h8M248 62h16M272 62h32M312 62h8M344 62h8M360 62h32M0 63h32M40 63h8M72 63h8M88 63h8M104 63h24M208 63h8M232 63h8M248 63h16M272 63h32M312 63h8M344 63h8M360 63h32M0 64h32M40 64h8M72 64h8M88 64h24M136 64h16M168 64h32M216 64h8M232 64h16M256 64h24M288 64h16M312 64h8M344 64h8M360 64h32M0 65h32M40 65h8M72 65h8M88 65h24M136 65h16M168 65h32M216 65h8M232 65h16M256 65h24M288 65h16M312 65h8M344 65h8M360 65h32M0 66h32M40 66h8M72 66h8M88 66h24M136 66h16M168 66h32M216 66h8M232 66h16M256 66h24M288 66h16M312 66h8M344 66h8M360 66h32M0 67h32M40 67h8M72 67h8M88 67h24M136 67h16M168 67h32M216 67h8M232 67h16M256 67h24M288 67h16M312 67h8M344 67h8M360 67h32M0 68h32M40 68h8M72 68h8M88 68h24M136 68h16M168 68h32M216 68h8M232 68h16M256 68h24M288 68h16M312 68h8M344 68h8M360 68h32M0 69h32M40 69h8M72 69h8M88 69h24M136 69h16M168 69h32M216 69h8M232 69h16M256 69h24M288 69h16M312 69h8M344 69h8M360 69h32M0 70h32M40 70h8M72 70h8M88 70h24M136 70h16M168 70h32M216 70h8M232 70h16M256 70h24M288 70h16M312 70h8M344 70h8M360 70h32M0 71h32M40 71h8M72 71h8M88 71h24M136 71h16M168 71h32M216 71h8M232 71h16M256 71h24M288 71h16M312 71h8M344 71h8M360 71h32M0 72h32M40 72h40M88 72h8M128 72h88M232 72h16M256 72h8M272 72h8M288 72h16M312 72h40M360 72h32M0 73h32M40 73h40M88 73h8M128 73h88M232 73h16M256 73h8M272 73h8M288 73h16M312 73h40M360 73h32M0 74h32M40 74h40M88 74h8M128 74h88M232 74h16M256 74h8M272 74h8M288 74h16M312 74h40M360 74h32M0 75h32M40 75h40M88 75h8M128 75h88M232 75h16M256 75h8M272 75h8M288 75h16M312 75h40M360 75h32M0 76h32M40 76h40M88 76h8M128 76h88M232 76h16M256 76h8M272 76h8M288 76h16M312 76h40M360 76h32M0 77h32M40 77h40M88 77h8M128 77h88M232 77h16M256 77h8M272 77h8M288 77h16M312 77h40M360 77h32M0 78h32M40 78h40M88 78h8M128 78h88M232 78h16M256 78h8M272 78h8M288 78h16M312 78h40M360 78h32M0 79h32M40 79h40M88 79h8M128 79h88M232 79h16M256 79h8M272 79h8M288 79h16M312 79h40M360 79h32M0 80h32M88 80h8M104 80h8M120 80h8M136 80h8M152 80h8M168 80h8M184 80h8M200 80h8M216 80h8M232 80h8M248 80h8M264 80h8M280 80h8M296 80h8M360 80h32M0 81h32M88 81h8M104 81h8M120 81h8M136 81h8M152 81h8M168 81h8M184 81h8M200 81h8M216 81h8M232 81h8M248 81h8M264 81h8M280 81h8M296 81h8M360 81h32M0 82h32M88 82h8M104 82h8M120 82h8M136 82h8M152 82h8M168 82h8M184 82h8M200 82h8M216 82h8M232 82h8M248 82h8M264 82h8M280 82h8M296 82h8M360 82h32M0 83h32M88 83h8M104 83h8M120 83h8M136 83h8M152 83h8M168 83h8M184 83h8M200 83h8M216 83h8M232 83h8M248 83h8M264 83h8M280 83h8M296 83h8M360 83h32M0 84h32M88 84h8M104 84h8M120 84h8M136 84h8M152 84h8M168 84h8M184 84h8M200 84h8M216 84h8M232 84h8M248 84h8M264 84h8M280 84h8M296 84h8M360 84h32M0 85h32M88 85h8M104 85h8M120 85h8M136 85h8M152 85h8M168 85h8M184 85h8M200 85h8M216 85h8M232 85h8M248 85h8M264 85h8M280 85h8M296 85h8M360 85h32M0 86h32M88 86h8M104 86h8M120 86h8M136 86h8M152 86h8M168 86h8M184 86h8M200 86h8M216 86h8M232 86h8M248 86h8M264 86h8M280 86h8M296 86h8M360 86h32M0 87h32M88 87h8M104 87h8M120 87h8M136 87h8M152 87h8M168 87h8M184 87h8M200 87h8M216 87h8M232 87h8M248 87h8M264 87h8M280 87h8M296 87h8M360 87h32M0 88h104M136 88h96M248 88h8M264 88h16M288 88h104M0 89h104M136 89h96M248 89h8M264 89h16M288 89h104M0 90h104M136 90h96M248 90h8M264 90h16M288 90h104M0 91h104M136 91h96M248 91h8M264 91h16M288 91h104M0 92h104M136 92h96M248 92h8M264 92h16M288 92h104M0 93h104M136 93h96M248 93h8M264 93h16M288 93h104M0 94h104M136 94h96M248 94h8M264 94h16M288 94h104M0 95h104M136 95h96M248 95h8M264 95h16M288 95h104M0 96h32M72 96h8M104 96h24M144 96h32M184 96h48M256 96h8M280 96h8M304 96h8M320 96h8M336 96h8M352 96h40M0 97h32M72 97h8M104 97h24M144 97h32M184 97h48M256 97h8M280 97h8M304 97h8M320 97h8M336 97h8M352 97h40M0 98h32M72 98h8M104 98h24M144 98h32M184 98h48M256 98h8M280 98h8M304 98h8M320 98h8M336 98h8M352 98h40M0 99h32M72 99h8M104 99h24M144 99h32M184 99h48M256 99h8M280 99h8M304 99h8M320 99h8M336 99h8M352 99h40M0 100h32M72 100h8M104 100h24M144 100h32M184 100h48M256 100h8M280 100h8M304 100h8M320 100h8M336 100h8M352 100h40M0 101h32M72 101h8M104 101h24M144 101h32M184 101h48M256 101h8M280 101h8M304 101h8M320 101h8M336 101h8M352 101h40M0 102h32M72 102h8M104 102h24M144 102h32M184 102h48M256 102h8M280 102h8M304 102h8M320 102h8M336 102h8M352 102h40M0 103h32M72 103h8M104 103h24M144 103h32M184 103h48M256 103h8M280 103h8M304 103h8M320 103h8M336 103h8M352 103h40M0 104h56M64 104h8M80 104h8M104 104h8M144 104h24M208 104h32M264 104h8M336 104h56M0 105h56M64 105h8M80 105h8M104 105h8M144 105h24M208 105h32M264 105h8M336 105h56M0 106h56M64 106h8M80 106h8M104 106h8M144 106h24M208 106h32M264 106h8M336 106h56M0 107h56M64 107h8M80 107h8M104 107h8M144 107h24M208 107h32M264 107h8M336 107h56M0 108h56M64 108h8M80 108h8M104 108h8M144 108h24M208 108h32M264 108h8M336 108h56M0 109h56M64 109h8M80 109h8M104 109h8M144 109h24M208 109h32M264 109h8M336 109h56M0 110h56M64 110h8M80 110h8M104 110h8M144 110h24M208 110h32M264 110h8M336 110h56M0 111h56M64 111h8M80 111h8M104 111h8M144 111h24M208 111h32M264 111h8M336 111h56M0 112h48M56 112h24M104 112h8M136 112h24M216 112h24M280 112h8M304 112h16M344 112h48M0 113h48M56 113h24M104 113h8M136 113h24M216 113h24M280 113h8M304 113h16M344 113h48M0 114h48M56 114h24M104 114h8M136 114h24M216 114h24M280 114h8M304 114h16M344 114h48M0 115h48M56 115h24M104 115h8M136 115h24M216 115h24M280 115h8M304 115h16M344 115h48M0 116h48M56 116h24M104 116h8M136 116h24M216 116h24M280 116h8M304 116h16M344 116h48M0 117h48M56 117h24M104 117h8M136 117h24M216 117h24M280 117h8M304 117h16M344 117h48M0 118h48M56 118h24M104 118h8M136 118h24M216 118h24M280 118h8M304 118h16M344 118h48M0 119h48M56 119h24M104 119h8M136 119h24M216 119h24M280 119h8M304 119h16M344 119h48M0 120h32M40 120h72M128 120h24M192 120h24M240 120h16M304 120h8M328 120h24M360 120h32M0 121h32M40 121h72M128 121h24M192 121h24M240 121h16M304 121h8M328 121h24M360 121h32M0 122h32M40 122h72M128 122h24M192 122h24M240 122h16M304 122h8M328 122h24M360 122h32M0 123h32M40 123h72M128 123h24M192 123h24M240 123h16M304 123h8M328 123h24M360 123h32M0 124h32M40 124h72M128 124h24M192 124h24M240 124h16M304 124h8M328 124h24M360 124h32M0 125h32M40 125h72M128 125h24M192 125h24M240 125h16M304 125h8M328 125h24M360 125h32M0 126h32M40 126h72M128 126h24M192 126h24M240 126h16M304 126h8M328 126h24M360 126h32M0 127h32M40 127h72M128 127h24M192 127h24M240 127h16M304 127h8M328 127h24M360 127h32M0 128h32M40 128h32M96 128h8M120 128h8M136 128h24M184 128h32M248 128h8M272 128h8M288 128h8M304 128h32M344 128h48M0 129h32M40 129h32M96 129h8M120 129h8M136 129h24M184 129h32M248 129h8M272 129h8M288 129h8M304 129h32M344 129h48M0 130h32M40 130h32M96 130h8M120 130h8M136 130h24M184 130h32M248 130h8M272 130h8M288 130h8M304 130h32M344 130h48M0 131h32M40 131h32M96 131h8M120 131h8M136 131h24M184 131h32M248 131h8M272 131h8M288 131h8M304 131h32M344 131h48M0 132h32M40 132h32M96 132h8M120 132h8M136 132h24M184 132h32M248 132h8M272 132h8M288 132h8M304 132h32M344 132h48M0 133h32M40 133h32M96 133h8M120 133h8M136 133h24M184 133h32M248 133h8M272 133h8M288 133h8M304 133h32M344 133h48M0 134h32M40 134h32M96 134h8M120 134h8M136 134h24M184 134h32M248 134h8M272 134h8M288 134h8M304 134h32M344 134h48M0 135h32M40 135h32M96 135h8M120 135h8M136 135h24M184 135h32M248 135h8M272 135h8M288 135h8M304 135h32M344 135h48M0 136h40M48 136h40M112 136h16M136 136h24M208 136h16M280 136h8M304 136h8M344 136h8M360 136h32M0 137h40M48 137h40M112 137h16M136 137h24M208 137h16M280 137h8M304 137h8M344 137h8M360 137h32M0 138h40M48 138h40M112 138h16M136 138h24M208 138h16M280 138h8M304 138h8M344 138h8M360 138h32M0 139h40M48 139h40M112 139h16M136 139h24M208 139h16M280 139h8M304 139h8M344 139h8M360 139h32M0 140h40M48 140h40M112 140h16M136 140h24M208 140h16M280 140h8M304 140h8M344 140h8M360 140h32M0 141h40M48 141h40M112 141h16M136 141h24M208 141h16M280 141h8M304 141h8M344 141h8M360 141h32M0 142h40M48 142h40M112 142h16M136 142h24M208 142h16M280 142h8M304 142h8M344 142h8M360 142h32M0 143h40M48 143h40M112 143h16M136 143h24M208 143h16M280 143h8M304 143h8M344 143h8M360 143h32M0 144h32M40 144h16M64 144h8M88 144h8M112 144h16M136 144h16M208 144h8M224 144h32M272 144h32M312 144h80M0 145h32M40 145h16M64 145h8M88 145h8M112 145h16M136 145h16M208 145h8M224 145h32M272 145h32M312 145h80M0 146h32M40 146h16M64 146h8M88 146h8M112 146h16M136 146h16M208 146h8M224 146h32M272 146h32M312 146h80M0 147h32M40 147h16M64 147h8M88 147h8M112 147h16M136 147h16M208 147h8M224 147h32M272 147h32M312 147h80M0 148h32M40 148h16M64 148h8M88 148h8M112 148h16M136 148h16M208 148h8M224 148h32M272 148h32M312 148h80M0 149h32M40 149h16M64 149h8M88 149h8M112 149h16M136 149h16M208 149h8M224 149h32M272 149h32M312 149h80M0 150h32M40 150h16M64 150h8M88 150h8M112 150h16M136 150h16M208 150h8M224 150h32M272 150h32M312 150h80M0 151h32M40 151h16M64 151h8M88 151h8M112 151h16M136 151h16M208 151h8M224 151h32M272 151h32M312 151h80M0 152h40M56 152h32M104 152h48M168 152h24M208 152h72M288 152h16M320 152h16M344 152h8M360 152h32M0 153h40M56 153h32M104 153h48M168 153h24M208 153h72M288 153h16M320 153h16M344 153h8M360 153h32M0 154h40M56 154h32M104 154h48M168 154h24M208 154h72M288 154h16M320 154h16M344 154h8M360 154h32M0 155h40M56 155h32M104 155h48M168 155h24M208 155h72M288 155h16M320 155h16M344 155h8M360 155h32M0 156h40M56 156h32M104 156h48M168 156h24M208 156h72M288 156h16M320 156h16M344 156h8M360 156h32M0 157h40M56 157h32M104 157h48M168 157h24M208 157h72M288 157h16M320 157h16M344 157h8M360 157h32M0 158h40M56 158h32M104 158h48M168 158h24M208 158h72M288 158h16M320 158h16M344 158h8M360 158h32M0 159h40M56 159h32M104 159h48M168 159h24M208 159h72M288 159h16M320 159h16M344 159h8M360 159h32M0 160h32M40 160h24M72 160h8M104 160h48M160 160h16M192 160h72M272 160h8M288 160h48M344 160h48M0 161h32M40 161h24M72 161h8M104 161h48M160 161h16M192 161h72M272 161h8M288 161h48M344 161h48M0 162h32M40 162h24M72 162h8M104 162h48M160 162h16M192 162h72M272 162h8M288 162h48M344 162h48M0 163h32M40 163h24M72 163h8M104 163h48M160 163h16M192 163h72M272 163h8M288 163h48M344 163h48M0 164h32M40 164h24M72 164h8M104 164h48M160 164h16M192 164h72M272 164h8M288 164h48M344 164h48M0 165h32M40 165h24M72 165h8M104 165h48M160 165h16M192 165h72M272 165h8M288 165h48M344 165h48M0 166h32M40 166h24M72 166h8M104 166h48M160 166h16M192 166h72M272 166h8M288 166h48M344 166h48M0 167h32M40 167h24M72 167h8M104 167h48M160 167h16M192 167h72M272 167h8M288 167h48M344 167h48M0 168h32M40 168h16M72 168h24M112 168h40M168 168h16M200 168h72M352 168h40M0 169h32M40 169h16M72 169h24M112 169h40M168 169h16M200 169h72M352 169h40M0 170h32M40 170h16M72 170h24M112 170h40M168 170h16M200 170h72M352 170h40M0 171h32M40 171h16M72 171h24M112 171h40M168 171h16M200 171h72M352 171h40M0 172h32M40 172h16M72 172h24M112 172h40M168 172h16M200 172h72M352 172h40M0 173h32M40 173h16M72 173h24M112 173h40M168 173h16M200 173h72M352 173h40M0 174h32M40 174h16M72 174h24M112 174h40M168 174h16M200 174h72M352 174h40M0 175h32M40 175h16M72 175h24M112 175h40M168 175h16M200 175h72M352 175h40M0 176h56M64 176h16M112 176h56M176 176h16M208 176h104M320 176h16M344 176h48M0 177h56M64 177h16M112 177h56M176 177h16M208 177h104M320 177h16M344 177h48M0 178h56M64 178h16M112 178h56M176 178h16M208 178h104M320 178h16M344 178h48M0 179h56M64 179h16M112 179h56M176 179h16M208 179h104M320 179h16M344 179h48M0 180h56M64 180h16M112 180h56M176 180h16M208 180h104M320 180h16M344 180h48M0 181h56M64 181h16M112 181h56M176 181h16M208 181h104M320 181h16M344 181h48M0 182h56M64 182h16M112 182h56M176 182h16M208 182h104M320 182h16M344 182h48M0 183h56M64 183h16M112 183h56M176 183h16M208 183h104M320 183h16M344 183h48M0 184h48M56 184h32M96 184h8M120 184h56M184 184h16M224 184h48M296 184h16M336 184h8M352 184h40M0 185h48M56 185h32M96 185h8M120 185h56M184 185h16M224 185h48M296 185h16M336 185h8M352 185h40M0 186h48M56 186h32M96 186h8M120 186h56M184 186h16M224 186h48M296 186h16M336 186h8M352 186h40M0 187h48M56 187h32M96 187h8M120 187h56M184 187h16M224 187h48M296 187h16M336 187h8M352 187h40M0 188h48M56 188h32M96 188h8M120 188h56M184 188h16M224 188h48M296 188h16M336 188h8M352 188h40M0 189h48M56 189h32M96 189h8M120 189h56M184 189h16M224 189h48M296 189h16M336 189h8M352 189h40M0 190h48M56 190h32M96 190h8M120 190h56M184 190h16M224 190h48M296 190h16M336 190h8M352 190h40M0 191h48M56 191h32M96 191h8M120 191h56M184 191h16M224 191h48M296 191h16M336 191h8M352 191h40M0 192h48M64 192h16M120 192h56M184 192h40M232 192h40M288 192h24M320 192h16M352 192h40M0 193h48M64 193h16M120 193h56M184 193h40M232 193h40M288 193h24M320 193h16M352 193h40M0 194h48M64 194h16M120 194h56M184 194h40M232 194h40M288 194h24M320 194h16M352 194h40M0 195h48M64 195h16M120 195h56M184 195h40M232 195h40M288 195h24M320 195h16M352 195h40M0 196h48M64 196h16M120 196h56M184 196h40M232 196h40M288 196h24M320 196h16M352 196h40M0 197h48M64 197h16M120 197h56M184 197h40M232 197h40M288 197h24M320 197h16M352 197h40M0 198h48M64 198h16M120 198h56M184 198h40M232 198h40M288 198h24M320 198h16M352 198h40M0 199h48M64 199h16M120 199h56M184 199h40M232 199h40M288 199h24M320 199h16M352 199h40M0 200h32M48 200h8M64 200h40M136 200h88M248 200h24M280 200h24M312 200h8M344 200h8M360 200h32M0 201h32M48 201h8M64 201h40M136 201h88M248 201h24M280 201h24M312 201h8M344 201h8M360 201h32M0 202h32M48 202h8M64 202h40M136 202h88M248 202h24M280 202h24M312 202h8M344 202h8M360 202h32M0 203h32M48 203h8M64 203h40M136 203h88M248 203h24M280 203h24M312 203h8M344 203h8M360 203h32M0 204h32M48 204h8M64 204h40M136 204h88M248 204h24M280 204h24M312 204h8M344 204h8M360 204h32M0 205h32M48 205h8M64 205h40M136 205h88M248 205h24M280 205h24M312 205h8M344 205h8M360 205h32M0 206h32M48 206h8M64 206h40M136 206h88M248 206h24M280 206h24M312 206h8M344 206h8M360 206h32M0 207h32M48 207h8M64 207h40M136 207h88M248 207h24M280 207h24M312 207h8M344 207h8M360 207h32M0 208h40M56 208h8M96 208h8M120 208h64M192 208h16M224 208h24M280 208h24M328 208h8M344 208h48M0 209h40M56 209h8M96 209h8M120 209h64M192 209h16M224 209h24M280 209h24M328 209h8M344 209h48M0 210h40M56 210h8M96 210h8M120 210h64M192 210h16M224 210h24M280 210h24M328 210h8M344 210h48M0 211h40M56 211h8M96 211h8M120 211h64M192 211h16M224 211h24M280 211h24M328 211h8M344 211h48M0 212h40M56 212h8M96 212h8M120 212h64M192 212h16M224 212h24M280 212h24M328 212h8M344 212h48M0 213h40M56 213h8M96 213h8M120 213h64M192 213h16M224 213h24M280 213h24M328 213h8M344 213h48M0 214h40M56 214h8M96 214h8M120 214h64M192 214h16M224 214h24M280 214h24M328 214h8M344 214h48M0 215h40M56 215h8M96 215h8M120 215h64M192 215h16M224 215h24M280 215h24M328 215h8M344 215h48M0 216h64M72 216h24M112 216h40M192 216h56M264 216h16M320 216h32M360 216h32M0 217h64M72 217h24M112 217h40M192 217h56M264 217h16M320 217h32M360 217h32M0 218h64M72 218h24M112 218h40M192 218h56M264 218h16M320 218h32M360 218h32M0 219h64M72 219h24M112 219h40M192 219h56M264 219h16M320 219h32M360 219h32M0 220h64M72 220h24M112 220h40M192 220h56M264 220h16M320 220h32M360 220h32M0 221h64M72 221h24M112 221h40M192 221h56M264 221h16M320 221h32M360 221h32M0 222h64M72 222h24M112 222h40M192 222h56M264 222h16M320 222h32M360 222h32M0 223h64M72 223h24M112 223h40M192 223h56M264 223h16M320 223h32M360 223h32M0 224h56M64 224h8M88 224h8M104 224h48M160 224h16M200 224h40M256 224h8M288 224h104M0 225h56M64 225h8M88 225h8M104 225h48M160 225h16M200 225h40M256 225h8M288 225h104M0 226h56M64 226h8M88 226h8M104 226h48M160 226h16M200 226h40M256 226h8M288 226h104M0 227h56M64 227h8M88 227h8M104 227h48M160 227h16M200 227h40M256 227h8M288 227h104M0 228h56M64 228h8M88 228h8M104 228h48M160 228h16M200 228h40M256 228h8M288 228h104M0 229h56M64 229h8M88 229h8M104 229h48M160 229h16M200 229h40M256 229h8M288 229h104M0 230h56M64 230h8M88 230h8M104 230h48M160 230h16M200 230h40M256 230h8M288 230h104M0 231h56M64 231h8M88 231h8M104 231h48M160 231h16M200 231h40M256 231h8M288 231h104M0 232h56M80 232h8M96 232h72M176 232h8M248 232h16M288 232h16M328 232h24M360 232h32M0 233h56M80 233h8M96 233h72M176 233h8M248 233h16M288 233h16M328 233h24M360 233h32M0 234h56M80 234h8M96 234h72M176 234h8M248 234h16M288 234h16M328 234h24M360 234h32M0 235h56M80 235h8M96 235h72M176 235h8M248 235h16M288 235h16M328 235h24M360 235h32M0 236h56M80 236h8M96 236h72M176 236h8M248 236h16M288 236h16M328 236h24M360 236h32M0 237h56M80 237h8M96 237h72M176 237h8M248 237h16M288 237h16M328 237h24M360 237h32M0 238h56M80 238h8M96 238h72M176 238h8M248 238h16M288 238h16M328 238h24M360 238h32M0 239h56M80 239h8M96 239h72M176 239h8M248 239h16M288 239h16M328 239h24M360 239h32M0 240h64M72 240h8M96 240h112M224 240h8M272 240h16M296 240h8M312 240h16M336 240h16M360 240h32M0 241h64M72 241h8M96 241h112M224 241h8M272 241h16M296 241h8M312 241h16M336 241h16M360 241h32M0 242h64M72 242h8M96 242h112M224 242h8M272 242h16M296 242h8M312 242h16M336 242h16M360 242h32M0 243h64M72 243h8M96 243h112M224 243h8M272 243h16M296 243h8M312 243h16M336 243h16M360 243h32M0 244h64M72 244h8M96 244h112M224 244h8M272 244h16M296 244h8M312 244h16M336 244h16M360 244h32M0 245h64M72 245h8M96 245h112M224 245h8M272 245h16M296 245h8M312 245h16M336 245h16M360 245h32M0 246h64M72 246h8M96 246h112M224 246h8M272 246h16M296 246h8M312 246h16M336 246h16M360 246h32M0 247h64M72 247h8M96 247h112M224 247h8M272 247h16M296 247h8M312 247h16M336 247h16M360 247h32M0 248h32M40 248h16M64 248h8M80 248h72M160 248h80M272 248h32M320 248h8M336 248h8M360 248h32M0 249h32M40 249h16M64 249h8M80 249h72M160 249h80M272 249h32M320 249h8M336 249h8M360 249h32M0 250h32M40 250h16M64 250h8M80 250h72M160 250h80M272 250h32M320 250h8M336 250h8M360 250h32M0 251h32M40 251h16M64 251h8M80 251h72M160 251h80M272 251h32M320 251h8M336 251h8M360 251h32M0 252h32M40 252h16M64 252h8M80 252h72M160 252h80M272 252h32M320 252h8M336 252h8M360 252h32M0 253h32M40 253h16M64 253h8M80 253h72M160 253h80M272 253h32M320 253h8M336 253h8M360 253h32M0 254h32M40 254h16M64 254h8M80 254h72M160 254h80M272 254h32M320 254h8M336 254h8M360 254h32M0 255h32M40 255h16M64 255h8M80 255h72M160 255h80M272 255h32M320 255h8M336 255h8M360 255h32M0 256h48M88 256h64M160 256h96M264 256h24M296 256h8M312 256h24M352 256h40M0 257h48M88 257h64M160 257h96M264 257h24M296 257h8M312 257h24M352 257h40M0 258h48M88 258h64M160 258h96M264 258h24M296 258h8M312 258h24M352 258h40M0 259h48M88 259h64M160 259h96M264 259h24M296 259h8M312 259h24M352 259h40M0 260h48M88 260h64M160 260h96M264 260h24M296 260h8M312 260h24M352 260h40M0 261h48M88 261h64M160 261h96M264 261h24M296 261h8M312 261h24M352 261h40M0 262h48M88 262h64M160 262h96M264 262h24M296 262h8M312 262h24M352 262h40M0 263h48M88 263h64M160 263h96M264 263h24M296 263h8M312 263h24M352 263h40M0 264h32M64 264h8M80 264h48M136 264h160M304 264h32M344 264h8M360 264h32M0 265h32M64 265h8M80 265h48M136 265h160M304 265h32M344 265h8M360 265h32M0 266h32M64 266h8M80 266h48M136 266h160M304 266h32M344 266h8M360 266h32M0 267h32M64 267h8M80 267h48M136 267h160M304 267h32M344 267h8M360 267h32M0 268h32M64 268h8M80 268h48M136 268h160M304 268h32M344 268h8M360 268h32M0 269h32M64 269h8M80 269h48M136 269h160M304 269h32M344 269h8M360 269h32M0 270h32M64 270h8M80 270h48M136 270h160M304 270h32M344 270h8M360 270h32M0 271h32M64 271h8M80 271h48M136 271h160M304 271h32M344 271h8M360 271h32M0 272h32M40 272h8M64 272h16M88 272h72M168 272h96M280 272h8M304 272h88M0 273h32M40 273h8M64 273h16M88 273h72M168 273h96M280 273h8M304 273h88M0 274h32M40 274h8M64 274h16M88 274h72M168 274h96M280 274h8M304 274h88M0 275h32M40 275h8M64 275h16M88 275h72M168 275h96M280 275h8M304 275h88M0 276h32M40 276h8M64 276h16M88 276h72M168 276h96M280 276h8M304 276h88M0 277h32M40 277h8M64 277h16M88 277h72M168 277h96M280 277h8M304 277h88M0 278h32M40 278h8M64 278h16M88 278h72M168 278h96M280 278h8M304 278h88M0 279h32M40 279h8M64 279h16M88 279h72M168 279h96M280 279h8M304 279h88M0 280h32M40 280h8M56 280h136M200 280h96M304 280h24M336 280h8M360 280h32M0 281h32M40 281h8M56 281h136M200 281h96M304 281h24M336 281h8M360 281h32M0 282h32M40 282h8M56 282h136M200 282h96M304 282h24M336 282h8M360 282h32M0 283h32M40 283h8M56 283h136M200 283h96M304 283h24M336 283h8M360 283h32M0 284h32M40 284h8M56 284h136M200 284h96M304 284h24M336 284h8M360 284h32M0 285h32M40 285h8M56 285h136M200 285h96M304 285h24M336 285h8M360 285h32M0 286h32M40 286h8M56 286h136M200 286h96M304 286h24M336 286h8M360 286h32M0 287h32M40 287h8M56 287h136M200 287h96M304 287h24M336 287h8M360 287h32M0 288h32M40 288h8M64 288h16M88 288h48M144 288h24M176 288h32M216 288h56M344 288h48M0 289h32M40 289h8M64 289h16M88 289h48M144 289h24M176 289h32M216 289h56M344 289h48M0 290h32M40 290h8M64 290h16M88 290h48M144 290h24M176 290h32M216 290h56M344 290h48M0 291h32M40 291h8M64 291h16M88 291h48M144 291h24M176 291h32M216 291h56M344 291h48M0 292h32M40 292h8M64 292h16M88 292h48M144 292h24M176 292h32M216 292h56M344 292h48M0 293h32M40 293h8M64 293h16M88 293h48M144 293h24M176 293h32M216 293h56M344 293h48M0 294h32M40 294h8M64 294h16M88 294h48M144 294h24M176 294h32M216 294h56M344 294h48M0 295h32M40 295h8M64 295h16M88 295h48M144 295h24M176 295h32M216 295h56M344 295h48M0 296h96M104 296h112M224 296h32M264 296h24M296 296h24M328 296h64M0 297h96M104 297h112M224 297h32M264 297h24M296 297h24M328 297h64M0 298h96M104 298h112M224 298h32M264 298h24M296 298h24M328 298h64M0 299h96M104 299h112M224 299h32M264 299h24M296 299h24M328 299h64M0 300h96M104 300h112M224 300h32M264 300h24M296 300h24M328 300h64M0 301h96M104 301h112M224 301h32M264 301h24M296 301h24M328 301h64M0 302h96M104 302h112M224 302h32M264 302h24M296 302h24M328 302h64M0 303h96M104 303h112M224 303h32M264 303h24M296 303h24M328 303h64M0 304h32M88 304h8M104 304h120M232 304h32M272 304h8M296 304h8M312 304h8M328 304h8M344 304h48M0 305h32M88 305h8M104 305h120M232 305h32M272 305h8M296 305h8M312 305h8M328 305h8M344 305h48M0 306h32M88 306h8M104 306h120M232 306h32M272 306h8M296 306h8M312 306h8M328 306h8M344 306h48M0 307h32M88 307h8M104 307h120M232 307h32M272 307h8M296 307h8M312 307h8M328 307h8M344 307h48M0 308h32M88 308h8M104 308h120M232 308h32M272 308h8M296 308h8M312 308h8M328 308h8M344 308h48M0 309h32M88 309h8M104 309h120M232 309h32M272 309h8M296 309h8M312 309h8M328 309h8M344 309h48M0 310h32M88 310h8M104 310h120M232 310h32M272 310h8M296 310h8M312 310h8M328 310h8M344 310h48M0 311h32M88 311h8M104 311h120M232 311h32M272 311h8M296 311h8M312 311h8M328 311h8M344 311h48M0 312h32M40 312h40M88 312h144M240 312h40M296 312h24M336 312h8M352 312h40M0 313h32M40 313h40M88 313h144M240 313h40M296 313h24M336 313h8M352 313h40M0 314h32M40 314h40M88 314h144M240 314h40M296 314h24M336 314h8M352 314h40M0 315h32M40 315h40M88 315h144M240 315h40M296 315h24M336 315h8M352 315h40M0 316h32M40 316h40M88 316h144M240 316h40M296 316h24M336 316h8M352 316h40M0 317h32M40 317h40M88 317h144M240 317h40M296 317h24M336 317h8M352 317h40M0 318h32M40 318h40M88 318h144M240 318h40M296 318h24M336 318h8M352 318h40M0 319h32M40 319h40M88 319h144M240 319h40M296 319h24M336 319h8M352 319h40M0 320h32M40 320h8M72 320h8M88 320h8M104 320h136M256 320h16M280 320h8M328 320h8M344 320h48M0 321h32M40 321h8M72 321h8M88 321h8M104 321h136M256 321h16M280 321h8M328 321h8M344 321h48M0 322h32M40 322h8M72 322h8M88 322h8M104 322h136M256 322h16M280 322h8M328 322h8M344 322h48M0 323h32M40 323h8M72 323h8M88 323h8M104 323h136M256 323h16M280 323h8M328 323h8M344 323h48M0 324h32M40 324h8M72 324h8M88 324h8M104 324h136M256 324h16M280 324h8M328 324h8M344 324h48M0 325h32M40 325h8M72 325h8M88 325h8M104 325h136M256 325h16M280 325h8M328 325h8M344 325h48M0 326h32M40 326h8M72 326h8M88 326h8M104 326h136M256 326h16M280 326h8M328 326h8M344 326h48M0 327h32M40 327h8M72 327h8M88 327h8M104 327h136M256 327h16M280 327h8M328 327h8M344 327h48M0 328h32M40 328h8M72 328h8M88 328h8M104 328h136M248 328h80M336 328h56M0 329h32M40 329h8M72 329h8M88 329h8M104 329h136M248 329h80M336 329h56M0 330h32M40 330h8M72 330h8M88 330h8M104 330h136M248 330h80M336 330h56M0 331h32M40 331h8M72 331h8M88 331h8M104 331h136M248 331h80M336 331h56M0 332h32M40 332h8M72 332h8M88 332h8M104 332h136M248 332h80M336 332h56M0 333h32M40 333h8M72 333h8M88 333h8M104 333h136M248 333h80M336 333h56M0 334h32M40 334h8M72 334h8M88 334h8M104 334h136M248 334h80M336 334h56M0 335h32M40 335h8M72 335h8M88 335h8M104 335h136M248 335h80M336 335h56M0 336h32M40 336h8M72 336h8M88 336h8M120 336h40M264 336h16M288 336h16M352 336h40M0 337h32M40 337h8M72 337h8M88 337h8M120 337h40M264 337h16M288 337h16M352 337h40M0 338h32M40 338h8M72 338h8M88 338h8M120 338h40M264 338h16M288 338h16M352 338h40M0 339h32M40 339h8M72 339h8M88 339h8M120 339h40M264 339h16M288 339h16M352 339h40M0 340h32M40 340h8M72 340h8M88 340h8M120 340h40M264 340h16M288 340h16M352 340h40M0 341h32M40 341h8M72 341h8M88 341h8M120 341h40M264 341h16M288 341h16M352 341h40M0 342h32M40 342h8M72 342h8M88 342h8M120 342h40M264 342h16M288 342h16M352 342h40M0 343h32M40 343h8M72 343h8M88 343h8M120 343h40M264 343h16M288 343h16M352 343h40M0 344h32M40 344h40M88 344h8M192 344h8M216 344h16M248 344h8M264 344h8M328 344h8M352 344h40M0 345h32M40 345h40M88 345h8M192 345h8M216 345h16M248 345h8M264 345h8M328 345h8M352 345h40M0 346h32M40 346h40M88 346h8M192 346h8M216 346h16M248 346h8M264 346h8M328 346h8M352 346h40M0 347h32M40 347h40M88 347h8M192 347h8M216 347h16M248 347h8M264 347h8M328 347h8M352 347h40M0 348h32M40 348h40M88 348h8M192 348h8M216 348h16M248 348h8M264 348h8M328 348h8M352 348h40M0 349h32M40 349h40M88 349h8M192 349h8M216 349h16M248 349h8M264 349h8M328 349h8M352 349h40M0 350h32M40 350h40M88 350h8M192 350h8M216 350h16M248 350h8M264 350h8M328 350h8M352 350h40M0 351h32M40 351h40M88 351h8M192 351h8M216 351h16M248 351h8M264 351h8M328 351h8M352 351h40M0 352h32M88 352h8M144 352h32M224 352h16M248 352h16M288 352h40M344 352h48M0 353h32M88 353h8M144 353h32M224 353h16M248 353h16M288 353h40M344 353h48M0 354h32M88 354h8M144 354h32M224 354h16M248 354h16M288 354h40M344 354h48M0 355h32M88 355h8M144 355h32M224 355h16M248 355h16M288 355h40M344 355h48M0 356h32M88 356h8M144 356h32M224 356h16M248 356h16M288 356h40M344 356h48M0 357h32M88 357h8M144 357h32M224 357h16M248 357h16M288 357h40M344 357h48M0 358h32M88 358h8M144 358h32M224 358h16M248 358h16M288 358h40M344 358h48M0 359h32M88 359h8M144 359h32M224 359h16M248 359h16M288 359h40M344 359h48M0 360h392M0 361h392M0 362h392M0 363h392M0 364h392M0 365h392M0 366h392M0 367h392M0 368h392M0 369h392M0 370h392M0 371h392M0 372h392M0 373h392M0 374h392M0 375h392M0 376h392M0 377h392M0 378h392M0 379h392M0 380h392M0 381h392M0 382h392M0 383h392M0 384h392M0 385h392M0 386h392M0 387h392M0 388h392M0 389h392M0 390h392M0 391h392" />
<path stroke="#000000" d="M32 32h56M104 32h8M120 32h8M144 32h16M168 32h16M208 32h8M224 32h8M256 32h8M272 32h24M304 32h56M32 33h56M104 33h8M120 33h8M144 33h16M168 33h16M208 33h8M224 33h8M256 33h8M272 33h24M304 33h56M32 34h56M104 34h8M120 34h8M144 34h16M168 34h16M208 34h8M224 34h8M256 34h8M272 34h24M304 34h56M32 35h56M104 35h8M120 35h8M144 35h16M168 35h16M208 35h8M224 35h8M256 35h8M272 35h24M304 35h56M32 36h56M104 36h8M120 36h8M144 36h16M168 36h16M208 36h8M224 36h8M256 36h8M272 36h24M304 36h56M32 37h56M104 37h8M120 37h8M144 37h16M168 37h16M208 37h8M224 37h8M256 37h8M272 37h24M304 37h56M32 38h56M104 38h8M120 38h8M144 38h16M168 38h16M208 38h8M224 38h8M256 38h8M272 38h24M304 38h56M32 39h56M104 39h8M120 39h8M144 39h16M168 39h16M208 39h8M224 39h8M256 39h8M272 39h24M304 39h56M32 40h8M80 40h8M96 40h8M112 40h32M152 40h8M168 40h8M184 40h8M208 40h24M304 40h8M352 40h8M32 41h8M80 41h8M96 41h8M112 41h32M152 41h8M168 41h8M184 41h8M208 41h24M304 41h8M352 41h8M32 42h8M80 42h8M96 42h8M112 42h32M152 42h8M168 42h8M184 42h8M208 42h24M304 42h8M352 42h8M32 43h8M80 43h8M96 43h8M112 43h32M152 43h8M168 43h8M184 43h8M208 43h24M304 43h8M352 43h8M32 44h8M80 44h8M96 44h8M112 44h32M152 44h8M168 44h8M184 44h8M208 44h24M304 44h8M352 44h8M32 45h8M80 45h8M96 45h8M112 45h32M152 45h8M168 45h8M184 45h8M208 45h24M304 45h8M352 45h8M32 46h8M80 46h8M96 46h8M112 46h32M152 46h8M168 46h8M184 46h8M208 46h24M304 46h8M352 46h8M32 47h8M80 47h8M96 47h8M112 47h32M152 47h8M168 47h8M184 47h8M208 47h24M304 47h8M352 47h8M32 48h8M48 48h24M80 48h8M112 48h16M160 48h16M216 48h72M304 48h8M320 48h24M352 48h8M32 49h8M48 49h24M80 49h8M112 49h16M160 49h16M216 49h72M304 49h8M320 49h24M352 49h8M32 50h8M48 50h24M80 50h8M112 50h16M160 50h16M216 50h72M304 50h8M320 50h24M352 50h8M32 51h8M48 51h24M80 51h8M112 51h16M160 51h16M216 51h72M304 51h8M320 51h24M352 51h8M32 52h8M48 52h24M80 52h8M112 52h16M160 52h16M216 52h72M304 52h8M320 52h24M352 52h8M32 53h8M48 53h24M80 53h8M112 53h16M160 53h16M216 53h72M304 53h8M320 53h24M352 53h8M32 54h8M48 54h24M80 54h8M112 54h16M160 54h16M216 54h72M304 54h8M320 54h24M352 54h8M32 55h8M48 55h24M80 55h8M112 55h16M160 55h16M216 55h72M304 55h8M320 55h24M352 55h8M32 56h8M48 56h24M80 56h8M96 56h8M128 56h80M216 56h16M240 56h8M264 56h8M304 56h8M320 56h24M352 56h8M32 57h8M48 57h24M80 57h8M96 57h8M128 57h80M216 57h16M240 57h8M264 57h8M304 57h8M320 57h24M352 57h8M32 58h8M48 58h24M80 58h8M96 58h8M128 58h80M216 58h16M240 58h8M264 58h8M304 58h8M320 58h24M352 58h8M32 59h8M48 59h24M80 59h8M96 59h8M128 59h80M216 59h16M240 59h8M264 59h8M304 59h8M320 59h24M352 59h8M32 60h8M48 60h24M80 60h8M96 60h8M128 60h80M216 60h16M240 60h8M264 60h8M304 60h8M320 60h24M352 60h8M32 61h8M48 61h24M80 61h8M96 61h8M128 61h80M216 61h16M240 61h8M264 61h8M304 61h8M320 61h24M352 61h8M32 62h8M48 62h24M80 62h8M96 62h8M128 62h80M216 62h16M240 62h8M264 62h8M304 62h8M320 62h24M352 62h8M32 63h8M48 63h24M80 63h8M96 63h8M128 63h80M216 63h16M240 63h8M264 63h8M304 63h8M320 63h24M352 63h8M32 64h8M48 64h24M80 64h8M112 64h24M152 64h16M200 64h16M224 64h8M248 64h8M280 64h8M304 64h8M320 64h24M352 64h8M32 65h8M48 65h24M80 65h8M112 65h24M152 65h16M200 65h16M224 65h8M248 65h8M280 65h8M304 65h8M320 65h24M352 65h8M32 66h8M48 66h24M80 66h8M112 66h24M152 66h16M200 66h16M224 66h8M248 66h8M280 66h8M304 66h8M320 66h24M352 66h8M32 67h8M48 67h24M80 67h8M112 67h24M152 67h16M200 67h16M224 67h8M248 67h8M280 67h8M304 67h8M320 67h24M352 67h8M32 68h8M48 68h24M80 68h8M112 68h24M152 68h16M200 68h16M224 68h8M248 68h8M280 68h8M304 68h8M320 68h24M352 68h8M32 69h8M48 69h24M80 69h8M112 69h24M152 69h16M200 69h16M224 69h8M248 69h8M280 69h8M304 69h8M320 69h24M352 69h8M32 70h8M48 70h24M80 70h8M112 70h24M152 70h16M200 70h16M224 70h8M248 70h8M280 70h8M304 70h8M320 70h24M352 70h8M32 71h8M48 71h24M80 71h8M112 71h24M152 71h16M200 71h16M224 71h8M248 71h8M280 71h8M304 71h8M320 71h24M352 71h8M32 72h8M80 72h8M96 72h32M216 72h16M248 72h8M264 72h8M280 72h8M304 72h8M352 72h8M32 73h8M80 73h8M96 73h32M216 73h16M248 73h8M264 73h8M280 73h8M304 73h8M352 73h8M32 74h8M80 74h8M96 74h32M216 74h16M248 74h8M264 74h8M280 74h8M304 74h8M352 74h8M32 75h8M80 75h8M96 75h32M216 75h16M248 75h8M264 75h8M280 75h8M304 75h8M352 75h8M32 76h8M80 76h8M96 76h32M216 76h16M248 76h8M264 76h8M280 76h8M304 76h8M352 76h8M32 77h8M80 77h8M96 77h32M216 77h16M248 77h8M264 77h8M280 77h8M304 77h8M352 77h8M32 78h8M80 78h8M96 78h32M216 78h16M248 78h8M264 78h8M280 78h8M304 78h8M352 78h8M32 79h8M80 79h8M96 79h32M216 79h16M248 79h8M264 79h8M280 79h8M304 79h8M352 79h8M32 80h56M96 80h8M112 80h8M128 80h8M144 80h8M160 80h8M176 80h8M192 80h8M208 80h8M224 80h8M240 80h8M256 80h8M272 80h8M288 80h8M304 80h56M32 81h56M96 81h8M112 81h8M128 81h8M144 81h8M160 81h8M176 81h8M192 81h8M208 81h8M224 81h8M240 81h8M256 81h8M272 81h8M288 81h8M304 81h56M32 82h56M96 82h8M112 82h8M128 82h8M144 82h8M160 82h8M176 82h8M192 82h8M208 82h8M224 82h8M240 82h8M256 82h8M272 82h8M288 82h8M304 82h56M32 83h56M96 83h8M112 83h8M128 83h8M144 83h8M160 83h8M176 83h8M192 83h8M208 83h8M224 83h8M240 83h8M256 83h8M272 83h8M288 83h8M304 83h56M32 84h56M96 84h8M112 84h8M128 84h8M144 84h8M160 84h8M176 84h8M192 84h8M208 84h8M224 84h8M240 84h8M256 84h8M272 84h8M288 84h8M304 84h56M32 85h56M96 85h8M112 85h8M128 85h8M144 85h8M160 85h8M176 85h8M192 85h8M208 85h8M224 85h8M240 85h8M256 85h8M272 85h8M288 85h8M304 85h56M32 86h56M96 86h8M112 86h8M128 86h8M144 86h8M160 86h8M176 86h8M192 86h8M208 86h8M224 86h8M240 86h8M256 86h8M272 86h8M288 86h8M304 86h56M32 87h56M96 87h8M112 87h8M128 87h8M144 87h8M160 87h8M176 87h8M192 87h8M208 87h8M224 87h8M240 87h8M256 87h8M272 87h8M288 87h8M304 87h56M104 88h32M232 88h16M256 88h8M280 88h8M104 89h32M232 89h16M256 89h8M280 89h8M104 90h32M232 90h16M256 90h8M280 90h8M104 91h32M232 91h16M256 91h8M280 91h8M104 92h32M232 92h16M256 92h8M280 92h8M104 93h32M232 93h16M256 93h8M280 93h8M104 94h32M232 94h16M256 94h8M280 94h8M104 95h32M232 95h16M256 95h8M280 95h8M32 96h40M80 96h24M128 96h16M176 96h8M232 96h24M264 96h16M288 96h16M312 96h8M328 96h8M344 96h8M32 97h40M80 97h24M128 97h16M176 97h8M232 97h24M264 97h16M288 97h16M312 97h8M328 97h8M344 97h8M32 98h40M80 98h24M128 98h16M176 98h8M232 98h24M264 98h16M288 98h16M312 98h8M328 98h8M344 98h8M32 99h40M80 99h24M128 99h16M176 99h8M232 99h24M264 99h16M288 99h16M312 99h8M328 99h8M344 99h8M32 100h40M80 100h24M128 100h16M176 100h8M232 100h24M264 100h16M288 100h16M312 100h8M328 100h8M344 100h8M32 101h40M80 101h24M128 101h16M176 101h8M232 101h24M264 101h16M288 101h16M312 101h8M328 101h8M344 101h8M32 102h40M80 102h24M128 102h16M176 102h8M232 102h24M264 102h16M288 102h16M312 102h8M328 102h8M344 102h8M32 103h40M80 103h24M128 103h16M176 103h8M232 103h24M264 103h16M288 103h16M312 103h8M328 103h8M344 103h8M56 104h8M72 104h8M88 104h16M112 104h32M168 104h40M240 104h24M272 104h64M56 105h8M72 105h8M88 105h16M112 105h32M168 105h40M240 105h24M272 105h64M56 106h8M72 106h8M88 106h16M112 106h32M168 106h40M240 106h24M272 106h64M56 107h8M72 107h8M88 107h16M112 107h32M168 107h40M240 107h24M272 107h64M56 108h8M72 108h8M88 108h16M112 108h32M168 108h40M240 108h24M272 108h64M56 109h8M72 109h8M88 109h16M112 109h32M168 109h40M240 109h24M272 109h64M56 110h8M72 110h8M88 110h16M112 110h32M168 110h40M240 110h24M272 110h64M56 111h8M72 111h8M88 111h16M112 111h32M168 111h40M240 111h24M272 111h64M48 112h8M80 112h24M112 112h24M160 112h56M240 112h40M288 112h16M320 112h24M48 113h8M80 113h24M112 113h24M160 113h56M240 113h40M288 113h16M320 113h24M48 114h8M80 114h24M112 114h24M160 114h56M240 114h40M288 114h16M320 114h24M48 115h8M80 115h24M112 115h24M160 115h56M240 115h40M288 115h16M320 115h24M48 116h8M80 116h24M112 116h24M160 116h56M240 116h40M288 116h16M320 116h24M48 117h8M80 117h24M112 117h24M160 117h56M240 117h40M288 117h16M320 117h24M48 118h8M80 118h24M112 118h24M160 118h56M240 118h40M288 118h16M320 118h24M48 119h8M80 119h24M112 119h24M160 119h56M240 119h40M288 119h16M320 119h24M32 120h8M112 120h16M152 120h40M216 120h24M256 120h48M312 120h16M352 120h8M32 121h8M112 121h16M152 121h40M216 121h24M256 121h48M312 121h16M352 121h8M32 122h8M112 122h16M152 122h40M216 122h24M256 122h48M312 122h16M352 122h8M32 123h8M112 123h16M152 123h40M216 123h24M256 123h48M312 123h16M352 123h8M32 124h8M112 124h16M152 124h40M216 124h24M256 124h48M312 124h16M352 124h8M32 125h8M112 125h16M152 125h40M216 125h24M256 125h48M312 125h16M352 125h8M32 126h8M112 126h16M152 126h40M216 126h24M256 126h48M312 126h16M352 126h8M32 127h8M112 127h16M152 127h40M216 127h24M256 127h48M312 127h16M352 127h8M32 128h8M72 128h24M104 128h16M128 128h8M160 128h24M216 128h32M256 128h16M280 128h8M296 128h8M336 128h8M32 129h8M72 129h24M104 129h16M128 129h8M160 129h24M216 129h32M256 129h16M280 129h8M296 129h8M336 129h8M32 130h8M72 130h24M104 130h16M128 130h8M160 130h24M216 130h32M256 130h16M280 130h8M296 130h8M336 130h8M32 131h8M72 131h24M104 131h16M128 131h8M160 131h24M216 131h32M256 131h16M280 131h8M296 131h8M336 131h8M32 132h8M72 132h24M104 132h16M128 132h8M160 132h24M216 132h32M256 132h16M280 132h8M296 132h8M336 132h8M32 133h8M72 133h24M104 133h16M128 133h8M160 133h24M216 133h32M256 133h16M280 133h8M296 133h8M336 133h8M32 134h8M72 134h24M104 134h16M128 134h8M160 134h24M216 134h32M256 134h16M280 134h8M296 134h8M336 134h8M32 135h8M72 135h24M104 135h16M128 135h8M160 135h24M216 135h32M256 135h16M280 135h8M296 135h8M336 135h8M40 136h8M88 136h24M128 136h8M160 136h48M224 136h56M288 136h16M312 136h32M352 136h8M40 137h8M88 137h24M128 137h8M160 137h48M224 137h56M288 137h16M312 137h32M352 137h8M40 138h8M88 138h24M128 138h8M160 138h48M224 138h56M288 138h16M312 138h32M352 138h8M40 139h8M88 139h24M128 139h8M160 139h48M224 139h56M288 139h16M312 139h32M352 139h8M40 140h8M88 140h24M128 140h8M160 140h48M224 140h56M288 140h16M312 140h32M352 140h8M40 141h8M88 141h24M128 141h8M160 141h48M224 141h56M288 141h16M312 141h32M352 141h8M40 142h8M88 142h24M128 142h8M160 142h48M224 142h56M288 142h16M312 142h32M352 142h8M40 143h8M88 143h24M128 143h8M160 143h48M224 143h56M288 143h16M312 143h32M352 143h8M32 144h8M56 144h8M72 144h16M96 144h16M128 144h8M152 144h56M216 144h8M256 144h16M304 144h8M32 145h8M56 145h8M72 145h16M96 145h16M128 145h8M152 145h56M216 145h8M256 145h16M304 145h8M32 146h8M56 146h8M72 146h16M96 146h16M128 146h8M152 146h56M216 146h8M256 146h16M304 146h8M32 147h8M56 147h8M72 147h16M96 147h16M128 147h8M152 147h56M216 147h8M256 147h16M304 147h8M32 148h8M56 148h8M72 148h16M96 148h16M128 148h8M152 148h56M216 148h8M256 148h16M304 148h8M32 149h8M56 149h8M72 149h16M96 149h16M128 149h8M152 149h56M216 149h8M256 149h16M304 149h8M32 150h8M56 150h8M72 150h16M96 150h16M128 150h8M152 150h56M216 150h8M256 150h16M304 150h8M32 151h8M56 151h8M72 151h16M96 151h16M128 151h8M152 151h56M216 151h8M256 151h16M304 151h8M40 152h16M88 152h16M152 152h16M192 152h16M280 152h8M304 152h16M336 152h8M352 152h8M40 153h16M88 153h16M152 153h16M192 153h16M280 153h8M304 153h16M336 153h8M352 153h8M40 154h16M88 154h16M152 154h16M192 154h16M280 154h8M304 154h16M336 154h8M352 154h8M40 155h16M88 155h16M152 155h16M192 155h16M280 155h8M304 155h16M336 155h8M352 155h8M40 156h16M88 156h16M152 156h16M192 156h16M280 156h8M304 156h16M336 156h8M352 156h8M40 157h16M88 157h16M152 157h16M192 157h16M280 157h8M304 157h16M336 157h8M352 157h8M40 158h16M88 158h16M152 158h16M192 158h16M280 158h8M304 158h16M336 158h8M352 158h8M40 159h16M88 159h16M152 159h16M192 159h16M280 159h8M304 159h16M336 159h8M352 159h8M32 160h8M64 160h8M80 160h24M152 160h8M176 160h16M264 160h8M280 160h8M336 160h8M32 161h8M64 161h8M80 161h24M152 161h8M176 161h16M264 161h8M280 161h8M336 161h8M32 162h8M64 162h8M80 162h24M152 162h8M176 162h16M264 162h8M280 162h8M336 162h8M32 163h8M64 163h8M80 163h24M152 163h8M176 163h16M264 163h8M280 163h8M336 163h8M32 164h8M64 164h8M80 164h24M152 164h8M176 164h16M264 164h8M280 164h8M336 164h8M32 165h8M64 165h8M80 165h24M152 165h8M176 165h16M264 165h8M280 165h8M336 165h8M32 166h8M64 166h8M80 166h24M152 166h8M176 166h16M264 166h8M280 166h8M336 166h8M32 167h8M64 167h8M80 167h24M152 167h8M176 167h16M264 167h8M280 167h8M336 167h8M32 168h8M56 168h16M96 168h16M152 168h16M184 168h16M272 168h80M32 169h8M56 169h16M96 169h16M152 169h16M184 169h16M272 169h80M32 170h8M56 170h16M96 170h16M152 170h16M184 170h16M272 170h80M32 171h8M56 171h16M96 171h16M152 171h16M184 171h16M272 171h80M32 172h8M56 172h16M96 172h16M152 172h16M184 172h16M272 172h80M32 173h8M56 173h16M96 173h16M152 173h16M184 173h16M272 173h80M32 174h8M56 174h16M96 174h16M152 174h16M184 174h16M272 174h80M32 175h8M56 175h16M96 175h16M152 175h16M184 175h16M272 175h80M56 176h8M80 176h32M168 176h8M192 176h16M312 176h8M336 176h8M56 177h8M80 177h32M168 177h8M192 177h16M312 177h8M336 177h8M56 178h8M80 178h32M168 178h8M192 178h16M312 178h8M336 178h8M56 179h8M80 179h32M168 179h8M192 179h16M312 179h8M336 179h8M56 180h8M80 180h32M168 180h8M192 180h16M312 180h8M336 180h8M56 181h8M80 181h32M168 181h8M192 181h16M312 181h8M336 181h8M56 182h8M80 182h32M168 182h8M192 182h16M312 182h8M336 182h8M56 183h8M80 183h32M168 183h8M192 183h16M312 183h8M336 183h8M48 184h8M88 184h8M104 184h16M176 184h8M200 184h24M272 184h24M312 184h24M344 184h8M48 185h8M88 185h8M104 185h16M176 185h8M200 185h24M272 185h24M312 185h24M344 185h8M48 186h8M88 186h8M104 186h16M176 186h8M200 186h24M272 186h24M312 186h24M344 186h8M48 187h8M88 187h8M104 187h16M176 187h8M200 187h24M272 187h24M312 187h24M344 187h8M48 188h8M88 188h8M104 188h16M176 188h8M200 188h24M272 188h24M312 188h24M344 188h8M48 189h8M88 189h8M104 189h16M176 189h8M200 189h24M272 189h24M312 189h24M344 189h8M48 190h8M88 190h8M104 190h16M176 190h8M200 190h24M272 190h24M312 190h24M344 190h8M48 191h8M88 191h8M104 191h16M176 191h8M200 191h24M272 191h24M312 191h24M344 191h8M48 192h16M80 192h40M176 192h8M224 192h8M272 192h16M312 192h8M336 192h16M48 193h16M80 193h40M176 193h8M224 193h8M272 193h16M312 193h8M336 193h16M48 194h16M80 194h40M176 194h8M224 194h8M272 194h16M312 194h8M336 194h16M48 195h16M80 195h40M176 195h8M224 195h8M272 195h16M312 195h8M336 195h16M48 196h16M80 196h40M176 196h8M224 196h8M272 196h16M312 196h8M336 196h16M48 197h16M80 197h40M176 197h8M224 197h8M272 197h16M312 197h8M336 197h16M48 198h16M80 198h40M176 198h8M224 198h8M272 198h16M312 198h8M336 198h16M48 199h16M80 199h40M176 199h8M224 199h8M272 199h16M312 199h8M336 199h16M32 200h16M56 200h8M104 200h32M224 200h24M272 200h8M304 200h8M320 200h24M352 200h8M32 201h16M56 201h8M104 201h32M224 201h24M272 201h8M304 201h8M320 201h24M352 201h8M32 202h16M56 202h8M104 202h32M224 202h24M272 202h8M304 202h8M320 202h24M352 202h8M32 203h16M56 203h8M104 203h32M224 203h24M272 203h8M304 203h8M320 203h24M352 203h8M32 204h16M56 204h8M104 204h32M224 204h24M272 204h8M304 204h8M320 204h24M352 204h8M32 205h16M56 205h8M104 205h32M224 205h24M272 205h8M304 205h8M320 205h24M352 205h8M32 206h16M56 206h8M104 206h32M224 206h24M272 206h8M304 206h8M320 206h24M352 206h8M32 207h16M56 207h8M104 207h32M224 207h24M272 207h8M304 207h8M320 207h24M352 207h8M40 208h16M64 208h32M104 208h16M184 208h8M208 208h16M248 208h32M304 208h24M336 208h8M40 209h16M64 209h32M104 209h16M184 209h8M208 209h16M248 209h32M304 209h24M336 209h8M40 210h16M64 210h32M104 210h16M184 210h8M208 210h16M248 210h32M304 210h24M336 210h8M40 211h16M64 211h32M104 211h16M184 211h8M208 211h16M248 211h32M304 211h24M336 211h8M40 212h16M64 212h32M104 212h16M184 212h8M208 212h16M248 212h32M304 212h24M336 212h8M40 213h16M64 213h32M104 213h16M184 213h8M208 213h16M248 213h32M304 213h24M336 213h8M40 214h16M64 214h32M104 214h16M184 214h8M208 214h16M248 214h32M304 214h24M336 214h8M40 215h16M64 215h32M104 215h16M184 215h8M208 215h16M248 215h32M304 215h24M336 215h8M64 216h8M96 216h16M152 216h40M248 216h16M280 216h40M352 216h8M64 217h8M96 217h16M152 217h40M248 217h16M280 217h40M352 217h8M64 218h8M96 218h16M152 218h40M248 218h16M280 218h40M352 218h8M64 219h8M96 219h16M152 219h40M248 219h16M280 219h40M352 219h8M64 220h8M96 220h16M152 220h40M248 220h16M280 220h40M352 220h8M64 221h8M96 221h16M152 221h40M248 221h16M280 221h40M352 221h8M64 222h8M96 222h16M152 222h40M248 222h16M280 222h40M352 222h8M64 223h8M96 223h16M152 223h40M248 223h16M280 223h40M352 223h8M56 224h8M72 224h16M96 224h8M152 224h8M176 224h24M240 224h16M264 224h24M56 225h8M72 225h16M96 225h8M152 225h8M176 225h24M240 225h16M264 225h24M56 226h8M72 226h16M96 226h8M152 226h8M176 226h24M240 226h16M264 226h24M56 227h8M72 227h16M96 227h8M152 227h8M176 227h24M240 227h16M264 227h24M56 228h8M72 228h16M96 228h8M152 228h8M176 228h24M240 228h16M264 228h24M56 229h8M72 229h16M96 229h8M152 229h8M176 229h24M240 229h16M264 229h24M56 230h8M72 230h16M96 230h8M152 230h8M176 230h24M240 230h16M264 230h24M56 231h8M72 231h16M96 231h8M152 231h8M176 231h24M240 231h16M264 231h24M56 232h24M88 232h8M168 232h8M184 232h64M264 232h24M304 232h24M352 232h8M56 233h24M88 233h8M168 233h8M184 233h64M264 233h24M304 233h24M352 233h8M56 234h24M88 234h8M168 234h8M184 234h64M264 234h24M304 234h24M352 234h8M56 235h24M88 235h8M168 235h8M184 235h64M264 235h24M304 235h24M352 235h8M56 236h24M88 236h8M168 236h8M184 236h64M264 236h24M304 236h24M352 236h8M56 237h24M88 237h8M168 237h8M184 237h64M264 237h24M304 237h24M352 237h8M56 238h24M88 238h8M168 238h8M184 238h64M264 238h24M304 238h24M352 238h8M56 239h24M88 239h8M168 239h8M184 239h64M264 239h24M304 239h24M352 239h8M64 240h8M80 240h16M208 240h16M232 240h40M288 240h8M304 240h8M328 240h8M352 240h8M64 241h8M80 241h16M208 241h16M232 241h40M288 241h8M304 241h8M328 241h8M352 241h8M64 242h8M80 242h16M208 242h16M232 242h40M288 242h8M304 242h8M328 242h8M352 242h8M64 243h8M80 243h16M208 243h16M232 243h40M288 243h8M304 243h8M328 243h8M352 243h8M64 244h8M80 244h16M208 244h16M232 244h40M288 244h8M304 244h8M328 244h8M352 244h8M64 245h8M80 245h16M208 245h16M232 245h40M288 245h8M304 245h8M328 245h8M352 245h8M64 246h8M80 246h16M208 246h16M232 246h40M288 246h8M304 246h8M328 246h8M352 246h8M64 247h8M80 247h16M208 247h16M232 247h40M288 247h8M304 247h8M328 247h8M352 247h8M32 248h8M56 248h8M72 248h8M152 248h8M240 248h32M304 248h16M328 248h8M344 248h16M32 249h8M56 249h8M72 249h8M152 249h8M240 249h32M304 249h16M328 249h8M344 249h16M32 250h8M56 250h8M72 250h8M152 250h8M240 250h32M304 250h16M328 250h8M344 250h16M32 251h8M56 251h8M72 251h8M152 251h8M240 251h32M304 251h16M328 251h8M344 251h16M32 252h8M56 252h8M72 252h8M152 252h8M240 252h32M304 252h16M328 252h8M344 252h16M32 253h8M56 253h8M72 253h8M152 253h8M240 253h32M304 253h16M328 253h8M344 253h16M32 254h8M56 254h8M72 254h8M152 254h8M240 254h32M304 254h16M328 254h8M344 254h16M32 255h8M56 255h8M72 255h8M152 255h8M240 255h32M304 255h16M328 255h8M344 255h16M48 256h40M152 256h8M256 256h8M288 256h8M304 256h8M336 256h16M48 257h40M152 257h8M256 257h8M288 257h8M304 257h8M336 257h16M48 258h40M152 258h8M256 258h8M288 258h8M304 258h8M336 258h16M48 259h40M152 259h8M256 259h8M288 259h8M304 259h8M336 259h16M48 260h40M152 260h8M256 260h8M288 260h8M304 260h8M336 260h16M48 261h40M152 261h8M256 261h8M288 261h8M304 261h8M336 261h16M48 262h40M152 262h8M256 262h8M288 262h8M304 262h8M336 262h16M48 263h40M152 263h8M256 263h8M288 263h8M304 263h8M336 263h16M32 264h32M72 264h8M128 264h8M296 264h8M336 264h8M352 264h8M32 265h32M72 265h8M128 265h8M296 265h8M336 265h8M352 265h8M32 266h32M72 266h8M128 266h8M296 266h8M336 266h8M352 266h8M32 267h32M72 267h8M128 267h8M296 267h8M336 267h8M352 267h8M32 268h32M72 268h8M128 268h8M296 268h8M336 268h8M352 268h8M32 269h32M72 269h8M128 269h8M296 269h8M336 269h8M352 269h8M32 270h32M72 270h8M128 270h8M296 270h8M336 270h8M352 270h8M32 271h32M72 271h8M128 271h8M296 271h8M336 271h8M352 271h8M32 272h8M48 272h16M80 272h8M160 272h8M264 272h16M288 272h16M32 273h8M48 273h16M80 273h8M160 273h8M264 273h16M288 273h16M32 274h8M48 274h16M80 274h8M160 274h8M264 274h16M288 274h16M32 275h8M48 275h16M80 275h8M160 275h8M264 275h16M288 275h16M32 276h8M48 276h16M80 276h8M160 276h8M264 276h16M288 276h16M32 277h8M48 277h16M80 277h8M160 277h8M264 277h16M288 277h16M32 278h8M48 278h16M80 278h8M160 278h8M264 278h16M288 278h16M32 279h8M48 279h16M80 279h8M160 279h8M264 279h16M288 279h16M32 280h8M48 280h8M192 280h8M296 280h8M328 280h8M344 280h16M32 281h8M48 281h8M192 281h8M296 281h8M328 281h8M344 281h16M32 282h8M48 282h8M192 282h8M296 282h8M328 282h8M344 282h16M32 283h8M48 283h8M192 283h8M296 283h8M328 283h8M344 283h16M32 284h8M48 284h8M192 284h8M296 284h8M328 284h8M344 284h16M32 285h8M48 285h8M192 285h8M296 285h8M328 285h8M344 285h16M32 286h8M48 286h8M192 286h8M296 286h8M328 286h8M344 286h16M32 287h8M48 287h8M192 287h8M296 287h8M328 287h8M344 287h16M32 288h8M48 288h16M80 288h8M136 288h8M168 288h8M208 288h8M272 288h72M32 289h8M48 289h16M80 289h8M136 289h8M168 289h8M208 289h8M272 289h72M32 290h8M48 290h16M80 290h8M136 290h8M168 290h8M208 290h8M272 290h72M32 291h8M48 291h16M80 291h8M136 291h8M168 291h8M208 291h8M272 291h72M32 292h8M48 292h16M80 292h8M136 292h8M168 292h8M208 292h8M272 292h72M32 293h8M48 293h16M80 293h8M136 293h8M168 293h8M208 293h8M272 293h72M32 294h8M48 294h16M80 294h8M136 294h8M168 294h8M208 294h8M272 294h72M32 295h8M48 295h16M80 295h8M136 295h8M168 295h8M208 295h8M272 295h72M96 296h8M216 296h8M256 296h8M288 296h8M320 296h8M96 297h8M216 297h8M256 297h8M288 297h8M320 297h8M96 298h8M216 298h8M256 298h8M288 298h8M320 298h8M96 299h8M216 299h8M256 299h8M288 299h8M320 299h8M96 300h8M216 300h8M256 300h8M288 300h8M320 300h8M96 301h8M216 301h8M256 301h8M288 301h8M320 301h8M96 302h8M216 302h8M256 302h8M288 302h8M320 302h8M96 303h8M216 303h8M256 303h8M288 303h8M320 303h8M32 304h56M96 304h8M224 304h8M264 304h8M280 304h16M304 304h8M320 304h8M336 304h8M32 305h56M96 305h8M224 305h8M264 305h8M280 305h16M304 305h8M320 305h8M336 305h8M32 306h56M96 306h8M224 306h8M264 306h8M280 306h16M304 306h8M320 306h8M336 306h8M32 307h56M96 307h8M224 307h8M264 307h8M280 307h16M304 307h8M320 307h8M336 307h8M32 308h56M96 308h8M224 308h8M264 308h8M280 308h16M304 308h8M320 308h8M336 308h8M32 309h56M96 309h8M224 309h8M264 309h8M280 309h16M304 309h8M320 309h8M336 309h8M32 310h56M96 310h8M224 310h8M264 310h8M280 310h16M304 310h8M320 310h8M336 310h8M32 311h56M96 311h8M224 311h8M264 311h8M280 311h16M304 311h8M320 311h8M336 311h8M32 312h8M80 312h8M232 312h8M280 312h16M320 312h16M344 312h8M32 313h8M80 313h8M232 313h8M280 313h16M320 313h16M344 313h8M32 314h8M80 314h8M232 314h8M280 314h16M320 314h16M344 314h8M32 315h8M80 315h8M232 315h8M280 315h16M320 315h16M344 315h8M32 316h8M80 316h8M232 316h8M280 316h16M320 316h16M344 316h8M32 317h8M80 317h8M232 317h8M280 317h16M320 317h16M344 317h8M32 318h8M80 318h8M232 318h8M280 318h16M320 318h16M344 318h8M32 319h8M80 319h8M232 319h8M280 319h16M320 319h16M344 319h8M32 320h8M48 320h24M80 320h8M96 320h8M240 320h16M272 320h8M288 320h40M336 320h8M32 321h8M48 321h24M80 321h8M96 321h8M240 321h16M272 321h8M288 321h40M336 321h8M32 322h8M48 322h24M80 322h8M96 322h8M240 322h16M272 322h8M288 322h40M336 322h8M32 323h8M48 323h24M80 323h8M96 323h8M240 323h16M272 323h8M288 323h40M336 323h8M32 324h8M48 324h24M80 324h8M96 324h8M240 324h16M272 324h8M288 324h40M336 324h8M32 325h8M48 325h24M80 325h8M96 325h8M240 325h16M272 325h8M288 325h40M336 325h8M32 326h8M48 326h24M80 326h8M96 326h8M240 326h16M272 326h8M288 326h40M336 326h8M32 327h8M48 327h24M80 327h8M96 327h8M240 327h16M272 327h8M288 327h40M336 327h8M32 328h8M48 328h24M80 328h8M96 328h8M240 328h8M328 328h8M32 329h8M48 329h24M80 329h8M96 329h8M240 329h8M328 329h8M32 330h8M48 330h24M80 330h8M96 330h8M240 330h8M328 330h8M32 331h8M48 331h24M80 331h8M96 331h8M240 331h8M328 331h8M32 332h8M48 332h24M80 332h8M96 332h8M240 332h8M328 332h8M32 333h8M48 333h24M80 333h8M96 333h8M240 333h8M328 333h8M32 334h8M48 334h24M80 334h8M96 334h8M240 334h8M328 334h8M32 335h8M48 335h24M80 335h8M96 335h8M240 335h8M328 335h8M32 336h8M48 336h24M80 336h8M96 336h24M160 336h104M280 336h8M304 336h48M32 337h8M48 337h24M80 337h8M96 337h24M160 337h104M280 337h8M304 337h48M32 338h8M48 338h24M80 338h8M96 338h24M160 338h104M280 338h8M304 338h48M32 339h8M48 339h24M80 339h8M96 339h24M160 339h104M280 339h8M304 339h48M32 340h8M48 340h24M80 340h8M96 340h24M160 340h104M280 340h8M304 340h48M32 341h8M48 341h24M80 341h8M96 341h24M160 341h104M280 341h8M304 341h48M32 342h8M48 342h24M80 342h8M96 342h24M160 342h104M280 342h8M304 342h48M32 343h8M48 343h24M80 343h8M96 343h24M160 343h104M280 343h8M304 343h48M32 344h8M80 344h8M96 344h96M200 344h16M232 344h16M256 344h8M272 344h56M336 344h16M32 345h8M80 345h8M96 345h96M200 345h16M232 345h16M256 345h8M272 345h56M336 345h16M32 346h8M80 346h8M96 346h96M200 346h16M232 346h16M256 346h8M272 346h56M336 346h16M32 347h8M80 347h8M96 347h96M200 347h16M232 347h16M256 347h8M272 347h56M336 347h16M32 348h8M80 348h8M96 348h96M200 348h16M232 348h16M256 348h8M272 348h56M336 348h16M32 349h8M80 349h8M96 349h96M200 349h16M232 349h16M256 349h8M272 349h56M336 349h16M32 350h8M80 350h8M96 350h96M200 350h16M232 350h16M256 350h8M272 350h56M336 350h16M32 351h8M80 351h8M96 351h96M200 351h16M232 351h16M256 351h8M272 351h56M336 351h16M32 352h56M96 352h48M176 352h48M240 352h8M264 352h24M328 352h16M32 353h56M96 353h48M176 353h48M240 353h8M264 353h24M328 353h16M32 354h56M96 354h48M176 354h48M240 354h8M264 354h24M328 354h16M32 355h56M96 355h48M176 355h48M240 355h8M264 355h24M328 355h16M32 356h56M96 356h48M176 356h48M240 356h8M264 356h24M328 356h16M32 357h56M96 357h48M176 357h48M240 357h8M264 357h24M328 357h16M32 358h56M96 358h48M176 358h48M240 358h8M264 358h24M328 358h16M32 359h56M96 359h48M176 359h48M240 359h8M264 359h24M328 359h16" />
</svg>