<?xml version="1.0" encoding="UTF-8" standalone="no"?>
<svg
   width="1850"
   height="1850"
   version="1.1"
   id="svg1454"
   sodipodi:docname="garden-2.svg"
   inkscape:version="1.2.2 (b0a8486541, 2022-12-01)"
   inkscape:export-filename="garden-2.png"
   inkscape:export-xdpi="96"
   inkscape:export-ydpi="96"
   xmlns:inkscape="http://www.inkscape.org/namespaces/inkscape"
   xmlns:sodipodi="http://sodipodi.sourceforge.net/DTD/sodipodi-0.dtd"
   xmlns="http://www.w3.org/2000/svg"
   xmlns:svg="http://www.w3.org/2000/svg">
  <defs
     id="defs1458" />
  <sodipodi:namedview
     id="namedview1456"
     pagecolor="#ffffff"
     bordercolor="#666666"
     borderopacity="1.0"
     inkscape:showpageshadow="2"
     inkscape:pageopacity="0.0"
     inkscape:pagecheckerboard="0"
     inkscape:deskcolor="#d1d1d1"
     showgrid="false"
     inkscape:zoom="0.32540541"
     inkscape:cx="929.60963"
     inkscape:cy="925"
     inkscape:window-width="1600"
     inkscape:window-height="831"
     inkscape:window-x="0"
     inkscape:window-y="0"
     inkscape:window-maximized="1"
     inkscape:current-layer="svg1454" />
  <desc
     id="desc961">Zint Generated Symbol
   </desc>
  <g
     id="barcode"
     fill="#000000">
    <rect
       x="0"
       y="0"
       width="1850"
       height="1850"
       fill="#FFFFFF"
       id="rect963" />
    <rect
       x="100.00"
       y="100.00"
       width="350.00"
       height="50.00"
       id="rect965" />
    <rect
       x="500.00"
       y="100.00"
       width="150.00"
       height="50.00"
       id="rect967" />
    <rect
       x="800.00"
       y="100.00"
       width="100.00"
       height="50.00"
       id="rect969" />
    <rect
       x="950.00"
       y="100.00"
       width="200.00"
       height="50.00"
       id="rect971" />
    <rect
       x="1250.00"
       y="100.00"
       width="100.00"
       height="50.00"
       id="rect973" />
    <rect
       x="1400.00"
       y="100.00"
       width="350.00"
       height="50.00"
       id="rect975" />
    <rect
       x="100.00"
       y="150.00"
       width="50.00"
       height="250.00"
       id="rect977" />
    <rect
       x="400.00"
       y="150.00"
       width="50.00"
       height="250.00"
       id="rect979" />
    <rect
       x="500.00"
       y="150.00"
       width="50.00"
       height="100.00"
       id="rect981" />
    <rect
       x="600.00"
       y="150.00"
       width="100.00"
       height="50.00"
       id="rect983" />
    <rect
       x="750.00"
       y="150.00"
       width="100.00"
       height="50.00"
       id="rect985" />
    <rect
       x="900.00"
       y="150.00"
       width="50.00"
       height="50.00"
       id="rect987" />
    <rect
       x="1000.00"
       y="150.00"
       width="50.00"
       height="50.00"
       id="rect989" />
    <rect
       x="1150.00"
       y="150.00"
       width="50.00"
       height="50.00"
       id="rect991" />
    <rect
       x="1300.00"
       y="150.00"
       width="50.00"
       height="50.00"
       id="rect993" />
    <rect
       x="1400.00"
       y="150.00"
       width="50.00"
       height="250.00"
       id="rect995" />
    <rect
       x="1700.00"
       y="150.00"
       width="50.00"
       height="250.00"
       id="rect997" />
    <rect
       x="200.00"
       y="200.00"
       width="150.00"
       height="150.00"
       id="rect999" />
    <rect
       x="650.00"
       y="200.00"
       width="100.00"
       height="50.00"
       id="rect1001" />
    <rect
       x="900.00"
       y="200.00"
       width="100.00"
       height="100.00"
       id="rect1003" />
    <rect
       x="1150.00"
       y="200.00"
       width="200.00"
       height="50.00"
       id="rect1005" />
    <rect
       x="1500.00"
       y="200.00"
       width="150.00"
       height="150.00"
       id="rect1007" />
    <rect
       x="550.00"
       y="250.00"
       width="50.00"
       height="100.00"
       id="rect1009" />
    <rect
       x="700.00"
       y="250.00"
       width="50.00"
       height="50.00"
       id="rect1011" />
    <rect
       x="800.00"
       y="250.00"
       width="50.00"
       height="50.00"
       id="rect1013" />
    <rect
       x="1100.00"
       y="250.00"
       width="50.00"
       height="50.00"
       id="rect1015" />
    <rect
       x="1200.00"
       y="250.00"
       width="150.00"
       height="50.00"
       id="rect1017" />
    <rect
       x="750.00"
       y="300.00"
       width="100.00"
       height="50.00"
       id="rect1019" />
    <rect
       x="900.00"
       y="300.00"
       width="50.00"
       height="50.00"
       id="rect1021" />
    <rect
       x="1000.00"
       y="300.00"
       width="50.00"
       height="50.00"
       id="rect1023" />
    <rect
       x="1250.00"
       y="300.00"
       width="50.00"
       height="50.00"
       id="rect1025" />
    <rect
       x="500.00"
       y="350.00"
       width="100.00"
       height="50.00"
       id="rect1027" />
    <rect
       x="700.00"
       y="350.00"
       width="50.00"
       height="100.00"
       id="rect1029" />
    <rect
       x="850.00"
       y="350.00"
       width="50.00"
       height="50.00"
       id="rect1031" />
    <rect
       x="1200.00"
       y="350.00"
       width="50.00"
       height="100.00"
       id="rect1033" />
    <rect
       x="1300.00"
       y="350.00"
       width="50.00"
       height="100.00"
       id="rect1035" />
    <rect
       x="100.00"
       y="400.00"
       width="350.00"
       height="50.00"
       id="rect1037" />
    <rect
       x="500.00"
       y="400.00"
       width="50.00"
       height="50.00"
       id="rect1039" />
    <rect
       x="600.00"
       y="400.00"
       width="50.00"
       height="50.00"
       id="rect1041" />
    <rect
       x="800.00"
       y="400.00"
       width="50.00"
       height="50.00"
       id="rect1043" />
    <rect
       x="900.00"
       y="400.00"
       width="50.00"
       height="50.00"
       id="rect1045" />
    <rect
       x="1000.00"
       y="400.00"
       width="50.00"
       height="50.00"
       id="rect1047" />
    <rect
       x="1100.00"
       y="400.00"
       width="50.00"
       height="50.00"
       id="rect1049" />
    <rect
       x="1400.00"
       y="400.00"
       width="350.00"
       height="50.00"
       id="rect1051" />
    <rect
       x="500.00"
       y="450.00"
       width="100.00"
       height="100.00"
       id="rect1053" />
    <rect
       x="650.00"
       y="450.00"
       width="150.00"
       height="50.00"
       id="rect1055" />
    <rect
       x="950.00"
       y="450.00"
       width="250.00"
       height="50.00"
       id="rect1057" />
    <rect
       x="200.00"
       y="500.00"
       width="150.00"
       height="50.00"
       id="rect1059" />
    <rect
       x="400.00"
       y="500.00"
       width="50.00"
       height="50.00"
       id="rect1061" />
    <rect
       x="700.00"
       y="500.00"
       width="100.00"
       height="50.00"
       id="rect1063" />
    <rect
       x="850.00"
       y="500.00"
       width="50.00"
       height="50.00"
       id="rect1065" />
    <rect
       x="950.00"
       y="500.00"
       width="50.00"
       height="50.00"
       id="rect1067" />
    <rect
       x="1200.00"
       y="500.00"
       width="50.00"
       height="50.00"
       id="rect1069" />
    <rect
       x="1300.00"
       y="500.00"
       width="200.00"
       height="50.00"
       id="rect1071" />
    <rect
       x="1600.00"
       y="500.00"
       width="150.00"
       height="50.00"
       id="rect1073" />
    <rect
       x="100.00"
       y="550.00"
       width="200.00"
       height="50.00"
       id="rect1075" />
    <rect
       x="450.00"
       y="550.00"
       width="100.00"
       height="50.00"
       id="rect1077" />
    <rect
       x="600.00"
       y="550.00"
       width="150.00"
       height="50.00"
       id="rect1079" />
    <rect
       x="800.00"
       y="550.00"
       width="50.00"
       height="50.00"
       id="rect1081" />
    <rect
       x="900.00"
       y="550.00"
       width="100.00"
       height="50.00"
       id="rect1083" />
    <rect
       x="1100.00"
       y="550.00"
       width="100.00"
       height="50.00"
       id="rect1085" />
    <rect
       x="1250.00"
       y="550.00"
       width="200.00"
       height="50.00"
       id="rect1087" />
    <rect
       x="1550.00"
       y="550.00"
       width="200.00"
       height="50.00"
       id="rect1089" />
    <rect
       x="100.00"
       y="600.00"
       width="50.00"
       height="50.00"
       id="rect1091" />
    <rect
       x="250.00"
       y="600.00"
       width="50.00"
       height="50.00"
       id="rect1093" />
    <rect
       x="350.00"
       y="600.00"
       width="150.00"
       height="50.00"
       id="rect1095" />
    <rect
       x="550.00"
       y="600.00"
       width="50.00"
       height="50.00"
       id="rect1097" />
    <rect
       x="650.00"
       y="600.00"
       width="200.00"
       height="50.00"
       id="rect1099" />
    <rect
       x="1000.00"
       y="600.00"
       width="50.00"
       height="50.00"
       id="rect1101" />
    <rect
       x="1150.00"
       y="600.00"
       width="100.00"
       height="100.00"
       id="rect1103" />
    <rect
       x="1350.00"
       y="600.00"
       width="150.00"
       height="50.00"
       id="rect1105" />
    <rect
       x="1600.00"
       y="600.00"
       width="100.00"
       height="50.00"
       id="rect1107" />
    <rect
       x="150.00"
       y="650.00"
       width="100.00"
       height="50.00"
       id="rect1109" />
    <rect
       x="300.00"
       y="650.00"
       width="50.00"
       height="50.00"
       id="rect1111" />
    <rect
       x="450.00"
       y="650.00"
       width="150.00"
       height="50.00"
       id="rect1113" />
    <rect
       x="650.00"
       y="650.00"
       width="100.00"
       height="50.00"
       id="rect1115" />
    <rect
       x="800.00"
       y="650.00"
       width="50.00"
       height="50.00"
       id="rect1117" />
    <rect
       x="900.00"
       y="650.00"
       width="200.00"
       height="50.00"
       id="rect1119" />
    <rect
       x="1300.00"
       y="650.00"
       width="50.00"
       height="50.00"
       id="rect1121" />
    <rect
       x="1400.00"
       y="650.00"
       width="50.00"
       height="50.00"
       id="rect1123" />
    <rect
       x="1550.00"
       y="650.00"
       width="200.00"
       height="50.00"
       id="rect1125" />
    <rect
       x="200.00"
       y="700.00"
       width="100.00"
       height="50.00"
       id="rect1127" />
    <rect
       x="400.00"
       y="700.00"
       width="50.00"
       height="50.00"
       id="rect1129" />
    <rect
       x="500.00"
       y="700.00"
       width="100.00"
       height="50.00"
       id="rect1131" />
    <rect
       x="750.00"
       y="700.00"
       width="200.00"
       height="50.00"
       id="rect1133" />
    <rect
       x="1100.00"
       y="700.00"
       width="50.00"
       height="50.00"
       id="rect1135" />
    <rect
       x="1200.00"
       y="700.00"
       width="50.00"
       height="50.00"
       id="rect1137" />
    <rect
       x="1300.00"
       y="700.00"
       width="100.00"
       height="50.00"
       id="rect1139" />
    <rect
       x="1450.00"
       y="700.00"
       width="100.00"
       height="50.00"
       id="rect1141" />
    <rect
       x="1650.00"
       y="700.00"
       width="50.00"
       height="50.00"
       id="rect1143" />
    <rect
       x="100.00"
       y="750.00"
       width="50.00"
       height="50.00"
       id="rect1145" />
    <rect
       x="250.00"
       y="750.00"
       width="150.00"
       height="50.00"
       id="rect1147" />
    <rect
       x="600.00"
       y="750.00"
       width="100.00"
       height="50.00"
       id="rect1149" />
    <rect
       x="800.00"
       y="750.00"
       width="50.00"
       height="50.00"
       id="rect1151" />
    <rect
       x="900.00"
       y="750.00"
       width="50.00"
       height="150.00"
       id="rect1153" />
    <rect
       x="1050.00"
       y="750.00"
       width="50.00"
       height="50.00"
       id="rect1155" />
    <rect
       x="1250.00"
       y="750.00"
       width="50.00"
       height="50.00"
       id="rect1157" />
    <rect
       x="1400.00"
       y="750.00"
       width="50.00"
       height="50.00"
       id="rect1159" />
    <rect
       x="1550.00"
       y="750.00"
       width="100.00"
       height="50.00"
       id="rect1161" />
    <rect
       x="1700.00"
       y="750.00"
       width="50.00"
       height="50.00"
       id="rect1163" />
    <rect
       x="100.00"
       y="800.00"
       width="150.00"
       height="50.00"
       id="rect1165" />
    <rect
       x="350.00"
       y="800.00"
       width="200.00"
       height="50.00"
       id="rect1167" />
    <rect
       x="600.00"
       y="800.00"
       width="50.00"
       height="50.00"
       id="rect1169" />
    <rect
       x="700.00"
       y="800.00"
       width="50.00"
       height="50.00"
       id="rect1171" />
    <rect
       x="1050.00"
       y="800.00"
       width="100.00"
       height="50.00"
       id="rect1173" />
    <rect
       x="1200.00"
       y="800.00"
       width="50.00"
       height="50.00"
       id="rect1175" />
    <rect
       x="1300.00"
       y="800.00"
       width="50.00"
       height="50.00"
       id="rect1177" />
    <rect
       x="1500.00"
       y="800.00"
       width="100.00"
       height="50.00"
       id="rect1179" />
    <rect
       x="1650.00"
       y="800.00"
       width="50.00"
       height="50.00"
       id="rect1181" />
    <rect
       x="150.00"
       y="850.00"
       width="50.00"
       height="50.00"
       id="rect1183" />
    <rect
       x="250.00"
       y="850.00"
       width="100.00"
       height="50.00"
       id="rect1185" />
    <rect
       x="500.00"
       y="850.00"
       width="50.00"
       height="50.00"
       id="rect1187" />
    <rect
       x="600.00"
       y="850.00"
       width="100.00"
       height="50.00"
       id="rect1189" />
    <rect
       x="750.00"
       y="850.00"
       width="50.00"
       height="50.00"
       id="rect1191" />
    <rect
       x="1000.00"
       y="850.00"
       width="50.00"
       height="50.00"
       id="rect1193" />
    <rect
       x="1100.00"
       y="850.00"
       width="250.00"
       height="50.00"
       id="rect1195" />
    <rect
       x="1600.00"
       y="850.00"
       width="50.00"
       height="50.00"
       id="rect1197" />
    <rect
       x="1700.00"
       y="850.00"
       width="50.00"
       height="50.00"
       id="rect1199" />
    <rect
       x="100.00"
       y="900.00"
       width="50.00"
       height="50.00"
       id="rect1201" />
    <rect
       x="200.00"
       y="900.00"
       width="50.00"
       height="50.00"
       id="rect1203" />
    <rect
       x="400.00"
       y="900.00"
       width="50.00"
       height="50.00"
       id="rect1205" />
    <rect
       x="550.00"
       y="900.00"
       width="100.00"
       height="50.00"
       id="rect1207" />
    <rect
       x="700.00"
       y="900.00"
       width="100.00"
       height="50.00"
       id="rect1209" />
    <rect
       x="850.00"
       y="900.00"
       width="200.00"
       height="50.00"
       id="rect1211" />
    <rect
       x="1350.00"
       y="900.00"
       width="50.00"
       height="50.00"
       id="rect1213" />
    <rect
       x="1500.00"
       y="900.00"
       width="50.00"
       height="50.00"
       id="rect1215" />
    <rect
       x="150.00"
       y="950.00"
       width="50.00"
       height="200.00"
       id="rect1217" />
    <rect
       x="250.00"
       y="950.00"
       width="100.00"
       height="50.00"
       id="rect1219" />
    <rect
       x="550.00"
       y="950.00"
       width="50.00"
       height="50.00"
       id="rect1221" />
    <rect
       x="650.00"
       y="950.00"
       width="50.00"
       height="50.00"
       id="rect1223" />
    <rect
       x="950.00"
       y="950.00"
       width="150.00"
       height="50.00"
       id="rect1225" />
    <rect
       x="1250.00"
       y="950.00"
       width="200.00"
       height="50.00"
       id="rect1227" />
    <rect
       x="1700.00"
       y="950.00"
       width="50.00"
       height="50.00"
       id="rect1229" />
    <rect
       x="250.00"
       y="1000.00"
       width="50.00"
       height="50.00"
       id="rect1231" />
    <rect
       x="350.00"
       y="1000.00"
       width="150.00"
       height="50.00"
       id="rect1233" />
    <rect
       x="550.00"
       y="1000.00"
       width="150.00"
       height="50.00"
       id="rect1235" />
    <rect
       x="750.00"
       y="1000.00"
       width="100.00"
       height="50.00"
       id="rect1237" />
    <rect
       x="900.00"
       y="1000.00"
       width="50.00"
       height="50.00"
       id="rect1239" />
    <rect
       x="1000.00"
       y="1000.00"
       width="150.00"
       height="50.00"
       id="rect1241" />
    <rect
       x="1200.00"
       y="1000.00"
       width="50.00"
       height="50.00"
       id="rect1243" />
    <rect
       x="1450.00"
       y="1000.00"
       width="100.00"
       height="50.00"
       id="rect1245" />
    <rect
       x="1600.00"
       y="1000.00"
       width="100.00"
       height="50.00"
       id="rect1247" />
    <rect
       x="250.00"
       y="1050.00"
       width="150.00"
       height="50.00"
       id="rect1249" />
    <rect
       x="500.00"
       y="1050.00"
       width="150.00"
       height="50.00"
       id="rect1251" />
    <rect
       x="700.00"
       y="1050.00"
       width="50.00"
       height="50.00"
       id="rect1253" />
    <rect
       x="850.00"
       y="1050.00"
       width="50.00"
       height="50.00"
       id="rect1255" />
    <rect
       x="1000.00"
       y="1050.00"
       width="50.00"
       height="50.00"
       id="rect1257" />
    <rect
       x="1150.00"
       y="1050.00"
       width="50.00"
       height="50.00"
       id="rect1259" />
    <rect
       x="1250.00"
       y="1050.00"
       width="150.00"
       height="50.00"
       id="rect1261" />
    <rect
       x="1500.00"
       y="1050.00"
       width="150.00"
       height="50.00"
       id="rect1263" />
    <rect
       x="1700.00"
       y="1050.00"
       width="50.00"
       height="50.00"
       id="rect1265" />
    <rect
       x="250.00"
       y="1100.00"
       width="200.00"
       height="50.00"
       id="rect1267" />
    <rect
       x="500.00"
       y="1100.00"
       width="50.00"
       height="100.00"
       id="rect1269" />
    <rect
       x="600.00"
       y="1100.00"
       width="50.00"
       height="50.00"
       id="rect1271" />
    <rect
       x="750.00"
       y="1100.00"
       width="100.00"
       height="50.00"
       id="rect1273" />
    <rect
       x="900.00"
       y="1100.00"
       width="50.00"
       height="50.00"
       id="rect1275" />
    <rect
       x="1000.00"
       y="1100.00"
       width="150.00"
       height="50.00"
       id="rect1277" />
    <rect
       x="1200.00"
       y="1100.00"
       width="50.00"
       height="50.00"
       id="rect1279" />
    <rect
       x="1300.00"
       y="1100.00"
       width="100.00"
       height="50.00"
       id="rect1281" />
    <rect
       x="1450.00"
       y="1100.00"
       width="150.00"
       height="50.00"
       id="rect1283" />
    <rect
       x="100.00"
       y="1150.00"
       width="50.00"
       height="200.00"
       id="rect1285" />
    <rect
       x="250.00"
       y="1150.00"
       width="150.00"
       height="50.00"
       id="rect1287" />
    <rect
       x="650.00"
       y="1150.00"
       width="50.00"
       height="50.00"
       id="rect1289" />
    <rect
       x="750.00"
       y="1150.00"
       width="50.00"
       height="50.00"
       id="rect1291" />
    <rect
       x="1000.00"
       y="1150.00"
       width="50.00"
       height="50.00"
       id="rect1293" />
    <rect
       x="1100.00"
       y="1150.00"
       width="50.00"
       height="50.00"
       id="rect1295" />
    <rect
       x="1250.00"
       y="1150.00"
       width="50.00"
       height="50.00"
       id="rect1297" />
    <rect
       x="1350.00"
       y="1150.00"
       width="150.00"
       height="50.00"
       id="rect1299" />
    <rect
       x="1550.00"
       y="1150.00"
       width="100.00"
       height="50.00"
       id="rect1301" />
    <rect
       x="1700.00"
       y="1150.00"
       width="50.00"
       height="50.00"
       id="rect1303" />
    <rect
       x="250.00"
       y="1200.00"
       width="50.00"
       height="50.00"
       id="rect1305" />
    <rect
       x="400.00"
       y="1200.00"
       width="100.00"
       height="50.00"
       id="rect1307" />
    <rect
       x="550.00"
       y="1200.00"
       width="50.00"
       height="50.00"
       id="rect1309" />
    <rect
       x="700.00"
       y="1200.00"
       width="50.00"
       height="50.00"
       id="rect1311" />
    <rect
       x="850.00"
       y="1200.00"
       width="100.00"
       height="50.00"
       id="rect1313" />
    <rect
       x="1000.00"
       y="1200.00"
       width="100.00"
       height="50.00"
       id="rect1315" />
    <rect
       x="1200.00"
       y="1200.00"
       width="50.00"
       height="50.00"
       id="rect1317" />
    <rect
       x="1300.00"
       y="1200.00"
       width="50.00"
       height="50.00"
       id="rect1319" />
    <rect
       x="1500.00"
       y="1200.00"
       width="100.00"
       height="50.00"
       id="rect1321" />
    <rect
       x="1650.00"
       y="1200.00"
       width="50.00"
       height="50.00"
       id="rect1323" />
    <rect
       x="350.00"
       y="1250.00"
       width="50.00"
       height="50.00"
       id="rect1325" />
    <rect
       x="550.00"
       y="1250.00"
       width="100.00"
       height="50.00"
       id="rect1327" />
    <rect
       x="850.00"
       y="1250.00"
       width="50.00"
       height="50.00"
       id="rect1329" />
    <rect
       x="950.00"
       y="1250.00"
       width="400.00"
       height="50.00"
       id="rect1331" />
    <rect
       x="1550.00"
       y="1250.00"
       width="200.00"
       height="50.00"
       id="rect1333" />
    <rect
       x="200.00"
       y="1300.00"
       width="50.00"
       height="50.00"
       id="rect1335" />
    <rect
       x="400.00"
       y="1300.00"
       width="50.00"
       height="50.00"
       id="rect1337" />
    <rect
       x="500.00"
       y="1300.00"
       width="50.00"
       height="100.00"
       id="rect1339" />
    <rect
       x="600.00"
       y="1300.00"
       width="100.00"
       height="50.00"
       id="rect1341" />
    <rect
       x="800.00"
       y="1300.00"
       width="50.00"
       height="50.00"
       id="rect1343" />
    <rect
       x="900.00"
       y="1300.00"
       width="100.00"
       height="50.00"
       id="rect1345" />
    <rect
       x="1100.00"
       y="1300.00"
       width="50.00"
       height="50.00"
       id="rect1347" />
    <rect
       x="1200.00"
       y="1300.00"
       width="50.00"
       height="100.00"
       id="rect1349" />
    <rect
       x="1300.00"
       y="1300.00"
       width="300.00"
       height="50.00"
       id="rect1351" />
    <rect
       x="1650.00"
       y="1300.00"
       width="50.00"
       height="50.00"
       id="rect1353" />
    <rect
       x="600.00"
       y="1350.00"
       width="50.00"
       height="50.00"
       id="rect1355" />
    <rect
       x="750.00"
       y="1350.00"
       width="50.00"
       height="50.00"
       id="rect1357" />
    <rect
       x="900.00"
       y="1350.00"
       width="150.00"
       height="50.00"
       id="rect1359" />
    <rect
       x="1300.00"
       y="1350.00"
       width="50.00"
       height="50.00"
       id="rect1361" />
    <rect
       x="1500.00"
       y="1350.00"
       width="100.00"
       height="100.00"
       id="rect1363" />
    <rect
       x="1650.00"
       y="1350.00"
       width="100.00"
       height="50.00"
       id="rect1365" />
    <rect
       x="100.00"
       y="1400.00"
       width="350.00"
       height="50.00"
       id="rect1367" />
    <rect
       x="550.00"
       y="1400.00"
       width="50.00"
       height="50.00"
       id="rect1369" />
    <rect
       x="650.00"
       y="1400.00"
       width="200.00"
       height="50.00"
       id="rect1371" />
    <rect
       x="950.00"
       y="1400.00"
       width="100.00"
       height="50.00"
       id="rect1373" />
    <rect
       x="1200.00"
       y="1400.00"
       width="150.00"
       height="50.00"
       id="rect1375" />
    <rect
       x="1400.00"
       y="1400.00"
       width="50.00"
       height="50.00"
       id="rect1377" />
    <rect
       x="1650.00"
       y="1400.00"
       width="50.00"
       height="50.00"
       id="rect1379" />
    <rect
       x="100.00"
       y="1450.00"
       width="50.00"
       height="250.00"
       id="rect1381" />
    <rect
       x="400.00"
       y="1450.00"
       width="50.00"
       height="250.00"
       id="rect1383" />
    <rect
       x="600.00"
       y="1450.00"
       width="250.00"
       height="50.00"
       id="rect1385" />
    <rect
       x="900.00"
       y="1450.00"
       width="50.00"
       height="50.00"
       id="rect1387" />
    <rect
       x="1100.00"
       y="1450.00"
       width="100.00"
       height="50.00"
       id="rect1389" />
    <rect
       x="1250.00"
       y="1450.00"
       width="100.00"
       height="50.00"
       id="rect1391" />
    <rect
       x="1500.00"
       y="1450.00"
       width="250.00"
       height="50.00"
       id="rect1393" />
    <rect
       x="200.00"
       y="1500.00"
       width="150.00"
       height="150.00"
       id="rect1395" />
    <rect
       x="500.00"
       y="1500.00"
       width="50.00"
       height="150.00"
       id="rect1397" />
    <rect
       x="600.00"
       y="1500.00"
       width="100.00"
       height="100.00"
       id="rect1399" />
    <rect
       x="800.00"
       y="1500.00"
       width="200.00"
       height="50.00"
       id="rect1401" />
    <rect
       x="1050.00"
       y="1500.00"
       width="150.00"
       height="50.00"
       id="rect1403" />
    <rect
       x="1300.00"
       y="1500.00"
       width="250.00"
       height="50.00"
       id="rect1405" />
    <rect
       x="1650.00"
       y="1500.00"
       width="100.00"
       height="50.00"
       id="rect1407" />
    <rect
       x="800.00"
       y="1550.00"
       width="50.00"
       height="50.00"
       id="rect1409" />
    <rect
       x="1150.00"
       y="1550.00"
       width="50.00"
       height="50.00"
       id="rect1411" />
    <rect
       x="1300.00"
       y="1550.00"
       width="100.00"
       height="50.00"
       id="rect1413" />
    <rect
       x="1500.00"
       y="1550.00"
       width="100.00"
       height="50.00"
       id="rect1415" />
    <rect
       x="1700.00"
       y="1550.00"
       width="50.00"
       height="50.00"
       id="rect1417" />
    <rect
       x="600.00"
       y="1600.00"
       width="150.00"
       height="50.00"
       id="rect1419" />
    <rect
       x="850.00"
       y="1600.00"
       width="50.00"
       height="50.00"
       id="rect1421" />
    <rect
       x="950.00"
       y="1600.00"
       width="50.00"
       height="50.00"
       id="rect1423" />
    <rect
       x="1100.00"
       y="1600.00"
       width="50.00"
       height="50.00"
       id="rect1425" />
    <rect
       x="1200.00"
       y="1600.00"
       width="250.00"
       height="50.00"
       id="rect1427" />
    <rect
       x="1550.00"
       y="1600.00"
       width="50.00"
       height="50.00"
       id="rect1429" />
    <rect
       x="750.00"
       y="1650.00"
       width="100.00"
       height="50.00"
       id="rect1431" />
    <rect
       x="1000.00"
       y="1650.00"
       width="100.00"
       height="50.00"
       id="rect1433" />
    <rect
       x="1150.00"
       y="1650.00"
       width="50.00"
       height="50.00"
       id="rect1435" />
    <rect
       x="1450.00"
       y="1650.00"
       width="50.00"
       height="50.00"
       id="rect1437" />
    <rect
       x="1550.00"
       y="1650.00"
       width="100.00"
       height="50.00"
       id="rect1439" />
    <rect
       x="100.00"
       y="1700.00"
       width="350.00"
       height="50.00"
       id="rect1441" />
    <rect
       x="650.00"
       y="1700.00"
       width="50.00"
       height="50.00"
       id="rect1443" />
    <rect
       x="750.00"
       y="1700.00"
       width="150.00"
       height="50.00"
       id="rect1445" />
    <rect
       x="1000.00"
       y="1700.00"
       width="50.00"
       height="50.00"
       id="rect1447" />
    <rect
       x="1200.00"
       y="1700.00"
       width="200.00"
       height="50.00"
       id="rect1449" />
    <rect
       x="1650.00"
       y="1700.00"
       width="50.00"
       height="50.00"
       id="rect1451" />
  </g>
  <g
     id="g1402"
     transform="matrix(1.2050825,0,0,1.2050849,656.00015,577.16242)">
    <ellipse
       transform="matrix(0.4663,-0.8846,0.8846,0.4663,4.4083,292.0738)"
       style="fill:#ff8d36"
       cx="244.269"
       cy="142.383"
       rx="106.902"
       ry="76.063004"
       id="ellipse1286" />
    <path
       style="opacity:0.2;enable-background:new"
       d="m 294.124,47.823 c -4.442,-2.342 -9.104,-4.018 -13.914,-5.078 19.246,26.765 19.502,71.613 -2.188,112.758 -24.24,45.985 -67.79,71.984 -103.22,64.175 5.184,7.21 11.733,13.121 19.619,17.278 37.16,19.589 89.602,-6.87 117.134,-59.097 27.532,-52.227 19.728,-110.447 -17.431,-130.036 z"
       id="path1288" />
    <ellipse
       transform="matrix(0.4663,-0.8846,0.8846,0.4663,65.0547,410.0027)"
       style="fill:#69b551"
       cx="372.32901"
       cy="151.08501"
       rx="106.902"
       ry="76.063004"
       id="ellipse1290" />
    <path
       style="opacity:0.2;enable-background:new"
       d="m 423.01,57.012 c 15.611,27.141 14.502,68.784 -5.751,107.204 -27.532,52.227 -79.975,78.686 -117.135,59.097 -0.283,-0.149 -0.548,-0.321 -0.827,-0.474 5.61,9.754 13.36,17.652 23.183,22.83 37.16,19.589 89.603,-6.87 117.135,-59.097 27.322,-51.829 19.828,-109.54 -16.605,-129.56 z"
       id="path1292" />
    <path
       style="fill:#8fe673"
       d="M 96.657,145.148 C 112.376,104.982 79.206,50.498 50.68,67.359 22.154,84.22 53.889,139.55 96.657,145.148 Z"
       id="path1294" />
    <g
       id="g1300">
      <path
         style="fill:#76cc5b"
         d="M 96.657,145.148 C 79.37,105.631 17.389,90.561 9.141,122.654 c -8.248,32.093 53.316,48.778 87.516,22.494 z"
         id="path1296" />
      <path
         style="fill:#76cc5b"
         d="m 96.657,145.148 c -26.284,-34.2 -9.598,-95.765 22.494,-87.516 32.092,8.249 17.023,70.229 -22.494,87.516 z"
         id="path1298" />
    </g>
    <path
       style="fill:#599944"
       d="m 103.684,149.706 c 0.22,-0.34 0.419,-0.692 0.586,-1.059 0.026,-0.056 0.047,-0.114 0.072,-0.171 0.174,-0.404 0.325,-0.817 0.435,-1.243 L 118.65,93.261 c 1.152,-4.485 -1.548,-9.054 -6.033,-10.206 -4.485,-1.155 -9.054,1.548 -10.206,6.032 l -8.835,34.372 -18.057,-30.55 c -2.355,-3.986 -7.497,-5.308 -11.482,-2.952 -3.986,2.355 -5.307,7.497 -2.952,11.482 l 18.058,30.552 -34.372,-8.835 c -4.485,-1.155 -9.054,1.548 -10.206,6.032 -1.152,4.485 1.548,9.054 6.033,10.206 l 53.949,13.867 h 0.002 l 0.022,0.006 c 0.218,0.056 0.437,0.087 0.655,0.125 0.126,0.022 0.249,0.056 0.377,0.072 0.006,0.001 0.012,0.002 0.019,0.003 0.35,0.044 0.697,0.066 1.043,0.066 v 0 0 c 0.018,0 0.035,-0.004 0.053,-0.004 0.4,-0.002 0.8,-0.04 1.201,-0.101 0.134,-0.02 0.265,-0.053 0.397,-0.079 0.282,-0.057 0.561,-0.126 0.838,-0.213 0.143,-0.045 0.284,-0.093 0.425,-0.145 0.257,-0.096 0.51,-0.209 0.76,-0.332 0.137,-0.067 0.275,-0.131 0.408,-0.206 0.058,-0.032 0.118,-0.055 0.177,-0.089 0.278,-0.164 0.54,-0.345 0.791,-0.535 0.013,-0.01 0.028,-0.017 0.041,-0.027 0.03,-0.023 0.055,-0.053 0.084,-0.076 0.302,-0.237 0.582,-0.491 0.844,-0.761 0.038,-0.039 0.078,-0.075 0.115,-0.116 0.276,-0.296 0.523,-0.613 0.75,-0.941 0.046,-0.065 0.091,-0.132 0.135,-0.202 z"
       id="path1302" />
    <circle
       style="fill:#ff704d"
       cx="123.079"
       cy="189.05099"
       r="68.889"
       id="circle1304" />
    <path
       style="opacity:0.2;enable-background:new"
       d="m 123.082,120.165 c -5.785,0 -11.398,0.722 -16.767,2.066 29.94,7.489 52.119,34.56 52.119,66.82 0,32.26 -22.179,59.331 -52.119,66.82 5.369,1.342 10.982,2.066 16.767,2.066 38.045,0 68.886,-30.841 68.886,-68.886 0,-38.044 -30.841,-68.886 -68.886,-68.886 z"
       id="path1306" />
    <ellipse
       style="fill:#ffc552"
       cx="181.841"
       cy="231.22501"
       rx="79.976997"
       ry="78.769997"
       id="ellipse1308" />
    <path
       style="opacity:0.2;enable-background:new"
       d="m 190.075,152.863 c 22.919,13.853 38.211,38.757 38.211,67.184 0,43.508 -35.808,78.777 -79.98,78.777 -2.781,0 -5.527,-0.141 -8.236,-0.414 12.158,7.348 26.459,11.591 41.769,11.591 44.171,0 79.98,-35.269 79.98,-78.777 10e-4,-40.767 -31.443,-74.3 -71.744,-78.361 z"
       id="path1310" />
    <ellipse
       style="fill:#9773bf"
       cx="276.01401"
       cy="215.912"
       rx="82.593002"
       ry="81.351997"
       id="ellipse1312" />
    <path
       style="opacity:0.2;enable-background:new"
       d="m 304.083,139.391 c 13.048,14.386 20.99,33.36 20.99,54.168 0,44.929 -36.979,81.351 -82.594,81.351 -9.857,0 -19.306,-1.708 -28.07,-4.827 15.125,16.675 37.115,27.182 61.603,27.182 45.616,0 82.594,-36.422 82.594,-81.351 0,-35.219 -22.728,-65.205 -54.523,-76.523 z"
       id="path1314" />
    <path
       style="fill:#8fe673"
       d="m 487.724,225.556 c 0,-16.748 -13.577,-30.324 -30.324,-30.324 -5.555,0 -10.756,1.501 -15.233,4.108 -4.031,-12.016 -15.374,-20.678 -28.748,-20.678 -5.555,0 -10.756,1.5 -15.234,4.108 -4.031,-12.016 -15.374,-20.678 -28.748,-20.678 -13.374,0 -24.718,8.662 -28.748,20.678 -4.478,-2.608 -9.679,-4.108 -15.234,-4.108 -13.373,0 -24.718,8.662 -28.748,20.678 -4.478,-2.608 -9.679,-4.108 -15.233,-4.108 -16.748,0 -30.324,13.577 -30.324,30.324 v 45.571 h 236.575 v -45.571 z"
       id="path1316" />
    <g
       style="opacity:0.2"
       id="g1320">
      <path
         d="m 457.399,195.233 c -3.946,0 -7.706,0.769 -11.162,2.143 11.206,4.454 19.131,15.39 19.131,28.182 v 45.571 h 22.356 v -45.571 c 0,-16.75 -13.577,-30.325 -30.325,-30.325 z"
         id="path1318" />
    </g>
    <polygon
       style="fill:#f2ae5d"
       points="261.82,259.949 45.205,290.754 45.205,470.638 479.011,470.638 479.011,290.754 "
       id="polygon1322" />
    <polygon
       style="opacity:0.2;enable-background:new"
       points="45.205,290.754 45.205,324.093 479.011,324.093 479.011,290.754 261.82,259.949 "
       id="polygon1324" />
    <rect
       x="20.027"
       y="229.336"
       style="fill:#f2ae5d"
       width="483.58701"
       height="61.221001"
       id="rect1326" />
    <path
       d="m 356.234,51.785 c -10.21,5.151 -19.883,12.058 -28.723,20.387 -6.612,-14.057 -16.625,-24.877 -29.475,-31.651 -23.366,-12.318 -52.508,-9.283 -79.953,8.329 -3.897,2.5 -5.029,7.686 -2.527,11.584 2.502,3.898 7.686,5.028 11.584,2.527 22.215,-14.255 45.204,-17.029 63.079,-7.607 11.338,5.977 19.829,16.406 24.739,30.311 0.24,0.68 -4.291,5.51 -4.812,6.216 -5.35,7.261 -10.193,15.162 -14.224,23.327 -0.459,0.931 -5.21,12.246 -5.448,12.21 -27.418,-4.231 -55.781,3.999 -76.27,22.795 -0.129,-0.05 -0.259,-0.093 -0.389,-0.142 -8.803,-3.389 -18.137,-5.335 -27.558,-5.779 -0.098,-0.004 -0.196,-0.015 -0.295,-0.019 -0.013,-0.019 -0.028,-0.037 -0.041,-0.056 -0.753,-1.055 -1.534,-2.082 -2.333,-3.092 -0.032,-0.041 -0.065,-0.082 -0.097,-0.123 -2.511,-3.158 -5.238,-6.09 -8.158,-8.78 2.401,-7.248 5.444,-14.385 9.078,-21.278 5.653,-10.723 12.517,-20.499 20.405,-29.057 3.138,-3.404 2.922,-8.709 -0.483,-11.846 -3.405,-3.139 -8.709,-2.922 -11.846,0.483 -8.872,9.625 -16.58,20.594 -22.909,32.601 -3.219,6.106 -6.02,12.39 -8.386,18.777 -7.089,-4.021 -14.813,-6.907 -22.921,-8.514 7.124,-15.87 8.73,-32.627 3.866,-45.08 -3.726,-9.54 -11.147,-16.174 -20.895,-18.679 -2.623,-0.675 -5.264,-1.016 -7.847,-1.016 -11.11,0 -21.032,6.25 -28.003,17.216 -7.269,-6.443 -15.39,-9.885 -23.641,-9.885 -5.332,0 -10.492,1.451 -15.334,4.314 C 33.97,67.615 29.075,81.35 32.56,97.084 16.286,98.088 4.608,106.748 1.027,120.682 c -2.43,9.454 -0.529,18.56 5.498,26.332 8.418,10.856 24.431,18.004 42.725,19.368 -2.228,7.206 -3.433,14.858 -3.433,22.786 0,11.143 2.355,21.954 6.884,31.904 H 20.033 c -4.63,0 -8.383,3.754 -8.383,8.383 v 61.221 c 0,4.63 3.754,8.383 8.383,8.383 h 16.505 v 171.499 c 0,4.63 3.754,8.383 8.383,8.383 h 433.805 c 4.631,0 8.383,-3.754 8.383,-8.383 v -171.5 h 16.506 c 4.631,0 8.383,-3.754 8.383,-8.383 v -61.221 c 0,-4.63 -3.752,-8.383 -8.383,-8.383 h -7.786 c -2.284,-19.181 -18.639,-34.106 -38.425,-34.106 -3.075,0 -6.122,0.386 -9.088,1.102 5.826,-11.541 10.171,-23.575 12.887,-35.826 1.002,-4.519 -1.849,-8.997 -6.369,-10 -4.518,-0.999 -8.998,1.85 -10,6.37 -2.142,9.659 -5.416,19.186 -9.756,28.401 -0.093,-0.063 -0.191,-0.116 -0.284,-0.178 -6.243,-4.174 -13.873,-6.434 -21.373,-6.438 -3.788,0 -7.542,0.558 -11.141,1.64 -6.955,-11.159 -19.264,-18.21 -32.841,-18.21 -7.744,0 -15.489,2.427 -21.882,6.789 -10.659,-13.429 -24.741,-23.404 -40.654,-29.04 -0.162,-0.057 5.44,-11.693 5.984,-12.71 18.018,-33.72 63.509,-76.869 105.388,-54.795 17.616,9.287 28.305,29.476 29.327,55.391 0.182,4.627 4.074,8.227 8.708,8.046 4.627,-0.183 8.228,-4.081 8.046,-8.708 -1.265,-32.055 -15.211,-57.408 -38.262,-69.561 -20.435,-10.776 -45.245,-9.87 -69.86,2.547 z M 181.507,160.956 c 0.113,0 0.225,-0.008 0.336,-0.008 6.484,0 12.88,0.839 19.136,2.545 0.219,0.059 0.439,0.116 0.658,0.178 0.14,0.039 0.276,0.088 0.416,0.129 -5.681,7.8 -10.008,16.396 -12.881,25.477 -0.036,0.112 -0.068,0.225 -0.103,0.338 -2.992,9.586 -4.34,19.666 -3.958,29.701 0.011,0.282 0.023,0.562 0.037,0.844 0.015,0.304 0.022,0.608 0.04,0.913 h -74.139 c 0.047,-0.32 0.089,-0.642 0.141,-0.96 2.395,-14.751 9.722,-28.546 20.445,-38.931 13.375,-12.952 31.077,-20.134 49.872,-20.226 z m -21.212,-19.51 c 0.069,0.058 0.129,0.127 0.2,0.183 1.636,1.29 3.189,2.666 4.676,4.106 -25.603,4.814 -48.292,21.134 -60.94,43.928 -5.106,9.2 -8.524,19.585 -9.936,30.118 -0.05,0.377 -0.113,0.75 -0.159,1.128 -0.007,0.055 -0.017,0.108 -0.022,0.163 H 71.689 c -5.968,-9.573 -9.103,-20.519 -9.103,-31.904 0,-20.842 11.171,-40.663 28.899,-51.568 0.091,-0.056 0.178,-0.116 0.268,-0.171 20.632,-12.464 49.667,-11.882 68.542,4.017 z M 19.776,136.739 c -2.812,-3.626 -3.633,-7.514 -2.511,-11.883 2.359,-9.176 11.371,-11.103 18.517,-11.103 2.355,0 4.851,0.219 7.418,0.651 3.085,0.519 6.21,-0.728 8.092,-3.232 1.881,-2.505 2.21,-5.848 0.852,-8.671 -2.298,-4.776 -8.889,-20.897 2.807,-27.809 2.256,-1.332 4.48,-1.981 6.803,-1.981 6.175,0 13.071,4.706 18.92,12.91 1.818,2.551 4.908,3.876 8.006,3.434 3.1,-0.44 5.697,-2.572 6.732,-5.527 3.982,-11.363 10.705,-18.147 17.985,-18.147 1.176,0 2.412,0.164 3.673,0.488 4.575,1.176 7.666,3.969 9.452,8.541 3.675,9.41 1.081,24.359 -6.27,37.541 -0.236,0.009 -0.469,0.028 -0.705,0.039 -1.938,0.087 -3.874,0.25 -5.799,0.483 l 4.907,-19.094 c 1.152,-4.485 -1.548,-9.054 -6.032,-10.206 -4.486,-1.154 -9.054,1.548 -10.206,6.032 l -7.173,27.907 c -0.058,0.022 -0.115,0.046 -0.173,0.068 -1.42,0.554 -2.832,1.142 -4.216,1.781 L 75.524,93.023 c -2.355,-3.985 -7.496,-5.308 -11.482,-2.951 -3.986,2.355 -5.307,7.497 -2.952,11.483 l 15.377,26.016 c -1.236,0.936 -2.442,1.906 -3.618,2.915 l -28.072,-7.215 c -4.487,-1.154 -9.054,1.548 -10.206,6.032 -1.152,4.485 1.548,9.054 6.032,10.206 l 19.454,5 c -1.052,1.482 -2.05,3.003 -2.996,4.559 -0.02,0.032 -0.04,0.065 -0.06,0.097 -0.141,0.234 -0.291,0.462 -0.429,0.696 -15.729,0.239 -30.583,-5.11 -36.796,-13.122 z m 475.457,101.098 v 44.454 H 114.824 c -4.63,0 -8.383,3.754 -8.383,8.383 0,4.63 3.754,8.383 8.383,8.383 h 355.519 v 73.09 c -13.459,-0.11 -27.11,-0.082 -39.937,0.085 -4.63,0.06 -8.333,3.863 -8.272,8.493 0.06,4.592 3.8,8.274 8.38,8.274 0.037,0 0.074,0 0.113,0 12.754,-0.168 26.332,-0.193 39.717,-0.084 v 73.26 H 53.305 v -73.189 c 114.903,-0.189 227.005,-0.184 342.397,0.013 0.004,0 0.01,0 0.015,0 4.624,0 8.376,-3.745 8.383,-8.369 0.008,-4.63 -3.739,-8.389 -8.369,-8.398 -115.4,-0.198 -227.514,-0.202 -342.425,-0.013 v -73.161 h 30.223 c 4.63,0 8.383,-3.754 8.383,-8.383 0,-4.629 -3.754,-8.383 -8.383,-8.383 H 44.921 28.416 V 237.838 Z M 343.646,190.732 c 5.259,-1.98 5.677,-8.307 8.967,-12.248 10.821,-12.961 32.275,-8.89 37.628,7.068 0.101,0.298 0.217,0.59 0.348,0.873 0.92,1.977 2.583,3.531 4.648,4.308 4.755,1.791 9.345,-2.236 13.88,-3.144 8.114,-1.625 16.658,1.621 21.688,8.164 0.08,0.104 0.172,0.196 0.256,0.296 3.145,3.712 3.039,9.328 8.156,11.253 2.357,0.886 4.992,0.667 7.171,-0.601 3.335,-1.943 7.146,-2.969 11.016,-2.969 10.521,0 19.335,7.443 21.455,17.339 h -218.83 c 0.329,-1.535 0.822,-2.995 1.47,-4.422 5.269,-11.609 19.964,-16.37 30.992,-9.949 2.15,1.251 4.846,1.477 7.171,0.602 2.36,-0.888 4.195,-2.79 4.996,-5.18 3.001,-8.948 11.361,-14.96 20.8,-14.96 6.1,-0.001 12.235,5.812 18.188,3.57 z m -8.845,-19.191 c -0.169,-0.042 -0.342,-0.072 -0.512,-0.112 -2.891,-0.677 -5.861,-1.035 -8.831,-1.035 -13.577,0 -25.886,7.05 -32.84,18.209 -3.598,-1.081 -7.353,-1.639 -11.14,-1.639 -18.568,0 -35.294,14.265 -38.219,32.583 -0.08,0.505 -0.156,1.015 -0.218,1.522 h -41.039 c -1.639,-0.006 1.272,-16.976 1.519,-18.401 7.117,-41.191 50.341,-67.201 90.359,-57.469 16.024,3.899 30.75,13.418 40.921,26.342 z"
       id="path1328" />
    <g
       id="g1330" />
    <g
       id="g1332" />
    <g
       id="g1334" />
    <g
       id="g1336" />
    <g
       id="g1338" />
    <g
       id="g1340" />
    <g
       id="g1342" />
    <g
       id="g1344" />
    <g
       id="g1346" />
    <g
       id="g1348" />
    <g
       id="g1350" />
    <g
       id="g1352" />
    <g
       id="g1354" />
    <g
       id="g1356" />
    <g
       id="g1358" />
  </g>
</svg>
