<?xml version="1.0" encoding="UTF-8"?>
<svg xmlns="http://www.w3.org/2000/svg" xmlns:xlink="http://www.w3.org/1999/xlink" width="792" height="612" viewBox="0 0 792 612">
<path fill-rule="nonzero" fill="rgb(89.689636%, 8.537292%, 20.993042%)" fill-opacity="1" d="M 659.792969 307.695312 C 659.792969 454.398438 540.863281 573.328125 394.160156 573.328125 C 247.453125 573.328125 128.527344 454.398438 128.527344 307.695312 C 128.527344 160.988281 247.453125 42.058594 394.160156 42.058594 C 540.863281 42.058594 659.792969 160.988281 659.792969 307.695312 "/>
<path fill="none" stroke-width="11.948" stroke-linecap="butt" stroke-linejoin="miter" stroke="rgb(13.729858%, 12.159729%, 12.548828%)" stroke-opacity="1" stroke-miterlimit="10" d="M -0.00003125 -0.0019125 C -0.00003125 -146.705038 -118.929719 -265.634725 -265.632844 -265.634725 C -412.339875 -265.634725 -531.265656 -146.705038 -531.265656 -0.0019125 C -531.265656 146.705119 -412.339875 265.634806 -265.632844 265.634806 C -118.929719 265.634806 -0.00003125 146.705119 -0.00003125 -0.0019125 Z M -0.00003125 -0.0019125 " transform="matrix(1, 0, 0, -1, 659.793, 307.6934)"/>
<path fill-rule="nonzero" fill="rgb(100%, 100%, 100%)" fill-opacity="1" d="M 578.394531 308.195312 C 578.394531 409.671875 496.132812 491.933594 394.65625 491.933594 C 293.183594 491.933594 210.921875 409.671875 210.921875 308.195312 C 210.921875 206.71875 293.183594 124.457031 394.65625 124.457031 C 496.132812 124.457031 578.394531 206.71875 578.394531 308.195312 "/>
<path fill="none" stroke-width="6.226" stroke-linecap="butt" stroke-linejoin="miter" stroke="rgb(13.729858%, 12.159729%, 12.548828%)" stroke-opacity="1" stroke-miterlimit="10" d="M -0.00096875 -0.0000125 C -0.00096875 -101.476575 -82.262687 -183.738294 -183.73925 -183.738294 C -285.211906 -183.738294 -367.473625 -101.476575 -367.473625 -0.0000125 C -367.473625 101.47655 -285.211906 183.738269 -183.73925 183.738269 C -82.262687 183.738269 -0.00096875 101.47655 -0.00096875 -0.0000125 Z M -0.00096875 -0.0000125 " transform="matrix(1, 0, 0, -1, 578.3955, 308.1953)"/>
<path fill-rule="nonzero" fill="rgb(100%, 100%, 100%)" fill-opacity="1" stroke-width="3.082" stroke-linecap="butt" stroke-linejoin="miter" stroke="rgb(13.729858%, 12.159729%, 12.548828%)" stroke-opacity="1" stroke-miterlimit="10" d="M 0.00096875 0.0015125 L -15.127938 7.2437 L -15.209969 7.130419 L -3.702156 -5.03755 Z M 17.325187 -19.264112 L 4.911125 -36.146925 L -3.034188 -30.303175 C -2.858406 -27.877394 -5.030281 -26.014112 -6.420906 -24.28755 L -33.444344 5.548388 L -17.456063 27.298388 L 20.262687 10.583544 C 21.883781 9.829638 24.813469 8.5562 26.547844 9.927294 L 34.493156 4.08745 L 20.313469 -15.201612 L 12.368156 -9.357862 C 12.833 -7.85005 12.418937 -6.66255 11.215812 -5.779737 C 10.743156 -5.432081 10.23925 -5.236769 9.73925 -5.045362 L 4.313469 -12.428175 C 4.6455 -12.85005 5.032219 -13.310987 5.450187 -13.619581 C 6.704094 -14.541456 8.098625 -14.5063 9.379875 -13.420362 Z M 17.325187 -19.264112 " transform="matrix(1, 0, 0, -1, 218.542, 177.7437)"/>
<path fill-rule="nonzero" fill="rgb(100%, 100%, 100%)" fill-opacity="1" stroke-width="3.082" stroke-linecap="butt" stroke-linejoin="miter" stroke="rgb(13.729858%, 12.159729%, 12.548828%)" stroke-opacity="1" stroke-miterlimit="10" d="M 0.00000625 0.00096875 L 1.289069 1.000969 C 4.941413 3.829094 5.199225 6.161125 2.4961 9.649406 C -0.124994 13.036125 -2.453119 13.368156 -6.101556 10.540031 L -7.394525 9.540031 Z M -13.792962 17.797844 L -12.781244 18.579094 C -9.468744 21.1455 -8.300775 23.118156 -10.843744 26.399406 C -13.34765 29.629875 -15.757806 28.911125 -18.902337 26.477531 L -19.914056 25.692375 Z M -9.828119 -22.225594 L -15.867181 -14.428719 C -14.699212 -12.456062 -15.5664 -10.991219 -16.664056 -9.459969 L -33.234369 11.922844 C -34.445306 13.368156 -35.648431 14.571281 -37.84765 13.934563 L -43.890619 21.727531 L -22.105462 38.606438 C -18.339837 41.5205 -14.167962 44.836906 -9.480462 45.512688 C -4.339837 46.297844 -0.296869 43.516594 2.523444 39.875969 C 6.421881 34.852531 6.894538 29.719719 2.578131 24.157219 L 2.656256 24.055656 C 9.390631 28.122063 15.019538 25.262688 18.9961 20.133781 C 21.77735 16.543938 23.980475 11.848625 22.6211 7.102531 C 21.187506 1.883781 16.843756 -1.557625 12.632819 -4.82325 Z M -9.828119 -22.225594 " transform="matrix(1, 0, 0, -1, 266.5664, 147.7705)"/>
<path fill-rule="nonzero" fill="rgb(100%, 100%, 100%)" fill-opacity="1" stroke-width="3.082" stroke-linecap="butt" stroke-linejoin="miter" stroke="rgb(13.729858%, 12.159729%, 12.548828%)" stroke-opacity="1" stroke-miterlimit="10" d="M 0.00190625 0.00048125 C -0.873094 1.883294 -1.556688 3.85595 -4.166063 4.0747 L -8.322313 13.016106 L 12.611281 22.750481 L 16.771437 13.805169 C 15.255812 11.66845 16.322219 9.875481 17.201125 7.996575 L 27.728469 -14.659675 C 28.603469 -16.542487 29.287062 -18.515144 31.896437 -18.733894 L 36.052687 -27.6753 L 15.119094 -37.409675 L 10.958937 -28.464362 C 12.474562 -26.33155 11.40425 -24.538581 10.52925 -22.655769 Z M 0.00190625 0.00048125 " transform="matrix(1, 0, 0, -1, 287.5645, 99.8872)"/>
<path fill-rule="nonzero" fill="rgb(100%, 100%, 100%)" fill-opacity="1" stroke-width="3.082" stroke-linecap="butt" stroke-linejoin="miter" stroke="rgb(13.729858%, 12.159729%, 12.548828%)" stroke-opacity="1" stroke-miterlimit="10" d="M 0.0014375 -0.0005 L 0.138156 0.03075 L -1.861844 9.620594 C -2.283719 11.651844 -2.498562 13.729969 -4.99075 14.534656 L -7.002469 24.190906 L 12.052219 28.163562 L 14.063938 18.507312 C 12.103 16.772937 12.735813 14.784656 13.161594 12.753406 L 21.38425 -26.691906 L 3.376438 -30.449719 L -12.779812 -8.297375 L -12.920437 -8.328625 L -10.947781 -17.793469 C -10.522 -19.824719 -10.307156 -21.902844 -7.818875 -22.707531 L -5.80325 -32.363781 L -24.299344 -36.21925 L -26.314969 -26.566906 C -24.354031 -24.832531 -24.986844 -22.840344 -25.408719 -20.809094 L -30.506375 3.647937 C -30.932156 5.679187 -31.147 7.753406 -33.639187 8.562 L -35.650906 18.214344 L -15.486844 22.421375 Z M 0.0014375 -0.0005 " transform="matrix(1, 0, 0, -1, 355.397, 87.312)"/>
<path fill-rule="nonzero" fill="rgb(100%, 100%, 100%)" fill-opacity="1" stroke-width="3.082" stroke-linecap="butt" stroke-linejoin="miter" stroke="rgb(13.729858%, 12.159729%, 12.548828%)" stroke-opacity="1" stroke-miterlimit="10" d="M 0.00098125 0.00004375 L -18.20605 1.3477 L -18.116206 2.578169 C -17.932613 5.0352 -17.01855 9.718794 -21.198238 10.027388 C -24.741206 10.289106 -25.249019 7.269575 -25.4248 4.875044 L -27.252925 -19.773394 C -27.295894 -20.355425 -27.2373 -23.417925 -23.694331 -23.679644 C -19.514644 -23.988237 -19.729488 -19.222612 -19.545894 -16.699175 L -19.3623 -14.242144 L -22.620113 -13.999956 L -21.819331 -3.195269 L -0.354488 -4.789019 L -2.315425 -31.24605 C -8.627925 -35.722612 -17.709956 -36.156206 -25.432613 -35.585894 C -30.885738 -35.179644 -37.092769 -34.328081 -41.166988 -30.710894 C -46.444331 -25.960894 -46.354488 -20.894487 -45.901363 -14.812456 L -44.342769 6.277388 C -43.975581 11.195356 -42.983394 15.937544 -38.342769 18.9727 C -33.694331 22.078169 -27.608394 22.5352 -22.014644 22.121138 C -13.721675 21.507856 -5.280269 19.125044 1.032231 13.9727 Z M 0.00098125 0.00004375 " transform="matrix(1, 0, 0, -1, 433.9248, 80.5352)"/>
<path fill-rule="nonzero" fill="rgb(100%, 100%, 100%)" fill-opacity="1" stroke-width="3.082" stroke-linecap="butt" stroke-linejoin="miter" stroke="rgb(13.729858%, 12.159729%, 12.548828%)" stroke-opacity="1" stroke-miterlimit="10" d="M 0.00098125 -0.00191875 L 1.403325 -0.509731 C 5.274419 -1.912075 6.942387 -1.064419 8.313481 2.716831 L 15.454106 22.419956 C 16.8252 26.201206 16.086919 27.919956 12.211919 29.3223 L 10.809575 29.830112 Z M 19.551762 39.568394 C 24.426762 37.802769 30.016606 35.709019 33.051762 31.365269 C 36.508794 26.314487 35.254887 21.388706 33.438481 16.3848 L 26.344731 -3.197231 C 24.485356 -8.322231 22.782231 -12.189419 17.094731 -14.337856 C 11.735356 -16.400356 6.551762 -14.8652 1.141606 -12.904263 L -24.104488 -3.759731 L -20.745113 5.513706 C -18.452144 5.580112 -17.678706 7.095737 -16.971675 8.841831 L -7.752925 34.279331 C -7.155269 36.1348 -6.733394 37.705112 -8.51855 39.248081 L -5.155269 48.521519 Z M 19.551762 39.568394 " transform="matrix(1, 0, 0, -1, 462.4248, 114.2598)"/>
<path fill-rule="nonzero" fill="rgb(100%, 100%, 100%)" fill-opacity="1" stroke-width="3.082" stroke-linecap="butt" stroke-linejoin="miter" stroke="rgb(13.729858%, 12.159729%, 12.548828%)" stroke-opacity="1" stroke-miterlimit="10" d="M 0.00099375 -0.00051875 C -0.229475 -0.316925 -2.717756 -3.398956 0.450213 -5.688019 C 3.618181 -7.973175 5.762713 -4.641144 5.989275 -4.324737 L 20.72365 16.081513 C 20.954119 16.397919 23.403338 19.429169 20.235369 21.718231 C 17.0674 24.003388 14.965838 20.722138 14.735369 20.409638 Z M 21.860369 -14.746612 C 13.809588 -25.89505 4.309588 -23.277862 -6.573225 -15.418487 C -17.459944 -7.555206 -22.936506 0.6362 -14.881819 11.788544 L -1.174787 30.776825 C 6.8799 41.925263 16.3799 39.308075 27.262713 31.4487 C 38.145525 23.585419 43.622088 15.390106 35.571306 4.241669 Z M 21.860369 -14.746612 " transform="matrix(1, 0, 0, -1, 513.6201, 136.5112)"/>
<path fill-rule="nonzero" fill="rgb(100%, 100%, 100%)" fill-opacity="1" stroke-width="3.082" stroke-linecap="butt" stroke-linejoin="miter" stroke="rgb(13.729858%, 12.159729%, 12.548828%)" stroke-opacity="1" stroke-miterlimit="10" d="M -0.00003125 0.00148125 L 0.0898125 -0.1118 L 7.80075 5.927263 C 9.437469 7.204606 11.203094 8.317888 10.824188 10.907731 L 18.585906 16.985856 L 30.585906 1.657731 L 22.820281 -4.420394 C 20.398406 -3.428206 18.8945 -4.877425 17.257781 -6.154769 L -14.464875 -30.9868 L -25.804719 -16.498519 L -13.101594 7.790544 L -13.187531 7.899919 L -20.800812 1.942888 C -22.433625 0.665544 -24.19925 -0.447737 -23.820344 -3.037581 L -31.582062 -9.115706 L -43.2305 5.7632 L -35.468781 11.841325 C -33.046906 10.849138 -31.539094 12.298356 -29.906281 13.579606 L -10.238312 28.970231 C -8.6055 30.251481 -6.839875 31.364763 -7.218781 33.954606 L 0.546844 40.032731 L 13.246063 23.810075 Z M -0.00003125 0.00148125 " transform="matrix(1, 0, 0, -1, 575.3555, 175.5757)"/>
<path fill-rule="nonzero" fill="rgb(100%, 100%, 100%)" fill-opacity="1" stroke-width="3.113" stroke-linecap="butt" stroke-linejoin="miter" stroke="rgb(13.729858%, 12.159729%, 12.548828%)" stroke-opacity="1" stroke-miterlimit="10" d="M 0.001025 0.0009375 L -19.229444 -6.389687 L -33.784131 37.426719 L -24.35835 40.559531 C -22.393506 38.786094 -20.475538 39.649375 -18.487256 40.309531 L 5.395556 48.243125 C 7.379931 48.903281 9.430712 49.360313 9.946337 51.954063 L 19.376025 55.090781 L 33.934619 11.274375 L 15.942431 5.297813 L 10.364306 22.086875 L 11.977587 22.622031 C 15.575244 23.817344 16.883837 24.856406 15.251025 29.770469 L 14.887744 30.864219 L 5.399462 27.711875 L 9.227587 16.176719 L -1.131788 12.735313 L -4.963819 24.270469 L -15.694288 20.704063 L -15.331006 19.610313 C -13.518506 14.149375 -11.678663 14.836875 -7.315381 16.211875 L -5.5771 16.79 Z M 0.001025 0.0009375 " transform="matrix(1, 0, 0, -1, 182.5771, 390.79)"/>
<path fill-rule="nonzero" fill="rgb(100%, 100%, 100%)" fill-opacity="1" stroke-width="3.113" stroke-linecap="butt" stroke-linejoin="miter" stroke="rgb(13.729858%, 12.159729%, 12.548828%)" stroke-opacity="1" stroke-miterlimit="10" d="M 0.00093125 0.0009375 L 8.688431 4.817344 C 10.946244 3.438437 12.672806 4.641562 14.504838 5.657187 L 36.51265 17.864219 C 38.340775 18.875937 40.274369 19.704062 40.301713 22.348594 L 48.993119 27.168906 L 60.32515 6.7275 L 51.63765 1.911094 C 49.379838 3.29 47.653275 2.086875 45.82515 1.07125 L 20.727494 -12.846719 L 21.633744 -14.479531 C 24.004838 -18.760781 26.317338 -17.3975 29.403275 -15.682656 L 37.348588 -11.276406 L 45.5439 -26.057656 L 21.76265 -39.245156 Z M 0.00093125 0.0009375 " transform="matrix(1, 0, 0, -1, 169.6436, 417.1025)"/>
<path fill-rule="nonzero" fill="rgb(100%, 100%, 100%)" fill-opacity="1" stroke-width="3.113" stroke-linecap="butt" stroke-linejoin="miter" stroke="rgb(13.729858%, 12.159729%, 12.548828%)" stroke-opacity="1" stroke-miterlimit="10" d="M 0.00141875 -0.00095625 L -13.16655 -15.399394 L -48.2603 14.604512 L -41.803269 22.155294 C -39.201706 21.651387 -38.006394 23.385762 -36.647019 24.975606 L -20.29155 44.100606 C -18.932175 45.69045 -17.408738 47.139669 -18.307175 49.62795 L -11.850144 57.182637 L 23.2397 27.178731 L 10.919387 12.768575 L -2.525925 24.264669 L -1.420456 25.557637 C 1.040481 28.44045 1.626419 30.006856 -2.311081 33.370137 L -3.186081 34.116231 L -9.686081 26.518575 L -0.4478 18.620137 L -7.54155 10.319356 L -16.779831 18.2217 L -24.127488 9.624044 L -23.256394 8.87795 C -18.881394 5.139669 -17.662644 6.674825 -14.6353 10.104512 L -13.443894 11.495137 Z M 0.00141875 -0.00095625 " transform="matrix(1, 0, 0, -1, 253.1978, 489.1592)"/>
<path fill-rule="nonzero" fill="rgb(100%, 100%, 100%)" fill-opacity="1" stroke-width="3.113" stroke-linecap="butt" stroke-linejoin="miter" stroke="rgb(13.729858%, 12.159729%, 12.548828%)" stroke-opacity="1" stroke-miterlimit="10" d="M -0.00101875 0.0000375 L 0.127887 -0.0663687 L 16.506794 17.25785 L 37.401325 6.312538 L 32.79195 -2.488244 C 30.147419 -2.578087 29.366169 -4.531212 28.397419 -6.386681 L 16.721637 -28.67965 C 15.752887 -30.535119 14.588825 -32.285119 16.022419 -34.511681 L 11.413044 -43.312462 L -8.528363 -32.871056 L -3.918988 -24.070275 C -1.27055 -23.980431 -0.493206 -22.027306 0.475544 -20.175744 L 7.452106 -6.855431 L 7.3232 -6.785119 L -14.196331 -29.902306 L -19.547894 -27.101525 L -13.188519 3.953163 L -13.317425 4.019569 L -20.290081 -9.296837 C -21.262738 -11.152306 -22.422894 -12.902306 -20.993206 -15.128869 L -25.602581 -23.933556 L -42.418988 -15.124962 L -37.809613 -6.324181 C -35.165081 -6.230431 -34.387738 -4.277306 -33.415081 -2.425744 L -21.7393 19.871131 C -20.77055 21.722694 -19.610394 23.4766 -21.040081 25.703163 L -16.430706 34.503944 L 5.038044 23.261756 Z M -0.00101875 0.0000375 " transform="matrix(1, 0, 0, -1, 302.0518, 504.9141)"/>
<path fill-rule="nonzero" fill="rgb(100%, 100%, 100%)" fill-opacity="1" stroke-width="3.113" stroke-linecap="butt" stroke-linejoin="miter" stroke="rgb(13.729858%, 12.159729%, 12.548828%)" stroke-opacity="1" stroke-miterlimit="10" d="M 0.000525 -0.00095625 L -2.069787 -20.157206 L -47.999475 -15.446269 L -46.98385 -5.55955 C -44.561975 -4.493144 -44.561975 -2.391581 -44.347131 -0.30955 L -41.776819 24.725606 C -41.565881 26.803731 -41.136194 28.862325 -43.292444 30.401388 L -42.276819 40.2842 L 3.652869 35.569356 L 1.715369 16.713888 L -15.882287 18.518575 L -15.710412 20.206075 C -15.323694 23.979513 -15.73385 25.600606 -20.886194 26.12795 L -22.030725 26.245138 L -23.050256 16.295919 L -10.960412 15.057638 L -12.0776 4.194356 L -24.167444 5.436544 L -25.319787 -5.813456 L -24.175256 -5.930644 C -18.4526 -6.520487 -18.323694 -4.55955 -17.784631 -0.0165812 L -17.597131 1.807638 Z M 0.000525 -0.00095625 " transform="matrix(1, 0, 0, -1, 391.0151, 539.7217)"/>
<path fill-rule="nonzero" fill="rgb(100%, 100%, 100%)" fill-opacity="1" stroke-width="3.113" stroke-linecap="butt" stroke-linejoin="miter" stroke="rgb(13.729858%, 12.159729%, 12.548828%)" stroke-opacity="1" stroke-miterlimit="10" d="M 0.000025 -0.00096875 L 0.14065 0.026375 L -1.667944 9.7295 C -2.050756 11.784188 -2.222631 13.881844 -4.722631 14.745125 L -6.542944 24.514656 L 12.82815 28.124031 L 14.648462 18.3545 C 12.625025 16.647469 13.222681 14.631844 13.605494 12.57325 L 21.039087 -27.329094 L 2.726587 -30.743156 L -13.121069 -8.098625 L -13.2656 -8.122062 L -11.480444 -17.696281 C -11.097631 -19.754875 -10.925756 -21.852531 -8.425756 -22.715812 L -6.605444 -32.481437 L -25.410131 -35.985344 L -27.230444 -26.219719 C -25.207006 -24.512687 -25.804663 -22.493156 -26.183569 -20.438469 L -30.79685 4.303719 C -31.179663 6.358406 -31.351538 8.456063 -33.851538 9.319344 L -35.67185 19.088875 L -15.167944 22.909188 Z M 0.000025 -0.00096875 " transform="matrix(1, 0, 0, -1, 445.8906, 522.792)"/>
<path fill-rule="nonzero" fill="rgb(100%, 100%, 100%)" fill-opacity="1" stroke-width="3.113" stroke-linecap="butt" stroke-linejoin="miter" stroke="rgb(13.729858%, 12.159729%, 12.548828%)" stroke-opacity="1" stroke-miterlimit="10" d="M 0.00095 0.001 L 46.172825 26.317406 L 58.700169 4.340844 L 46.891575 -2.393531 L 42.231419 5.786156 C 40.9697 8.001 39.723606 8.872094 37.317356 7.579125 L 51.528294 -17.354469 C 52.56345 -19.170875 53.415012 -21.096656 56.06345 -21.09275 L 60.981419 -29.725563 L 40.676731 -41.299781 L 35.754856 -32.666969 C 37.106419 -30.389625 35.883762 -28.678688 34.848606 -26.862281 L 20.637669 -1.932594 C 18.297825 -3.34275 18.411106 -4.854469 19.676731 -7.069313 L 24.336887 -15.249 L 12.528294 -21.979469 Z M 0.00095 0.001 " transform="matrix(1, 0, 0, -1, 469.5928, 489.751)"/>
<path fill-rule="nonzero" fill="rgb(100%, 100%, 100%)" fill-opacity="1" stroke-width="3.113" stroke-linecap="butt" stroke-linejoin="miter" stroke="rgb(13.729858%, 12.159729%, 12.548828%)" stroke-opacity="1" stroke-miterlimit="10" d="M 0.00100625 0.00195 L 1.051788 1.630856 C 3.3096 5.138669 2.360381 7.287106 -0.936494 9.412106 C -3.963837 11.357419 -6.311494 11.330075 -8.569306 7.822262 L -9.620087 6.18945 Z M 14.786163 -9.517581 C 16.547881 -10.646488 18.188506 -11.958988 20.536163 -10.732425 L 28.891631 -16.111331 L 16.243194 -35.767581 L 7.887725 -30.388675 C 8.032256 -27.744144 6.157256 -26.794925 4.399444 -25.662113 L -16.764619 -12.044925 C -18.522431 -10.916019 -20.166962 -9.603519 -22.514619 -10.826175 L -30.866181 -5.451175 L -16.432587 16.986325 C -13.862275 20.978512 -10.686494 26.0332 -6.506806 28.302731 C -1.526337 31.083981 3.418975 29.951169 7.704131 27.197262 C 12.8721 23.869137 16.290069 19.275387 13.774444 12.3457 L 13.883819 12.275387 C 18.254913 16.646481 21.321319 17.06445 26.102569 13.986325 L 28.797881 12.255856 C 30.391631 11.228512 32.700225 9.744137 34.700225 11.279294 L 43.055694 5.904294 L 31.887725 -11.455081 C 28.876006 -10.455081 26.40335 -9.4668 18.657256 -4.224613 C 14.922881 -1.818363 12.77835 -1.041019 9.829131 -5.384769 L 9.40335 -6.048831 Z M 14.786163 -9.517581 " transform="matrix(1, 0, 0, -1, 580.6279, 416.6582)"/>
<path fill-rule="nonzero" fill="rgb(100%, 100%, 100%)" fill-opacity="1" stroke-width="3.113" stroke-linecap="butt" stroke-linejoin="miter" stroke="rgb(13.729858%, 12.159729%, 12.548828%)" stroke-opacity="1" stroke-miterlimit="10" d="M 0.00000625 0.0010125 C -2.210931 -0.627894 -4.675775 -0.905237 -6.332025 -2.678675 L -16.042963 -0.581019 L -11.398431 20.926794 L -4.304681 19.395544 C -0.343744 18.540075 2.613287 19.227575 6.535162 20.661169 C 3.554694 23.583044 1.144537 25.4307 -2.820306 26.282263 L -9.91015 27.813513 L -5.828119 46.727575 L 3.886725 44.629919 C 4.640631 42.551794 5.363287 41.879919 7.132819 40.469763 L 24.238287 25.223669 L 30.757819 23.817419 C 32.800787 23.376013 34.800787 22.723669 36.562506 24.696325 L 46.273444 22.598669 L 41.343756 -0.245081 L 31.632819 1.852575 C 31.234381 3.114294 30.511725 3.786169 29.613287 4.27445 C 28.765631 4.676794 27.726569 4.825231 26.703131 5.047888 L 21.335944 6.208044 Z M 0.00000625 0.0010125 " transform="matrix(1, 0, 0, -1, 597.5039, 380.0557)"/>
<path fill-rule="nonzero" fill="rgb(13.729858%, 12.159729%, 12.548828%)" fill-opacity="1" d="M 254.136719 377.351562 C 254.070312 377.308594 254.003906 377.269531 253.9375 377.226562 C 254.058594 377.273438 254.148438 377.3125 254.136719 377.351562 M 568.957031 366.671875 C 572.699219 360.578125 572.886719 353.382812 569.507812 345.273438 C 565.972656 336.777344 560.625 332.039062 553.164062 330.785156 C 552.214844 330.625 551.207031 330.519531 550.167969 330.472656 C 544.742188 330.238281 538.984375 331.582031 533.414062 332.882812 C 532.757812 333.035156 532.054688 333.203125 531.320312 333.363281 C 531.835938 331.792969 532.34375 329.933594 532.765625 327.652344 C 533.921875 321.476562 533.433594 314.457031 531.441406 308.394531 C 529.042969 301.109375 524.757812 295.804688 519.046875 293.058594 C 515.453125 291.332031 511.9375 290.378906 508.59375 290.234375 C 503.238281 290.003906 498.386719 291.875 494.5625 295.648438 L 494.445312 295.761719 L 494.207031 296.058594 C 491.960938 299.125 492.675781 304.453125 494.023438 312.894531 C 494.703125 317.140625 495.40625 321.535156 495.117188 323.832031 C 494.429688 329.332031 491.542969 334.53125 488.492188 340.03125 C 485.835938 344.816406 483.089844 349.769531 481.71875 355.1875 C 479.933594 362.179688 479.757812 372.660156 484.371094 381.617188 L 484.148438 381.785156 C 482.183594 383.292969 480.355469 384.582031 478.421875 385.945312 C 476.761719 387.117188 475.054688 388.320312 473.164062 389.726562 C 468.898438 386.550781 465.449219 383.460938 462.109375 380.464844 C 461.707031 380.105469 461.304688 379.746094 460.90625 379.386719 C 461.335938 378.535156 461.726562 377.695312 462.0625 376.871094 L 462.796875 375.097656 L 461.625 373.53125 C 460.511719 372.03125 454.753906 364.382812 450.882812 361.132812 L 449.941406 360.339844 L 448.21875 360.339844 C 445.128906 357.378906 442.160156 354.199219 439.273438 351.109375 C 432.1875 343.523438 424.875 335.695312 415.105469 330.25 C 425.085938 324.632812 429.894531 318.195312 429.082031 311.574219 C 431.871094 308.597656 433.128906 306.992188 435.148438 303.882812 C 435.382812 303.527344 435.609375 303.175781 435.835938 302.832031 C 438.054688 302.777344 440.289062 302.585938 442.628906 302.253906 C 449.09375 301.527344 451.019531 292.785156 452.050781 284.328125 C 452.636719 279.53125 452.296875 272.503906 451.171875 265.949219 C 451.578125 262.90625 451.472656 260.21875 451.371094 257.613281 C 451.335938 256.632812 451.347656 255.707031 451.285156 254.773438 C 450.277344 239.894531 440.355469 226.867188 426.445312 215.808594 C 425.191406 214.691406 423.941406 213.59375 422.707031 212.507812 C 422.605469 212.421875 422.503906 212.335938 422.402344 212.246094 C 423.300781 208.410156 422.085938 204.859375 420.753906 204.734375 C 419.515625 204.980469 419.113281 208.175781 417.710938 209.441406 C 417.648438 209.402344 417.59375 209.363281 417.535156 209.328125 C 419.03125 203.457031 418.191406 194.03125 411.457031 192.933594 C 410.160156 192.953125 412.582031 198.183594 411.859375 200.507812 C 410.664062 195.511719 408.789062 190.851562 405.554688 186.8125 C 404.703125 185.746094 400.066406 179.878906 398.160156 181.148438 C 396.457031 182.285156 399.886719 188.753906 400.335938 190.019531 C 400.421875 190.242188 400.496094 190.460938 400.570312 190.683594 C 393.65625 181.148438 384.34375 173.238281 372.757812 167.085938 C 356.488281 158.449219 340.84375 156.03125 332.964844 155.359375 C 321.699219 154.398438 315.980469 154.882812 313.84375 156.980469 C 313.203125 157.609375 312.84375 158.410156 312.804688 159.257812 C 312.539062 160.671875 313.328125 161.988281 315.15625 163.175781 C 316.332031 163.9375 317.949219 164.699219 319.664062 165.496094 C 320.714844 165.992188 321.890625 166.546875 323.039062 167.140625 C 311.484375 164.285156 296.507812 162.542969 288.644531 166.730469 C 285.785156 168.253906 285.558594 170.230469 285.675781 171.273438 C 285.75 171.933594 286 172.566406 286.398438 173.164062 C 280.347656 174.285156 276.5625 176.109375 273.929688 177.613281 C 266.554688 181.828125 262.167969 189.382812 264.34375 194.105469 C 264.925781 195.363281 266.464844 197.496094 270.253906 197.660156 C 272.167969 197.742188 274.464844 197.304688 277.085938 196.363281 C 281.929688 194.625 285.550781 193.867188 289.082031 193.863281 C 292.632812 194.945312 293.871094 196.140625 294.742188 199.257812 C 298.296875 218.59375 289.222656 227.460938 276.207031 242.179688 L 275.414062 243.078125 C 269.410156 249.875 266.765625 257.867188 267.550781 266.832031 C 269.011719 283.554688 283.191406 299.503906 294.859375 308.800781 C 295.609375 309.402344 296.390625 309.992188 297.191406 310.570312 C 287.878906 314.886719 278.890625 326.125 272 344.109375 C 271.417969 345.632812 270.886719 347.167969 270.371094 348.652344 C 269.707031 350.5625 269.136719 352.183594 268.496094 353.789062 C 258.523438 358.167969 255.972656 367.625 253.507812 376.777344 L 253.464844 376.925781 C 242.65625 370.101562 236.886719 370.535156 236.503906 370.574219 L 235.65625 370.664062 L 235.351562 371.457031 C 235.234375 371.761719 232.917969 378.183594 241.089844 388.660156 C 239.671875 388.265625 238.296875 388.039062 236.964844 387.984375 C 234.496094 387.875 233.09375 388.410156 232.941406 388.46875 L 232.207031 388.761719 L 232.085938 389.542969 C 232.015625 389.980469 230.582031 400.175781 243.082031 413.84375 C 242.339844 413.757812 241.570312 413.695312 240.78125 413.660156 C 238.03125 413.542969 235.992188 413.78125 235.90625 413.789062 L 234.484375 413.960938 L 234.695312 415.375 C 234.769531 415.871094 236.660156 427.585938 250.523438 434.136719 C 255.84375 436.648438 260.597656 438.335938 265.039062 439.289062 C 274.84375 448.964844 289.152344 454.273438 307.578125 455.070312 C 316.738281 455.464844 327.066406 454.746094 338.277344 452.925781 C 348.457031 451.28125 358.523438 448.4375 368.261719 445.679688 C 380.019531 442.363281 392.175781 438.925781 404.308594 437.707031 C 407.296875 437.40625 410.476562 437.164062 413.515625 437.007812 L 534.757812 442.253906 L 535.054688 435.507812 L 519.054688 434.816406 C 523.472656 431.484375 526.90625 428.339844 529.480469 425.277344 C 530.441406 425.390625 531.445312 425.472656 532.476562 425.515625 C 536.628906 425.699219 540.402344 425.285156 542.902344 425.011719 C 550.738281 424.160156 556.285156 421.507812 559.859375 416.917969 C 563.210938 412.621094 564.9375 406.625 565.289062 398.078125 C 569.636719 394.59375 572.402344 390.566406 573.527344 386.097656 C 575.042969 380.050781 573.5 373.523438 568.957031 366.671875 "/>
<path fill-rule="nonzero" fill="rgb(100%, 100%, 100%)" fill-opacity="1" d="M 397.695312 256.011719 C 400.21875 250.621094 401.183594 248.507812 397.257812 248.789062 C 398.011719 247.34375 399.328125 245.0625 400.914062 244.386719 C 407.890625 241.421875 405.21875 251.601562 397.695312 256.011719 M 404.609375 237.519531 C 403.46875 237.457031 402.359375 237.394531 401.273438 237.328125 C 400.800781 237.796875 400.316406 238.277344 399.828125 238.769531 C 395.027344 243.558594 389.300781 249.277344 383.613281 252.175781 C 381.316406 253.574219 374.257812 257.140625 368.367188 256.9375 C 368.367188 256.9375 372.144531 255.425781 378.714844 252.855469 C 370.050781 254.910156 361.058594 255 352.308594 253.070312 C 343.15625 251.046875 337.445312 256.066406 335.414062 258.320312 C 332.65625 261.378906 331.738281 264.5625 332.257812 266.125 C 333.167969 268.867188 335.566406 270.652344 338.886719 273.117188 C 341.242188 274.871094 343.964844 276.898438 346.792969 279.757812 C 345.570312 277.117188 344.683594 275.355469 344.660156 275.316406 L 344.011719 274.035156 L 345.226562 274.800781 C 350.328125 278.011719 352.714844 284.324219 355.246094 291 C 355.433594 291.5 355.625 292 355.8125 292.503906 C 356.890625 295.308594 357.992188 298.207031 359.195312 301.0625 C 363.316406 310.859375 368.441406 323.054688 379.277344 328.210938 C 382.46875 329.734375 386.042969 330.589844 389.894531 330.757812 C 396.878906 331.058594 404.8125 329.046875 411.664062 325.234375 C 419.972656 320.609375 423.589844 315.765625 422.421875 310.847656 C 421.59375 307.390625 418.496094 303.90625 415.757812 300.832031 C 414.75 299.695312 413.804688 298.628906 412.964844 297.574219 C 412.71875 297.261719 412.464844 296.949219 412.21875 296.636719 C 411.917969 296.550781 411.613281 296.46875 411.316406 296.382812 C 410.316406 298.070312 412.628906 304.710938 412.777344 305.988281 C 402.296875 301.925781 405.109375 310.210938 392.089844 310.160156 C 393.691406 310.84375 395.449219 311.414062 397.394531 311.84375 C 415.085938 315.753906 413.914062 306.457031 413.914062 306.457031 C 417.167969 308.5625 417.308594 312.316406 416.816406 312.996094 C 415.136719 315.292969 409.953125 317.085938 404.957031 316.867188 C 401.84375 316.734375 398.785156 316.28125 396.640625 315.726562 C 393.898438 315.015625 388.957031 313.410156 384.503906 309.882812 L 384.5 309.882812 L 384.5 309.878906 C 378.726562 305.304688 375.203125 297.765625 371.078125 290.417969 L 370.691406 289.730469 C 370.183594 288.832031 369.675781 287.90625 369.152344 286.953125 C 364.53125 278.527344 359.308594 269.015625 350.292969 267.078125 C 347.210938 266.636719 344.945312 267.417969 341.574219 269.296875 C 341.921875 267.621094 342.632812 265.785156 343.847656 264.550781 C 348.804688 259.496094 360.125 261.519531 366.34375 264.164062 C 365.292969 264.199219 364.261719 264.273438 363.25 264.378906 C 366.261719 265.867188 369.089844 267.816406 371.675781 269.605469 C 372.304688 270.035156 372.925781 270.464844 373.542969 270.882812 C 375.316406 272.082031 377.070312 273.289062 378.804688 274.488281 C 389.933594 282.15625 400.4375 289.398438 413.695312 292.917969 C 423.535156 295.53125 430.730469 297.136719 440.785156 295.691406 L 440.867188 295.679688 C 442.042969 295.5625 444.21875 293.683594 445.585938 282.4375 C 446.960938 271.140625 444.175781 255.238281 436.179688 246.699219 C 428.84375 238.851562 415.96875 238.144531 404.609375 237.519531 "/>
<path fill-rule="nonzero" fill="rgb(100%, 100%, 100%)" fill-opacity="1" d="M 436.179688 246.699219 C 428.84375 238.851562 415.96875 238.144531 404.609375 237.519531 C 403.46875 237.457031 402.359375 237.394531 401.273438 237.328125 C 400.800781 237.796875 400.316406 238.277344 399.828125 238.769531 C 398.777344 239.816406 397.6875 240.90625 396.554688 242 C 402.757812 239.359375 411.332031 239.179688 411.652344 247.097656 C 411.714844 247.75 411.667969 248.371094 411.5625 248.980469 C 424.53125 244.851562 439.394531 259.148438 439.21875 271.753906 C 439.03125 276.066406 438.835938 280.375 437.363281 284.445312 C 416.203125 289.71875 392.976562 276.96875 375.773438 267.417969 C 377.332031 266.722656 379.003906 267.171875 380.644531 267.296875 C 371.402344 261.488281 357.976562 256.601562 348.316406 262.0625 C 353.90625 260.5 361.605469 262.148438 366.34375 264.164062 C 365.292969 264.195312 364.261719 264.273438 363.25 264.378906 C 366.261719 265.867188 369.089844 267.816406 371.675781 269.605469 C 372.304688 270.035156 372.925781 270.464844 373.542969 270.882812 C 375.316406 272.082031 377.070312 273.289062 378.804688 274.488281 C 389.933594 282.15625 400.441406 289.398438 413.695312 292.917969 C 423.535156 295.53125 430.734375 297.136719 440.785156 295.691406 L 440.867188 295.679688 C 442.039062 295.5625 444.21875 293.683594 445.585938 282.4375 C 446.960938 271.140625 444.171875 255.238281 436.179688 246.699219 "/>
<path fill-rule="nonzero" fill="rgb(100%, 100%, 100%)" fill-opacity="1" d="M 368.863281 316.832031 C 367.664062 316.164062 366.53125 315.320312 365.484375 314.351562 C 368.816406 320.089844 373.128906 325.285156 379.277344 328.210938 C 382.46875 329.734375 386.042969 330.589844 389.894531 330.757812 C 396.878906 331.058594 404.8125 329.046875 411.664062 325.234375 C 413.027344 324.472656 414.265625 323.707031 415.375 322.9375 C 400.964844 329.140625 386.832031 328.019531 368.863281 316.832031 "/>
<path fill-rule="nonzero" fill="rgb(100%, 100%, 100%)" fill-opacity="1" d="M 412.964844 297.574219 C 412.71875 297.261719 412.464844 296.945312 412.21875 296.636719 C 411.917969 296.554688 411.613281 296.46875 411.316406 296.382812 C 410.316406 298.070312 412.628906 304.710938 412.777344 305.988281 C 402.296875 301.925781 405.109375 310.210938 392.089844 310.15625 C 393.691406 310.84375 395.449219 311.414062 397.394531 311.84375 C 398.007812 311.980469 398.597656 312.097656 399.167969 312.203125 C 402.648438 309.144531 408.484375 307.273438 412.28125 310.625 C 414.207031 308.785156 413.914062 306.457031 413.914062 306.457031 C 415.117188 307.234375 415.894531 308.238281 416.367188 309.230469 C 417.851562 307.976562 419.601562 307.355469 421.164062 307.796875 C 419.796875 305.375 417.691406 303 415.761719 300.832031 C 414.75 299.695312 413.804688 298.628906 412.964844 297.574219 "/>
<path fill-rule="nonzero" fill="rgb(100%, 100%, 100%)" fill-opacity="1" d="M 355.273438 272.492188 C 355.441406 271.402344 356.054688 270.628906 356.878906 270.175781 C 354.921875 268.699219 352.75 267.605469 350.292969 267.078125 C 347.210938 266.636719 344.945312 267.417969 341.570312 269.296875 C 341.867188 267.875 342.429688 266.34375 343.332031 265.15625 C 342.699219 265.253906 341.980469 265.316406 341.257812 265.527344 C 337.746094 265.640625 334.324219 263.753906 333.550781 260.835938 C 332.261719 263.007812 331.882812 264.992188 332.257812 266.125 C 333.167969 268.867188 335.566406 270.652344 338.886719 273.117188 C 341.242188 274.871094 343.964844 276.898438 346.792969 279.757812 C 345.570312 277.113281 344.683594 275.355469 344.660156 275.316406 L 344.011719 274.035156 L 345.226562 274.800781 C 350.328125 278.011719 352.714844 284.320312 355.246094 291 C 355.433594 291.5 355.625 292 355.8125 292.503906 C 355.847656 292.578125 355.871094 292.65625 355.902344 292.734375 C 354.375 286.191406 353.984375 279.355469 355.273438 272.492188 "/>
<path fill-rule="nonzero" fill="rgb(89.689636%, 8.537292%, 20.993042%)" fill-opacity="1" d="M 371.589844 285.613281 C 372.105469 286.554688 372.613281 287.480469 373.113281 288.367188 L 373.503906 289.058594 C 377.289062 295.800781 380.609375 300.253906 385.671875 304.558594 L 385.679688 304.53125 C 390.101562 306.355469 393.992188 307.792969 397.382812 305.671875 C 399.976562 304.046875 401.339844 302.492188 401.425781 301.046875 C 401.566406 298.691406 398.417969 296.148438 395.371094 293.6875 C 394.640625 293.097656 393.882812 292.484375 393.179688 291.878906 C 391.652344 290.574219 390.375 289.273438 389.25 288.125 C 386.359375 285.179688 384.421875 283.214844 380.863281 283.292969 C 385.667969 286.085938 389.285156 290.726562 391.175781 295.421875 C 391.175781 295.421875 379.828125 283.925781 370.464844 283.570312 C 370.847656 284.261719 371.222656 284.945312 371.589844 285.613281 "/>
<path fill-rule="nonzero" fill="rgb(92.939758%, 10.978699%, 14.118958%)" fill-opacity="1" d="M 368.910156 280.792969 C 368.890625 280.777344 368.871094 280.757812 368.855469 280.734375 C 368.867188 280.757812 368.875 280.777344 368.890625 280.796875 C 368.894531 280.796875 368.902344 280.796875 368.910156 280.792969 "/>
<path fill-rule="nonzero" fill="rgb(100%, 100%, 100%)" fill-opacity="1" d="M 368.351562 213.355469 C 363.503906 212.195312 359.019531 213.855469 356.058594 217.914062 C 351.671875 223.917969 350.355469 234.648438 359.695312 250.109375 L 359.535156 250.207031 C 374.5625 253.683594 385.296875 247.746094 385.296875 247.746094 C 387.960938 233.285156 383.753906 217.039062 368.351562 213.355469 "/>
<path fill-rule="nonzero" fill="rgb(100%, 100%, 100%)" fill-opacity="1" d="M 423.210938 235.613281 C 424.160156 231.6875 423.789062 227.84375 422.078125 223.65625 C 420.425781 219.609375 413.484375 209.554688 409.132812 209.367188 L 409.097656 209.367188 C 408.664062 209.355469 407.355469 209.3125 406.140625 211.808594 C 403.027344 218.246094 409.375 228.410156 412.996094 234.09375 C 416.445312 234.398438 419.898438 234.847656 423.210938 235.613281 "/>
<path fill-rule="nonzero" fill="rgb(89.689636%, 8.537292%, 20.993042%)" fill-opacity="1" d="M 564.628906 369.855469 C 557.6875 376.703125 545.960938 379.566406 536.402344 379.894531 C 535.351562 379.929688 534.320312 379.925781 533.316406 379.882812 C 526.238281 379.578125 520.578125 378.597656 515.136719 375.949219 C 515.753906 384.382812 517.957031 390.652344 519.128906 391.816406 C 527.535156 400.042969 545 402.53125 555.761719 397.039062 C 562.859375 393.410156 567.0625 389.820312 568.320312 384.792969 C 569.441406 380.332031 568.195312 375.3125 564.628906 369.855469 "/>
<path fill-rule="nonzero" fill="rgb(89.689636%, 8.537292%, 20.993042%)" fill-opacity="1" d="M 540.25 404.710938 C 532.4375 404.371094 524.570312 401.898438 518.867188 397.625 C 517.714844 402.992188 517.855469 409.210938 517.949219 410.285156 C 520.425781 415.1875 526.53125 420.492188 541.5625 418.851562 C 548.367188 418.105469 552.859375 416.144531 555.679688 412.675781 C 557.988281 409.835938 559.296875 406.203125 559.769531 400.535156 C 559.046875 400.953125 558.300781 401.363281 557.519531 401.765625 C 552.527344 404.3125 546.417969 404.980469 540.25 404.710938 "/>
<path fill-rule="nonzero" fill="rgb(89.689636%, 8.537292%, 20.993042%)" fill-opacity="1" d="M 513.277344 411.113281 C 512.949219 409.730469 513.574219 404.269531 514.503906 399.257812 C 513.695312 400.585938 512.507812 401.765625 510.816406 402.753906 C 514.292969 394.742188 512.894531 386.734375 510.296875 378.820312 C 507.707031 382.46875 503.648438 383.1875 503.648438 383.1875 C 517.148438 366.441406 521.957031 346.910156 517.757812 335.355469 C 517.757812 335.355469 521.265625 336.601562 522.761719 342.667969 C 523.253906 339.542969 524.09375 337.378906 524.972656 335.121094 C 525.867188 332.828125 526.789062 330.460938 527.496094 326.671875 C 529.476562 316.027344 525.988281 302.351562 516.722656 297.894531 C 509.304688 294.324219 502.371094 294.773438 497.675781 299.300781 C 496.75 300.917969 498.214844 307.585938 498.921875 312.023438 C 499.699219 316.859375 500.824219 321.441406 500.4375 324.5 C 499.621094 331.027344 495.570312 336.496094 492.40625 342.199219 C 489.800781 346.894531 487.324219 351.726562 486.121094 356.472656 C 483.492188 366.804688 487.921875 379.769531 496.546875 389.175781 C 496.546875 389.175781 491.09375 388.667969 488.367188 385.308594 C 488.050781 385.550781 487.714844 385.773438 487.414062 386.042969 C 472.851562 399.097656 466.707031 397.957031 466.707031 397.957031 C 467.796875 396.925781 468.917969 395.914062 470.046875 394.917969 C 464.738281 391.03125 460.765625 387.285156 456.726562 383.675781 C 453.503906 388.386719 449.59375 392.414062 446.703125 394.847656 C 446.832031 395.203125 446.953125 395.558594 447.078125 395.917969 C 458.21875 406.382812 473.796875 419.96875 481.484375 434.582031 L 508.160156 435.738281 C 514.632812 431.886719 520.050781 426.414062 523.789062 422 C 518.933594 420.449219 514.746094 417.28125 513.277344 411.113281 "/>
<path fill-rule="nonzero" fill="rgb(89.689636%, 8.537292%, 20.993042%)" fill-opacity="1" d="M 534.578125 340.621094 C 534.578125 340.621094 530.042969 342.457031 528.027344 345.742188 C 535.117188 345.414062 540.054688 347.082031 542.886719 349.308594 C 542.886719 349.308594 529.546875 347.636719 522.941406 350.503906 C 522.570312 354.21875 521.578125 358.066406 519.964844 362.039062 C 518.828125 364.839844 518.238281 366.164062 516.457031 369.148438 C 522.445312 372.152344 529.105469 374.648438 537.125 374.371094 C 546.738281 374.035156 558.972656 372.300781 564.214844 364.132812 C 567.171875 359.53125 567.285156 353.878906 564.558594 347.332031 C 558.40625 332.558594 547.390625 335.132812 534.628906 338.109375 C 532.316406 338.648438 529.925781 339.199219 527.550781 339.648438 C 527.328125 340.347656 527.125 341.082031 526.953125 341.882812 C 529.484375 340.839844 532.167969 340.351562 534.578125 340.621094 "/>
<path fill-rule="nonzero" fill="rgb(89.689636%, 8.537292%, 20.993042%)" fill-opacity="1" d="M 308.183594 191.351562 C 308.183594 191.351562 298.824219 191.957031 296.789062 193.449219 C 306.933594 202.707031 303.921875 219.566406 303.921875 219.566406 C 303.523438 216.707031 301.636719 211.125 300.945312 208.761719 C 300.628906 224.054688 292.242188 233.539062 281.417969 245.785156 L 280.625 246.683594 C 275.632812 252.332031 273.433594 258.972656 274.085938 266.417969 C 275.398438 281.464844 287.898438 296.398438 298.203125 304.609375 C 310.144531 314.125 324.023438 317.625 338.007812 319.183594 C 335.589844 316.601562 333.285156 313.871094 331.058594 311.003906 C 336.648438 314.527344 347.644531 319.386719 353.96875 315.03125 C 366.65625 306.289062 337.886719 280.683594 329.65625 277.101562 C 324.542969 274.875 318.757812 273.347656 321.152344 266.679688 C 322.257812 263.617188 324.703125 260.808594 327.402344 258.257812 C 323.085938 258.734375 319.457031 257.261719 317.722656 251.351562 C 320.367188 250.625 321.542969 248.363281 322.449219 245.949219 C 325.769531 237.085938 322.925781 228.355469 330.453125 220.960938 C 327.753906 222.835938 324.433594 226.191406 321.269531 227.128906 C 314.128906 229.242188 318.207031 222.183594 320.902344 218.726562 C 324.597656 213.972656 329.707031 209.957031 335.332031 207.78125 C 332.253906 207.6875 325.945312 208.191406 327.988281 204.125 C 331.949219 196.234375 351.886719 196.933594 361.574219 200.238281 C 365.222656 201.484375 368.324219 203.082031 371.070312 204.792969 C 371.074219 204.789062 371.078125 204.78125 371.078125 204.777344 C 371.117188 204.804688 371.164062 204.839844 371.203125 204.875 C 376.84375 208.414062 380.980469 212.421875 385.238281 214.824219 C 388.164062 216.269531 391.144531 217.167969 393.894531 216.921875 C 394.035156 216.910156 394.179688 216.890625 394.324219 216.875 C 396.417969 216.59375 398.371094 215.621094 400.050781 213.679688 C 401.898438 211.550781 402.613281 208.128906 402.988281 204.777344 C 403 203.90625 402.984375 203.035156 402.929688 202.160156 C 388.507812 173.75 356.121094 161.324219 332.625 159.320312 C 321.292969 158.351562 317.929688 159.152344 316.960938 159.605469 C 331.882812 165.25 334.214844 174.972656 334.214844 174.972656 C 325.667969 170.964844 296.042969 165.273438 289.648438 170.878906 C 289.671875 173.234375 308.789062 177.628906 308.789062 177.628906 C 297.886719 177.8125 286.628906 176.53125 276.589844 182.269531 C 271.199219 185.351562 268.308594 190.535156 269.214844 191.859375 C 270.8125 194.183594 290.492188 185.570312 308.183594 191.351562 "/>
<path fill-rule="nonzero" fill="rgb(89.689636%, 8.537292%, 20.993042%)" fill-opacity="1" d="M 418.417969 298.4375 C 420.613281 300.90625 423.003906 303.601562 424.550781 306.542969 C 426.222656 304.746094 427.777344 302.382812 429.296875 300.050781 C 425.59375 299.753906 422.015625 299.078125 418.171875 298.160156 C 418.253906 298.25 418.335938 298.34375 418.417969 298.4375 "/>
<path fill-rule="nonzero" fill="rgb(100%, 100%, 100%)" fill-opacity="1" d="M 389.339844 349.605469 C 391.265625 349.6875 393.167969 349.664062 395.039062 349.511719 C 401.09375 349.019531 405.101562 347.164062 406.320312 344.285156 C 407.371094 341.808594 406.527344 338.417969 403.953125 334.546875 C 404.277344 336.988281 403.726562 339.1875 401.375 340.988281 C 391.285156 348.6875 369.082031 340.089844 359.542969 335.457031 C 353.070312 332.308594 347.472656 328.277344 342.425781 323.589844 C 337.195312 323.144531 332.644531 322.511719 327.324219 321.417969 C 332.910156 327.015625 340.492188 332.175781 345.730469 334.878906 C 358.695312 341.5625 374.242188 348.953125 389.339844 349.605469 "/>
<path fill-rule="nonzero" fill="rgb(100%, 100%, 100%)" fill-opacity="1" d="M 438.277344 372.925781 C 440.976562 370.726562 443.757812 367.324219 445.050781 364.363281 C 441.800781 361.261719 438.332031 357.957031 435.355469 354.773438 C 429.503906 348.511719 423.878906 342.488281 417.0625 337.769531 C 424.523438 345.753906 431.546875 357.398438 438.277344 372.925781 "/>
<path fill-rule="nonzero" fill="rgb(100%, 100%, 100%)" fill-opacity="1" d="M 439.558594 375.949219 C 440.902344 379.164062 442.230469 382.523438 443.546875 386.050781 C 444.121094 387.578125 444.75 389.308594 445.40625 391.152344 C 449.460938 387.726562 454.707031 382.125 457.429688 376.285156 C 455.742188 374.078125 450.945312 368.433594 447.960938 365.707031 L 447.523438 365.703125 C 445.914062 369.335938 442.949219 373.445312 439.558594 375.949219 "/>
<path fill-rule="nonzero" fill="rgb(100%, 100%, 100%)" fill-opacity="1" d="M 336.941406 370.398438 L 336.90625 370.40625 C 336.902344 370.390625 336.902344 370.375 336.898438 370.363281 C 335.574219 369.234375 334.113281 368.167969 332.492188 367.128906 C 315.375 356.199219 291.519531 353.003906 271.242188 358.828125 C 263.785156 362.242188 261.773438 369.699219 259.480469 378.207031 L 259.320312 378.757812 C 259.242188 378.960938 259.285156 379.363281 260.050781 380.066406 C 260.238281 379.675781 260.4375 379.265625 260.652344 378.828125 C 260.859375 378.355469 261.082031 377.902344 261.328125 377.460938 L 261.550781 377.015625 L 261.582031 377.03125 C 270.59375 362.132812 301.886719 368.402344 308.398438 369.898438 C 314.164062 371.21875 323.683594 374.742188 329.769531 377.160156 C 332.171875 377.160156 334.308594 377.167969 335.933594 377.191406 C 338.160156 377.214844 340.519531 377.246094 342.933594 377.308594 C 341.347656 374.753906 339.386719 372.484375 336.941406 370.398438 "/>
<path fill-rule="nonzero" fill="rgb(100%, 100%, 100%)" fill-opacity="1" d="M 449.773438 404.015625 C 451.582031 408.699219 449.367188 413.972656 449.367188 413.972656 C 447.402344 407.238281 441.820312 393.820312 439.429688 387.425781 C 435.628906 377.261719 424.855469 345.902344 407.695312 333.011719 C 411.429688 338.960938 411.09375 343.191406 409.976562 345.832031 C 408.6875 348.878906 405.105469 352.679688 395.359375 353.46875 C 393.328125 353.636719 391.265625 353.664062 389.1875 353.578125 C 373.304688 352.890625 356.460938 345.25 343.117188 338.375 C 339.457031 336.488281 334.707031 333.453125 330.195312 329.890625 C 333.679688 336.734375 335.925781 344.59375 337.453125 351.59375 C 337.8125 353.246094 338.15625 354.8125 338.496094 356.292969 C 339.179688 359.25 339.6875 362.519531 340.179688 365.683594 C 340.390625 367.0625 340.589844 368.363281 340.804688 369.617188 C 343.179688 371.945312 345.890625 374.527344 347.433594 377.40625 L 347.320312 377.46875 C 351.574219 377.644531 355.066406 377.929688 358.925781 378.535156 C 380.726562 381.941406 406.441406 394.113281 421.972656 409.425781 C 428.863281 416.21875 433.824219 424.554688 438.542969 432.722656 L 474.453125 434.277344 C 468.101562 423.128906 458.382812 412.480469 449.773438 404.015625 "/>
<path fill-rule="nonzero" fill="rgb(100%, 100%, 100%)" fill-opacity="1" d="M 334.199219 364.449219 C 331.449219 356.695312 326.417969 347.101562 326.417969 347.101562 C 330.015625 349.910156 332.453125 353.964844 335.167969 359.796875 C 334.996094 358.902344 334.820312 358.027344 334.628906 357.1875 C 334.277344 355.683594 333.933594 354.105469 333.570312 352.4375 C 331.007812 340.679688 327.820312 326.050781 318.882812 319.589844 L 318.90625 319.488281 C 314.246094 318.109375 309.660156 316.316406 305.242188 313.957031 C 295.089844 314.589844 285.617188 325.664062 277.804688 346.0625 C 277.25 347.507812 276.734375 349 276.230469 350.441406 C 275.75 351.832031 275.703125 352.074219 275.167969 353.488281 C 295.277344 349.027344 317.558594 353.824219 334.199219 364.449219 "/>
<path fill-rule="nonzero" fill="rgb(89.689636%, 8.537292%, 20.993042%)" fill-opacity="1" d="M 416.964844 411.570312 C 401.871094 396.6875 378.429688 384.933594 357.246094 381.625 C 350.304688 380.535156 342.972656 380.679688 335.894531 380.367188 C 319.652344 379.652344 316.023438 383.992188 302.984375 377.273438 C 302.984375 377.273438 312.761719 377.199219 322.152344 377.167969 C 317.25 375.359375 311.742188 373.539062 307.5625 372.578125 C 303.847656 371.722656 272.289062 366.042969 264.796875 379.410156 L 264.617188 379.773438 C 264.480469 380.054688 264.347656 380.324219 264.222656 380.578125 C 264.125 380.8125 264.03125 381.054688 263.945312 381.296875 L 263.878906 381.277344 C 263.332031 382.394531 262.898438 383.300781 262.535156 384.152344 L 262.347656 384.921875 L 262.214844 384.933594 C 262.085938 385.253906 261.964844 385.570312 261.851562 385.898438 L 261.050781 388.183594 L 258.964844 386.949219 C 257.160156 385.875 255.273438 384.589844 253.449219 383.351562 C 249.101562 380.394531 244.628906 377.351562 240.789062 376.71875 C 241.050781 377.886719 241.84375 379.902344 243.996094 383.265625 C 246.488281 387.164062 249.820312 391.371094 252.5 394.753906 C 252.972656 395.351562 253.425781 395.925781 253.847656 396.460938 L 257.324219 400.886719 C 257.324219 400.886719 240.167969 392.539062 236.820312 393.355469 C 236.515625 401.15625 256.335938 421.335938 256.335938 421.335938 C 256.335938 421.335938 244.46875 419.621094 241.621094 419.222656 C 244.410156 428.171875 269.183594 435.542969 282.765625 436.191406 C 282.765625 436.191406 278.46875 438.988281 273.117188 438.753906 C 286.949219 449.0625 308.535156 451.921875 337.433594 447.238281 C 347.308594 445.636719 357.226562 442.835938 366.820312 440.125 C 378.796875 436.742188 391.1875 433.242188 403.785156 431.972656 C 411.503906 431.195312 422.53125 430.917969 431.644531 431.835938 C 427.429688 424.621094 422.90625 417.425781 416.964844 411.570312 "/>
<path fill-rule="nonzero" fill="rgb(83.38623%, 9.661865%, 12.425232%)" fill-opacity="1" d="M 240.960938 377.34375 C 241.339844 378.5625 242.183594 380.4375 243.996094 383.265625 C 246.488281 387.164062 249.820312 391.371094 252.5 394.753906 "/>
<path fill-rule="nonzero" fill="rgb(13.729858%, 12.159729%, 12.548828%)" fill-opacity="1" d="M 374.082031 240.273438 C 375.804688 246.230469 373.363281 252.171875 368.617188 253.542969 C 363.875 254.917969 358.632812 251.203125 356.910156 245.246094 C 355.183594 239.289062 357.628906 233.347656 362.371094 231.976562 C 367.117188 230.601562 372.355469 234.316406 374.082031 240.273438 "/>
<path fill-rule="nonzero" fill="rgb(13.729858%, 12.159729%, 12.548828%)" fill-opacity="1" d="M 419.015625 227.914062 C 420.179688 231.796875 418.621094 235.691406 415.527344 236.621094 C 412.4375 237.546875 408.988281 235.152344 407.824219 231.269531 C 406.660156 227.390625 408.222656 223.488281 411.316406 222.5625 C 414.402344 221.636719 417.851562 224.03125 419.015625 227.914062 "/>
<path fill-rule="nonzero" fill="rgb(100%, 100%, 100%)" fill-opacity="1" d="M 339.492188 257.699219 C 339.816406 258.828125 342.175781 259.136719 344.765625 258.394531 C 347.351562 257.648438 349.1875 256.132812 348.859375 255.003906 C 348.535156 253.875 346.175781 253.5625 343.589844 254.308594 C 341 255.054688 339.167969 256.570312 339.492188 257.699219 "/>
<path fill-rule="nonzero" fill="rgb(100%, 100%, 100%)" fill-opacity="1" d="M 366.367188 287.578125 C 363.195312 299.375 370.777344 306.128906 379.957031 310.511719 C 373.632812 304.542969 371.570312 294.859375 366.367188 287.578125 "/>
<path fill-rule="nonzero" fill="rgb(13.729858%, 12.159729%, 12.548828%)" fill-opacity="1" d="M 372.273438 243.382812 C 371.109375 246.386719 366.699219 249.160156 363.855469 249.476562 C 366.773438 251.167969 373.449219 251.058594 372.273438 243.382812 "/>
<path fill-rule="nonzero" fill="rgb(13.729858%, 12.159729%, 12.548828%)" fill-opacity="1" d="M 417.824219 227.832031 C 416.691406 231.179688 414.703125 231.636719 411.824219 232.519531 C 416.710938 235.027344 419.257812 232.03125 417.824219 227.832031 "/>
<path fill-rule="nonzero" fill="rgb(100%, 100%, 100%)" fill-opacity="1" d="M 362.933594 237.929688 C 362.878906 239.191406 362.125 240.179688 361.246094 240.144531 C 360.371094 240.105469 359.699219 239.054688 359.757812 237.792969 C 359.8125 236.53125 360.566406 235.539062 361.441406 235.578125 C 362.320312 235.617188 362.988281 236.667969 362.933594 237.929688 "/>
<path fill-rule="nonzero" fill="rgb(100%, 100%, 100%)" fill-opacity="1" d="M 412.339844 226.570312 C 412.300781 227.515625 411.734375 228.257812 411.078125 228.230469 C 410.414062 228.203125 409.917969 227.414062 409.960938 226.46875 C 410 225.523438 410.5625 224.777344 411.226562 224.808594 C 411.882812 224.835938 412.382812 225.625 412.339844 226.570312 "/>
<path fill-rule="nonzero" fill="rgb(100%, 100%, 100%)" fill-opacity="1" d="M 408.898438 251.375 C 407.949219 255.511719 406.769531 257.476562 402.734375 259.136719 C 414.785156 262.578125 423.492188 268.632812 434.507812 280.457031 C 431.4375 266.777344 418.925781 254.265625 408.898438 251.375 "/>
<path fill-rule="nonzero" fill="rgb(100%, 100%, 100%)" fill-opacity="1" stroke-width="3.113" stroke-linecap="butt" stroke-linejoin="miter" stroke="rgb(13.729858%, 12.159729%, 12.548828%)" stroke-opacity="1" stroke-miterlimit="10" d="M 0.00001875 -0.001025 L -14.121075 9.284131 L -14.222638 9.178662 L -4.402325 -4.543994 Z M 14.648456 -21.6104 L -0.117169 -36.844775 L -7.249981 -29.926806 C -6.738263 -27.520556 -8.652325 -25.3604 -9.800763 -23.450244 L -32.683575 10.049756 L -13.664044 29.67085 L 21.742206 7.870069 C 23.257831 6.901319 26.011737 5.23335 27.937519 6.373975 L 35.070331 -0.540088 L 18.203144 -17.942431 L 11.070331 -11.028369 C 11.746112 -9.57915 11.492206 -8.336963 10.414081 -7.290088 C 9.992206 -6.879931 9.515644 -6.618213 9.039081 -6.356494 L 2.58205 -13.020556 C 2.859394 -13.4854 3.183612 -13.997119 3.558612 -14.364306 C 4.683612 -15.45415 6.08205 -15.6104 7.515644 -14.696338 Z M 14.648456 -21.6104 " transform="matrix(1, 0, 0, -1, 555.0117, 465.5771)"/>
<path fill-rule="nonzero" fill="rgb(13.729858%, 12.159729%, 12.548828%)" fill-opacity="1" d="M 186.585938 264.816406 C 186.585938 270.035156 182.355469 274.265625 177.136719 274.265625 C 171.917969 274.265625 167.6875 270.035156 167.6875 264.816406 C 167.6875 259.597656 171.917969 255.367188 177.136719 255.367188 C 182.355469 255.367188 186.585938 259.597656 186.585938 264.816406 "/>
<path fill-rule="nonzero" fill="rgb(13.729858%, 12.159729%, 12.548828%)" fill-opacity="1" d="M 619.84375 264.816406 C 619.84375 270.035156 615.613281 274.265625 610.394531 274.265625 C 605.171875 274.265625 600.945312 270.035156 600.945312 264.816406 C 600.945312 259.597656 605.171875 255.367188 610.394531 255.367188 C 615.613281 255.367188 619.84375 259.597656 619.84375 264.816406 "/>
<path fill="none" stroke-width="3.113" stroke-linecap="butt" stroke-linejoin="miter" stroke="rgb(13.729858%, 12.159729%, 12.548828%)" stroke-opacity="1" stroke-miterlimit="10" d="M 0.00044375 -0.00053125 L 0.00044375 -5.492719 C 0.00044375 -6.535687 0.0707563 -7.582562 -0.144087 -8.496625 C -0.429244 -9.477094 -0.93315 -10.328656 -2.085494 -10.981 L -2.085494 -20.9185 L 21.2856 -20.9185 L 21.2856 -10.981 C 18.984819 -9.676312 19.199663 -7.582562 19.199663 -5.492719 L 19.199663 1.17525 L 30.488725 21.116656 C 31.496538 23.140094 32.000444 23.991656 33.867631 25.167438 L 33.867631 35.104938 L 14.523881 35.104938 L 14.523881 27.847125 C 14.523881 23.796344 13.230913 21.05025 11.000444 17.519 C 8.773881 21.05025 7.480913 23.796344 7.480913 27.847125 L 7.480913 35.104938 L -14.5269 35.104938 L -14.5269 25.167438 C -12.440962 23.92525 -11.647994 21.573688 -10.569869 19.546344 Z M 0.00044375 -0.00053125 " transform="matrix(1, 0, 0, -1, -66.2231, 243.0815)"/>
<path fill-rule="nonzero" fill="rgb(89.689636%, 8.537292%, 20.993042%)" fill-opacity="1" stroke-width="1.856" stroke-linecap="butt" stroke-linejoin="miter" stroke="rgb(13.729858%, 12.159729%, 12.548828%)" stroke-opacity="1" stroke-miterlimit="10" d="M -0.00096875 -0.001 L -5.48925 9.065406 L -5.571281 9.053688 L -3.700188 -0.6885 Z M 2.491219 -15.071312 L -9.915031 -17.379906 L -12.094719 -11.747094 C -11.157219 -10.778344 -11.665031 -9.126 -11.80175 -7.840844 L -15.758781 15.573219 L 0.221687 18.553688 L 14.374031 -3.481469 C 14.971687 -4.446312 16.077156 -6.145531 17.467781 -6.243187 L 19.647469 -11.876 L 5.475594 -14.516625 L 3.299812 -8.883812 C 4.069344 -8.422875 4.256844 -7.751 3.928719 -6.895531 C 3.799812 -6.5635 3.600594 -6.28225 3.401375 -6.001 L -2.0205 -7.012719 C -1.993156 -7.325219 -1.946281 -7.672875 -1.833 -7.96975 C -1.48925 -8.860375 -0.73925 -9.395531 0.311531 -9.4385 Z M 2.491219 -15.071312 " transform="matrix(1, 0, 0, -1, 411.6455, 376.999)"/>
</svg>
