<?xml version="1.0" encoding="UTF-8"?>
<svg xmlns="http://www.w3.org/2000/svg" xmlns:xlink="http://www.w3.org/1999/xlink" width="829" height="731" viewBox="0 0 829 731">
<path fill-rule="nonzero" fill="rgb(84.495544%, 80.722046%, 71.807861%)" fill-opacity="1" d="M 815.652344 485.851562 C 823.0625 469.921875 822.207031 452.007812 813.097656 432.542969 C 802.902344 410.765625 787.574219 398.464844 767.535156 395.984375 C 764.984375 395.667969 762.300781 395.507812 759.554688 395.507812 C 747.582031 395.507812 735.464844 398.441406 723.632812 401.6875 C 723.84375 400.472656 724.035156 399.238281 724.214844 397.988281 C 726.46875 382.09375 724.460938 364.234375 718.703125 348.996094 C 711.589844 330.179688 699.609375 316.707031 684.054688 310.035156 C 674.492188 305.933594 665.144531 303.851562 656.273438 303.851562 C 641.632812 303.851562 628.605469 309.535156 618.613281 320.285156 L 618.105469 320.832031 L 617.167969 322.113281 C 610.691406 331.808594 613.078125 345.554688 617.503906 367.1875 C 619.378906 376.351562 621.503906 386.738281 621.128906 391.324219 C 620.152344 403.261719 614.089844 415.40625 607.664062 428.265625 C 601.644531 440.320312 595.417969 452.785156 592.523438 466.671875 C 589.078125 483.175781 589.371094 507.648438 599.734375 529.09375 C 596.558594 531.65625 593.464844 534.046875 590.234375 536.539062 L 590.152344 536.601562 C 587.457031 538.683594 584.699219 540.8125 581.773438 543.136719 C 573.582031 537.324219 566.515625 531.558594 559.640625 525.914062 C 559.894531 525.253906 560.144531 524.597656 560.378906 523.949219 L 563.191406 516.1875 L 557.917969 509.714844 C 553.855469 504.714844 539.828125 487.8125 529.941406 480.207031 L 525.738281 476.976562 L 521.894531 477.140625 C 515.027344 470.988281 508.324219 464.40625 501.8125 458.011719 C 486.179688 442.667969 470.085938 426.867188 449.921875 414.835938 C 471.945312 398.488281 476.519531 382.898438 475.664062 371.492188 C 480.886719 365.285156 483.800781 361.132812 487.964844 354.105469 C 492.339844 353.695312 496.738281 353.074219 501.324219 352.21875 C 523.722656 348.632812 526.152344 317.554688 527.320312 302.609375 C 528.242188 290.785156 526.738281 273.761719 523.390625 257.953125 C 523.972656 250.527344 523.445312 244.132812 522.9375 237.941406 C 522.863281 237.046875 522.8125 236.171875 522.761719 235.304688 C 522.679688 233.914062 522.59375 232.476562 522.429688 230.984375 C 518.652344 197.097656 496.535156 165.210938 456.683594 136.214844 C 454.316406 134.28125 451.949219 132.375 449.605469 130.488281 C 450.074219 123.671875 448.515625 116.976562 445.378906 112.992188 C 443.484375 110.585938 440.980469 109.1875 438.328125 109.054688 L 437.800781 109.027344 C 436.941406 102.644531 434.949219 96.421875 431.449219 91.554688 C 427.46875 86.019531 421.910156 82.6875 415.371094 81.910156 L 414.808594 81.84375 L 414.238281 81.875 C 413.910156 81.894531 413.589844 81.933594 413.273438 81.992188 C 410.765625 77.652344 407.945312 73.703125 404.792969 70.097656 L 404.652344 69.9375 C 395.289062 59.21875 388.90625 54.644531 383.308594 54.644531 C 381.308594 54.644531 379.421875 55.246094 377.859375 56.386719 C 376.460938 57.40625 375.519531 58.640625 374.941406 60.027344 C 360.039062 46.179688 342.476562 34.40625 322.464844 24.863281 C 281.734375 5.445312 243.191406 1.1875 223.84375 0.378906 C 218.5625 0.15625 213.726562 0.046875 209.476562 0.046875 C 189.308594 0.046875 178.855469 2.429688 173.394531 8.277344 C 170.925781 10.921875 169.523438 14.285156 169.417969 17.800781 C 169.214844 19.695312 169.347656 22.34375 170.773438 25.175781 C 166.105469 24.828125 161.300781 24.617188 156.46875 24.617188 C 138.847656 24.617188 125.152344 27.425781 115.761719 32.964844 C 106.40625 38.480469 105.59375 45.835938 105.90625 49.632812 C 94.269531 53.074219 86.617188 57.386719 81.632812 60.527344 C 61.410156 73.285156 50.886719 95.171875 58.167969 109.316406 C 59.933594 112.742188 65.4375 120.710938 78.40625 120.707031 C 83.824219 120.707031 90.089844 119.269531 97.027344 116.429688 C 107.273438 112.238281 114.882812 110.214844 122.226562 109.757812 C 128.097656 111.378906 129.21875 112.78125 130.695312 117.234375 C 139.738281 157.191406 123.597656 177.019531 96.902344 209.8125 C 95.34375 211.722656 93.757812 213.671875 92.144531 215.664062 L 90.34375 217.886719 C 75.570312 236.144531 69.617188 257.136719 72.652344 280.277344 C 78.972656 328.472656 125.125 367.265625 142.496094 380.296875 C 121.859375 395.050781 104.367188 422.734375 91.523438 461.171875 C 90.25 464.980469 89.128906 468.734375 88.042969 472.363281 C 86.964844 475.96875 86.019531 479.09375 85.015625 482.113281 C 63.886719 493.71875 57.082031 514.097656 52.441406 533.628906 C 34.941406 524.824219 23.46875 523.386719 17.851562 523.386719 C 16.28125 523.386719 15.269531 523.5 14.824219 523.566406 L 8.871094 524.449219 L 6.957031 530.152344 C 6.390625 531.832031 2.574219 545.09375 14.988281 565.125 C 10.238281 565.554688 7.339844 566.710938 6.453125 567.113281 L 1.367188 569.410156 L 0.738281 574.953125 C 0.445312 577.515625 -1.113281 598.515625 21.5 626.234375 C 19.382812 626.441406 18.039062 626.652344 17.769531 626.695312 L 7.792969 628.328125 L 9.710938 638.25 C 9.964844 639.5625 16.34375 670.582031 53.25 686.101562 C 65.925781 691.433594 77.304688 695 87.957031 696.984375 C 113.480469 719.320312 149.132812 730.640625 193.96875 730.640625 C 216.296875 730.640625 241.292969 727.8125 268.261719 722.238281 C 292.738281 717.175781 316.632812 709.292969 339.742188 701.667969 C 367.164062 692.621094 395.523438 683.269531 423.757812 679.183594 C 430.640625 678.191406 437.984375 677.308594 445.015625 676.640625 L 740.855469 676.640625 L 740.855469 647.519531 L 713.175781 647.519531 C 716.867188 643.910156 720.128906 640.378906 723.007812 636.878906 C 724.378906 636.933594 725.773438 636.960938 727.183594 636.960938 C 737.605469 636.960938 746.855469 635.542969 752.976562 634.605469 C 773.402344 631.476562 787.769531 623.71875 796.898438 610.894531 C 804.890625 599.664062 808.785156 584.886719 809.074219 564.542969 C 818.886719 555.316406 825.035156 544.894531 827.363281 533.527344 C 830.515625 518.144531 826.574219 502.121094 815.652344 485.851562 "/>
<path fill-rule="nonzero" fill="rgb(20.957947%, 12.283325%, 8.898926%)" fill-opacity="1" d="M 808.09375 486.382812 C 816.390625 471.46875 816.097656 454.285156 807.207031 435.296875 C 797.898438 415.402344 784.660156 404.652344 766.738281 402.433594 C 764.453125 402.152344 762.035156 402.007812 759.554688 402.007812 C 746.605469 402.007812 733.003906 405.808594 719.855469 409.484375 C 718.308594 409.914062 716.644531 410.378906 714.921875 410.851562 C 715.976562 407.054688 717 402.5625 717.777344 397.074219 C 719.886719 382.230469 718.007812 365.542969 712.621094 351.296875 C 706.148438 334.171875 695.386719 321.96875 681.492188 316.007812 C 672.746094 312.257812 664.261719 310.351562 656.273438 310.351562 C 643.484375 310.351562 632.105469 315.320312 623.375 324.710938 L 623.113281 324.988281 L 622.570312 325.726562 C 617.53125 333.269531 619.78125 345.898438 623.871094 365.882812 C 625.929688 375.941406 628.058594 386.347656 627.605469 391.855469 C 626.527344 405.039062 620.191406 417.726562 613.480469 431.167969 C 607.644531 442.855469 601.609375 454.941406 598.886719 467.996094 C 595.367188 484.859375 596.015625 509.867188 607.945312 530.746094 L 607.4375 531.171875 C 602.898438 534.976562 598.679688 538.234375 594.207031 541.683594 C 590.371094 544.644531 586.421875 547.691406 582.0625 551.25 C 571.5625 544.109375 563.019531 537.097656 554.742188 530.304688 C 553.746094 529.484375 552.753906 528.671875 551.761719 527.859375 C 552.703125 525.78125 553.542969 523.730469 554.269531 521.734375 L 555.824219 517.4375 L 552.871094 513.8125 C 550.0625 510.355469 535.542969 492.71875 525.980469 485.359375 L 523.652344 483.570312 L 519.546875 483.75 C 511.875 477 504.464844 469.722656 497.269531 462.660156 C 479.582031 445.300781 461.34375 427.394531 437.480469 415.417969 C 460.699219 400.992188 471.511719 385.140625 468.878906 369.441406 C 475.222656 362.054688 478.058594 358.097656 482.558594 350.476562 C 483.074219 349.597656 483.585938 348.738281 484.085938 347.894531 C 489.371094 347.535156 494.667969 346.851562 500.21875 345.8125 C 515.566406 343.421875 519.253906 322.378906 520.839844 302.101562 C 521.738281 290.597656 520.203125 273.886719 516.835938 258.371094 C 517.492188 251.074219 516.96875 244.671875 516.457031 238.476562 C 516.265625 236.144531 516.214844 233.929688 515.96875 231.703125 C 512.027344 196.332031 487.023438 166.296875 452.714844 141.363281 C 449.609375 138.832031 446.511719 136.339844 443.453125 133.882812 C 443.203125 133.683594 442.953125 133.484375 442.707031 133.28125 C 444.453125 124.050781 441.1875 115.703125 438.003906 115.546875 C 435.074219 116.257812 434.445312 123.914062 431.222656 127.085938 C 431.082031 126.996094 430.9375 126.914062 430.800781 126.828125 C 433.753906 112.679688 430.78125 90.285156 414.605469 88.367188 C 411.523438 88.539062 417.832031 100.769531 416.355469 106.378906 C 412.980469 94.59375 408.035156 83.675781 399.898438 74.378906 C 397.753906 71.925781 386.105469 58.417969 381.691406 61.640625 C 377.746094 64.515625 386.585938 79.585938 387.796875 82.558594 C 388.011719 83.085938 388.214844 83.605469 388.421875 84.125 C 370.953125 62.105469 347.929688 44.203125 319.664062 30.730469 C 279.980469 11.8125 242.425781 7.660156 223.570312 6.871094 C 196.609375 5.746094 183.019531 7.492188 178.144531 12.714844 C 176.683594 14.277344 175.90625 16.21875 175.910156 18.253906 C 175.417969 21.648438 177.433594 24.703125 181.914062 27.347656 C 184.796875 29.046875 188.730469 30.6875 192.894531 32.421875 C 195.460938 33.492188 198.324219 34.6875 201.117188 35.992188 C 173.273438 30.371094 137.386719 27.761719 119.0625 38.5625 C 112.40625 42.488281 112.066406 47.222656 112.453125 49.699219 C 112.703125 51.269531 113.359375 52.75 114.371094 54.128906 C 100.0625 57.429688 91.21875 62.167969 85.101562 66.027344 C 67.953125 76.84375 58.265625 95.304688 63.949219 106.339844 C 65.460938 109.28125 69.351562 114.210938 78.40625 114.207031 C 82.972656 114.207031 88.410156 112.929688 94.566406 110.410156 C 105.929688 105.761719 114.484375 103.582031 122.90625 103.210938 C 131.484375 105.433594 134.566406 108.144531 136.964844 115.492188 C 147.429688 161.234375 126.707031 183.308594 97.195312 219.753906 L 95.398438 221.976562 C 81.789062 238.792969 76.304688 258.125 79.097656 279.433594 C 84.304688 319.152344 119.761719 355.714844 148.546875 376.6875 C 150.402344 378.039062 152.320312 379.367188 154.289062 380.660156 C 132.53125 391.910156 112.253906 419.640625 97.6875 463.230469 C 96.453125 466.925781 95.34375 470.636719 94.269531 474.226562 C 92.882812 478.855469 91.691406 482.777344 90.328125 486.675781 C 67.003906 498.148438 61.898438 520.960938 56.960938 543.035156 L 56.878906 543.398438 C 30.394531 528.246094 16.683594 529.859375 15.777344 529.996094 L 13.765625 530.296875 L 13.117188 532.226562 C 12.867188 532.960938 8.015625 548.519531 28.574219 572.648438 C 25.160156 571.859375 21.851562 571.464844 18.671875 571.464844 C 12.78125 571.464844 9.484375 572.878906 9.128906 573.039062 L 7.410156 573.8125 L 7.199219 575.6875 C 7.078125 576.738281 4.710938 601.191406 35.925781 632.492188 C 34.148438 632.363281 32.3125 632.300781 30.421875 632.300781 C 23.851562 632.300781 19.019531 633.078125 18.816406 633.113281 L 15.445312 633.664062 L 16.09375 637.019531 C 16.320312 638.191406 22.03125 665.921875 55.769531 680.109375 C 68.710938 685.550781 80.21875 689.089844 90.90625 690.910156 C 115.285156 712.960938 149.953125 724.140625 193.96875 724.140625 C 215.855469 724.140625 240.410156 721.359375 266.945312 715.871094 C 291.054688 710.886719 314.769531 703.0625 337.707031 695.496094 C 365.398438 686.363281 394.027344 676.917969 422.824219 672.753906 C 429.921875 671.726562 437.484375 670.824219 444.707031 670.140625 L 734.355469 670.140625 L 734.355469 654.019531 L 696.132812 654.019531 C 706.324219 645.621094 714.195312 637.769531 720.019531 630.199219 C 722.316406 630.371094 724.71875 630.460938 727.179688 630.460938 C 737.105469 630.460938 746.0625 629.089844 751.988281 628.179688 C 770.589844 625.332031 783.546875 618.445312 791.605469 607.121094 C 799.136719 596.542969 802.640625 582.0625 802.59375 561.648438 C 812.601562 552.894531 818.789062 543.003906 820.996094 532.222656 C 823.980469 517.660156 819.636719 502.246094 808.09375 486.382812 Z M 58.523438 544.347656 C 58.355469 544.246094 58.195312 544.160156 58.03125 544.0625 C 58.320312 544.15625 58.546875 544.253906 58.523438 544.347656 "/>
<path fill-rule="nonzero" fill="rgb(99.082947%, 83.999634%, 1.832581%)" fill-opacity="1" d="M 402.890625 195.386719 C 400.164062 195.351562 397.511719 195.320312 394.914062 195.273438 C 393.835938 196.4375 392.730469 197.636719 391.605469 198.863281 C 380.660156 210.777344 367.585938 225 354.332031 232.503906 C 349.003906 236.070312 332.539062 245.304688 318.472656 245.433594 C 318.472656 245.433594 327.328125 241.433594 342.722656 234.621094 C 322.277344 240.414062 300.839844 241.5625 279.78125 237.863281 C 257.742188 233.988281 244.644531 246.542969 240.039062 252.121094 C 233.777344 259.699219 231.917969 267.386719 233.316406 271.0625 C 235.773438 277.511719 241.675781 281.515625 249.84375 287.054688 C 255.640625 290.988281 262.34375 295.542969 269.386719 302.070312 C 266.191406 295.890625 263.894531 291.789062 263.84375 291.695312 L 262.160156 288.703125 L 265.140625 290.40625 C 277.632812 297.546875 283.980469 312.339844 290.699219 328.003906 C 291.199219 329.175781 291.703125 330.347656 292.214844 331.523438 C 295.0625 338.109375 297.996094 344.898438 301.15625 351.589844 C 311.992188 374.527344 325.476562 403.078125 351.84375 414.257812 C 359.613281 417.554688 368.21875 419.226562 377.425781 419.226562 C 394.105469 419.226562 412.816406 413.605469 428.761719 403.804688 C 448.097656 391.921875 456.230469 380.007812 452.921875 368.390625 C 450.601562 360.238281 442.851562 352.25 436.011719 345.199219 C 433.480469 342.59375 431.113281 340.152344 429.007812 337.722656 C 428.382812 337.003906 427.757812 336.277344 427.132812 335.554688 C 426.40625 335.390625 425.675781 335.226562 424.953125 335.050781 C 422.738281 339.175781 428.941406 354.769531 429.421875 357.800781 C 404.015625 349.1875 411.589844 368.664062 380.527344 369.882812 C 384.425781 371.355469 388.671875 372.527344 393.347656 373.351562 C 435.941406 380.855469 432.1875 358.800781 432.1875 358.800781 C 440.164062 363.492188 440.890625 372.429688 439.78125 374.09375 C 436.015625 379.746094 423.839844 384.550781 411.898438 384.550781 C 404.464844 384.550781 397.121094 383.789062 391.964844 382.6875 C 385.34375 381.273438 373.394531 377.957031 362.414062 370.007812 C 362.410156 370.003906 362.40625 370.003906 362.40625 370.003906 L 362.40625 370 C 348.167969 359.691406 338.988281 342.074219 328.386719 324.984375 L 327.394531 323.382812 C 326.101562 321.296875 324.785156 319.128906 323.441406 316.914062 C 311.546875 297.304688 298.117188 275.164062 276.421875 271.472656 C 269.027344 270.738281 263.707031 272.835938 255.859375 277.660156 C 256.515625 273.632812 258.027344 269.183594 260.789062 266.109375 C 272.09375 253.542969 299.289062 257.210938 314.394531 262.863281 C 311.894531 263.058594 309.445312 263.34375 307.035156 263.699219 C 314.378906 266.941406 321.316406 271.296875 327.675781 275.285156 C 329.214844 276.253906 330.738281 277.210938 332.246094 278.140625 C 336.605469 280.824219 340.902344 283.519531 345.171875 286.195312 C 372.496094 303.335938 398.304688 319.523438 430.261719 326.546875 C 453.992188 331.761719 471.328125 334.84375 495.152344 330.359375 L 495.351562 330.328125 C 498.136719 329.925781 503.125 325.222656 505.230469 298.261719 C 507.347656 271.183594 499.058594 233.550781 479.117188 214.015625 C 460.808594 196.066406 430.039062 195.703125 402.890625 195.386719 Z M 388.308594 240.1875 C 393.769531 227.074219 395.851562 221.9375 386.511719 223.015625 C 388.167969 219.492188 391.070312 213.910156 394.777344 212.144531 C 411.109375 204.351562 405.789062 228.898438 388.308594 240.1875 "/>
<path fill-rule="nonzero" fill="rgb(98.092651%, 72.239685%, 3.811646%)" fill-opacity="1" d="M 479.117188 214.015625 C 460.808594 196.066406 430.039062 195.703125 402.890625 195.386719 C 400.164062 195.351562 397.511719 195.320312 394.914062 195.273438 C 393.835938 196.4375 392.730469 197.636719 391.605469 198.863281 C 389.21875 201.464844 386.722656 204.175781 384.148438 206.902344 C 398.664062 199.96875 419.09375 198.648438 420.664062 217.496094 C 420.886719 219.042969 420.84375 220.535156 420.644531 221.992188 C 451.144531 210.808594 488.058594 243.363281 488.941406 273.445312 C 488.941406 283.746094 488.925781 294.042969 485.828125 303.902344 C 435.917969 318.65625 379.214844 290.652344 337.214844 269.652344 C 340.859375 267.828125 344.890625 268.726562 348.8125 268.863281 C 326.175781 255.96875 293.65625 245.699219 271.191406 259.710938 C 284.363281 255.410156 302.886719 258.554688 314.394531 262.863281 C 311.894531 263.058594 309.445312 263.34375 307.035156 263.699219 C 314.378906 266.941406 321.316406 271.296875 327.675781 275.285156 C 329.214844 276.253906 330.738281 277.210938 332.246094 278.140625 C 336.605469 280.824219 340.902344 283.519531 345.171875 286.195312 C 372.496094 303.335938 398.304688 319.523438 430.261719 326.546875 C 453.992188 331.761719 471.328125 334.84375 495.152344 330.359375 L 495.351562 330.328125 C 498.136719 329.925781 503.125 325.222656 505.230469 298.261719 C 507.347656 271.183594 499.058594 233.550781 479.117188 214.015625 "/>
<path fill-rule="nonzero" fill="rgb(98.092651%, 72.239685%, 3.811646%)" fill-opacity="1" d="M 325.835938 388.1875 C 322.902344 386.722656 320.117188 384.828125 317.523438 382.621094 C 326.058594 395.960938 336.871094 407.910156 351.84375 414.257812 C 359.613281 417.554688 368.21875 419.226562 377.425781 419.226562 C 394.105469 419.226562 412.816406 413.605469 428.761719 403.804688 C 431.9375 401.855469 434.804688 399.902344 437.371094 397.949219 C 403.648438 414.230469 369.835938 413.019531 325.835938 388.1875 "/>
<path fill-rule="nonzero" fill="rgb(98.092651%, 72.239685%, 3.811646%)" fill-opacity="1" d="M 429.007812 337.722656 C 428.382812 337.003906 427.757812 336.277344 427.132812 335.554688 C 426.40625 335.390625 425.675781 335.226562 424.953125 335.050781 C 422.738281 339.175781 428.941406 354.769531 429.421875 357.800781 C 404.015625 349.1875 411.589844 368.664062 380.527344 369.882812 C 384.425781 371.355469 388.671875 372.527344 393.347656 373.351562 C 394.828125 373.613281 396.25 373.835938 397.621094 374.027344 C 405.601562 366.378906 419.328125 361.316406 428.722656 368.90625 C 433.128906 364.328125 432.1875 358.800781 432.1875 358.800781 C 435.136719 360.535156 437.09375 362.851562 438.332031 365.167969 C 441.738281 362.019531 445.847656 360.359375 449.609375 361.246094 C 446.105469 355.613281 440.835938 350.171875 436.011719 345.199219 C 433.480469 342.59375 431.113281 340.152344 429.007812 337.722656 "/>
<path fill-rule="nonzero" fill="rgb(98.092651%, 72.239685%, 3.811646%)" fill-opacity="1" d="M 288.851562 283.878906 C 289.144531 281.246094 290.519531 279.339844 292.445312 278.179688 C 287.625 274.859375 282.332031 272.476562 276.421875 271.472656 C 269.027344 270.738281 263.707031 272.835938 255.859375 277.660156 C 256.414062 274.246094 257.597656 270.535156 259.625 267.609375 C 258.121094 267.90625 256.421875 268.136719 254.714844 268.703125 C 246.355469 269.347656 238.007812 265.191406 235.855469 258.316406 C 233.011719 263.628906 232.304688 268.398438 233.316406 271.0625 C 235.773438 277.511719 241.675781 281.515625 249.84375 287.054688 C 255.640625 290.988281 262.34375 295.542969 269.386719 302.070312 C 266.191406 295.890625 263.894531 291.789062 263.84375 291.695312 L 262.160156 288.703125 L 265.140625 290.40625 C 277.632812 297.546875 283.980469 312.339844 290.699219 328.003906 C 291.199219 329.175781 291.703125 330.347656 292.214844 331.523438 C 292.289062 331.703125 292.371094 331.886719 292.445312 332.066406 C 288.121094 316.621094 286.496094 300.367188 288.851562 283.878906 "/>
<path fill-rule="nonzero" fill="rgb(92.939758%, 10.978699%, 14.118958%)" fill-opacity="1" d="M 329.117188 313.472656 C 330.449219 315.667969 331.75 317.816406 333.03125 319.878906 L 334.027344 321.484375 C 343.761719 337.171875 352.140625 347.449219 364.644531 357.191406 L 364.667969 357.125 C 375.394531 361.015625 384.820312 364.046875 392.679688 358.640625 C 398.707031 354.496094 401.792969 350.648438 401.851562 347.199219 C 401.945312 341.5625 394.171875 335.820312 386.65625 330.273438 C 384.847656 328.9375 382.980469 327.558594 381.234375 326.1875 C 377.46875 323.226562 374.289062 320.257812 371.480469 317.640625 C 364.285156 310.917969 359.46875 306.433594 350.988281 306.980469 C 362.730469 313.144531 371.839844 323.835938 376.835938 334.839844 C 376.835938 334.839844 348.585938 308.597656 326.222656 308.71875 C 327.207031 310.324219 328.171875 311.910156 329.117188 313.472656 "/>
<path fill-rule="nonzero" fill="rgb(83.378601%, 9.660339%, 12.423706%)" fill-opacity="1" d="M 339.109375 325.601562 C 341.816406 319.515625 347.417969 317.300781 353.15625 317.554688 C 344.644531 312.675781 334.984375 308.671875 326.222656 308.71875 C 327.207031 310.324219 328.171875 311.910156 329.117188 313.472656 C 330.449219 315.667969 331.75 317.816406 333.03125 319.878906 L 334.027344 321.484375 C 335.628906 324.066406 337.195312 326.488281 338.746094 328.800781 C 338.640625 327.65625 338.652344 326.519531 339.109375 325.601562 "/>
<path fill-rule="nonzero" fill="rgb(83.378601%, 9.660339%, 12.423706%)" fill-opacity="1" d="M 374.039062 320.011719 C 373.152344 319.199219 372.300781 318.402344 371.480469 317.640625 C 364.285156 310.917969 359.46875 306.433594 350.988281 306.980469 C 358.128906 310.730469 364.285156 316.15625 369.144531 322.304688 C 370.039062 321.757812 370.90625 321.308594 371.355469 320.859375 C 372.15625 320.539062 373.070312 320.25 374.039062 320.011719 "/>
<path fill-rule="nonzero" fill="rgb(83.378601%, 9.660339%, 12.423706%)" fill-opacity="1" d="M 394.113281 345.515625 C 381.964844 355.519531 364.433594 352.597656 350.847656 344.464844 C 355 349.03125 359.46875 353.160156 364.644531 357.191406 L 364.667969 357.125 C 375.394531 361.015625 384.820312 364.046875 392.679688 358.640625 C 398.707031 354.496094 401.792969 350.648438 401.851562 347.199219 C 401.871094 345.929688 401.480469 344.65625 400.796875 343.382812 C 398.320312 342.511719 395.617188 344.007812 394.113281 345.515625 "/>
<path fill-rule="nonzero" fill="rgb(92.939758%, 10.978699%, 14.118958%)" fill-opacity="1" d="M 322.226562 302.257812 C 322.183594 302.214844 322.136719 302.167969 322.089844 302.121094 C 322.121094 302.171875 322.152344 302.21875 322.179688 302.265625 C 322.195312 302.261719 322.210938 302.261719 322.226562 302.257812 "/>
<path fill-rule="nonzero" fill="rgb(100%, 100%, 100%)" fill-opacity="1" d="M 313.941406 141.511719 C 302.261719 139.242188 291.746094 143.667969 285.09375 153.648438 C 275.25 168.414062 273.234375 194.140625 297.089844 230.042969 L 296.71875 230.289062 C 332.902344 237.03125 357.894531 221.765625 357.894531 221.765625 C 362.753906 187.003906 351.046875 148.707031 313.941406 141.511719 "/>
<path fill-rule="nonzero" fill="rgb(100%, 100%, 100%)" fill-opacity="1" d="M 447.042969 188.917969 C 448.902344 179.464844 447.625 170.328125 443.109375 160.523438 C 438.75 151.046875 421.164062 127.789062 410.765625 127.789062 C 410.734375 127.789062 410.710938 127.789062 410.683594 127.789062 C 409.652344 127.804688 406.519531 127.839844 403.890625 133.921875 C 397.121094 149.59375 413.304688 173.175781 422.535156 186.351562 C 430.78125 186.722656 439.0625 187.4375 447.042969 188.917969 "/>
<path fill-rule="nonzero" fill="rgb(92.939758%, 10.978699%, 14.118958%)" fill-opacity="1" d="M 798.105469 494.425781 C 782.265625 511.460938 754.59375 519.492188 731.832031 521.269531 C 729.332031 521.46875 726.878906 521.558594 724.476562 521.558594 C 707.570312 521.5625 693.972656 519.804688 680.722656 514.054688 C 683.0625 534.109375 688.964844 548.824219 691.875 551.476562 C 712.777344 570.234375 754.671875 574.363281 779.773438 560.144531 C 796.324219 550.769531 805.972656 541.769531 808.453125 529.65625 C 810.65625 518.910156 807.167969 507.066406 798.105469 494.425781 "/>
<path fill-rule="nonzero" fill="rgb(92.939758%, 10.978699%, 14.118958%)" fill-opacity="1" d="M 743.570312 580.046875 C 724.90625 580.046875 705.890625 574.964844 691.859375 565.355469 C 689.660156 578.273438 690.636719 593.085938 690.976562 595.644531 C 697.386719 607.078125 712.480469 619.09375 748.15625 613.628906 C 764.316406 611.152344 774.816406 606.011719 781.1875 597.441406 C 786.394531 590.4375 789.140625 581.644531 789.683594 568.070312 C 788.003906 569.144531 786.269531 570.207031 784.445312 571.242188 C 772.8125 577.832031 758.304688 580.046875 743.570312 580.046875 "/>
<path fill-rule="nonzero" fill="rgb(92.939758%, 10.978699%, 14.118958%)" fill-opacity="1" d="M 679.914062 598.09375 C 678.988281 594.835938 679.914062 581.75 681.613281 569.695312 C 679.828125 572.949219 677.113281 575.890625 673.191406 578.414062 C 680.648438 558.953125 676.496094 540.011719 669.480469 521.402344 C 663.675781 530.371094 654.074219 532.507812 654.074219 532.507812 C 684.535156 491.179688 693.988281 444.105469 682.789062 416.996094 C 682.789062 416.996094 691.273438 419.605469 695.46875 433.910156 C 696.320312 426.410156 698.101562 421.164062 699.964844 415.6875 C 701.855469 410.128906 703.8125 404.382812 705.105469 395.277344 C 708.734375 369.695312 699.003906 337.453125 676.441406 327.773438 C 658.394531 320.027344 641.90625 321.816406 631.175781 333.085938 C 629.140625 337.039062 633.3125 352.800781 635.460938 363.304688 C 637.804688 374.753906 640.964844 385.566406 640.367188 392.898438 C 639.085938 408.546875 629.996094 422.003906 623.039062 435.933594 C 617.3125 447.394531 611.90625 459.175781 609.519531 470.613281 C 604.320312 495.527344 616.222656 525.980469 637.761719 547.519531 C 637.761719 547.519531 624.707031 546.863281 617.855469 539.136719 C 617.125 539.75 616.347656 540.3125 615.660156 540.980469 C 582.285156 573.621094 567.515625 571.535156 567.515625 571.535156 C 570.003906 568.957031 572.570312 566.4375 575.164062 563.941406 C 562.113281 555.214844 552.246094 546.695312 542.242188 538.519531 C 535.046875 550.082031 526.140625 560.082031 519.503906 566.183594 C 519.832031 567.015625 520.164062 567.855469 520.496094 568.695312 C 548.140625 592.5 586.691406 623.296875 606.535156 657.335938 L 670.253906 657.335938 C 685.292969 647.484375 697.652344 633.871094 706.105469 622.964844 C 694.367188 619.773438 684.054688 612.648438 679.914062 598.09375 "/>
<path fill-rule="nonzero" fill="rgb(92.939758%, 10.978699%, 14.118958%)" fill-opacity="1" d="M 723.433594 427.808594 C 723.433594 427.808594 712.808594 432.660156 708.339844 440.707031 C 725.207031 439.1875 737.15625 442.652344 744.132812 447.671875 C 744.132812 447.671875 712.15625 445.058594 696.703125 452.582031 C 696.203125 461.46875 694.238281 470.753906 690.800781 480.390625 C 688.378906 487.1875 687.109375 490.40625 683.175781 497.710938 C 697.757812 504.253906 713.898438 509.515625 732.988281 508.023438 C 755.890625 506.234375 784.867188 500.832031 796.53125 480.8125 C 803.097656 469.542969 802.789062 456.054688 795.613281 440.722656 C 779.425781 406.132812 753.414062 413.398438 723.300781 421.8125 C 717.828125 423.34375 712.195312 424.898438 706.574219 426.21875 C 706.113281 427.910156 705.710938 429.683594 705.375 431.605469 C 711.316406 428.859375 717.660156 427.425781 723.433594 427.808594 "/>
<path fill-rule="nonzero" fill="rgb(83.378601%, 9.660339%, 12.423706%)" fill-opacity="1" d="M 754.585938 556.621094 C 754.671875 543.472656 751.429688 530.082031 742.851562 519.960938 C 739.101562 520.558594 735.40625 520.992188 731.832031 521.269531 C 729.332031 521.46875 726.878906 521.558594 724.476562 521.558594 C 707.570312 521.5625 693.972656 519.804688 680.722656 514.054688 C 683.0625 534.109375 688.964844 548.824219 691.875 551.476562 C 712.777344 570.234375 754.671875 574.363281 779.773438 560.144531 C 789.25 554.777344 796.453125 549.53125 801.355469 543.753906 C 788.609375 554.789062 770.605469 560.890625 754.585938 556.621094 "/>
<path fill-rule="nonzero" fill="rgb(83.378601%, 9.660339%, 12.423706%)" fill-opacity="1" d="M 747.179688 604.3125 C 751.601562 597.300781 752.027344 588.144531 749.625 579.910156 C 747.617188 580 745.59375 580.046875 743.570312 580.046875 C 724.90625 580.046875 705.890625 574.964844 691.859375 565.355469 C 689.660156 578.273438 690.636719 593.085938 690.976562 595.644531 C 697.386719 607.078125 712.480469 619.09375 748.15625 613.628906 C 764.316406 611.152344 774.816406 606.011719 781.1875 597.441406 C 781.800781 596.617188 782.375 595.765625 782.921875 594.886719 C 772.070312 602.023438 759.472656 606.785156 747.179688 604.3125 "/>
<path fill-rule="nonzero" fill="rgb(83.378601%, 9.660339%, 12.423706%)" fill-opacity="1" d="M 683.550781 400.003906 C 676.980469 395.664062 663.109375 387.554688 661.53125 394.828125 C 671.246094 423.976562 682.714844 459.597656 677.394531 490.5625 C 688.515625 462.238281 690.285156 435.144531 682.789062 416.996094 C 682.789062 416.996094 691.273438 419.605469 695.46875 433.910156 C 696.320312 426.410156 698.101562 421.164062 699.964844 415.6875 C 701.855469 410.128906 703.8125 404.382812 705.105469 395.277344 C 708.734375 369.695312 699.003906 337.453125 676.441406 327.773438 C 670.753906 325.328125 665.214844 323.839844 659.96875 323.289062 C 659.855469 323.425781 659.738281 323.5625 659.632812 323.703125 C 644.144531 339.507812 694.449219 374.582031 683.550781 400.003906 "/>
<path fill-rule="nonzero" fill="rgb(83.378601%, 9.660339%, 12.423706%)" fill-opacity="1" d="M 679.914062 598.09375 C 678.988281 594.835938 679.914062 581.75 681.613281 569.695312 C 679.828125 572.949219 677.113281 575.890625 673.191406 578.414062 C 680.648438 558.953125 676.496094 540.011719 669.480469 521.402344 C 669.386719 521.550781 669.289062 521.6875 669.191406 521.828125 C 668.800781 546.789062 662.828125 572.582031 649.203125 593.019531 C 654.890625 593.019531 659.632812 593.019531 665.324219 593.019531 C 647.378906 609.253906 622.503906 615.476562 598.332031 613.773438 C 582.832031 597.613281 565.550781 582.773438 546.492188 570.1875 C 551.292969 564.589844 555.832031 558.566406 558.625 551.863281 C 552.871094 547.332031 547.574219 542.878906 542.242188 538.519531 C 535.046875 550.082031 526.140625 560.082031 519.503906 566.183594 C 519.832031 567.015625 520.164062 567.855469 520.496094 568.695312 C 548.140625 592.5 586.691406 623.296875 606.535156 657.335938 L 670.253906 657.335938 C 685.292969 647.484375 697.652344 633.871094 706.105469 622.964844 C 694.367188 619.773438 684.054688 612.648438 679.914062 598.09375 "/>
<path fill-rule="nonzero" fill="rgb(83.378601%, 9.660339%, 12.423706%)" fill-opacity="1" d="M 690.800781 480.390625 C 688.378906 487.1875 687.109375 490.40625 683.175781 497.710938 C 697.757812 504.253906 713.898438 509.515625 732.988281 508.023438 C 755.890625 506.234375 784.867188 500.832031 796.53125 480.8125 C 803.097656 469.542969 802.789062 456.054688 795.613281 440.722656 C 789.453125 427.5625 781.867188 420.464844 773.179688 417.179688 C 773.757812 418.816406 774.175781 420.527344 774.375 422.328125 C 776.273438 437.5 769.636719 455.519531 756.359375 465.949219 C 750.667969 469.742188 759.203125 491.554688 744.980469 495.347656 C 752.878906 478.671875 748.585938 457.128906 733.617188 447.246094 C 722.894531 447.117188 706.488281 447.816406 696.703125 452.582031 C 696.203125 461.46875 694.238281 470.753906 690.800781 480.390625 "/>
<path fill-rule="nonzero" fill="rgb(92.939758%, 10.978699%, 14.118958%)" fill-opacity="1" d="M 168.199219 95.253906 C 168.199219 95.253906 145.941406 97.65625 141.246094 101.433594 C 166.386719 122.460938 160.945312 162.96875 160.945312 162.96875 C 159.699219 156.195312 154.628906 143.070312 152.730469 137.511719 C 153.554688 174.011719 134.539062 197.492188 109.988281 227.8125 L 108.191406 230.03125 C 96.878906 244.015625 92.316406 260.074219 94.636719 277.769531 C 99.324219 313.511719 130.667969 347.820312 156.085938 366.339844 C 185.539062 387.800781 218.996094 394.71875 252.507812 396.980469 C 246.472656 391.074219 240.695312 384.800781 235.089844 378.203125 C 248.78125 386.019531 275.503906 396.480469 290.132812 385.4375 C 319.484375 363.277344 248.242188 305.195312 228.25 297.5 C 215.828125 292.71875 201.871094 289.679688 206.898438 273.527344 C 209.210938 266.109375 214.753906 259.167969 220.9375 252.804688 C 210.6875 254.386719 201.878906 251.246094 197.132812 237.339844 C 203.363281 235.335938 205.933594 229.8125 207.84375 223.960938 C 214.851562 202.488281 207.167969 181.964844 224.351562 163.558594 C 218.113281 168.304688 210.539062 176.648438 203.089844 179.210938 C 186.285156 184.984375 195.28125 167.738281 201.34375 159.210938 C 209.671875 147.5 221.441406 137.398438 234.621094 131.621094 C 227.273438 131.722656 212.296875 133.570312 216.734375 123.671875 C 225.359375 104.4375 272.984375 104.046875 296.417969 110.929688 C 305.246094 113.523438 312.8125 117.011719 319.539062 120.8125 C 319.542969 120.796875 319.546875 120.78125 319.554688 120.769531 C 319.652344 120.839844 319.757812 120.917969 319.859375 120.992188 C 333.675781 128.847656 343.949219 137.976562 354.347656 143.265625 C 361.480469 146.414062 368.679688 148.25 375.214844 147.382812 C 375.550781 147.335938 375.886719 147.277344 376.226562 147.222656 C 381.195312 146.335938 385.753906 143.8125 389.5625 139.015625 C 393.742188 133.75 395.089844 125.515625 395.640625 117.476562 C 395.578125 115.398438 395.445312 113.324219 395.234375 111.242188 C 357.914062 44.996094 279.402344 18.699219 223.175781 16.347656 C 196.054688 15.214844 188.113281 17.46875 185.851562 18.652344 C 222.007812 30.566406 228.570312 53.503906 228.570312 53.503906 C 207.78125 44.839844 136.558594 34.320312 121.882812 48.351562 C 122.1875 53.964844 168.226562 62.46875 168.226562 62.46875 C 142.242188 64.027344 115.265625 62.136719 91.929688 76.855469 C 79.386719 84.769531 73.035156 97.425781 75.332031 100.480469 C 79.378906 105.867188 125.414062 83.289062 168.199219 95.253906 "/>
<path fill-rule="nonzero" fill="rgb(83.378601%, 9.660339%, 12.423706%)" fill-opacity="1" d="M 503.183594 232.382812 C 501.164062 194.347656 471.957031 169.042969 442.28125 145.113281 C 451.628906 162.339844 474.457031 169.730469 478.320312 188.128906 C 479.1875 192.265625 478.632812 196.410156 477.175781 200.308594 C 480.203125 202.320312 483.078125 204.613281 485.757812 207.242188 C 493.003906 214.34375 498.769531 223.253906 503.207031 233.007812 C 503.195312 232.800781 503.195312 232.59375 503.183594 232.382812 "/>
<path fill-rule="nonzero" fill="rgb(83.378601%, 9.660339%, 12.423706%)" fill-opacity="1" d="M 442.097656 339.214844 C 447.585938 344.875 453.570312 351.058594 457.5625 357.914062 C 461.351562 353.457031 464.824219 347.664062 468.203125 341.941406 C 459.34375 341.621094 450.738281 340.371094 441.480469 338.578125 C 441.6875 338.789062 441.886719 339 442.097656 339.214844 "/>
<path fill-rule="nonzero" fill="rgb(83.378601%, 9.660339%, 12.423706%)" fill-opacity="1" d="M 228.25 297.5 C 215.828125 292.71875 201.871094 289.679688 206.898438 273.527344 C 209.113281 266.417969 214.304688 259.746094 220.175781 253.601562 C 218.097656 253.859375 189.71875 263.1875 190.140625 287.582031 C 182.527344 280.476562 173.480469 269.855469 167.390625 271.597656 C 164.492188 273.046875 163.222656 281.441406 165.648438 292.765625 C 156.660156 279.136719 136.941406 261.738281 130.488281 263.964844 C 126.472656 265.347656 125.234375 281.15625 127.785156 290.28125 C 122.078125 279.457031 106.203125 258.546875 101.089844 259.222656 C 94.675781 260.132812 94.203125 274.449219 94.636719 277.769531 C 99.324219 313.511719 130.667969 347.820312 156.085938 366.339844 C 185.539062 387.800781 218.996094 394.71875 252.507812 396.980469 C 246.472656 391.074219 240.695312 384.800781 235.089844 378.203125 C 248.78125 386.019531 275.503906 396.480469 290.132812 385.4375 C 319.484375 363.277344 248.242188 305.195312 228.25 297.5 "/>
<path fill-rule="nonzero" fill="rgb(83.378601%, 9.660339%, 12.423706%)" fill-opacity="1" d="M 168.199219 95.253906 C 168.199219 95.253906 149.40625 97.285156 142.71875 100.546875 C 167.390625 109.78125 185.949219 103.402344 182.644531 98.011719 C 168.261719 68.894531 117.210938 75.253906 89.710938 92.324219 C 84.671875 95.472656 80.046875 98.613281 75.007812 99.816406 C 75.082031 100.070312 75.191406 100.292969 75.332031 100.480469 C 79.378906 105.867188 125.414062 83.289062 168.199219 95.253906 "/>
<path fill-rule="nonzero" fill="rgb(83.378601%, 9.660339%, 12.423706%)" fill-opacity="1" d="M 168.226562 62.46875 C 175.003906 62.113281 187.6875 65.414062 188.558594 61.644531 C 185.660156 46.855469 122.28125 47.96875 121.882812 48.351562 C 122.140625 53.082031 157.921875 60.449219 168.226562 62.46875 "/>
<path fill-rule="nonzero" fill="rgb(83.378601%, 9.660339%, 12.423706%)" fill-opacity="1" d="M 360.066406 68.414062 C 371.914062 82.402344 379.859375 99.179688 379.027344 117.703125 C 374.40625 107.410156 364.597656 99.292969 354.285156 95.167969 C 358.535156 105.367188 366.582031 117.847656 362.0625 129.203125 C 325.6875 115.511719 280.839844 90.273438 244.375 108.410156 C 261.765625 105.445312 283.035156 107 296.417969 110.929688 C 305.246094 113.523438 312.8125 117.011719 319.539062 120.8125 C 319.542969 120.796875 319.546875 120.78125 319.554688 120.769531 C 319.652344 120.839844 319.757812 120.917969 319.859375 120.992188 C 333.675781 128.847656 343.949219 137.976562 354.347656 143.265625 C 361.480469 146.414062 368.679688 148.25 375.214844 147.382812 C 375.550781 147.335938 375.886719 147.277344 376.226562 147.222656 C 381.195312 146.335938 385.753906 143.8125 389.5625 139.015625 C 393.742188 133.75 395.089844 125.515625 395.640625 117.476562 C 395.578125 115.398438 395.445312 113.324219 395.234375 111.242188 C 385.804688 94.5 373.738281 80.3125 360.066406 68.414062 "/>
<path fill-rule="nonzero" fill="rgb(83.378601%, 9.660339%, 12.423706%)" fill-opacity="1" d="M 228.570312 53.503906 C 227.855469 53.203125 245.105469 61.644531 249.355469 59.828125 C 262.214844 52.652344 225.386719 21.335938 185.851562 18.652344 C 222.007812 30.566406 228.570312 53.503906 228.570312 53.503906 "/>
<path fill-rule="nonzero" fill="rgb(0%, 67.83905%, 93.728638%)" fill-opacity="1" d="M 378.042969 464.230469 C 382.640625 464.230469 387.167969 463.96875 391.621094 463.414062 C 406.015625 461.617188 415.378906 456.777344 417.984375 449.789062 C 420.226562 443.777344 417.867188 435.773438 411.335938 426.816406 C 412.363281 432.59375 411.269531 437.90625 405.847656 442.433594 C 382.589844 461.84375 328.757812 443.632812 305.539062 433.5625 C 289.769531 426.722656 276.011719 417.691406 263.492188 407.039062 C 250.972656 406.515625 240.054688 405.476562 227.257812 403.414062 C 241.160156 416.1875 259.769531 427.710938 272.539062 433.609375 C 304.144531 448.210938 341.972656 464.226562 378.042969 464.230469 "/>
<path fill-rule="nonzero" fill="rgb(0%, 67.83905%, 93.728638%)" fill-opacity="1" d="M 497.136719 514.785156 C 503.351562 509.257812 509.636719 500.863281 512.402344 493.667969 C 504.339844 486.601562 495.726562 479.089844 488.300781 471.796875 C 473.707031 457.46875 459.664062 443.6875 442.925781 433.148438 C 461.535156 451.40625 479.488281 478.445312 497.136719 514.785156 "/>
<path fill-rule="nonzero" fill="rgb(0%, 67.83905%, 93.728638%)" fill-opacity="1" d="M 500.511719 521.863281 C 504.039062 529.382812 507.554688 537.261719 511.0625 545.53125 C 512.582031 549.109375 514.269531 553.179688 516.023438 557.503906 C 525.335938 548.921875 537.261719 535.023438 543.15625 520.816406 C 538.902344 515.722656 526.886719 502.761719 519.484375 496.566406 L 518.4375 496.609375 C 514.980469 505.4375 508.335938 515.542969 500.511719 521.863281 "/>
<path fill-rule="nonzero" fill="rgb(0%, 67.83905%, 93.728638%)" fill-opacity="1" d="M 255.253906 519.214844 L 255.164062 519.234375 C 255.160156 519.199219 255.152344 519.167969 255.144531 519.136719 C 251.871094 516.585938 248.269531 514.179688 244.300781 511.882812 C 202.355469 487.585938 145.140625 482.429688 97.398438 498.402344 C 79.96875 507.320312 75.941406 525.308594 71.347656 545.832031 L 71.027344 547.160156 C 70.859375 547.652344 71.007812 548.609375 72.898438 550.203125 C 73.308594 549.257812 73.746094 548.257812 74.214844 547.191406 C 74.660156 546.046875 75.144531 544.933594 75.683594 543.863281 L 76.164062 542.773438 L 76.246094 542.808594 C 96.191406 506.355469 171.453125 518.070312 187.140625 520.960938 C 201.019531 523.519531 224.089844 530.9375 238.84375 536.074219 C 244.570312 535.835938 249.664062 535.636719 253.546875 535.511719 C 258.851562 535.34375 264.488281 535.175781 270.25 535.078125 C 266.207031 529.144531 261.292969 523.933594 255.253906 519.214844 "/>
<path fill-rule="nonzero" fill="rgb(0%, 67.83905%, 93.728638%)" fill-opacity="1" d="M 527.761719 587.722656 C 532.5625 598.710938 527.820312 611.511719 527.820312 611.511719 C 522.4375 595.664062 507.746094 564.230469 501.386719 549.234375 C 491.273438 525.398438 462.347656 451.726562 420.097656 422.769531 C 429.625 436.5625 429.261719 446.683594 426.867188 453.101562 C 424.109375 460.503906 415.957031 469.933594 392.796875 472.824219 C 387.964844 473.425781 383.054688 473.707031 378.09375 473.707031 C 340.152344 473.710938 299.1875 457.242188 266.664062 442.21875 C 257.742188 438.097656 246.101562 431.34375 234.976562 423.324219 C 244.003906 439.28125 250.167969 457.789062 254.523438 474.320312 C 255.554688 478.230469 256.527344 481.925781 257.5 485.417969 C 259.441406 492.402344 260.984375 500.148438 262.476562 507.644531 C 263.128906 510.902344 263.742188 513.980469 264.378906 516.960938 C 270.285156 522.253906 277.003906 528.136719 280.992188 534.839844 L 280.726562 535 C 290.894531 534.984375 299.246094 535.300781 308.515625 536.34375 C 360.847656 542.222656 423.410156 568.582031 462.035156 603.5 C 479.15625 618.980469 491.851562 638.347656 503.941406 657.335938 L 589.734375 657.335938 C 573.433594 631.410156 549.164062 607.019531 527.761719 587.722656 "/>
<path fill-rule="nonzero" fill="rgb(0%, 67.83905%, 93.728638%)" fill-opacity="1" d="M 248.09375 505.3125 C 240.738281 487.105469 227.753906 464.75 227.753906 464.75 C 236.621094 471.070312 242.847656 480.488281 249.929688 494.121094 C 249.433594 492.007812 248.914062 489.9375 248.363281 487.960938 C 247.375 484.402344 246.394531 480.679688 245.355469 476.738281 C 238.035156 448.96875 228.925781 414.410156 206.945312 399.925781 L 206.992188 399.683594 C 195.738281 396.878906 184.609375 393.078125 173.832031 387.90625 C 149.695312 390.460938 128.25 417.839844 111.726562 467.289062 C 110.558594 470.789062 109.476562 474.402344 108.429688 477.898438 C 107.425781 481.261719 107.335938 481.84375 106.199219 485.273438 C 153.695312 472.554688 207.320312 481.695312 248.09375 505.3125 "/>
<path fill-rule="nonzero" fill="rgb(0%, 57.931519%, 80.999756%)" fill-opacity="1" d="M 227.257812 403.414062 C 241.160156 416.1875 259.769531 427.710938 272.539062 433.609375 C 280.667969 437.363281 289.210938 441.210938 298.027344 444.855469 C 297.003906 439.871094 300.070312 435.359375 304.492188 433.082031 C 289.167969 426.300781 275.730469 417.453125 263.492188 407.039062 C 250.972656 406.515625 240.054688 405.476562 227.257812 403.414062 "/>
<path fill-rule="nonzero" fill="rgb(0%, 57.931519%, 80.999756%)" fill-opacity="1" d="M 405.847656 442.433594 C 405.726562 442.53125 405.601562 442.625 405.480469 442.722656 C 409.753906 445.621094 412.941406 450.277344 413.910156 455.414062 C 415.828125 453.738281 417.210938 451.859375 417.984375 449.789062 C 420.226562 443.777344 417.867188 435.773438 411.335938 426.816406 C 412.363281 432.59375 411.269531 437.90625 405.847656 442.433594 "/>
<path fill-rule="nonzero" fill="rgb(0%, 57.931519%, 80.999756%)" fill-opacity="1" d="M 497.136719 514.785156 C 500.402344 511.882812 503.683594 508.183594 506.46875 504.28125 C 499.972656 495.128906 494.683594 485.160156 491.011719 474.417969 C 490.09375 473.542969 489.1875 472.667969 488.300781 471.796875 C 473.707031 457.46875 459.664062 443.6875 442.925781 433.148438 C 461.535156 451.40625 479.488281 478.445312 497.136719 514.785156 "/>
<path fill-rule="nonzero" fill="rgb(0%, 57.931519%, 80.999756%)" fill-opacity="1" d="M 500.511719 521.863281 C 504.039062 529.382812 507.554688 537.261719 511.0625 545.53125 C 512.582031 549.109375 514.269531 553.179688 516.023438 557.503906 C 522.230469 551.78125 529.597656 543.691406 535.566406 534.726562 C 526.527344 527.46875 518.1875 519.324219 511.007812 510.324219 C 507.960938 514.6875 504.378906 518.738281 500.511719 521.863281 "/>
<path fill-rule="nonzero" fill="rgb(0%, 57.931519%, 80.999756%)" fill-opacity="1" d="M 97.398438 498.402344 C 79.96875 507.320312 75.941406 525.308594 71.347656 545.832031 L 71.027344 547.160156 C 70.859375 547.652344 71.007812 548.609375 72.898438 550.203125 C 73.308594 549.257812 73.746094 548.257812 74.214844 547.191406 C 74.660156 546.046875 75.144531 544.933594 75.683594 543.863281 L 76.164062 542.773438 L 76.246094 542.808594 C 83.207031 530.089844 96.90625 523.238281 112.457031 519.824219 C 110.28125 511.269531 115.253906 500.574219 120.582031 492.417969 C 112.683594 493.894531 104.921875 495.886719 97.398438 498.402344 "/>
<path fill-rule="nonzero" fill="rgb(0%, 57.931519%, 80.999756%)" fill-opacity="1" d="M 255.253906 519.214844 L 255.164062 519.234375 C 255.160156 519.199219 255.152344 519.167969 255.144531 519.136719 C 251.871094 516.585938 248.269531 514.179688 244.300781 511.882812 C 242.5625 510.871094 240.785156 509.90625 238.996094 508.964844 C 241.9375 518.007812 236.65625 526.894531 228.976562 532.726562 C 232.511719 533.894531 235.851562 535.03125 238.84375 536.074219 C 244.570312 535.835938 249.664062 535.636719 253.546875 535.511719 C 258.851562 535.34375 264.488281 535.175781 270.25 535.078125 C 266.207031 529.144531 261.292969 523.933594 255.253906 519.214844 "/>
<path fill-rule="nonzero" fill="rgb(0%, 57.931519%, 80.999756%)" fill-opacity="1" d="M 483.3125 508.335938 C 468.632812 477.996094 447.082031 441.265625 420.097656 422.769531 C 429.625 436.5625 429.261719 446.683594 426.867188 453.101562 C 425.691406 456.257812 423.527344 459.78125 419.648438 463.007812 C 446.683594 461.933594 466.863281 483.902344 483.3125 508.335938 "/>
<path fill-rule="nonzero" fill="rgb(0%, 57.931519%, 80.999756%)" fill-opacity="1" d="M 530.320312 590.050781 C 534.742188 602.722656 535.085938 615.984375 524.976562 627.15625 C 520.234375 610.089844 510.753906 595.863281 499.371094 583.535156 C 486.363281 596.121094 470.757812 599.425781 455.019531 597.472656 C 457.433594 599.453125 459.777344 601.460938 462.035156 603.5 C 479.15625 618.980469 491.851562 638.347656 503.941406 657.335938 L 589.734375 657.335938 C 574.078125 632.4375 551.082031 608.96875 530.320312 590.050781 "/>
<path fill-rule="nonzero" fill="rgb(0%, 57.931519%, 80.999756%)" fill-opacity="1" d="M 234.976562 423.324219 C 244.003906 439.28125 250.167969 457.789062 254.523438 474.320312 C 254.972656 476.015625 255.40625 477.660156 255.835938 479.273438 C 260.304688 464.625 279.128906 456.722656 296.4375 457.414062 C 298.804688 457.414062 301.121094 457.539062 303.40625 457.746094 C 290.453125 452.902344 278.042969 447.472656 266.664062 442.21875 C 257.742188 438.097656 246.101562 431.34375 234.976562 423.324219 "/>
<path fill-rule="nonzero" fill="rgb(0%, 57.931519%, 80.999756%)" fill-opacity="1" d="M 240.269531 458.144531 C 233.519531 435.03125 224.195312 411.292969 206.945312 399.925781 L 206.992188 399.683594 C 195.738281 396.878906 184.609375 393.078125 173.832031 387.90625 C 160.074219 389.363281 147.195312 398.894531 135.601562 415.96875 C 126.851562 428.851562 118.832031 446.023438 111.726562 467.289062 C 110.558594 470.789062 109.476562 474.402344 108.429688 477.898438 C 107.425781 481.261719 107.335938 481.84375 106.199219 485.273438 C 113.867188 483.21875 121.695312 481.746094 129.601562 480.800781 C 136.136719 456.199219 147.113281 431.746094 165.21875 413.574219 C 190.695312 417.289062 216.148438 434.019531 233.851562 451.726562 C 235.972656 453.84375 238.148438 455.964844 240.269531 458.144531 "/>
<path fill-rule="nonzero" fill="rgb(92.939758%, 10.978699%, 14.118958%)" fill-opacity="1" d="M 450.308594 609.128906 C 412.785156 575.207031 355.679688 549.597656 304.824219 543.882812 C 288.15625 542.007812 270.691406 543.109375 253.785156 543.097656 C 214.972656 543.066406 206.773438 553.785156 174.984375 539.113281 C 174.984375 539.113281 198.289062 537.921875 220.683594 536.886719 C 208.808594 533.082031 195.488281 529.296875 185.421875 527.441406 C 176.472656 525.792969 100.644531 515.503906 84.15625 548.152344 L 83.765625 549.039062 C 83.464844 549.722656 83.179688 550.367188 82.902344 550.988281 C 82.691406 551.5625 82.496094 552.144531 82.316406 552.738281 L 82.15625 552.691406 C 80.964844 555.414062 80.03125 557.613281 79.246094 559.6875 L 78.878906 561.539062 L 78.558594 561.585938 C 78.292969 562.355469 78.042969 563.128906 77.800781 563.921875 L 76.125 569.460938 L 71.023438 566.722656 C 66.609375 564.355469 61.976562 561.488281 57.5 558.71875 C 46.832031 552.121094 35.851562 545.324219 26.628906 544.214844 C 27.375 546.964844 29.46875 551.691406 34.945312 559.492188 C 41.289062 568.523438 49.671875 578.214844 56.410156 586 C 57.605469 587.382812 58.746094 588.699219 59.800781 589.929688 L 68.550781 600.125 C 68.550781 600.125 26.78125 582.003906 18.882812 584.289062 C 18.964844 602.914062 68.304688 648.988281 68.304688 648.988281 C 68.304688 648.988281 39.828125 646.125 33 645.476562 C 40.574219 666.523438 100.40625 681.546875 132.859375 681.683594 C 132.859375 681.683594 122.902344 688.796875 110.117188 688.785156 C 144.164062 711.941406 195.933594 716.535156 264.351562 702.386719 C 287.734375 697.550781 311.097656 689.84375 333.6875 682.394531 C 361.90625 673.085938 391.082031 663.460938 420.992188 659.136719 C 439.3125 656.484375 465.585938 654.683594 487.398438 655.929688 C 476.605469 639.167969 465.082031 622.480469 450.308594 609.128906 "/>
<path fill-rule="nonzero" fill="rgb(83.378601%, 9.660339%, 12.423706%)" fill-opacity="1" d="M 56.410156 586 C 57.605469 587.382812 58.746094 588.699219 59.800781 589.929688 L 68.34375 599.882812 C 75.625 603.601562 81.449219 605.738281 87.976562 603.859375 C 100.515625 601.277344 44.464844 566.609375 27.097656 545.683594 C 28.128906 548.550781 30.339844 552.929688 34.945312 559.492188 C 41.289062 568.523438 49.671875 578.214844 56.410156 586 "/>
<path fill-rule="nonzero" fill="rgb(83.378601%, 9.660339%, 12.423706%)" fill-opacity="1" d="M 68.21875 648.914062 C 74.792969 650.050781 86.503906 654.378906 87.976562 650.324219 C 92.722656 637.277344 39.667969 614.921875 19.503906 584.164062 C 19.28125 584.195312 19.070312 584.238281 18.882812 584.289062 C 18.964844 602.492188 66.082031 646.90625 68.21875 648.914062 "/>
<path fill-rule="nonzero" fill="rgb(83.378601%, 9.660339%, 12.423706%)" fill-opacity="1" d="M 188.632812 538.429688 C 197.34375 537.996094 209.132812 537.421875 220.683594 536.886719 C 208.808594 533.082031 195.488281 529.296875 185.421875 527.441406 C 183.589844 527.105469 178.960938 526.40625 172.617188 525.785156 C 179.070312 528.863281 185.21875 532.722656 188.632812 538.429688 "/>
<path fill-rule="nonzero" fill="rgb(83.378601%, 9.660339%, 12.423706%)" fill-opacity="1" d="M 454.378906 612.980469 C 454.675781 615.761719 454.316406 618.402344 452.90625 620.519531 C 434.890625 648.019531 378.386719 625.898438 375.597656 631.074219 C 371.746094 633.273438 388.15625 640.734375 380.835938 642.332031 C 315.402344 633.796875 253.765625 657.503906 192.128906 676.46875 C 178.804688 681.171875 168.367188 682.777344 152.691406 675.960938 C 147.347656 672.449219 161.363281 668.027344 159.886719 661.757812 C 155.832031 658.070312 112.6875 688.691406 33.054688 645.613281 C 40.84375 666.589844 100.480469 681.546875 132.859375 681.683594 C 132.859375 681.683594 122.902344 688.796875 110.117188 688.785156 C 144.164062 711.941406 195.933594 716.535156 264.351562 702.386719 C 287.734375 697.550781 311.097656 689.84375 333.6875 682.394531 C 361.90625 673.085938 391.082031 663.460938 420.992188 659.136719 C 439.3125 656.484375 465.585938 654.683594 487.398438 655.929688 C 477.621094 640.742188 467.230469 625.625 454.378906 612.980469 "/>
<path fill-rule="nonzero" fill="rgb(20.957947%, 12.283325%, 8.898926%)" fill-opacity="1" d="M 330.378906 205.105469 C 335.105469 219.125 329.886719 233.546875 318.71875 237.308594 C 307.554688 241.070312 294.667969 232.753906 289.941406 218.730469 C 285.214844 204.710938 290.4375 190.289062 301.601562 186.527344 C 312.769531 182.761719 325.652344 191.082031 330.378906 205.105469 "/>
<path fill-rule="nonzero" fill="rgb(20.957947%, 12.283325%, 8.898926%)" fill-opacity="1" d="M 436.246094 170.996094 C 439.421875 180.132812 436.101562 189.585938 428.828125 192.113281 C 421.554688 194.644531 413.082031 189.289062 409.90625 180.152344 C 406.730469 171.019531 410.054688 161.5625 417.328125 159.035156 C 424.601562 156.503906 433.070312 161.863281 436.246094 170.996094 "/>
<path fill-rule="nonzero" fill="rgb(100%, 94.898987%, 0%)" fill-opacity="1" d="M 249.695312 250.222656 C 250.585938 252.878906 256.246094 253.378906 262.339844 251.335938 C 268.433594 249.292969 272.648438 245.484375 271.761719 242.828125 C 270.871094 240.171875 265.210938 239.675781 259.117188 241.71875 C 253.023438 243.761719 248.804688 247.566406 249.695312 250.222656 "/>
<path fill-rule="nonzero" fill="rgb(100%, 94.898987%, 0%)" fill-opacity="1" d="M 316.867188 318.691406 C 310.515625 347.144531 329.300781 362.472656 351.636719 371.980469 C 335.9375 358.398438 330.023438 335.519531 316.867188 318.691406 "/>
<path fill-rule="nonzero" fill="rgb(35.272217%, 19.113159%, 7.972717%)" fill-opacity="1" d="M 326.390625 212.699219 C 323.921875 219.984375 313.695312 227.050781 306.945312 228.097656 C 314.078125 231.832031 329.984375 230.878906 326.390625 212.699219 "/>
<path fill-rule="nonzero" fill="rgb(35.272217%, 19.113159%, 7.972717%)" fill-opacity="1" d="M 433.394531 170.921875 C 431.042969 179.023438 426.351562 180.3125 419.570312 182.714844 C 431.480469 188.1875 437.246094 180.78125 433.394531 170.921875 "/>
<path fill-rule="nonzero" fill="rgb(100%, 100%, 100%)" fill-opacity="1" d="M 303.550781 200.664062 C 303.550781 203.675781 301.851562 206.117188 299.757812 206.117188 C 297.664062 206.117188 295.964844 203.675781 295.964844 200.664062 C 295.964844 197.652344 297.664062 195.210938 299.757812 195.210938 C 301.851562 195.210938 303.550781 197.652344 303.550781 200.664062 "/>
<path fill-rule="nonzero" fill="rgb(100%, 100%, 100%)" fill-opacity="1" d="M 420.1875 168.480469 C 420.1875 170.738281 418.914062 172.570312 417.34375 172.570312 C 415.773438 172.570312 414.5 170.738281 414.5 168.480469 C 414.5 166.222656 415.773438 164.394531 417.34375 164.394531 C 418.914062 164.394531 420.1875 166.222656 420.1875 168.480469 "/>
<path fill-rule="nonzero" fill="rgb(100%, 94.898987%, 0%)" fill-opacity="1" d="M 414.535156 227.980469 C 412.710938 237.941406 410.09375 242.742188 400.644531 247.128906 C 429.734375 254.089844 451.117188 267.621094 478.613281 294.679688 C 469.886719 262.382812 438.753906 233.832031 414.535156 227.980469 "/>
</svg>
