<?xml version="1.0" encoding="UTF-8"?>
<svg xmlns="http://www.w3.org/2000/svg" xmlns:xlink="http://www.w3.org/1999/xlink" width="792" height="612" viewBox="0 0 792 612">
<path fill-rule="nonzero" fill="rgb(89.689636%, 8.537292%, 20.993042%)" fill-opacity="1" stroke-width="3.965" stroke-linecap="butt" stroke-linejoin="miter" stroke="rgb(13.729858%, 12.159729%, 12.548828%)" stroke-opacity="1" stroke-miterlimit="10" d="M -0.0009875 -0.000525 L -19.22755 9.675256 L -19.340831 9.530725 L -4.907238 -6.395056 Z M 21.698231 -25.195837 L 5.245106 -46.629431 L -4.79005 -38.926306 C -4.497081 -35.805212 -7.235363 -33.355994 -8.969738 -31.102087 L -42.8213 7.925256 L -21.6338 35.534631 L 26.354481 13.1401 C 28.413075 12.136194 32.143544 10.429163 34.409169 12.151819 L 44.448231 4.448694 L 25.655262 -20.035681 L 15.6162 -12.332556 C 16.260731 -10.398962 15.760731 -8.863806 14.2412 -7.699744 C 13.64745 -7.242712 13.006825 -6.980994 12.3662 -6.719275 L 5.174794 -16.094275 C 5.592762 -16.645056 6.073231 -17.246619 6.600575 -17.652869 C 8.186512 -18.867712 9.979481 -18.8599 11.659169 -17.492712 Z M 21.698231 -25.195837 " transform="matrix(1, 0, 0, -1, 165.2588, 197.5151)"/>
<path fill-rule="nonzero" fill="rgb(89.689636%, 8.537292%, 20.993042%)" fill-opacity="1" stroke-width="3.965" stroke-linecap="butt" stroke-linejoin="miter" stroke="rgb(13.729858%, 12.159729%, 12.548828%)" stroke-opacity="1" stroke-miterlimit="10" d="M 0.0014375 0.00100625 L 1.692844 1.254912 C 6.474094 4.797881 6.876437 7.790069 3.505344 12.34085 C 0.231906 16.754912 -2.748563 17.239287 -7.529813 13.692412 L -9.221219 12.438506 Z M -17.205594 23.208037 L -15.881375 24.188506 C -11.541531 27.407256 -9.975125 29.911162 -13.150906 34.192412 C -16.275906 38.407256 -19.397 37.543975 -23.514188 34.489287 L -24.838406 33.508819 Z M -13.314969 -28.319306 L -20.854031 -18.151338 C -19.291531 -15.647431 -20.361844 -13.745088 -21.725125 -11.7529 L -42.400906 16.137725 C -43.912625 18.024444 -45.420438 19.598662 -48.272 18.833037 L -55.807156 28.9971 L -27.264188 50.157256 C -22.338406 53.8096 -16.869656 57.969756 -10.814969 58.723662 C -4.174344 59.602569 0.938937 55.9346 4.458469 51.1846 C 9.32175 44.629912 9.770969 38.020537 4.048312 30.981475 L 4.149875 30.848662 C 12.935031 35.911162 20.091281 32.098662 25.048312 25.407256 C 28.520969 20.727569 31.212375 14.637725 29.32175 8.575225 C 27.313937 1.90335 21.626437 -2.416963 16.110812 -6.506806 Z M -13.314969 -28.319306 " transform="matrix(1, 0, 0, -1, 232.897, 158.1221)"/>
<path fill-rule="nonzero" fill="rgb(89.689636%, 8.537292%, 20.993042%)" fill-opacity="1" stroke-width="3.965" stroke-linecap="butt" stroke-linejoin="miter" stroke="rgb(13.729858%, 12.159729%, 12.548828%)" stroke-opacity="1" stroke-miterlimit="10" d="M 0.00148125 0.001475 C -1.072738 2.438975 -1.889144 4.989756 -5.244613 5.333506 L -10.33055 16.919444 L 16.91945 28.884287 L 22.009294 17.29835 C 19.993669 14.595225 21.317887 12.2671 22.3882 9.8296 L 35.274919 -19.51415 C 36.345231 -21.955556 37.165544 -24.502431 40.521012 -24.850088 L 45.60695 -36.436025 L 18.353044 -48.400869 L 13.267106 -36.814931 C 15.278825 -34.111806 13.958512 -31.783681 12.884294 -29.346181 Z M 0.00148125 0.001475 " transform="matrix(1, 0, 0, -1, 258.6118, 96.8296)"/>
<path fill-rule="nonzero" fill="rgb(89.689636%, 8.537292%, 20.993042%)" fill-opacity="1" stroke-width="3.965" stroke-linecap="butt" stroke-linejoin="miter" stroke="rgb(13.729858%, 12.159729%, 12.548828%)" stroke-opacity="1" stroke-miterlimit="10" d="M 0.00096875 0.001025 L 0.180656 0.032275 L -2.127938 12.39165 C -2.616219 15.012744 -2.834969 17.680713 -6.022469 18.782275 L -8.342781 31.219775 L 16.321281 35.82915 L 18.6455 23.387744 C 16.067375 21.211963 16.829094 18.645556 17.317375 16.024463 L 26.805656 -34.803662 L 3.48925 -39.155225 L -16.706063 -10.319287 L -16.88575 -10.354444 L -14.608406 -22.549756 C -14.120125 -25.166944 -13.901375 -27.838819 -10.713875 -28.936475 L -8.393563 -41.377881 L -32.338875 -45.850537 L -34.659188 -33.409131 C -32.084969 -31.23335 -32.842781 -28.666944 -33.331063 -26.04585 L -39.213875 5.465869 C -39.706063 8.083056 -39.924813 10.754931 -43.108406 11.852588 L -45.432625 24.293994 L -19.327156 29.168994 Z M 0.00096875 0.001025 " transform="matrix(1, 0, 0, -1, 349.1045, 83.7354)"/>
<path fill-rule="nonzero" fill="rgb(89.689636%, 8.537292%, 20.993042%)" fill-opacity="1" stroke-width="3.965" stroke-linecap="butt" stroke-linejoin="miter" stroke="rgb(13.729858%, 12.159729%, 12.548828%)" stroke-opacity="1" stroke-miterlimit="10" d="M 0.00190625 -0.0004875 L -23.431688 2.198731 L -23.28325 3.77295 C -22.990281 6.921388 -21.693406 12.905763 -27.072313 13.409669 C -31.630906 13.83545 -32.361375 9.976075 -32.646531 6.909669 L -35.607469 -24.672362 C -35.681688 -25.418456 -35.681688 -29.348144 -31.119188 -29.777831 C -25.740281 -30.281737 -25.904344 -24.160644 -25.599656 -20.930175 L -25.306688 -17.777831 L -29.498094 -17.387206 L -28.201219 -3.543456 L -0.576219 -6.1333 L -3.755906 -40.035644 C -12.002 -45.617675 -23.716844 -45.941894 -33.654344 -45.0083 C -40.673875 -44.35205 -48.650438 -43.10205 -53.8145 -38.35205 C -60.498094 -32.121581 -60.255906 -25.621581 -59.525438 -17.832519 L -56.990281 9.190919 C -56.400438 15.4917 -55.005906 21.550294 -48.947313 25.331544 C -42.884813 29.194825 -35.025438 29.624513 -27.822313 28.952638 C -17.154344 27.948731 -6.334031 24.675294 1.677687 17.905763 Z M 0.00190625 -0.0004875 " transform="matrix(1, 0, 0, -1, 445.377, 78.0542)"/>
<path fill-rule="nonzero" fill="rgb(89.689636%, 8.537292%, 20.993042%)" fill-opacity="1" stroke-width="3.965" stroke-linecap="butt" stroke-linejoin="miter" stroke="rgb(13.729858%, 12.159729%, 12.548828%)" stroke-opacity="1" stroke-miterlimit="10" d="M -0.00004375 -0.00095625 L 1.796831 -0.688456 C 6.753862 -2.594706 8.921831 -1.551737 10.769487 3.268575 L 20.406206 28.37795 C 22.257769 33.194356 21.343706 35.417013 16.386675 37.323263 L 14.5898 38.010763 Z M 26.070269 50.280294 C 32.312456 47.885763 39.4648 45.053731 43.2773 39.397481 C 47.62105 32.823263 45.894487 26.530294 43.445269 20.155294 L 33.867144 -4.793925 C 31.359331 -11.325175 29.081987 -16.243144 21.703081 -18.852519 C 14.757769 -21.360331 8.109331 -19.254862 1.18355 -16.594706 L -31.136763 -4.192362 L -26.601606 7.624044 C -23.648481 7.651388 -22.617231 9.573263 -21.664106 11.795919 L -9.226606 44.206075 C -8.414106 46.573263 -7.839888 48.581075 -10.105513 50.608419 L -5.56645 62.424825 Z M 26.070269 50.280294 " transform="matrix(1, 0, 0, -1, 481.3477, 122.0967)"/>
<path fill-rule="nonzero" fill="rgb(89.689636%, 8.537292%, 20.993042%)" fill-opacity="1" stroke-width="3.965" stroke-linecap="butt" stroke-linejoin="miter" stroke="rgb(13.729858%, 12.159729%, 12.548828%)" stroke-opacity="1" stroke-miterlimit="10" d="M 0.00093125 0 C -0.29985 -0.398438 -3.565475 -4.296875 0.461869 -7.320312 C 4.489213 -10.34375 7.317338 -6.117188 7.618119 -5.714844 L 27.000931 20.121094 C 27.301713 20.523438 30.520463 24.355469 26.489213 27.375 C 22.461869 30.398438 19.680619 26.238281 19.383744 25.839844 Z M 27.829056 -19.523438 C 17.235306 -33.644531 5.067338 -30.027344 -8.780319 -19.640625 C -22.624069 -9.253906 -29.502975 1.421875 -18.913131 15.539062 L -0.877975 39.582031 C 9.711869 53.699219 21.883744 50.085938 35.7314 39.695312 C 49.57515 29.308594 56.454056 18.636719 45.860306 4.515625 Z M 27.829056 -19.523438 " transform="matrix(1, 0, 0, -1, 546.7686, 152)"/>
<path fill-rule="nonzero" fill="rgb(89.689636%, 8.537292%, 20.993042%)" fill-opacity="1" stroke-width="3.965" stroke-linecap="butt" stroke-linejoin="miter" stroke="rgb(13.729858%, 12.159729%, 12.548828%)" stroke-opacity="1" stroke-miterlimit="10" d="M -0.0000375 -0.00190625 L 0.109338 -0.146437 L 10.152306 7.416063 C 12.281213 9.017625 14.574181 10.400438 14.140588 13.744188 L 24.249963 21.357469 L 39.343713 1.310594 L 29.234338 -6.302687 C 26.144494 -4.962844 24.17965 -6.783156 22.050744 -8.388625 L -19.246131 -39.486281 L -33.515662 -20.537062 L -16.671912 10.373094 L -16.781287 10.521531 L -26.691444 3.060594 C -28.816444 1.455125 -31.109412 0.0723125 -30.679725 -3.271437 L -40.785194 -10.880812 L -55.441444 8.576219 L -45.332069 16.1895 C -42.242225 14.849656 -40.277381 16.673875 -38.148475 18.275438 L -12.546912 37.556688 C -10.418006 39.15825 -8.125037 40.541063 -8.558631 43.884813 L 1.550744 51.498094 L 17.527306 30.279344 Z M -0.0000375 -0.00190625 " transform="matrix(1, 0, 0, -1, 625.3516, 203.877)"/>
<path fill-rule="nonzero" fill="rgb(89.689636%, 8.537292%, 20.993042%)" fill-opacity="1" stroke-width="3" stroke-linecap="butt" stroke-linejoin="miter" stroke="rgb(13.729858%, 12.159729%, 12.548828%)" stroke-opacity="1" stroke-miterlimit="10" d="M 0.00094375 -0.00095625 L 0.00094375 -15.200175 L -34.631869 -15.200175 L -34.631869 -7.74705 C -32.905306 -6.766581 -33.065462 -5.196269 -33.065462 -3.629862 L -33.065462 15.249044 C -33.065462 16.819356 -32.905306 18.389669 -34.631869 19.370138 L -34.631869 26.823263 L 0.00094375 26.823263 L 0.00094375 12.604513 L -13.268587 12.604513 L -13.268587 13.87795 C -13.268587 16.7217 -13.702181 17.897481 -17.584994 17.897481 L -18.448275 17.897481 L -18.448275 10.397481 L -9.331087 10.397481 L -9.331087 2.206075 L -18.448275 2.206075 L -18.448275 -6.274394 L -17.584994 -6.274394 C -13.268587 -6.274394 -13.323275 -4.805644 -13.268587 -1.37205 L -13.268587 -0.00095625 Z M 0.00094375 -0.00095625 " transform="matrix(1, 0, 0, -1, 206.2764, 543.4092)"/>
<path fill-rule="nonzero" fill="rgb(89.689636%, 8.537292%, 20.993042%)" fill-opacity="1" stroke-width="3" stroke-linecap="butt" stroke-linejoin="miter" stroke="rgb(13.729858%, 12.159729%, 12.548828%)" stroke-opacity="1" stroke-miterlimit="10" d="M 0.00095 -0.000975 L 0.00095 7.45215 C 1.727512 8.432619 1.56345 10.002931 1.56345 11.569337 L 1.56345 30.448244 C 1.56345 32.018556 1.727512 33.588869 0.00095 34.569337 L 0.00095 42.022462 L 17.5322 42.022462 L 17.5322 34.569337 C 15.805637 33.588869 15.965794 32.018556 15.965794 30.448244 L 15.965794 8.924806 L 17.368137 8.924806 C 21.036106 8.924806 20.981419 10.936525 20.981419 13.581056 L 20.981419 20.397462 L 33.661106 20.397462 L 33.661106 -0.000975 Z M 0.00095 -0.000975 " transform="matrix(1, 0, 0, -1, 212.5303, 558.6084)"/>
<path fill-rule="nonzero" fill="rgb(89.689636%, 8.537292%, 20.993042%)" fill-opacity="1" stroke-width="3" stroke-linecap="butt" stroke-linejoin="miter" stroke="rgb(13.729858%, 12.159729%, 12.548828%)" stroke-opacity="1" stroke-miterlimit="10" d="M -0.0019125 -0.00095625 L -0.0019125 -15.200175 L -34.630819 -15.200175 L -34.630819 -7.74705 C -32.904256 -6.766581 -33.064413 -5.196269 -33.064413 -3.629862 L -33.064413 15.249044 C -33.064413 16.819356 -32.904256 18.389669 -34.630819 19.370138 L -34.630819 26.823263 L -0.0019125 26.823263 L -0.0019125 12.604513 L -13.271444 12.604513 L -13.271444 13.87795 C -13.271444 16.7217 -13.701131 17.897481 -17.583944 17.897481 L -18.447225 17.897481 L -18.447225 10.397481 L -9.333944 10.397481 L -9.333944 2.206075 L -18.447225 2.206075 L -18.447225 -6.274394 L -17.583944 -6.274394 C -13.271444 -6.274394 -13.322225 -4.805644 -13.271444 -1.37205 L -13.271444 -0.00095625 Z M -0.0019125 -0.00095625 " transform="matrix(1, 0, 0, -1, 288.3691, 543.4092)"/>
<path fill-rule="nonzero" fill="rgb(89.689636%, 8.537292%, 20.993042%)" fill-opacity="1" stroke-width="3" stroke-linecap="butt" stroke-linejoin="miter" stroke="rgb(13.729858%, 12.159729%, 12.548828%)" stroke-opacity="1" stroke-miterlimit="10" d="M -0.00005 0.001025 L 0.105419 0.001025 L 4.960887 17.211963 L 22.6562 17.211963 L 22.6562 9.758838 C 20.929637 8.774463 21.089794 7.208056 21.089794 5.637744 L 21.089794 -13.237256 C 21.089794 -14.807569 20.929637 -16.377881 22.6562 -17.35835 L 22.6562 -24.811475 L 5.769481 -24.811475 L 5.769481 -17.35835 C 7.49995 -16.377881 7.335887 -14.807569 7.335887 -13.237256 L 7.335887 -1.959912 L 7.226512 -1.959912 L 0.972606 -24.811475 L -3.56255 -24.811475 L -10.140675 -1.959912 L -10.25005 -1.959912 L -10.25005 -13.237256 C -10.25005 -14.807569 -10.410206 -16.377881 -8.68755 -17.35835 L -8.68755 -24.811475 L -22.925831 -24.811475 L -22.925831 -17.35835 C -21.199269 -16.377881 -21.359425 -14.807569 -21.359425 -13.237256 L -21.359425 5.637744 C -21.359425 7.208056 -21.199269 8.774463 -22.925831 9.758838 L -22.925831 17.211963 L -4.746144 17.211963 Z M -0.00005 0.001025 " transform="matrix(1, 0, 0, -1, 318.8438, 533.7979)"/>
<path fill-rule="nonzero" fill="rgb(89.689636%, 8.537292%, 20.993042%)" fill-opacity="1" stroke-width="3" stroke-linecap="butt" stroke-linejoin="miter" stroke="rgb(13.729858%, 12.159729%, 12.548828%)" stroke-opacity="1" stroke-miterlimit="10" d="M -0.001925 -0.00095625 L -0.001925 -15.200175 L -34.630831 -15.200175 L -34.630831 -7.74705 C -32.904269 -6.766581 -33.068331 -5.196269 -33.068331 -3.629862 L -33.068331 15.249044 C -33.068331 16.819356 -32.904269 18.389669 -34.630831 19.370138 L -34.630831 26.823263 L -0.001925 26.823263 L -0.001925 12.604513 L -13.271456 12.604513 L -13.271456 13.87795 C -13.271456 16.7217 -13.701144 17.897481 -17.587862 17.897481 L -18.447237 17.897481 L -18.447237 10.397481 L -9.333956 10.397481 L -9.333956 2.206075 L -18.447237 2.206075 L -18.447237 -6.274394 L -17.587862 -6.274394 C -13.271456 -6.274394 -13.322237 -4.805644 -13.271456 -1.37205 L -13.271456 -0.00095625 Z M -0.001925 -0.00095625 " transform="matrix(1, 0, 0, -1, 384.4863, 543.4092)"/>
<path fill-rule="nonzero" fill="rgb(89.689636%, 8.537292%, 20.993042%)" fill-opacity="1" stroke-width="3" stroke-linecap="butt" stroke-linejoin="miter" stroke="rgb(13.729858%, 12.159729%, 12.548828%)" stroke-opacity="1" stroke-miterlimit="10" d="M -0.00004375 0.001 L 0.109331 0.001 L 0.109331 7.403344 C 0.109331 8.973656 0.269487 10.540062 -1.457075 11.524437 L -1.457075 18.977562 L 13.324175 18.977562 L 13.324175 11.524437 C 11.597612 10.540062 11.761675 8.973656 11.761675 7.403344 L 11.761675 -23.045875 L -2.210981 -23.045875 L -10.789106 -4.166969 L -10.894575 -4.166969 L -10.894575 -11.475563 C -10.894575 -13.041969 -11.058638 -14.612281 -9.332075 -15.59275 L -9.332075 -23.045875 L -23.679731 -23.045875 L -23.679731 -15.59275 C -21.953169 -14.612281 -22.113325 -13.041969 -22.113325 -11.475563 L -22.113325 7.403344 C -22.113325 8.973656 -21.953169 10.540062 -23.679731 11.524437 L -23.679731 18.977562 L -8.0352 18.977562 Z M -0.00004375 0.001 " transform="matrix(1, 0, 0, -1, 415.6602, 535.5635)"/>
<path fill-rule="nonzero" fill="rgb(89.689636%, 8.537292%, 20.993042%)" fill-opacity="1" stroke-width="3" stroke-linecap="butt" stroke-linejoin="miter" stroke="rgb(13.729858%, 12.159729%, 12.548828%)" stroke-opacity="1" stroke-miterlimit="10" d="M -0.001 0.0009625 L 39.862281 0.0009625 L 39.862281 -18.9756 L 29.670875 -18.9756 L 29.670875 -11.9131 C 29.670875 -10.002944 29.182594 -8.9756 27.135719 -8.924819 L 27.135719 -30.448256 C 27.135719 -32.018569 26.971656 -33.588881 28.698219 -34.56935 L 28.698219 -42.022475 L 11.166969 -42.022475 L 11.166969 -34.56935 C 12.893531 -33.588881 12.729469 -32.018569 12.729469 -30.448256 L 12.729469 -8.924819 C 10.682594 -8.9756 10.194313 -10.002944 10.194313 -11.9131 L 10.194313 -18.9756 L -0.001 -18.9756 Z M -0.001 0.0009625 " transform="matrix(1, 0, 0, -1, 435.9385, 516.5869)"/>
<path fill-rule="nonzero" fill="rgb(89.689636%, 8.537292%, 20.993042%)" fill-opacity="1" stroke-width="3" stroke-linecap="butt" stroke-linejoin="miter" stroke="rgb(13.729858%, 12.159729%, 12.548828%)" stroke-opacity="1" stroke-miterlimit="10" d="M 0.00099375 -0.001 L -2.374006 12.452125 L -2.479475 12.452125 L -4.7451 -0.001 Z M -3.991194 -19.172875 L -19.905256 -19.172875 L -19.905256 -11.71975 C -18.33885 -10.739281 -18.178694 -8.579125 -17.7451 -6.961937 L -11.65135 22.850563 L 8.84865 22.850563 L 15.590837 -7.602562 C 15.860369 -8.922875 16.399431 -11.278344 18.016619 -11.71975 L 18.016619 -19.172875 L -0.159163 -19.172875 L -0.159163 -11.71975 C 0.97365 -11.325219 1.512712 -10.540062 1.512712 -9.415062 C 1.512712 -8.973656 1.403337 -8.579125 1.293962 -8.1885 L -5.663069 -8.1885 C -5.772444 -8.579125 -5.877913 -9.020531 -5.877913 -9.415062 C -5.877913 -10.590844 -5.229475 -11.426781 -3.991194 -11.71975 Z M -3.991194 -19.172875 " transform="matrix(1, 0, 0, -1, 500.5576, 539.4365)"/>
<path fill-rule="nonzero" fill="rgb(89.689636%, 8.537292%, 20.993042%)" fill-opacity="1" stroke-width="3" stroke-linecap="butt" stroke-linejoin="miter" stroke="rgb(13.729858%, 12.159729%, 12.548828%)" stroke-opacity="1" stroke-miterlimit="10" d="M -0.00191875 -0.00095625 L 1.455113 -0.00095625 C 4.587925 -0.00095625 5.556675 1.4717 5.556675 4.413106 C 5.556675 7.108419 4.587925 8.581075 1.455113 8.581075 L -0.00191875 8.581075 Z M -0.00191875 -13.188456 C -0.00191875 -14.758769 -0.162075 -16.329081 1.564488 -17.30955 L 1.564488 -24.762675 L -15.966762 -24.762675 L -15.966762 -17.30955 C -14.2402 -16.329081 -14.400356 -14.758769 -14.400356 -13.188456 L -14.400356 5.686544 C -14.400356 7.256856 -14.2402 8.823263 -15.966762 9.807638 L -15.966762 17.260763 L 4.044956 17.260763 C 7.607456 17.260763 12.084019 17.307638 15.212925 15.592794 C 18.986363 13.581075 20.283238 10.00295 20.283238 6.178731 C 20.283238 1.569356 18.771519 -2.450175 13.376988 -3.676737 L 13.376988 -3.774394 C 17.908238 -4.758769 19.419956 -6.520487 19.419956 -10.786112 L 19.419956 -13.188456 C 19.419956 -14.610331 19.419956 -16.672831 21.201206 -17.30955 L 21.201206 -24.762675 L 5.720738 -24.762675 C 5.123081 -22.457987 4.748081 -20.493144 4.908238 -13.485331 C 4.908238 -10.149394 4.529331 -8.481425 0.595738 -8.383769 L -0.00191875 -8.383769 Z M -0.00191875 -13.188456 " transform="matrix(1, 0, 0, -1, 540.7402, 533.8467)"/>
<path fill-rule="nonzero" fill="rgb(89.689636%, 8.537292%, 20.993042%)" fill-opacity="1" stroke-width="3" stroke-linecap="butt" stroke-linejoin="miter" stroke="rgb(13.729858%, 12.159729%, 12.548828%)" stroke-opacity="1" stroke-miterlimit="10" d="M -0.00093125 -0.0010125 C -0.809525 1.522425 -1.403275 3.284144 -2.965775 4.217737 L -2.965775 11.670862 L 13.538131 11.670862 L 13.538131 6.229456 C 13.538131 3.186487 14.510787 1.127894 16.182662 -1.520544 C 17.854537 1.127894 18.823287 3.186487 18.823287 6.229456 L 18.823287 11.670862 L 33.338912 11.670862 L 33.338912 4.217737 C 31.932662 3.334925 31.557662 2.6943 30.803756 1.178675 L 22.3311 -13.778356 L 22.3311 -18.778356 C 22.3311 -20.348669 22.170944 -21.918981 23.897506 -22.89945 L 23.897506 -30.352575 L 6.366256 -30.352575 L 6.366256 -22.89945 C 7.229537 -22.407263 7.604537 -21.770544 7.819381 -21.036169 C 7.983444 -20.348669 7.928756 -19.563513 7.928756 -18.778356 L 7.928756 -14.661169 Z M -0.00093125 -0.0010125 " transform="matrix(1, 0, 0, -1, 571.1064, 528.2568)"/>
<path fill-rule="nonzero" fill="rgb(13.729858%, 12.159729%, 12.548828%)" fill-opacity="1" d="M 245.136719 418.394531 C 245.066406 418.347656 245.003906 418.308594 244.933594 418.265625 C 245.054688 418.3125 245.148438 418.355469 245.136719 418.394531 M 559.953125 407.710938 C 563.699219 401.621094 563.886719 394.421875 560.507812 386.3125 C 556.972656 377.816406 551.625 373.078125 544.160156 371.824219 C 543.210938 371.664062 542.203125 371.558594 541.164062 371.515625 C 535.738281 371.277344 529.980469 372.625 524.414062 373.921875 C 523.757812 374.074219 523.050781 374.242188 522.320312 374.40625 C 522.832031 372.835938 523.339844 370.976562 523.765625 368.691406 C 524.917969 362.515625 524.433594 355.496094 522.4375 349.433594 C 520.039062 342.148438 515.753906 336.847656 510.046875 334.101562 C 506.453125 332.371094 502.933594 331.417969 499.59375 331.273438 C 494.234375 331.042969 489.386719 332.917969 485.558594 336.691406 L 485.445312 336.800781 L 485.207031 337.101562 C 482.960938 340.167969 483.671875 345.492188 485.023438 353.933594 C 485.703125 358.179688 486.402344 362.578125 486.113281 364.871094 C 485.425781 370.375 482.542969 375.570312 479.492188 381.074219 C 476.835938 385.859375 474.089844 390.808594 472.714844 396.226562 C 470.933594 403.21875 470.753906 413.699219 475.371094 422.65625 L 475.148438 422.824219 C 473.179688 424.335938 471.355469 425.625 469.421875 426.984375 C 467.757812 428.15625 466.050781 429.359375 464.164062 430.769531 C 459.894531 427.59375 456.445312 424.5 453.105469 421.503906 C 452.707031 421.148438 452.304688 420.789062 451.902344 420.429688 C 452.332031 419.578125 452.722656 418.734375 453.0625 417.910156 L 453.792969 416.140625 L 452.621094 414.570312 C 451.507812 413.070312 445.75 405.425781 441.878906 402.171875 L 440.941406 401.378906 L 439.21875 401.378906 C 436.128906 398.417969 433.15625 395.238281 430.273438 392.148438 C 423.183594 384.5625 415.875 376.738281 406.101562 371.289062 C 416.085938 365.671875 420.894531 359.234375 420.078125 352.617188 C 422.867188 349.640625 424.125 348.03125 426.148438 344.921875 C 426.382812 344.566406 426.609375 344.214844 426.835938 343.871094 C 429.054688 343.816406 431.285156 343.625 433.625 343.292969 C 440.089844 342.566406 442.019531 333.828125 443.050781 325.367188 C 443.636719 320.570312 443.296875 313.546875 442.167969 306.992188 C 442.574219 303.949219 442.46875 301.257812 442.367188 298.652344 C 442.332031 297.671875 442.347656 296.746094 442.285156 295.8125 C 441.273438 280.933594 431.355469 267.910156 417.445312 256.847656 C 416.191406 255.734375 414.9375 254.632812 413.703125 253.550781 C 413.601562 253.460938 413.5 253.375 413.398438 253.285156 C 414.300781 249.453125 413.085938 245.902344 411.753906 245.773438 C 410.515625 246.019531 410.113281 249.214844 408.707031 250.484375 C 408.648438 250.445312 408.59375 250.40625 408.53125 250.367188 C 410.027344 244.496094 409.191406 235.070312 402.453125 233.972656 C 401.160156 233.992188 403.578125 239.222656 402.855469 241.546875 C 401.660156 236.550781 399.789062 231.890625 396.550781 227.851562 C 395.699219 226.789062 391.0625 220.921875 389.15625 222.191406 C 387.457031 223.324219 390.882812 229.792969 391.335938 231.058594 C 391.417969 231.28125 391.492188 231.503906 391.570312 231.726562 C 384.65625 222.191406 375.339844 214.28125 363.753906 208.125 C 347.484375 199.488281 331.839844 197.070312 323.960938 196.398438 C 312.699219 195.441406 306.976562 195.925781 304.84375 198.023438 C 304.203125 198.652344 303.84375 199.449219 303.804688 200.300781 C 303.539062 201.710938 304.324219 203.027344 306.15625 204.214844 C 307.332031 204.980469 308.949219 205.738281 310.660156 206.539062 C 311.714844 207.035156 312.890625 207.585938 314.035156 208.179688 C 302.480469 205.324219 287.507812 203.582031 279.640625 207.773438 C 276.78125 209.292969 276.558594 211.269531 276.671875 212.3125 C 276.75 212.976562 276.996094 213.605469 277.398438 214.203125 C 271.347656 215.324219 267.558594 217.148438 264.929688 218.652344 C 257.554688 222.871094 253.164062 230.421875 255.34375 235.144531 C 255.921875 236.402344 257.464844 238.535156 261.253906 238.699219 C 263.164062 238.78125 265.464844 238.347656 268.085938 237.402344 C 272.929688 235.664062 276.546875 234.90625 280.082031 234.902344 C 283.628906 235.988281 284.871094 237.179688 285.742188 240.300781 C 289.296875 259.636719 280.21875 268.5 267.207031 283.21875 L 266.414062 284.121094 C 260.410156 290.914062 257.761719 298.90625 258.546875 307.871094 C 260.007812 324.59375 274.1875 340.542969 285.855469 349.84375 C 286.609375 350.441406 287.390625 351.03125 288.1875 351.609375 C 278.878906 355.925781 269.886719 367.164062 263 385.148438 C 262.417969 386.671875 261.886719 388.207031 261.371094 389.691406 C 260.707031 391.601562 260.136719 393.222656 259.492188 394.828125 C 249.523438 399.207031 246.972656 408.667969 244.507812 417.816406 L 244.464844 417.96875 C 233.652344 411.144531 227.882812 411.574219 227.5 411.613281 L 226.65625 411.703125 L 226.347656 412.496094 C 226.230469 412.800781 223.917969 419.226562 232.085938 429.699219 C 230.671875 429.304688 229.296875 429.082031 227.964844 429.023438 C 225.496094 428.914062 224.089844 429.449219 223.9375 429.511719 L 223.207031 429.800781 L 223.082031 430.582031 C 223.011719 431.023438 221.582031 441.214844 234.078125 454.882812 C 233.335938 454.796875 232.570312 454.734375 231.777344 454.703125 C 229.027344 454.582031 226.992188 454.820312 226.90625 454.832031 L 225.484375 455.003906 L 225.695312 456.417969 C 225.769531 456.910156 227.65625 468.625 241.523438 475.175781 C 246.839844 477.6875 251.59375 479.375 256.035156 480.332031 C 265.839844 490.003906 280.148438 495.3125 298.574219 496.109375 C 307.738281 496.503906 318.066406 495.789062 329.273438 493.96875 C 339.453125 492.320312 349.523438 489.476562 359.261719 486.722656 C 371.015625 483.402344 383.175781 479.964844 395.304688 478.746094 C 398.292969 478.445312 401.476562 478.203125 404.511719 478.046875 L 525.757812 483.296875 L 526.050781 476.546875 L 510.054688 475.859375 C 514.46875 472.523438 517.902344 469.378906 520.480469 466.320312 C 521.4375 466.429688 522.441406 466.511719 523.472656 466.554688 C 527.625 466.738281 531.402344 466.324219 533.898438 466.050781 C 541.738281 465.199219 547.28125 462.546875 550.859375 457.957031 C 554.207031 453.664062 555.9375 447.664062 556.289062 439.121094 C 560.636719 435.632812 563.402344 431.609375 564.527344 427.136719 C 566.039062 421.09375 564.496094 414.5625 559.953125 407.710938 "/>
<path fill-rule="nonzero" fill="rgb(100%, 100%, 100%)" fill-opacity="1" d="M 388.695312 297.050781 C 391.21875 291.660156 392.179688 289.546875 388.253906 289.828125 C 389.007812 288.382812 390.328125 286.101562 391.910156 285.429688 C 398.890625 282.460938 396.214844 292.640625 388.695312 297.050781 M 395.609375 278.558594 C 394.46875 278.496094 393.355469 278.433594 392.269531 278.367188 C 391.800781 278.835938 391.3125 279.316406 390.824219 279.808594 C 386.023438 284.601562 380.296875 290.316406 374.613281 293.21875 C 372.316406 294.613281 365.253906 298.179688 359.367188 297.980469 C 359.367188 297.980469 363.144531 296.464844 369.714844 293.894531 C 361.046875 295.949219 352.054688 296.039062 343.308594 294.109375 C 334.152344 292.085938 328.441406 297.105469 326.414062 299.359375 C 323.652344 302.417969 322.734375 305.601562 323.253906 307.164062 C 324.167969 309.910156 326.566406 311.691406 329.886719 314.160156 C 332.238281 315.910156 334.964844 317.9375 337.792969 320.796875 C 336.570312 318.15625 335.679688 316.394531 335.660156 316.355469 L 335.007812 315.074219 L 336.226562 315.839844 C 341.324219 319.050781 343.714844 325.359375 346.242188 332.042969 C 346.433594 332.539062 346.621094 333.039062 346.8125 333.542969 C 347.886719 336.351562 348.992188 339.246094 350.195312 342.101562 C 354.3125 351.898438 359.441406 364.097656 370.273438 369.253906 C 373.464844 370.773438 377.039062 371.632812 380.894531 371.796875 C 387.875 372.097656 395.808594 370.085938 402.664062 366.273438 C 410.972656 361.648438 414.589844 356.808594 413.417969 351.886719 C 412.59375 348.433594 409.492188 344.949219 406.757812 341.875 C 405.746094 340.734375 404.800781 339.671875 403.960938 338.617188 C 403.714844 338.300781 403.464844 337.988281 403.214844 337.675781 C 402.917969 337.59375 402.613281 337.507812 402.316406 337.425781 C 401.3125 339.109375 403.628906 345.75 403.773438 347.027344 C 393.292969 342.964844 396.109375 351.253906 383.089844 351.199219 C 384.691406 351.882812 386.445312 352.453125 388.390625 352.882812 C 406.082031 356.792969 404.914062 347.496094 404.914062 347.496094 C 408.167969 349.601562 408.308594 353.359375 407.8125 354.035156 C 406.136719 356.332031 400.953125 358.125 395.957031 357.90625 C 392.84375 357.773438 389.785156 357.320312 387.640625 356.765625 C 384.894531 356.054688 379.957031 354.449219 375.5 350.921875 L 375.5 350.917969 C 369.726562 346.34375 366.203125 338.804688 362.074219 331.460938 L 361.6875 330.769531 C 361.183594 329.875 360.671875 328.945312 360.152344 327.992188 C 355.527344 319.566406 350.308594 310.054688 341.289062 308.117188 C 338.210938 307.675781 335.945312 308.457031 332.570312 310.335938 C 332.921875 308.660156 333.632812 306.828125 334.847656 305.589844 C 339.804688 300.535156 351.121094 302.5625 357.34375 305.203125 C 356.292969 305.238281 355.257812 305.3125 354.246094 305.421875 C 357.261719 306.910156 360.085938 308.855469 362.675781 310.644531 C 363.304688 311.074219 363.921875 311.503906 364.539062 311.921875 C 366.316406 313.121094 368.066406 314.328125 369.800781 315.527344 C 380.929688 323.195312 391.4375 330.441406 404.691406 333.957031 C 414.53125 336.570312 421.730469 338.175781 431.785156 336.730469 L 431.867188 336.722656 C 433.039062 336.601562 435.214844 334.726562 436.585938 323.476562 C 437.960938 312.179688 435.171875 296.28125 427.179688 287.738281 C 419.839844 279.894531 406.96875 279.183594 395.609375 278.558594 "/>
<path fill-rule="nonzero" fill="rgb(100%, 100%, 100%)" fill-opacity="1" d="M 427.179688 287.738281 C 419.839844 279.894531 406.96875 279.183594 395.609375 278.558594 C 394.46875 278.496094 393.359375 278.433594 392.273438 278.367188 C 391.800781 278.835938 391.3125 279.316406 390.824219 279.808594 C 389.777344 280.855469 388.683594 281.949219 387.554688 283.042969 C 393.757812 280.402344 402.332031 280.21875 402.652344 288.136719 C 402.714844 288.789062 402.667969 289.414062 402.558594 290.019531 C 415.53125 285.890625 430.390625 300.1875 430.21875 312.792969 C 430.027344 317.105469 429.835938 321.417969 428.363281 325.484375 C 407.199219 330.757812 383.972656 318.011719 366.773438 308.457031 C 368.328125 307.761719 370 308.210938 371.644531 308.339844 C 362.402344 302.53125 348.972656 297.640625 339.316406 303.101562 C 344.90625 301.539062 352.601562 303.191406 357.34375 305.203125 C 356.292969 305.238281 355.257812 305.3125 354.246094 305.421875 C 357.261719 306.910156 360.085938 308.855469 362.675781 310.644531 C 363.304688 311.074219 363.921875 311.503906 364.539062 311.921875 C 366.316406 313.121094 368.066406 314.328125 369.800781 315.527344 C 380.933594 323.195312 391.4375 330.441406 404.691406 333.957031 C 414.53125 336.570312 421.730469 338.175781 431.785156 336.730469 L 431.867188 336.722656 C 433.039062 336.601562 435.214844 334.726562 436.582031 323.476562 C 437.960938 312.179688 435.171875 296.28125 427.179688 287.738281 "/>
<path fill-rule="nonzero" fill="rgb(100%, 100%, 100%)" fill-opacity="1" d="M 359.859375 357.871094 C 358.660156 357.203125 357.527344 356.359375 356.484375 355.390625 C 359.8125 361.128906 364.125 366.324219 370.273438 369.253906 C 373.464844 370.773438 377.039062 371.632812 380.894531 371.796875 C 387.875 372.101562 395.808594 370.085938 402.664062 366.273438 C 404.023438 365.515625 405.265625 364.746094 406.375 363.976562 C 391.964844 370.183594 377.832031 369.058594 359.859375 357.871094 "/>
<path fill-rule="nonzero" fill="rgb(100%, 100%, 100%)" fill-opacity="1" d="M 403.960938 338.613281 C 403.714844 338.300781 403.464844 337.988281 403.21875 337.675781 C 402.914062 337.59375 402.613281 337.511719 402.316406 337.425781 C 401.3125 339.109375 403.625 345.75 403.773438 347.027344 C 393.292969 342.964844 396.109375 351.253906 383.089844 351.199219 C 384.691406 351.886719 386.445312 352.453125 388.390625 352.882812 C 389.007812 353.019531 389.597656 353.136719 390.167969 353.242188 C 393.648438 350.1875 399.484375 348.316406 403.28125 351.664062 C 405.207031 349.828125 404.914062 347.496094 404.914062 347.496094 C 406.117188 348.277344 406.894531 349.277344 407.367188 350.269531 C 408.851562 349.015625 410.601562 348.394531 412.160156 348.835938 C 410.792969 346.414062 408.691406 344.039062 406.757812 341.875 C 405.746094 340.734375 404.800781 339.671875 403.960938 338.613281 "/>
<path fill-rule="nonzero" fill="rgb(100%, 100%, 100%)" fill-opacity="1" d="M 346.269531 313.535156 C 346.4375 312.441406 347.050781 311.667969 347.875 311.214844 C 345.921875 309.738281 343.746094 308.644531 341.289062 308.117188 C 338.210938 307.675781 335.945312 308.457031 332.570312 310.335938 C 332.867188 308.917969 333.429688 307.382812 334.332031 306.195312 C 333.695312 306.292969 332.980469 306.359375 332.253906 306.566406 C 328.746094 306.683594 325.324219 304.792969 324.546875 301.875 C 323.261719 304.046875 322.878906 306.03125 323.253906 307.164062 C 324.167969 309.90625 326.566406 311.691406 329.886719 314.15625 C 332.238281 315.910156 334.964844 317.9375 337.792969 320.796875 C 336.570312 318.15625 335.679688 316.394531 335.660156 316.355469 L 335.011719 315.074219 L 336.226562 315.839844 C 341.324219 319.050781 343.714844 325.359375 346.242188 332.042969 C 346.433594 332.539062 346.621094 333.039062 346.8125 333.542969 C 346.84375 333.621094 346.871094 333.695312 346.902344 333.773438 C 345.371094 327.230469 344.984375 320.394531 346.269531 313.535156 "/>
<path fill-rule="nonzero" fill="rgb(89.689636%, 8.537292%, 20.993042%)" fill-opacity="1" d="M 362.589844 326.652344 C 363.105469 327.59375 363.613281 328.519531 364.113281 329.40625 L 364.5 330.097656 C 368.289062 336.839844 371.609375 341.292969 376.667969 345.597656 L 376.679688 345.570312 C 381.097656 347.394531 384.988281 348.832031 388.378906 346.714844 C 390.976562 345.085938 392.335938 343.535156 392.421875 342.089844 C 392.566406 339.730469 389.417969 337.1875 386.371094 334.726562 C 385.636719 334.136719 384.878906 333.523438 384.175781 332.921875 C 382.652344 331.613281 381.375 330.3125 380.25 329.164062 C 377.355469 326.21875 375.421875 324.257812 371.859375 324.332031 C 376.664062 327.128906 380.285156 331.765625 382.175781 336.460938 C 382.175781 336.460938 370.828125 324.964844 361.460938 324.609375 C 361.84375 325.300781 362.21875 325.984375 362.589844 326.652344 "/>
<path fill-rule="nonzero" fill="rgb(92.939758%, 10.978699%, 14.118958%)" fill-opacity="1" d="M 359.910156 321.835938 C 359.890625 321.816406 359.871094 321.796875 359.851562 321.773438 C 359.863281 321.796875 359.875 321.816406 359.890625 321.835938 C 359.894531 321.835938 359.902344 321.835938 359.910156 321.835938 "/>
<path fill-rule="nonzero" fill="rgb(100%, 100%, 100%)" fill-opacity="1" d="M 359.351562 254.398438 C 354.503906 253.234375 350.019531 254.898438 347.054688 258.957031 C 342.667969 264.957031 341.355469 275.691406 350.695312 291.152344 L 350.535156 291.246094 C 365.558594 294.722656 376.296875 288.789062 376.296875 288.789062 C 378.957031 274.324219 374.753906 258.082031 359.351562 254.398438 "/>
<path fill-rule="nonzero" fill="rgb(100%, 100%, 100%)" fill-opacity="1" d="M 414.210938 276.652344 C 415.160156 272.730469 414.789062 268.882812 413.078125 264.695312 C 411.421875 260.648438 404.480469 250.597656 400.132812 250.40625 L 400.097656 250.40625 C 399.664062 250.394531 398.351562 250.351562 397.140625 252.851562 C 394.023438 259.289062 400.371094 269.449219 403.996094 275.136719 C 407.441406 275.4375 410.894531 275.886719 414.210938 276.652344 "/>
<path fill-rule="nonzero" fill="rgb(89.689636%, 8.537292%, 20.993042%)" fill-opacity="1" d="M 555.628906 410.894531 C 548.6875 417.746094 536.957031 420.605469 527.398438 420.933594 C 526.351562 420.96875 525.320312 420.964844 524.3125 420.921875 C 517.238281 420.617188 511.574219 419.636719 506.136719 416.988281 C 506.75 425.425781 508.957031 431.695312 510.125 432.855469 C 518.535156 441.082031 536 443.574219 546.757812 438.078125 C 553.859375 434.453125 558.0625 430.859375 559.316406 425.832031 C 560.4375 421.375 559.195312 416.351562 555.628906 410.894531 "/>
<path fill-rule="nonzero" fill="rgb(89.689636%, 8.537292%, 20.993042%)" fill-opacity="1" d="M 531.246094 445.75 C 523.4375 445.410156 515.566406 442.941406 509.867188 438.664062 C 508.710938 444.03125 508.851562 450.25 508.949219 451.328125 C 511.425781 456.230469 517.527344 461.53125 532.558594 459.890625 C 539.367188 459.148438 543.859375 457.183594 546.679688 453.714844 C 548.988281 450.875 550.292969 447.246094 550.769531 441.574219 C 550.042969 441.992188 549.300781 442.40625 548.519531 442.804688 C 543.527344 445.351562 537.417969 446.019531 531.246094 445.75 "/>
<path fill-rule="nonzero" fill="rgb(89.689636%, 8.537292%, 20.993042%)" fill-opacity="1" d="M 504.277344 452.152344 C 503.945312 450.773438 504.570312 445.308594 505.5 440.296875 C 504.695312 441.625 503.503906 442.804688 501.816406 443.792969 C 505.292969 435.78125 503.894531 427.777344 501.296875 419.859375 C 498.703125 423.507812 494.644531 424.230469 494.644531 424.230469 C 508.144531 407.480469 512.957031 387.949219 508.757812 376.394531 C 508.757812 376.394531 512.261719 377.640625 513.761719 383.707031 C 514.253906 380.582031 515.089844 378.417969 515.96875 376.160156 C 516.867188 373.867188 517.789062 371.5 518.496094 367.710938 C 520.476562 357.066406 516.988281 343.394531 507.71875 338.933594 C 500.304688 335.363281 493.367188 335.816406 488.671875 340.339844 C 487.746094 341.957031 489.210938 348.628906 489.921875 353.066406 C 490.695312 357.898438 491.820312 362.480469 491.4375 365.539062 C 490.617188 372.066406 486.570312 377.539062 483.40625 383.238281 C 480.800781 387.933594 478.324219 392.765625 477.121094 397.511719 C 474.488281 407.847656 478.921875 420.808594 487.546875 430.214844 C 487.546875 430.214844 482.09375 429.707031 479.367188 426.347656 C 479.046875 426.59375 478.710938 426.8125 478.414062 427.082031 C 463.851562 440.136719 457.707031 439 457.707031 439 C 458.792969 437.964844 459.914062 436.957031 461.042969 435.960938 C 455.738281 432.070312 451.761719 428.324219 447.726562 424.71875 C 444.503906 429.425781 440.59375 433.453125 437.703125 435.886719 C 437.828125 436.242188 437.949219 436.597656 438.074219 436.957031 C 449.214844 447.421875 464.792969 461.011719 472.484375 475.621094 L 499.15625 476.777344 C 505.632812 472.925781 511.046875 467.453125 514.789062 463.039062 C 509.929688 461.488281 505.742188 458.320312 504.277344 452.152344 "/>
<path fill-rule="nonzero" fill="rgb(89.689636%, 8.537292%, 20.993042%)" fill-opacity="1" d="M 525.574219 381.660156 C 525.574219 381.660156 521.042969 383.496094 519.023438 386.785156 C 526.113281 386.453125 531.050781 388.121094 533.882812 390.347656 C 533.882812 390.347656 520.542969 388.675781 513.9375 391.542969 C 513.570312 395.257812 512.578125 399.105469 510.964844 403.078125 C 509.828125 405.878906 509.234375 407.203125 507.457031 410.191406 C 513.441406 413.191406 520.105469 415.691406 528.125 415.410156 C 537.738281 415.078125 549.972656 413.339844 555.210938 405.171875 C 558.167969 400.570312 558.285156 394.917969 555.558594 388.371094 C 549.40625 373.597656 538.390625 376.171875 525.628906 379.148438 C 523.3125 379.6875 520.921875 380.238281 518.550781 380.6875 C 518.324219 381.390625 518.125 382.125 517.949219 382.921875 C 520.484375 381.882812 523.167969 381.390625 525.574219 381.660156 "/>
<path fill-rule="nonzero" fill="rgb(89.689636%, 8.537292%, 20.993042%)" fill-opacity="1" d="M 299.183594 232.394531 C 299.183594 232.394531 289.820312 232.996094 287.789062 234.492188 C 297.933594 243.75 294.917969 260.605469 294.917969 260.605469 C 294.519531 257.75 292.636719 252.164062 291.941406 249.800781 C 291.625 265.09375 283.242188 274.578125 272.414062 286.824219 L 271.625 287.722656 C 266.632812 293.371094 264.433594 300.011719 265.082031 307.460938 C 266.398438 322.503906 278.894531 337.4375 289.199219 345.648438 C 301.140625 355.164062 315.019531 358.667969 329.007812 360.222656 C 326.589844 357.640625 324.28125 354.910156 322.054688 352.046875 C 327.644531 355.566406 338.644531 360.429688 344.964844 356.070312 C 357.652344 347.328125 328.886719 321.722656 320.65625 318.140625 C 315.539062 315.914062 309.753906 314.386719 312.152344 307.71875 C 313.253906 304.65625 315.703125 301.851562 318.402344 299.296875 C 314.085938 299.777344 310.453125 298.300781 308.71875 292.394531 C 311.367188 291.664062 312.539062 289.402344 313.445312 286.988281 C 316.769531 278.125 313.925781 269.394531 321.449219 262 C 318.753906 263.875 315.429688 267.230469 312.265625 268.167969 C 305.128906 270.28125 309.207031 263.226562 311.898438 259.765625 C 315.59375 255.015625 320.707031 250.996094 326.328125 248.820312 C 323.25 248.726562 316.945312 249.234375 318.984375 245.167969 C 322.945312 237.273438 342.886719 237.972656 352.570312 241.277344 C 356.21875 242.523438 359.324219 244.121094 362.070312 245.832031 C 362.070312 245.828125 362.074219 245.820312 362.074219 245.816406 C 362.117188 245.847656 362.160156 245.882812 362.199219 245.914062 C 367.84375 249.453125 371.976562 253.460938 376.234375 255.863281 C 379.160156 257.3125 382.144531 258.210938 384.894531 257.964844 C 385.035156 257.953125 385.179688 257.929688 385.320312 257.914062 C 387.414062 257.632812 389.367188 256.664062 391.050781 254.722656 C 392.898438 252.59375 393.609375 249.171875 393.988281 245.816406 C 393.996094 244.945312 393.980469 244.074219 393.925781 243.199219 C 379.507812 214.792969 347.121094 202.363281 323.625 200.359375 C 312.292969 199.394531 308.929688 200.191406 307.960938 200.648438 C 322.878906 206.289062 325.210938 216.011719 325.210938 216.011719 C 316.664062 212.007812 287.042969 206.3125 280.644531 211.917969 C 280.671875 214.273438 299.789062 218.671875 299.789062 218.671875 C 288.882812 218.851562 277.625 217.570312 267.589844 223.308594 C 262.195312 226.394531 259.308594 231.574219 260.214844 232.898438 C 261.8125 235.226562 281.492188 226.609375 299.183594 232.394531 "/>
<path fill-rule="nonzero" fill="rgb(89.689636%, 8.537292%, 20.993042%)" fill-opacity="1" d="M 409.414062 339.476562 C 411.609375 341.945312 414.003906 344.640625 415.546875 347.585938 C 417.21875 345.789062 418.777344 343.425781 420.292969 341.089844 C 416.589844 340.796875 413.011719 340.117188 409.171875 339.199219 C 409.25 339.292969 409.332031 339.382812 409.414062 339.476562 "/>
<path fill-rule="nonzero" fill="rgb(100%, 100%, 100%)" fill-opacity="1" d="M 380.335938 390.648438 C 382.261719 390.730469 384.164062 390.703125 386.039062 390.550781 C 392.089844 390.058594 396.097656 388.203125 397.320312 385.328125 C 398.367188 382.847656 397.523438 379.457031 394.953125 375.585938 C 395.277344 378.027344 394.722656 380.230469 392.371094 382.027344 C 382.28125 389.726562 360.082031 381.128906 350.542969 376.496094 C 344.066406 373.347656 338.472656 369.316406 333.421875 364.628906 C 328.191406 364.183594 323.640625 363.550781 318.320312 362.457031 C 323.910156 368.054688 331.492188 373.21875 336.730469 375.917969 C 349.691406 382.601562 365.238281 389.992188 380.335938 390.648438 "/>
<path fill-rule="nonzero" fill="rgb(100%, 100%, 100%)" fill-opacity="1" d="M 429.273438 413.96875 C 431.972656 411.765625 434.757812 408.367188 436.046875 405.402344 C 432.800781 402.300781 429.332031 399 426.355469 395.8125 C 420.503906 389.550781 414.875 383.527344 408.058594 378.808594 C 415.519531 386.792969 422.546875 398.4375 429.273438 413.96875 "/>
<path fill-rule="nonzero" fill="rgb(100%, 100%, 100%)" fill-opacity="1" d="M 430.558594 416.988281 C 431.898438 420.203125 433.230469 423.5625 434.542969 427.089844 C 435.117188 428.617188 435.75 430.347656 436.40625 432.191406 C 440.457031 428.769531 445.703125 423.167969 448.429688 417.324219 C 446.738281 415.117188 441.945312 409.472656 438.960938 406.746094 L 438.519531 406.746094 C 436.914062 410.378906 433.949219 414.484375 430.558594 416.988281 "/>
<path fill-rule="nonzero" fill="rgb(100%, 100%, 100%)" fill-opacity="1" d="M 327.941406 411.4375 L 327.90625 411.445312 C 327.898438 411.429688 327.898438 411.417969 327.898438 411.40625 C 326.574219 410.277344 325.109375 409.207031 323.488281 408.167969 C 306.375 397.242188 282.515625 394.042969 262.242188 399.867188 C 254.785156 403.285156 252.773438 410.742188 250.476562 419.25 L 250.316406 419.800781 C 250.238281 420 250.28125 420.40625 251.046875 421.105469 C 251.234375 420.714844 251.4375 420.304688 251.652344 419.871094 C 251.859375 419.398438 252.082031 418.941406 252.328125 418.503906 L 252.546875 418.054688 L 252.582031 418.074219 C 261.59375 403.171875 292.886719 409.441406 299.398438 410.9375 C 305.160156 412.257812 314.683594 415.78125 320.769531 418.199219 C 323.167969 418.199219 325.304688 418.210938 326.929688 418.234375 C 329.15625 418.253906 331.515625 418.289062 333.933594 418.347656 C 332.347656 415.792969 330.382812 413.523438 327.941406 411.4375 "/>
<path fill-rule="nonzero" fill="rgb(100%, 100%, 100%)" fill-opacity="1" d="M 440.769531 445.054688 C 442.582031 449.742188 440.363281 455.011719 440.363281 455.011719 C 438.398438 448.28125 432.820312 434.859375 430.429688 428.464844 C 426.628906 418.304688 415.851562 386.941406 398.695312 374.054688 C 402.429688 380 402.09375 384.230469 400.976562 386.871094 C 399.683594 389.917969 396.105469 393.71875 386.359375 394.511719 C 384.324219 394.675781 382.261719 394.703125 380.1875 394.617188 C 364.304688 393.929688 347.457031 386.292969 334.113281 379.414062 C 330.453125 377.527344 325.703125 374.492188 321.191406 370.929688 C 324.679688 377.777344 326.925781 385.632812 328.449219 392.632812 C 328.808594 394.289062 329.152344 395.851562 329.496094 397.332031 C 330.179688 400.289062 330.683594 403.5625 331.175781 406.726562 C 331.386719 408.101562 331.589844 409.402344 331.800781 410.660156 C 334.179688 412.984375 336.886719 415.566406 338.429688 418.445312 L 338.320312 418.507812 C 342.574219 418.6875 346.066406 418.96875 349.925781 419.574219 C 371.722656 422.980469 397.4375 435.152344 412.972656 450.464844 C 419.859375 457.257812 424.824219 465.597656 429.539062 473.765625 L 465.453125 475.316406 C 459.097656 464.167969 449.382812 453.519531 440.769531 445.054688 "/>
<path fill-rule="nonzero" fill="rgb(100%, 100%, 100%)" fill-opacity="1" d="M 325.199219 405.488281 C 322.445312 397.734375 317.414062 388.140625 317.414062 388.140625 C 321.015625 390.949219 323.449219 395.003906 326.167969 400.839844 C 325.996094 399.945312 325.816406 399.070312 325.625 398.230469 C 325.273438 396.726562 324.933594 395.148438 324.566406 393.476562 C 322.007812 381.71875 318.820312 367.089844 309.882812 360.628906 L 309.90625 360.53125 C 305.246094 359.148438 300.65625 357.355469 296.238281 354.996094 C 286.089844 355.632812 276.613281 366.703125 268.804688 387.101562 C 268.25 388.546875 267.730469 390.039062 267.230469 391.484375 C 266.75 392.871094 266.699219 393.113281 266.164062 394.53125 C 286.273438 390.066406 308.554688 394.863281 325.199219 405.488281 "/>
<path fill-rule="nonzero" fill="rgb(89.689636%, 8.537292%, 20.993042%)" fill-opacity="1" d="M 407.960938 452.609375 C 392.871094 437.730469 369.429688 425.972656 348.246094 422.664062 C 341.304688 421.574219 333.972656 421.71875 326.894531 421.410156 C 310.648438 420.695312 307.019531 425.03125 293.980469 418.3125 C 293.980469 418.3125 303.757812 418.238281 313.152344 418.210938 C 308.25 416.402344 302.742188 414.578125 298.5625 413.617188 C 294.84375 412.765625 263.289062 407.085938 255.796875 420.449219 L 255.617188 420.816406 C 255.480469 421.09375 255.347656 421.363281 255.222656 421.617188 C 255.121094 421.851562 255.027344 422.09375 254.945312 422.335938 L 254.875 422.316406 C 254.328125 423.433594 253.898438 424.339844 253.53125 425.195312 L 253.34375 425.960938 L 253.210938 425.972656 C 253.085938 426.292969 252.964844 426.609375 252.851562 426.9375 L 252.046875 429.226562 L 249.964844 427.988281 C 248.15625 426.917969 246.269531 425.632812 244.445312 424.390625 C 240.101562 421.433594 235.628906 418.390625 231.785156 417.757812 C 232.050781 418.925781 232.839844 420.941406 234.992188 424.304688 C 237.484375 428.203125 240.816406 432.410156 243.496094 435.792969 C 243.972656 436.394531 244.425781 436.964844 244.847656 437.5 L 248.320312 441.925781 C 248.320312 441.925781 231.167969 433.582031 227.816406 434.394531 C 227.515625 442.195312 247.332031 462.375 247.332031 462.375 C 247.332031 462.375 235.464844 460.660156 232.621094 460.261719 C 235.410156 469.210938 260.183594 476.582031 273.761719 477.230469 C 273.761719 477.230469 269.46875 480.027344 264.117188 479.792969 C 277.945312 490.101562 299.535156 492.960938 328.429688 488.277344 C 338.308594 486.675781 348.226562 483.875 357.816406 481.164062 C 369.796875 477.78125 382.183594 474.28125 394.785156 473.011719 C 402.503906 472.234375 413.527344 471.957031 422.640625 472.875 C 418.425781 465.660156 413.902344 458.46875 407.960938 452.609375 "/>
<path fill-rule="nonzero" fill="rgb(83.38623%, 9.661865%, 12.425232%)" fill-opacity="1" d="M 231.957031 418.386719 C 232.335938 419.605469 233.183594 421.476562 234.992188 424.304688 C 237.484375 428.203125 240.816406 432.410156 243.496094 435.792969 "/>
<path fill-rule="nonzero" fill="rgb(13.729858%, 12.159729%, 12.548828%)" fill-opacity="1" d="M 365.082031 281.3125 C 366.804688 287.269531 364.359375 293.210938 359.617188 294.585938 C 354.875 295.957031 349.632812 292.242188 347.910156 286.285156 C 346.183594 280.332031 348.628906 274.386719 353.371094 273.015625 C 358.117188 271.640625 363.355469 275.359375 365.082031 281.3125 "/>
<path fill-rule="nonzero" fill="rgb(13.729858%, 12.159729%, 12.548828%)" fill-opacity="1" d="M 410.015625 268.957031 C 411.175781 272.835938 409.617188 276.734375 406.527344 277.660156 C 403.4375 278.589844 399.988281 276.191406 398.820312 272.3125 C 397.660156 268.429688 399.21875 264.53125 402.3125 263.605469 C 405.398438 262.679688 408.851562 265.074219 410.015625 268.957031 "/>
<path fill-rule="nonzero" fill="rgb(100%, 100%, 100%)" fill-opacity="1" d="M 330.488281 298.738281 C 330.8125 299.867188 333.175781 300.179688 335.765625 299.433594 C 338.347656 298.6875 340.183594 297.171875 339.859375 296.042969 C 339.535156 294.914062 337.171875 294.605469 334.585938 295.347656 C 332 296.09375 330.164062 297.609375 330.488281 298.738281 "/>
<path fill-rule="nonzero" fill="rgb(100%, 100%, 100%)" fill-opacity="1" d="M 357.367188 328.617188 C 354.191406 340.414062 361.777344 347.167969 370.957031 351.554688 C 364.628906 345.582031 362.570312 335.898438 357.367188 328.617188 "/>
<path fill-rule="nonzero" fill="rgb(13.729858%, 12.159729%, 12.548828%)" fill-opacity="1" d="M 363.273438 284.421875 C 362.109375 287.425781 357.699219 290.199219 354.855469 290.515625 C 357.773438 292.207031 364.449219 292.097656 363.273438 284.421875 "/>
<path fill-rule="nonzero" fill="rgb(13.729858%, 12.159729%, 12.548828%)" fill-opacity="1" d="M 408.820312 268.871094 C 407.691406 272.222656 405.703125 272.675781 402.820312 273.558594 C 407.707031 276.066406 410.253906 273.070312 408.820312 268.871094 "/>
<path fill-rule="nonzero" fill="rgb(100%, 100%, 100%)" fill-opacity="1" d="M 353.933594 278.96875 C 353.878906 280.230469 353.121094 281.21875 352.242188 281.183594 C 351.367188 281.148438 350.699219 280.09375 350.753906 278.832031 C 350.808594 277.570312 351.566406 276.582031 352.441406 276.617188 C 353.316406 276.65625 353.984375 277.710938 353.933594 278.96875 "/>
<path fill-rule="nonzero" fill="rgb(100%, 100%, 100%)" fill-opacity="1" d="M 403.335938 267.609375 C 403.296875 268.558594 402.730469 269.296875 402.074219 269.273438 C 401.414062 269.242188 400.914062 268.453125 400.957031 267.507812 C 401 266.5625 401.5625 265.820312 402.222656 265.847656 C 402.878906 265.878906 403.382812 266.667969 403.335938 267.609375 "/>
<path fill-rule="nonzero" fill="rgb(100%, 100%, 100%)" fill-opacity="1" d="M 399.894531 292.414062 C 398.949219 296.550781 397.765625 298.515625 393.730469 300.179688 C 405.78125 303.617188 414.488281 309.671875 425.507812 321.496094 C 422.4375 307.816406 409.925781 295.304688 399.894531 292.414062 "/>
<path fill-rule="nonzero" fill="rgb(89.689636%, 8.537292%, 20.993042%)" fill-opacity="1" stroke-width="1.856" stroke-linecap="butt" stroke-linejoin="miter" stroke="rgb(13.729858%, 12.159729%, 12.548828%)" stroke-opacity="1" stroke-miterlimit="10" d="M 0.00093125 0.0000375 L -5.48735 9.066444 L -5.573288 9.050819 L -3.698288 -0.691369 Z M 2.489212 -15.070275 L -9.913131 -17.382775 L -12.092819 -11.749963 C -11.159225 -10.777306 -11.663131 -9.128869 -11.79985 -7.839806 L -15.760788 15.574256 L 0.219681 18.550819 L 14.375931 -3.484338 C 14.969681 -4.445275 16.079056 -6.144494 17.469681 -6.24215 L 19.645462 -11.874963 L 5.477494 -14.515588 L 3.301712 -8.882775 C 4.067337 -8.421838 4.258744 -7.749963 3.926712 -6.8984 C 3.797806 -6.562463 3.602494 -6.281213 3.399369 -5.999963 L -2.022506 -7.011681 C -1.991256 -7.324181 -1.948288 -7.675744 -1.8311 -7.972619 C -1.48735 -8.859338 -0.741256 -9.3984 0.313431 -9.437463 Z M 2.489212 -15.070275 " transform="matrix(1, 0, 0, -1, 402.6436, 418.0391)"/>
</svg>
