<?xml version="1.0" encoding="UTF-8" standalone="no"?>
<svg
   width="1200pt"
   height="1200pt"
   viewBox="0 0 1200 1200"
   version="1.2"
   id="svg191"
   xmlns="http://www.w3.org/2000/svg"
   xmlns:svg="http://www.w3.org/2000/svg">
  <defs
     id="defs195" />
  <g
     id="surface3438">
    <path
       style=" stroke:none;fill-rule:nonzero;fill:rgb(0%,0%,0%);fill-opacity:1;"
       d="M 1176.050781 601.578125 C 1176.050781 919.957031 917.957031 1178.050781 599.578125 1178.050781 C 281.203125 1178.050781 23.109375 919.957031 23.109375 601.578125 C 23.109375 283.203125 281.203125 25.109375 599.578125 25.109375 C 917.957031 25.109375 1176.050781 283.203125 1176.050781 601.578125 "
       id="path2" />
    <path
       style=" stroke:none;fill-rule:nonzero;fill:rgb(80.392456%,12.940979%,6.666565%);fill-opacity:1;"
       d="M 596.6875 957 C 400.09375 957 240.722656 797.628906 240.722656 601.035156 C 240.722656 404.4375 400.09375 245.066406 596.6875 245.066406 C 793.285156 245.066406 952.65625 404.4375 952.65625 601.035156 C 952.65625 797.628906 793.285156 957 596.6875 957 M 601.375 53.804688 C 297.855469 53.804688 51.804688 299.855469 51.804688 603.375 C 51.804688 906.894531 297.855469 1152.949219 601.375 1152.949219 C 904.894531 1152.949219 1150.949219 906.894531 1150.949219 603.375 C 1150.949219 299.855469 904.894531 53.804688 601.375 53.804688 "
       id="path4" />
    <path
       style=" stroke:none;fill-rule:nonzero;fill:rgb(100%,100%,100%);fill-opacity:1;"
       d="M 941.996094 600.386719 C 941.996094 789.5 788.691406 942.804688 599.578125 942.804688 C 410.46875 942.804688 257.164062 789.5 257.164062 600.386719 C 257.164062 411.277344 410.46875 257.972656 599.578125 257.972656 C 788.691406 257.972656 941.996094 411.277344 941.996094 600.386719 "
       id="path6" />
    <path
       style=" stroke:none;fill-rule:nonzero;fill:rgb(10.195923%,8.235168%,7.450867%);fill-opacity:1;"
       d="M 414.960938 903.167969 C 403.902344 899.746094 395.546875 891.644531 387.183594 884.632812 C 369.175781 869.535156 348.660156 857.859375 331.308594 842.03125 C 325.851562 837.054688 319.210938 834.558594 312.808594 831.410156 C 296.039062 823.160156 280.753906 813.394531 273.652344 794.601562 C 269.277344 783.039062 269.519531 782.03125 283.792969 777.644531 C 272.503906 761.460938 271.429688 742.464844 267.601562 724.210938 C 265.894531 717.679688 266.128906 711.714844 272.425781 707.523438 C 277.988281 708.351562 279.597656 712.117188 280.019531 716.890625 C 281.515625 715.097656 279.769531 712.816406 279.824219 710.648438 C 280.171875 697.285156 284.785156 693.960938 296.996094 698.910156 C 303.957031 701.734375 310.253906 707 318.523438 703.613281 C 324.851562 701.976562 327.039062 710.742188 333.222656 709.402344 C 340.113281 705.53125 346.675781 700.679688 355.296875 702.316406 C 358.34375 703.277344 361.101562 704.496094 360.738281 708.472656 C 351.816406 716.808594 340.4375 721.984375 332.382812 731.664062 C 327.605469 737.410156 321.09375 734.472656 315.59375 731.085938 C 310.515625 727.964844 306.492188 723.15625 299.8125 720.078125 C 303.554688 733.027344 316.117188 740.8125 313.867188 754.460938 C 304.316406 759.40625 297.128906 749.535156 287.53125 751.691406 C 292.097656 766.761719 303.863281 777.800781 308.3125 791.082031 C 307.375 799.078125 299.164062 796.292969 296.535156 802.117188 C 308.945312 813.347656 324.980469 817.40625 339.972656 823.484375 C 346.984375 826.328125 354.273438 827.929688 354.960938 838.320312 C 355.414062 845.160156 363.445312 846.632812 368.867188 849 C 390.859375 858.613281 414.414062 860.628906 437.953125 861.671875 C 479.738281 863.519531 520.378906 854.140625 561.390625 848.285156 C 580.578125 845.546875 600.027344 843.367188 619.054688 850.21875 C 628.800781 854.527344 677.988281 858.410156 686.90625 865.707031 C 685.515625 872.972656 646.203125 866.15625 638.070312 865.707031 C 583.445312 859.167969 529.589844 870.945312 476.277344 880.269531 C 454.28125 884.117188 421.449219 881.191406 399.601562 878.371094 C 398.839844 882.957031 401.9375 880.015625 402.980469 882.589844 C 403.707031 888.011719 424.488281 897.773438 414.960938 903.167969 "
       id="path8" />
    <path
       style=" stroke:none;fill-rule:nonzero;fill:rgb(10.980225%,8.627319%,7.450867%);fill-opacity:1;"
       d="M 935.507812 712.402344 C 939.328125 725.996094 940.6875 742.921875 934.453125 754.667969 C 931.378906 760.457031 932.550781 766.445312 934.078125 772.585938 C 938.328125 789.667969 936.558594 805.230469 920.957031 816.339844 C 916.261719 819.683594 915.515625 824.492188 914.238281 829.515625 C 907.480469 856.117188 895.015625 866.371094 867.335938 865.761719 C 853.390625 865.453125 842.902344 869.457031 834.746094 880.546875 C 838.128906 886.359375 845.160156 881.964844 848.699219 887.125 C 849.84375 898.46875 841.652344 897.1875 834.746094 895.863281 C 826.203125 894.222656 810.699219 884.894531 802.382812 889.902344 C 796.925781 885.417969 797.507812 888.398438 795.882812 880.5625 C 800.4375 869.484375 814 867.777344 820.085938 857.003906 C 805.65625 838.898438 807.996094 817.726562 811.351562 796.714844 C 812.882812 787.132812 810.730469 779.859375 802.335938 774.667969 C 807.550781 764.785156 812.6875 756.160156 821.648438 750.53125 C 824.839844 749.882812 827.664062 751.066406 830.496094 752.25 C 851.492188 762.042969 872.554688 769.898438 896.496094 762.738281 C 919.503906 755.859375 924.542969 749.0625 921.265625 725.261719 C 920.851562 722.234375 920.222656 719.234375 920.589844 716.152344 C 921.21875 712.261719 923.074219 709.246094 926.761719 707.574219 C 931.566406 706.589844 919.101562 705.804688 923.832031 705.394531 C 927.988281 706.464844 934.457031 707.988281 935.507812 712.402344 "
       id="path10" />
    <path
       style=" stroke:none;fill-rule:nonzero;fill:rgb(80.784607%,12.548828%,6.274414%);fill-opacity:1;"
       d="M 615.773438 852.910156 C 592.363281 848.011719 569.058594 850.484375 545.914062 854.558594 C 498.96875 862.828125 452.035156 869.953125 404.195312 862.707031 C 383.226562 859.53125 363.363281 853.855469 346.480469 840.722656 C 346.851562 836.546875 352.179688 837.726562 352.21875 832.71875 C 330.507812 821.878906 302.988281 819.425781 285.605469 796.527344 C 293.011719 792.886719 299.292969 796.441406 306.085938 794.34375 C 298.820312 776.914062 284.496094 763.410156 279.667969 743.476562 C 291.886719 744.175781 300.976562 751.285156 312.453125 754.558594 C 308.71875 738.648438 295.320312 728.546875 291.492188 711.71875 C 307.191406 714.867188 313.777344 728.859375 327.449219 733.050781 C 335.375 721.277344 344.863281 710.726562 360.152344 708.320312 C 383.8125 699.765625 405.410156 706.9375 426.613281 717.03125 C 429.789062 720.960938 429.015625 723.953125 424.421875 726.0625 C 424.351562 726.097656 424.488281 727.015625 424.761719 727.277344 C 425.070312 727.570312 425.644531 727.582031 426.238281 727.742188 C 455.085938 731.546875 483.898438 734.429688 512.597656 738.289062 C 520.074219 739.117188 526.964844 741.738281 533.59375 745.15625 C 561.226562 757.6875 587.90625 771.828125 610.300781 792.800781 C 625.398438 806.9375 638.019531 823.007812 646.484375 842.074219 C 648.371094 846.324219 650.445312 850.988281 647.507812 855.296875 C 643.886719 860.601562 638.960938 856.9375 634.996094 855.621094 C 628.667969 853.523438 621.625 857.492188 615.773438 852.910156 "
       id="path12" />
    <path
       style=" stroke:none;fill-rule:nonzero;fill:rgb(98.431396%,98.431396%,98.431396%);fill-opacity:1;"
       d="M 353.511719 704.972656 C 345.015625 704.996094 338.515625 709.390625 332.421875 714.667969 C 323.285156 711.164062 327.691406 704.8125 330.214844 700.148438 C 338.003906 685.746094 349.972656 677.417969 366.820312 676.441406 C 386.832031 675.28125 406.371094 677.359375 425.503906 683.257812 C 441.328125 688.765625 456.625 695.367188 470.027344 705.757812 C 475.347656 709.777344 480.875 713.601562 484.933594 719 C 488.503906 723.753906 490.910156 728.761719 486.140625 734.257812 C 469.203125 735.511719 453.320312 732.023438 438.527344 723.609375 C 412.453125 707.011719 383.277344 704.640625 353.511719 704.972656 "
       id="path14" />
    <path
       style=" stroke:none;fill-rule:nonzero;fill:rgb(12.940979%,13.33313%,13.33313%);fill-opacity:1;"
       d="M 426.859375 687.285156 C 406.40625 682.445312 385.835938 678.800781 364.660156 680.847656 C 348.132812 682.445312 334.574219 693.183594 329.75 708.8125 C 328.953125 711.390625 328.929688 713.914062 332.425781 714.667969 C 329.796875 717.925781 327.359375 717.8125 326.460938 713.625 C 325.539062 709.347656 323.546875 706.417969 319.480469 704.910156 C 325.109375 692.023438 332.664062 680.628906 345.976562 674.789062 C 351.550781 672.34375 352.363281 667.699219 354.511719 663.152344 C 365.789062 639.25 379.792969 617.480469 403.292969 603.597656 C 406.667969 604.882812 408.113281 607.332031 407.695312 610.90625 C 395.601562 625.386719 381.808594 638.558594 373.105469 655.6875 C 371.28125 659.28125 368.171875 662.332031 368.546875 667.929688 C 375.496094 672.601562 383.875 669.417969 391.59375 670.492188 C 405.914062 672.488281 421.535156 670.835938 431.839844 684.503906 C 431.160156 687.210938 429.738281 688.5625 426.859375 687.285156 "
       id="path16" />
    <path
       style=" stroke:none;fill-rule:nonzero;fill:rgb(22.3526%,14.901733%,14.117432%);fill-opacity:1;"
       d="M 353.511719 704.972656 C 362.59375 700.164062 372.320312 701.449219 381.730469 702.78125 C 402.253906 705.6875 422.582031 709.625 440.792969 720.460938 C 439.1875 722.5625 436.960938 723.355469 434.425781 723.515625 C 431.875 723.425781 429.714844 722.449219 427.953125 720.589844 C 406.398438 710.703125 383.519531 708.144531 360.152344 708.320312 C 358.855469 705.378906 355.953125 705.628906 353.511719 704.972656 "
       id="path18" />
    <path
       style=" stroke:none;fill-rule:nonzero;fill:rgb(80.784607%,12.940979%,6.666565%);fill-opacity:1;"
       d="M 797.191406 880.601562 C 791.410156 878.277344 785.355469 877.875 779.222656 877.984375 C 768.761719 879.035156 758.414062 878.5 748.222656 875.730469 C 744.101562 874.761719 740.808594 872.652344 738.851562 868.757812 C 729.699219 845.40625 713.929688 826.46875 698.105469 807.578125 C 681.386719 787.625 684.3125 777.683594 709.613281 768.769531 C 721.605469 772.480469 726.222656 783.125 731.78125 792.796875 C 747.316406 793.460938 756.945312 778.828125 772.472656 777.832031 C 771.425781 770.667969 768.167969 764.160156 766.976562 757.164062 C 763.835938 738.691406 765.980469 721.390625 776.957031 705.601562 C 782.234375 698.011719 787.5 690.421875 792.960938 682.960938 C 801.648438 671.09375 803.875 657.566406 801.660156 643.367188 C 799.730469 630.980469 796.332031 618.257812 810.585938 610.8125 C 821.664062 605.03125 841.726562 610.347656 851.683594 620.855469 C 871.066406 641.300781 867.941406 685.691406 845.210938 702.277344 C 840.25 705.898438 841.816406 710.277344 840.03125 714.140625 C 835.664062 727.386719 835.28125 742.519531 822.421875 751.757812 C 816.703125 758.972656 810.988281 766.191406 804.203125 774.757812 C 814.328125 772.789062 816.769531 778.066406 815.648438 785.933594 C 813.617188 800.15625 814.558594 814.582031 812.945312 828.753906 C 811.429688 842.066406 819.132812 849.539062 829.1875 857.398438 C 817.664062 865.753906 807.425781 873.179688 797.191406 880.601562 "
       id="path20" />
    <path
       style=" stroke:none;fill-rule:nonzero;fill:rgb(12.548828%,10.588074%,10.195923%);fill-opacity:1;"
       d="M 837.179688 714.15625 L 837.179688 696.183594 C 842.9375 693.089844 842.539062 700.203125 847.46875 700.152344 C 858.691406 678.738281 867.21875 656.839844 854.921875 632.324219 C 847.792969 618.105469 832.285156 610.339844 816.726562 612.433594 C 808.324219 613.5625 803.730469 617.867188 803.601562 626.503906 C 803.53125 631.113281 803.738281 635.644531 804.742188 640.246094 C 808.691406 658.304688 805.058594 674.492188 793.355469 689.21875 C 780.25 705.707031 767.382812 722.542969 769.113281 745.65625 C 770.128906 759.195312 774.296875 771.691406 783.183594 787.523438 C 768.207031 776.710938 760.449219 786.382812 751.328125 791.261719 C 745.019531 794.636719 738.386719 797.355469 730.503906 797.976562 C 726.316406 786.359375 717.691406 778.144531 708.566406 770.34375 C 705.867188 771.953125 704.585938 770.347656 703.5625 768.144531 C 706.765625 759.058594 703.9375 750.253906 702.242188 741.378906 C 703.050781 738.425781 703.726562 735.320312 707.957031 736.113281 C 712.03125 743.820312 718.273438 749.707031 718.882812 760.042969 C 719.488281 770.324219 730.46875 776.125 738.019531 782.765625 C 740.386719 784.851562 743.695312 781.933594 746.355469 780.476562 C 751.683594 777.558594 757.050781 774.707031 762.992188 771.507812 C 753.363281 739.558594 762.78125 712.378906 783.558594 688.851562 C 795.492188 675.339844 798.824219 660.328125 796.742188 643.261719 C 796.433594 640.71875 795.699219 638.21875 795.480469 635.671875 C 793.230469 609.773438 810.472656 596.296875 835.3125 604.492188 C 858.183594 612.035156 872.519531 633.789062 870.171875 658.101562 C 869.242188 667.726562 867.769531 677.324219 864.222656 687.523438 C 888.894531 688.128906 914.5625 681.859375 929.09375 708.414062 C 926.335938 709.824219 924.351562 711.921875 923.378906 714.914062 C 905.726562 704.285156 887.546875 696.460938 865.765625 704.277344 C 866.011719 712.183594 877.363281 711.246094 877.03125 721.097656 C 865.386719 725.871094 850.496094 720.550781 838.351562 727.609375 C 834.332031 723.433594 835.515625 718.8125 837.179688 714.15625 "
       id="path22" />
    <path
       style=" stroke:none;fill-rule:nonzero;fill:rgb(80.000305%,12.940979%,6.666565%);fill-opacity:1;"
       d="M 840.902344 727.164062 C 844.707031 718.898438 851.363281 716.457031 859.707031 718.519531 C 864.714844 719.761719 869.625 720.53125 875.734375 720.128906 C 873.054688 712.097656 864.585938 716.027344 860.1875 710.410156 C 858.878906 707.765625 864.46875 703.976562 859.964844 700.636719 C 878.699219 691.386719 910.652344 699.011719 923.378906 714.914062 C 923.394531 715.425781 923.304688 715.972656 923.4375 716.449219 C 934.566406 756.050781 917.226562 765.265625 881.636719 769.375 C 862.453125 771.59375 844.507812 764.800781 828.089844 754.621094 C 827.800781 743.328125 833.890625 735.03125 840.902344 727.164062 "
       id="path24" />
    <path
       style=" stroke:none;fill-rule:nonzero;fill:rgb(79.216003%,12.940979%,6.666565%);fill-opacity:1;"
       d="M 823.734375 770.589844 C 882.925781 782.257812 882.925781 782.257812 919.699219 768.667969 C 928.789062 779.625 928.859375 792.261719 920.003906 802.824219 C 914.519531 809.359375 907.242188 813.105469 899.445312 815.703125 C 882.253906 821.425781 865.035156 819.632812 848.363281 813.8125 C 829.609375 807.265625 821.425781 792.605469 823.734375 770.589844 "
       id="path26" />
    <path
       style=" stroke:none;fill-rule:nonzero;fill:rgb(78.823853%,12.940979%,6.666565%);fill-opacity:1;"
       d="M 826.324219 810.964844 C 850.183594 825.992188 874.539062 833.316406 901.589844 825.394531 C 901.242188 840.136719 893.257812 849.476562 878.832031 853.484375 C 866.496094 856.910156 854.324219 855.195312 842.746094 851.296875 C 823.085938 844.675781 820.136719 837.046875 826.324219 810.964844 "
       id="path28" />
    <path
       style=" stroke:none;fill-rule:nonzero;fill:rgb(21.960449%,9.01947%,7.058716%);fill-opacity:1;"
       d="M 840.902344 727.164062 C 839.226562 737.535156 832.636719 745.601562 828.089844 754.621094 C 826.199219 753.667969 824.308594 752.710938 822.421875 751.757812 C 828.8125 739.804688 832.292969 726.703125 837.179688 714.15625 C 838.167969 718.566406 835.464844 724.035156 840.902344 727.164062 "
       id="path30" />
    <path
       style=" stroke:none;fill-rule:nonzero;fill:rgb(10.980225%,8.627319%,7.450867%);fill-opacity:1;"
       d="M 741.613281 865.808594 C 742.113281 869.648438 744.457031 871.59375 748.125 872.171875 C 756.519531 877.921875 790.230469 875.847656 799.171875 879.167969 C 801.023438 883.6875 799.9375 885.402344 802.382812 889.902344 C 798.566406 890.152344 778.722656 884.296875 775.242188 884.527344 C 740.269531 881.035156 705.457031 876.488281 671.121094 868.75 C 674.550781 863.878906 679.964844 866.710938 684.292969 865.339844 C 699.273438 859.988281 714.492188 866.804688 729.527344 864.40625 C 733.640625 864.113281 737.890625 862.71875 741.613281 865.808594 "
       id="path32" />
    <path
       style=" stroke:none;fill-rule:nonzero;fill:rgb(12.548828%,10.980225%,10.195923%);fill-opacity:1;"
       d="M 775.777344 878.371094 C 766.371094 877.152344 755.828125 881.027344 748.125 872.171875 C 758.464844 874.242188 769.222656 874.078125 779.222656 877.984375 C 778.074219 878.113281 776.925781 878.242188 775.777344 878.371094 "
       id="path34" />
    <path
       style=" stroke:none;fill-rule:nonzero;fill:rgb(10.588074%,10.588074%,9.803772%);fill-opacity:1;"
       d="M 707.957031 736.113281 C 705.011719 737.582031 704.921875 740.421875 704.59375 743.144531 C 697.714844 742.808594 694.183594 736.683594 688.695312 733.929688 C 679.132812 718.886719 667.847656 705.203125 655.699219 691.761719 C 658.433594 697.300781 662.203125 702.191406 660.738281 708.632812 C 659.828125 710.863281 658.324219 712.265625 655.78125 712.242188 C 644.089844 701.472656 638.957031 686.816406 632.566406 672.898438 C 634.480469 664.8125 628.46875 658.757812 627.046875 651.507812 C 629.410156 645.699219 635.367188 644.453125 639.917969 641.535156 C 655.5625 631.503906 657.0625 626.441406 648.070312 610.878906 C 646.335938 607.875 645.171875 604.519531 642.78125 601.835938 C 639.921875 603.667969 640.53125 607.433594 638.351562 609.574219 C 627.9375 612.730469 616.585938 613.609375 608.238281 621.902344 C 606.417969 623.289062 604.394531 624.207031 602.148438 624.632812 C 590.464844 624.890625 583.242188 617.894531 577.371094 609.007812 C 569.132812 596.539062 562.375 583.238281 556.210938 569.644531 C 548.167969 551.898438 541.941406 532.695312 519.433594 527.535156 C 516.5625 526.878906 513.644531 524.363281 514.011719 520.84375 C 514.414062 516.992188 517.34375 514.386719 520.8125 513.085938 C 534.84375 507.816406 547.058594 512.933594 558.253906 520.835938 C 574.214844 532.105469 587.507812 546.640625 603.011719 558.511719 C 624.453125 574.929688 647.4375 588.128906 674.269531 593.394531 C 692.753906 597.023438 700.433594 592.449219 705.296875 575.265625 C 715.0625 540.738281 702.394531 508.140625 671.964844 489.578125 C 669.730469 488.214844 667.703125 486.738281 666.671875 484.238281 C 666.390625 482.757812 666.488281 481.28125 666.9375 479.839844 C 676.585938 466.769531 672.402344 444.0625 658.773438 435.265625 C 653.8125 432.066406 650.089844 432.480469 648.140625 438.558594 C 646.730469 442.945312 647.304688 447.8125 644.984375 452.007812 C 641.351562 456.535156 637.5 456.945312 634.0625 452.027344 C 631.179688 447.90625 628.070312 444.023438 624.625 440.378906 C 624.226562 439.390625 623.828125 438.035156 624.4375 437.5 C 641.644531 422.367188 639.402344 406.152344 627.414062 389.191406 C 625.648438 386.691406 625.265625 383.527344 626.179688 380.398438 C 627.28125 378.25 628.640625 376.597656 631.40625 377.726562 C 638.800781 382.933594 635.773438 371.355469 641.171875 372.242188 C 647.820312 375.921875 650.414062 383.085938 653.605469 390.132812 C 655.402344 394.105469 654.609375 402.992188 663.925781 398.386719 C 664.5 398.101562 667.160156 400.046875 667.246094 401.089844 C 668.21875 412.949219 679.144531 421.203125 679.097656 433.042969 C 679.070312 439.027344 683.109375 440.929688 686.101562 444.066406 C 709.148438 468.195312 726.792969 495.113281 723.566406 530.191406 C 721.925781 548.011719 722.746094 566.117188 718.488281 583.683594 C 714.675781 599.40625 707.722656 611.328125 688.792969 611.136719 C 680.113281 611.046875 673.851562 619.042969 671.914062 625.042969 C 666.734375 641.101562 654.921875 649.878906 640.273438 658.839844 C 665.84375 683.144531 684.128906 711.988281 707.957031 736.113281 "
       id="path36" />
    <path
       style=" stroke:none;fill-rule:nonzero;fill:rgb(11.764526%,10.588074%,10.195923%);fill-opacity:1;"
       d="M 406.4375 609.878906 C 405.390625 607.785156 404.34375 605.691406 403.292969 603.597656 C 405.890625 600.511719 410.863281 600.21875 412.777344 595.003906 C 400.890625 581.011719 387.589844 567.5 379.058594 550.507812 C 369.5 531.457031 362.3125 512.101562 369.519531 490.207031 C 374.214844 475.945312 383 465.054688 394.71875 456.265625 C 404.613281 448.84375 413.535156 440.46875 420.894531 430.492188 C 430.3125 417.726562 435.527344 403.722656 434.320312 387.488281 C 433.375 374.835938 427.054688 369.027344 414.472656 370.769531 C 407.894531 371.679688 401.445312 373.582031 394.859375 374.324219 C 387.492188 375.15625 379.832031 374.339844 376.4375 366.640625 C 373.273438 359.457031 378.136719 354.0625 382.941406 349.140625 C 391.070312 340.816406 401.0625 336.101562 412.203125 333.410156 C 415.113281 332.710938 419.464844 333.722656 420.675781 330.816406 C 428.367188 312.402344 443.3125 319.152344 456.289062 320.480469 C 464.34375 321.300781 472.203125 324.023438 480.148438 325.890625 C 479.945312 331.574219 475.347656 331.300781 471.644531 332.246094 C 461.855469 333.546875 452.484375 329.117188 440.910156 329.984375 C 445.058594 335.101562 452.902344 336.003906 452.613281 344.578125 C 435.160156 352.878906 411.957031 341.804688 393.710938 360.074219 C 406.519531 360.09375 416.558594 357.6875 426.609375 358.878906 C 438.808594 360.320312 448.519531 363.890625 448.988281 378.910156 C 449.195312 385.492188 452.90625 391.6875 453.050781 398.457031 C 453.234375 407.085938 454.886719 416.253906 444.253906 420.785156 C 441.949219 421.769531 441.085938 424.71875 439.957031 427.019531 C 432.09375 443.058594 420.105469 455.371094 406.316406 466.5 C 382.558594 485.671875 376.941406 508.613281 389.578125 536.414062 C 404.800781 569.898438 428.210938 595.691406 463.425781 608.65625 C 470.289062 611.183594 477.703125 618.136719 486.027344 608.8125 C 488.835938 605.667969 494.582031 609.449219 496.648438 614.429688 C 496.359375 621.757812 490.878906 624.304688 485.398438 626.839844 C 477.410156 635.542969 491.71875 636.589844 490.867188 642.804688 C 490.859375 645.09375 489.859375 646.777344 487.804688 647.804688 C 485.085938 648.601562 482.574219 647.628906 480.039062 646.90625 C 476.46875 645.605469 472.367188 649.210938 468.992188 645.789062 C 462.609375 637.316406 458.75 627.53125 450.105469 620.050781 C 436.6875 608.441406 422.109375 608.328125 406.4375 609.878906 "
       id="path38" />
    <path
       style=" stroke:none;fill-rule:nonzero;fill:rgb(17.64679%,12.940979%,12.156677%);fill-opacity:1;"
       d="M 479.765625 317.171875 C 474.542969 311.679688 476.265625 308.828125 483.175781 307.414062 C 497.671875 304.457031 512.082031 306.445312 525.753906 310.429688 C 554.023438 318.667969 581.933594 328.257812 603.414062 350.132812 C 604.09375 353.191406 602.242188 354.285156 599.757812 354.894531 C 591.539062 354.699219 586.070312 348.757812 579.476562 345.132812 C 552.167969 330.113281 524.246094 317.003906 492.039062 317.746094 C 487.894531 318.894531 483.914062 316.285156 479.765625 317.171875 "
       id="path40" />
    <path
       style=" stroke:none;fill-rule:nonzero;fill:rgb(14.509583%,10.195923%,9.01947%);fill-opacity:1;"
       d="M 479.765625 317.171875 C 482.542969 310.621094 486.640625 315.753906 490.1875 315.984375 C 501.476562 316.875 508.449219 323.933594 513.835938 332.980469 C 515.652344 336.03125 516.929688 339.636719 514.570312 343.046875 C 512.050781 346.691406 508.003906 346.324219 504.976562 344.707031 C 493.824219 338.753906 479.210938 340.214844 470.71875 328.652344 C 474.011719 328.238281 477.773438 329.445312 480.152344 325.890625 C 487.015625 322.675781 480.359375 320.058594 479.765625 317.171875 "
       id="path42" />
    <path
       style=" stroke:none;fill-rule:nonzero;fill:rgb(24.705505%,15.686035%,14.901733%);fill-opacity:1;"
       d="M 599.878906 353.4375 L 603.414062 350.132812 C 615.558594 356.460938 623.074219 367.511719 631.40625 377.726562 C 630.183594 378.933594 628.957031 380.144531 627.734375 381.351562 C 613.777344 376.738281 604.523438 367.402344 599.878906 353.4375 "
       id="path44" />
    <path
       style=" stroke:none;fill-rule:nonzero;fill:rgb(99.607849%,99.607849%,99.607849%);fill-opacity:1;"
       d="M 480.210938 643.335938 C 481.941406 644.585938 483.671875 645.839844 485.402344 647.09375 C 498.949219 652.648438 510.242188 662.027344 522.808594 669.25 C 544.261719 681.210938 566.214844 691.269531 591.332031 693.125 C 601.445312 693.871094 610.441406 692.945312 618.789062 687.214844 C 623.253906 683.199219 623.398438 677.273438 625.523438 672.21875 C 627.570312 667.34375 630.523438 665.75 633.910156 671.371094 C 642.609375 683.941406 649.242188 697.671875 656.136719 711.253906 C 664.332031 716.09375 663.726562 725.710938 667.816406 732.785156 C 668.898438 735.121094 669.921875 737.496094 670.515625 739.988281 C 678.628906 774.035156 686.445312 807.613281 714.875 832.636719 C 724.175781 840.820312 734.074219 852.945312 731.980469 868.613281 C 715.964844 869.316406 700.109375 867.609375 684.292969 865.339844 C 668.003906 863.992188 660.027344 854.265625 652.503906 839.976562 C 629.863281 796.960938 593.625 768.539062 548.839844 750.636719 C 543.4375 748.480469 538.246094 746.871094 532.496094 748.613281 C 526.921875 745.121094 520.882812 742.910156 514.371094 742.007812 C 507.214844 738.453125 497.597656 740.507812 492.445312 732.347656 C 484.980469 721.769531 481.292969 710.035156 480.441406 697.0625 C 479.519531 682.953125 478.046875 668.863281 475.347656 654.929688 C 474.464844 650.378906 472.222656 644.480469 480.210938 643.335938 "
       id="path46" />
    <path
       style=" stroke:none;fill-rule:nonzero;fill:rgb(23.136902%,12.548828%,11.372375%);fill-opacity:1;"
       d="M 680.976562 860.875 C 666.875 859.507812 662.523438 848.355469 656.550781 838.023438 C 632.585938 796.574219 597.914062 767.171875 553.984375 748.691406 C 548.140625 746.234375 499.484375 736.320312 496.183594 732.828125 C 492.789062 730.480469 489.417969 730.394531 486.070312 732.933594 C 470.085938 732.027344 455.101562 727.472656 440.792969 720.460938 C 438.457031 720.566406 436.121094 720.671875 433.78125 720.777344 C 433.789062 727.40625 428.1875 723.589844 425.460938 725.164062 C 423.082031 726.542969 417.632812 723.296875 418.808594 729.835938 C 440.984375 737.039062 464.511719 734.433594 487.058594 739.265625 C 493.878906 740.730469 522.34375 749.675781 539.476562 752.773438 C 573.484375 767.183594 603.628906 787.023438 626.574219 816.695312 C 635.359375 828.050781 643.574219 839.828125 647.03125 856.113281 C 634.976562 853.660156 625.40625 852.878906 615.773438 852.910156 C 624.929688 859.777344 637.019531 856.132812 648.015625 861.960938 C 643.226562 862.386719 639.824219 862.6875 636.417969 862.988281 C 647.640625 866.992188 659.503906 867.125 671.125 868.75 C 674.816406 865.285156 680.5625 870.398438 683.953125 865.660156 C 683.960938 863.421875 683.117188 861.082031 680.976562 860.875 "
       id="path48" />
    <path
       style=" stroke:none;fill-rule:nonzero;fill:rgb(62.353516%,15.293884%,10.980225%);fill-opacity:1;"
       d="M 433.78125 720.777344 C 435.328125 724.09375 440.320312 723.519531 441.558594 728.414062 C 433.9375 729.527344 425.617188 722.46875 418.808594 729.835938 C 416.769531 729.359375 415.234375 728.253906 414.207031 725.78125 C 417.367188 720.65625 425.191406 726.695312 427.953125 720.589844 C 429.898438 720.652344 431.839844 720.714844 433.78125 720.777344 "
       id="path50" />
    <path
       style=" stroke:none;fill-rule:nonzero;fill:rgb(18.431091%,18.823242%,19.215393%);fill-opacity:1;"
       d="M 496.183594 732.828125 C 492.8125 732.863281 489.441406 732.898438 486.070312 732.933594 C 486.8125 719.695312 474.683594 715.929688 467.964844 708.179688 C 466.953125 706.019531 467.476562 703.9375 468.261719 701.867188 C 470.6875 686.058594 474.59375 670.324219 468.742188 654.355469 C 467.75 651.644531 468.503906 648.296875 471.660156 646.488281 C 474.574219 645.601562 474.617188 636.90625 480.210938 643.335938 C 476.128906 644.964844 477.332031 648.359375 478.097656 651.058594 C 483.734375 670.847656 485.144531 691.300781 485.863281 711.59375 C 486.199219 721.207031 494.664062 724.921875 496.183594 732.828125 "
       id="path52" />
    <path
       style=" stroke:none;fill-rule:nonzero;fill:rgb(23.529053%,23.529053%,23.921204%);fill-opacity:1;"
       d="M 471.613281 704.847656 C 470.394531 705.960938 469.179688 707.070312 467.964844 708.179688 C 454.753906 700.242188 440.988281 693.40625 426.859375 687.285156 C 428.222656 686.078125 429.585938 684.871094 430.949219 683.664062 C 446.167969 681.351562 462.542969 689.882812 471.613281 704.847656 "
       id="path54" />
    <path
       style=" stroke:none;fill-rule:nonzero;fill:rgb(99.607849%,99.607849%,99.607849%);fill-opacity:1;"
       d="M 471.613281 704.847656 C 459.128906 695.722656 446.679688 686.519531 430.949219 683.664062 C 408.925781 673.304688 385.386719 672.867188 359.625 673.605469 C 372.496094 649.011719 384.941406 626.222656 406.4375 609.878906 C 410.179688 609.988281 413.242188 608.121094 416.335938 606.40625 C 423.808594 602.269531 430.046875 603.984375 437.597656 607.972656 C 454.078125 616.679688 466.925781 627.738281 471.660156 646.488281 C 470.757812 653.210938 473.761719 659.332031 474.746094 665.765625 C 476.007812 674.046875 480.089844 682.144531 472.433594 689.746094 C 468.035156 694.117188 477.5625 700.058594 471.613281 704.847656 "
       id="path56" />
    <path
       style=" stroke:none;fill-rule:nonzero;fill:rgb(12.548828%,10.980225%,10.195923%);fill-opacity:1;"
       d="M 731.980469 868.613281 C 714.996094 831.53125 697.851562 810.546875 685.785156 812.84375 C 678.828125 786.300781 671.859375 759.714844 664.890625 733.128906 C 662.832031 730.039062 663.15625 727.582031 666.753906 725.996094 C 671.457031 726.722656 673.902344 730.402344 674.386719 734.257812 C 675.15625 740.367188 679.832031 740.316406 683.71875 741.875 C 683.925781 752.023438 678.707031 762.964844 687.894531 771.730469 C 694.648438 773.195312 698.148438 764.453125 704.898438 766.769531 C 706.121094 767.960938 707.34375 769.152344 708.566406 770.347656 C 701.132812 776.40625 693.375 782.128906 687.644531 790.523438 C 708.550781 813.667969 729.519531 836.570312 741.613281 865.808594 C 738.402344 866.742188 735.191406 867.679688 731.980469 868.613281 "
       id="path58" />
    <path
       style=" stroke:none;fill-rule:nonzero;fill:rgb(98.039246%,98.039246%,98.039246%);fill-opacity:1;"
       d="M 704.898438 766.769531 C 697.9375 770.332031 694.074219 778.789062 684.34375 779.625 C 680.480469 767.136719 672.667969 755.105469 683.449219 742.199219 C 681.71875 736.59375 685.246094 734.507812 689.589844 732.96875 C 698.46875 730.609375 699.023438 740.59375 704.59375 743.144531 C 708.394531 750.96875 715.09375 758.757812 704.898438 766.769531 "
       id="path60" />
    <path
       style=" stroke:none;fill-rule:nonzero;fill:rgb(80.392456%,12.548828%,6.274414%);fill-opacity:1;"
       d="M 599.878906 353.4375 C 609.164062 362.742188 618.449219 372.046875 627.734375 381.351562 C 630.351562 386.28125 632.917969 391.246094 635.597656 396.144531 C 646.765625 416.558594 644.089844 426.984375 624.4375 439.476562 C 608.9375 445.984375 600.40625 434.148438 592.070312 425.535156 C 575.101562 408.003906 554.941406 398.765625 531.09375 396.074219 C 513.742188 394.113281 511.507812 395.183594 504.59375 411.601562 C 502.894531 415.640625 498.8125 417.234375 495.363281 419.414062 C 488.910156 423.484375 482.089844 427.199219 479.253906 435.078125 C 492.34375 440.773438 491.085938 440.554688 488.574219 455.109375 C 486.042969 469.78125 476.101562 481.652344 475.039062 496.519531 C 479.96875 501.730469 483.121094 507.101562 477.792969 514.027344 C 471.183594 522.609375 474.582031 529 482.441406 534.515625 C 498.015625 545.445312 511.683594 558.34375 522.5 574.152344 C 525.390625 578.378906 528.035156 582.71875 530.226562 587.355469 C 535.394531 598.308594 537.78125 609.46875 526.582031 617.785156 C 516.378906 625.359375 505.65625 624.113281 496.132812 615.34375 C 493.109375 612.609375 489.835938 610.460938 485.585938 610.617188 C 483.972656 613.621094 488.28125 614.902344 486.710938 618.808594 C 460.226562 615.789062 437.5625 603.664062 418.671875 585.472656 C 403.953125 571.300781 391.988281 554.527344 384.464844 534.890625 C 373.648438 506.640625 379.308594 482.042969 403.363281 463.632812 C 420.960938 450.167969 434.394531 434.070312 441.28125 413.539062 C 444.839844 411.699219 446 416.273438 447.980469 415.460938 C 454.910156 399.59375 441.898438 385.644531 445.03125 370.195312 C 445.554688 367.625 441.441406 365.832031 438.222656 365.007812 C 426.597656 362.023438 414.933594 361.925781 403.199219 363.984375 C 398.238281 364.851562 393.308594 366.746094 388.359375 363.996094 C 392.355469 348.851562 392.355469 348.851562 451.53125 342.4375 C 445.832031 336.15625 436.546875 336.445312 432.273438 328.761719 C 445.175781 321.007812 458.058594 329.871094 470.71875 328.652344 C 484.234375 333.792969 498.523438 336.597656 513.671875 345.277344 C 510.824219 328.414062 499.089844 323.367188 490.1875 315.984375 C 498.648438 309.445312 507.359375 313.519531 515.910156 315.542969 C 546.324219 322.734375 574.460938 335.078125 599.878906 353.4375 "
       id="path62" />
    <path
       style=" stroke:none;fill-rule:nonzero;fill:rgb(99.607849%,99.607849%,99.607849%);fill-opacity:1;"
       d="M 636.898438 609.390625 C 637.53125 604.902344 638.164062 600.410156 639.066406 594.035156 C 649.027344 601.949219 654.234375 611.707031 658.035156 621.503906 C 661.175781 629.59375 655.015625 636.285156 648.488281 640.683594 C 641.816406 645.183594 634.367188 648.515625 627.253906 652.359375 C 613.292969 664.785156 580.949219 662.238281 561.808594 645.5625 C 549.519531 634.859375 540.382812 622.070312 536.140625 606.105469 C 533.503906 596.191406 530.527344 586.347656 528.164062 576.378906 C 524.476562 560.835938 517.835938 548.851562 503.304688 539.621094 C 482.535156 526.425781 483.136719 514.355469 501.789062 498.667969 C 516.65625 491.476562 531.667969 493.390625 546.722656 497.90625 C 565.652344 501.4375 584.816406 507.695312 602.140625 492.980469 C 619.375 479.78125 637.316406 469.582031 660.046875 478.835938 C 662.914062 480.003906 665.875 480.769531 667.871094 483.359375 C 706.324219 501.546875 722.421875 542.992188 706.761719 583.476562 C 701.429688 597.257812 695.394531 601.054688 680.730469 598.710938 C 650.695312 593.910156 624.167969 581.132812 600.730469 561.902344 C 585.273438 549.21875 570.4375 535.765625 554.761719 523.375 C 541.207031 512.660156 527.140625 512.503906 514.164062 521.5 C 514.597656 522.28125 515.039062 523.757812 515.464844 523.753906 C 533.878906 523.5625 543.886719 534.195312 551.503906 549.746094 C 560.289062 567.683594 567.792969 586.242188 578.03125 603.519531 C 583.945312 613.503906 591.304688 620.140625 602.648438 622.246094 C 610.765625 622.617188 618.453125 626.050781 626.390625 626.375 C 632.898438 626.636719 643.882812 629.007812 638.980469 615.167969 C 637.878906 613.386719 637.007812 611.523438 636.898438 609.390625 "
       id="path64" />
    <path
       style=" stroke:none;fill-rule:nonzero;fill:rgb(8.235168%,7.843018%,7.058716%);fill-opacity:1;"
       d="M 667.871094 483.355469 C 644.523438 476.574219 623.003906 479.078125 604.308594 495.933594 C 602.847656 496.738281 601.386719 496.734375 599.929688 495.9375 C 595.617188 490.210938 598.652344 484.078125 599.101562 478.140625 C 600.289062 462.515625 596.667969 448.738281 584.839844 437.730469 C 577.722656 431.109375 569.945312 426.699219 559.941406 429.84375 C 549.921875 432.992188 545.988281 441.085938 544.089844 450.625 C 543.390625 454.140625 542.761719 457.644531 543.339844 462.707031 C 555.601562 457.757812 568.113281 453.914062 576.347656 468.039062 C 583.234375 479.84375 582.6875 491.441406 572.890625 501.835938 C 564.445312 503.515625 556.019531 503.792969 547.613281 501.660156 C 532.515625 498.785156 517.417969 493.878906 502.320312 501.652344 C 491.359375 506.777344 481.503906 502.109375 471.566406 498.164062 C 467.433594 495.484375 465.570312 490.46875 469.289062 488.058594 C 480.417969 480.84375 479.773438 468.871094 483.167969 458.480469 C 484.902344 453.171875 486.738281 447.894531 488.769531 441.890625 C 483.476562 438.796875 476.984375 446.328125 471.558594 439.695312 C 476.4375 424.574219 489.675781 417.957031 502.527344 411.285156 C 503.980469 405.734375 495.945312 406.492188 497.046875 400.242188 C 505.160156 391.730469 516.589844 390.761719 528.3125 391.585938 C 555.472656 393.496094 578.367188 404.558594 596.792969 424.753906 C 604.265625 432.945312 613.003906 438.757812 624.4375 439.476562 C 631.09375 438.582031 634.089844 442.070312 635.441406 448.179688 C 636.480469 452.878906 639.335938 454.71875 643.925781 451.863281 C 667.027344 448.988281 674.867188 458.15625 667.976562 479.976562 C 667.941406 481.105469 667.90625 482.230469 667.871094 483.355469 "
       id="path66" />
    <path
       style=" stroke:none;fill-rule:nonzero;fill:rgb(9.803772%,9.411621%,9.01947%);fill-opacity:1;"
       d="M 471.566406 498.164062 C 482.042969 497.316406 492.136719 499.886719 502.320312 501.652344 C 485.996094 516.429688 489.027344 532.144531 512.175781 541.28125 C 521.550781 544.984375 524.5625 551.011719 526.875 558.398438 C 532.207031 575.417969 536.039062 592.914062 541.582031 609.851562 C 548.660156 631.476562 562.917969 646.824219 584.921875 653.855469 C 599.09375 658.386719 613.191406 654.308594 627.257812 652.359375 C 633.710938 657.203125 640.941406 661.777344 633.910156 671.367188 C 631.597656 671.367188 628.085938 667.640625 627.773438 673.660156 C 627.464844 679.578125 627.625 685.820312 621.867188 689.796875 C 618.949219 690.996094 617.898438 689.101562 617.039062 686.886719 C 616.441406 684.425781 617.175781 681.765625 615.675781 678.804688 C 576.074219 691.054688 545.25 670.769531 515.410156 649.453125 C 504.492188 641.652344 493.160156 634.019531 483.304688 624.664062 C 487.671875 621.683594 492.753906 619.691406 496.132812 615.347656 C 501.113281 616.417969 506.046875 617.878906 511.085938 618.484375 C 526.355469 620.332031 534.566406 610.398438 529.398438 595.867188 C 522.128906 575.425781 508.28125 559.75 491.800781 546.222656 C 488.242188 543.300781 484.425781 540.6875 480.6875 537.988281 C 464.703125 526.449219 464.445312 524.523438 476.785156 509.371094 C 477.6875 508.265625 478.328125 506.949219 478.914062 506.015625 C 477.976562 501.53125 472.511719 502.082031 471.566406 498.164062 "
       id="path68" />
    <path
       style=" stroke:none;fill-rule:nonzero;fill:rgb(77.255249%,13.33313%,7.058716%);fill-opacity:1;"
       d="M 595.542969 580.097656 C 598.574219 576.089844 591.949219 574.242188 594.09375 570.144531 C 604.574219 575.53125 609.246094 586.273438 616.597656 594.363281 C 620.597656 598.757812 618.25 602.964844 613.726562 605.832031 C 604.476562 611.699219 596.074219 609.265625 588.496094 602.632812 C 576.988281 592.5625 571.230469 578.792969 564.285156 564.214844 C 578.722656 563.121094 585.59375 574.871094 595.542969 580.097656 "
       id="path70" />
    <path
       style=" stroke:none;fill-rule:nonzero;fill:rgb(97.254944%,97.254944%,97.254944%);fill-opacity:1;"
       d="M 667.976562 479.976562 C 665.6875 477.367188 666.46875 474.75 666.980469 471.53125 C 669.027344 458.585938 663.667969 453.699219 650.464844 456.53125 C 645.683594 457.558594 646.40625 452.917969 643.925781 451.863281 C 644.078125 445.757812 642.285156 439.539062 644.695312 433.566406 C 647.6875 426.144531 653.335938 424.203125 658.949219 429.46875 C 671.011719 440.789062 678.058594 454.53125 677.667969 471.683594 C 677.511719 478.742188 674.035156 480.539062 667.976562 479.976562 "
       id="path72" />
    <path
       style=" stroke:none;fill-rule:nonzero;fill:rgb(96.470642%,96.470642%,96.470642%);fill-opacity:1;"
       d="M 689.589844 732.96875 C 687.542969 736.042969 685.496094 739.121094 683.449219 742.199219 C 681.042969 742.960938 678.636719 743.722656 675.347656 744.761719 C 672.742188 738.777344 670.175781 732.882812 667.609375 726.984375 C 660.660156 722.183594 661.011719 714.324219 659.417969 707.285156 C 657.34375 700.386719 654.175781 694.019531 650.210938 688.078125 C 660.320312 689.054688 683.464844 715.402344 689.589844 732.96875 "
       id="path74" />
    <path
       style=" stroke:none;fill-rule:nonzero;fill:rgb(91.764832%,91.764832%,91.764832%);fill-opacity:1;"
       d="M 636.898438 609.390625 C 638.074219 610.589844 639.253906 611.789062 640.429688 612.988281 C 643.808594 623.195312 635.929688 626.5 629.417969 626.828125 C 621.378906 627.238281 612.0625 627.101562 606.507812 618.652344 C 615.621094 612.210938 624.546875 605.140625 636.898438 609.390625 "
       id="path76" />
    <path
       style=" stroke:none;fill-rule:nonzero;fill:rgb(69.020081%,14.901733%,9.411621%);fill-opacity:1;"
       d="M 713.808594 516.496094 C 703.875 502.867188 696.421875 490.707031 697.003906 475.28125 C 707.96875 479.421875 714.601562 494.621094 713.808594 516.496094 "
       id="path78" />
    <path
       style=" stroke:none;fill-rule:nonzero;fill:rgb(18.823242%,19.215393%,18.823242%);fill-opacity:1;"
       d="M 606.507812 618.652344 C 612.3125 622.039062 618.808594 623.425781 625.300781 623.609375 C 632.527344 623.808594 639.898438 622.953125 640.429688 612.984375 C 648.480469 621.304688 648.316406 625.039062 638.648438 628.738281 C 625.597656 633.730469 613.785156 629.269531 602.648438 622.246094 C 603.9375 621.046875 605.21875 619.847656 606.507812 618.652344 "
       id="path80" />
    <path
       style=" stroke:none;fill-rule:nonzero;fill:rgb(64.31427%,15.293884%,10.195923%);fill-opacity:1;"
       d="M 651.980469 599.140625 C 661.480469 598.761719 665.964844 601.84375 670.46875 604.839844 C 670.1875 609.863281 667.089844 612.234375 662.945312 614.367188 C 658.507812 610.84375 656.773438 605.613281 651.980469 599.140625 "
       id="path82" />
    <path
       style=" stroke:none;fill-rule:nonzero;fill:rgb(23.136902%,23.921204%,23.921204%);fill-opacity:1;"
       d="M 659.417969 707.28125 C 664.523438 712.855469 665.949219 719.972656 667.605469 726.984375 C 665.007812 728.277344 665.363281 730.886719 664.886719 733.128906 C 659.875 726.679688 658.503906 718.765625 656.136719 711.253906 C 657.230469 709.929688 658.324219 708.605469 659.417969 707.28125 "
       id="path84" />
    <path
       style=" stroke:none;fill-rule:nonzero;fill:rgb(98.039246%,98.039246%,98.039246%);fill-opacity:1;"
       d="M 483.304688 624.664062 C 493.871094 627.238281 502.339844 632.582031 510.144531 640.589844 C 528.523438 659.453125 552.414062 669.199219 577.027344 676.71875 C 591.566406 681.160156 606.332031 682.34375 617.398438 668.015625 C 623.402344 674.367188 622.265625 680.496094 618.796875 686.769531 C 603.179688 701.984375 585.664062 693.699219 569.082031 689.980469 C 553.261719 686.429688 538.839844 678.570312 524.503906 671.003906 C 512.714844 661.960938 497.347656 657.457031 489.496094 643.378906 C 484.511719 637.601562 476.742188 634.203125 473.988281 626.457031 C 477.3125 623.828125 480.484375 625.460938 483.304688 624.664062 "
       id="path86" />
    <path
       style=" stroke:none;fill-rule:nonzero;fill:rgb(20.783997%,21.176147%,21.568298%);fill-opacity:1;"
       d="M 489.496094 643.378906 C 501.042969 651.5 512.589844 659.617188 524.136719 667.738281 C 523.613281 669.753906 522.292969 670.867188 520.265625 671.1875 C 507.640625 664.621094 494.992188 658.078125 485.402344 647.09375 C 486.765625 645.855469 488.132812 644.617188 489.496094 643.378906 "
       id="path88" />
    <path
       style=" stroke:none;fill-rule:nonzero;fill:rgb(17.254639%,17.254639%,17.64679%);fill-opacity:1;"
       d="M 520.265625 671.1875 C 521.558594 670.039062 522.847656 668.886719 524.136719 667.738281 C 544.238281 677.1875 563.917969 687.507812 586.386719 690.925781 C 597.878906 692.675781 608.46875 691.921875 618.796875 686.769531 C 619.820312 687.777344 620.84375 688.789062 621.867188 689.796875 C 607.292969 703.042969 589.941406 698.257812 574.226562 694.96875 C 554.964844 690.9375 536.472656 683.179688 520.265625 671.1875 "
       id="path90" />
    <path
       style=" stroke:none;fill-rule:nonzero;fill:rgb(28.627014%,28.627014%,28.234863%);fill-opacity:1;"
       d="M 547.613281 501.660156 C 555.886719 498.691406 565.714844 505.476562 573.191406 497.546875 C 581.726562 493.714844 590.527344 492.832031 599.617188 495.148438 C 601.179688 495.410156 602.742188 495.671875 604.308594 495.933594 C 586.878906 512.46875 567.101562 505.640625 547.613281 501.660156 "
       id="path92" />
    <path
       style=" stroke:none;fill-rule:nonzero;fill:rgb(32.156372%,32.548523%,32.548523%);fill-opacity:1;"
       d="M 626.820312 509.859375 C 626.105469 500.929688 619.5625 491.289062 635.371094 492.21875 C 638.003906 499.796875 632.5625 503.53125 626.820312 509.859375 "
       id="path94" />
    <path
       style=" stroke:none;fill-rule:nonzero;fill:rgb(98.823547%,98.823547%,98.823547%);fill-opacity:1;"
       d="M 599.617188 495.148438 C 591.09375 499.113281 582.398438 501.136719 573.195312 497.546875 C 577.195312 490.554688 578.183594 483.402344 576.09375 475.371094 C 574.207031 468.101562 570.300781 463.382812 563.25 461.695312 C 555.960938 459.953125 550.152344 462.191406 547.039062 469.601562 C 546.21875 471.550781 544.855469 473.015625 542.59375 473.316406 C 535.820312 460.261719 538.769531 439.300781 548.910156 430.378906 C 557.039062 423.226562 566.34375 422.382812 576.121094 426.507812 C 594.285156 434.179688 601.929688 448.875 603.023438 467.753906 C 603.5625 477.074219 601.898438 486.160156 599.617188 495.148438 "
       id="path96" />
    <path
       style=" stroke:none;fill-rule:nonzero;fill:rgb(0%,0%,0%);fill-opacity:1;"
       d="M 180.710938 600.386719 C 180.710938 620.40625 164.484375 636.636719 144.464844 636.636719 C 124.445312 636.636719 108.214844 620.40625 108.214844 600.386719 C 108.214844 580.371094 124.445312 564.140625 144.464844 564.140625 C 164.484375 564.140625 180.710938 580.371094 180.710938 600.386719 "
       id="path98" />
    <path
       style=" stroke:none;fill-rule:nonzero;fill:rgb(0%,0%,0%);fill-opacity:1;"
       d="M 1091.738281 600.386719 C 1091.738281 620.40625 1075.507812 636.636719 1055.488281 636.636719 C 1035.472656 636.636719 1019.242188 620.40625 1019.242188 600.386719 C 1019.242188 580.371094 1035.472656 564.140625 1055.488281 564.140625 C 1075.507812 564.140625 1091.738281 580.371094 1091.738281 600.386719 "
       id="path100" />
    <path
       style=" stroke:none;fill-rule:nonzero;fill:rgb(100%,100%,100%);fill-opacity:1;"
       d="M 205.300781 404.855469 L 155.515625 400.914062 L 190.722656 436.335938 Z M 157.554688 364.257812 L 152.828125 374.464844 L 253.183594 382.285156 L 255.988281 376.234375 L 270.933594 383.152344 L 252.671875 422.589844 L 237.726562 415.671875 L 241.410156 407.714844 L 217.730469 405.777344 L 199.546875 445.042969 L 216.339844 461.851562 L 219.945312 454.066406 L 234.890625 460.988281 L 216.707031 500.253906 L 201.761719 493.332031 L 204.644531 487.105469 L 133.683594 415.804688 L 129.4375 424.972656 L 114.496094 418.050781 L 142.609375 357.339844 Z M 157.554688 364.257812 "
       id="path102" />
    <path
       style=" stroke:none;fill-rule:nonzero;fill:rgb(100%,100%,100%);fill-opacity:1;"
       d="M 321.683594 304.972656 L 322.582031 291.785156 L 305.824219 274.820312 L 292.621094 275.566406 L 268.082031 299.816406 L 297.140625 329.222656 Z M 281.046875 263.851562 L 281.828125 250.539062 L 268.683594 237.238281 L 255.363281 237.859375 L 230.820312 262.109375 L 256.507812 288.101562 Z M 321.382812 253.414062 L 345.621094 277.945312 L 343.96875 306.105469 L 283.363281 365.992188 L 271.785156 354.277344 L 278.566406 347.578125 L 212.246094 280.464844 L 205.46875 287.164062 L 193.890625 275.449219 L 254.5 215.558594 L 282.675781 214.246094 L 303.296875 235.113281 L 302.171875 254.3125 Z M 321.382812 253.414062 "
       id="path104" />
    <path
       style=" stroke:none;fill-rule:nonzero;fill:rgb(100%,100%,100%);fill-opacity:1;"
       d="M 380.394531 278.09375 L 372.199219 263.808594 L 380.464844 259.066406 L 333.519531 177.21875 L 325.25 181.964844 L 317.054688 167.679688 L 356.242188 145.199219 L 364.4375 159.484375 L 356.171875 164.226562 L 403.117188 246.074219 L 411.386719 241.332031 L 419.582031 255.617188 Z M 380.394531 278.09375 "
       id="path106" />
    <path
       style=" stroke:none;fill-rule:nonzero;fill:rgb(100%,100%,100%);fill-opacity:1;"
       d="M 498.035156 111.769531 L 494.289062 95.734375 L 538.28125 85.460938 L 542.027344 101.496094 L 532.746094 103.664062 L 554.203125 195.546875 L 563.484375 193.378906 L 567.226562 209.417969 L 530.472656 218 L 454.832031 147.226562 L 470.671875 215.050781 L 479.953125 212.886719 L 483.699219 228.921875 L 439.707031 239.195312 L 435.960938 223.160156 L 445.242188 220.992188 L 423.785156 129.109375 L 414.503906 131.277344 L 410.757812 115.238281 L 446.398438 106.914062 L 523.582031 179.265625 L 507.316406 109.605469 Z M 498.035156 111.769531 "
       id="path108" />
    <path
       style=" stroke:none;fill-rule:nonzero;fill:rgb(100%,100%,100%);fill-opacity:1;"
       d="M 672.285156 219.316406 L 611.808594 211.367188 L 593.476562 189.925781 L 605.144531 101.136719 L 628.394531 85.160156 L 688.871094 93.109375 L 707.199219 114.550781 L 704.539062 134.789062 L 678.460938 131.363281 L 680.269531 117.585938 L 671.792969 107.476562 L 641.179688 103.453125 L 630.1875 111.003906 L 620.195312 187.035156 L 628.882812 197 L 659.5 201.023438 L 670.277344 193.617188 L 673.519531 168.953125 L 661.992188 167.4375 L 663.777344 153.832031 L 701.386719 158.773438 L 695.53125 203.339844 Z M 672.285156 219.316406 "
       id="path110" />
    <path
       style=" stroke:none;fill-rule:nonzero;fill:rgb(100%,100%,100%);fill-opacity:1;"
       d="M 788.34375 244.0625 L 801.128906 240.695312 L 835.554688 172.171875 L 830.703125 159.75 L 799.875 144.261719 L 757.515625 228.574219 Z M 851.550781 151.796875 L 861.816406 178.070312 L 821.613281 258.089844 L 794.40625 265.539062 L 718.269531 227.289062 L 725.664062 212.570312 L 734.179688 216.851562 L 776.539062 132.539062 L 768.023438 128.261719 L 775.417969 113.542969 Z M 851.550781 151.796875 "
       id="path112" />
    <path
       style=" stroke:none;fill-rule:nonzero;fill:rgb(100%,100%,100%);fill-opacity:1;"
       d="M 960.605469 258.929688 L 938.898438 236.699219 L 925.589844 235.839844 L 870.726562 289.414062 L 871.390625 302.617188 L 893.097656 324.847656 L 906.28125 325.828125 L 961.148438 272.253906 Z M 940.160156 214.421875 L 983.042969 258.335938 L 984.1875 286.523438 L 920.117188 349.085938 L 891.96875 347.265625 L 849.085938 303.351562 L 847.9375 275.164062 L 912.011719 212.601562 Z M 940.160156 214.421875 "
       id="path114" />
    <path
       style=" stroke:none;fill-rule:nonzero;fill:rgb(100%,100%,100%);fill-opacity:1;"
       d="M 1060.078125 414.152344 L 1075.167969 407.550781 L 1093.273438 448.941406 L 1078.183594 455.539062 L 1074.367188 446.808594 L 987.921875 484.625 L 991.742188 493.359375 L 976.652344 499.957031 L 961.527344 465.382812 L 1017.355469 378.125 L 953.542969 406.039062 L 957.363281 414.773438 L 942.273438 421.375 L 924.167969 379.984375 L 939.253906 373.382812 L 943.074219 382.117188 L 1029.519531 344.296875 L 1025.699219 335.566406 L 1040.789062 328.964844 L 1055.457031 362.496094 L 998.359375 451.558594 L 1063.898438 422.882812 Z M 1060.078125 414.152344 "
       id="path116" />
    <path
       style=" stroke:none;fill-rule:nonzero;fill:rgb(0%,0%,0%);fill-opacity:1;"
       d="M 195.320312 411.296875 L 174.296875 409.757812 L 189.15625 424.617188 Z M 205.246094 404.964844 L 190.675781 436.449219 L 155.457031 401.039062 Z M 129.390625 425.101562 L 133.632812 415.933594 L 204.613281 487.21875 L 201.730469 493.445312 L 216.675781 500.359375 L 234.847656 461.09375 L 219.902344 454.175781 L 216.300781 461.960938 L 199.503906 445.15625 L 217.675781 405.886719 L 241.355469 407.8125 L 237.671875 415.773438 L 252.621094 422.6875 L 270.871094 383.246094 L 255.925781 376.328125 L 253.125 382.382812 L 152.761719 374.589844 L 157.484375 364.382812 L 142.539062 357.46875 L 114.441406 418.1875 Z M 168.332031 359.742188 L 164.96875 367.003906 L 248.441406 373.707031 L 252.445312 365.058594 L 281.714844 378.601562 L 256.097656 433.960938 L 226.828125 420.414062 L 229.070312 415.570312 L 222.113281 415.082031 L 209.386719 442.589844 L 214.261719 447.574219 L 216.421875 442.90625 L 245.691406 456.449219 L 220.15625 511.632812 L 190.886719 498.089844 L 194.890625 489.4375 L 135.832031 429.972656 L 132.867188 436.375 L 103.753906 422.902344 L 139.214844 346.265625 Z M 168.332031 359.742188 "
       id="path118" />
    <path
       style=" stroke:none;fill-rule:nonzero;fill:rgb(0%,0%,0%);fill-opacity:1;"
       d="M 294.90625 284.152344 L 279.460938 299.441406 L 297.566406 317.726562 L 313.007812 302.441406 L 313.527344 295.648438 L 301.820312 283.824219 Z M 292.320312 275.851562 L 305.519531 275.09375 L 322.292969 292.042969 L 321.40625 305.230469 L 296.886719 329.503906 L 267.800781 300.125 Z M 257.730469 246.601562 L 242.289062 261.890625 L 256.894531 276.644531 L 272.335938 261.355469 L 272.734375 254.441406 L 264.648438 246.273438 Z M 255.023438 238.179688 L 268.34375 237.546875 L 281.5 250.835938 L 280.734375 264.148438 L 256.214844 288.421875 L 230.503906 262.453125 Z M 282.316406 214.539062 L 254.136719 215.882812 L 193.585938 275.828125 L 205.175781 287.53125 L 211.949219 280.824219 L 278.328125 347.878906 L 271.554688 354.582031 L 283.144531 366.289062 L 343.695312 306.34375 L 345.320312 278.179688 L 321.058594 253.675781 L 301.847656 254.589844 L 302.953125 235.386719 Z M 354.324219 274.816406 L 352.363281 308.867188 L 282.464844 378.0625 L 259.773438 355.144531 L 266.546875 348.4375 L 211.269531 292.601562 L 204.496094 299.308594 L 181.925781 276.507812 L 251.824219 207.308594 L 285.890625 205.6875 L 311.597656 231.65625 L 310.789062 245.738281 L 324.875 245.066406 Z M 354.324219 274.816406 "
       id="path120" />
    <path
       style=" stroke:none;fill-rule:nonzero;fill:rgb(0%,0%,0%);fill-opacity:1;"
       d="M 402.617188 246.347656 L 355.550781 164.570312 L 363.8125 159.816406 L 355.597656 145.542969 L 316.445312 168.074219 L 324.660156 182.347656 L 332.917969 177.597656 L 379.984375 259.375 L 371.722656 264.128906 L 379.9375 278.402344 L 419.089844 255.867188 L 410.875 241.59375 Z M 376.273438 289.613281 L 360.1875 261.660156 L 368.449219 256.90625 L 329.253906 188.808594 L 320.996094 193.5625 L 304.992188 165.757812 L 359.347656 134.476562 L 375.347656 162.28125 L 367.085938 167.035156 L 406.28125 235.132812 L 414.539062 230.382812 L 430.628906 258.335938 Z M 376.273438 289.613281 "
       id="path122" />
    <path
       style=" stroke:none;fill-rule:nonzero;fill:rgb(0%,0%,0%);fill-opacity:1;"
       d="M 445.441406 107.210938 L 409.816406 115.601562 L 413.59375 131.632812 L 422.871094 129.445312 L 444.507812 221.289062 L 435.230469 223.472656 L 439.003906 239.503906 L 483.164062 229.101562 L 479.386719 213.070312 L 469.925781 215.300781 L 453.953125 147.503906 L 529.734375 218.128906 L 566.46875 209.476562 L 562.691406 193.445312 L 553.414062 195.628906 L 531.78125 103.789062 L 541.058594 101.605469 L 537.28125 85.574219 L 493.308594 95.933594 L 497.085938 111.964844 L 506.363281 109.777344 L 522.765625 179.410156 Z M 469.1875 174.757812 L 476.464844 205.652344 L 486.113281 203.378906 L 493.507812 234.773438 L 432.28125 249.195312 L 424.886719 217.800781 L 434.160156 215.617188 L 416.144531 139.136719 L 406.871094 141.324219 L 399.511719 110.097656 L 449.792969 98.253906 L 507.269531 151.863281 L 499.636719 119.46875 L 490.359375 121.65625 L 483.003906 90.429688 L 544.046875 76.050781 L 551.402344 107.277344 L 542.125 109.460938 L 560.140625 185.941406 L 569.417969 183.753906 L 576.8125 215.148438 L 525.605469 227.210938 Z M 469.1875 174.757812 "
       id="path124" />
    <path
       style=" stroke:none;fill-rule:nonzero;fill:rgb(0%,0%,0%);fill-opacity:1;"
       d="M 663.203125 153.738281 L 661.449219 167.347656 L 673.167969 168.859375 L 669.992188 193.53125 L 659.445312 200.820312 L 627.871094 196.753906 L 619.160156 186.808594 L 628.933594 110.921875 L 639.90625 103.34375 L 671.097656 107.359375 L 679.789062 117.472656 L 678.035156 131.085938 L 703.9375 134.421875 L 706.523438 114.34375 L 688.136719 92.949219 L 627.074219 85.082031 L 603.867188 101.121094 L 592.425781 189.9375 L 610.808594 211.332031 L 670.742188 219.054688 L 695.191406 202.3125 L 700.824219 158.582031 Z M 703.273438 208.195312 L 675.214844 227.585938 L 605.453125 218.601562 L 583.222656 192.730469 L 595.652344 96.257812 L 623.710938 76.867188 L 693.472656 85.855469 L 715.699219 111.722656 L 711.625 143.371094 L 668.332031 137.792969 L 670.632812 119.925781 L 666.121094 114.675781 L 642.867188 111.679688 L 637.167969 115.617188 L 628.316406 184.355469 L 632.828125 189.609375 L 656.082031 192.601562 L 661.777344 188.667969 L 663.488281 175.394531 L 651.578125 173.859375 L 655.300781 144.9375 L 710.503906 152.046875 Z M 703.273438 208.195312 "
       id="path126" />
    <path
       style=" stroke:none;fill-rule:nonzero;fill:rgb(0%,0%,0%);fill-opacity:1;"
       d="M 787.167969 234.617188 L 793.761719 232.921875 L 824.761719 170.742188 L 822.222656 164.300781 L 802.773438 154.605469 L 767.71875 224.925781 Z M 829.324219 159.023438 L 834.214844 171.429688 L 800.003906 240.058594 L 787.230469 243.46875 L 756.351562 228.074219 L 798.445312 143.632812 Z M 775.074219 131.980469 L 732.980469 216.425781 L 724.449219 212.171875 L 717.101562 226.914062 L 793.359375 264.925781 L 820.542969 257.390625 L 860.496094 177.246094 L 850.148438 151.003906 L 773.890625 112.988281 L 766.546875 127.730469 Z M 857.515625 146.050781 L 870.027344 177.777344 L 826.628906 264.832031 L 793.761719 273.941406 L 705.734375 230.0625 L 720.125 201.199219 L 728.65625 205.449219 L 763.707031 135.132812 L 755.175781 130.878906 L 769.492188 102.167969 Z M 857.515625 146.050781 "
       id="path128" />
    <path
       style=" stroke:none;fill-rule:nonzero;fill:rgb(0%,0%,0%);fill-opacity:1;"
       d="M 951.023438 260.390625 L 934.714844 243.8125 L 927.804688 243.390625 L 878.273438 292.117188 L 878.703125 298.914062 L 895.011719 315.492188 L 901.667969 315.898438 L 951.199219 267.171875 Z M 892.0625 323.742188 L 870.269531 301.59375 L 869.558594 288.390625 L 924.222656 234.613281 L 937.535156 235.425781 L 959.324219 257.574219 L 959.914062 270.898438 L 905.25 324.675781 Z M 847.972656 302.410156 L 891.015625 346.164062 L 919.171875 347.878906 L 983.011719 285.078125 L 981.757812 256.894531 L 938.714844 213.140625 L 910.558594 211.425781 L 846.71875 274.226562 Z M 941.144531 204.601562 L 990.203125 254.46875 L 991.714844 288.542969 L 922.375 356.757812 L 888.332031 354.6875 L 839.269531 304.816406 L 837.757812 270.746094 L 907.097656 202.53125 Z M 941.144531 204.601562 "
       id="path130" />
    <path
       style=" stroke:none;fill-rule:nonzero;fill:rgb(0%,0%,0%);fill-opacity:1;"
       d="M 1054.433594 360.535156 L 1039.621094 327.070312 L 1024.5625 333.734375 L 1028.417969 342.453125 L 942.136719 380.640625 L 938.28125 371.925781 L 923.21875 378.589844 L 941.582031 420.074219 L 956.644531 413.410156 L 952.707031 404.519531 L 1016.398438 376.328125 L 960.945312 463.824219 L 976.222656 498.335938 L 991.28125 491.671875 L 987.425781 482.957031 L 1073.707031 444.765625 L 1077.5625 453.484375 L 1092.621094 446.816406 L 1074.339844 405.507812 L 1059.277344 412.171875 L 1063.136719 420.886719 L 997.71875 449.84375 Z M 992.417969 396.324219 L 963.394531 409.167969 L 967.40625 418.234375 L 937.914062 431.285156 L 912.457031 373.765625 L 941.949219 360.714844 L 945.804688 369.429688 L 1017.652344 337.628906 L 1013.796875 328.910156 L 1043.128906 315.929688 L 1064.039062 363.164062 L 1021.9375 429.535156 L 1052.371094 416.066406 L 1048.511719 407.347656 L 1077.847656 394.363281 L 1103.230469 451.710938 L 1073.894531 464.695312 L 1070.039062 455.980469 L 998.191406 487.78125 L 1002.046875 496.496094 L 972.554688 509.550781 L 951.261719 461.441406 Z M 992.417969 396.324219 "
       id="path132" />
    <path
       style=" stroke:none;fill-rule:nonzero;fill:rgb(100%,100%,100%);fill-opacity:1;"
       d="M 205.300781 404.855469 L 155.515625 400.914062 L 190.722656 436.335938 Z M 157.554688 364.257812 L 152.828125 374.464844 L 253.183594 382.285156 L 255.988281 376.234375 L 270.933594 383.152344 L 252.671875 422.589844 L 237.726562 415.671875 L 241.410156 407.714844 L 217.730469 405.777344 L 199.546875 445.042969 L 216.339844 461.851562 L 219.945312 454.066406 L 234.890625 460.988281 L 216.707031 500.253906 L 201.761719 493.332031 L 204.644531 487.105469 L 133.683594 415.804688 L 129.4375 424.972656 L 114.496094 418.050781 L 142.609375 357.339844 Z M 157.554688 364.257812 "
       id="path134" />
    <path
       style=" stroke:none;fill-rule:nonzero;fill:rgb(100%,100%,100%);fill-opacity:1;"
       d="M 321.683594 304.972656 L 322.582031 291.785156 L 305.824219 274.820312 L 292.621094 275.566406 L 268.082031 299.816406 L 297.140625 329.222656 Z M 281.046875 263.851562 L 281.828125 250.539062 L 268.683594 237.238281 L 255.363281 237.859375 L 230.820312 262.109375 L 256.507812 288.101562 Z M 321.382812 253.414062 L 345.621094 277.945312 L 343.96875 306.105469 L 283.363281 365.992188 L 271.785156 354.277344 L 278.566406 347.578125 L 212.246094 280.464844 L 205.46875 287.164062 L 193.890625 275.449219 L 254.5 215.558594 L 282.675781 214.246094 L 303.296875 235.113281 L 302.171875 254.3125 Z M 321.382812 253.414062 "
       id="path136" />
    <path
       style=" stroke:none;fill-rule:nonzero;fill:rgb(100%,100%,100%);fill-opacity:1;"
       d="M 380.394531 278.09375 L 372.199219 263.808594 L 380.464844 259.066406 L 333.519531 177.21875 L 325.25 181.964844 L 317.054688 167.679688 L 356.242188 145.199219 L 364.4375 159.484375 L 356.171875 164.226562 L 403.117188 246.074219 L 411.386719 241.332031 L 419.582031 255.617188 Z M 380.394531 278.09375 "
       id="path138" />
    <path
       style=" stroke:none;fill-rule:nonzero;fill:rgb(100%,100%,100%);fill-opacity:1;"
       d="M 498.035156 111.769531 L 494.289062 95.734375 L 538.28125 85.460938 L 542.027344 101.496094 L 532.746094 103.664062 L 554.203125 195.546875 L 563.484375 193.378906 L 567.226562 209.417969 L 530.472656 218 L 454.832031 147.226562 L 470.671875 215.050781 L 479.953125 212.886719 L 483.699219 228.921875 L 439.707031 239.195312 L 435.960938 223.160156 L 445.242188 220.992188 L 423.785156 129.109375 L 414.503906 131.277344 L 410.757812 115.238281 L 446.398438 106.914062 L 523.582031 179.265625 L 507.316406 109.605469 Z M 498.035156 111.769531 "
       id="path140" />
    <path
       style=" stroke:none;fill-rule:nonzero;fill:rgb(100%,100%,100%);fill-opacity:1;"
       d="M 669.902344 219.316406 L 609.425781 211.367188 L 591.09375 189.925781 L 602.761719 101.136719 L 626.011719 85.160156 L 686.488281 93.109375 L 704.820312 114.550781 L 702.15625 134.789062 L 676.078125 131.363281 L 677.886719 117.585938 L 669.410156 107.476562 L 638.796875 103.453125 L 627.804688 111.003906 L 617.8125 187.035156 L 626.5 197 L 657.117188 201.023438 L 667.894531 193.617188 L 671.136719 168.953125 L 659.609375 167.4375 L 661.394531 153.832031 L 699.003906 158.773438 L 693.148438 203.339844 Z M 669.902344 219.316406 "
       id="path142" />
    <path
       style=" stroke:none;fill-rule:nonzero;fill:rgb(100%,100%,100%);fill-opacity:1;"
       d="M 787.152344 244.0625 L 799.9375 240.695312 L 834.363281 172.171875 L 829.511719 159.75 L 798.683594 144.261719 L 756.324219 228.574219 Z M 850.359375 151.796875 L 860.625 178.070312 L 820.421875 258.089844 L 793.214844 265.539062 L 717.078125 227.289062 L 724.472656 212.570312 L 732.988281 216.851562 L 775.347656 132.539062 L 766.832031 128.261719 L 774.226562 113.542969 Z M 850.359375 151.796875 "
       id="path144" />
    <path
       style=" stroke:none;fill-rule:nonzero;fill:rgb(100%,100%,100%);fill-opacity:1;"
       d="M 959.414062 257.738281 L 937.707031 235.507812 L 924.398438 234.648438 L 869.535156 288.222656 L 870.199219 301.425781 L 891.90625 323.65625 L 905.089844 324.636719 L 959.957031 271.0625 Z M 938.96875 213.230469 L 981.851562 257.144531 L 982.996094 285.332031 L 918.925781 347.894531 L 890.777344 346.074219 L 847.894531 302.160156 L 846.746094 273.972656 L 910.820312 211.410156 Z M 938.96875 213.230469 "
       id="path146" />
    <path
       style=" stroke:none;fill-rule:nonzero;fill:rgb(100%,100%,100%);fill-opacity:1;"
       d="M 1058.886719 412.960938 L 1073.976562 406.359375 L 1092.082031 447.75 L 1076.992188 454.347656 L 1073.175781 445.617188 L 986.730469 483.433594 L 990.550781 492.167969 L 975.460938 498.765625 L 960.335938 464.191406 L 1016.164062 376.933594 L 952.351562 404.847656 L 956.171875 413.582031 L 941.082031 420.183594 L 922.976562 378.792969 L 938.0625 372.191406 L 941.882812 380.925781 L 1028.328125 343.105469 L 1024.507812 334.375 L 1039.597656 327.773438 L 1054.265625 361.304688 L 997.167969 450.367188 L 1062.707031 421.691406 Z M 1058.886719 412.960938 "
       id="path148" />
    <path
       style=" stroke:none;fill-rule:nonzero;fill:rgb(0%,0%,0%);fill-opacity:1;"
       d="M 121.179688 746.632812 L 111.980469 711.523438 L 145.46875 702.75 L 150.296875 721.191406 L 145.429688 722.46875 L 149.140625 736.628906 L 173.035156 730.367188 L 169.328125 716.207031 L 164.3125 717.519531 L 159.480469 699.082031 L 193.113281 690.269531 L 202.3125 725.378906 L 197.296875 726.691406 L 201.007812 740.851562 L 220.183594 735.832031 L 200.050781 658.976562 L 185.886719 662.683594 L 187.820312 670.058594 L 106.6875 691.316406 L 104.757812 683.941406 L 90.59375 687.648438 L 110.726562 764.503906 L 129.757812 759.519531 L 126.046875 745.359375 Z M 126.1875 738.070312 L 131.054688 736.792969 L 138.320312 764.527344 L 105.71875 773.066406 L 82.03125 682.640625 L 109.765625 675.375 L 111.695312 682.75 L 179.257812 665.054688 L 177.324219 657.675781 L 204.910156 650.453125 L 228.597656 740.878906 L 196.144531 749.378906 L 188.882812 721.644531 L 193.75 720.371094 L 188.105469 698.832031 L 168.046875 704.089844 L 169.359375 709.105469 L 174.226562 707.828125 L 181.453125 735.414062 L 144.132812 745.191406 L 136.90625 717.605469 L 141.773438 716.332031 L 140.460938 711.316406 L 120.546875 716.53125 Z M 126.1875 738.070312 "
       id="path150" />
    <path
       style=" stroke:none;fill-rule:nonzero;fill:rgb(0%,0%,0%);fill-opacity:1;"
       d="M 245.988281 789.964844 L 228.222656 758.492188 L 215.472656 765.691406 L 219.222656 772.332031 L 146.1875 813.566406 L 142.441406 806.925781 L 129.691406 814.125 L 169.054688 883.839844 L 188.441406 872.890625 L 181.242188 860.144531 L 174.605469 863.890625 L 156.460938 831.757812 L 229.492188 790.523438 L 233.242188 797.160156 Z M 166.015625 834.417969 L 177.261719 854.335938 L 183.902344 850.585938 L 198 875.550781 L 166.394531 893.394531 L 120.136719 811.464844 L 145.097656 797.371094 L 148.847656 804.007812 L 209.664062 769.671875 L 205.917969 763.03125 L 230.746094 749.011719 L 255.414062 792.699219 L 230.582031 806.71875 L 226.835938 800.078125 Z M 166.015625 834.417969 "
       id="path152" />
    <path
       style=" stroke:none;fill-rule:nonzero;fill:rgb(0%,0%,0%);fill-opacity:1;"
       d="M 254.261719 961.429688 L 229.007812 935.363281 L 253.867188 911.277344 L 267.132812 924.96875 L 263.515625 928.46875 L 273.703125 938.984375 L 291.445312 921.792969 L 281.257812 911.28125 L 277.535156 914.886719 L 264.273438 901.195312 L 289.242188 877.003906 L 314.496094 903.070312 L 310.773438 906.679688 L 320.960938 917.191406 L 335.199219 903.398438 L 279.914062 846.339844 L 269.402344 856.523438 L 274.707031 862 L 214.46875 920.359375 L 209.164062 914.882812 L 198.652344 925.070312 L 253.933594 982.132812 L 268.0625 968.441406 L 257.875 957.929688 Z M 254.417969 951.511719 L 258.03125 948.007812 L 277.980469 968.597656 L 253.777344 992.050781 L 188.730469 924.914062 L 209.324219 904.964844 L 214.628906 910.441406 L 264.789062 861.84375 L 259.480469 856.367188 L 279.964844 836.523438 L 345.007812 903.660156 L 320.914062 927.007812 L 300.964844 906.414062 L 304.578125 902.914062 L 289.085938 886.921875 L 274.191406 901.355469 L 277.800781 905.078125 L 281.414062 901.578125 L 301.253906 922.054688 L 273.546875 948.902344 L 253.703125 928.421875 L 257.320312 924.921875 L 253.710938 921.195312 L 238.925781 935.519531 Z M 254.417969 951.511719 "
       id="path154" />
    <path
       style=" stroke:none;fill-rule:nonzero;fill:rgb(0%,0%,0%);fill-opacity:1;"
       d="M 376.070312 934.976562 L 351.003906 921.707031 L 344.15625 934.644531 L 350.894531 938.210938 L 311.65625 1012.339844 L 304.917969 1008.773438 L 298.070312 1021.710938 L 330.011719 1038.617188 L 336.859375 1025.679688 L 330.121094 1022.109375 L 359.941406 965.777344 L 363.632812 1033.121094 L 421.265625 998.234375 L 391.445312 1054.570312 L 384.707031 1051.003906 L 377.855469 1063.941406 L 409.933594 1080.921875 L 416.78125 1067.984375 L 410.042969 1064.417969 L 449.28125 990.289062 L 456.019531 993.855469 L 462.867188 980.917969 L 437.800781 967.648438 L 379.683594 1002.796875 Z M 355.011719 990.082031 L 339.601562 1019.195312 L 346.339844 1022.761719 L 332.929688 1048.097656 L 288.589844 1024.628906 L 302 999.289062 L 308.738281 1002.855469 L 341.414062 941.132812 L 334.675781 937.5625 L 348.015625 912.359375 L 384.136719 931.480469 L 387.175781 988.644531 L 436.15625 959.015625 L 472.277344 978.136719 L 458.9375 1003.339844 L 452.199219 999.773438 L 419.523438 1061.5 L 426.261719 1065.066406 L 412.851562 1090.402344 L 368.511719 1066.933594 L 381.921875 1041.59375 L 388.660156 1045.160156 L 404.070312 1016.050781 L 357.996094 1043.769531 Z M 355.011719 990.082031 "
       id="path156" />
    <path
       style=" stroke:none;fill-rule:nonzero;fill:rgb(0%,0%,0%);fill-opacity:1;"
       d="M 533.199219 1094.425781 L 497.425781 1088.296875 L 503.273438 1054.175781 L 522.0625 1057.394531 L 521.210938 1062.355469 L 535.640625 1064.828125 L 539.8125 1040.480469 L 525.382812 1038.007812 L 524.507812 1043.117188 L 505.71875 1039.898438 L 511.589844 1005.628906 L 547.363281 1011.757812 L 546.488281 1016.867188 L 560.914062 1019.339844 L 564.265625 999.800781 L 485.957031 986.382812 L 483.484375 1000.8125 L 491 1002.101562 L 476.835938 1084.765625 L 469.320312 1083.480469 L 466.847656 1097.90625 L 545.15625 1111.324219 L 548.476562 1091.9375 L 534.050781 1089.464844 Z M 527.46875 1086.324219 L 528.320312 1081.367188 L 556.574219 1086.207031 L 550.886719 1119.425781 L 458.75 1103.636719 L 463.59375 1075.378906 L 471.105469 1076.667969 L 482.902344 1007.832031 L 475.386719 1006.542969 L 480.203125 978.4375 L 572.335938 994.222656 L 566.671875 1027.289062 L 538.414062 1022.449219 L 539.265625 1017.488281 L 517.320312 1013.726562 L 513.816406 1034.167969 L 518.929688 1035.042969 L 519.777344 1030.085938 L 547.886719 1034.898438 L 541.367188 1072.925781 L 513.261719 1068.109375 L 514.113281 1063.148438 L 509.003906 1062.273438 L 505.527344 1082.566406 Z M 527.46875 1086.324219 "
       id="path158" />
    <path
       style=" stroke:none;fill-rule:nonzero;fill:rgb(0%,0%,0%);fill-opacity:1;"
       d="M 617.039062 1000.101562 L 587.960938 1003.515625 L 589.667969 1018.054688 L 597.242188 1017.164062 L 607.023438 1100.464844 L 599.449219 1101.351562 L 601.15625 1115.894531 L 637.203125 1111.660156 L 635.496094 1097.121094 L 627.769531 1098.027344 L 620.550781 1036.539062 L 675.214844 1107.195312 L 705.203125 1103.675781 L 703.496094 1089.136719 L 695.921875 1090.023438 L 686.140625 1006.726562 L 693.714844 1005.839844 L 692.007812 991.300781 L 656.113281 995.515625 L 657.820312 1010.054688 L 665.394531 1009.164062 L 672.808594 1072.320312 Z M 630.476562 1062.242188 L 633.769531 1090.261719 L 641.644531 1089.335938 L 644.988281 1117.808594 L 595.007812 1123.675781 L 591.664062 1095.203125 L 599.238281 1094.316406 L 591.09375 1024.949219 L 583.519531 1025.839844 L 580.195312 997.519531 L 621.238281 992.699219 L 662.695312 1046.328125 L 659.246094 1016.949219 L 651.671875 1017.835938 L 648.347656 989.515625 L 698.175781 983.664062 L 701.5 1011.984375 L 693.929688 1012.875 L 702.070312 1082.242188 L 709.644531 1081.351562 L 712.988281 1109.824219 L 671.1875 1114.734375 Z M 630.476562 1062.242188 "
       id="path160" />
    <path
       style=" stroke:none;fill-rule:nonzero;fill:rgb(0%,0%,0%);fill-opacity:1;"
       d="M 800.074219 947.179688 L 714.917969 985.367188 L 724.027344 1005.683594 L 737.386719 999.691406 L 734.265625 992.734375 L 753.886719 983.9375 L 788.203125 1060.464844 L 781.246094 1063.585938 L 787.238281 1076.941406 L 820.351562 1062.089844 L 814.363281 1048.734375 L 807.40625 1051.851562 L 773.085938 975.328125 L 792.84375 966.464844 L 795.964844 973.421875 L 809.183594 967.492188 Z M 792.433594 982.691406 L 789.316406 975.734375 L 782.359375 978.855469 L 810.9375 1042.582031 L 817.894531 1039.464844 L 829.625 1065.621094 L 783.847656 1086.148438 L 772.113281 1059.992188 L 779.070312 1056.871094 L 750.492188 993.144531 L 743.535156 996.265625 L 746.65625 1003.222656 L 720.5 1014.953125 L 705.710938 981.976562 L 803.664062 938.046875 L 818.453125 971.023438 Z M 792.433594 982.691406 "
       id="path162" />
    <path
       style=" stroke:none;fill-rule:nonzero;fill:rgb(0%,0%,0%);fill-opacity:1;"
       d="M 887.207031 960.164062 L 871.621094 950.164062 L 878.027344 967.488281 Z M 896.925781 959.628906 L 875.226562 976.9375 L 860.117188 935.738281 Z M 832.097656 942.679688 L 838.417969 937.640625 L 868.902344 1020.605469 L 864.613281 1024.027344 L 873.742188 1035.472656 L 900.804688 1013.886719 L 891.671875 1002.441406 L 886.308594 1006.722656 L 879.070312 987.136719 L 906.132812 965.550781 L 923.621094 976.957031 L 918.136719 981.332031 L 927.265625 992.777344 L 954.445312 971.09375 L 945.316406 959.648438 L 941.144531 962.976562 L 866.910156 914.910156 L 873.941406 909.300781 L 864.8125 897.855469 L 822.96875 931.234375 Z M 883.800781 910.410156 L 878.792969 914.402344 L 940.464844 954.546875 L 946.425781 949.792969 L 964.304688 972.203125 L 926.15625 1002.632812 L 908.28125 980.222656 L 911.617188 977.558594 L 906.457031 974.265625 L 887.5 989.386719 L 889.5625 995.152344 L 892.78125 992.585938 L 910.660156 1014.996094 L 872.632812 1045.332031 L 854.753906 1022.921875 L 860.714844 1018.164062 L 835.402344 949.019531 L 830.992188 952.539062 L 813.207031 930.246094 L 866.015625 888.117188 Z M 883.800781 910.410156 "
       id="path164" />
    <path
       style=" stroke:none;fill-rule:nonzero;fill:rgb(0%,0%,0%);fill-opacity:1;"
       d="M 961.832031 845.976562 L 960.75 840.257812 L 952.308594 834.496094 L 946.589844 835.578125 L 936.789062 849.9375 L 952.03125 860.335938 Z M 927.042969 851.777344 L 942.597656 828.980469 L 953.617188 826.898438 L 967.347656 836.265625 L 969.429688 847.285156 L 953.871094 870.085938 Z M 996.320312 899.050781 L 965.964844 878.335938 L 981.523438 855.535156 L 992.414062 853.371094 L 1028.441406 877.949219 L 1044.511719 854.394531 L 1032.421875 846.144531 L 1028.125 852.441406 L 1001.042969 833.964844 L 985.148438 836.964844 L 982.144531 821.074219 L 960.605469 806.375 L 937.296875 810.777344 L 898.878906 867.082031 L 910.96875 875.332031 L 915.269531 869.035156 L 984.546875 916.308594 L 980.25 922.605469 L 992.34375 930.855469 L 1012.710938 901.003906 L 1000.621094 892.75 Z M 998.777344 883.003906 L 1022.460938 899.160156 L 994.183594 940.605469 L 970.503906 924.445312 L 974.800781 918.148438 L 917.109375 878.785156 L 912.8125 885.082031 L 889.257812 869.007812 L 933.605469 804.011719 L 961.789062 798.691406 L 988.617188 816.996094 L 990.820312 828.652344 L 1002.476562 826.449219 L 1026.28125 842.695312 L 1030.582031 836.398438 L 1054.261719 852.554688 L 1030.28125 887.699219 L 991.105469 860.96875 L 985.386719 862.050781 L 975.585938 876.410156 L 994.480469 889.300781 Z M 998.777344 883.003906 "
       id="path166" />
    <path
       style=" stroke:none;fill-rule:nonzero;fill:rgb(0%,0%,0%);fill-opacity:1;"
       d="M 1041.921875 715.792969 L 1010.5 660.226562 L 1012.171875 654.203125 L 998.066406 650.289062 L 986.117188 693.34375 L 1000.222656 697.253906 L 1003.199219 686.53125 L 1022.988281 721.296875 L 988.074219 741.042969 L 991.046875 730.316406 L 976.945312 726.402344 L 964.546875 771.074219 L 978.652344 774.988281 L 980.773438 767.347656 L 1036.335938 735.921875 L 1073.660156 746.277344 L 1071.621094 753.625 L 1086.902344 757.867188 L 1096.566406 723.042969 L 1081.285156 718.800781 L 1079.246094 726.148438 Z M 1074.363281 717.511719 L 1076.402344 710.167969 L 1104.027344 717.832031 L 1090.609375 766.175781 L 1062.984375 758.507812 L 1065.023438 751.164062 L 1037.402344 743.496094 L 986.714844 772.160156 L 983.535156 783.621094 L 956.058594 775.996094 L 972.207031 717.808594 L 999.683594 725.433594 L 999.359375 726.609375 L 1013.289062 718.605469 L 1005.433594 704.714844 L 1005.109375 705.890625 L 977.628906 698.265625 L 993.289062 641.839844 L 1020.765625 649.464844 L 1018.074219 659.164062 L 1046.738281 709.847656 Z M 1074.363281 717.511719 "
       id="path168" />
    <path
       style=" stroke:none;fill-rule:nonzero;fill:rgb(100%,100%,100%);fill-opacity:1;"
       d="M 109.089844 763.726562 L 89.988281 686.617188 L 104.269531 683.082031 L 106.101562 690.480469 L 187.921875 670.210938 L 186.085938 662.8125 L 200.367188 659.273438 L 219.46875 736.382812 L 200.132812 741.175781 L 196.613281 726.964844 L 201.667969 725.710938 L 192.945312 690.488281 L 159.027344 698.890625 L 163.609375 717.390625 L 168.667969 716.136719 L 172.1875 730.347656 L 148.085938 736.316406 L 144.566406 722.109375 L 149.476562 720.890625 L 144.894531 702.394531 L 111.125 710.757812 L 119.851562 745.980469 L 124.761719 744.765625 L 128.28125 758.972656 Z M 109.089844 763.726562 "
       id="path170" />
    <path
       style=" stroke:none;fill-rule:nonzero;fill:rgb(100%,100%,100%);fill-opacity:1;"
       d="M 156.515625 830.683594 L 174.246094 863.042969 L 180.96875 859.359375 L 188 872.195312 L 168.378906 882.949219 L 129.914062 812.746094 L 142.816406 805.675781 L 146.480469 812.363281 L 220.402344 771.859375 L 216.738281 765.171875 L 229.640625 758.101562 L 247.003906 789.792969 L 234.101562 796.863281 L 230.441406 790.179688 Z M 156.515625 830.683594 "
       id="path172" />
    <path
       style=" stroke:none;fill-rule:nonzero;fill:rgb(100%,100%,100%);fill-opacity:1;"
       d="M 252.375 981.40625 L 197.746094 923.730469 L 208.425781 913.613281 L 213.671875 919.148438 L 274.871094 861.183594 L 269.628906 855.648438 L 280.308594 845.53125 L 334.9375 903.210938 L 320.472656 916.910156 L 310.40625 906.28125 L 314.1875 902.699219 L 289.234375 876.351562 L 263.863281 900.378906 L 276.96875 914.21875 L 280.753906 910.636719 L 290.820312 921.261719 L 272.792969 938.335938 L 262.726562 927.707031 L 266.398438 924.230469 L 253.292969 910.390625 L 228.035156 934.316406 L 252.988281 960.660156 L 256.660156 957.183594 L 266.726562 967.8125 Z M 252.375 981.40625 "
       id="path174" />
    <path
       style=" stroke:none;fill-rule:nonzero;fill:rgb(100%,100%,100%);fill-opacity:1;"
       d="M 462.007812 981.980469 L 455.015625 994.921875 L 448.308594 991.300781 L 408.242188 1065.460938 L 414.949219 1069.085938 L 407.957031 1082.03125 L 376.03125 1064.78125 L 383.023438 1051.835938 L 389.730469 1055.460938 L 420.179688 999.097656 L 362.121094 1033.75 L 359.140625 966.121094 L 328.691406 1022.484375 L 335.398438 1026.109375 L 328.40625 1039.054688 L 296.613281 1021.875 L 303.605469 1008.933594 L 310.3125 1012.554688 L 350.378906 938.394531 L 343.667969 934.769531 L 350.664062 921.828125 L 375.617188 935.304688 L 378.507812 1003.410156 L 437.058594 968.5 Z M 462.007812 981.980469 "
       id="path176" />
    <path
       style=" stroke:none;fill-rule:nonzero;fill:rgb(100%,100%,100%);fill-opacity:1;"
       d="M 543.808594 1112.203125 L 465.570312 1098.449219 L 468.117188 1083.957031 L 475.625 1085.277344 L 490.21875 1002.257812 L 482.710938 1000.941406 L 485.257812 986.449219 L 563.496094 1000.203125 L 560.046875 1019.824219 L 545.628906 1017.289062 L 546.535156 1012.15625 L 510.792969 1005.875 L 504.742188 1040.292969 L 523.515625 1043.589844 L 524.414062 1038.460938 L 538.832031 1040.992188 L 534.535156 1065.445312 L 520.117188 1062.910156 L 520.992188 1057.929688 L 502.222656 1054.628906 L 496.199219 1088.894531 L 531.941406 1095.175781 L 532.816406 1090.195312 L 547.230469 1092.730469 Z M 543.808594 1112.203125 "
       id="path178" />
    <path
       style=" stroke:none;fill-rule:nonzero;fill:rgb(100%,100%,100%);fill-opacity:1;"
       d="M 658.402344 1010.632812 L 656.6875 996.019531 L 692.578125 991.808594 L 694.289062 1006.421875 L 686.71875 1007.3125 L 696.539062 1091.03125 L 704.113281 1090.140625 L 705.828125 1104.753906 L 675.84375 1108.269531 L 621.144531 1037.222656 L 628.394531 1099.023438 L 635.964844 1098.136719 L 637.679688 1112.75 L 601.789062 1116.957031 L 600.074219 1102.34375 L 607.648438 1101.457031 L 597.824219 1017.738281 L 590.253906 1018.628906 L 588.539062 1004.015625 L 617.613281 1000.605469 L 673.417969 1073.21875 L 665.972656 1009.746094 Z M 658.402344 1010.632812 "
       id="path180" />
    <path
       style=" stroke:none;fill-rule:nonzero;fill:rgb(100%,100%,100%);fill-opacity:1;"
       d="M 793.539062 966.625 L 773.820312 975.566406 L 808.628906 1052.335938 L 815.570312 1049.1875 L 821.644531 1062.585938 L 788.59375 1077.574219 L 782.519531 1064.171875 L 789.464844 1061.023438 L 754.65625 984.253906 L 735.074219 993.132812 L 738.238281 1000.113281 L 724.90625 1006.15625 L 715.667969 985.777344 L 800.65625 947.246094 L 809.898438 967.621094 L 796.703125 973.605469 Z M 793.539062 966.625 "
       id="path182" />
    <path
       style=" stroke:none;fill-rule:nonzero;fill:rgb(100%,100%,100%);fill-opacity:1;"
       d="M 896.75 960.425781 L 859.648438 936.621094 L 875.171875 977.878906 Z M 873.253906 910.042969 L 866.261719 915.703125 L 941.085938 963.59375 L 945.234375 960.238281 L 954.488281 971.675781 L 927.457031 993.539062 L 918.207031 982.101562 L 923.660156 977.691406 L 906.03125 966.324219 L 879.121094 988.089844 L 886.550781 1007.703125 L 891.886719 1003.390625 L 901.140625 1014.828125 L 874.230469 1036.59375 L 864.976562 1025.15625 L 869.242188 1021.703125 L 837.925781 938.621094 L 831.644531 943.703125 L 822.390625 932.265625 L 864 898.605469 Z M 873.253906 910.042969 "
       id="path184" />
    <path
       style=" stroke:none;fill-rule:nonzero;fill:rgb(100%,100%,100%);fill-opacity:1;"
       d="M 966.308594 836.140625 L 952.429688 826.847656 L 941.394531 829.003906 L 926.042969 851.9375 L 953.167969 870.097656 L 968.523438 847.164062 Z M 992.453125 930.707031 L 980.226562 922.523438 L 984.46875 916.1875 L 914.421875 869.296875 L 910.179688 875.632812 L 897.957031 867.445312 L 935.871094 810.808594 L 959.207031 806.25 L 980.988281 820.828125 L 984.175781 836.722656 L 1000.089844 833.613281 L 1027.472656 851.945312 L 1031.714844 845.609375 L 1043.941406 853.796875 L 1028.078125 877.488281 L 991.65625 853.105469 L 980.75 855.347656 L 965.398438 878.28125 L 996.089844 898.828125 L 1000.332031 892.492188 L 1012.554688 900.675781 Z M 992.453125 930.707031 "
       id="path186" />
    <path
       style=" stroke:none;fill-rule:nonzero;fill:rgb(100%,100%,100%);fill-opacity:1;"
       d="M 1096.125 722.691406 L 1086.804688 757.605469 L 1071.40625 753.496094 L 1073.371094 746.128906 L 1035.761719 736.089844 L 980.289062 767.996094 L 978.246094 775.65625 L 964.03125 771.863281 L 975.90625 727.371094 L 990.121094 731.167969 L 987.253906 741.921875 L 1022.484375 721.65625 L 1002 686.675781 L 999.128906 697.433594 L 984.914062 693.636719 L 996.355469 650.765625 L 1010.574219 654.5625 L 1008.960938 660.601562 L 1041.148438 715.90625 L 1078.761719 725.949219 L 1080.726562 718.582031 Z M 1096.125 722.691406 "
       id="path188" />
  </g>
</svg>
