<?xml version="1.0" encoding="UTF-8" standalone="no"?>
<svg xmlns:dc="http://purl.org/dc/elements/1.1/" xmlns:cc="http://creativecommons.org/ns#" xmlns:rdf="http://www.w3.org/1999/02/22-rdf-syntax-ns#" xmlns:svg="http://www.w3.org/2000/svg" xmlns="http://www.w3.org/2000/svg" xmlns:xlink="http://www.w3.org/1999/xlink" viewBox="0 0 285.09864 395.55136" height="395.55136" width="285.09863" version="1.1" id="svg2">
  <metadata id="metadata8">
    <rdf:RDF>
      <cc:Work rdf:about="">
        <dc:format>image/svg+xml</dc:format>
        <dc:type rdf:resource="http://purl.org/dc/dcmitype/StillImage"/>
        <dc:title/>
      </cc:Work>
    </rdf:RDF>
  </metadata>
  <defs id="defs6">
    <linearGradient id="linearGradient4174">
      <stop style="stop-color:#ff8a1e;stop-opacity:1;" offset="0" id="stop4176"/>
      <stop style="stop-color:#ffffff;stop-opacity:1" offset="1" id="stop4178"/>
    </linearGradient>
    <linearGradient id="linearGradient4173">
      <stop id="stop4175" offset="0" style="stop-color:#67c50c;stop-opacity:1"/>
      <stop id="stop4177" offset="1" style="stop-color:#8cf672;stop-opacity:1"/>
    </linearGradient>
    <linearGradient id="linearGradient4206">
      <stop id="stop4208" offset="0" style="stop-color:#ff8a1e;stop-opacity:1;"/>
      <stop id="stop4210" offset="1" style="stop-color:#ff8a1e;stop-opacity:0;"/>
    </linearGradient>
    <linearGradient gradientTransform="matrix(1.0857493,0.57060278,-0.57266673,1.1030992,37.037912,-100.49711)" y2="561.32996" x2="541.41986" y1="232.34567" x1="157.00858" gradientUnits="userSpaceOnUse" id="linearGradient4222" xlink:href="#linearGradient4174"/>
    <linearGradient gradientTransform="matrix(1.0857493,0.57060278,-0.57266673,1.1030992,37.037912,-100.49711)" y2="561.32996" x2="541.41986" y1="232.34567" x1="157.00858" gradientUnits="userSpaceOnUse" id="linearGradient4224" xlink:href="#linearGradient4206"/>
    <linearGradient gradientTransform="matrix(1.0857493,0.57060278,-0.57266673,1.1030992,37.037912,-100.49711)" y2="561.32996" x2="541.41986" y1="232.34567" x1="157.00858" gradientUnits="userSpaceOnUse" id="linearGradient4226" xlink:href="#linearGradient4206"/>
    <linearGradient gradientTransform="matrix(1.0857493,0.57060278,-0.57266673,1.1030992,37.037912,-100.49711)" y2="561.32996" x2="541.41986" y1="232.34567" x1="157.00858" gradientUnits="userSpaceOnUse" id="linearGradient4228" xlink:href="#linearGradient4206"/>
    <linearGradient gradientTransform="translate(-37.03997,-46.376728)" gradientUnits="userSpaceOnUse" y2="225.45662" x2="159.3638" y1="31.014381" x1="304.77597" id="linearGradient4179" xlink:href="#linearGradient4173"/>
  </defs>
  <g id="g4186">
    <g id="g4157">
      <path id="path4238" d="m 131.73636,171.87415 c 11.51066,-36.73016 38.19775,-73.085998 23.63294,-103.487088 -8.70585,-3.98843 -28.34818,-26.751408 -13.73493,-49.491054 1.46055,-2.328937 4.59368,-6.28577 5.91709,-13.3560042 2.58176,5.7840092 6.38977,11.4915562 9.75322,13.9664092 19.48156,17.095304 12.72897,32.91605 3.23891,48.603799 16.85602,23.25482 -10.41864,66.889108 -24.07666,104.235238 24.81778,-37.09386 56.80872,-79.994788 51.751,-99.705108 -7.72081,-1.14183 -20.02984,-31.980416 -7.44091,-48.840003 1.55159,-2.04983 3.07603,-2.829046 4.71613,-9.021726 0.66993,2.515301 1.59807,5.122242 4.8298,8.546682 23.50365,18.267086 15.59004,38.323527 3.57335,49.917837 -6.18851,39.146358 -33.33154,69.199828 -54.67052,101.771878 32.08394,-35.89811 61.71142,-79.971868 102.85076,-85.731348 2.11395,-20.20435 5.34018,-39.168795 25.68926,-39.046002 7.33436,0.181473 10.07985,-3.556625 12.48718,-7.583579 -1.08609,4.95151 -0.42419,8.898857 0.78524,14.638181 1.81906,20.51505 -4.29364,35.17169 -29.95008,35.39328 -34.36215,-5.15054 -71.87638,41.986658 -110.63108,84.758778 z" style="fill:url(#linearGradient4179);fill-opacity:1;fill-rule:evenodd;stroke:#000000;stroke-width:1.52352774px;stroke-linecap:butt;stroke-linejoin:miter;stroke-opacity:1"/>
      <path id="path4240" d="M 156.45243,60.002912 C 146.41009,46.664295 147.22027,39.21967 149.37724,27.925486" style="fill:none;fill-rule:evenodd;stroke:#000000;stroke-width:1.52352774px;stroke-linecap:round;stroke-linejoin:miter;stroke-opacity:1"/>
      <path id="path4242" d="m 191.08127,62.530772 c 2.15516,-13.346336 1.23554,-16.929268 -4.31432,-27.89234" style="fill:none;fill-rule:evenodd;stroke:#000000;stroke-width:1.52352774px;stroke-linecap:round;stroke-linejoin:miter;stroke-opacity:1"/>
      <path id="path4244" d="m 249.26543,85.516582 c 10.68596,-1.42765 20.98584,-9.11025 23.51034,-24.91868" style="fill:none;fill-rule:evenodd;stroke:#000000;stroke-width:1.52352774px;stroke-linecap:round;stroke-linejoin:miter;stroke-opacity:1"/>
    </g>
    <g id="g4180">
      <path id="path4141" d="M 6.3008739,372.34513 C 2.7303438,392.33686 26.5002,393.26253 33.12522,383.43314 81.365396,325.12834 121.72744,262.15906 156.48818,200.00572 173.16738,165.02477 117.86685,146.03056 101.25386,169.47337 56.297642,246.85128 29.755563,307.43494 6.3008739,372.34513 Z" style="fill:url(#linearGradient4222);fill-opacity:1;fill-rule:evenodd;stroke:#000000;stroke-width:5.9265027;stroke-linecap:round;stroke-linejoin:round;stroke-miterlimit:4;stroke-dasharray:none;stroke-opacity:1"/>
      <path id="path4143" d="m 52.159811,264.04075 c 10.204806,8.61918 14.534136,12.08936 21.185991,13.39096" style="fill:url(#linearGradient4224);fill-opacity:1;fill-rule:evenodd;stroke:#000000;stroke-width:3.45712638;stroke-linecap:round;stroke-linejoin:miter;stroke-miterlimit:4;stroke-dasharray:none;stroke-opacity:1"/>
      <path id="path4143-3" d="m 44.67204,312.5666 c 10.204806,8.61918 14.534137,12.08936 21.185991,13.39096" style="fill:url(#linearGradient4226);fill-opacity:1;fill-rule:evenodd;stroke:#000000;stroke-width:3.45712638;stroke-linecap:round;stroke-linejoin:miter;stroke-miterlimit:4;stroke-dasharray:none;stroke-opacity:1"/>
      <path id="path4143-5" d="m 95.614194,241.53952 c 10.204806,8.61918 14.534136,12.08936 21.185996,13.39096" style="fill:url(#linearGradient4228);fill-opacity:1;fill-rule:evenodd;stroke:#000000;stroke-width:3.45712638;stroke-linecap:round;stroke-linejoin:miter;stroke-miterlimit:4;stroke-dasharray:none;stroke-opacity:1"/>
    </g>
  </g>
</svg>