<?xml version="1.0" encoding="iso-8859-1"?>
<!-- Uploaded to: SVG Repo, www.svgrepo.com, Generator: SVG Repo Mixer Tools -->
<svg height="800px" width="800px" version="1.1" id="Layer_1" xmlns="http://www.w3.org/2000/svg" xmlns:xlink="http://www.w3.org/1999/xlink" 
	 viewBox="0 0 511.997 511.997" xml:space="preserve">
<path style="fill:#7EAF31;" d="M467.291,149.351c-20.323-11.11-47.309-9.467-74.47-1.248c19.891-19.737,33.962-42.379,33.962-65.286
	c0-35.358-24.345-64.022-54.377-64.022c-24.026,0-43.502,22.931-43.502,51.217c0-28.287-19.476-51.217-43.502-51.217
	c-30.031,0-54.377,28.664-54.377,64.022c0,22.908,14.073,45.549,33.962,65.286c-27.162-8.218-54.147-9.862-74.47,1.248
	c-31.025,16.962-44.496,52.073-30.09,78.424c11.525,21.081,40.989,27.169,65.808,13.6c-24.819,13.57-35.597,41.66-24.072,62.739
	c14.407,26.351,51.236,33.961,82.26,16.999c23.492-12.843,37.444-42.379,44.48-75.024c7.036,32.646,20.988,62.18,44.48,75.024
	c31.025,16.962,67.854,9.35,82.261-16.999c11.525-21.081,0.748-49.169-24.072-62.739c24.819,13.57,54.283,7.481,65.808-13.6
	C511.788,201.426,498.316,166.313,467.291,149.351z"/>
<path style="fill:#8CC63F;" d="M322.488,219.548c-20.323-11.11-47.309-9.467-74.47-1.248c19.891-19.737,33.962-42.379,33.962-65.286
	c0-35.358-24.345-64.022-54.377-64.022c-24.026,0-43.502,22.931-43.502,51.217c0-28.287-19.476-51.217-43.502-51.217
	c-30.031,0-54.377,28.664-54.377,64.022c0,22.908,14.073,45.549,33.962,65.286c-27.162-8.218-54.147-9.862-74.47,1.248
	c-31.025,16.962-44.496,52.073-30.09,78.424c11.525,21.081,40.989,27.169,65.808,13.6c-24.819,13.57-35.597,41.658-24.072,62.739
	c14.407,26.351,51.236,33.961,82.26,16.999c23.492-12.843,37.444-42.379,44.48-75.024c7.036,32.646,20.988,62.18,44.48,75.024
	c31.025,16.962,67.854,9.35,82.261-16.999c11.525-21.081,0.748-49.169-24.072-62.739c24.819,13.57,54.283,7.481,65.808-13.6
	C366.984,271.621,353.512,236.509,322.488,219.548z"/>
<path d="M326.451,210.131c-14.516-7.936-32.853-10.612-53.935-8.004c12.025-16.984,18.274-34.079,18.274-50.357
	c0-40.439-28.572-73.338-63.692-73.338c-18.023,0-33.967,10.4-43.502,26.238c-9.535-15.838-25.479-26.238-43.5-26.238
	c-35.12,0-63.693,32.899-63.693,73.338c0,16.278,6.249,33.372,18.275,50.357c-21.087-2.608-39.421,0.07-53.935,8.004
	c-16.942,9.262-29.836,23.656-36.31,40.528c-6.68,17.408-5.786,35.356,2.514,50.539c8.646,15.813,25.419,24.814,43.89,25.583
	c-9.322,15.965-10.799,34.942-2.154,50.755c8.302,15.183,22.929,25.623,41.188,29.396c17.697,3.658,36.773,0.571,53.715-8.692
	c19.531-10.677,32.026-30.371,40.011-50.611c7.985,20.24,20.481,39.934,40.013,50.611c12.41,6.784,25.925,10.193,39.024,10.191
	c12.123,0,23.888-2.92,34.075-8.782c4.46-2.565,5.994-8.261,3.429-12.72c-2.565-4.46-8.26-5.994-12.72-3.428
	c-15.604,8.979-36.629,8.363-54.87-1.608c-23.433-12.811-34.601-44.492-39.842-68.813c-0.925-4.29-4.719-7.353-9.107-7.353
	s-8.182,3.063-9.107,7.353c-5.242,24.321-16.409,56.001-39.841,68.813c-13.068,7.144-27.631,9.558-41.009,6.793
	c-12.815-2.648-22.975-9.783-28.609-20.088c-9.042-16.54,0.094-39.013,20.366-50.097c3.095-1.692,4.848-4.884,4.848-8.179
	c0.001-1.512-0.368-3.044-1.143-4.464c-2.469-4.514-8.131-6.173-12.643-3.704c-20.272,11.084-44.123,6.645-53.166-9.894
	c-5.634-10.306-6.156-22.71-1.469-34.927c4.893-12.752,14.785-23.71,27.854-30.855c20.312-11.103,47.81-6.404,67.305-0.506
	c4.09,1.237,8.508-0.47,10.698-4.146c2.192-3.674,1.597-8.369-1.44-11.384c-14.237-14.127-31.209-35.775-31.209-58.674
	c0-30.165,20.214-54.706,45.062-54.706c18.85,0,34.185,18.798,34.185,41.902c0,5.145,4.17,9.316,9.316,9.316
	s9.316-4.171,9.316-9.316c0-23.105,15.336-41.902,34.186-41.902c24.847,0,45.06,24.541,45.06,54.706
	c0,22.899-16.971,44.546-31.209,58.674c-3.036,3.013-3.631,7.708-1.438,11.384c2.191,3.675,6.604,5.384,10.698,4.146
	c19.495-5.897,46.994-10.597,67.305,0.506c26.469,14.472,38.305,43.981,26.384,65.781c-9.044,16.541-32.892,20.978-53.166,9.894
	c-0.072-0.04-0.143-0.078-0.216-0.114c-0.027-0.015-0.056-0.029-0.084-0.043c-0.017-0.009-0.034-0.017-0.051-0.026
	c-0.419-0.206-0.846-0.379-1.277-0.518c-0.006-0.001-0.012-0.004-0.019-0.006c-0.003,0-0.006-0.001-0.009-0.003
	c-4.165-1.323-8.813,0.437-10.987,4.413c-0.775,1.42-1.144,2.952-1.143,4.464c0,3.295,1.753,6.487,4.848,8.179
	c20.272,11.084,29.41,33.557,20.366,50.097c-2.467,4.514-0.809,10.174,3.705,12.642c4.516,2.468,10.175,0.809,12.643-3.705
	c8.645-15.813,7.168-34.791-2.154-50.755c18.469-0.771,35.244-9.771,43.89-25.583C377.093,270.382,361.932,229.53,326.451,210.131z"
	/>
<path d="M178.695,377.029c-5.023-1.102-9.993,2.078-11.097,7.102c-9.447,43.056-27.308,77.953-53.088,103.727
	c-3.639,3.637-3.639,9.535-0.001,13.174c1.82,1.82,4.203,2.729,6.588,2.729c2.384,0,4.767-0.909,6.587-2.728
	c28.337-28.331,47.891-66.319,58.115-112.908C186.9,383.099,183.721,378.132,178.695,377.029z"/>
<path d="M507.565,180.464c-6.474-16.872-19.369-31.266-36.31-40.528c-14.515-7.937-32.848-10.614-53.935-8.004
	c12.025-16.984,18.274-34.079,18.274-50.358c0-40.439-28.572-73.338-63.692-73.338c-18.023,0-33.967,10.4-43.502,26.238
	c-9.535-15.838-25.479-26.238-43.5-26.238c-24.473,0-47.064,16.427-57.552,41.847c-1.962,4.756,0.302,10.202,5.058,12.165
	c4.753,1.962,10.201-0.303,12.164-5.059c7.718-18.703,23.171-30.322,40.331-30.322c18.85,0,34.185,18.798,34.185,41.903
	c0,5.145,4.17,9.316,9.316,9.316c5.146,0,9.316-4.171,9.316-9.316c0-23.105,15.336-41.903,34.186-41.903
	c24.847,0,45.06,24.541,45.06,54.706c0,22.899-16.971,44.546-31.209,58.674c-3.036,3.013-3.631,7.708-1.438,11.384
	c2.191,3.675,6.602,5.383,10.698,4.146c19.493-5.897,46.994-10.597,67.305,0.506c13.068,7.144,22.96,18.102,27.853,30.855
	c4.688,12.217,4.166,24.622-1.468,34.927c-9.042,16.538-32.892,20.978-53.166,9.894c-4.514-2.469-10.174-0.809-12.643,3.705
	c-0.775,1.42-1.144,2.952-1.143,4.464c0,3.294,1.753,6.487,4.848,8.178c10.067,5.505,17.68,13.926,21.437,23.716
	c3.55,9.255,3.171,18.624-1.071,26.381c-5.633,10.306-15.794,17.44-28.609,20.087c-13.374,2.766-27.938,0.352-41.009-6.793
	c-4.517-2.468-10.173-0.81-12.643,3.705c-2.467,4.514-0.809,10.174,3.705,12.642c12.294,6.722,25.711,10.191,38.912,10.191
	c4.989,0,9.95-0.496,14.804-1.499c18.259-3.773,32.887-14.213,41.186-29.396c6.907-12.634,7.659-27.547,2.117-41.992
	c-1.161-3.027-2.572-5.956-4.213-8.767c18.447-0.786,35.197-9.784,43.833-25.581C513.35,215.819,514.243,197.871,507.565,180.464z"
	/>
</svg>