<svg version="1.1" id="Layer_1" xmlns="http://www.w3.org/2000/svg" x="0" y="0" viewBox="0 0 763.4 937.8" xml:space="preserve"><style type="text/css">.st0{fill:none}.st1{fill:#bfbb3f}.st2{fill:#8e8c34}.st3{fill:#44512a}.st4{fill:#ffe4b7}.st5{fill:#c6b8a5}</style><g id="Group_801" transform="translate(-12509.969 10411.602)"><g id="Group_782" transform="translate(.029)"><path id="Path_4316" class="st0" d="M12814.9-9977.5h-2.6c.6 1.2 1.3 2.4 2.1 3.5-.1-1.1.1-2.3.5-3.5z"/><path id="Path_4317" class="st0" d="M12779.6-10208.4c-6.8 5.6-12.9 10-16.5 12.6-6.2 23.8-10 49.7-5.6 69.7 1.8 7.9 3.8 15.3 5.6 22.6 3.2 3.8 5.9 7.4 8.5 11.2.6-17.1 4.4-34.1 13.5-50.3 7.4-13.2 15.3-26.2 23.5-38.2l-8.8-25.6-14.7 33.2-5.5-35.2z"/><path id="Path_4318" class="st0" d="M12746-10220.4l1.5-2.6-.6-6.2-4.7 1.2c1.2 2.3 2.7 4.9 3.8 7.6z"/><path id="Path_4319" class="st0" d="M12748.4-10213.1c1.7 5.7 2.9 11.5 3.5 17.4 1.8-7.9 4.1-15.6 6.8-23.2l-10.3 5.8z"/><path id="Path_4320" class="st0" d="M12882.2-9990.1c-27.6 9.7-48.2 12.1-57.6 12.6v8.5s6.2 28.8 63.2 92.4c-4.7-25.9-7.4-51.5-6.8-76.8.2-12.6 1.3-25.2 3.2-37.6-.6.2-1.3.5-2 .9z"/><path id="Path_4321" class="st0" d="M12794.6-9993.1c-.6 7.1-1.2 12.4-1.8 15.3 8.8 8.2 14.4 13.2 14.4 13.2s-5.3-11.4-12.6-28.5z"/><path id="Path_4322" class="st1" d="M12880.8-9952.8c-.6 25.3 2.1 50.9 6.8 76.8 25.9 28.5 62.1 64.4 112.9 107.6l-8.8-54.4-5-2.6-10.3-5-20.6-10-10.3-5c-3.5-1.8-6.8-3.2-10.3-5-3.4-1.7-6.7-3.8-9.7-6.2-1.4-1.3-2.8-2.7-4.1-4.1-1.3-1.5-2.2-3.2-2.9-5 1.5 3.8 4.4 6.2 7.4 8.5 3 2.2 6.3 4.1 9.7 5.6l10.6 4.4 10.6 4.4 21.2 8.8 10.6 4.4 2.6 1.2-4.4-28.5c-5.7-4.8-11.7-9.4-17.9-13.5-7.1-4.7-14.1-9.1-21.2-13.5s-14.4-8.8-21.2-13.5c-3.6-2.2-6.9-4.8-10-7.6-2.9-2.9-6.2-6.2-7.1-10.3 1.2 3.8 4.1 7.1 7.4 9.7 3.2 2.7 6.5 5.1 10 7.4 7.1 4.4 14.4 8.2 21.8 12.4 7.4 4.1 14.7 8.2 21.8 12.6 5 3.2 10 6.5 15 10l-2.6-16.8c-1.6-5.4-3.6-10.7-5.9-15.9-3.8-8.5-9.1-17.1-16.5-22.9-1.8-1.4-3.8-2.7-5.9-3.8-2.2-1-4.4-2-6.5-3.2-4.4-2.4-8.8-4.7-12.9-7.4-8.4-5-16.4-10.7-23.8-17.1 7.8 5.8 16.1 11 24.7 15.6 4.4 2.4 8.8 4.4 13.2 6.5 2.4.9 4.4 2.1 6.8 2.9 2.3 1.1 4.4 2.3 6.5 3.8 7.6 5.9 13.2 13.8 17.4 22.1-1.5-6.2-2.9-12.1-4.4-18.2-3.2-11.8-6.8-23.2-12.1-33.8-2.6-5.3-5.9-10.6-10-14.4-.9-1-2-1.9-3.2-2.6-1.2-.6-2.4-1.2-3.8-1.8-2.8-1.2-5.6-2.6-8.2-4.1-3.5-1.9-6.8-4-10-6.5-15.1 10.8-30.8 20.2-47.4 28z"/><path id="Path_4323" class="st1" d="M13007.8-9798.4c4.1 16.5 7.9 30.9 10.6 40.9l4.1-3.5s19.4-15.3 40.3-50.9c35.6-60.9-2.1-200.3-61.2-252.1-10.8 18.6-23.6 36-38.2 51.8 1.8 9.1 3.5 19.1 5.6 29.4.5-2 1.2-4 2.1-5.9 1.3-3.1 3-6.1 5-8.8l6.2-7.9c4.1-5.3 7.7-10.9 10.9-16.8 3.4-5.8 6-12.1 7.9-18.5-1.8 6.4-4.3 12.6-7.4 18.5-3.2 5.9-6.7 11.6-10.6 17.1-2.1 2.9-4.1 5.6-5.9 8.2-1.8 2.9-3.2 5.9-4.7 8.8-1.3 3-2.2 6.2-2.6 9.4v.9c2.6 13.2 5 27.4 7.1 40 .2-.7.5-1.4.9-2.1 1.5-3.2 3.2-6.4 5-9.4 3.8-5.9 8.3-11.5 13.2-16.5 5-4.7 10-9.7 14.7-14.7 2.4-2.6 4.7-5.3 6.8-7.9 1-1.3 2-2.7 2.9-4.1.7-.6 1.2-1.3 1.5-2.1.5-.7.8-1.5.9-2.4 0 .9-.6 1.5-.9 2.4-.3.8-.7 1.6-1.2 2.4-.9 1.5-2.1 2.9-2.9 4.4-2.1 2.6-4.1 5.6-6.5 8.2-4.4 5.6-9.4 10.6-14.1 15.6-4.7 5-8.6 10.7-11.8 16.8-1.5 3.2-2.9 6.2-4.1 9.4-.6 1.5-1.2 2.9-1.8 4.7l-.9 2.4-.3 1.2-.3.6c.6 2.6.9 5.3 1.2 7.6.3 3.5 1.2 7.9 2.1 12.6 1.2 4.7 2.4 9.4 3.2 14.1l2.9-4.1c2.1-2.9 4.4-5.6 6.5-8.5 4.4-5.6 8.8-11.2 13.5-16.5 4.7-5.6 10-10.6 14.7-15.6 2.5-2.4 4.7-5.1 6.8-7.9.9-1.5 2.1-2.9 2.9-4.4 1-1.4 1.7-3 2.1-4.7-.1 1.8-.7 3.5-1.8 5-.9 1.5-2.1 2.9-2.9 4.4-2 3-4.2 5.8-6.5 8.5-4.7 5.3-9.4 10.6-13.8 16.2s-8.5 11.2-12.6 17.1c-2.1 2.9-3.8 5.9-5.9 8.8l-2.9 4.4-1.5 2.4-.6 1.2c.6 1.9 1 3.9 1.2 5.9.9 3.8 1.8 7.4 2.6 11.2.1.9.3 1.8.6 2.6v.3c1.5 6.8 3.2 13.8 5 21.2 3.2-4.1 6.5-8.2 10-12.4 2.4-2.6 5-5.6 7.6-8.2l7.9-7.9c5.2-5.3 10-11 14.4-17.1 4.4-5.9 8.8-12.1 12.9-18.2-3.8 6.2-7.9 12.6-12.1 18.8-4.2 6.2-8.7 12.2-13.5 17.9-2.4 2.9-5 5.6-7.4 8.5-2.4 2.6-4.7 5.6-7.1 8.5-4.1 5.3-7.9 10.6-11.5 15.9 2.9 11.8 5.9 23.8 8.8 35.3l10.6-11.5c5-5.6 9.7-10.9 14.4-16.5l14.1-16.5c2.4-2.9 4.7-5.6 7.1-8.2 1.5-1.5 2.6-2.9 3.8-4.1l1.8-2.1.9-.9c.3-.3.7-.5 1.2-.6-.3 0-.6.6-.9.9l-.9.9-1.8 2.1c-.9 1.2-2.1 2.6-3.2 4.1-2.1 2.6-4.4 5.6-6.5 8.5l-12.6 17.6c-4.1 5.6-8.5 11.5-12.9 17.4-4 5.4-8.1 10.7-12.2 16.5z"/><path id="Path_4324" class="st1" d="M12996-9762.8c-20.6-17.9-68.8-61.2-104.7-96.2 15 56.2 73.3 84.8 104.7 96.2z"/><path id="Path_4325" class="st1" d="M12961.9-10011.6c-10 10.7-20.9 20.6-32.6 29.4 3.1 2 6.4 3.9 9.7 5.6 2.6 1.5 5.4 2.7 8.2 3.5 1.5.6 3 1.3 4.4 2.1 1.4.8 2.7 1.8 3.8 2.9 4.7 4.1 7.9 9.7 10.9 15 3.1 6 5.8 12.2 7.9 18.5l-5.6-35c-.6-1.7-.9-3.5-.9-5.3l-5.8-36.7z"/><path id="Path_4326" class="st2" d="M12963.4-10013.1c14.6-15.8 27.5-33.1 38.2-51.8-1-.7-2-1.5-2.9-2.4-10.6-8.5-19.1-16.2-26.5-22.9-22.1 46.2-54.4 86.2-87.9 99.1-1.8 12.5-2.9 25-3.2 37.6 16.6-7.5 32.4-16.7 47.1-27.6-6.6-4.8-12.6-10.6-17.6-17.1 5.4 6.2 11.8 11.6 18.8 15.9 11.7-8.9 22.6-18.7 32.6-29.4l-6.5-40c0 .1 3.5 16.3 7.9 38.6z"/><path id="Path_4327" class="st1" d="M13160.2-9614.8c-22.9-20-72.9-53.5-128.8-34.7-77.1 26.2-142.9 63.5-187.4 141.8 0 0-.9 3.5-10.9 9.1s5-1.5 72.1 19.1c67.4 20.6 204.4-16.5 242.1-70.6 21.5-31.2 26.5-51.8 26.5-52.1-3.8.3-7.6.6-11.2.9-.1.6-.3 1.2-.6 1.8l-1.5 3.8c-1.2 2.4-2.4 5-3.5 7.4-2.6 4.7-5.5 9.2-8.8 13.5-1.5 2.1-3.2 4.1-5 6.2-1.8 1.8-3.5 3.8-5.3 5.9l-10.6 12.1 9.7-12.6c3.2-4.4 6.5-8.5 9.4-12.9 1.5-2.4 2.9-4.4 4.1-6.8l3.5-7.1c1.1-2.4 2.1-4.9 2.9-7.4l1.2-3.5c-7 .6-14 1.8-20.9 3.5-2.6 5.6-5.6 11.2-8.5 16.8l-9.7 17.7-10 17.4c-1.5 2.9-3.2 5.9-4.7 8.8l-2.4 4.4c-.5.7-.9 1.5-1.2 2.4l-.6 1.2c-.3.3-.6.9-.3 1.2-.3-.3 0-.9 0-1.2l.3-1.2c.3-.9.6-1.5.9-2.4l2.1-4.7c1.5-2.9 2.6-6.2 4.1-9.1l8.2-18.2c2.6-5.9 5.3-12.1 7.9-18.2 1.8-4.1 3.5-7.9 5-12.1-7.1 2.4-18.5 6.2-33.2 11.2-3.2 4.9-6.2 10-8.8 15.3-1.5 2.9-2.9 6.2-4.4 9.1-1.5 2.9-2.6 5.9-4.1 9.1-2.9 6.2-6.2 12.1-9.7 17.9-3.5 5.9-7.1 11.5-10.9 17.1 3.5-5.9 6.8-11.8 10-17.6 2.9-5.9 5.9-12.1 8.5-18.2 1.2-2.9 2.4-6.2 3.5-9.4 1.2-3.2 2.4-6.2 3.8-9.4 2.1-3.8 3.8-7.9 5.9-11.8-11.8 4.1-25 8.5-39.1 13.2l-1.2 1.8-2.6 4.1c-1.8 2.6-3.2 5.6-5 8.2-3.2 5.6-6.5 11.2-9.4 16.8-2.9 5.6-5.6 11.5-8.2 17.4-1.4 2.9-3 5.8-4.7 8.5-1.6 2.8-3.7 5.3-6.2 7.4l1.8-1.8c1.4-2 2.7-4.1 3.8-6.2 1.5-2.9 2.9-5.9 4.1-8.8 2.4-5.9 4.4-12.1 7.1-17.9 2.6-5.9 5.6-11.8 8.5-17.4 1.5-2.9 2.9-5.6 4.4-8.5l.9-1.8c-10.3 3.5-20.6 7.1-31.2 10.6l-.3.3-3.2 2.1-3.2 3.2c-2.2 2.2-4.3 4.6-6.2 7.1-2 2.4-3.8 4.9-5.3 7.6-1.5 2.7-2.9 5.4-4.1 8.2l-3.5 8.8c-1.2 2.9-2.4 5.6-3.8 8.5-1.5 2.9-2.9 5.9-4.4 8.5-.9 1.5-1.8 2.9-2.6 4.1-1.2 1.2-1.8 2.6-3.2 3.5.6-.6.9-1.2 1.5-1.8.3-.6.9-1.5 1.2-2.1.9-1.3 1.7-2.7 2.4-4.1 1.2-2.6 2.6-5.6 3.8-8.5 2.4-5.6 4.4-11.5 6.5-17.6 1.2-2.9 2.4-5.9 3.8-8.8 1.5-2.8 3.2-5.6 5-8.2 1.7-2.6 3.6-5 5.6-7.4-11.8 4.1-23.2 7.9-34.4 11.8-.5.2-1 .5-1.5.9-1.2.8-2.4 1.7-3.5 2.6-1.2 1-2.2 2.1-3.2 3.2-1.1 1.1-2 2.3-2.9 3.5-.9 1.2-1.8 2.6-2.6 3.8-1.7 2.5-3.3 5.2-4.7 7.9-6 10.9-13.7 20.8-22.9 29.1 2.3-2.1 4.5-4.4 6.5-6.8 2.1-2.4 4.1-5 5.9-7.4 1.8-2.4 3.5-5 5.3-7.6 1.8-2.6 3.2-5.3 4.7-7.9 1.5-2.6 2.6-5.6 4.4-8.2.9-1.2 1.8-2.6 2.6-3.8.9-1.3 1.9-2.6 2.9-3.8 1.1-1.3 2.3-2.6 3.5-3.8-41.5 14.1-74.1 25.3-74.1 25.3s22.6-8.5 54.4-20.6c-1.4-.2-2.7-.7-3.8-1.5-.9-.5-1.7-1.2-2.4-2.1-.5-.8-1.1-1.6-1.8-2.4-1.3-1.4-2.8-2.7-4.4-3.8-3.3-2.2-6.7-4.2-10.3-5.9-3.5-1.8-7.4-3.5-10.9-5 3.8 1.5 7.6 2.9 11.2 4.4 3.5 1.8 7.1 3.5 10.6 5.6 1.7 1 3.3 2.2 4.7 3.5 1.2 1.2 2.1 2.4 2.9 3.2.3.3.9.6 1.2.9l2.6.9c1.9.3 3.8.2 5.6-.3l2.6-.9v.3c12.9-5 27.4-10.3 42.1-15.9h-1.5c-2.2.3-4.5.3-6.8.3-2.3-.1-4.5-.3-6.8-.6s-4.6-.9-6.8-1.8c-1.1-.4-2.2-.9-3.2-1.5s-2-1.3-2.9-2.1c-1.7-1.4-3.5-2.6-5.3-3.8-1.8-1.2-3.6-2.3-5.6-3.2-1.9-1.2-3.8-2.1-5.9-2.9-6.1-2.7-12.5-4.4-19.1-5.3 4.5.3 8.9.9 13.2 2.1 4.3 1.2 8.5 2.7 12.6 4.4 2.1.9 4.2 1.8 6.2 2.9 2.1 1.2 4.1 2.4 5.9 3.5l2.6 1.8c1 .3 2 .7 2.9 1.2 2 .6 4.1 1.1 6.2 1.5 2.1.2 4.3.3 6.5.3 6.5-.2 13.1-1 19.4-2.7 6.1-1.5 12.1-3.2 17.9-5.3.3-.3.9-.3 1.2-.6-.6-.3-1.5-.9-2.1-1.2-2.7-1.4-5.2-3-7.6-4.7-5-3.2-9.7-6.8-14.7-9.7-5-2.9-10-5.9-15.3-8.5-5.2-2.7-10.6-4.9-16.2-6.8 5.7 1.5 11.3 3.3 16.8 5.6 5.5 2.2 10.9 4.8 16.2 7.6 5.3 2.6 10.3 5.9 15.3 8.8 2.6 1.5 5 2.9 7.6 4.1 1.2.6 2.6 1.2 3.8 1.8.6.3 1.2.3 1.8.6h.3c14.4-5.3 28.2-10.6 41.2-15.6-4.4-1.8-8.5-3.5-12.9-5.6-6.8-2.9-13.5-6.5-20-10s-12.9-7.1-19.7-10c-3.3-1.6-6.8-2.9-10.3-3.8-3.5-.9-7.4-1.5-10.9-.6 1.8-.5 3.7-.7 5.6-.6 2.1.3 3.8.6 5.6.9 1.8.4 3.6.8 5.3 1.5l5.3 1.8c6.8 2.6 13.5 5.6 20.3 8.8 6.8 2.9 13.5 6.2 20.3 8.8 5.9 2.4 12.1 4.7 17.9 6.5 10.3-4.1 19.7-7.6 28.2-10.9l-4.4-2.6-8.2-4.7c-5.3-3.2-10.9-6.5-16.2-10l-7.9-5.3c-2.6-1.8-5.3-3.8-7.9-5.3-1.3-1-2.7-1.7-4.1-2.4l-4.4-1.8c-2.9-.9-6.2-1.8-9.4-1.2 2.9-.9 6.5-.3 9.4.6 3 .9 6 2.1 8.8 3.5 2.9 1.2 5.6 3.2 8.2 4.7 2.6 1.5 5.6 3.2 8.2 4.7 5.6 3.2 11.2 6.2 16.8 9.1l8.5 4.4c2.9 1.2 5.6 2.6 8.2 3.8 10.9-4.4 19.7-7.6 24.7-9.7 1.8-.6 3.2-1.2 5-1.8-8.5-3.5-17.1-7.4-25.3-11.2-9.9-4.6-19.5-9.7-28.8-15.3 5 2.6 9.7 5 14.7 7.1l15 6.2c5 2.1 10.3 3.8 15.3 5.6 5 2.1 10.3 3.5 15.3 5.3v.3c4.4-1.3 9.2-2.3 14-2.7z"/><path id="Path_4328" class="st1" d="M13185.2-9665.7c.3 3.8.6 7.6.9 10.9.2.2.4.3.6.3 0 0 19.4-9.1 45.6-36.5 45.6-47.6 54.4-189.4 20.6-251.2-33.8-61.8-29.7-77.6-33.2-66.8s-6.8 12.6-6.8 12.6c-67.9 59.1-91.2 131.2-101.2 211.8-7.9 64.1 44.1 108.5 65.9 124.1-.3-3.5-.3-7.1-.3-11.2-5.9-10.6-12.4-20.9-18.8-30.9-3.5-5.3-7.1-10.3-10.6-15.6-3.8-5-7.4-10.3-11.5-15 4.4 4.6 8.5 9.4 12.3 14.4l11.5 15c5.9 7.9 11.5 16.2 17.1 24.4 0-8.8.6-19.4 1.8-32.1-7.1-10.6-14.1-20.9-21.8-30.9-2.4-2.6-4.4-5.6-6.8-8.2l-7.1-7.9c-2.4-2.7-4.5-5.7-6.2-8.8-1.5-3.2-2.9-6.8-2.9-10.3 0 3.8 1.8 7.1 3.5 10 2.1 2.9 4.4 5.6 6.8 8.2 2.6 2.6 5.3 5 7.6 7.6l7.1 7.9c7.4 8.5 14.1 17.1 20.6 25.9 1.2-10.6 2.4-22.4 4.1-35.6-2.9-5.3-6.2-10.3-9.4-15.3-4.1-6.2-8.5-12.1-12.9-17.9-4.4-6.2-8.8-12.1-12.9-18.2-1.8-3.2-3.8-6.2-5.3-9.7-1.5-3.5-2.6-7.1-2.4-10.9.1 3.7 1.1 7.4 2.9 10.6 1.8 3.2 3.8 6.4 5.9 9.4 4.4 5.9 9.1 11.8 13.8 17.4s9.4 11.5 13.8 17.4c2.6 3.5 5 7.1 7.4 10.6 1.8-13.5 4.1-28.2 6.8-44.4l-2.6-3.5c-1.7-2.4-3.6-4.6-5.6-6.8-3.8-4.4-7.9-8.5-11.8-13.2-3.9-4.5-7.4-9.2-10.6-14.1-3.2-4.9-6.2-10-8.8-15.3 2.6 5.3 6.2 10 9.7 14.7 3.6 4.6 7.4 9 11.5 13.2 4.1 4.1 8.5 8.2 12.6 12.4 2.1 2.1 4.1 4.1 6.2 6.5 0 .3.3.3.3.6.9-5.3 2.1-10.9 2.9-16.8v-1.8c0-8.8-.3-17.6-3.2-25.9-.6-2-1.5-3.8-2.6-5.6-.5-.9-1.1-1.8-1.8-2.6l-2.4-2.4c-3.3-3.1-6.3-6.5-8.8-10.3-5.1-7.4-9-15.5-11.5-24.1 3 8.3 7.3 16.1 12.9 22.9 2.8 3.4 5.9 6.5 9.1 9.4 1 .7 1.8 1.5 2.6 2.4.6 1 1.3 2 2.1 2.9 1.4 1.9 2.5 4 3.2 6.2 1.4 3.9 2.4 7.9 2.9 12.1 1.8-8.8 3.5-17.9 5.3-27.6.9-4.9 1.4-10 1.5-15 0-2.5-.3-4.9-.9-7.4-.3-1.2-.8-2.2-1.5-3.2-.8-.9-1.8-1.7-2.9-2.1-2.4-1.2-4.1-3.2-5.9-5-1.8-1.8-3.5-3.8-5-5.9-2.9-4.1-5.9-8.2-8.5-12.6 2.9 4.1 5.9 8.2 9.1 12.1 1.5 2 3.2 3.9 5 5.6 1.8 1.8 3.7 3.4 5.9 4.7l1.8.9c.6.4 1.2.9 1.8 1.5 1.1.9 1.8 2.2 2.1 3.5.9 2.1.9 4.4 1.2 6.8 5-25 10.9-52.1 17.6-82.1 0 0-8.2 41.5-17.1 95.3.9-1.2 1.5-2.1 2.4-3.2 2-2.4 4.2-4.7 6.5-6.8 2.4-2.1 5-3.8 7.4-5.9 4.9-3.8 9.5-8 13.5-12.6 4.2-4.5 8-9.4 11.2-14.7-3.1 5.4-6.8 10.6-10.9 15.3-4.1 4.7-8.5 9.1-13.2 13.2-2.4 2.1-5 4.1-7.1 6.2-2.3 2-4.4 4.3-6.2 6.8-1.7 2.5-3.2 5.2-4.4 7.9v.3c-2.1 12.6-4.1 25.6-6.2 38.8 0-.3.3-.6.6-.9 2-2.6 4.2-5 6.5-7.4 4.4-4.7 9.4-8.8 15-12.1 5.6-3.2 10.9-6.5 16.2-10 2.7-1.7 5.2-3.6 7.6-5.6 1.2-.9 2.4-1.9 3.5-2.9.9-1.2 2.4-2.1 2.9-3.5-.7 1.5-1.7 2.8-2.9 3.8-1.2 1.2-2.4 2.1-3.5 3.2-2.3 2.2-4.8 4.3-7.4 6.2-5 3.8-10.3 7.4-15.6 10.9-5.1 3.5-9.8 7.6-13.8 12.4-2 2.3-3.9 4.8-5.6 7.4-.9 1.2-1.8 2.6-2.6 3.8l-1.2 2.1-.6 1.2-.3.6-.3.3c-.3 5.6-4.1 28.5-4.7 32.6l3.2-2.9c2.4-2.1 4.7-4.1 7.4-6.2 5-4.1 10-7.9 15.3-11.8s10.9-7.1 16.2-10.6c2.7-1.7 5.2-3.6 7.6-5.6 2.4-2.1 5-4.1 6.5-7.1-1.5 2.9-3.8 5-6.2 7.4-2.4 2.1-4.7 4.1-7.4 6.2-5 3.8-10.3 7.4-15.3 11.5-5 3.9-9.8 8-14.4 12.4-2.4 2.1-4.7 4.4-7.1 6.5l-3.5 3.2-1.8 1.8-.9.9c-.3 0-.6.3-.9.6-1.8 13.8-3.5 27.4-4.7 40.3 3.8-3.2 7.6-6.2 11.8-9.1 2.9-2.1 5.6-4.1 8.5-5.9 2.9-1.8 5.9-3.5 8.5-5.3 5.7-3.7 11.1-7.7 16.2-12.1 5.3-4.1 10.3-8.5 15.3-13.2-4.7 4.7-9.4 9.4-14.4 14.1s-10.3 9.1-15.6 13.2c-2.6 2.1-5.6 3.8-8.2 5.9l-7.9 6.2c-5.1 3.9-9.9 8.1-14.4 12.6-.9 11.5-1.8 22.9-2.4 33.2 3.2-2.4 6.8-4.4 10-6.8 5.3-3.8 10.9-7.6 16.2-11.5l16.2-11.8c2.6-2.1 5.6-4.1 8.2-5.9l4.1-2.9c.6-.6 1.3-1.1 2.1-1.5l1.2-.6c.3 0 .9-.3 1.2-.3-.5 0-.9.2-1.2.6l-.9.6c-.7.4-1.4.9-2.1 1.5l-3.8 3.2c-2.6 2.1-5 4.4-7.6 6.5l-15 13.2c-5 4.4-10 8.8-15.3 12.9-4.4 3.5-8.8 7.1-13.5 10.6 0 7.9-.3 15.3 0 22.1l2.9-1.8c2.1-1.2 4.4-2.6 6.5-4.1 4.3-3.1 8.3-6.6 12.1-10.3 3.5-3.8 7.1-7.6 10.6-11.8l10.6-12.1-9.7 12.6c-3.2 4.1-6.5 8.5-10 12.6s-7.4 7.9-11.5 11.5c-2 1.8-4.2 3.5-6.5 5l-3.5 2.4-1.8 1z"/><path id="Path_4329" class="st1" d="M12556-9808.9c10.6 4.4 12.1 7.6 12.1 7.6 55.3 71.2 125.9 98.2 205.9 112.9 72.1 13.2 125.3-47.1 135.3-59.1l-16.8-2.6c-8.8 5-17.6 9.7-26.2 15-9.9 5.8-19.6 12-28.8 18.8 8.7-7.4 17.9-14.2 27.4-20.6 7.1-5 14.1-9.4 21.2-14.1-12.1-1.8-24.4-3.8-36.5-5.6-1.1 1-2.3 1.8-3.5 2.6l-4.1 3.2-8.2 6.5c-5.6 4.4-11.2 8.5-16.5 12.9l-7.9 6.5c-2.6 2.4-5.3 4.7-7.9 6.8-2.7 2.2-5.7 4.1-8.8 5.6-3.1 1.7-6.5 2.5-10 2.4 3.5 0 6.8-1.5 9.7-2.9 3.1-1.5 6-3.5 8.5-5.9 5-4.7 10-9.4 15.3-14.1 5-4.7 10.3-9.4 15.6-13.8l7.9-6.8 4.1-3.2.3-.3c-8.8-1.2-17.9-2.6-26.8-4.1-6.8 2.9-13.5 6.5-20.3 10-6.9 3.6-13.6 7.6-20 12.1-6.5 4.4-12.9 8.8-19.7 12.6-3.4 2-6.9 3.8-10.6 5.3-3.5 1.5-7.6 2.6-11.5 2.1 3.8.3 7.6-1.2 11.2-2.6 3.4-1.8 6.8-3.7 10-5.9 6.5-4.1 12.9-8.8 19.1-13.5 6.2-4.7 12.7-9.2 19.4-13.2 4.7-2.9 9.4-5.6 14.4-8.2-17.1-2.6-33.5-5.3-49.1-7.6-.3.3-.9.6-1.2.9l-3.5 2.6c-2.4 1.8-4.7 3.8-7.1 5.6-4.4 3.8-9.1 7.6-13.8 11.2-4.7 3.6-9.6 6.9-14.7 10-5.1 3-10.4 5.6-15.9 7.9 5.3-2.8 10.4-5.8 15.3-9.1 5-3.5 9.7-7.1 14.1-10.9 4.7-3.8 8.8-7.9 13.2-12.1 2.4-1.8 4.4-3.8 6.8-5.9.3-.6.9-.9 1.5-1.5-6.8-1.2-13.5-2.4-20-3.2-4.3-.3-8.6-.3-12.9 0-4.3.3-8.5 1.1-12.6 2.4-2 .7-4 1.6-5.9 2.6l-2.6 1.8-2.4 2.1c-3.4 2.9-7.1 5.6-10.9 7.9-7.6 4.8-15.9 8.2-24.7 10 8.4-2.7 16.4-6.6 23.5-11.8 3.6-2.5 6.9-5.4 10-8.5.7-.9 1.5-1.6 2.4-2.4.9-.6 2.1-1.5 2.9-2.1 2.1-1.1 4.3-2.1 6.5-2.9 2.9-.9 5.6-1.5 8.5-2.1-27.1-4.1-45.3-7.4-47.9-7.9-1.2 1.2-1.8 2.6-2.9 4.1-1.1 1.7-2.5 3.2-4.1 4.4-3 2.6-6.3 5-9.7 7.1-3.3 2.1-6.8 4.1-10.3 5.9 6.9-4 13.4-8.6 19.4-13.8 1.4-1.4 2.6-2.9 3.8-4.4.9-1.2 1.5-2.6 2.4-3.8-16.2-4.1-75.6-18.8-75.6-18.8s42.1 6.8 99.4 16.2c-1-.7-2-1.5-2.9-2.4-2.3-2.1-4.5-4.4-6.5-6.8-2.1-2.6-3.8-5.3-5.6-7.6-7.3-10-16.1-18.9-26.2-26.2 5.1 3.5 10 7.4 14.4 11.8 4.7 4.2 8.9 8.8 12.6 13.8 1.7 2.6 3.6 5 5.6 7.4 1.9 2.4 4.1 4.5 6.5 6.5 2 1.7 4.1 3.2 6.5 4.4 11.5 1.8 23.5 3.8 36.2 5.9l-4.4-4.4c-4.4-4.7-8.2-9.9-11.2-15.6-2.9-5.9-5.9-11.5-9.1-16.8-1.5-2.6-3.2-5.3-5-7.9-.9-1.3-1.9-2.6-2.9-3.8-1-1.2-2.2-2.3-3.5-3.2 1.5.6 2.4 1.8 3.5 2.9.9 1.2 2.1 2.4 2.9 3.5 2 2.4 3.9 5 5.6 7.6 3.5 5.3 6.8 10.9 10 16.2 3.3 5.3 7.3 10.1 11.8 14.4 2.4 2.1 4.7 4.1 7.1 5.9 1 .6 2 1.3 2.9 2.1 11.2 1.8 22.6 3.8 34.1 5.6l-.3-.3c-1.8-2.6-3.8-5-5.6-7.6-3.5-5-7.4-10.3-10.6-15.6-3.5-5.3-6.2-10.9-9.4-16.2-1.5-2.8-3.2-5.4-5-7.9-1.7-2.7-3.9-5-6.5-6.8 2.6 1.5 4.7 3.8 6.8 6.2 2.1 2.6 3.8 5 5.6 7.6 3.5 5.3 6.5 10.6 10.3 15.6 3.5 5 7.6 10 11.5 14.7l6.2 7.1 2.9 3.5.3.3c13.5 2.1 26.8 4.4 40.3 6.5-2.4-3-4.7-6.2-6.8-9.4-1.8-2.6-3.5-5.4-5-8.2-1.4-2.9-3-5.8-4.7-8.5-3.5-5.3-7.1-10.6-10.9-15.9-3.8-5.3-7.6-10.3-11.8-15.3 4.4 4.7 8.5 9.4 12.6 14.4 4.2 4.9 8.1 10 11.8 15.3 1.8 2.6 3.5 5.6 5.3 8.2l5.3 7.9c3.1 4.4 6.5 8.5 10.3 12.4 11.8 2.1 23.5 3.8 35 5.6l-16.8-25.6-10.3-15.6c-1.8-2.6-3.2-5.3-5-7.9l-2.4-4.1-1.2-2.1-.6-1.2c0-.6-.6-.9-.3-1.2-.3.3.3.6.3.9l.6.9 1.2 2.1 2.6 3.8c1.8 2.4 3.8 5 5.6 7.4 3.8 5 7.6 9.7 11.5 14.7l23.2 29.1c7.4 1.2 14.4 2.4 21.5 3.5l-.6-.9c-1.1-2.4-2.4-4.6-3.8-6.8-2.7-4.5-5.9-8.8-9.4-12.6-3.5-4.1-7.4-7.6-11.2-11.5l-11.5-11.2 12.1 10.3c4.1 3.5 8.2 6.8 12.1 10.6 3.9 3.7 7.5 7.7 10.6 12.1 1.5 2.1 2.9 4.4 4.4 6.8l2.1 3.5v.3c4.4.9 8.5 1.5 12.6 2.1l-1.2-2.4s-7.9-20-33.8-47.7c-45-47.9-186.2-64.7-249.7-34.4s-79.5 24.9-67.8 29.9z"/><path id="Path_4330" class="st1" d="M12971.9-10090.7c21.5-45.6 33.2-97.4 26.5-135.3-14.1-77.4-3.5-90.9-11.5-82.1-7.9 8.8-12.1 8.8-12.1 8.8-73.2 17.9-121.2 56.2-157.9 105.6-1.8 8.8-3.2 15.3-3.2 15.9l-1.8 8.2-4.1-11.8c-8.2 12.1-16.2 25-23.5 38.2-8.5 15.4-13.1 32.7-13.5 50.3-2.6-3.9-5.4-7.7-8.5-11.2 18.2 70.3 42.1 113.8 49.1 125.9h2.6c.6-2.9 1.2-7.6 2.4-13.8-2.6-12.4-5.9-25-9.1-37.4-3.5-12.6-7.1-25-11.8-37.4 5.3 12.1 9.7 24.4 13.8 36.8 3.2 9.1 6.2 18.8 8.8 28.2 2.1-9.4 4.4-20.6 7.6-33.2-.3-2.4-.6-3.8-.9-5.9l-.9-5.6-1.8-11.5c-1.1-7.6-2.7-15.2-4.7-22.6-.9-3.5-2.1-7.4-3.2-10.9-1.2-3.5-2.9-7.1-4.4-10.6-1.2-3.5-2.6-7.4-3.2-11.2-.9-3.8-1.2-7.9.3-11.5-1.2 3.8-.6 7.6.3 11.5.8 3.8 2.1 7.4 3.8 10.9 1.8 3.5 3.5 7.1 5 10.6s2.6 7.1 3.8 10.9c2.4 7.4 4.1 14.7 5.9 22.4.9 3.8 1.5 7.6 2.4 11.5l.6 2.4c4.4-15.6 9.7-32.4 16.2-49.7.4-7.8-.8-15.6-3.5-22.9-2.6-8.2-5.3-16.5-7.6-25-1.2-4.3-2-8.6-2.6-12.9-.6-4.4-.9-9.1 1.2-12.9-1.8 4.1-1.2 8.8-.6 12.9.9 4.4 2.1 8.5 3.2 12.6 2.6 8.5 5.6 16.5 8.8 24.7 2.3 5.1 3.8 10.6 4.4 16.2 4.2-10.8 8.9-21.4 14.1-31.8 1.3-6.4 1.4-13 .3-19.4-.4-2.3-1.1-4.6-2.1-6.8-1.2-2.2-2.1-4.4-2.9-6.8-1.8-4.4-3.5-9.1-5-13.8-3.1-9.3-5.4-18.9-7.1-28.5 1.8 9.4 5 18.8 8.5 27.9 1.8 4.7 3.8 9.1 5.9 13.5 1.2 2.1 2.1 4.4 3.2 6.5.9 2.4 1.7 4.9 2.4 7.4.8 3.9 1.2 7.8 1.2 11.8 11.8-22.1 26.2-42.4 43.2-58.2 0 0-13.5 19.7-31.2 49.1.8-.6 1.7-1.1 2.6-1.5 3.2-1.2 6.5-2.4 9.7-3.2 3.2-.9 6.5-1.5 9.7-2.1 6.5-1.3 12.9-3.1 19.1-5.6 6.3-2.3 12.3-5.3 17.9-8.8-5.6 3.7-11.5 6.9-17.6 9.4-6.2 2.6-12.6 4.7-19.1 6.2-3.2.9-6.5 1.5-9.7 2.4-3.1.9-6.2 2.1-9.1 3.5-1.8 1-3.6 2.1-5.3 3.2-3.2 5.9-6.5 12.1-9.7 18.5.6 0 .9-.3 1.5-.6 3.2-1.6 6.6-3 10-4.1 6.7-2.4 13.8-3.8 20.9-4.1 7.1-.3 14.1-.6 20.9-1.5 3.5-.3 6.8-.9 10.3-1.5 1.7-.3 3.4-.6 5-1.2l2.4-.9c.9-.2 1.7-.6 2.4-1.2-.6.8-1.4 1.3-2.4 1.5l-2.4.9c-1.6.6-3.3 1.1-5 1.5-3.5.9-6.8 1.5-10.3 2.1-6.8 1.2-13.8 2.1-20.6 2.6-6.8.8-13.4 2.4-19.7 5-3.2 1.2-6.2 2.7-9.1 4.4l-4.4 2.6-2.1 1.5c-2.6 5.6-5.6 11.8-8.2 17.9l2.6-.6c3.4-1 6.8-1.7 10.3-2.4 7.1-1.5 14.1-2.9 21.2-3.8 7.1-1.2 14.1-1.8 21.2-2.4 3.5-.6 7.1-.9 10.6-1.8 1.5-.6 3.2-.9 5-1.5 1.7-.5 3.3-1.3 4.7-2.4-1.4 1.2-3 2.1-4.7 2.6-1.6.8-3.3 1.4-5 1.8-3.4 1.1-6.8 1.9-10.3 2.4-7.1 1.2-13.8 2.1-20.9 3.5-6.8 1.2-13.8 2.9-20.6 4.7-3.5.9-6.8 2.1-10.3 2.9l-5 1.5-.6.3c-7 16.2-13.1 32.8-18.2 49.7 6.5-3.2 12.9-5.9 19.4-8.5 8.5-3.2 17.1-6.2 26.2-7.6 4.7-.6 9.1-.9 13.5-1.5s8.8-1.5 13.2-2.4c8.8-1.8 17.6-4.1 26.2-6.5-8.5 2.9-17.1 5.3-25.9 7.6-4.4 1.2-8.8 2.1-13.2 2.9-4.4.9-8.8 1.5-13.2 2.1-8.7 1.9-17.2 4.7-25.3 8.2-7.9 3.2-15.3 7.1-22.6 10.9-2.1 7.4-3.8 14.4-5.3 21.8 13.5-1.8 27.1-4.1 40.6-6.2l22.1-3.5c3.8-.3 7.4-.9 11.2-1.5 1.8-.3 3.8-.3 5.6-.6l2.9-.3h1.5c.4 0 .8.1 1.2.3-.3-.3-.9 0-1.2 0l-1.5.3-2.6.6c-2.1.3-3.8.9-5.6 1.2-3.5.6-7.4 1.5-10.9 2.4l-21.8 5.3c-14.1 3.5-28.2 6.8-42.6 10-1.5 7.7-2.6 15.4-3.2 23.2l1.5-.3c2.8-.5 5.5-1.2 8.2-2.1 5.6-1.5 11.1-3.2 16.5-5.3 5.6-2.1 10.9-4.4 16.2-6.5l15.9-6.5-15.6 7.6c-5 2.4-10.3 5-15.6 7.4-5.3 2.5-10.7 4.6-16.2 6.5-2.6.9-5.3 1.8-8.2 2.6l-2.6.6c0 2.9-.3 6.2-.3 9.1 9.4-.6 30-2.9 57.6-12.6.6-.3 1.5-.6 2.1-.9 33.2-12.4 65.6-52.4 87.3-99.2z"/><path id="Path_4331" class="st1" d="M12751.6-10105.7c-.9-3.5-1.8-6.8-2.4-10.3-.3-.6-.8-1.1-1.5-1.5-63.8-50.3-130.9-85-220.9-79.4 0 0-3.2 1.2-13.5-4.1s3.8 3.2 23.2 70.9c19.4 67.6 125.3 162.4 191.2 164.1 37.6 1.2 57.9-6.2 57.9-6.2l2.1-.6-8.5-8.5h-1.2l-3.8.9c-2.6.5-5.3.9-7.9 1.2-5.4.4-10.8.4-16.2 0-5.3-.6-10.6-1.5-15.9-2.1l-15.9-2.4 15.9 1.2c5.3.3 10.6.9 15.9.9 5.2.1 10.4-.3 15.6-1.2 2.6-.6 5-1.2 7.6-1.8l2.1-.6c-4.7-4.1-9.1-8.2-13.5-12.4-6.5-.3-13.2-.3-19.7-.3s-13.2.3-19.7.6-13.2.6-19.7 1.2c-3.5.3-6.8.6-10 .9l-5 .6-2.4.3-1.2.3c-.6 0-.9 0-1.2.3.3-.3.7-.5 1.2-.6l1.2-.3 2.4-.6 5-.9c3.2-.3 6.5-.9 9.7-1.5 6.5-1.2 13.2-2.1 19.7-2.9 6.5-.9 12.9-1.8 19.7-2.4 4.4-.6 8.5-.9 12.9-1.2-6.8-6.2-13.5-12.4-20-18.2-6.4-1.5-12.9-2.6-19.4-3.2-7.4-.6-14.7-.9-21.8.6-7.4 1.1-14.9 1.8-22.4 2.1-7.4.5-14.9.6-22.4.3 7.4-.3 14.7-.9 22.1-1.5 7.3-.5 14.6-1.6 21.8-3.2 7.4-1.6 15.1-2.2 22.6-1.8 4.3.1 8.7.5 12.9 1.2-7.4-7.1-14.7-13.5-21.5-20h-1.2c-6.5-.3-13.2-.3-19.7-.3s-13.2.3-19.7.6-13.2.6-19.7 1.2c-3.5.3-6.8.6-10 .9l-5 .6-2.4.3-1.2.3c-.6 0-.9 0-1.2.3.3-.3.7-.5 1.2-.6l1.2-.3 2.4-.6 5-.9c3.2-.3 6.5-.9 9.7-1.5 6.5-1.2 13.2-2.1 19.7-2.9s12.9-1.8 19.7-2.4c4.4-.6 9.1-.9 13.5-1.2-.4-.8-.9-1.4-1.5-2.1-78.8-73.2-115.9-110-76.8-76.2 6.8 5.9 33.2 29.7 64.1 57.6-4.4-7.6-8.8-15.3-12.1-23.5-3.5-8.8-6.5-18.2-6.2-27.9 0-4.7 0-9.4-.3-14.1-.3-2.4-.3-4.7-.6-7.1-.3-1.2-.3-2.4-.6-3.5 0-.6-.1-1.2-.3-1.8 0-.3-.3-.6-.3-.9 0-.3-.3-.6-.6-.6.3-.3.3 0 .6.3 0 .3.3.6.3.9.3.6.3 1.2.6 1.8l.9 3.5c.5 2.3.9 4.7 1.2 7.1.6 4.7 1.2 9.4 1.5 14.1.6 9.1 3.5 17.9 7.4 26.5 4 8.5 8.7 16.5 14.1 24.1 5.2 7.5 10.8 14.6 16.8 21.5 1.5 1.5 2.9 2.6 4.4 4.1-.9-4.7-1.8-9.4-2.4-14.1-.9-7.1-1.5-14.1-2.1-21.2-.6-7.1-1.2-14.1-2.4-21.2-.5-3.5-1.3-6.9-2.4-10.3-1.2-3.2-2.6-6.8-5.3-9.1 2.6 2.1 4.4 5.6 5.6 8.8 1.2 3.4 2.1 6.8 2.9 10.3 1.5 7.1 2.6 14.1 3.5 21.2.9 7.1 1.8 13.8 3.2 20.9 1.2 6.9 2.9 13.7 5 20.3 7.9 6.8 15.6 13.8 22.9 20.6v-33.5l.3-10c.3-3.2.3-6.8.3-10 .1-3.4-.3-6.7-1.2-10-.6-2.9-1.8-6.5-4.1-8.8 2.3 2.5 3.9 5.5 4.7 8.8.9 3.3 1.5 6.6 1.8 10 .3 3.2.3 6.8.3 10l.3 10c.3 6.5.6 13.2.9 20l.6 10 .3 5c.3.8.4 1.6.3 2.4 10.6 9.1 20.3 18.2 28.8 25.9-1.2-7.6-2.4-15.6-3.2-23.2-1.2-11.2-2.4-22.6-2.6-34.1 1.2 11.2 2.9 22.6 5 33.8 1.8 9.4 3.8 18.5 5.9 27.9 5 4.7 9.7 8.8 13.5 12.4.6-2.9 1.2-8.2 1.8-15.3-12.5-29.8-31.9-76.8-42.2-112.7z"/><path id="Path_4332" class="st1" d="M12725.8-10223.7l-2.4.6c.3 3.2.3 6.5.6 9.7l.9 11.5.6 5.6.3 2.9v.6c10 8.8 17.6 16.8 22.1 21.2 1.2-7.4 2.4-15.3 4.4-23.8-.6-5.9-1.8-11.7-3.5-17.4l-10.9 6.2 8.2-13.8c-1.1-2.6-2.4-5.2-3.8-7.6l-9.7 2.6-7.9 10 1.1-8.3z"/><path id="Path_4333" class="st1" d="M12726.9-10229.2c.6-3.5 1.5-8.8 2.6-14.7-1.1-1.2-2.3-2.2-3.5-3.2-35.9-28.2-73.8-47.9-124.4-44.7 0 0-1.8.6-7.6-2.4-5.6-2.9 2.4 1.8 13.2 40 10.9 38.2 70.6 91.5 107.6 92.6 17.1.6 27.6-2.1 31.2-2.9-2.4-2.6-7.1-7.4-13.2-12.9h-1.2c-3.2-.3-6.8-.6-10.3-.6h-10.6c-3.5 0-7.1.3-10.6.3l-5.3.3c-1.8-.1-3.6.1-5.3.6.6-.6 1.5-.6 2.4-.9l2.6-.6 5.3-1.2 10.3-1.8 10.6-1.8c1.8-.1 3.5-.2 5.3-.6-3.2-2.6-6.8-5.6-10.3-8.8-2.6-.6-5.3-1.1-7.9-1.5-4-.6-8.1-.6-12.1 0-4.2.6-8.4.9-12.6.9-4.4 0-8.5 0-12.6-.3 4.1-.3 8.2-.6 12.4-1.2 4.2-.4 8.3-1.1 12.4-2.1 4.4-1.2 8.5-1.2 12.9-1.2h2.1c-3.2-2.9-6.5-5.6-9.7-8.5-2.9 0-5.9-.3-8.8-.3h-11.2c-3.8 0-7.4.3-11.2.3l-5.6.3-2.6.3c-.9.3-1.8.3-2.6.6.8-.4 1.7-.7 2.6-.9l2.6-.6 5.6-1.2c3.8-.9 7.4-1.5 11.2-2.1 3.8-.6 7.4-1.2 11.2-1.8.6 0 1.5-.3 2.1-.3-24.1-20.6-47.6-39.7-47.6-39.7s15.3 11.8 45.9 31.8c-.3-.6-.6-.9-.9-1.5-2.9-4.7-5.3-9.6-7.4-14.7-2.3-5.1-3.4-10.6-3.2-16.2.2-2.6.3-5.3.3-7.9v-3.8c0-.9-.3-1.5-.3-2.1 0-.3-.3-.6-.3-.9-.3 0-.3-.6-.6-.6.3 0 .6.3.6.6s.3.6.3.9l.6 2.1c.3 1.2.6 2.6.9 3.8.5 2.6.9 5.3 1.2 7.9.3 5.3 2.1 10 4.4 14.7 2.4 4.6 5.2 9 8.2 13.2 2.9 4.1 6 8 9.4 11.8-.3-1.5-.3-2.9-.6-4.4-.3-4.1-.6-7.9-.9-12.1-.3-3.8-.6-7.9-1.2-11.8-.2-2-.6-4-1.2-5.9-.5-2-1.5-3.8-2.9-5.3 1.5 1.2 2.4 3.2 3.2 5 .7 1.9 1.3 3.9 1.8 5.9 1.1 3.9 1.9 7.8 2.4 11.8.6 4.1 1.2 7.9 2.1 11.8s2.1 7.6 3.2 11.2v.3c3.8 2.9 7.4 6.2 10.9 9.1v-5.3l.3-11.5c0-3.2.3-6.5.3-9.4l-2.9.9 2.9-2.9c0-1.9-.2-3.7-.6-5.6-.5-1.8-1.3-3.5-2.4-5 1.4 1.4 2.4 3.1 2.9 5 .3 1.5.6 3.2.9 4.7l2.1-2.1c.3-.1.8-.5 1.2-.9z"/><path id="Path_4334" class="st3" d="M12893.4-9751.9l16.8 2.6c39.1 6.2 73.8 11.5 96.5 15 17.1 2.7 33.4 9.5 47.4 19.7l133.8 97.6s-7.9-3.2-26.5.6c-4.7 1-9.3 2.3-13.8 3.8v-.3c-5-1.8-10.3-3.5-15.3-5.3-5.3-1.8-10.3-3.5-15.3-5.6-5-2.1-10-3.8-15-6.2-5-2.4-10-4.4-14.7-7.1 9.4 5.9 19.1 10.6 28.8 15.3 8.2 4.1 16.8 7.6 25.3 11.2-1.8.6-3.2 1.2-5 1.8-5 2.1-13.8 5.6-24.7 9.7-2.6-1.2-5.6-2.4-8.2-3.8l-8.5-4.4c-5.6-2.9-11.2-5.9-16.8-9.1-2.6-1.5-5.6-3.2-8.2-4.7-2.6-1.5-5.3-3.2-8.2-4.7-2.8-1.5-5.8-2.7-8.8-3.5-3-1.1-6.3-1.3-9.4-.6 3.2-.6 6.5.3 9.4 1.2l4.4 1.8c1.5.9 2.6 1.5 4.1 2.4 2.6 1.5 5.3 3.5 7.9 5.3l7.9 5.3c5.3 3.5 10.6 6.8 16.2 10l8.2 4.7 4.4 2.6c-8.5 3.2-17.9 7.1-28.2 10.9-6.2-2.1-12.1-4.1-17.9-6.5-7.1-2.6-13.5-5.6-20.3-8.8-6.8-2.9-13.2-6.2-20.3-8.8l-5.3-1.8c-1.7-.6-3.5-1.1-5.3-1.5-1.8-.6-3.7-.9-5.6-.9-1.9-.1-3.8.1-5.6.6 3.5-.9 7.4-.3 10.9.6 3.5 1 7 2.2 10.3 3.8 6.8 2.9 13.2 6.5 19.7 10 6.8 3.5 13.2 6.8 20 10 4.1 2.1 8.5 3.8 12.9 5.6-12.9 5-27.1 10.3-41.2 15.6h-.3c-.6-.1-1.2-.3-1.8-.6-1.2-.6-2.6-1.2-3.8-1.8-2.6-1.2-5-2.6-7.6-4.1-5-2.9-10-5.9-15.3-8.8-5.2-2.8-10.6-5.4-16.2-7.6-5.6-2.1-11.2-4.1-16.8-5.6 5.6 1.8 11 4.1 16.2 6.8 5.3 2.6 10.4 5.4 15.3 8.5 5 2.9 9.7 6.5 14.7 9.7 2.6 1.5 5 3.2 7.6 4.7.6.3 1.5.9 2.1 1.2-.3.3-.9.3-1.2.6-5.9 2.1-12.1 3.8-17.9 5.3-6.4 1.6-12.9 2.5-19.4 2.6-2.2 0-4.3 0-6.5-.3-2.1-.2-4.2-.7-6.2-1.5-1-.2-2-.6-2.9-1.2l-2.6-1.8c-2.1-1.2-3.8-2.4-5.9-3.5-2-1.1-4.1-2.1-6.2-2.9-4.1-1.8-8.3-3.3-12.6-4.4-4.3-1.1-8.8-1.8-13.2-2.1 6.6.9 13 2.7 19.1 5.3 2.1.9 3.8 2.1 5.9 2.9 1.9 1 3.8 2 5.6 3.2 1.8 1.2 3.6 2.5 5.3 3.8.9.6 2.1 1.5 2.9 2.1 1 .6 2.1 1.1 3.2 1.5 2.2.9 4.4 1.5 6.8 1.8 2.2.4 4.5.6 6.8.6s4.5-.1 6.8-.3h1.5c-14.7 5.6-28.8 10.9-42.1 15.9v-.3l-2.6.9c-1.8.5-3.7.6-5.6.3-1 0-1.9-.3-2.6-.9-.4-.2-.8-.5-1.2-.9-.9-.9-1.8-2.1-2.9-3.2-1.5-1.2-2.9-2.4-4.7-3.5-3.2-2.4-7.1-3.8-10.6-5.6-3.8-1.5-7.4-2.9-11.2-4.4 3.8 1.5 7.4 3.2 10.9 5 3.6 1.7 7 3.6 10.3 5.9 1.6 1.1 3.1 2.4 4.4 3.8.7.7 1.2 1.5 1.8 2.4.7.8 1.5 1.4 2.4 2.1 1.1.8 2.5 1.3 3.8 1.5-31.8 12.1-54.4 20.6-54.4 20.6s32.6-11.2 74.1-25.3c-1.2 1.2-2.4 2.6-3.5 3.8-1.1 1.2-2.1 2.5-2.9 3.8-1 1.2-1.8 2.5-2.6 3.8-1.8 2.6-2.9 5.6-4.4 8.2-1.5 2.6-2.9 5.3-4.7 7.9-1.8 2.6-3.5 5.3-5.3 7.6-2.1 2.6-3.8 5-5.9 7.4-2 2.4-4.2 4.7-6.5 6.8 4.7-4.1 8.9-8.6 12.6-13.5 3.9-4.9 7.3-10.1 10.3-15.6 1.8-2.6 2.9-5.3 4.7-7.9.8-1.3 1.7-2.6 2.6-3.8.9-1.2 2.1-2.4 2.9-3.5.9-1.2 2-2.3 3.2-3.2l3.5-2.6c.6-.3.9-.6 1.5-.9 11.2-3.8 22.6-7.6 34.4-11.8-2 2.3-3.9 4.8-5.6 7.4-1.8 2.6-3.5 5.4-5 8.2-1.5 2.9-2.6 5.9-3.8 8.8-2.1 5.9-4.1 11.8-6.5 17.6-1.2 2.9-2.4 5.6-3.8 8.5-.9 1.5-1.5 2.6-2.4 4.1-.3.7-.7 1.4-1.2 2.1-.4.7-.9 1.3-1.5 1.8 1.3-1 2.4-2.2 3.2-3.5.9-1.5 1.8-2.6 2.6-4.1 1.5-2.9 2.9-5.6 4.4-8.5 1.2-2.6 2.6-5.6 3.8-8.5l3.5-8.8c1.2-2.8 2.6-5.6 4.1-8.2 1.8-2.6 3.5-5.3 5.3-7.6 2.1-2.6 4.1-4.7 6.2-7.1 1-1.2 2.1-2.2 3.2-3.2l1.8-1.5 1.5-2.6c10.6-3.5 20.9-7.1 31.2-10.6l-.9 1.8c-1.5 2.9-2.9 5.6-4.4 8.5-2.9 5.6-5.9 11.5-8.5 17.4-2.6 5.9-4.7 12.1-7.1 17.9-1.5 2.9-2.6 5.9-4.1 8.8-1.1 2.2-2.4 4.2-3.8 6.2l-1.8 1.8c2.6-1.8 4.4-4.7 6.2-7.4 1.7-2.7 3.3-5.6 4.7-8.5 2.9-5.9 5.3-11.8 8.2-17.4 2.9-5.6 6.2-11.2 9.4-16.8 1.8-2.9 3.2-5.6 5-8.2l2.6-4.1 1.2-1.8c14.1-4.7 27.4-9.4 39.1-13.2-2.1 3.8-4.1 7.6-5.9 11.8-1.2 3.2-2.6 6.2-3.8 9.4s-2.4 6.5-3.5 9.4c-2.4 6.3-5.3 12.4-8.5 18.2-3.2 6.2-6.5 11.8-10 17.6 3.8-5.6 7.4-11.2 10.9-17.1 3.5-5.9 6.8-11.8 9.7-17.9 1.5-2.9 2.6-6.2 4.1-9.1 1.5-3.2 2.9-6.2 4.4-9.1 2.7-5.3 5.6-10.4 8.8-15.3 14.4-5 26.2-8.8 33.2-11.2-1.8 4.1-3.2 7.9-5 12.1-2.6 6.2-5.3 12.1-7.9 18.2l-8.2 18.2c-1.5 2.9-2.9 6.2-4.1 9.1l-2.1 4.7c-.3.9-.6 1.5-.9 2.4l-.3 1.2c0 .3-.3.9 0 1.2 0-.3.3-.9.3-1.2l.6-1.2c.3-.9.9-1.5 1.2-2.4l2.4-4.4c1.5-2.9 2.9-5.9 4.7-8.8l10-17.4 9.7-17.6c2.9-5.6 5.9-11.2 8.5-16.8 6.9-1.7 13.8-2.9 20.9-3.5l-1.2 3.5c-.8 2.5-1.8 5-2.9 7.4l-3.5 7.1c-1.2 2.4-2.6 4.6-4.1 6.8-2.9 4.4-6.2 8.5-9.4 12.9l-9.7 12.6 10.6-12.1c1.8-1.8 3.5-3.8 5.3-5.9 1.8-2.1 3.2-4.1 5-6.2 3.3-4.3 6.2-8.8 8.8-13.5 1.4-2.4 2.5-4.8 3.5-7.4l1.5-3.8c.1-.6.3-1.2.6-1.8 3.5-.6 7.4-.6 11.2-.9 7.6-.3 15.3-.3 22.1 0 20.3.9 44.7 33.5 51.2 32.6 6.5-1.2 8.5-5-1.5-15-10-9.7-17.9-13.2-51.8-49.1-3.5-3.5-5.6-10.6-6.8-20.6-.3-3.2-.6-7.1-.9-10.9.6-.3.9-.6 1.5-.9l3.5-2.4c2.1-1.8 4.4-3.2 6.5-5 4.1-3.5 7.9-7.4 11.5-11.5 3.5-4.1 6.8-8.5 10-12.6l9.7-12.6-10.6 12.1c-3.5 4.1-6.8 7.9-10.6 11.8-3.7 3.8-7.8 7.2-12.1 10.3-2 1.5-4.2 2.9-6.5 4.1l-2.9 1.8c-.3-6.8-.3-14.1 0-22.1 4.7-3.5 9.1-7.1 13.5-10.6 5-4.1 10.3-8.5 15.3-12.9l15-13.2c2.6-2.1 5-4.4 7.6-6.5l3.8-3.2c.6-.6 1.5-.9 2.1-1.5l.9-.6c.6-.3.9-.6 1.2-.6-.3-.3-.9.3-1.2.3l-1.2.6c-.6.6-1.5.9-2.1 1.5l-4.1 2.9c-2.9 2.1-5.6 3.8-8.2 5.9l-16.2 11.8c-5.3 3.8-10.6 7.6-16.2 11.5-3.2 2.4-6.8 4.7-10 6.8.3-10.3 1.2-21.5 2.4-33.2 4.7-4.4 9.4-8.5 14.4-12.6l7.9-6.2c2.6-2.1 5.6-3.8 8.2-5.9 5.5-4.1 10.7-8.5 15.6-13.2 5-4.4 9.7-9.1 14.4-14.1-5 4.4-10 8.8-15.3 13.2-5.3 4.1-10.6 8.2-16.2 12.1-2.6 1.8-5.6 3.5-8.5 5.3-2.9 2.1-5.9 3.8-8.5 5.9-4.1 2.9-7.9 5.9-11.8 9.1 1.5-12.9 2.9-26.5 4.7-40.3.3-.1.6-.3.9-.6l.9-.9 1.8-1.8 3.5-3.2c2.4-2.1 4.7-4.4 7.1-6.5 4.7-4.1 9.4-8.2 14.4-12.4s10-7.6 15.3-11.5c2.4-2.1 5-4.1 7.4-6.2 2.5-2 4.6-4.5 6.2-7.4-1.5 2.9-4.1 5-6.5 7.1-2.4 2-5 3.9-7.6 5.6-5.3 3.5-10.9 6.8-16.2 10.6s-10.3 7.6-15.3 11.8c-2.4 2.1-5 4.1-7.4 6.2l-3.2 2.9c.6-4.1 4.4-27.1 4.7-32.6l.3-.3.3-.6.6-1.2 1.2-2.1c.9-1.2 1.8-2.6 2.6-3.8 1.7-2.6 3.6-5 5.6-7.4 4.1-4.6 8.7-8.8 13.8-12.4 5.3-3.5 10.6-7.1 15.6-10.9 2.6-2.1 5-4.1 7.4-6.2 1.2-1 2.4-2.1 3.5-3.2 1.2-1.1 2.2-2.4 2.9-3.8-.6 1.5-1.8 2.4-2.9 3.5-1.2.9-2.4 2.1-3.5 2.9-2.4 2-5 3.9-7.6 5.6-5.3 3.5-10.6 6.8-16.2 10-5.6 3.3-10.6 7.3-15 12.1-2.3 2.3-4.5 4.8-6.5 7.4 0 .3-.3.6-.6.9 2.1-13.2 4.1-26.5 6.2-38.8v-.3c1.1-2.8 2.6-5.5 4.4-7.9 1.9-2.4 4-4.7 6.2-6.8 2.4-2.4 4.7-4.1 7.1-6.2 4.7-4.1 9.1-8.5 13.2-13.2 4.1-4.8 7.7-9.9 10.9-15.3-3.3 5.2-7 10.1-11.2 14.7-4.2 4.5-8.7 8.7-13.5 12.6-2.6 1.8-5 3.8-7.4 5.9-2.3 2.1-4.5 4.4-6.5 6.8-.9 1-1.7 2-2.4 3.2 8.8-53.8 17.1-95.3 17.1-95.3-6.8 30-12.6 57.1-17.6 82.1-.3-2.4-.3-4.4-1.2-6.8-.6-1.2-1.3-2.4-2.1-3.5-.5-.6-1.1-1.1-1.8-1.5-.6-.4-1.1-.6-1.8-.9-2.2-1.3-4.1-2.9-5.9-4.7-1.8-1.8-3.2-3.5-5-5.6-3.2-3.8-6.2-7.9-9.1-12.1 2.6 4.4 5.6 8.5 8.5 12.6 1.8 2.1 3.2 4.1 5 5.9 1.8 1.9 3.7 3.6 5.9 5 1.5.9 2.4 1.2 2.9 2.1.7 1 1.2 2.1 1.5 3.2.6 2.4.9 4.9.9 7.4-.1 5-.5 10.1-1.5 15-2.1 9.7-3.5 18.8-5.3 27.6-.5-4.1-1.5-8.2-2.9-12.1-.8-2.2-1.9-4.2-3.2-6.2-.5-1.1-1.2-2.1-2.1-2.9-.8-.9-1.7-1.7-2.6-2.4-3.4-2.8-6.5-5.9-9.1-9.4-5.7-6.8-10-14.6-12.9-22.9 2.5 8.6 6.4 16.8 11.5 24.1 2.7 3.6 5.6 7.1 8.8 10.3l2.4 2.4 1.8 2.6c1.2 1.7 2.1 3.6 2.6 5.6 2.9 8.2 3.5 17.1 3.2 25.9v1.8c-1.2 5.6-2.1 11.2-2.9 16.8 0-.3-.3-.3-.3-.6-2.1-2.4-4.1-4.4-6.2-6.5-4.4-4.1-8.5-8.2-12.6-12.4-4.1-4.1-8-8.6-11.5-13.2-3.6-4.7-6.8-9.6-9.7-14.7 2.5 5.3 5.5 10.4 8.8 15.3 3.3 4.9 6.8 9.6 10.6 14.1 3.8 4.7 7.9 8.8 11.8 13.2 1.8 2.4 3.8 4.4 5.6 6.8l2.6 3.5c-2.6 16.2-5 31.2-6.8 44.4-2.4-3.5-4.7-7.1-7.4-10.6-4.4-5.9-9.1-11.8-13.8-17.4-4.7-5.6-9.4-11.5-13.8-17.4-2.1-3-4.1-6.2-5.9-9.4-1.8-3.2-3.2-6.8-2.9-10.6-.1 3.8.7 7.5 2.4 10.9 1.5 3.4 3.3 6.6 5.3 9.7 4.1 6.5 8.5 12.4 12.9 18.2 4.4 5.9 8.8 11.8 12.9 17.9 3.4 4.9 6.6 10 9.4 15.3-1.8 13.2-3.2 25-4.1 35.6-6.8-8.8-13.5-17.4-20.6-25.9l-7.1-7.9c-2.6-2.6-5-5.3-7.6-7.6-2.6-2.5-4.9-5.2-6.8-8.2-1.8-3.2-3.5-6.5-3.5-10-.3 3.8 1.2 7.1 2.9 10.3 1.7 3.2 3.8 6.1 6.2 8.8l7.1 7.9c2.4 2.6 4.7 5.4 6.8 8.2 7.6 10 14.7 20.3 21.8 30.9-.9 12.6-1.5 23.2-1.8 32.1-5.6-8.2-11.2-16.5-17.1-24.4l-11.5-15c-4.1-5-7.9-9.7-12.4-14.4 4.1 4.7 8 9.8 11.5 15 3.8 5 7.1 10.3 10.6 15.6 6.5 10.3 12.6 20.6 18.8 30.9 0 4.1.3 7.9.3 11.2.9 21.8 4.4 26.8 4.4 26.8l-139.1-100.3c-7.9-6.5-15.9-12.9-23.2-19.1-.3-1.2-.6-2.9-1.2-4.7-2.6-10-6.5-24.4-10.6-40.9 4.1-5.6 8.2-10.9 12.4-16.2 4.4-5.6 8.5-11.5 12.9-17.4l12.6-17.6c2.1-2.6 4.1-5.6 6.5-8.5.9-1.2 2.1-2.6 3.2-4.1l1.8-2.1.9-.9c.3-.3.6-.9.9-.9-.5 0-.9.2-1.2.6l-.9.9-1.8 2.1c-1.4 1.3-2.6 2.7-3.8 4.1-2.4 2.6-4.7 5.6-7.1 8.2l-14.1 16.5c-5 5.6-9.7 11.2-14.4 16.5l-10.6 11.5c-2.9-11.2-5.9-23.2-8.8-35.3 3.5-5.5 7.3-10.8 11.5-15.9 2.4-2.9 4.7-5.6 7.1-8.5 2.4-2.9 5-5.6 7.4-8.5 4.9-5.7 9.4-11.6 13.5-17.9 4.1-6.2 8.2-12.4 12.1-18.8-4.1 6.2-8.5 12.4-12.9 18.2-4.7 5.9-9.4 11.8-14.4 17.1l-7.9 7.9c-2.7 2.6-5.3 5.4-7.6 8.2-3.5 4.1-6.8 8.2-10 12.4-1.8-7.1-3.5-14.1-5-21.2v-.3c-.1-.9-.3-1.8-.6-2.6-.9-3.8-1.8-7.6-2.6-11.2-.3-1.8-.9-3.8-1.2-5.9l.6-1.2 1.5-2.4 2.9-4.4c1.8-2.9 3.8-5.9 5.9-8.8 4.1-5.9 8.2-11.5 12.6-17.1s9.1-10.6 13.8-16.2c2.3-2.7 4.5-5.6 6.5-8.5 1.1-1.4 2.1-2.9 2.9-4.4.8-1.6 1.4-3.3 1.8-5-.4 1.7-1.1 3.3-2.1 4.7-.9 1.5-1.9 3-2.9 4.4-2.1 2.6-4.4 5.3-6.8 7.9-5 5.3-10 10.3-14.7 15.6s-9.1 10.9-13.5 16.5c-2.1 2.9-4.4 5.6-6.5 8.5l-2.9 4.1c-1.2-4.7-2.1-9.4-3.2-14.1-.9-4.7-1.5-9.1-2.1-12.6-.3-2.6-.9-5-1.2-7.6l.3-.6.3-1.2.9-2.4c.6-1.5 1.2-3.2 1.8-4.7 1.2-3.2 2.6-6.4 4.1-9.4 3.1-6.1 7.1-11.7 11.8-16.8 5-5 9.7-10.3 14.1-15.6 2.3-2.6 4.5-5.4 6.5-8.2 1.1-1.4 2.1-2.9 2.9-4.4.3-.9.9-1.5 1.2-2.4.5-.7.8-1.5.9-2.4 0 .9-.6 1.5-.9 2.4-.6.6-.9 1.5-1.5 2.1-.9 1.4-1.9 2.8-2.9 4.1-2.1 2.6-4.4 5.3-6.8 7.9-4.7 5.3-9.7 10-14.7 14.7-5.3 4.7-9.7 10.3-13.2 16.5-2 3-3.6 6.1-5 9.4-.2.7-.5 1.4-.9 2.1-2.1-12.6-4.4-26.5-7.1-40v-.9c.4-3.2 1.3-6.4 2.6-9.4 1.2-3.1 2.8-6.1 4.7-8.8 1.8-2.9 3.8-5.6 5.9-8.2 4.1-5.3 7.6-11 10.6-17.1 3.1-5.9 5.5-12.1 7.4-18.5-2 6.4-4.7 12.6-7.9 18.5s-6.8 11.5-10.9 16.8l-6.2 7.9c-1.8 2.8-3.5 5.8-5 8.8-.8 1.9-1.5 3.9-2.1 5.9-1.8-10.3-3.8-20.3-5.6-29.4-4.4-22.4-7.9-38.5-7.9-38.5l6.5 40 5.9 36.8c0 1.8.3 3.6.9 5.3l5.6 35c-2.3-6.3-4.9-12.5-7.9-18.5-2.9-5.3-6.2-10.6-10.9-15-1.1-1.1-2.4-2.1-3.8-2.9-1.4-.8-2.9-1.5-4.4-2.1-2.6-1.2-5.6-2.4-8.2-3.5-3.2-1.8-6.5-3.5-9.7-5.6-7-4.3-13.4-9.7-18.8-15.9 5.1 6.5 11 12.2 17.6 17.1 3.2 2.3 6.6 4.5 10 6.5 2.7 1.5 5.4 2.9 8.2 4.1 1.3.4 2.6 1 3.8 1.8 1.2.9 2.1 1.8 3.2 2.6 4.1 4.2 7.5 9.1 10 14.4 5.3 10.6 9.1 22.4 12.1 33.8 1.8 6 3.3 12.1 4.4 18.2-4.4-8.2-9.7-16.2-17.4-22.1-2-1.5-4.2-2.8-6.5-3.8-2.3-.9-4.6-1.8-6.8-2.9-4.4-2.1-8.8-4.1-13.2-6.5-8.7-4.4-17-9.6-24.7-15.6 7.4 6.5 15.3 11.8 23.8 17.1 4.4 2.6 8.5 5 12.9 7.4 2.1 1.2 4.4 2.1 6.5 3.2 2.1 1.1 4 2.4 5.9 3.8 7.4 5.9 12.4 14.1 16.5 22.9 2.3 5.1 4.3 10.5 5.9 15.9l2.6 16.8c-5-3.5-10-6.8-15-10-7.1-4.7-14.4-8.5-21.8-12.6-7.4-3.8-14.7-7.9-21.8-12.4-3.5-2.4-6.8-4.7-10-7.4-2.9-2.6-6.2-5.6-7.4-9.7 1.2 4.1 4.1 7.4 7.1 10.3 3.2 2.6 6.5 5.3 10 7.6 6.8 4.7 14.1 9.1 21.2 13.5 7.4 4.4 14.4 8.8 21.2 13.5 6.2 4.4 12.4 8.8 17.9 13.5l4.4 28.5-2.6-1.2-10.6-4.4-21.2-8.8-10.6-4.4-10.6-4.4c-3.5-1.5-6.7-3.3-9.7-5.6-2.9-2.4-5.9-5-7.4-8.5.6 1.9 1.6 3.6 2.9 5 1.2 1.5 2.6 2.9 4.1 4.1 3 2.4 6.3 4.5 9.7 6.2 3.3 1.8 6.8 3.5 10.3 5l10.3 5 20.6 10 10.3 5 5 2.6 8.8 54.4c-50.9-43.2-87.1-79.1-112.9-107.6-57.4-63.5-63.2-92.4-63.2-92.4v-8.5c0-2.9 0-6.2.3-9.1l2.6-.6c2.6-.9 5.6-1.8 8.2-2.6 5.6-2.1 10.9-4.1 16.2-6.5 5.3-2.4 10.3-5 15.6-7.4l15.6-7.7-15.9 6.5c-5.6 2.4-10.9 4.4-16.2 6.5-5.6 2.1-10.9 3.8-16.5 5.3-2.7.8-5.5 1.5-8.2 2.1l-1.5.3c.7-7.8 1.7-15.6 3.2-23.2 14.1-3.2 28.5-6.5 42.6-10l21.8-5.3c3.5-.9 7.4-1.5 10.9-2.4 1.8-.5 3.7-.9 5.6-1.2l2.6-.6 1.5-.3c.3 0 .9-.3 1.2 0-.3-.2-.8-.3-1.2-.3h-1.5l-2.9.3c-1.9 0-3.7.2-5.6.6-3.8.3-7.4.9-11.2 1.5l-22.1 3.5-40.6 6.2c1.5-7.4 3.2-14.7 5.3-21.8 7.4-3.8 15-7.6 22.6-10.9 8.1-3.6 16.6-6.4 25.3-8.2 4.1-.6 8.8-1.2 13.2-2.1s8.8-1.8 13.2-2.9c8.8-2.1 17.4-4.7 25.9-7.6-8.6 2.6-17.3 4.8-26.2 6.5-4.4.9-8.8 1.8-13.2 2.4s-8.8.9-13.5 1.5c-9.1 1.5-17.6 4.4-26.2 7.6-6.5 2.6-12.9 5.6-19.4 8.5 5.2-16.9 11.3-33.5 18.2-49.7l.6-.3 5-1.5c3.5-1.2 6.8-2.1 10.3-2.9 6.8-1.8 13.5-3.2 20.6-4.7 6.8-1.5 13.8-2.4 20.9-3.5 3.2-.6 6.8-1.5 10.3-2.4 1.8-.6 3.2-1.2 5-1.8 1.8-.9 3.5-1.5 4.7-2.6-1.4 1.1-3 1.9-4.7 2.4-1.6.7-3.3 1.2-5 1.5-3.5.9-7 1.5-10.6 1.8-7.1.9-14.1 1.2-21.2 2.4s-14.1 2.4-21.2 3.8c-3.2.9-6.8 1.5-10.3 2.4l-2.6.6c2.6-6.2 5.3-12.1 8.2-17.9l2.1-1.5 4.4-2.6c2.9-1.8 5.9-3.2 9.1-4.4 6.3-2.6 12.9-4.2 19.7-5 6.8-.6 13.8-1.5 20.6-2.6 3.5-.6 7.1-1.2 10.3-2.1 1.8-.6 3.2-.9 5-1.5l2.4-.9c.8-.4 1.6-.9 2.4-1.5-.7.6-1.5 1-2.4 1.2l-2.4.9c-1.6.6-3.3 1-5 1.2-3.5.6-6.8 1.2-10.3 1.5-7.1.6-13.8 1.2-20.9 1.5-7.1.5-14.1 1.9-20.9 4.1-3.4 1.2-6.7 2.6-10 4.1-.6 0-.9.3-1.5.6 3.2-6.5 6.5-12.6 9.7-18.5 1.7-1.2 3.5-2.3 5.3-3.2 2.9-1.5 6-2.7 9.1-3.5 3.2-.9 6.5-1.5 9.7-2.4 6.5-1.5 12.9-3.5 19.1-6.2 6.2-2.5 12.1-5.7 17.6-9.4-5.7 3.5-11.7 6.5-17.9 8.8-6.2 2.3-12.6 4.2-19.1 5.6-3.2.6-6.5 1.2-9.7 2.1-3.4.6-6.6 1.7-9.7 3.2-.9.6-1.8.9-2.6 1.5 16.5-30 30-49.7 30-49.7-17.1 16.2-31.5 36.5-43.2 58.2 0-4-.3-7.9-1.2-11.8-.3-2.6-1.1-5.1-2.4-7.4-1.3-2.1-2.3-4.2-3.2-6.5-2.1-4.4-4.1-9.1-5.9-13.5-3.6-9.1-6.4-18.4-8.5-27.9 1.6 9.7 4 19.2 7.1 28.5 1.5 4.7 3.2 9.1 5 13.8.9 2.4 2.1 4.4 2.9 6.8.8 2.2 1.5 4.5 2.1 6.8 1.1 6.4 1 13-.3 19.4-5 10.6-10 21.2-14.1 31.8-.8-5.5-2.3-11-4.4-16.2-2.9-8.2-6.2-16.5-8.8-24.7-1.2-4.1-2.4-8.2-3.2-12.6s-1.2-8.8.6-12.9c-2.1 4.1-1.8 8.5-1.2 12.9.6 4.4 1.5 8.7 2.6 12.9 2.1 8.2 5 16.8 7.6 25 2.8 7.3 4 15.1 3.5 22.9-6.4 16.2-11.8 32.8-16.2 49.7l-.6-2.4c-.6-3.8-1.5-7.6-2.4-11.5-1.8-7.4-3.5-15-5.9-22.4-1.2-3.5-2.4-7.4-3.8-10.9-1.5-3.8-3.5-7.1-5-10.6-1.6-3.5-2.9-7.2-3.8-10.9-.9-3.8-1.5-7.6-.3-11.5-1.5 3.5-.9 7.6-.3 11.5.6 3.8 1.7 7.6 3.2 11.2 1.5 3.5 3.2 7.1 4.4 10.6s2.4 7.1 3.2 10.9c1.8 7.6 3.2 15 4.7 22.6l1.8 11.5.9 5.6c.2 2 .5 3.9.9 5.9-3.2 12.6-5.9 23.8-7.6 33.2-2.9-9.4-5.6-18.8-8.8-28.2-4.1-12.4-8.5-24.7-13.8-36.8 4.7 12.1 8.2 24.7 11.8 37.4 3.2 12.4 6.5 24.7 9.1 37.4-1.2 6.2-1.8 10.9-2.4 13.8-.1 1.2-.3 2.4-.6 3.5 0 0-.6-1.2-2.1-3.5-7.1-12.1-30.9-55.6-49.1-125.9-2.1-7.4-3.8-14.7-5.6-22.6-4.4-20.3-.6-45.9 5.6-69.7-1 .6-2 1.3-2.9 2.1l-4.7 3.2.9-5.6c.3-.6 2.4-12.6 7.1-25.9l-4.7 2.6c-2.8 7.6-5.1 15.3-6.8 23.2-2 7.8-3.4 15.8-4.4 23.8-4.4-4.4-12.4-12.4-22.1-21.2v-.6l-.3-2.9-.6-5.6-.9-11.5c-.3-3.2-.3-6.5-.6-9.7l-1.5.3c0 3.2-.3 6.5-.3 9.4l-.3 11.5v5.3c-3.5-2.9-7.1-6.2-10.9-9.1v-.3c-1.5-3.2-2.4-7.4-3.2-11.2-.9-3.8-1.5-7.6-2.1-11.8-.9-3.8-1.5-7.9-2.4-11.8-.4-2-1-4-1.8-5.9-.6-1.9-1.7-3.7-3.2-5 1.4 1.5 2.4 3.3 2.9 5.3a56 56 0 0 1 1.2 5.9c.6 3.8.9 7.6 1.2 11.8s.3 7.9.9 12.1c.3 1.5.3 2.9.6 4.4-3.2-3.8-6.5-7.6-9.4-11.8-3.2-4.1-5.9-8.6-8.2-13.2-2.4-4.7-4.1-9.4-4.4-14.7-.3-2.6-.9-5.3-1.2-7.9-.3-1.2-.6-2.6-.9-3.8l-.6-2.1c0-.3-.1-.6-.3-.9 0-.3-.3-.6-.6-.6.3 0 .6.3.6.6.2.2.3.6.3.9.2.7.3 1.4.3 2.1v3.8c0 2.6-.3 5.3-.3 7.9-.1 5.6 1 11.1 3.2 16.2 2.1 5.1 4.6 10 7.4 14.7.3.6.6.9.9 1.5-30.6-20-45.9-31.8-45.9-31.8s23.2 19.1 47.7 39.7c-.6 0-1.5.3-2.1.3-3.8.6-7.4 1.2-11.2 1.8-3.8.6-7.4 1.5-11.2 2.1l-5.6 1.2-2.6.6c-.9.3-2.1.3-2.6.9.8-.5 1.7-.7 2.6-.6l2.6-.3 5.6-.3c3.8-.3 7.4-.3 11.2-.3h11.2c2.9 0 5.9 0 8.8.3 3.2 2.9 6.5 5.9 9.7 8.5h-2.1c-4.4 0-8.8 0-12.9 1.2-4.1.9-8.2 1.5-12.4 2.1s-8.2.9-12.4 1.2c4.1.3 8.5.3 12.6.3 4.2 0 8.5-.3 12.6-.9 4-.6 8.1-.6 12.1 0 2.7.3 5.3.8 7.9 1.5 3.8 2.9 7.1 5.9 10.3 8.8-1.8.1-3.5.2-5.3.6l-10.6 1.8-10.3 1.8-5.3 1.2-2.6.6c-.6.3-1.8.3-2.4.9 1.8-.6 3.5-.3 5.3-.6l5.3-.3c3.5-.3 7.1-.3 10.6-.3h10.6c3.5.3 7.1.3 10.3.6.3.3.9 0 1.2 0 6.2 5.6 10.9 10 13.2 12.9.2.4.5.8.9 1.2-1.7 15.7-.9 31.6 2.4 47.1.6 3.5 1.5 6.8 2.4 10.3 10.3 36.5 30 83.5 42.9 113.2 7.4 17.4 12.6 28.5 12.6 28.5s-5.3-5-14.4-13.2c-3.8-3.5-8.5-7.6-13.5-12.4-2.1-9.1-4.1-18.5-5.9-27.9-2.1-11.2-3.8-22.4-5-33.8.3 11.2 1.5 22.6 2.6 34.1 1.2 7.6 2.1 15.6 3.2 23.2-8.8-7.6-18.5-16.5-28.8-25.9-.3-.8-.4-1.6-.3-2.4l-.3-5-.6-10c-.3-6.5-.6-13.2-.9-20l-.3-10c0-3.2 0-6.5-.3-10-.3-3.4-.9-6.7-1.8-10-.8-3.3-2.4-6.3-4.7-8.8 2.4 2.4 3.2 5.6 4.1 8.8.8 3.3 1.2 6.6 1.2 10 0 3.2-.3 6.8-.3 10l-.3 10v33.5c-7.6-6.8-15.3-13.5-22.9-20.6-2.1-6.5-3.5-13.5-5-20.3-1.2-6.8-2.4-13.8-3.2-20.9-.9-7.1-2.1-14.1-3.5-21.2-.8-3.5-1.8-6.9-2.9-10.3-1.1-3.4-3-6.4-5.6-8.8 2.6 2.4 4.1 5.9 5.3 9.1 1.1 3.4 1.9 6.8 2.4 10.3 1.2 7.1 1.8 14.1 2.4 21.2s1.2 14.1 2.1 21.2c.6 4.7 1.5 9.4 2.4 14.1-1.5-1.5-2.9-2.6-4.4-4.1-5.9-6.8-11.5-14.1-16.8-21.5-5.4-7.6-10.2-15.7-14.1-24.1-4.1-8.2-7.1-17.1-7.4-26.5-.3-4.7-.9-9.4-1.5-14.1-.2-2.4-.6-4.7-1.2-7.1l-.9-3.5c-.3-.6-.3-1.2-.6-1.8 0-.3-.1-.6-.3-.9-.2-.2-.4-.3-.6-.3.3 0 .6.3.6.6s.3.6.3.9c0 .6.3 1.2.3 1.8.3 1.1.5 2.3.6 3.5.3 2.3.5 4.7.6 7.1.3 4.7.3 9.4.3 14.1 0 9.7 2.6 19.1 6.2 27.9 3.3 8.2 7.3 16.1 12.1 23.5-30.9-27.9-57.4-51.8-64.1-57.6-39.1-33.8-2.1 2.9 76.8 76.2.4.8.9 1.4 1.5 2.1-4.4.3-9.1.9-13.5 1.2-6.5.6-13.2 1.5-19.7 2.4-6.5.9-13.2 2.1-19.7 2.9-3.2.3-6.5.9-9.7 1.5l-5 .9-2.4.6-1.2.3c-.6.3-1.2.3-1.2.6.3-.2.8-.3 1.2-.3l1.2-.3 2.4-.3 5-.6c3.5-.3 6.8-.6 10-.9 6.5-.6 13.2-.9 19.7-1.2 6.5-.3 13.2-.6 19.7-.6 6.8 0 13.2 0 19.7.3h1.2c6.8 6.5 14.1 13.2 21.5 20-4.1-.6-8.5-.9-12.9-1.2-7.6-.4-15.2.1-22.6 1.8-7.1 1.5-14.4 2.4-21.8 3.2-7.4.9-14.7 1.2-22.1 1.5 7.4 0 15 0 22.4-.3 7.5-.2 15-.9 22.4-2.1 7.1-1.5 14.4-1.2 21.8-.6 6.5.6 13 1.7 19.4 3.2 6.5 5.9 13.2 12.1 20 18.2-4.4.3-8.5.9-12.9 1.2-6.5.6-13.2 1.5-19.7 2.4s-13.2 2.1-19.7 2.9c-3.2.3-6.5.9-9.7 1.5l-5 .9-2.4.6-1.2.3c-.6.3-1.2.3-1.2.6.3-.2.8-.3 1.2-.3l1.2-.3 2.4-.3 5-.6c3.5-.3 6.8-.6 10-.9 6.5-.6 13.2-.9 19.7-1.2s13.2-.6 19.7-.6c6.8 0 13.2 0 19.7.3 4.4 4.1 9.1 8.2 13.5 12.4l-2.1.6c-2.5.9-5 1.5-7.6 1.8-5.2.8-10.4 1.2-15.6 1.2-5.3 0-10.6-.6-15.9-.9l-15.9-1.2 15.9 2.4c5.3 1 10.6 1.7 15.9 2.1 8.1.8 16.2.4 24.1-1.2l3.8-.9h1.2c2.6 2.4 5.3 5.3 8.5 8.5 17.1 17.4 43.2 46.8 70.3 79.1 7.6 9.1 19.7 21.8 33.5 35.3 35.9 35 84.1 78.2 104.7 96.2 5.9 5.3 9.7 8.5 9.7 8.5s16.5 13.5-.6 13.2c-7.1 0-45.9-5.9-97.4-13.8-4.1-.6-8.2-1.5-12.6-2.1v-.3l-2.1-3.5c-1.3-2.4-2.8-4.6-4.4-6.8-3.2-4.3-6.8-8.3-10.6-12.1-3.8-3.8-7.9-7.1-12.1-10.6l-12.1-10.3 11.5 11.2c3.8 3.8 7.6 7.6 11.2 11.5 3.5 3.9 6.6 8.2 9.4 12.6 1.4 2.2 2.7 4.4 3.8 6.8l.6.9c-7.1-1.2-14.1-2.4-21.5-3.5l-23.2-29.1c-3.8-4.7-7.6-9.7-11.5-14.7-1.8-2.4-3.8-4.7-5.6-7.4l-2.6-3.8-1.2-2.1-.6-.9c0-.3-.3-.6-.3-.9 0 .3.3.9.3 1.2l.6 1.2 1.2 2.1 2.4 4.1c1.8 2.6 3.2 5.3 5 7.9l10.3 15.6 16.8 25.6c-11.5-1.8-23.2-3.8-35-5.6-3.7-3.9-7.1-8-10.3-12.4l-5.3-7.9c-1.8-2.6-3.5-5.6-5.3-8.2-3.7-5.3-7.6-10.4-11.8-15.3-4.1-5-8.2-9.7-12.6-14.4 4.1 5 7.9 10 11.8 15.3 4 5.1 7.6 10.4 10.9 15.9 1.8 2.9 3.2 5.6 4.7 8.5 1.5 2.6 3.2 5.6 5 8.2 2.4 3.2 4.4 6.5 6.8 9.4-13.5-2.1-26.8-4.4-40.3-6.5l-.3-.3-2.9-3.5-6.2-7.1c-4.1-4.7-7.9-9.6-11.5-14.7-3.5-5-6.8-10.3-10.3-15.6-1.7-2.7-3.6-5.2-5.6-7.6-1.8-2.5-4.1-4.6-6.8-6.2 2.5 1.9 4.7 4.2 6.5 6.8 1.8 2.6 3.5 5.3 5 7.9 3.2 5.3 5.9 10.9 9.4 16.2 3.3 5.4 6.8 10.6 10.6 15.6 1.8 2.6 3.8 5.3 5.6 7.6l.3.3c-11.5-2.1-22.9-3.8-34.1-5.6-1-.6-2-1.3-2.9-2.1-2.4-1.8-4.7-3.8-7.1-5.9-4.6-4.2-8.5-9.1-11.8-14.4-3.2-5.6-6.5-10.9-10-16.2-1.7-2.7-3.6-5.2-5.6-7.6-.9-1.2-1.9-2.4-2.9-3.5-.9-.9-2.1-2.4-3.5-2.9 1.4.8 2.6 1.9 3.5 3.2 1.1 1.2 2.1 2.5 2.9 3.8 1.8 2.6 3.2 5.3 5 7.9 3.5 5.6 6.2 11.2 9.1 16.8 3 5.7 6.8 10.9 11.2 15.6l4.4 4.4c-12.4-2.1-24.7-4.1-36.2-5.9-2.3-1.2-4.5-2.7-6.5-4.4-2.3-2-4.5-4.2-6.5-6.5-1.8-2.4-3.8-5-5.6-7.4-3.9-4.9-8.1-9.5-12.6-13.8-4.3-4.5-9.2-8.4-14.4-11.8 10 7.3 18.9 16.1 26.2 26.2 1.7 2.7 3.6 5.2 5.6 7.6 1.9 2.5 4.1 4.7 6.5 6.8.9.9 1.9 1.7 2.9 2.4-57.4-9.1-99.4-16.2-99.4-16.2s59.4 14.7 75.6 18.8c-.9 1.2-1.7 2.5-2.4 3.8-1.1 1.6-2.4 3.1-3.8 4.4-6 5.2-12.5 9.8-19.4 13.8 3.5-1.8 7-3.7 10.3-5.9 3.2-2.4 6.8-4.4 9.7-7.1 1.5-1.3 2.9-2.8 4.1-4.4.8-1.5 1.8-2.8 2.9-4.1 2.6.6 20.9 3.5 47.9 7.9-2.9.5-5.7 1.2-8.5 2.1-2.2.8-4.4 1.8-6.5 2.9-1 .6-2 1.3-2.9 2.1-.9.7-1.6 1.5-2.4 2.4-3.1 3.2-6.4 6-10 8.5-7 5.4-15 9.3-23.5 11.8 8.8-1.8 17.1-5.2 24.7-10 3.9-2.3 7.5-5 10.9-7.9l2.4-2.1 2.6-1.8c1.8-1.2 3.8-2.1 5.9-2.6 4.1-1.4 8.3-2.2 12.6-2.4 4.3-.3 8.6-.3 12.9 0 6.2 1.2 12.9 2.1 20 3.2-.3.6-.9.9-1.5 1.5-2.4 1.8-4.6 3.8-6.8 5.9-4.4 4.1-8.8 8.2-13.2 12.1-4.5 3.9-9.2 7.5-14.1 10.9-4.9 3.4-10 6.5-15.3 9.1 5.5-2.2 10.8-4.8 15.9-7.9 5.1-3.1 10-6.4 14.7-10 4.7-3.5 9.1-7.4 13.8-11.2 2.4-2.1 4.7-3.8 7.1-5.6l3.5-2.6c.3-.3.9-.6 1.2-.9 15.3 2.4 32.1 5 49.1 7.6-5 2.6-9.7 5.3-14.4 8.2-6.5 4.1-13.2 8.5-19.4 13.2-6.5 4.7-12.6 9.4-19.1 13.5-3.2 2.2-6.5 4.2-10 5.9-3.4 1.9-7.3 2.8-11.2 2.6 3.8.6 7.9-.6 11.5-2.1 3.7-1.5 7.2-3.2 10.6-5.3 6.8-4.1 13.2-8.2 19.7-12.6s13.2-8.2 20-12.1c6.5-3.5 13.5-7.1 20.3-10 8.8 1.2 17.6 2.6 26.8 4.1l-.3.3-4.1 3.2-7.9 6.8c-5.3 4.7-10.3 9.1-15.6 13.8-5 4.7-10.3 9.4-15.3 14.1-2.7 2.1-5.6 4.1-8.5 5.9-2.9 1.5-6.2 2.9-9.7 2.9 3.5.3 6.8-.9 10-2.4 3.1-1.6 6.1-3.5 8.8-5.6 2.6-2.4 5.3-4.7 7.9-6.8l7.9-6.5c5.6-4.4 10.9-8.8 16.5-12.9l8.2-6.5 4.1-3.2c1.1-1 2.3-1.9 3.5-2.6 12.4 1.8 24.4 3.8 36.5 5.6-7.4 4.7-14.1 9.4-21.2 14.1-9.4 6.5-18.5 13.2-27.4 20.6 9.4-6.8 19.1-12.9 28.8-18.8 9.1-5.2 17.6-10.2 28.5-15.8z"/><path id="Path_4335" class="st3" d="M12721.6-10230.1c.5 1.8.7 3.7.6 5.6l1.2-1.2c0-1.6-.3-3.2-.9-4.7-.5-1.9-1.5-3.6-2.9-5 1.1 1.5 1.8 3.4 2 5.3z"/><path id="Path_4336" class="st4" d="M12846-10322.8c3.2-1.5 6.2-3.3 8.8-5.6 14.1-13.8 15.9-24.4 18.5-42.4v-.6c-4.1 4.1-10 9.7-15.6 15l-.3.3c-6.8 6.5-13.8 12.1-17.4 13.2v.3c-1.2 2.4-2.1 4.4-3.2 6.5v.3l-3.8 12.6c5.9-5.6 10.3-9.7 10.9-10l4.7-4.1-.9 6.2s-.3 2.6-1.2 7.1c-.2.3-.2.9-.5 1.2z"/><path id="Path_4337" class="st4" d="M12819.3-10382.2c1.8-6.5 3.8-12.9 5.3-17.6-12.9 9.7-20.6 16.2-26.8 30.9 5.3 10.9 8.5 20 7.4 33.8l.9-.9c.3-.3.6-.3.9-.6.1-3.9 1-7.7 2.6-11.2 1.1-2.4 2.5-4.7 4.1-6.8.3-.3.3-.6.6-.9v-1.5c0-4.4 2.1-13.2 4.4-22.4.6-1 .9-2.2.6-2.8z"/><path id="Path_4338" class="st4" d="M12846.9-10373.1c1.5-5.9 2.4-10.6 2.9-13.8-8.8 7.9-31.2 28.8-35.9 39.7-1 2.2-1.7 4.4-2.1 6.8 2.4-2.1 5.3-4.1 8.2-6.5l6.8-5-2.4 7.1c-1.8 5-3.2 10-4.7 15-.3.3-.3.3-.3.6h.3c.2.2.4.3.6.3l.6-.3 14.1-12.6 1.8-1.5v-.3c.1-.5.3-1 .6-1.5.1-.6.3-1.2.6-1.8 3-7.2 5.4-14.5 7.4-22.1.4-1.4.9-2.8 1.5-4.1z"/><path id="Path_4339" class="st4" d="M12833.7-10377.8l4.7-15.9-15.9 14.4c-1.7 5.7-3.1 11.5-4.1 17.4 0 .6-.3 1.2-.3 1.8 4.7-5.7 9.7-11.1 15-16.2l.6-.6v-.9z"/><path id="Path_4340" class="st4" d="M12855.8-10360.1l5-20.3-11.5 11.2c-1.6 6.7-3.7 13.3-6.2 19.7-.3.6-.3.9-.6 1.5 4.1-3 8.1-6.2 11.8-9.7l.9-.9.6-1.5z"/><path id="Path_4341" class="st5" d="M12814.3-10176.6c.3-.6 1.5-7.1 3.2-15.9 2.6-15 6.5-36.2 6.5-47.1 0-6.8-1.5-11.8-4.4-15 3.3.1 6.7-.1 10-.6 3.7-.6 7.2-1.7 10.6-3.2 4.1-1.7 7.9-4.1 11.2-7.1 15.3-14.4 17.1-26.5 19.7-44.4l.9-6.2 1.2-7.1-5 5c-4.4 4.4-9.1 9.1-13.8 13.5l5.9-23.8c12.9-13.2 14.4-24.7 17.1-41.8l.9-6.2 1.2-7.1-4.7 5c-4.4 4.4-9.1 9.1-13.8 13.5l7.1-29.1-16.2 16.8c1.8-8.2 2.6-13.5 2.6-13.5l.9-6.2-4.7 4.1c-.6.6-5 4.4-10.9 10l7.1-23.5-21.5 19.1c1.5-5.9 3.5-11.8 5.3-17.4l2.4-7.1-6.8 5.6c-14.1 10.6-22.9 17.4-30 32.1-.3-.9-.9-1.5-1.2-2.4-.9-1.8-2.1-3.8-2.9-5.6l-3.2-6.5-.9 7.1c-1.2 6.2-2.1 12.9-3.2 19.1l-11.5-27.6-3.5 22.9c-1.8-4.2-3.7-8.3-5.9-12.4l-2.9-5.3-1.2 5.9c-.3.6-1.5 6.5-2.9 14.4l-8.2-23.2-5.9 28.2c-2.1-5.6-4.1-11.5-5.9-17.1l-2.4-7.1-2.4 8.2c-6.2 20.3-9.4 31.5-2.9 53.2 2.6 8.2 12.6 17.4 21.2 22.6-1.2.4-2.4.9-3.5 1.5-5 2.9-8.5 9.1-10.3 18.2-2.4 11.2-4.7 24.7-6.8 35.6-1.2 5.9-2.1 11.2-2.6 14.7-.5.3-1 .7-1.5 1.2l-2.1 2.1-1.2 1.2-2.9 2.9 2.9-.9 1.5-.3 2.4-.6-1.5 8.2 7.9-10 9.7-2.6 4.7-1.2v5.6l-1.5 2.6-8.2 13.8 10.9-6.2 10.3-5.9 4.7-2.6c-3 8.4-5.4 17.1-7.1 25.9l-.9 5.6 4.7-3.2c1.1-.5 2.1-1.2 2.9-2.1 3.5-2.4 9.7-7.1 16.5-12.6l5.6 35.3 14.7-33.2 8.8 25.6 4.1 11.8 1.6-7.2zm-30.9-35.3c3.8-2.9 7.6-6.5 11.2-9.7l.6-.6 2.9 8.5.3 1.2-.6.9-10.6 24.4-3.8-24.7zm-21.5 12.7c1.5-7.4 3.3-14.6 5.6-21.8.9-1.8 1.5-3.8 2.4-5.9 1.2-3.3 2.6-6.4 4.4-9.4.3-.3.3-.6.6-.9l1.2-1.2c.6-.9.9-1.8 1.5-2.6.6-1.2 1.2-2.1 1.8-3.2 1.8-3.2 3.2-6.5 5-9.1v-.3c1.2-1.8 2.4-3.5 3.5-5l1.2-1.2c.5-.6 1.1-1.1 1.8-1.5.9-.6 1.9-1.1 2.9-1.5 1.5-.3 3-.3 4.4 0 .5 0 1 .1 1.5.3 1.7.6 3.2 1.4 4.7 2.4.3 0 .9.6 1.5 1.2 0 .3.3.6.6.9 1.3 1.8 2.2 3.8 2.6 5.9v3.5c0 .8-.1 1.6-.3 2.4-.8 3.2-2.2 6.2-4.1 8.8-.6 1-1.3 1.8-2.1 2.6-.9 1.2-1.9 2.4-2.9 3.5l-.9.9-.6.6-2.6 2.6c-.3 0-.3.3-.6.3-.3.6-.9.9-1.2 1.2-3.8 3.8-8.2 7.6-12.4 11.2-.7.8-1.5 1.5-2.4 2.1-6.8 5.5-13.2 10.2-17.1 13.2zm-10.3-21.5l7.1-11.8v-.3l4.4-1.2 4.4-1.2 2.1-.6 1.2-.3v.3c-.8 1.3-1.5 2.7-2.1 4.1-.3.9-.9 2.1-1.2 2.9-.3.6-.6.9-.6 1.2l-1.2.6-15.6 8.8-.6.3 2.1-2.8zm-18.8-8.8c2.6-2.1 5.6-5.3 9.1-8.5.9-1.1 1.9-2 2.9-2.9 1.2-1.2 2.6-2.4 4.1-3.8 2.6-2.4 5-4.7 7.6-7.1.3 0 .6-.3.9-.6 1.2-.9 2.1-2.1 3.2-2.9 2.9-2.6 5.6-5 8.2-7.4 4.7-4.1 9.1-6.8 12.9-7.4h3.2c.3 0 .9.3 1.2.3 2.4.5 4.5 1.8 6.2 3.5l.6.6h-1.2c-1.8.6-3.5 1.5-5 2.6l-1.5 1.5c-1.9 2.2-3.6 4.5-5 7.1-.6.9-.9 1.8-1.5 2.6-1.2 2.1-2.1 4.1-3.2 6.2-.9 1.8-1.8 3.2-2.6 5-.3.3-.3.6-.6.9l-1.2.3-5.6 1.5-4.4 1.2-3.5.9-1.2.3-2.1.6-1.2.3-1.2.3-1.5.3-4.4 1.2-10 2.6-3.2.8zm50.9-49.2v3.2c-.6 0-1.2.3-1.8.3-5 .9-10 3.5-15.6 8.5-1.8 1.8-3.8 3.5-5.9 5.3v-1.2c-.5-2.3-.9-4.7-1.2-7.1-1.8-9.7-2.9-18.2.6-22.9 1.3-1.6 3-2.7 5-3.2 1.5-.3 3.2-.6 5.3-.9.6 0 1.2.1 1.8.3 2.5.3 4.9 1.4 6.8 3.2 3.2 3.4 5 8.1 5 14.5zm-34.7-15.8c3.8-2.1 7.4-1.5 9.1-1.5l-.9.9c-4.7 5.9-3.2 15.3-1.5 25.9.3 2.4.6 4.4.9 6.8l-10.3 13.2-3.5 4.4c-1.4 1.2-2.8 2.5-4.1 3.8-2.4 2.1-4.4 4.4-6.5 6.2 2.1-11.5 5.3-29.7 8.2-44.1 1.8-8 4.5-13.3 8.6-15.6zm.6-78.3l5.6 15.6c0 .3.3.6.6.9-1.3 7.6-2.2 15.3-2.6 22.9-3-5.9-5.7-12-7.9-18.2l4.3-21.2zm25.6-2l8.5 20.9c-1.1 5.5-2.5 10.9-4.1 16.2-2-7.2-4.3-14.3-7.1-21.2l2.7-15.9zm27.3 42.3v.6c-.6.3-.9.9-1.2 1.2-.6.6-1.2 1.5-1.8 2.1-4.7 5.3-8.5 11.8-12.1 20.6-.3.3-.3.9-.6 1.2-4.3 3.2-9.2 5.4-14.4 6.5h-1.8c-1.9 0-3.8.3-5.6.9-3.9-.2-7.7-1.3-11.2-3.2-8.2-4.7-18.2-13.8-20.3-20.9-5.9-19.1-3.5-29.4 1.5-46.8 4.4 13.2 13.2 37.4 18.2 42.4-.1 3 .1 5.9.6 8.8 2.9 13.8 10 14.1 11.5 13.8h.3c1-.2 1.6-1.1 1.5-2-.1-1-1.1-1.6-2-1.5-1.8.3-5.6-1.5-7.6-10.9-2.6-11.8 2.9-41.5 5.3-53.5 6.2 12.9 11.1 26.4 14.7 40.3 2.9 12.4 1.8 17.9.3 20.6-.8 1.6-2.3 2.7-4.1 2.9-.6.3-.6.3-.9.3-.9.4-1.3 1.5-.9 2.4.4.9 1.5 1.3 2.4.9h.3c2.7-.4 5.1-2 6.5-4.4 2.6-4.4 2.6-12.1.3-22.4 3.8-5.9 7.9-29.7 10-42.6 0 .3.3.3.3.6.9 1.5 1.5 3.2 2.4 4.7.9 2.1 1.8 3.8 2.6 5.6 4.6 9.8 7 18.6 5.8 31.8zm17.7-50.9l-.9 3.5c-2.6 9.1-4.4 17.9-4.4 22.4v1.5c-.3.3-.3.6-.6.9-1.6 2.1-2.9 4.4-4.1 6.8-2.4 5-2.9 8.5-2.6 11.2-.3.3-.6.3-.9.6l-.9.9c1.5-13.8-2.1-22.9-7.4-33.8 6.5-14.4 13.8-21.2 26.8-30.9-1.5 4.9-3.6 11.1-5 16.9zm13.8 5.3v1.2l-.6.6c-5 5-10.6 10.9-15 16.2 0-.6.3-1.2.3-1.8 1-5.9 2.4-11.7 4.1-17.4l15.9-14.4-4.7 15.6zm11.8 5.9c-.3 1.5-.6 2.6-.9 3.8-2.1 7.5-4.5 14.8-7.4 22.1-.1.6-.3 1.2-.6 1.8 0 .6-.3.9-.6 1.5v.3l-1.8 1.5-14.1 12.6-.6.3c-.3-.3-.3-.3-.6-.3h-.3c.3-.3.3-.3.3-.6 1.5-5 2.9-10 4.7-15l2.4-7.1-6.8 5c-2.9 2.4-5.6 4.4-8.2 6.5.4-2.3 1.1-4.6 2.1-6.8 4.7-10.6 26.8-31.5 35.9-39.7-.8 4.8-2 9.5-3.5 14.1zm-23.6 47.7l.3-.3 10-9.1-1.8 5.9v.3l-2.4 8.2-.3.6-.3.9v1.2l-.6.6-1.2 1.2c-4.7 4.7-9.7 10-13.8 15 0-.6.3-1.2.3-1.8.9-5.2 2-10.3 3.5-15.3.3-.6.3-1.5.6-2.1l1.2-1.2.6-.3 3.9-3.8zm33-35.6l-.3 1.5-.9.9c-3.7 3.5-7.6 6.7-11.8 9.7.3-.6.3-.9.6-1.5 2.4-6.4 4.5-13 6.2-19.7l11.5-11.2-5.3 20.3zm18.5-10.6c-2.6 17.9-4.4 28.5-18.2 42.1-2.7 2.2-5.7 4.1-8.8 5.6.2-.2.3-.6.3-.9.9-4.4 1.2-7.1 1.2-7.1l.9-6.2-4.7 4.1c-.6.6-5 4.4-10.9 10l3.8-12.6v-.3c1.3-2 2.4-4.2 3.2-6.5v-.3c3.5-1.5 10.3-7.1 17.4-13.2l.3-.3c5.9-5.3 11.5-10.9 15.6-15v.6h-.1zm-24.4 70.3l-.3 1.5-.9.9c-3.7 3.5-7.6 6.7-11.8 9.7.3-.6.3-.9.6-1.5 2.5-6.3 4.5-12.8 6.2-19.4l11.5-11.2-5.3 20zm-37.7 40.6c-.2-.2-.4-.3-.6-.3-1.2-.3-2.1-.9-3.2-1.2-.3 0-.6-.3-.9-.3-.5-.3-1-.7-1.5-1.2-.2-.2-.4-.3-.6-.3-.6-.3-1.5-.9-2.1-1.2-.6-.3-1.5-.6-2.1-.9-.4-.2-.8-.5-1.2-.9-2.4-2.4-4.4-5.2-5.9-8.2-2.8-6.7-4.5-13.9-5-21.2v-1.8c0-2 .3-4 .9-5.9.3-.6.3-.9.6-1.5 2.5-7.3 6.3-14.1 11.2-20 .9-1.1 1.9-2.2 2.9-3.2l.3-.3 3.5-3.5.6-.6c.9-.9 1.8-1.5 2.6-2.4l.3-.3c2.1-1.8 4.4-3.5 7.1-5.6-1.5 5-3.5 11.2-5.3 17.6v.6c-.3.9-.6 2.1-.9 2.9 0 .3-.3.6-.3.9-2.4 8.8-4.1 17.1-4.1 21.5v1.5c-.3.3-.3.6-.6.9-1.6 2.1-2.9 4.4-4.1 6.8-.9 2.1-1.6 4.3-2.1 6.5 0 .6-.3 1.5-.3 2.1-.6 6.2 2.6 8.8 3.5 9.4l.3.3c.4.3 1 .3 1.5 0 .3 0 .6-.3.9-.6l.3-.3c.3-.9-.1-1.9-.9-2.4-1.5-.9-3.5-4.7.3-13.5 1.3-2.6 2.9-5.1 4.7-7.4 5-6.5 12.4-14.1 19.1-20.9l4.4-4.4c.4-.2.8-.5 1.2-.9 2.4-2.4 4.7-4.4 6.5-5.9-.3 1.2-.6 2.6-.9 4.1-.2.2-.3.6-.3.9l-.9 4.4c-.3 1.2-.6 2.6-.9 4.1s-.6 2.6-.9 3.8c-2.1 7.5-4.5 14.8-7.4 22.1-.1.6-.3 1.2-.6 1.8 0 .6-.3.9-.6 1.5-4.4 10.3-8.5 13.8-11.2 15-1.6.6-3.4.5-5-.3-.6-.3-.6-.3-.9-.3-.9-.2-1.8.3-2 1.1-.3.9.2 1.8 1.1 2.1h.3c2.5 1.2 5.4 1.3 7.9.3 5-2.1 9.4-7.9 13.5-17.6v-.3c3.5-1.5 10.3-7.1 17.4-13.2l.3-.3c5.9-5.3 11.5-10.9 15.6-15v.6c-2.6 17.9-4.4 28.8-18.5 42.4-3.5 3.5-12.1 8.2-19.7 9.4-5.5 1.2-11.1.6-17.3-.5zm8.6 21.4c-.6 13.5-5.9 41.5-8.2 54.1l-9.7-28.2-.6-1.8-2.9-8.8-.6-1.8.3-.3c1.8-1.8 3.5-3.5 5-5.3 1.5-1.6 2.8-3.3 4.1-5 1.9-2.7 3.4-5.7 4.4-8.8.3-.6.5-1.3.6-2.1.3-2.1.3-4.3 0-6.5 0-.3-.3-.9-.3-1.2v-.3h.3c1 .1 2 .4 2.9.9l.3.3c.3 0 .6.3.9.6 2.1 1.8 3.2 5 3.5 9.1v5.1z"/><path id="Path_4342" class="st4" d="M12758.1-10295.4c-1.8-.3-5.3-1.2-9.1 1.2-4.1 2.4-6.8 7.6-8.5 15.6-2.9 14.4-6.2 32.6-8.2 44.1 1.8-1.8 4.1-3.8 6.5-6.2 1.4-1.2 2.8-2.5 4.1-3.8l3.5-4.4 10.3-13.2c-.3-2.4-.6-4.7-.9-6.8-1.8-10.9-3.2-20 1.5-25.9.2-.3.5-.6.8-.6z"/><path id="Path_4343" class="st4" d="M12801-10332.2c1.8-13.5-.6-22.4-5.3-32.4l-2.6-5.3c-.6-1.5-1.5-2.9-2.4-4.7 0-.3-.3-.3-.3-.6-2.1 12.9-5.9 37.1-10 42.6 2.4 10.3 2.4 17.9-.3 22.4-1.4 2.4-3.8 4-6.5 4.4h-.3c-.9.4-1.9 0-2.3-.9-.4-.9 0-1.9.9-2.3.3 0 .6-.3.9-.3 1.7-.4 3.2-1.5 4.1-2.9 1.5-2.6 2.6-8.2-.3-20.6-3.6-13.9-8.5-27.4-14.7-40.3-2.4 12.1-7.9 42.1-5.3 53.5 2.1 9.1 5.9 11.2 7.6 10.9 1-.1 1.9.5 2 1.5.1 1-.5 1.9-1.5 2h-.3c-1.5.3-8.5 0-11.5-13.8-.4-2.9-.6-5.9-.6-8.8-5-5-13.8-29.1-18.2-42.4-5 17.6-7.1 27.6-1.5 46.8 2.4 7.1 12.1 16.2 20.3 20.9 3.4 2 7.2 3.2 11.2 3.2 1.8-.5 3.7-.8 5.6-.9h1.8c5.2-1.1 10.1-3.3 14.4-6.5.3-.3.3-.9.6-1.2 3.5-8.8 7.4-15.3 12.1-20.6.5-.7 1.1-1.4 1.8-2.1.3-.6.9-.9 1.2-1.5 0 .2.3-.1-.6-.1z"/><path id="Path_4344" class="st4" d="M12783.7-10278.4c0-6.5-1.8-11.2-5-14.4-1.9-1.7-4.3-2.8-6.8-3.2-.6-.2-1.2-.3-1.8-.3-1.8 0-3.6.3-5.3.9-1.9.6-3.7 1.7-5 3.2-3.5 4.4-2.1 12.9-.6 22.9.5 2.3.9 4.7 1.2 7.1v1.2c2.1-1.8 4.1-3.5 5.9-5.3 5.6-5 10.9-7.9 15.6-8.5.6-.2 1.2-.3 1.8-.3v-3.3z"/><path id="Path_4345" class="st4" d="M12755.2-10356.9l-5.6-15.6-4.4 21.2c3.2 7.9 5.9 14.4 7.9 18.2.4-7.7 1.3-15.4 2.6-22.9-.2-.3-.5-.6-.5-.9z"/><path id="Path_4346" class="st4" d="M12783.4-10354.2l-8.5-20.9-2.4 15.9c2.7 6.9 5.1 14 7.1 21.2 1.7-5.4 3-10.8 3.8-16.2z"/><path id="Path_4347" class="st4" d="M12734.6-10229.8l2.6-.9 10-2.6 4.4-1.2 1.5-.3 1.2-.3 1.2-.3 2.1-.6 1.2-.3 3.5-.9 4.4-1.2 5.6-1.5 1.2-.3c.3-.3.3-.6.6-.9.9-1.8 1.8-3.2 2.6-5 1.2-2.1 2.1-4.1 3.2-6.2.6-.9.9-1.8 1.5-2.6 1.4-2.6 3-4.9 5-7.1.3-.6.8-1.1 1.5-1.5 1.5-1.2 3.2-2.1 5-2.6h1.2c-.3 0-.3-.3-.6-.6-1.7-1.8-3.8-3-6.2-3.5-.3-.2-.8-.3-1.2-.3h-3.2c-4.1.6-8.2 3.2-12.9 7.4-2.6 2.4-5.6 4.7-8.2 7.4-1.2.9-2.1 2.1-3.2 2.9-.3 0-.6.3-.9.6-2.6 2.4-5.3 4.7-7.6 7.1-1.5 1.2-2.6 2.6-4.1 3.8l-2.9 2.9c-3.8 3.6-7.1 6.5-8.5 8.6z"/><path id="Path_4348" class="st4" d="M12812.8-10260.7c5.5 1.7 11.4 2.1 17.1 1.2 7.6-1.5 15.9-5.9 19.7-9.4 14.1-13.8 15.9-24.4 18.5-42.4v-.6c-4.1 4.1-10 9.7-15.6 15l-.3.3c-6.8 6.5-13.8 12.1-17.4 13.2v.3c-4.1 9.7-8.8 15.6-13.5 17.6-2.6 1-5.5.9-7.9-.3h-.3c-.9 0-1.5-1.2-1.2-2.1 0-.9 1.2-1.5 2.1-1.2.3 0 .6.3.9.3 1.5.9 3.4 1 5 .3 2.6-.9 6.8-4.4 11.2-15 .1-.5.3-1 .6-1.5.1-.6.3-1.2.6-1.8 3-7.2 5.4-14.5 7.4-22.1.3-1.5.6-2.6.9-3.8.3-1.5.6-2.6.9-4.1.3-1.8.6-2.9.9-4.4.2-.2.3-.6.3-.9.3-1.5.6-2.9.9-4.1-1.8 1.5-3.8 3.5-6.5 5.9-.4.2-.8.5-1.2.9l-4.4 4.4c-6.8 6.5-13.2 13.5-19.1 20.9-1.8 2.3-3.4 4.7-4.7 7.4-3.8 8.8-1.8 12.6-.3 13.5.9.4 1.2 1.5.9 2.4l-.3.3c-.3.3-.6.6-.9.6-.4.3-1 .3-1.5 0 0-.3 0-.3-.3-.3-.9-.6-4.1-2.9-3.5-9.4 0-.7.1-1.4.3-2.1.3-2.3 1-4.4 2.1-6.5 1.1-2.4 2.5-4.7 4.1-6.8.3-.3.3-.6.6-.9v-1.5c0-4.4 1.8-12.6 4.1-21.5 0-.3.3-.6.3-.9.3-.9.6-2.1.9-2.9v-.6c1.8-6.5 3.8-12.9 5.3-17.6-2.6 2.1-5 3.8-7.1 5.6l-.3.3c-.9.9-1.8 1.5-2.6 2.4-.3.3-.3.6-.6.6l-3.5 3.5-.3.3c-1.1 1-2 2.1-2.9 3.2-4.9 5.9-8.7 12.7-11.2 20-.3.6-.3.9-.6 1.5-.6 1.9-.9 3.9-.9 5.9v1.8c.5 7.3 2.2 14.4 5 21.2 1.2 3.2 3.3 6 5.9 8.2.3.3.9.6 1.2.9.6.3 1.5.6 2.1.9.6.3 1.5.9 2.1 1.2.2 0 .4.1.6.3.5.3 1 .7 1.5 1.2.3 0 .6.3.9.3 1 .5 2.1.9 3.2 1.2-.4 0-.1.3.8-.3z"/><path id="Path_4349" class="st4" d="M12751.3-10220.7l-1.8 2.9.6-.3 15.6-8.8 1.2-.6c.3-.6.3-.9.6-1.2.3-1 .7-2 1.2-2.9.6-1.5 1.5-2.9 2.1-4.1v-.3l-1.2.3-2.1.6-4.4 1.2-4.7 1.5-7.1 11.7z"/><path id="Path_4350" class="st4" d="M12769-10221c-2.9 8.5-5 16.8-6.2 21.8 3.8-2.6 10.3-7.6 17.1-13.2.7-.8 1.5-1.5 2.4-2.1 4.1-3.5 8.5-7.4 12.4-11.2.3-.6.9-.9 1.2-1.2.2 0 .4-.1.6-.3l2.6-2.6.6-.6.9-.9c.9-1.2 2.1-2.4 2.9-3.5.6-.9 1.5-1.8 2.1-2.6 2-2.6 3.4-5.6 4.1-8.8 0-.9.3-1.5.3-2.4.3-1.2.3-2.4 0-3.5-.3-2.2-1.2-4.2-2.6-5.9-.3-.3-.3-.6-.6-.9-.5-.3-1-.7-1.5-1.2-1.5-1-3.1-1.7-4.7-2.4-.6 0-.9-.3-1.5-.3-1.5-.3-3-.3-4.4 0-1.1.3-2.1.8-2.9 1.5-.6.6-1.2.9-1.8 1.5-.6.3-.9.9-1.2 1.2-1.2 1.5-2.4 3.2-3.5 5v.3c-1.8 2.6-3.2 5.9-5 9.1-.6 1.2-1.2 2.1-1.8 3.2-.6.9-.9 1.8-1.5 2.6l-.6.6-.3.3c-.2 0-.3.1-.3.3-.3.3-.3.6-.6.9-1.7 3-3.3 6.2-4.7 9.4-.9 1.8-1.8 3.8-1.5 5.9z"/><path id="Path_4351" class="st4" d="M12811.9-10184.2c2.6-12.6 7.6-40.6 8.2-54.1v-5c-.3-4.1-1.5-7.4-3.5-9.1-.3-.3-.6-.3-.9-.6l-.3-.3c-.9-.5-1.9-.8-2.9-.9h-.3v.3c0 .3.3.9.3 1.2.6 2.1.3 4.1 0 6.5-.3.6-.3 1.5-.6 2.1-1 3.2-2.5 6.1-4.4 8.8-1.2 1.5-2.6 3.2-4.1 5-1.5 1.8-3.2 3.5-5 5.3l-.3.3.6 1.8 2.9 8.8.6 1.8 9.7 28.1z"/><path id="Path_4352" class="st4" d="M12787.2-10187.2l10.6-24.4.6-.9-.3-1.2-2.9-8.5-.6.6c-3.5 3.5-7.4 6.8-11.2 10l3.8 24.4z"/><path id="Path_4353" class="st4" d="M12822.2-10324l-3.8 3.5-.6.3-1.2 1.2c-.3.6-.3 1.5-.6 2.1-1.5 5-2.7 10.1-3.5 15.3 0 .6-.3 1.2-.3 1.8 4.1-5 9.1-10.3 13.8-15l1.2-1.2.6-.6v-1.2l.3-.9.3-.6 2.4-8.2v-.3l1.8-5.9-10 9.1-.4.6z"/><path id="Path_4354" class="st4" d="M12849.6-10299.8l5-20.3-11.5 11.2c-1.7 6.6-3.8 13.1-6.2 19.4-.3.6-.3.9-.6 1.5 4.1-3 8.1-6.2 11.8-9.7l.9-.9.6-1.2z"/></g></g></svg>