<?xml version="1.0" encoding="UTF-8" standalone="no"?>
<svg
   width="740"
   height="740"
   version="1.1"
   id="svg491"
   sodipodi:docname="whatsappfa.svg"
   inkscape:version="1.1.2 (0a00cf5339, 2022-02-04)"
   inkscape:export-filename="/home/dan/git/abingdonpta/content/about/whatsapp/images/whatsappfa.png"
   inkscape:export-xdpi="96"
   inkscape:export-ydpi="96"
   xmlns:inkscape="http://www.inkscape.org/namespaces/inkscape"
   xmlns:sodipodi="http://sodipodi.sourceforge.net/DTD/sodipodi-0.dtd"
   xmlns="http://www.w3.org/2000/svg"
   xmlns:svg="http://www.w3.org/2000/svg">
  <defs
     id="defs495">
    <linearGradient
       id="b"
       x1="85.915001"
       x2="86.535004"
       y1="32.567001"
       y2="137.092"
       gradientUnits="userSpaceOnUse"
       gradientTransform="matrix(0.9713347,0,0,0.9713347,284.90367,285.06298)">
      <stop
         offset="0"
         stop-color="#57d163"
         id="stop2" />
      <stop
         offset="1"
         stop-color="#23b33a"
         id="stop4" />
    </linearGradient>
  </defs>
  <sodipodi:namedview
     id="namedview493"
     pagecolor="#ffffff"
     bordercolor="#666666"
     borderopacity="1.0"
     inkscape:pageshadow="2"
     inkscape:pageopacity="0.0"
     inkscape:pagecheckerboard="0"
     showgrid="false"
     fit-margin-top="0"
     fit-margin-left="0"
     fit-margin-right="0"
     fit-margin-bottom="0"
     inkscape:zoom="0.65540541"
     inkscape:cx="116.72165"
     inkscape:cy="267.01031"
     inkscape:window-width="1920"
     inkscape:window-height="1011"
     inkscape:window-x="0"
     inkscape:window-y="0"
     inkscape:window-maximized="1"
     inkscape:current-layer="svg491" />
  <desc
     id="desc2">Zint Generated Symbol
   </desc>
  <g
     id="barcode"
     fill="#000000"
     transform="scale(10)">
    <rect
       x="0"
       y="0"
       width="74"
       height="74"
       fill="#ffffff"
       id="rect4" />
    <rect
       x="4"
       y="4"
       width="14"
       height="2"
       id="rect6" />
    <rect
       x="22"
       y="4"
       width="4"
       height="2"
       id="rect8" />
    <rect
       x="28"
       y="4"
       width="4"
       height="2"
       id="rect10" />
    <rect
       x="34"
       y="4"
       width="10"
       height="2"
       id="rect12" />
    <rect
       x="46"
       y="4"
       width="6"
       height="2"
       id="rect14" />
    <rect
       x="56"
       y="4"
       width="14"
       height="2"
       id="rect16" />
    <rect
       x="4"
       y="6"
       width="2"
       height="10"
       id="rect18" />
    <rect
       x="16"
       y="6"
       width="2"
       height="10"
       id="rect20" />
    <rect
       x="24"
       y="6"
       width="4"
       height="2"
       id="rect22" />
    <rect
       x="30"
       y="6"
       width="6"
       height="2"
       id="rect24" />
    <rect
       x="38"
       y="6"
       width="2"
       height="2"
       id="rect26" />
    <rect
       x="48"
       y="6"
       width="2"
       height="2"
       id="rect28" />
    <rect
       x="52"
       y="6"
       width="2"
       height="2"
       id="rect30" />
    <rect
       x="56"
       y="6"
       width="2"
       height="10"
       id="rect32" />
    <rect
       x="68"
       y="6"
       width="2"
       height="10"
       id="rect34" />
    <rect
       x="8"
       y="8"
       width="6"
       height="6"
       id="rect36" />
    <rect
       x="20"
       y="8"
       width="8"
       height="2"
       id="rect38" />
    <rect
       x="30"
       y="8"
       width="2"
       height="2"
       id="rect40" />
    <rect
       x="34"
       y="8"
       width="2"
       height="2"
       id="rect42" />
    <rect
       x="38"
       y="8"
       width="4"
       height="2"
       id="rect44" />
    <rect
       x="46"
       y="8"
       width="6"
       height="2"
       id="rect46" />
    <rect
       x="60"
       y="8"
       width="6"
       height="6"
       id="rect48" />
    <rect
       x="20"
       y="10"
       width="2"
       height="2"
       id="rect50" />
    <rect
       x="26"
       y="10"
       width="2"
       height="2"
       id="rect52" />
    <rect
       x="32"
       y="10"
       width="2"
       height="2"
       id="rect54" />
    <rect
       x="36"
       y="10"
       width="2"
       height="2"
       id="rect56" />
    <rect
       x="44"
       y="10"
       width="2"
       height="2"
       id="rect58" />
    <rect
       x="48"
       y="10"
       width="4"
       height="2"
       id="rect60" />
    <rect
       x="20"
       y="12"
       width="4"
       height="2"
       id="rect62" />
    <rect
       x="30"
       y="12"
       width="2"
       height="2"
       id="rect64" />
    <rect
       x="34"
       y="12"
       width="2"
       height="2"
       id="rect66" />
    <rect
       x="38"
       y="12"
       width="4"
       height="2"
       id="rect68" />
    <rect
       x="46"
       y="12"
       width="2"
       height="2"
       id="rect70" />
    <rect
       x="50"
       y="12"
       width="2"
       height="2"
       id="rect72" />
    <rect
       x="20"
       y="14"
       width="8"
       height="2"
       id="rect74" />
    <rect
       x="30"
       y="14"
       width="10"
       height="2"
       id="rect76" />
    <rect
       x="44"
       y="14"
       width="2"
       height="4"
       id="rect78" />
    <rect
       x="48"
       y="14"
       width="2"
       height="4"
       id="rect80" />
    <rect
       x="4"
       y="16"
       width="14"
       height="2"
       id="rect82" />
    <rect
       x="20"
       y="16"
       width="2"
       height="4"
       id="rect84" />
    <rect
       x="24"
       y="16"
       width="2"
       height="2"
       id="rect86" />
    <rect
       x="28"
       y="16"
       width="2"
       height="4"
       id="rect88" />
    <rect
       x="32"
       y="16"
       width="2"
       height="2"
       id="rect90" />
    <rect
       x="36"
       y="16"
       width="2"
       height="2"
       id="rect92" />
    <rect
       x="40"
       y="16"
       width="2"
       height="4"
       id="rect94" />
    <rect
       x="52"
       y="16"
       width="2"
       height="2"
       id="rect96" />
    <rect
       x="56"
       y="16"
       width="14"
       height="2"
       id="rect98" />
    <rect
       x="34"
       y="18"
       width="2"
       height="2"
       id="rect100" />
    <rect
       x="46"
       y="18"
       width="6"
       height="2"
       id="rect102" />
    <rect
       x="4"
       y="20"
       width="2"
       height="2"
       id="rect104" />
    <rect
       x="8"
       y="20"
       width="10"
       height="2"
       id="rect106" />
    <rect
       x="22"
       y="20"
       width="18"
       height="2"
       id="rect108" />
    <rect
       x="44"
       y="20"
       width="2"
       height="2"
       id="rect110" />
    <rect
       x="48"
       y="20"
       width="2"
       height="2"
       id="rect112" />
    <rect
       x="52"
       y="20"
       width="2"
       height="2"
       id="rect114" />
    <rect
       x="56"
       y="20"
       width="10"
       height="2"
       id="rect116" />
    <rect
       x="10"
       y="22"
       width="6"
       height="2"
       id="rect118" />
    <rect
       x="20"
       y="22"
       width="4"
       height="2"
       id="rect120" />
    <rect
       x="26"
       y="22"
       width="4"
       height="2"
       id="rect122" />
    <rect
       x="34"
       y="22"
       width="4"
       height="2"
       id="rect124" />
    <rect
       x="40"
       y="22"
       width="6"
       height="2"
       id="rect126" />
    <rect
       x="50"
       y="22"
       width="4"
       height="2"
       id="rect128" />
    <rect
       x="56"
       y="22"
       width="4"
       height="2"
       id="rect130" />
    <rect
       x="62"
       y="22"
       width="4"
       height="2"
       id="rect132" />
    <rect
       x="68"
       y="22"
       width="2"
       height="2"
       id="rect134" />
    <rect
       x="10"
       y="24"
       width="2"
       height="2"
       id="rect136" />
    <rect
       x="14"
       y="24"
       width="4"
       height="2"
       id="rect138" />
    <rect
       x="20"
       y="24"
       width="2"
       height="2"
       id="rect140" />
    <rect
       x="24"
       y="24"
       width="6"
       height="2"
       id="rect142" />
    <rect
       x="34"
       y="24"
       width="2"
       height="2"
       id="rect144" />
    <rect
       x="40"
       y="24"
       width="2"
       height="2"
       id="rect146" />
    <rect
       x="48"
       y="24"
       width="2"
       height="2"
       id="rect148" />
    <rect
       x="52"
       y="24"
       width="2"
       height="2"
       id="rect150" />
    <rect
       x="60"
       y="24"
       width="2"
       height="2"
       id="rect152" />
    <rect
       x="64"
       y="24"
       width="4"
       height="2"
       id="rect154" />
    <rect
       x="6"
       y="26"
       width="6"
       height="2"
       id="rect156" />
    <rect
       x="18"
       y="26"
       width="12"
       height="2"
       id="rect158" />
    <rect
       x="32"
       y="26"
       width="2"
       height="2"
       id="rect160" />
    <rect
       x="46"
       y="26"
       width="2"
       height="2"
       id="rect162" />
    <rect
       x="60"
       y="26"
       width="6"
       height="2"
       id="rect164" />
    <rect
       x="68"
       y="26"
       width="2"
       height="2"
       id="rect166" />
    <rect
       x="4"
       y="28"
       width="2"
       height="4"
       id="rect168" />
    <rect
       x="8"
       y="28"
       width="10"
       height="2"
       id="rect170" />
    <rect
       x="22"
       y="28"
       width="2"
       height="2"
       id="rect172" />
    <rect
       x="34"
       y="28"
       width="2"
       height="2"
       id="rect174" />
    <rect
       x="40"
       y="28"
       width="2"
       height="2"
       id="rect176" />
    <rect
       x="48"
       y="28"
       width="2"
       height="2"
       id="rect178" />
    <rect
       x="54"
       y="28"
       width="2"
       height="2"
       id="rect180" />
    <rect
       x="60"
       y="28"
       width="4"
       height="2"
       id="rect182" />
    <rect
       x="66"
       y="28"
       width="4"
       height="2"
       id="rect184" />
    <rect
       x="18"
       y="30"
       width="12"
       height="2"
       id="rect186" />
    <rect
       x="32"
       y="30"
       width="6"
       height="2"
       id="rect188" />
    <rect
       x="44"
       y="30"
       width="2"
       height="2"
       id="rect190" />
    <rect
       x="58"
       y="30"
       width="2"
       height="2"
       id="rect192" />
    <rect
       x="64"
       y="30"
       width="6"
       height="2"
       id="rect194" />
    <rect
       x="10"
       y="32"
       width="8"
       height="2"
       id="rect196" />
    <rect
       x="22"
       y="32"
       width="8"
       height="2"
       id="rect198" />
    <rect
       x="38"
       y="32"
       width="6"
       height="2"
       id="rect200" />
    <rect
       x="46"
       y="32"
       width="2"
       height="2"
       id="rect202" />
    <rect
       x="54"
       y="32"
       width="4"
       height="2"
       id="rect204" />
    <rect
       x="66"
       y="32"
       width="2"
       height="2"
       id="rect206" />
    <rect
       x="4"
       y="34"
       width="6"
       height="2"
       id="rect208" />
    <rect
       x="12"
       y="34"
       width="4"
       height="2"
       id="rect210" />
    <rect
       x="18"
       y="34"
       width="14"
       height="2"
       id="rect212" />
    <rect
       x="36"
       y="34"
       width="2"
       height="2"
       id="rect214" />
    <rect
       x="42"
       y="34"
       width="6"
       height="2"
       id="rect216" />
    <rect
       x="52"
       y="34"
       width="14"
       height="2"
       id="rect218" />
    <rect
       x="6"
       y="36"
       width="2"
       height="2"
       id="rect220" />
    <rect
       x="14"
       y="36"
       width="8"
       height="2"
       id="rect222" />
    <rect
       x="24"
       y="36"
       width="2"
       height="2"
       id="rect224" />
    <rect
       x="28"
       y="36"
       width="2"
       height="2"
       id="rect226" />
    <rect
       x="36"
       y="36"
       width="4"
       height="2"
       id="rect228" />
    <rect
       x="42"
       y="36"
       width="4"
       height="2"
       id="rect230" />
    <rect
       x="48"
       y="36"
       width="4"
       height="2"
       id="rect232" />
    <rect
       x="54"
       y="36"
       width="2"
       height="2"
       id="rect234" />
    <rect
       x="58"
       y="36"
       width="4"
       height="2"
       id="rect236" />
    <rect
       x="68"
       y="36"
       width="2"
       height="2"
       id="rect238" />
    <rect
       x="4"
       y="38"
       width="4"
       height="2"
       id="rect240" />
    <rect
       x="10"
       y="38"
       width="6"
       height="2"
       id="rect242" />
    <rect
       x="18"
       y="38"
       width="2"
       height="2"
       id="rect244" />
    <rect
       x="22"
       y="38"
       width="2"
       height="2"
       id="rect246" />
    <rect
       x="26"
       y="38"
       width="4"
       height="2"
       id="rect248" />
    <rect
       x="34"
       y="38"
       width="12"
       height="2"
       id="rect250" />
    <rect
       x="50"
       y="38"
       width="2"
       height="2"
       id="rect252" />
    <rect
       x="56"
       y="38"
       width="4"
       height="2"
       id="rect254" />
    <rect
       x="62"
       y="38"
       width="4"
       height="2"
       id="rect256" />
    <rect
       x="14"
       y="40"
       width="4"
       height="2"
       id="rect258" />
    <rect
       x="20"
       y="40"
       width="2"
       height="2"
       id="rect260" />
    <rect
       x="26"
       y="40"
       width="2"
       height="2"
       id="rect262" />
    <rect
       x="30"
       y="40"
       width="2"
       height="2"
       id="rect264" />
    <rect
       x="34"
       y="40"
       width="2"
       height="2"
       id="rect266" />
    <rect
       x="38"
       y="40"
       width="2"
       height="2"
       id="rect268" />
    <rect
       x="44"
       y="40"
       width="4"
       height="2"
       id="rect270" />
    <rect
       x="56"
       y="40"
       width="6"
       height="2"
       id="rect272" />
    <rect
       x="64"
       y="40"
       width="4"
       height="2"
       id="rect274" />
    <rect
       x="4"
       y="42"
       width="2"
       height="2"
       id="rect276" />
    <rect
       x="10"
       y="42"
       width="2"
       height="2"
       id="rect278" />
    <rect
       x="22"
       y="42"
       width="6"
       height="2"
       id="rect280" />
    <rect
       x="34"
       y="42"
       width="8"
       height="2"
       id="rect282" />
    <rect
       x="46"
       y="42"
       width="2"
       height="2"
       id="rect284" />
    <rect
       x="52"
       y="42"
       width="2"
       height="2"
       id="rect286" />
    <rect
       x="58"
       y="42"
       width="10"
       height="2"
       id="rect288" />
    <rect
       x="12"
       y="44"
       width="2"
       height="2"
       id="rect290" />
    <rect
       x="16"
       y="44"
       width="2"
       height="2"
       id="rect292" />
    <rect
       x="22"
       y="44"
       width="2"
       height="4"
       id="rect294" />
    <rect
       x="28"
       y="44"
       width="2"
       height="4"
       id="rect296" />
    <rect
       x="32"
       y="44"
       width="2"
       height="2"
       id="rect298" />
    <rect
       x="36"
       y="44"
       width="2"
       height="2"
       id="rect300" />
    <rect
       x="44"
       y="44"
       width="2"
       height="2"
       id="rect302" />
    <rect
       x="48"
       y="44"
       width="2"
       height="2"
       id="rect304" />
    <rect
       x="52"
       y="44"
       width="4"
       height="2"
       id="rect306" />
    <rect
       x="58"
       y="44"
       width="2"
       height="2"
       id="rect308" />
    <rect
       x="62"
       y="44"
       width="2"
       height="2"
       id="rect310" />
    <rect
       x="68"
       y="44"
       width="2"
       height="4"
       id="rect312" />
    <rect
       x="4"
       y="46"
       width="2"
       height="8"
       id="rect314" />
    <rect
       x="8"
       y="46"
       width="4"
       height="2"
       id="rect316" />
    <rect
       x="18"
       y="46"
       width="2"
       height="2"
       id="rect318" />
    <rect
       x="32"
       y="46"
       width="4"
       height="2"
       id="rect320" />
    <rect
       x="38"
       y="46"
       width="4"
       height="2"
       id="rect322" />
    <rect
       x="46"
       y="46"
       width="2"
       height="2"
       id="rect324" />
    <rect
       x="50"
       y="46"
       width="2"
       height="2"
       id="rect326" />
    <rect
       x="54"
       y="46"
       width="4"
       height="2"
       id="rect328" />
    <rect
       x="64"
       y="46"
       width="2"
       height="2"
       id="rect330" />
    <rect
       x="16"
       y="48"
       width="2"
       height="2"
       id="rect332" />
    <rect
       x="20"
       y="48"
       width="2"
       height="2"
       id="rect334" />
    <rect
       x="24"
       y="48"
       width="2"
       height="2"
       id="rect336" />
    <rect
       x="32"
       y="48"
       width="8"
       height="2"
       id="rect338" />
    <rect
       x="44"
       y="48"
       width="4"
       height="2"
       id="rect340" />
    <rect
       x="52"
       y="48"
       width="2"
       height="2"
       id="rect342" />
    <rect
       x="62"
       y="48"
       width="2"
       height="2"
       id="rect344" />
    <rect
       x="66"
       y="48"
       width="2"
       height="2"
       id="rect346" />
    <rect
       x="10"
       y="50"
       width="6"
       height="2"
       id="rect348" />
    <rect
       x="18"
       y="50"
       width="4"
       height="2"
       id="rect350" />
    <rect
       x="30"
       y="50"
       width="2"
       height="2"
       id="rect352" />
    <rect
       x="34"
       y="50"
       width="2"
       height="4"
       id="rect354" />
    <rect
       x="46"
       y="50"
       width="6"
       height="2"
       id="rect356" />
    <rect
       x="54"
       y="50"
       width="8"
       height="2"
       id="rect358" />
    <rect
       x="64"
       y="50"
       width="2"
       height="2"
       id="rect360" />
    <rect
       x="8"
       y="52"
       width="2"
       height="2"
       id="rect362" />
    <rect
       x="14"
       y="52"
       width="6"
       height="2"
       id="rect364" />
    <rect
       x="24"
       y="52"
       width="2"
       height="4"
       id="rect366" />
    <rect
       x="28"
       y="52"
       width="2"
       height="2"
       id="rect368" />
    <rect
       x="38"
       y="52"
       width="2"
       height="2"
       id="rect370" />
    <rect
       x="48"
       y="52"
       width="2"
       height="2"
       id="rect372" />
    <rect
       x="52"
       y="52"
       width="12"
       height="2"
       id="rect374" />
    <rect
       x="20"
       y="54"
       width="2"
       height="2"
       id="rect376" />
    <rect
       x="30"
       y="54"
       width="2"
       height="2"
       id="rect378" />
    <rect
       x="34"
       y="54"
       width="4"
       height="4"
       id="rect380" />
    <rect
       x="40"
       y="54"
       width="10"
       height="2"
       id="rect382" />
    <rect
       x="52"
       y="54"
       width="2"
       height="2"
       id="rect384" />
    <rect
       x="60"
       y="54"
       width="2"
       height="4"
       id="rect386" />
    <rect
       x="64"
       y="54"
       width="2"
       height="2"
       id="rect388" />
    <rect
       x="68"
       y="54"
       width="2"
       height="2"
       id="rect390" />
    <rect
       x="4"
       y="56"
       width="14"
       height="2"
       id="rect392" />
    <rect
       x="22"
       y="56"
       width="10"
       height="2"
       id="rect394" />
    <rect
       x="40"
       y="56"
       width="2"
       height="2"
       id="rect396" />
    <rect
       x="44"
       y="56"
       width="2"
       height="2"
       id="rect398" />
    <rect
       x="48"
       y="56"
       width="6"
       height="2"
       id="rect400" />
    <rect
       x="56"
       y="56"
       width="2"
       height="2"
       id="rect402" />
    <rect
       x="64"
       y="56"
       width="4"
       height="2"
       id="rect404" />
    <rect
       x="4"
       y="58"
       width="2"
       height="10"
       id="rect406" />
    <rect
       x="16"
       y="58"
       width="2"
       height="10"
       id="rect408" />
    <rect
       x="20"
       y="58"
       width="2"
       height="2"
       id="rect410" />
    <rect
       x="26"
       y="58"
       width="4"
       height="2"
       id="rect412" />
    <rect
       x="32"
       y="58"
       width="2"
       height="2"
       id="rect414" />
    <rect
       x="36"
       y="58"
       width="2"
       height="2"
       id="rect416" />
    <rect
       x="42"
       y="58"
       width="2"
       height="2"
       id="rect418" />
    <rect
       x="46"
       y="58"
       width="2"
       height="4"
       id="rect420" />
    <rect
       x="50"
       y="58"
       width="4"
       height="2"
       id="rect422" />
    <rect
       x="60"
       y="58"
       width="6"
       height="2"
       id="rect424" />
    <rect
       x="68"
       y="58"
       width="2"
       height="2"
       id="rect426" />
    <rect
       x="8"
       y="60"
       width="6"
       height="6"
       id="rect428" />
    <rect
       x="20"
       y="60"
       width="4"
       height="2"
       id="rect430" />
    <rect
       x="26"
       y="60"
       width="2"
       height="2"
       id="rect432" />
    <rect
       x="30"
       y="60"
       width="2"
       height="2"
       id="rect434" />
    <rect
       x="40"
       y="60"
       width="2"
       height="2"
       id="rect436" />
    <rect
       x="52"
       y="60"
       width="12"
       height="2"
       id="rect438" />
    <rect
       x="20"
       y="62"
       width="2"
       height="2"
       id="rect440" />
    <rect
       x="26"
       y="62"
       width="4"
       height="2"
       id="rect442" />
    <rect
       x="34"
       y="62"
       width="6"
       height="2"
       id="rect444" />
    <rect
       x="44"
       y="62"
       width="4"
       height="2"
       id="rect446" />
    <rect
       x="52"
       y="62"
       width="4"
       height="2"
       id="rect448" />
    <rect
       x="60"
       y="62"
       width="2"
       height="2"
       id="rect450" />
    <rect
       x="66"
       y="62"
       width="4"
       height="2"
       id="rect452" />
    <rect
       x="20"
       y="64"
       width="8"
       height="2"
       id="rect454" />
    <rect
       x="30"
       y="64"
       width="2"
       height="2"
       id="rect456" />
    <rect
       x="42"
       y="64"
       width="2"
       height="2"
       id="rect458" />
    <rect
       x="46"
       y="64"
       width="4"
       height="2"
       id="rect460" />
    <rect
       x="56"
       y="64"
       width="4"
       height="2"
       id="rect462" />
    <rect
       x="62"
       y="64"
       width="4"
       height="2"
       id="rect464" />
    <rect
       x="24"
       y="66"
       width="2"
       height="2"
       id="rect466" />
    <rect
       x="28"
       y="66"
       width="6"
       height="2"
       id="rect468" />
    <rect
       x="36"
       y="66"
       width="2"
       height="2"
       id="rect470" />
    <rect
       x="42"
       y="66"
       width="6"
       height="2"
       id="rect472" />
    <rect
       x="50"
       y="66"
       width="2"
       height="2"
       id="rect474" />
    <rect
       x="60"
       y="66"
       width="6"
       height="2"
       id="rect476" />
    <rect
       x="4"
       y="68"
       width="14"
       height="2"
       id="rect478" />
    <rect
       x="20"
       y="68"
       width="10"
       height="2"
       id="rect480" />
    <rect
       x="38"
       y="68"
       width="8"
       height="2"
       id="rect482" />
    <rect
       x="48"
       y="68"
       width="2"
       height="2"
       id="rect484" />
    <rect
       x="52"
       y="68"
       width="8"
       height="2"
       id="rect486" />
    <rect
       x="62"
       y="68"
       width="6"
       height="2"
       id="rect488" />
  </g>
  <path
     fill="#ffffff"
     d="m 297.498,441.67904 10.13976,-37.02145 a 71.315396,71.315396 0 0 1 -9.53948,-35.71792 c 0.017,-39.39345 32.07444,-71.44167 71.46887,-71.44167 19.11684,0.01 37.0603,7.44917 50.55506,20.95364 13.49474,13.50446 20.91963,31.45473 20.91283,50.54534 -0.017,39.39054 -32.08027,71.44458 -71.46886,71.44458 h -0.031 c -11.96013,-0.005 -23.71231,-3.00531 -34.15124,-8.69733 z"
     id="path14"
     style="stroke-width:0.971335" />
  <path
     fill="url(#b)"
     d="m 369.58852,309.56684 c -32.76604,0 -59.41266,26.63691 -59.42432,59.37769 a 59.231992,59.231992 0 0 0 9.08101,31.60237 l 1.41329,2.2467 -6.00188,21.91137 22.48252,-5.89503 2.17093,1.28605 c 9.11792,5.4113 19.5724,8.27286 30.23377,8.27868 h 0.022 c 32.74078,0 59.38739,-26.63982 59.40002,-59.38255 a 59.008585,59.008585 0 0 0 -17.38169,-42.01119 59.008585,59.008585 0 0 0 -41.99565,-17.41409 z"
     id="path18"
     style="fill:url(#b);stroke-width:0.971335" />
  <path
     fill="#ffffff"
     fill-rule="evenodd"
     d="m 351.7043,339.0721 c -1.3385,-2.97325 -2.74693,-3.03348 -4.01841,-3.08496 l -3.42298,-0.042 c -1.19086,0 -3.12576,0.4468 -4.76149,2.23407 -1.63572,1.78726 -6.25054,6.10679 -6.25054,14.89251 0,8.78572 6.39916,17.27519 7.29084,18.46799 0.8917,1.19279 12.35344,19.79677 30.50477,26.95453 15.08386,5.94846 18.15328,4.76537 21.42862,4.46814 3.27534,-0.2972 10.5652,-4.31952 12.05232,-8.48946 1.48711,-4.16994 1.48808,-7.74251 1.04224,-8.48947 -0.4458,-0.747 -1.6367,-1.19085 -3.42396,-2.08448 -1.78725,-0.8936 -10.5652,-5.21315 -12.2019,-5.80955 -1.6367,-0.5964 -2.82659,-0.8927 -4.01841,0.8946 -1.19183,1.78725 -4.60996,5.80761 -5.6522,6.99943 -1.04224,1.19183 -2.08254,1.34142 -3.8698,0.4488 -1.78725,-0.8927 -7.53756,-2.77899 -14.36021,-8.86246 -5.30835,-4.73331 -8.8916,-10.5788 -9.93481,-12.36509 -1.04322,-1.78628 -0.1107,-2.75373 0.7848,-3.64348 0.8013,-0.8004 1.78531,-2.08545 2.67991,-3.12769 0.8946,-1.04225 1.18891,-1.78726 1.78337,-2.97714 0.5945,-1.18989 0.2982,-2.23505 -0.1486,-3.1277 -0.4468,-0.8927 -3.91642,-9.72403 -5.50358,-13.25581"
     id="path20"
     style="stroke-width:0.971335" />
</svg>
